%TF.GenerationSoftware,KiCad,Pcbnew,(6.0.8)*%
%TF.CreationDate,2022-10-01T20:44:16-07:00*%
%TF.ProjectId,unified_elec_steering,756e6966-6965-4645-9f65-6c65635f7374,rev?*%
%TF.SameCoordinates,Original*%
%TF.FileFunction,Drillmap*%
%TF.FilePolarity,Positive*%
%FSLAX45Y45*%
G04 Gerber Fmt 4.5, Leading zero omitted, Abs format (unit mm)*
G04 Created by KiCad (PCBNEW (6.0.8)) date 2022-10-01 20:44:16*
%MOMM*%
%LPD*%
G01*
G04 APERTURE LIST*
%ADD10C,0.100000*%
%ADD11C,0.200000*%
%ADD12C,0.160000*%
%ADD13C,0.218000*%
G04 APERTURE END LIST*
D10*
X4175900Y-8712200D02*
G75*
G03*
X4025900Y-8862200I0J-150000D01*
G01*
X4025900Y-17731600D02*
G75*
G03*
X4175900Y-17881600I150000J0D01*
G01*
X11965800Y-17881600D02*
G75*
G03*
X12115800Y-17731600I0J150000D01*
G01*
X12115800Y-8862200D02*
G75*
G03*
X11965800Y-8712200I-150000J0D01*
G01*
X4175900Y-17881600D02*
X11965800Y-17881600D01*
X12115800Y-17731600D02*
X12115800Y-8862200D01*
X11965800Y-8712200D02*
X4175900Y-8712200D01*
X4025900Y-17731600D02*
X4025900Y-8862200D01*
D11*
D12*
X5444100Y-13910700D02*
X5604100Y-14070700D01*
X5604100Y-13910700D02*
X5444100Y-14070700D01*
X5444100Y-15040700D02*
X5604100Y-15200700D01*
X5604100Y-15040700D02*
X5444100Y-15200700D01*
X5444100Y-16170700D02*
X5604100Y-16330700D01*
X5604100Y-16170700D02*
X5444100Y-16330700D01*
X5444100Y-17300700D02*
X5604100Y-17460700D01*
X5604100Y-17300700D02*
X5444100Y-17460700D01*
D13*
X9302200Y-12867900D02*
G75*
G03*
X9302200Y-12867900I-109000J0D01*
G01*
X9302200Y-16747900D02*
G75*
G03*
X9302200Y-16747900I-109000J0D01*
G01*
X11842200Y-12867900D02*
G75*
G03*
X11842200Y-12867900I-109000J0D01*
G01*
X11842200Y-16747900D02*
G75*
G03*
X11842200Y-16747900I-109000J0D01*
G01*
D11*
X4278519Y-18197076D02*
X4278519Y-17997076D01*
X4326138Y-17997076D01*
X4354710Y-18006600D01*
X4373757Y-18025648D01*
X4383281Y-18044695D01*
X4392805Y-18082790D01*
X4392805Y-18111362D01*
X4383281Y-18149457D01*
X4373757Y-18168505D01*
X4354710Y-18187552D01*
X4326138Y-18197076D01*
X4278519Y-18197076D01*
X4478519Y-18197076D02*
X4478519Y-18063743D01*
X4478519Y-18101838D02*
X4488043Y-18082790D01*
X4497567Y-18073267D01*
X4516614Y-18063743D01*
X4535662Y-18063743D01*
X4602329Y-18197076D02*
X4602329Y-18063743D01*
X4602329Y-17997076D02*
X4592805Y-18006600D01*
X4602329Y-18016124D01*
X4611852Y-18006600D01*
X4602329Y-17997076D01*
X4602329Y-18016124D01*
X4726138Y-18197076D02*
X4707090Y-18187552D01*
X4697567Y-18168505D01*
X4697567Y-17997076D01*
X4830900Y-18197076D02*
X4811852Y-18187552D01*
X4802329Y-18168505D01*
X4802329Y-17997076D01*
X5059471Y-18197076D02*
X5059471Y-17997076D01*
X5126138Y-18139933D01*
X5192805Y-17997076D01*
X5192805Y-18197076D01*
X5373757Y-18197076D02*
X5373757Y-18092314D01*
X5364233Y-18073267D01*
X5345186Y-18063743D01*
X5307090Y-18063743D01*
X5288043Y-18073267D01*
X5373757Y-18187552D02*
X5354710Y-18197076D01*
X5307090Y-18197076D01*
X5288043Y-18187552D01*
X5278519Y-18168505D01*
X5278519Y-18149457D01*
X5288043Y-18130410D01*
X5307090Y-18120886D01*
X5354710Y-18120886D01*
X5373757Y-18111362D01*
X5468995Y-18063743D02*
X5468995Y-18263743D01*
X5468995Y-18073267D02*
X5488043Y-18063743D01*
X5526138Y-18063743D01*
X5545186Y-18073267D01*
X5554710Y-18082790D01*
X5564233Y-18101838D01*
X5564233Y-18158981D01*
X5554710Y-18178029D01*
X5545186Y-18187552D01*
X5526138Y-18197076D01*
X5488043Y-18197076D01*
X5468995Y-18187552D01*
X5649948Y-18178029D02*
X5659471Y-18187552D01*
X5649948Y-18197076D01*
X5640424Y-18187552D01*
X5649948Y-18178029D01*
X5649948Y-18197076D01*
X5649948Y-18073267D02*
X5659471Y-18082790D01*
X5649948Y-18092314D01*
X5640424Y-18082790D01*
X5649948Y-18073267D01*
X5649948Y-18092314D01*
D12*
X3860900Y-18446600D02*
X4020900Y-18606600D01*
X4020900Y-18446600D02*
X3860900Y-18606600D01*
D11*
X4383281Y-18617076D02*
X4268995Y-18617076D01*
X4326138Y-18617076D02*
X4326138Y-18417076D01*
X4307090Y-18445648D01*
X4288043Y-18464695D01*
X4268995Y-18474219D01*
X4468995Y-18598029D02*
X4478519Y-18607552D01*
X4468995Y-18617076D01*
X4459471Y-18607552D01*
X4468995Y-18598029D01*
X4468995Y-18617076D01*
X4649948Y-18417076D02*
X4611852Y-18417076D01*
X4592805Y-18426600D01*
X4583281Y-18436124D01*
X4564233Y-18464695D01*
X4554710Y-18502790D01*
X4554710Y-18578981D01*
X4564233Y-18598029D01*
X4573757Y-18607552D01*
X4592805Y-18617076D01*
X4630900Y-18617076D01*
X4649948Y-18607552D01*
X4659471Y-18598029D01*
X4668995Y-18578981D01*
X4668995Y-18531362D01*
X4659471Y-18512314D01*
X4649948Y-18502790D01*
X4630900Y-18493267D01*
X4592805Y-18493267D01*
X4573757Y-18502790D01*
X4564233Y-18512314D01*
X4554710Y-18531362D01*
X4792805Y-18417076D02*
X4811852Y-18417076D01*
X4830900Y-18426600D01*
X4840424Y-18436124D01*
X4849948Y-18455171D01*
X4859471Y-18493267D01*
X4859471Y-18540886D01*
X4849948Y-18578981D01*
X4840424Y-18598029D01*
X4830900Y-18607552D01*
X4811852Y-18617076D01*
X4792805Y-18617076D01*
X4773757Y-18607552D01*
X4764233Y-18598029D01*
X4754710Y-18578981D01*
X4745186Y-18540886D01*
X4745186Y-18493267D01*
X4754710Y-18455171D01*
X4764233Y-18436124D01*
X4773757Y-18426600D01*
X4792805Y-18417076D01*
X4983281Y-18417076D02*
X5002329Y-18417076D01*
X5021376Y-18426600D01*
X5030900Y-18436124D01*
X5040424Y-18455171D01*
X5049948Y-18493267D01*
X5049948Y-18540886D01*
X5040424Y-18578981D01*
X5030900Y-18598029D01*
X5021376Y-18607552D01*
X5002329Y-18617076D01*
X4983281Y-18617076D01*
X4964233Y-18607552D01*
X4954710Y-18598029D01*
X4945186Y-18578981D01*
X4935662Y-18540886D01*
X4935662Y-18493267D01*
X4945186Y-18455171D01*
X4954710Y-18436124D01*
X4964233Y-18426600D01*
X4983281Y-18417076D01*
X5135662Y-18617076D02*
X5135662Y-18483743D01*
X5135662Y-18502790D02*
X5145186Y-18493267D01*
X5164233Y-18483743D01*
X5192805Y-18483743D01*
X5211852Y-18493267D01*
X5221376Y-18512314D01*
X5221376Y-18617076D01*
X5221376Y-18512314D02*
X5230900Y-18493267D01*
X5249948Y-18483743D01*
X5278519Y-18483743D01*
X5297567Y-18493267D01*
X5307090Y-18512314D01*
X5307090Y-18617076D01*
X5402329Y-18617076D02*
X5402329Y-18483743D01*
X5402329Y-18502790D02*
X5411852Y-18493267D01*
X5430900Y-18483743D01*
X5459471Y-18483743D01*
X5478519Y-18493267D01*
X5488043Y-18512314D01*
X5488043Y-18617076D01*
X5488043Y-18512314D02*
X5497567Y-18493267D01*
X5516614Y-18483743D01*
X5545186Y-18483743D01*
X5564233Y-18493267D01*
X5573757Y-18512314D01*
X5573757Y-18617076D01*
X5964233Y-18407552D02*
X5792805Y-18664695D01*
X6221376Y-18417076D02*
X6240424Y-18417076D01*
X6259471Y-18426600D01*
X6268995Y-18436124D01*
X6278519Y-18455171D01*
X6288043Y-18493267D01*
X6288043Y-18540886D01*
X6278519Y-18578981D01*
X6268995Y-18598029D01*
X6259471Y-18607552D01*
X6240424Y-18617076D01*
X6221376Y-18617076D01*
X6202328Y-18607552D01*
X6192805Y-18598029D01*
X6183281Y-18578981D01*
X6173757Y-18540886D01*
X6173757Y-18493267D01*
X6183281Y-18455171D01*
X6192805Y-18436124D01*
X6202328Y-18426600D01*
X6221376Y-18417076D01*
X6373757Y-18598029D02*
X6383281Y-18607552D01*
X6373757Y-18617076D01*
X6364233Y-18607552D01*
X6373757Y-18598029D01*
X6373757Y-18617076D01*
X6507090Y-18417076D02*
X6526138Y-18417076D01*
X6545186Y-18426600D01*
X6554709Y-18436124D01*
X6564233Y-18455171D01*
X6573757Y-18493267D01*
X6573757Y-18540886D01*
X6564233Y-18578981D01*
X6554709Y-18598029D01*
X6545186Y-18607552D01*
X6526138Y-18617076D01*
X6507090Y-18617076D01*
X6488043Y-18607552D01*
X6478519Y-18598029D01*
X6468995Y-18578981D01*
X6459471Y-18540886D01*
X6459471Y-18493267D01*
X6468995Y-18455171D01*
X6478519Y-18436124D01*
X6488043Y-18426600D01*
X6507090Y-18417076D01*
X6745186Y-18417076D02*
X6707090Y-18417076D01*
X6688043Y-18426600D01*
X6678519Y-18436124D01*
X6659471Y-18464695D01*
X6649948Y-18502790D01*
X6649948Y-18578981D01*
X6659471Y-18598029D01*
X6668995Y-18607552D01*
X6688043Y-18617076D01*
X6726138Y-18617076D01*
X6745186Y-18607552D01*
X6754709Y-18598029D01*
X6764233Y-18578981D01*
X6764233Y-18531362D01*
X6754709Y-18512314D01*
X6745186Y-18502790D01*
X6726138Y-18493267D01*
X6688043Y-18493267D01*
X6668995Y-18502790D01*
X6659471Y-18512314D01*
X6649948Y-18531362D01*
X6830900Y-18417076D02*
X6954709Y-18417076D01*
X6888043Y-18493267D01*
X6916614Y-18493267D01*
X6935662Y-18502790D01*
X6945186Y-18512314D01*
X6954709Y-18531362D01*
X6954709Y-18578981D01*
X6945186Y-18598029D01*
X6935662Y-18607552D01*
X6916614Y-18617076D01*
X6859471Y-18617076D01*
X6840424Y-18607552D01*
X6830900Y-18598029D01*
X7078519Y-18417076D02*
X7097567Y-18417076D01*
X7116614Y-18426600D01*
X7126138Y-18436124D01*
X7135662Y-18455171D01*
X7145186Y-18493267D01*
X7145186Y-18540886D01*
X7135662Y-18578981D01*
X7126138Y-18598029D01*
X7116614Y-18607552D01*
X7097567Y-18617076D01*
X7078519Y-18617076D01*
X7059471Y-18607552D01*
X7049948Y-18598029D01*
X7040424Y-18578981D01*
X7030900Y-18540886D01*
X7030900Y-18493267D01*
X7040424Y-18455171D01*
X7049948Y-18436124D01*
X7059471Y-18426600D01*
X7078519Y-18417076D01*
X7221376Y-18417076D02*
X7221376Y-18455171D01*
X7297567Y-18417076D02*
X7297567Y-18455171D01*
X7592805Y-18693267D02*
X7583281Y-18683743D01*
X7564233Y-18655171D01*
X7554709Y-18636124D01*
X7545186Y-18607552D01*
X7535662Y-18559933D01*
X7535662Y-18521838D01*
X7545186Y-18474219D01*
X7554709Y-18445648D01*
X7564233Y-18426600D01*
X7583281Y-18398029D01*
X7592805Y-18388505D01*
X7754709Y-18483743D02*
X7754709Y-18617076D01*
X7707090Y-18407552D02*
X7659471Y-18550410D01*
X7783281Y-18550410D01*
X8011852Y-18617076D02*
X8011852Y-18417076D01*
X8097567Y-18617076D02*
X8097567Y-18512314D01*
X8088043Y-18493267D01*
X8068995Y-18483743D01*
X8040424Y-18483743D01*
X8021376Y-18493267D01*
X8011852Y-18502790D01*
X8221376Y-18617076D02*
X8202328Y-18607552D01*
X8192805Y-18598029D01*
X8183281Y-18578981D01*
X8183281Y-18521838D01*
X8192805Y-18502790D01*
X8202328Y-18493267D01*
X8221376Y-18483743D01*
X8249948Y-18483743D01*
X8268995Y-18493267D01*
X8278519Y-18502790D01*
X8288043Y-18521838D01*
X8288043Y-18578981D01*
X8278519Y-18598029D01*
X8268995Y-18607552D01*
X8249948Y-18617076D01*
X8221376Y-18617076D01*
X8402329Y-18617076D02*
X8383281Y-18607552D01*
X8373757Y-18588505D01*
X8373757Y-18417076D01*
X8554710Y-18607552D02*
X8535662Y-18617076D01*
X8497567Y-18617076D01*
X8478519Y-18607552D01*
X8468995Y-18588505D01*
X8468995Y-18512314D01*
X8478519Y-18493267D01*
X8497567Y-18483743D01*
X8535662Y-18483743D01*
X8554710Y-18493267D01*
X8564233Y-18512314D01*
X8564233Y-18531362D01*
X8468995Y-18550410D01*
X8640424Y-18607552D02*
X8659471Y-18617076D01*
X8697567Y-18617076D01*
X8716614Y-18607552D01*
X8726138Y-18588505D01*
X8726138Y-18578981D01*
X8716614Y-18559933D01*
X8697567Y-18550410D01*
X8668995Y-18550410D01*
X8649948Y-18540886D01*
X8640424Y-18521838D01*
X8640424Y-18512314D01*
X8649948Y-18493267D01*
X8668995Y-18483743D01*
X8697567Y-18483743D01*
X8716614Y-18493267D01*
X8792805Y-18693267D02*
X8802329Y-18683743D01*
X8821376Y-18655171D01*
X8830900Y-18636124D01*
X8840424Y-18607552D01*
X8849948Y-18559933D01*
X8849948Y-18521838D01*
X8840424Y-18474219D01*
X8830900Y-18445648D01*
X8821376Y-18426600D01*
X8802329Y-18398029D01*
X8792805Y-18388505D01*
X9154710Y-18693267D02*
X9145186Y-18683743D01*
X9126138Y-18655171D01*
X9116614Y-18636124D01*
X9107090Y-18607552D01*
X9097567Y-18559933D01*
X9097567Y-18521838D01*
X9107090Y-18474219D01*
X9116614Y-18445648D01*
X9126138Y-18426600D01*
X9145186Y-18398029D01*
X9154710Y-18388505D01*
X9230900Y-18483743D02*
X9230900Y-18617076D01*
X9230900Y-18502790D02*
X9240424Y-18493267D01*
X9259471Y-18483743D01*
X9288043Y-18483743D01*
X9307090Y-18493267D01*
X9316614Y-18512314D01*
X9316614Y-18617076D01*
X9440424Y-18617076D02*
X9421376Y-18607552D01*
X9411852Y-18598029D01*
X9402329Y-18578981D01*
X9402329Y-18521838D01*
X9411852Y-18502790D01*
X9421376Y-18493267D01*
X9440424Y-18483743D01*
X9468995Y-18483743D01*
X9488043Y-18493267D01*
X9497567Y-18502790D01*
X9507090Y-18521838D01*
X9507090Y-18578981D01*
X9497567Y-18598029D01*
X9488043Y-18607552D01*
X9468995Y-18617076D01*
X9440424Y-18617076D01*
X9564233Y-18483743D02*
X9640424Y-18483743D01*
X9592805Y-18417076D02*
X9592805Y-18588505D01*
X9602329Y-18607552D01*
X9621376Y-18617076D01*
X9640424Y-18617076D01*
X9859471Y-18483743D02*
X9859471Y-18683743D01*
X9859471Y-18493267D02*
X9878519Y-18483743D01*
X9916614Y-18483743D01*
X9935662Y-18493267D01*
X9945186Y-18502790D01*
X9954710Y-18521838D01*
X9954710Y-18578981D01*
X9945186Y-18598029D01*
X9935662Y-18607552D01*
X9916614Y-18617076D01*
X9878519Y-18617076D01*
X9859471Y-18607552D01*
X10068995Y-18617076D02*
X10049948Y-18607552D01*
X10040424Y-18588505D01*
X10040424Y-18417076D01*
X10230900Y-18617076D02*
X10230900Y-18512314D01*
X10221376Y-18493267D01*
X10202329Y-18483743D01*
X10164233Y-18483743D01*
X10145186Y-18493267D01*
X10230900Y-18607552D02*
X10211852Y-18617076D01*
X10164233Y-18617076D01*
X10145186Y-18607552D01*
X10135662Y-18588505D01*
X10135662Y-18569457D01*
X10145186Y-18550410D01*
X10164233Y-18540886D01*
X10211852Y-18540886D01*
X10230900Y-18531362D01*
X10297567Y-18483743D02*
X10373757Y-18483743D01*
X10326138Y-18417076D02*
X10326138Y-18588505D01*
X10335662Y-18607552D01*
X10354710Y-18617076D01*
X10373757Y-18617076D01*
X10516614Y-18607552D02*
X10497567Y-18617076D01*
X10459471Y-18617076D01*
X10440424Y-18607552D01*
X10430900Y-18588505D01*
X10430900Y-18512314D01*
X10440424Y-18493267D01*
X10459471Y-18483743D01*
X10497567Y-18483743D01*
X10516614Y-18493267D01*
X10526138Y-18512314D01*
X10526138Y-18531362D01*
X10430900Y-18550410D01*
X10697567Y-18617076D02*
X10697567Y-18417076D01*
X10697567Y-18607552D02*
X10678519Y-18617076D01*
X10640424Y-18617076D01*
X10621376Y-18607552D01*
X10611852Y-18598029D01*
X10602329Y-18578981D01*
X10602329Y-18521838D01*
X10611852Y-18502790D01*
X10621376Y-18493267D01*
X10640424Y-18483743D01*
X10678519Y-18483743D01*
X10697567Y-18493267D01*
X10773757Y-18693267D02*
X10783281Y-18683743D01*
X10802329Y-18655171D01*
X10811852Y-18636124D01*
X10821376Y-18607552D01*
X10830900Y-18559933D01*
X10830900Y-18521838D01*
X10821376Y-18474219D01*
X10811852Y-18445648D01*
X10802329Y-18426600D01*
X10783281Y-18398029D01*
X10773757Y-18388505D01*
X4020900Y-18806600D02*
G75*
G03*
X4020900Y-18806600I-100000J0D01*
G01*
X4268995Y-18716124D02*
X4278519Y-18706600D01*
X4297567Y-18697076D01*
X4345186Y-18697076D01*
X4364233Y-18706600D01*
X4373757Y-18716124D01*
X4383281Y-18735171D01*
X4383281Y-18754219D01*
X4373757Y-18782790D01*
X4259471Y-18897076D01*
X4383281Y-18897076D01*
X4468995Y-18878029D02*
X4478519Y-18887552D01*
X4468995Y-18897076D01*
X4459471Y-18887552D01*
X4468995Y-18878029D01*
X4468995Y-18897076D01*
X4668995Y-18897076D02*
X4554710Y-18897076D01*
X4611852Y-18897076D02*
X4611852Y-18697076D01*
X4592805Y-18725648D01*
X4573757Y-18744695D01*
X4554710Y-18754219D01*
X4783281Y-18782790D02*
X4764233Y-18773267D01*
X4754710Y-18763743D01*
X4745186Y-18744695D01*
X4745186Y-18735171D01*
X4754710Y-18716124D01*
X4764233Y-18706600D01*
X4783281Y-18697076D01*
X4821376Y-18697076D01*
X4840424Y-18706600D01*
X4849948Y-18716124D01*
X4859471Y-18735171D01*
X4859471Y-18744695D01*
X4849948Y-18763743D01*
X4840424Y-18773267D01*
X4821376Y-18782790D01*
X4783281Y-18782790D01*
X4764233Y-18792314D01*
X4754710Y-18801838D01*
X4745186Y-18820886D01*
X4745186Y-18858981D01*
X4754710Y-18878029D01*
X4764233Y-18887552D01*
X4783281Y-18897076D01*
X4821376Y-18897076D01*
X4840424Y-18887552D01*
X4849948Y-18878029D01*
X4859471Y-18858981D01*
X4859471Y-18820886D01*
X4849948Y-18801838D01*
X4840424Y-18792314D01*
X4821376Y-18782790D01*
X4983281Y-18697076D02*
X5002329Y-18697076D01*
X5021376Y-18706600D01*
X5030900Y-18716124D01*
X5040424Y-18735171D01*
X5049948Y-18773267D01*
X5049948Y-18820886D01*
X5040424Y-18858981D01*
X5030900Y-18878029D01*
X5021376Y-18887552D01*
X5002329Y-18897076D01*
X4983281Y-18897076D01*
X4964233Y-18887552D01*
X4954710Y-18878029D01*
X4945186Y-18858981D01*
X4935662Y-18820886D01*
X4935662Y-18773267D01*
X4945186Y-18735171D01*
X4954710Y-18716124D01*
X4964233Y-18706600D01*
X4983281Y-18697076D01*
X5135662Y-18897076D02*
X5135662Y-18763743D01*
X5135662Y-18782790D02*
X5145186Y-18773267D01*
X5164233Y-18763743D01*
X5192805Y-18763743D01*
X5211852Y-18773267D01*
X5221376Y-18792314D01*
X5221376Y-18897076D01*
X5221376Y-18792314D02*
X5230900Y-18773267D01*
X5249948Y-18763743D01*
X5278519Y-18763743D01*
X5297567Y-18773267D01*
X5307090Y-18792314D01*
X5307090Y-18897076D01*
X5402329Y-18897076D02*
X5402329Y-18763743D01*
X5402329Y-18782790D02*
X5411852Y-18773267D01*
X5430900Y-18763743D01*
X5459471Y-18763743D01*
X5478519Y-18773267D01*
X5488043Y-18792314D01*
X5488043Y-18897076D01*
X5488043Y-18792314D02*
X5497567Y-18773267D01*
X5516614Y-18763743D01*
X5545186Y-18763743D01*
X5564233Y-18773267D01*
X5573757Y-18792314D01*
X5573757Y-18897076D01*
X5964233Y-18687552D02*
X5792805Y-18944695D01*
X6221376Y-18697076D02*
X6240424Y-18697076D01*
X6259471Y-18706600D01*
X6268995Y-18716124D01*
X6278519Y-18735171D01*
X6288043Y-18773267D01*
X6288043Y-18820886D01*
X6278519Y-18858981D01*
X6268995Y-18878029D01*
X6259471Y-18887552D01*
X6240424Y-18897076D01*
X6221376Y-18897076D01*
X6202328Y-18887552D01*
X6192805Y-18878029D01*
X6183281Y-18858981D01*
X6173757Y-18820886D01*
X6173757Y-18773267D01*
X6183281Y-18735171D01*
X6192805Y-18716124D01*
X6202328Y-18706600D01*
X6221376Y-18697076D01*
X6373757Y-18878029D02*
X6383281Y-18887552D01*
X6373757Y-18897076D01*
X6364233Y-18887552D01*
X6373757Y-18878029D01*
X6373757Y-18897076D01*
X6507090Y-18697076D02*
X6526138Y-18697076D01*
X6545186Y-18706600D01*
X6554709Y-18716124D01*
X6564233Y-18735171D01*
X6573757Y-18773267D01*
X6573757Y-18820886D01*
X6564233Y-18858981D01*
X6554709Y-18878029D01*
X6545186Y-18887552D01*
X6526138Y-18897076D01*
X6507090Y-18897076D01*
X6488043Y-18887552D01*
X6478519Y-18878029D01*
X6468995Y-18858981D01*
X6459471Y-18820886D01*
X6459471Y-18773267D01*
X6468995Y-18735171D01*
X6478519Y-18716124D01*
X6488043Y-18706600D01*
X6507090Y-18697076D01*
X6688043Y-18782790D02*
X6668995Y-18773267D01*
X6659471Y-18763743D01*
X6649948Y-18744695D01*
X6649948Y-18735171D01*
X6659471Y-18716124D01*
X6668995Y-18706600D01*
X6688043Y-18697076D01*
X6726138Y-18697076D01*
X6745186Y-18706600D01*
X6754709Y-18716124D01*
X6764233Y-18735171D01*
X6764233Y-18744695D01*
X6754709Y-18763743D01*
X6745186Y-18773267D01*
X6726138Y-18782790D01*
X6688043Y-18782790D01*
X6668995Y-18792314D01*
X6659471Y-18801838D01*
X6649948Y-18820886D01*
X6649948Y-18858981D01*
X6659471Y-18878029D01*
X6668995Y-18887552D01*
X6688043Y-18897076D01*
X6726138Y-18897076D01*
X6745186Y-18887552D01*
X6754709Y-18878029D01*
X6764233Y-18858981D01*
X6764233Y-18820886D01*
X6754709Y-18801838D01*
X6745186Y-18792314D01*
X6726138Y-18782790D01*
X6945186Y-18697076D02*
X6849948Y-18697076D01*
X6840424Y-18792314D01*
X6849948Y-18782790D01*
X6868995Y-18773267D01*
X6916614Y-18773267D01*
X6935662Y-18782790D01*
X6945186Y-18792314D01*
X6954709Y-18811362D01*
X6954709Y-18858981D01*
X6945186Y-18878029D01*
X6935662Y-18887552D01*
X6916614Y-18897076D01*
X6868995Y-18897076D01*
X6849948Y-18887552D01*
X6840424Y-18878029D01*
X7068995Y-18782790D02*
X7049948Y-18773267D01*
X7040424Y-18763743D01*
X7030900Y-18744695D01*
X7030900Y-18735171D01*
X7040424Y-18716124D01*
X7049948Y-18706600D01*
X7068995Y-18697076D01*
X7107090Y-18697076D01*
X7126138Y-18706600D01*
X7135662Y-18716124D01*
X7145186Y-18735171D01*
X7145186Y-18744695D01*
X7135662Y-18763743D01*
X7126138Y-18773267D01*
X7107090Y-18782790D01*
X7068995Y-18782790D01*
X7049948Y-18792314D01*
X7040424Y-18801838D01*
X7030900Y-18820886D01*
X7030900Y-18858981D01*
X7040424Y-18878029D01*
X7049948Y-18887552D01*
X7068995Y-18897076D01*
X7107090Y-18897076D01*
X7126138Y-18887552D01*
X7135662Y-18878029D01*
X7145186Y-18858981D01*
X7145186Y-18820886D01*
X7135662Y-18801838D01*
X7126138Y-18792314D01*
X7107090Y-18782790D01*
X7221376Y-18697076D02*
X7221376Y-18735171D01*
X7297567Y-18697076D02*
X7297567Y-18735171D01*
X7592805Y-18973267D02*
X7583281Y-18963743D01*
X7564233Y-18935171D01*
X7554709Y-18916124D01*
X7545186Y-18887552D01*
X7535662Y-18839933D01*
X7535662Y-18801838D01*
X7545186Y-18754219D01*
X7554709Y-18725648D01*
X7564233Y-18706600D01*
X7583281Y-18678029D01*
X7592805Y-18668505D01*
X7754709Y-18763743D02*
X7754709Y-18897076D01*
X7707090Y-18687552D02*
X7659471Y-18830410D01*
X7783281Y-18830410D01*
X8011852Y-18897076D02*
X8011852Y-18697076D01*
X8097567Y-18897076D02*
X8097567Y-18792314D01*
X8088043Y-18773267D01*
X8068995Y-18763743D01*
X8040424Y-18763743D01*
X8021376Y-18773267D01*
X8011852Y-18782790D01*
X8221376Y-18897076D02*
X8202328Y-18887552D01*
X8192805Y-18878029D01*
X8183281Y-18858981D01*
X8183281Y-18801838D01*
X8192805Y-18782790D01*
X8202328Y-18773267D01*
X8221376Y-18763743D01*
X8249948Y-18763743D01*
X8268995Y-18773267D01*
X8278519Y-18782790D01*
X8288043Y-18801838D01*
X8288043Y-18858981D01*
X8278519Y-18878029D01*
X8268995Y-18887552D01*
X8249948Y-18897076D01*
X8221376Y-18897076D01*
X8402329Y-18897076D02*
X8383281Y-18887552D01*
X8373757Y-18868505D01*
X8373757Y-18697076D01*
X8554710Y-18887552D02*
X8535662Y-18897076D01*
X8497567Y-18897076D01*
X8478519Y-18887552D01*
X8468995Y-18868505D01*
X8468995Y-18792314D01*
X8478519Y-18773267D01*
X8497567Y-18763743D01*
X8535662Y-18763743D01*
X8554710Y-18773267D01*
X8564233Y-18792314D01*
X8564233Y-18811362D01*
X8468995Y-18830410D01*
X8640424Y-18887552D02*
X8659471Y-18897076D01*
X8697567Y-18897076D01*
X8716614Y-18887552D01*
X8726138Y-18868505D01*
X8726138Y-18858981D01*
X8716614Y-18839933D01*
X8697567Y-18830410D01*
X8668995Y-18830410D01*
X8649948Y-18820886D01*
X8640424Y-18801838D01*
X8640424Y-18792314D01*
X8649948Y-18773267D01*
X8668995Y-18763743D01*
X8697567Y-18763743D01*
X8716614Y-18773267D01*
X8792805Y-18973267D02*
X8802329Y-18963743D01*
X8821376Y-18935171D01*
X8830900Y-18916124D01*
X8840424Y-18887552D01*
X8849948Y-18839933D01*
X8849948Y-18801838D01*
X8840424Y-18754219D01*
X8830900Y-18725648D01*
X8821376Y-18706600D01*
X8802329Y-18678029D01*
X8792805Y-18668505D01*
X9154710Y-18973267D02*
X9145186Y-18963743D01*
X9126138Y-18935171D01*
X9116614Y-18916124D01*
X9107090Y-18887552D01*
X9097567Y-18839933D01*
X9097567Y-18801838D01*
X9107090Y-18754219D01*
X9116614Y-18725648D01*
X9126138Y-18706600D01*
X9145186Y-18678029D01*
X9154710Y-18668505D01*
X9230900Y-18763743D02*
X9230900Y-18897076D01*
X9230900Y-18782790D02*
X9240424Y-18773267D01*
X9259471Y-18763743D01*
X9288043Y-18763743D01*
X9307090Y-18773267D01*
X9316614Y-18792314D01*
X9316614Y-18897076D01*
X9440424Y-18897076D02*
X9421376Y-18887552D01*
X9411852Y-18878029D01*
X9402329Y-18858981D01*
X9402329Y-18801838D01*
X9411852Y-18782790D01*
X9421376Y-18773267D01*
X9440424Y-18763743D01*
X9468995Y-18763743D01*
X9488043Y-18773267D01*
X9497567Y-18782790D01*
X9507090Y-18801838D01*
X9507090Y-18858981D01*
X9497567Y-18878029D01*
X9488043Y-18887552D01*
X9468995Y-18897076D01*
X9440424Y-18897076D01*
X9564233Y-18763743D02*
X9640424Y-18763743D01*
X9592805Y-18697076D02*
X9592805Y-18868505D01*
X9602329Y-18887552D01*
X9621376Y-18897076D01*
X9640424Y-18897076D01*
X9859471Y-18763743D02*
X9859471Y-18963743D01*
X9859471Y-18773267D02*
X9878519Y-18763743D01*
X9916614Y-18763743D01*
X9935662Y-18773267D01*
X9945186Y-18782790D01*
X9954710Y-18801838D01*
X9954710Y-18858981D01*
X9945186Y-18878029D01*
X9935662Y-18887552D01*
X9916614Y-18897076D01*
X9878519Y-18897076D01*
X9859471Y-18887552D01*
X10068995Y-18897076D02*
X10049948Y-18887552D01*
X10040424Y-18868505D01*
X10040424Y-18697076D01*
X10230900Y-18897076D02*
X10230900Y-18792314D01*
X10221376Y-18773267D01*
X10202329Y-18763743D01*
X10164233Y-18763743D01*
X10145186Y-18773267D01*
X10230900Y-18887552D02*
X10211852Y-18897076D01*
X10164233Y-18897076D01*
X10145186Y-18887552D01*
X10135662Y-18868505D01*
X10135662Y-18849457D01*
X10145186Y-18830410D01*
X10164233Y-18820886D01*
X10211852Y-18820886D01*
X10230900Y-18811362D01*
X10297567Y-18763743D02*
X10373757Y-18763743D01*
X10326138Y-18697076D02*
X10326138Y-18868505D01*
X10335662Y-18887552D01*
X10354710Y-18897076D01*
X10373757Y-18897076D01*
X10516614Y-18887552D02*
X10497567Y-18897076D01*
X10459471Y-18897076D01*
X10440424Y-18887552D01*
X10430900Y-18868505D01*
X10430900Y-18792314D01*
X10440424Y-18773267D01*
X10459471Y-18763743D01*
X10497567Y-18763743D01*
X10516614Y-18773267D01*
X10526138Y-18792314D01*
X10526138Y-18811362D01*
X10430900Y-18830410D01*
X10697567Y-18897076D02*
X10697567Y-18697076D01*
X10697567Y-18887552D02*
X10678519Y-18897076D01*
X10640424Y-18897076D01*
X10621376Y-18887552D01*
X10611852Y-18878029D01*
X10602329Y-18858981D01*
X10602329Y-18801838D01*
X10611852Y-18782790D01*
X10621376Y-18773267D01*
X10640424Y-18763743D01*
X10678519Y-18763743D01*
X10697567Y-18773267D01*
X10773757Y-18973267D02*
X10783281Y-18963743D01*
X10802329Y-18935171D01*
X10811852Y-18916124D01*
X10821376Y-18887552D01*
X10830900Y-18839933D01*
X10830900Y-18801838D01*
X10821376Y-18754219D01*
X10811852Y-18725648D01*
X10802329Y-18706600D01*
X10783281Y-18678029D01*
X10773757Y-18668505D01*
M02*
