G04 #@! TF.GenerationSoftware,KiCad,Pcbnew,(6.0.8)*
G04 #@! TF.CreationDate,2022-10-01T20:43:50-07:00*
G04 #@! TF.ProjectId,unified_elec_steering,756e6966-6965-4645-9f65-6c65635f7374,rev?*
G04 #@! TF.SameCoordinates,Original*
G04 #@! TF.FileFunction,Legend,Top*
G04 #@! TF.FilePolarity,Positive*
%FSLAX46Y46*%
G04 Gerber Fmt 4.6, Leading zero omitted, Abs format (unit mm)*
G04 Created by KiCad (PCBNEW (6.0.8)) date 2022-10-01 20:43:50*
%MOMM*%
%LPD*%
G01*
G04 APERTURE LIST*
G04 Aperture macros list*
%AMRoundRect*
0 Rectangle with rounded corners*
0 $1 Rounding radius*
0 $2 $3 $4 $5 $6 $7 $8 $9 X,Y pos of 4 corners*
0 Add a 4 corners polygon primitive as box body*
4,1,4,$2,$3,$4,$5,$6,$7,$8,$9,$2,$3,0*
0 Add four circle primitives for the rounded corners*
1,1,$1+$1,$2,$3*
1,1,$1+$1,$4,$5*
1,1,$1+$1,$6,$7*
1,1,$1+$1,$8,$9*
0 Add four rect primitives between the rounded corners*
20,1,$1+$1,$2,$3,$4,$5,0*
20,1,$1+$1,$4,$5,$6,$7,0*
20,1,$1+$1,$6,$7,$8,$9,0*
20,1,$1+$1,$8,$9,$2,$3,0*%
G04 Aperture macros list end*
%ADD10C,0.150000*%
%ADD11C,0.300000*%
%ADD12C,0.127000*%
%ADD13C,0.120000*%
%ADD14C,0.876200*%
%ADD15C,0.836200*%
%ADD16C,0.010000*%
%ADD17C,2.180000*%
%ADD18C,3.196000*%
%ADD19R,3.196000X3.196000*%
%ADD20C,2.235200*%
%ADD21C,6.400000*%
%ADD22RoundRect,1.500000X1.500000X1.500000X-1.500000X1.500000X-1.500000X-1.500000X1.500000X-1.500000X0*%
%ADD23C,6.000000*%
%ADD24C,1.700000*%
%ADD25O,1.700000X1.700000*%
%ADD26C,1.600000*%
%ADD27RoundRect,0.250000X0.620000X0.620000X-0.620000X0.620000X-0.620000X-0.620000X0.620000X-0.620000X0*%
%ADD28C,1.740000*%
%ADD29R,1.600000X1.600000*%
%ADD30O,1.600000X1.600000*%
G04 APERTURE END LIST*
D10*
X100798380Y-93739642D02*
X100798380Y-93120595D01*
X101179333Y-93453928D01*
X101179333Y-93311071D01*
X101226952Y-93215833D01*
X101274571Y-93168214D01*
X101369809Y-93120595D01*
X101607904Y-93120595D01*
X101703142Y-93168214D01*
X101750761Y-93215833D01*
X101798380Y-93311071D01*
X101798380Y-93596785D01*
X101750761Y-93692023D01*
X101703142Y-93739642D01*
X101703142Y-92692023D02*
X101750761Y-92644404D01*
X101798380Y-92692023D01*
X101750761Y-92739642D01*
X101703142Y-92692023D01*
X101798380Y-92692023D01*
X100798380Y-92311071D02*
X100798380Y-91692023D01*
X101179333Y-92025357D01*
X101179333Y-91882500D01*
X101226952Y-91787261D01*
X101274571Y-91739642D01*
X101369809Y-91692023D01*
X101607904Y-91692023D01*
X101703142Y-91739642D01*
X101750761Y-91787261D01*
X101798380Y-91882500D01*
X101798380Y-92168214D01*
X101750761Y-92263452D01*
X101703142Y-92311071D01*
X100798380Y-91406309D02*
X101798380Y-91072976D01*
X100798380Y-90739642D01*
X106878380Y-93644404D02*
X105878380Y-93644404D01*
X105878380Y-93406309D01*
X105926000Y-93263452D01*
X106021238Y-93168214D01*
X106116476Y-93120595D01*
X106306952Y-93072976D01*
X106449809Y-93072976D01*
X106640285Y-93120595D01*
X106735523Y-93168214D01*
X106830761Y-93263452D01*
X106878380Y-93406309D01*
X106878380Y-93644404D01*
X106211714Y-92215833D02*
X106878380Y-92215833D01*
X105830761Y-92453928D02*
X106545047Y-92692023D01*
X106545047Y-92072976D01*
X109418380Y-93644404D02*
X108418380Y-93644404D01*
X108418380Y-93406309D01*
X108466000Y-93263452D01*
X108561238Y-93168214D01*
X108656476Y-93120595D01*
X108846952Y-93072976D01*
X108989809Y-93072976D01*
X109180285Y-93120595D01*
X109275523Y-93168214D01*
X109370761Y-93263452D01*
X109418380Y-93406309D01*
X109418380Y-93644404D01*
X108418380Y-92168214D02*
X108418380Y-92644404D01*
X108894571Y-92692023D01*
X108846952Y-92644404D01*
X108799333Y-92549166D01*
X108799333Y-92311071D01*
X108846952Y-92215833D01*
X108894571Y-92168214D01*
X108989809Y-92120595D01*
X109227904Y-92120595D01*
X109323142Y-92168214D01*
X109370761Y-92215833D01*
X109418380Y-92311071D01*
X109418380Y-92549166D01*
X109370761Y-92644404D01*
X109323142Y-92692023D01*
X84018380Y-93072976D02*
X83542190Y-93406309D01*
X84018380Y-93644404D02*
X83018380Y-93644404D01*
X83018380Y-93263452D01*
X83066000Y-93168214D01*
X83113619Y-93120595D01*
X83208857Y-93072976D01*
X83351714Y-93072976D01*
X83446952Y-93120595D01*
X83494571Y-93168214D01*
X83542190Y-93263452D01*
X83542190Y-93644404D01*
X83494571Y-92644404D02*
X83494571Y-92311071D01*
X84018380Y-92168214D02*
X84018380Y-92644404D01*
X83018380Y-92644404D01*
X83018380Y-92168214D01*
X83970761Y-91787261D02*
X84018380Y-91644404D01*
X84018380Y-91406309D01*
X83970761Y-91311071D01*
X83923142Y-91263452D01*
X83827904Y-91215833D01*
X83732666Y-91215833D01*
X83637428Y-91263452D01*
X83589809Y-91311071D01*
X83542190Y-91406309D01*
X83494571Y-91596785D01*
X83446952Y-91692023D01*
X83399333Y-91739642D01*
X83304095Y-91787261D01*
X83208857Y-91787261D01*
X83113619Y-91739642D01*
X83066000Y-91692023D01*
X83018380Y-91596785D01*
X83018380Y-91358690D01*
X83066000Y-91215833D01*
X83494571Y-90787261D02*
X83494571Y-90453928D01*
X84018380Y-90311071D02*
X84018380Y-90787261D01*
X83018380Y-90787261D01*
X83018380Y-90311071D01*
X83018380Y-90025357D02*
X83018380Y-89453928D01*
X84018380Y-89739642D02*
X83018380Y-89739642D01*
X98306000Y-93120595D02*
X98258380Y-93215833D01*
X98258380Y-93358690D01*
X98306000Y-93501547D01*
X98401238Y-93596785D01*
X98496476Y-93644404D01*
X98686952Y-93692023D01*
X98829809Y-93692023D01*
X99020285Y-93644404D01*
X99115523Y-93596785D01*
X99210761Y-93501547D01*
X99258380Y-93358690D01*
X99258380Y-93263452D01*
X99210761Y-93120595D01*
X99163142Y-93072976D01*
X98829809Y-93072976D01*
X98829809Y-93263452D01*
X99258380Y-92644404D02*
X98258380Y-92644404D01*
X99258380Y-92072976D01*
X98258380Y-92072976D01*
X99258380Y-91596785D02*
X98258380Y-91596785D01*
X98258380Y-91358690D01*
X98306000Y-91215833D01*
X98401238Y-91120595D01*
X98496476Y-91072976D01*
X98686952Y-91025357D01*
X98829809Y-91025357D01*
X99020285Y-91072976D01*
X99115523Y-91120595D01*
X99210761Y-91215833D01*
X99258380Y-91358690D01*
X99258380Y-91596785D01*
X88098380Y-93168214D02*
X88098380Y-93644404D01*
X88574571Y-93692023D01*
X88526952Y-93644404D01*
X88479333Y-93549166D01*
X88479333Y-93311071D01*
X88526952Y-93215833D01*
X88574571Y-93168214D01*
X88669809Y-93120595D01*
X88907904Y-93120595D01*
X89003142Y-93168214D01*
X89050761Y-93215833D01*
X89098380Y-93311071D01*
X89098380Y-93549166D01*
X89050761Y-93644404D01*
X89003142Y-93692023D01*
X88098380Y-92834880D02*
X89098380Y-92501547D01*
X88098380Y-92168214D01*
X93892666Y-93692023D02*
X93892666Y-93215833D01*
X94178380Y-93787261D02*
X93178380Y-93453928D01*
X94178380Y-93120595D01*
X93178380Y-92358690D02*
X93178380Y-92549166D01*
X93226000Y-92644404D01*
X93273619Y-92692023D01*
X93416476Y-92787261D01*
X93606952Y-92834880D01*
X93987904Y-92834880D01*
X94083142Y-92787261D01*
X94130761Y-92739642D01*
X94178380Y-92644404D01*
X94178380Y-92453928D01*
X94130761Y-92358690D01*
X94083142Y-92311071D01*
X93987904Y-92263452D01*
X93749809Y-92263452D01*
X93654571Y-92311071D01*
X93606952Y-92358690D01*
X93559333Y-92453928D01*
X93559333Y-92644404D01*
X93606952Y-92739642D01*
X93654571Y-92787261D01*
X93749809Y-92834880D01*
X91352666Y-93692023D02*
X91352666Y-93215833D01*
X91638380Y-93787261D02*
X90638380Y-93453928D01*
X91638380Y-93120595D01*
X90638380Y-92882500D02*
X90638380Y-92215833D01*
X91638380Y-92644404D01*
X96432666Y-93692023D02*
X96432666Y-93215833D01*
X96718380Y-93787261D02*
X95718380Y-93453928D01*
X96718380Y-93120595D01*
X95718380Y-92311071D02*
X95718380Y-92787261D01*
X96194571Y-92834880D01*
X96146952Y-92787261D01*
X96099333Y-92692023D01*
X96099333Y-92453928D01*
X96146952Y-92358690D01*
X96194571Y-92311071D01*
X96289809Y-92263452D01*
X96527904Y-92263452D01*
X96623142Y-92311071D01*
X96670761Y-92358690D01*
X96718380Y-92453928D01*
X96718380Y-92692023D01*
X96670761Y-92787261D01*
X96623142Y-92834880D01*
X104338380Y-93644404D02*
X103338380Y-93644404D01*
X103338380Y-93406309D01*
X103386000Y-93263452D01*
X103481238Y-93168214D01*
X103576476Y-93120595D01*
X103766952Y-93072976D01*
X103909809Y-93072976D01*
X104100285Y-93120595D01*
X104195523Y-93168214D01*
X104290761Y-93263452D01*
X104338380Y-93406309D01*
X104338380Y-93644404D01*
X104338380Y-92120595D02*
X104338380Y-92692023D01*
X104338380Y-92406309D02*
X103338380Y-92406309D01*
X103481238Y-92501547D01*
X103576476Y-92596785D01*
X103624095Y-92692023D01*
X103338380Y-91787261D02*
X103338380Y-91168214D01*
X103719333Y-91501547D01*
X103719333Y-91358690D01*
X103766952Y-91263452D01*
X103814571Y-91215833D01*
X103909809Y-91168214D01*
X104147904Y-91168214D01*
X104243142Y-91215833D01*
X104290761Y-91263452D01*
X104338380Y-91358690D01*
X104338380Y-91644404D01*
X104290761Y-91739642D01*
X104243142Y-91787261D01*
X85606000Y-93120595D02*
X85558380Y-93215833D01*
X85558380Y-93358690D01*
X85606000Y-93501547D01*
X85701238Y-93596785D01*
X85796476Y-93644404D01*
X85986952Y-93692023D01*
X86129809Y-93692023D01*
X86320285Y-93644404D01*
X86415523Y-93596785D01*
X86510761Y-93501547D01*
X86558380Y-93358690D01*
X86558380Y-93263452D01*
X86510761Y-93120595D01*
X86463142Y-93072976D01*
X86129809Y-93072976D01*
X86129809Y-93263452D01*
X86558380Y-92644404D02*
X85558380Y-92644404D01*
X86558380Y-92072976D01*
X85558380Y-92072976D01*
X86558380Y-91596785D02*
X85558380Y-91596785D01*
X85558380Y-91358690D01*
X85606000Y-91215833D01*
X85701238Y-91120595D01*
X85796476Y-91072976D01*
X85986952Y-91025357D01*
X86129809Y-91025357D01*
X86320285Y-91072976D01*
X86415523Y-91120595D01*
X86510761Y-91215833D01*
X86558380Y-91358690D01*
X86558380Y-91596785D01*
X111958380Y-93644404D02*
X110958380Y-93644404D01*
X110958380Y-93406309D01*
X111006000Y-93263452D01*
X111101238Y-93168214D01*
X111196476Y-93120595D01*
X111386952Y-93072976D01*
X111529809Y-93072976D01*
X111720285Y-93120595D01*
X111815523Y-93168214D01*
X111910761Y-93263452D01*
X111958380Y-93406309D01*
X111958380Y-93644404D01*
X111958380Y-92120595D02*
X111958380Y-92692023D01*
X111958380Y-92406309D02*
X110958380Y-92406309D01*
X111101238Y-92501547D01*
X111196476Y-92596785D01*
X111244095Y-92692023D01*
X111053619Y-91739642D02*
X111006000Y-91692023D01*
X110958380Y-91596785D01*
X110958380Y-91358690D01*
X111006000Y-91263452D01*
X111053619Y-91215833D01*
X111148857Y-91168214D01*
X111244095Y-91168214D01*
X111386952Y-91215833D01*
X111958380Y-91787261D01*
X111958380Y-91168214D01*
X44037523Y-158479761D02*
X44180380Y-158527380D01*
X44418476Y-158527380D01*
X44513714Y-158479761D01*
X44561333Y-158432142D01*
X44608952Y-158336904D01*
X44608952Y-158241666D01*
X44561333Y-158146428D01*
X44513714Y-158098809D01*
X44418476Y-158051190D01*
X44228000Y-158003571D01*
X44132761Y-157955952D01*
X44085142Y-157908333D01*
X44037523Y-157813095D01*
X44037523Y-157717857D01*
X44085142Y-157622619D01*
X44132761Y-157575000D01*
X44228000Y-157527380D01*
X44466095Y-157527380D01*
X44608952Y-157575000D01*
X45037523Y-158003571D02*
X45370857Y-158003571D01*
X45513714Y-158527380D02*
X45037523Y-158527380D01*
X45037523Y-157527380D01*
X45513714Y-157527380D01*
X46513714Y-158527380D02*
X46180380Y-158051190D01*
X45942285Y-158527380D02*
X45942285Y-157527380D01*
X46323238Y-157527380D01*
X46418476Y-157575000D01*
X46466095Y-157622619D01*
X46513714Y-157717857D01*
X46513714Y-157860714D01*
X46466095Y-157955952D01*
X46418476Y-158003571D01*
X46323238Y-158051190D01*
X45942285Y-158051190D01*
X46799428Y-157527380D02*
X47132761Y-158527380D01*
X47466095Y-157527380D01*
X47989904Y-157527380D02*
X48180380Y-157527380D01*
X48275619Y-157575000D01*
X48370857Y-157670238D01*
X48418476Y-157860714D01*
X48418476Y-158194047D01*
X48370857Y-158384523D01*
X48275619Y-158479761D01*
X48180380Y-158527380D01*
X47989904Y-158527380D01*
X47894666Y-158479761D01*
X47799428Y-158384523D01*
X47751809Y-158194047D01*
X47751809Y-157860714D01*
X47799428Y-157670238D01*
X47894666Y-157575000D01*
X47989904Y-157527380D01*
X45894666Y-159137380D02*
X46513714Y-159137380D01*
X46180380Y-159518333D01*
X46323238Y-159518333D01*
X46418476Y-159565952D01*
X46466095Y-159613571D01*
X46513714Y-159708809D01*
X46513714Y-159946904D01*
X46466095Y-160042142D01*
X46418476Y-160089761D01*
X46323238Y-160137380D01*
X46037523Y-160137380D01*
X45942285Y-160089761D01*
X45894666Y-160042142D01*
X102052584Y-140734268D02*
X102100204Y-140781887D01*
X102147823Y-140877125D01*
X102147823Y-141115220D01*
X102100204Y-141210458D01*
X102052584Y-141258077D01*
X101957346Y-141305696D01*
X101862108Y-141305696D01*
X101719251Y-141258077D01*
X101147823Y-140686649D01*
X101147823Y-141305696D01*
X102147823Y-141924744D02*
X102147823Y-142019982D01*
X102100204Y-142115220D01*
X102052584Y-142162839D01*
X101957346Y-142210458D01*
X101766870Y-142258077D01*
X101528775Y-142258077D01*
X101338299Y-142210458D01*
X101243061Y-142162839D01*
X101195442Y-142115220D01*
X101147823Y-142019982D01*
X101147823Y-141924744D01*
X101195442Y-141829506D01*
X101243061Y-141781887D01*
X101338299Y-141734268D01*
X101528775Y-141686649D01*
X101766870Y-141686649D01*
X101957346Y-141734268D01*
X102052584Y-141781887D01*
X102100204Y-141829506D01*
X102147823Y-141924744D01*
X102052584Y-142639030D02*
X102100204Y-142686649D01*
X102147823Y-142781887D01*
X102147823Y-143019982D01*
X102100204Y-143115220D01*
X102052584Y-143162839D01*
X101957346Y-143210458D01*
X101862108Y-143210458D01*
X101719251Y-143162839D01*
X101147823Y-142591411D01*
X101147823Y-143210458D01*
X102052584Y-143591411D02*
X102100204Y-143639030D01*
X102147823Y-143734268D01*
X102147823Y-143972363D01*
X102100204Y-144067601D01*
X102052584Y-144115220D01*
X101957346Y-144162839D01*
X101862108Y-144162839D01*
X101719251Y-144115220D01*
X101147823Y-143543792D01*
X101147823Y-144162839D01*
X101528775Y-144591411D02*
X101528775Y-145353315D01*
X102052584Y-145781887D02*
X102100204Y-145829506D01*
X102147823Y-145924744D01*
X102147823Y-146162839D01*
X102100204Y-146258077D01*
X102052584Y-146305696D01*
X101957346Y-146353315D01*
X101862108Y-146353315D01*
X101719251Y-146305696D01*
X101147823Y-145734268D01*
X101147823Y-146353315D01*
X102147823Y-146972363D02*
X102147823Y-147067601D01*
X102100204Y-147162839D01*
X102052584Y-147210458D01*
X101957346Y-147258077D01*
X101766870Y-147305696D01*
X101528775Y-147305696D01*
X101338299Y-147258077D01*
X101243061Y-147210458D01*
X101195442Y-147162839D01*
X101147823Y-147067601D01*
X101147823Y-146972363D01*
X101195442Y-146877125D01*
X101243061Y-146829506D01*
X101338299Y-146781887D01*
X101528775Y-146734268D01*
X101766870Y-146734268D01*
X101957346Y-146781887D01*
X102052584Y-146829506D01*
X102100204Y-146877125D01*
X102147823Y-146972363D01*
X102052584Y-147686649D02*
X102100204Y-147734268D01*
X102147823Y-147829506D01*
X102147823Y-148067601D01*
X102100204Y-148162839D01*
X102052584Y-148210458D01*
X101957346Y-148258077D01*
X101862108Y-148258077D01*
X101719251Y-148210458D01*
X101147823Y-147639030D01*
X101147823Y-148258077D01*
X102147823Y-148591411D02*
X102147823Y-149210458D01*
X101766870Y-148877125D01*
X101766870Y-149019982D01*
X101719251Y-149115220D01*
X101671632Y-149162839D01*
X101576394Y-149210458D01*
X101338299Y-149210458D01*
X101243061Y-149162839D01*
X101195442Y-149115220D01*
X101147823Y-149019982D01*
X101147823Y-148734268D01*
X101195442Y-148639030D01*
X101243061Y-148591411D01*
X48155695Y-101185380D02*
X48155695Y-101899666D01*
X48108076Y-102042523D01*
X48012838Y-102137761D01*
X47869980Y-102185380D01*
X47774742Y-102185380D01*
X48822361Y-101185380D02*
X49012838Y-101185380D01*
X49108076Y-101233000D01*
X49203314Y-101328238D01*
X49250933Y-101518714D01*
X49250933Y-101852047D01*
X49203314Y-102042523D01*
X49108076Y-102137761D01*
X49012838Y-102185380D01*
X48822361Y-102185380D01*
X48727123Y-102137761D01*
X48631885Y-102042523D01*
X48584266Y-101852047D01*
X48584266Y-101518714D01*
X48631885Y-101328238D01*
X48727123Y-101233000D01*
X48822361Y-101185380D01*
X49869980Y-101709190D02*
X49869980Y-102185380D01*
X49536647Y-101185380D02*
X49869980Y-101709190D01*
X50203314Y-101185380D01*
X50489028Y-102137761D02*
X50631885Y-102185380D01*
X50869980Y-102185380D01*
X50965219Y-102137761D01*
X51012838Y-102090142D01*
X51060457Y-101994904D01*
X51060457Y-101899666D01*
X51012838Y-101804428D01*
X50965219Y-101756809D01*
X50869980Y-101709190D01*
X50679504Y-101661571D01*
X50584266Y-101613952D01*
X50536647Y-101566333D01*
X50489028Y-101471095D01*
X50489028Y-101375857D01*
X50536647Y-101280619D01*
X50584266Y-101233000D01*
X50679504Y-101185380D01*
X50917600Y-101185380D01*
X51060457Y-101233000D01*
X51346171Y-101185380D02*
X51917600Y-101185380D01*
X51631885Y-102185380D02*
X51631885Y-101185380D01*
X52250933Y-102185380D02*
X52250933Y-101185380D01*
X53298552Y-102090142D02*
X53250933Y-102137761D01*
X53108076Y-102185380D01*
X53012838Y-102185380D01*
X52869980Y-102137761D01*
X52774742Y-102042523D01*
X52727123Y-101947285D01*
X52679504Y-101756809D01*
X52679504Y-101613952D01*
X52727123Y-101423476D01*
X52774742Y-101328238D01*
X52869980Y-101233000D01*
X53012838Y-101185380D01*
X53108076Y-101185380D01*
X53250933Y-101233000D01*
X53298552Y-101280619D01*
X53727123Y-102185380D02*
X53727123Y-101185380D01*
X54298552Y-102185380D02*
X53869980Y-101613952D01*
X54298552Y-101185380D02*
X53727123Y-101756809D01*
X55441409Y-101280619D02*
X55489028Y-101233000D01*
X55584266Y-101185380D01*
X55822361Y-101185380D01*
X55917600Y-101233000D01*
X55965219Y-101280619D01*
X56012838Y-101375857D01*
X56012838Y-101471095D01*
X55965219Y-101613952D01*
X55393790Y-102185380D01*
X56012838Y-102185380D01*
X44037523Y-147179761D02*
X44180380Y-147227380D01*
X44418476Y-147227380D01*
X44513714Y-147179761D01*
X44561333Y-147132142D01*
X44608952Y-147036904D01*
X44608952Y-146941666D01*
X44561333Y-146846428D01*
X44513714Y-146798809D01*
X44418476Y-146751190D01*
X44228000Y-146703571D01*
X44132761Y-146655952D01*
X44085142Y-146608333D01*
X44037523Y-146513095D01*
X44037523Y-146417857D01*
X44085142Y-146322619D01*
X44132761Y-146275000D01*
X44228000Y-146227380D01*
X44466095Y-146227380D01*
X44608952Y-146275000D01*
X45037523Y-146703571D02*
X45370857Y-146703571D01*
X45513714Y-147227380D02*
X45037523Y-147227380D01*
X45037523Y-146227380D01*
X45513714Y-146227380D01*
X46513714Y-147227380D02*
X46180380Y-146751190D01*
X45942285Y-147227380D02*
X45942285Y-146227380D01*
X46323238Y-146227380D01*
X46418476Y-146275000D01*
X46466095Y-146322619D01*
X46513714Y-146417857D01*
X46513714Y-146560714D01*
X46466095Y-146655952D01*
X46418476Y-146703571D01*
X46323238Y-146751190D01*
X45942285Y-146751190D01*
X46799428Y-146227380D02*
X47132761Y-147227380D01*
X47466095Y-146227380D01*
X47989904Y-146227380D02*
X48180380Y-146227380D01*
X48275619Y-146275000D01*
X48370857Y-146370238D01*
X48418476Y-146560714D01*
X48418476Y-146894047D01*
X48370857Y-147084523D01*
X48275619Y-147179761D01*
X48180380Y-147227380D01*
X47989904Y-147227380D01*
X47894666Y-147179761D01*
X47799428Y-147084523D01*
X47751809Y-146894047D01*
X47751809Y-146560714D01*
X47799428Y-146370238D01*
X47894666Y-146275000D01*
X47989904Y-146227380D01*
X45942285Y-147932619D02*
X45989904Y-147885000D01*
X46085142Y-147837380D01*
X46323238Y-147837380D01*
X46418476Y-147885000D01*
X46466095Y-147932619D01*
X46513714Y-148027857D01*
X46513714Y-148123095D01*
X46466095Y-148265952D01*
X45894666Y-148837380D01*
X46513714Y-148837380D01*
D11*
X104707632Y-140744434D02*
X103493346Y-140744434D01*
X103350489Y-140815863D01*
X103279061Y-140887292D01*
X103207632Y-141030149D01*
X103207632Y-141315863D01*
X103279061Y-141458720D01*
X103350489Y-141530149D01*
X103493346Y-141601577D01*
X104707632Y-141601577D01*
X104207632Y-142315863D02*
X103207632Y-142315863D01*
X104064775Y-142315863D02*
X104136204Y-142387292D01*
X104207632Y-142530149D01*
X104207632Y-142744434D01*
X104136204Y-142887292D01*
X103993346Y-142958720D01*
X103207632Y-142958720D01*
X103207632Y-143673006D02*
X104207632Y-143673006D01*
X104707632Y-143673006D02*
X104636204Y-143601577D01*
X104564775Y-143673006D01*
X104636204Y-143744434D01*
X104707632Y-143673006D01*
X104564775Y-143673006D01*
X104207632Y-144173006D02*
X104207632Y-144744434D01*
X103207632Y-144387292D02*
X104493346Y-144387292D01*
X104636204Y-144458720D01*
X104707632Y-144601577D01*
X104707632Y-144744434D01*
X103207632Y-145244434D02*
X104207632Y-145244434D01*
X104707632Y-145244434D02*
X104636204Y-145173006D01*
X104564775Y-145244434D01*
X104636204Y-145315863D01*
X104707632Y-145244434D01*
X104564775Y-145244434D01*
X103279061Y-146530149D02*
X103207632Y-146387292D01*
X103207632Y-146101577D01*
X103279061Y-145958720D01*
X103421918Y-145887292D01*
X103993346Y-145887292D01*
X104136204Y-145958720D01*
X104207632Y-146101577D01*
X104207632Y-146387292D01*
X104136204Y-146530149D01*
X103993346Y-146601577D01*
X103850489Y-146601577D01*
X103707632Y-145887292D01*
X103207632Y-147887292D02*
X104707632Y-147887292D01*
X103279061Y-147887292D02*
X103207632Y-147744434D01*
X103207632Y-147458720D01*
X103279061Y-147315863D01*
X103350489Y-147244434D01*
X103493346Y-147173006D01*
X103921918Y-147173006D01*
X104064775Y-147244434D01*
X104136204Y-147315863D01*
X104207632Y-147458720D01*
X104207632Y-147744434D01*
X104136204Y-147887292D01*
X103993346Y-149744434D02*
X103993346Y-150244434D01*
X103207632Y-150458720D02*
X103207632Y-149744434D01*
X104707632Y-149744434D01*
X104707632Y-150458720D01*
X103207632Y-151315863D02*
X103279061Y-151173006D01*
X103421918Y-151101577D01*
X104707632Y-151101577D01*
X103279061Y-152458720D02*
X103207632Y-152315863D01*
X103207632Y-152030149D01*
X103279061Y-151887292D01*
X103421918Y-151815863D01*
X103993346Y-151815863D01*
X104136204Y-151887292D01*
X104207632Y-152030149D01*
X104207632Y-152315863D01*
X104136204Y-152458720D01*
X103993346Y-152530149D01*
X103850489Y-152530149D01*
X103707632Y-151815863D01*
X103279061Y-153815863D02*
X103207632Y-153673006D01*
X103207632Y-153387292D01*
X103279061Y-153244434D01*
X103350489Y-153173006D01*
X103493346Y-153101577D01*
X103921918Y-153101577D01*
X104064775Y-153173006D01*
X104136204Y-153244434D01*
X104207632Y-153387292D01*
X104207632Y-153673006D01*
X104136204Y-153815863D01*
X103350489Y-154458720D02*
X103279061Y-154530149D01*
X103207632Y-154458720D01*
X103279061Y-154387292D01*
X103350489Y-154458720D01*
X103207632Y-154458720D01*
X103279061Y-156244434D02*
X103207632Y-156458720D01*
X103207632Y-156815863D01*
X103279061Y-156958720D01*
X103350489Y-157030149D01*
X103493346Y-157101577D01*
X103636204Y-157101577D01*
X103779061Y-157030149D01*
X103850489Y-156958720D01*
X103921918Y-156815863D01*
X103993346Y-156530149D01*
X104064775Y-156387292D01*
X104136204Y-156315863D01*
X104279061Y-156244434D01*
X104421918Y-156244434D01*
X104564775Y-156315863D01*
X104636204Y-156387292D01*
X104707632Y-156530149D01*
X104707632Y-156887292D01*
X104636204Y-157101577D01*
X104207632Y-157530149D02*
X104207632Y-158101577D01*
X104707632Y-157744434D02*
X103421918Y-157744434D01*
X103279061Y-157815863D01*
X103207632Y-157958720D01*
X103207632Y-158101577D01*
X103279061Y-159173006D02*
X103207632Y-159030149D01*
X103207632Y-158744434D01*
X103279061Y-158601577D01*
X103421918Y-158530149D01*
X103993346Y-158530149D01*
X104136204Y-158601577D01*
X104207632Y-158744434D01*
X104207632Y-159030149D01*
X104136204Y-159173006D01*
X103993346Y-159244434D01*
X103850489Y-159244434D01*
X103707632Y-158530149D01*
X103279061Y-160458720D02*
X103207632Y-160315863D01*
X103207632Y-160030149D01*
X103279061Y-159887292D01*
X103421918Y-159815863D01*
X103993346Y-159815863D01*
X104136204Y-159887292D01*
X104207632Y-160030149D01*
X104207632Y-160315863D01*
X104136204Y-160458720D01*
X103993346Y-160530149D01*
X103850489Y-160530149D01*
X103707632Y-159815863D01*
X103207632Y-161173006D02*
X104207632Y-161173006D01*
X103921918Y-161173006D02*
X104064775Y-161244434D01*
X104136204Y-161315863D01*
X104207632Y-161458720D01*
X104207632Y-161601577D01*
X103207632Y-162101577D02*
X104207632Y-162101577D01*
X104707632Y-162101577D02*
X104636204Y-162030149D01*
X104564775Y-162101577D01*
X104636204Y-162173006D01*
X104707632Y-162101577D01*
X104564775Y-162101577D01*
X104207632Y-162815863D02*
X103207632Y-162815863D01*
X104064775Y-162815863D02*
X104136204Y-162887292D01*
X104207632Y-163030149D01*
X104207632Y-163244434D01*
X104136204Y-163387292D01*
X103993346Y-163458720D01*
X103207632Y-163458720D01*
X104207632Y-164815863D02*
X102993346Y-164815863D01*
X102850489Y-164744434D01*
X102779061Y-164673006D01*
X102707632Y-164530149D01*
X102707632Y-164315863D01*
X102779061Y-164173006D01*
X103279061Y-164815863D02*
X103207632Y-164673006D01*
X103207632Y-164387292D01*
X103279061Y-164244434D01*
X103350489Y-164173006D01*
X103493346Y-164101577D01*
X103921918Y-164101577D01*
X104064775Y-164173006D01*
X104136204Y-164244434D01*
X104207632Y-164387292D01*
X104207632Y-164673006D01*
X104136204Y-164815863D01*
D10*
X75580952Y-136729380D02*
X75009523Y-136729380D01*
X75295238Y-136729380D02*
X75295238Y-135729380D01*
X75200000Y-135872238D01*
X75104761Y-135967476D01*
X75009523Y-136015095D01*
X76200000Y-135729380D02*
X76295238Y-135729380D01*
X76390476Y-135777000D01*
X76438095Y-135824619D01*
X76485714Y-135919857D01*
X76533333Y-136110333D01*
X76533333Y-136348428D01*
X76485714Y-136538904D01*
X76438095Y-136634142D01*
X76390476Y-136681761D01*
X76295238Y-136729380D01*
X76200000Y-136729380D01*
X76104761Y-136681761D01*
X76057142Y-136634142D01*
X76009523Y-136538904D01*
X75961904Y-136348428D01*
X75961904Y-136110333D01*
X76009523Y-135919857D01*
X76057142Y-135824619D01*
X76104761Y-135777000D01*
X76200000Y-135729380D01*
X76914285Y-136443666D02*
X77390476Y-136443666D01*
X76819047Y-136729380D02*
X77152380Y-135729380D01*
X77485714Y-136729380D01*
X43728000Y-124354571D02*
X43870857Y-124402190D01*
X43918476Y-124449809D01*
X43966095Y-124545047D01*
X43966095Y-124687904D01*
X43918476Y-124783142D01*
X43870857Y-124830761D01*
X43775619Y-124878380D01*
X43394666Y-124878380D01*
X43394666Y-123878380D01*
X43728000Y-123878380D01*
X43823238Y-123926000D01*
X43870857Y-123973619D01*
X43918476Y-124068857D01*
X43918476Y-124164095D01*
X43870857Y-124259333D01*
X43823238Y-124306952D01*
X43728000Y-124354571D01*
X43394666Y-124354571D01*
X44347047Y-124592666D02*
X44823238Y-124592666D01*
X44251809Y-124878380D02*
X44585142Y-123878380D01*
X44918476Y-124878380D01*
X45108952Y-123878380D02*
X45680380Y-123878380D01*
X45394666Y-124878380D02*
X45394666Y-123878380D01*
X45870857Y-123878380D02*
X46442285Y-123878380D01*
X46156571Y-124878380D02*
X46156571Y-123878380D01*
X46775619Y-124354571D02*
X47108952Y-124354571D01*
X47251809Y-124878380D02*
X46775619Y-124878380D01*
X46775619Y-123878380D01*
X47251809Y-123878380D01*
X48251809Y-124878380D02*
X47918476Y-124402190D01*
X47680380Y-124878380D02*
X47680380Y-123878380D01*
X48061333Y-123878380D01*
X48156571Y-123926000D01*
X48204190Y-123973619D01*
X48251809Y-124068857D01*
X48251809Y-124211714D01*
X48204190Y-124306952D01*
X48156571Y-124354571D01*
X48061333Y-124402190D01*
X47680380Y-124402190D01*
X48870857Y-124402190D02*
X48870857Y-124878380D01*
X48537523Y-123878380D02*
X48870857Y-124402190D01*
X49204190Y-123878380D01*
X45704190Y-126488380D02*
X45704190Y-125488380D01*
X46180380Y-126488380D02*
X46180380Y-125488380D01*
X46751809Y-126488380D01*
X46751809Y-125488380D01*
X102314952Y-173950380D02*
X102314952Y-174664666D01*
X102267333Y-174807523D01*
X102172095Y-174902761D01*
X102029238Y-174950380D01*
X101934000Y-174950380D01*
X103267333Y-174950380D02*
X102791142Y-174950380D01*
X102791142Y-173950380D01*
X104172095Y-174855142D02*
X104124476Y-174902761D01*
X103981619Y-174950380D01*
X103886380Y-174950380D01*
X103743523Y-174902761D01*
X103648285Y-174807523D01*
X103600666Y-174712285D01*
X103553047Y-174521809D01*
X103553047Y-174378952D01*
X103600666Y-174188476D01*
X103648285Y-174093238D01*
X103743523Y-173998000D01*
X103886380Y-173950380D01*
X103981619Y-173950380D01*
X104124476Y-173998000D01*
X104172095Y-174045619D01*
X104886380Y-173950380D02*
X104886380Y-174664666D01*
X104838761Y-174807523D01*
X104743523Y-174902761D01*
X104600666Y-174950380D01*
X104505428Y-174950380D01*
X105838761Y-174950380D02*
X105362571Y-174950380D01*
X105362571Y-173950380D01*
X106743523Y-174855142D02*
X106695904Y-174902761D01*
X106553047Y-174950380D01*
X106457809Y-174950380D01*
X106314952Y-174902761D01*
X106219714Y-174807523D01*
X106172095Y-174712285D01*
X106124476Y-174521809D01*
X106124476Y-174378952D01*
X106172095Y-174188476D01*
X106219714Y-174093238D01*
X106314952Y-173998000D01*
X106457809Y-173950380D01*
X106553047Y-173950380D01*
X106695904Y-173998000D01*
X106743523Y-174045619D01*
X107457809Y-173950380D02*
X107457809Y-174664666D01*
X107410190Y-174807523D01*
X107314952Y-174902761D01*
X107172095Y-174950380D01*
X107076857Y-174950380D01*
X108410190Y-174950380D02*
X107934000Y-174950380D01*
X107934000Y-173950380D01*
X109314952Y-174855142D02*
X109267333Y-174902761D01*
X109124476Y-174950380D01*
X109029238Y-174950380D01*
X108886380Y-174902761D01*
X108791142Y-174807523D01*
X108743523Y-174712285D01*
X108695904Y-174521809D01*
X108695904Y-174378952D01*
X108743523Y-174188476D01*
X108791142Y-174093238D01*
X108886380Y-173998000D01*
X109029238Y-173950380D01*
X109124476Y-173950380D01*
X109267333Y-173998000D01*
X109314952Y-174045619D01*
X110029238Y-173950380D02*
X110029238Y-174664666D01*
X109981619Y-174807523D01*
X109886380Y-174902761D01*
X109743523Y-174950380D01*
X109648285Y-174950380D01*
X110981619Y-174950380D02*
X110505428Y-174950380D01*
X110505428Y-173950380D01*
X111886380Y-174855142D02*
X111838761Y-174902761D01*
X111695904Y-174950380D01*
X111600666Y-174950380D01*
X111457809Y-174902761D01*
X111362571Y-174807523D01*
X111314952Y-174712285D01*
X111267333Y-174521809D01*
X111267333Y-174378952D01*
X111314952Y-174188476D01*
X111362571Y-174093238D01*
X111457809Y-173998000D01*
X111600666Y-173950380D01*
X111695904Y-173950380D01*
X111838761Y-173998000D01*
X111886380Y-174045619D01*
X44037523Y-169779761D02*
X44180380Y-169827380D01*
X44418476Y-169827380D01*
X44513714Y-169779761D01*
X44561333Y-169732142D01*
X44608952Y-169636904D01*
X44608952Y-169541666D01*
X44561333Y-169446428D01*
X44513714Y-169398809D01*
X44418476Y-169351190D01*
X44228000Y-169303571D01*
X44132761Y-169255952D01*
X44085142Y-169208333D01*
X44037523Y-169113095D01*
X44037523Y-169017857D01*
X44085142Y-168922619D01*
X44132761Y-168875000D01*
X44228000Y-168827380D01*
X44466095Y-168827380D01*
X44608952Y-168875000D01*
X45037523Y-169303571D02*
X45370857Y-169303571D01*
X45513714Y-169827380D02*
X45037523Y-169827380D01*
X45037523Y-168827380D01*
X45513714Y-168827380D01*
X46513714Y-169827380D02*
X46180380Y-169351190D01*
X45942285Y-169827380D02*
X45942285Y-168827380D01*
X46323238Y-168827380D01*
X46418476Y-168875000D01*
X46466095Y-168922619D01*
X46513714Y-169017857D01*
X46513714Y-169160714D01*
X46466095Y-169255952D01*
X46418476Y-169303571D01*
X46323238Y-169351190D01*
X45942285Y-169351190D01*
X46799428Y-168827380D02*
X47132761Y-169827380D01*
X47466095Y-168827380D01*
X47989904Y-168827380D02*
X48180380Y-168827380D01*
X48275619Y-168875000D01*
X48370857Y-168970238D01*
X48418476Y-169160714D01*
X48418476Y-169494047D01*
X48370857Y-169684523D01*
X48275619Y-169779761D01*
X48180380Y-169827380D01*
X47989904Y-169827380D01*
X47894666Y-169779761D01*
X47799428Y-169684523D01*
X47751809Y-169494047D01*
X47751809Y-169160714D01*
X47799428Y-168970238D01*
X47894666Y-168875000D01*
X47989904Y-168827380D01*
X46418476Y-170770714D02*
X46418476Y-171437380D01*
X46180380Y-170389761D02*
X45942285Y-171104047D01*
X46561333Y-171104047D01*
X49655695Y-119695571D02*
X49798552Y-119743190D01*
X49846171Y-119790809D01*
X49893790Y-119886047D01*
X49893790Y-120028904D01*
X49846171Y-120124142D01*
X49798552Y-120171761D01*
X49703314Y-120219380D01*
X49322361Y-120219380D01*
X49322361Y-119219380D01*
X49655695Y-119219380D01*
X49750933Y-119267000D01*
X49798552Y-119314619D01*
X49846171Y-119409857D01*
X49846171Y-119505095D01*
X49798552Y-119600333D01*
X49750933Y-119647952D01*
X49655695Y-119695571D01*
X49322361Y-119695571D01*
X50322361Y-119219380D02*
X50322361Y-120028904D01*
X50369980Y-120124142D01*
X50417600Y-120171761D01*
X50512838Y-120219380D01*
X50703314Y-120219380D01*
X50798552Y-120171761D01*
X50846171Y-120124142D01*
X50893790Y-120028904D01*
X50893790Y-119219380D01*
X51227123Y-119219380D02*
X51798552Y-119219380D01*
X51512838Y-120219380D02*
X51512838Y-119219380D01*
X51989028Y-119219380D02*
X52560457Y-119219380D01*
X52274742Y-120219380D02*
X52274742Y-119219380D01*
X53084266Y-119219380D02*
X53274742Y-119219380D01*
X53369980Y-119267000D01*
X53465219Y-119362238D01*
X53512838Y-119552714D01*
X53512838Y-119886047D01*
X53465219Y-120076523D01*
X53369980Y-120171761D01*
X53274742Y-120219380D01*
X53084266Y-120219380D01*
X52989028Y-120171761D01*
X52893790Y-120076523D01*
X52846171Y-119886047D01*
X52846171Y-119552714D01*
X52893790Y-119362238D01*
X52989028Y-119267000D01*
X53084266Y-119219380D01*
X53941409Y-120219380D02*
X53941409Y-119219380D01*
X54512838Y-120219380D01*
X54512838Y-119219380D01*
X64183095Y-101899666D02*
X64659285Y-101899666D01*
X64087857Y-102185380D02*
X64421190Y-101185380D01*
X64754523Y-102185380D01*
X65087857Y-102185380D02*
X65087857Y-101185380D01*
X65659285Y-102185380D01*
X65659285Y-101185380D01*
X66087857Y-101899666D02*
X66564047Y-101899666D01*
X65992619Y-102185380D02*
X66325952Y-101185380D01*
X66659285Y-102185380D01*
X67468809Y-102185380D02*
X66992619Y-102185380D01*
X66992619Y-101185380D01*
X67992619Y-101185380D02*
X68183095Y-101185380D01*
X68278333Y-101233000D01*
X68373571Y-101328238D01*
X68421190Y-101518714D01*
X68421190Y-101852047D01*
X68373571Y-102042523D01*
X68278333Y-102137761D01*
X68183095Y-102185380D01*
X67992619Y-102185380D01*
X67897380Y-102137761D01*
X67802142Y-102042523D01*
X67754523Y-101852047D01*
X67754523Y-101518714D01*
X67802142Y-101328238D01*
X67897380Y-101233000D01*
X67992619Y-101185380D01*
X69373571Y-101233000D02*
X69278333Y-101185380D01*
X69135476Y-101185380D01*
X68992619Y-101233000D01*
X68897380Y-101328238D01*
X68849761Y-101423476D01*
X68802142Y-101613952D01*
X68802142Y-101756809D01*
X68849761Y-101947285D01*
X68897380Y-102042523D01*
X68992619Y-102137761D01*
X69135476Y-102185380D01*
X69230714Y-102185380D01*
X69373571Y-102137761D01*
X69421190Y-102090142D01*
X69421190Y-101756809D01*
X69230714Y-101756809D01*
X70611666Y-102185380D02*
X70611666Y-101185380D01*
X71087857Y-102185380D02*
X71087857Y-101185380D01*
X71659285Y-102185380D01*
X71659285Y-101185380D01*
X93511619Y-135503761D02*
X92511619Y-135837095D01*
X93511619Y-136170428D01*
X92511619Y-136503761D02*
X93511619Y-136503761D01*
X92511619Y-136979952D02*
X93511619Y-136979952D01*
X92511619Y-137551380D01*
X93511619Y-137551380D01*
X75580952Y-170629380D02*
X75009523Y-170629380D01*
X75295238Y-170629380D02*
X75295238Y-169629380D01*
X75200000Y-169772238D01*
X75104761Y-169867476D01*
X75009523Y-169915095D01*
X76200000Y-169629380D02*
X76295238Y-169629380D01*
X76390476Y-169677000D01*
X76438095Y-169724619D01*
X76485714Y-169819857D01*
X76533333Y-170010333D01*
X76533333Y-170248428D01*
X76485714Y-170438904D01*
X76438095Y-170534142D01*
X76390476Y-170581761D01*
X76295238Y-170629380D01*
X76200000Y-170629380D01*
X76104761Y-170581761D01*
X76057142Y-170534142D01*
X76009523Y-170438904D01*
X75961904Y-170248428D01*
X75961904Y-170010333D01*
X76009523Y-169819857D01*
X76057142Y-169724619D01*
X76104761Y-169677000D01*
X76200000Y-169629380D01*
X76914285Y-170343666D02*
X77390476Y-170343666D01*
X76819047Y-170629380D02*
X77152380Y-169629380D01*
X77485714Y-170629380D01*
X64349761Y-111202380D02*
X64349761Y-110202380D01*
X64587857Y-110202380D01*
X64730714Y-110250000D01*
X64825952Y-110345238D01*
X64873571Y-110440476D01*
X64921190Y-110630952D01*
X64921190Y-110773809D01*
X64873571Y-110964285D01*
X64825952Y-111059523D01*
X64730714Y-111154761D01*
X64587857Y-111202380D01*
X64349761Y-111202380D01*
X65349761Y-111202380D02*
X65349761Y-110202380D01*
X66349761Y-110250000D02*
X66254523Y-110202380D01*
X66111666Y-110202380D01*
X65968809Y-110250000D01*
X65873571Y-110345238D01*
X65825952Y-110440476D01*
X65778333Y-110630952D01*
X65778333Y-110773809D01*
X65825952Y-110964285D01*
X65873571Y-111059523D01*
X65968809Y-111154761D01*
X66111666Y-111202380D01*
X66206904Y-111202380D01*
X66349761Y-111154761D01*
X66397380Y-111107142D01*
X66397380Y-110773809D01*
X66206904Y-110773809D01*
X66825952Y-111202380D02*
X66825952Y-110202380D01*
X67159285Y-110202380D02*
X67730714Y-110202380D01*
X67445000Y-111202380D02*
X67445000Y-110202380D01*
X68016428Y-110916666D02*
X68492619Y-110916666D01*
X67921190Y-111202380D02*
X68254523Y-110202380D01*
X68587857Y-111202380D01*
X69397380Y-111202380D02*
X68921190Y-111202380D01*
X68921190Y-110202380D01*
X70492619Y-111202380D02*
X70492619Y-110202380D01*
X70968809Y-111202380D02*
X70968809Y-110202380D01*
X71540238Y-111202380D01*
X71540238Y-110202380D01*
X75580952Y-159329380D02*
X75009523Y-159329380D01*
X75295238Y-159329380D02*
X75295238Y-158329380D01*
X75200000Y-158472238D01*
X75104761Y-158567476D01*
X75009523Y-158615095D01*
X76200000Y-158329380D02*
X76295238Y-158329380D01*
X76390476Y-158377000D01*
X76438095Y-158424619D01*
X76485714Y-158519857D01*
X76533333Y-158710333D01*
X76533333Y-158948428D01*
X76485714Y-159138904D01*
X76438095Y-159234142D01*
X76390476Y-159281761D01*
X76295238Y-159329380D01*
X76200000Y-159329380D01*
X76104761Y-159281761D01*
X76057142Y-159234142D01*
X76009523Y-159138904D01*
X75961904Y-158948428D01*
X75961904Y-158710333D01*
X76009523Y-158519857D01*
X76057142Y-158424619D01*
X76104761Y-158377000D01*
X76200000Y-158329380D01*
X76914285Y-159043666D02*
X77390476Y-159043666D01*
X76819047Y-159329380D02*
X77152380Y-158329380D01*
X77485714Y-159329380D01*
X75580952Y-148029380D02*
X75009523Y-148029380D01*
X75295238Y-148029380D02*
X75295238Y-147029380D01*
X75200000Y-147172238D01*
X75104761Y-147267476D01*
X75009523Y-147315095D01*
X76200000Y-147029380D02*
X76295238Y-147029380D01*
X76390476Y-147077000D01*
X76438095Y-147124619D01*
X76485714Y-147219857D01*
X76533333Y-147410333D01*
X76533333Y-147648428D01*
X76485714Y-147838904D01*
X76438095Y-147934142D01*
X76390476Y-147981761D01*
X76295238Y-148029380D01*
X76200000Y-148029380D01*
X76104761Y-147981761D01*
X76057142Y-147934142D01*
X76009523Y-147838904D01*
X75961904Y-147648428D01*
X75961904Y-147410333D01*
X76009523Y-147219857D01*
X76057142Y-147124619D01*
X76104761Y-147077000D01*
X76200000Y-147029380D01*
X76914285Y-147743666D02*
X77390476Y-147743666D01*
X76819047Y-148029380D02*
X77152380Y-147029380D01*
X77485714Y-148029380D01*
X66349761Y-119219380D02*
X66349761Y-120028904D01*
X66397380Y-120124142D01*
X66445000Y-120171761D01*
X66540238Y-120219380D01*
X66730714Y-120219380D01*
X66825952Y-120171761D01*
X66873571Y-120124142D01*
X66921190Y-120028904D01*
X66921190Y-119219380D01*
X67349761Y-119933666D02*
X67825952Y-119933666D01*
X67254523Y-120219380D02*
X67587857Y-119219380D01*
X67921190Y-120219380D01*
X68825952Y-120219380D02*
X68492619Y-119743190D01*
X68254523Y-120219380D02*
X68254523Y-119219380D01*
X68635476Y-119219380D01*
X68730714Y-119267000D01*
X68778333Y-119314619D01*
X68825952Y-119409857D01*
X68825952Y-119552714D01*
X68778333Y-119647952D01*
X68730714Y-119695571D01*
X68635476Y-119743190D01*
X68254523Y-119743190D01*
X69111666Y-119219380D02*
X69683095Y-119219380D01*
X69397380Y-120219380D02*
X69397380Y-119219380D01*
X48155695Y-110202380D02*
X48155695Y-110916666D01*
X48108076Y-111059523D01*
X48012838Y-111154761D01*
X47869980Y-111202380D01*
X47774742Y-111202380D01*
X48822361Y-110202380D02*
X49012838Y-110202380D01*
X49108076Y-110250000D01*
X49203314Y-110345238D01*
X49250933Y-110535714D01*
X49250933Y-110869047D01*
X49203314Y-111059523D01*
X49108076Y-111154761D01*
X49012838Y-111202380D01*
X48822361Y-111202380D01*
X48727123Y-111154761D01*
X48631885Y-111059523D01*
X48584266Y-110869047D01*
X48584266Y-110535714D01*
X48631885Y-110345238D01*
X48727123Y-110250000D01*
X48822361Y-110202380D01*
X49869980Y-110726190D02*
X49869980Y-111202380D01*
X49536647Y-110202380D02*
X49869980Y-110726190D01*
X50203314Y-110202380D01*
X50489028Y-111154761D02*
X50631885Y-111202380D01*
X50869980Y-111202380D01*
X50965219Y-111154761D01*
X51012838Y-111107142D01*
X51060457Y-111011904D01*
X51060457Y-110916666D01*
X51012838Y-110821428D01*
X50965219Y-110773809D01*
X50869980Y-110726190D01*
X50679504Y-110678571D01*
X50584266Y-110630952D01*
X50536647Y-110583333D01*
X50489028Y-110488095D01*
X50489028Y-110392857D01*
X50536647Y-110297619D01*
X50584266Y-110250000D01*
X50679504Y-110202380D01*
X50917600Y-110202380D01*
X51060457Y-110250000D01*
X51346171Y-110202380D02*
X51917600Y-110202380D01*
X51631885Y-111202380D02*
X51631885Y-110202380D01*
X52250933Y-111202380D02*
X52250933Y-110202380D01*
X53298552Y-111107142D02*
X53250933Y-111154761D01*
X53108076Y-111202380D01*
X53012838Y-111202380D01*
X52869980Y-111154761D01*
X52774742Y-111059523D01*
X52727123Y-110964285D01*
X52679504Y-110773809D01*
X52679504Y-110630952D01*
X52727123Y-110440476D01*
X52774742Y-110345238D01*
X52869980Y-110250000D01*
X53012838Y-110202380D01*
X53108076Y-110202380D01*
X53250933Y-110250000D01*
X53298552Y-110297619D01*
X53727123Y-111202380D02*
X53727123Y-110202380D01*
X54298552Y-111202380D02*
X53869980Y-110630952D01*
X54298552Y-110202380D02*
X53727123Y-110773809D01*
X56012838Y-111202380D02*
X55441409Y-111202380D01*
X55727123Y-111202380D02*
X55727123Y-110202380D01*
X55631885Y-110345238D01*
X55536647Y-110440476D01*
X55441409Y-110488095D01*
X93511619Y-157777095D02*
X92511619Y-158110428D01*
X93511619Y-158443761D01*
X93511619Y-158967571D02*
X93511619Y-159158047D01*
X93464000Y-159253285D01*
X93368761Y-159348523D01*
X93178285Y-159396142D01*
X92844952Y-159396142D01*
X92654476Y-159348523D01*
X92559238Y-159253285D01*
X92511619Y-159158047D01*
X92511619Y-158967571D01*
X92559238Y-158872333D01*
X92654476Y-158777095D01*
X92844952Y-158729476D01*
X93178285Y-158729476D01*
X93368761Y-158777095D01*
X93464000Y-158872333D01*
X93511619Y-158967571D01*
X93511619Y-159824714D02*
X92702095Y-159824714D01*
X92606857Y-159872333D01*
X92559238Y-159919952D01*
X92511619Y-160015190D01*
X92511619Y-160205666D01*
X92559238Y-160300904D01*
X92606857Y-160348523D01*
X92702095Y-160396142D01*
X93511619Y-160396142D01*
X93511619Y-160729476D02*
X93511619Y-161300904D01*
X92511619Y-161015190D02*
X93511619Y-161015190D01*
X44037523Y-135879761D02*
X44180380Y-135927380D01*
X44418476Y-135927380D01*
X44513714Y-135879761D01*
X44561333Y-135832142D01*
X44608952Y-135736904D01*
X44608952Y-135641666D01*
X44561333Y-135546428D01*
X44513714Y-135498809D01*
X44418476Y-135451190D01*
X44228000Y-135403571D01*
X44132761Y-135355952D01*
X44085142Y-135308333D01*
X44037523Y-135213095D01*
X44037523Y-135117857D01*
X44085142Y-135022619D01*
X44132761Y-134975000D01*
X44228000Y-134927380D01*
X44466095Y-134927380D01*
X44608952Y-134975000D01*
X45037523Y-135403571D02*
X45370857Y-135403571D01*
X45513714Y-135927380D02*
X45037523Y-135927380D01*
X45037523Y-134927380D01*
X45513714Y-134927380D01*
X46513714Y-135927380D02*
X46180380Y-135451190D01*
X45942285Y-135927380D02*
X45942285Y-134927380D01*
X46323238Y-134927380D01*
X46418476Y-134975000D01*
X46466095Y-135022619D01*
X46513714Y-135117857D01*
X46513714Y-135260714D01*
X46466095Y-135355952D01*
X46418476Y-135403571D01*
X46323238Y-135451190D01*
X45942285Y-135451190D01*
X46799428Y-134927380D02*
X47132761Y-135927380D01*
X47466095Y-134927380D01*
X47989904Y-134927380D02*
X48180380Y-134927380D01*
X48275619Y-134975000D01*
X48370857Y-135070238D01*
X48418476Y-135260714D01*
X48418476Y-135594047D01*
X48370857Y-135784523D01*
X48275619Y-135879761D01*
X48180380Y-135927380D01*
X47989904Y-135927380D01*
X47894666Y-135879761D01*
X47799428Y-135784523D01*
X47751809Y-135594047D01*
X47751809Y-135260714D01*
X47799428Y-135070238D01*
X47894666Y-134975000D01*
X47989904Y-134927380D01*
X46513714Y-137537380D02*
X45942285Y-137537380D01*
X46228000Y-137537380D02*
X46228000Y-136537380D01*
X46132761Y-136680238D01*
X46037523Y-136775476D01*
X45942285Y-136823095D01*
X75866666Y-164012571D02*
X75533333Y-164012571D01*
X75533333Y-164536380D02*
X75533333Y-163536380D01*
X76009523Y-163536380D01*
X76819047Y-163869714D02*
X76819047Y-164536380D01*
X76580952Y-163488761D02*
X76342857Y-164203047D01*
X76961904Y-164203047D01*
X75866666Y-152712571D02*
X75533333Y-152712571D01*
X75533333Y-153236380D02*
X75533333Y-152236380D01*
X76009523Y-152236380D01*
X76295238Y-152236380D02*
X76914285Y-152236380D01*
X76580952Y-152617333D01*
X76723809Y-152617333D01*
X76819047Y-152664952D01*
X76866666Y-152712571D01*
X76914285Y-152807809D01*
X76914285Y-153045904D01*
X76866666Y-153141142D01*
X76819047Y-153188761D01*
X76723809Y-153236380D01*
X76438095Y-153236380D01*
X76342857Y-153188761D01*
X76295238Y-153141142D01*
X75866666Y-141412571D02*
X75533333Y-141412571D01*
X75533333Y-141936380D02*
X75533333Y-140936380D01*
X76009523Y-140936380D01*
X76342857Y-141031619D02*
X76390476Y-140984000D01*
X76485714Y-140936380D01*
X76723809Y-140936380D01*
X76819047Y-140984000D01*
X76866666Y-141031619D01*
X76914285Y-141126857D01*
X76914285Y-141222095D01*
X76866666Y-141364952D01*
X76295238Y-141936380D01*
X76914285Y-141936380D01*
X75866666Y-175312571D02*
X75533333Y-175312571D01*
X75533333Y-175836380D02*
X75533333Y-174836380D01*
X76009523Y-174836380D01*
X76866666Y-174836380D02*
X76390476Y-174836380D01*
X76342857Y-175312571D01*
X76390476Y-175264952D01*
X76485714Y-175217333D01*
X76723809Y-175217333D01*
X76819047Y-175264952D01*
X76866666Y-175312571D01*
X76914285Y-175407809D01*
X76914285Y-175645904D01*
X76866666Y-175741142D01*
X76819047Y-175788761D01*
X76723809Y-175836380D01*
X76485714Y-175836380D01*
X76390476Y-175788761D01*
X76342857Y-175741142D01*
D12*
X119532000Y-126479000D02*
X119532000Y-169679000D01*
X87732000Y-126479000D02*
X119532000Y-126479000D01*
X119532000Y-169679000D02*
X87732000Y-169679000D01*
X87732000Y-169679000D02*
X87732000Y-126479000D01*
D13*
X86296500Y-162433000D02*
X86296500Y-155321000D01*
X66103500Y-162433000D02*
X86296500Y-162433000D01*
X86296500Y-155321000D02*
X66103500Y-155321000D01*
X66103500Y-155321000D02*
X66103500Y-162433000D01*
X86296500Y-151133000D02*
X86296500Y-144021000D01*
X66103500Y-151133000D02*
X86296500Y-151133000D01*
X86296500Y-144021000D02*
X66103500Y-144021000D01*
X66103500Y-144021000D02*
X66103500Y-151133000D01*
X86296500Y-139833000D02*
X86296500Y-132721000D01*
X66103500Y-139833000D02*
X86296500Y-139833000D01*
X86296500Y-132721000D02*
X66103500Y-132721000D01*
X66103500Y-132721000D02*
X66103500Y-139833000D01*
X86296500Y-173733000D02*
X86296500Y-166621000D01*
X66103500Y-173733000D02*
X86296500Y-173733000D01*
X86296500Y-166621000D02*
X66103500Y-166621000D01*
X66103500Y-166621000D02*
X66103500Y-173733000D01*
X67032000Y-127200000D02*
X67032000Y-124050000D01*
X51332000Y-129750000D02*
X64182000Y-129750000D01*
X64182000Y-129750000D02*
X67032000Y-127200000D01*
X51332000Y-121450000D02*
X51332000Y-129750000D01*
X67032000Y-124050000D02*
X64182000Y-121450000D01*
X64182000Y-121450000D02*
X51332000Y-121450000D01*
X82231000Y-97088000D02*
X112831000Y-97088000D01*
X112831000Y-97088000D02*
X112831000Y-94428000D01*
X82231000Y-94428000D02*
X112831000Y-94428000D01*
X82231000Y-97088000D02*
X82231000Y-94428000D01*
D12*
X51241000Y-132197000D02*
X62741000Y-132197000D01*
X54091000Y-140607000D02*
X51241000Y-140607000D01*
X62741000Y-132197000D02*
X62741000Y-140607000D01*
X62741000Y-140607000D02*
X56391000Y-140607000D01*
X51241000Y-140607000D02*
X51241000Y-132197000D01*
X51241000Y-154797000D02*
X62741000Y-154797000D01*
X51241000Y-163207000D02*
X51241000Y-154797000D01*
X62741000Y-163207000D02*
X56391000Y-163207000D01*
X54091000Y-163207000D02*
X51241000Y-163207000D01*
X62741000Y-154797000D02*
X62741000Y-163207000D01*
D13*
X57067600Y-114265000D02*
X57067600Y-113285000D01*
X55837600Y-111785000D02*
X47997600Y-111785000D01*
X57067600Y-118605000D02*
X57067600Y-116075000D01*
X46897600Y-116075000D02*
X46767600Y-116075000D01*
X55837600Y-113285000D02*
X55837600Y-111785000D01*
X57067600Y-113285000D02*
X55837600Y-113285000D01*
X57067600Y-116075000D02*
X56937600Y-116075000D01*
X46767600Y-113285000D02*
X46767600Y-114265000D01*
X46897600Y-114265000D02*
X46897600Y-116075000D01*
X46767600Y-116075000D02*
X46767600Y-118605000D01*
X46767600Y-114265000D02*
X46897600Y-114265000D01*
X46767600Y-118605000D02*
X57067600Y-118605000D01*
X56937600Y-114265000D02*
X57067600Y-114265000D01*
X56937600Y-116075000D02*
X56937600Y-114265000D01*
X47997600Y-111785000D02*
X47997600Y-113285000D01*
X47997600Y-113285000D02*
X46767600Y-113285000D01*
X57067600Y-98075000D02*
X56937600Y-98075000D01*
X55837600Y-93785000D02*
X47997600Y-93785000D01*
X46767600Y-100605000D02*
X57067600Y-100605000D01*
X46767600Y-96265000D02*
X46897600Y-96265000D01*
X46897600Y-98075000D02*
X46767600Y-98075000D01*
X46897600Y-96265000D02*
X46897600Y-98075000D01*
X57067600Y-100605000D02*
X57067600Y-98075000D01*
X57067600Y-95285000D02*
X55837600Y-95285000D01*
X55837600Y-95285000D02*
X55837600Y-93785000D01*
X57067600Y-96265000D02*
X57067600Y-95285000D01*
X47997600Y-93785000D02*
X47997600Y-95285000D01*
X46767600Y-98075000D02*
X46767600Y-100605000D01*
X56937600Y-98075000D02*
X56937600Y-96265000D01*
X46767600Y-95285000D02*
X46767600Y-96265000D01*
X56937600Y-96265000D02*
X57067600Y-96265000D01*
X47997600Y-95285000D02*
X46767600Y-95285000D01*
D12*
X51241000Y-174507000D02*
X51241000Y-166097000D01*
X54091000Y-174507000D02*
X51241000Y-174507000D01*
X62741000Y-174507000D02*
X56391000Y-174507000D01*
X51241000Y-166097000D02*
X62741000Y-166097000D01*
X62741000Y-166097000D02*
X62741000Y-174507000D01*
G36*
X104754114Y-131634106D02*
G01*
X104776891Y-131641131D01*
X104810492Y-131652913D01*
X104852205Y-131668461D01*
X104899323Y-131686787D01*
X104949134Y-131706901D01*
X104960057Y-131711415D01*
X104999507Y-131728311D01*
X105025425Y-131741105D01*
X105040790Y-131751735D01*
X105048583Y-131762139D01*
X105051198Y-131770672D01*
X105052692Y-131782633D01*
X105055772Y-131810841D01*
X105060311Y-131854045D01*
X105066182Y-131910990D01*
X105073258Y-131980424D01*
X105081413Y-132061094D01*
X105090521Y-132151747D01*
X105100454Y-132251131D01*
X105111087Y-132357993D01*
X105122293Y-132471079D01*
X105133945Y-132589137D01*
X105136817Y-132618307D01*
X105217938Y-133442643D01*
X105253714Y-133451658D01*
X105402405Y-133498015D01*
X105543737Y-133560308D01*
X105677778Y-133638577D01*
X105804594Y-133732860D01*
X105914167Y-133833001D01*
X106022606Y-133953353D01*
X106115624Y-134081428D01*
X106192896Y-134216659D01*
X106254094Y-134358483D01*
X106295825Y-134493921D01*
X106304896Y-134529905D01*
X106456591Y-134545569D01*
X106511185Y-134551225D01*
X106578201Y-134558196D01*
X106652573Y-134565954D01*
X106729235Y-134573969D01*
X106803123Y-134581714D01*
X106828085Y-134584336D01*
X107047884Y-134607438D01*
X107055024Y-134677755D01*
X107056496Y-134701581D01*
X107057516Y-134737506D01*
X107058113Y-134782671D01*
X107058315Y-134834214D01*
X107058151Y-134889277D01*
X107057651Y-134944999D01*
X107056843Y-134998519D01*
X107055756Y-135046977D01*
X107054419Y-135087514D01*
X107052861Y-135117270D01*
X107051110Y-135133383D01*
X107050404Y-135135330D01*
X107041289Y-135136868D01*
X107016561Y-135139980D01*
X106978101Y-135144455D01*
X106927790Y-135150084D01*
X106867509Y-135156657D01*
X106799138Y-135163966D01*
X106724558Y-135171801D01*
X106700350Y-135174316D01*
X106622943Y-135182419D01*
X106550070Y-135190200D01*
X106483804Y-135197428D01*
X106426220Y-135203870D01*
X106379391Y-135209292D01*
X106345391Y-135213463D01*
X106326293Y-135216148D01*
X106324093Y-135216559D01*
X106311304Y-135220047D01*
X106301531Y-135226120D01*
X106292952Y-135237801D01*
X106283743Y-135258112D01*
X106272083Y-135290076D01*
X106261978Y-135319550D01*
X106203230Y-135465443D01*
X106129447Y-135602983D01*
X106041544Y-135731216D01*
X105940437Y-135849187D01*
X105827043Y-135955941D01*
X105702278Y-136050525D01*
X105567058Y-136131982D01*
X105422300Y-136199360D01*
X105414662Y-136202408D01*
X105371748Y-136218222D01*
X105324603Y-136233803D01*
X105283367Y-136245803D01*
X105283031Y-136245890D01*
X105219652Y-136262352D01*
X105130818Y-137120963D01*
X105118213Y-137242084D01*
X105105980Y-137358270D01*
X105094251Y-137468326D01*
X105083161Y-137571054D01*
X105072843Y-137665259D01*
X105063432Y-137749745D01*
X105055062Y-137823316D01*
X105047865Y-137884775D01*
X105041977Y-137932927D01*
X105037531Y-137966575D01*
X105034660Y-137984524D01*
X105033858Y-137987237D01*
X105021451Y-137994355D01*
X104996012Y-138005918D01*
X104961104Y-138020556D01*
X104920288Y-138036894D01*
X104877124Y-138053560D01*
X104835176Y-138069180D01*
X104798004Y-138082383D01*
X104769170Y-138091795D01*
X104752236Y-138096043D01*
X104751370Y-138096129D01*
X104727159Y-138097813D01*
X104707397Y-137913181D01*
X104750892Y-137794490D01*
X104785995Y-137697241D01*
X104814840Y-137613316D01*
X104838019Y-137539844D01*
X104856124Y-137473953D01*
X104869750Y-137412773D01*
X104879487Y-137353433D01*
X104885928Y-137293061D01*
X104889666Y-137228788D01*
X104891293Y-137157741D01*
X104891503Y-137113112D01*
X104890752Y-137035343D01*
X104888095Y-136966003D01*
X104882926Y-136902183D01*
X104874639Y-136840976D01*
X104862626Y-136779472D01*
X104846283Y-136714763D01*
X104825003Y-136643941D01*
X104798179Y-136564098D01*
X104765206Y-136472324D01*
X104748565Y-136427338D01*
X104705688Y-136295764D01*
X104677645Y-136170060D01*
X104664025Y-136047339D01*
X104664413Y-135924716D01*
X104668852Y-135870647D01*
X104676384Y-135811207D01*
X104686617Y-135754551D01*
X104700583Y-135696793D01*
X104719311Y-135634048D01*
X104743834Y-135562429D01*
X104768055Y-135496826D01*
X104804912Y-135395557D01*
X104834140Y-135305841D01*
X104856502Y-135223778D01*
X104872756Y-135145467D01*
X104883665Y-135067008D01*
X104889987Y-134984498D01*
X104892484Y-134894039D01*
X104892591Y-134857972D01*
X104891001Y-134768976D01*
X104886183Y-134688728D01*
X104877388Y-134613500D01*
X104863869Y-134539565D01*
X104844877Y-134463197D01*
X104819663Y-134380668D01*
X104787479Y-134288251D01*
X104767247Y-134233742D01*
X104744629Y-134171357D01*
X104723709Y-134109100D01*
X104705903Y-134051471D01*
X104692631Y-134002971D01*
X104687582Y-133980866D01*
X104676488Y-133911202D01*
X104668875Y-133832142D01*
X104665056Y-133750303D01*
X104665342Y-133672305D01*
X104669900Y-133606038D01*
X104676936Y-133555558D01*
X104686854Y-133505016D01*
X104700560Y-133451154D01*
X104718961Y-133390715D01*
X104742962Y-133320442D01*
X104769784Y-133246946D01*
X104804269Y-133151801D01*
X104831829Y-133068833D01*
X104853185Y-132994382D01*
X104869055Y-132924790D01*
X104880158Y-132856397D01*
X104887213Y-132785544D01*
X104890940Y-132708572D01*
X104892055Y-132624812D01*
X104890776Y-132529407D01*
X104886158Y-132444715D01*
X104877408Y-132366538D01*
X104863733Y-132290676D01*
X104844339Y-132212928D01*
X104818434Y-132129095D01*
X104785225Y-132034978D01*
X104775945Y-132010033D01*
X104721985Y-131866158D01*
X104732245Y-131750936D01*
X104736221Y-131707987D01*
X104739853Y-131671854D01*
X104742782Y-131645881D01*
X104744652Y-131633410D01*
X104744869Y-131632828D01*
X104754114Y-131634106D01*
G37*
G36*
X104079238Y-131565174D02*
G01*
X104163657Y-131585099D01*
X104218933Y-131608214D01*
X104293033Y-131655498D01*
X104358341Y-131716679D01*
X104414078Y-131790002D01*
X104459466Y-131873711D01*
X104493725Y-131966052D01*
X104516077Y-132065269D01*
X104525744Y-132169607D01*
X104521947Y-132277312D01*
X104520759Y-132288531D01*
X104502895Y-132394840D01*
X104474392Y-132488106D01*
X104434644Y-132569728D01*
X104383042Y-132641106D01*
X104354188Y-132671841D01*
X104304790Y-132720429D01*
X104230542Y-132634508D01*
X104202474Y-132601633D01*
X104178893Y-132573265D01*
X104162057Y-132552177D01*
X104154226Y-132541142D01*
X104153973Y-132540542D01*
X104159154Y-132531213D01*
X104174934Y-132516851D01*
X104184786Y-132509593D01*
X104219618Y-132477650D01*
X104253305Y-132432132D01*
X104283115Y-132376977D01*
X104293307Y-132353186D01*
X104304399Y-132312687D01*
X104311519Y-132260446D01*
X104314605Y-132201867D01*
X104313594Y-132142351D01*
X104308424Y-132087303D01*
X104299032Y-132042124D01*
X104296989Y-132035750D01*
X104267209Y-131963289D01*
X104232124Y-131905937D01*
X104190038Y-131861595D01*
X104139260Y-131828162D01*
X104123404Y-131820538D01*
X104095504Y-131808844D01*
X104071985Y-131801979D01*
X104046705Y-131799001D01*
X104013522Y-131798967D01*
X103988914Y-131799894D01*
X103946903Y-131802520D01*
X103916824Y-131806885D01*
X103893032Y-131814266D01*
X103869881Y-131825937D01*
X103867503Y-131827319D01*
X103835959Y-131848825D01*
X103807388Y-131875445D01*
X103780747Y-131909012D01*
X103754991Y-131951362D01*
X103729078Y-132004327D01*
X103701962Y-132069743D01*
X103672600Y-132149443D01*
X103654694Y-132201273D01*
X103630096Y-132273369D01*
X103609925Y-132331261D01*
X103593149Y-132377462D01*
X103578737Y-132414482D01*
X103565659Y-132444835D01*
X103552882Y-132471030D01*
X103539377Y-132495582D01*
X103524111Y-132521000D01*
X103522108Y-132524234D01*
X103470574Y-132593901D01*
X103409961Y-132652987D01*
X103343061Y-132699216D01*
X103272664Y-132730312D01*
X103267418Y-132731941D01*
X103213076Y-132743354D01*
X103148141Y-132749252D01*
X103078718Y-132749641D01*
X103010907Y-132744525D01*
X102950813Y-132733912D01*
X102942034Y-132731625D01*
X102906867Y-132721944D01*
X102905385Y-132585808D01*
X102903904Y-132449671D01*
X102936157Y-132470383D01*
X102975609Y-132491764D01*
X103016165Y-132504391D01*
X103063326Y-132509463D01*
X103112322Y-132508749D01*
X103159713Y-132504284D01*
X103200890Y-132495055D01*
X103237035Y-132479628D01*
X103269332Y-132456569D01*
X103298962Y-132424443D01*
X103327108Y-132381815D01*
X103354953Y-132327252D01*
X103383678Y-132259320D01*
X103414466Y-132176584D01*
X103435117Y-132117202D01*
X103468992Y-132020721D01*
X103499759Y-131939462D01*
X103528342Y-131871534D01*
X103555666Y-131815043D01*
X103582657Y-131768097D01*
X103610240Y-131728804D01*
X103639340Y-131695271D01*
X103643375Y-131691142D01*
X103704170Y-131638214D01*
X103768627Y-131599655D01*
X103839620Y-131574346D01*
X103920020Y-131561170D01*
X103983883Y-131558566D01*
X104079238Y-131565174D01*
G37*
G36*
X102322222Y-131708747D02*
G01*
X102329355Y-131718541D01*
X102337073Y-131740243D01*
X102346279Y-131774942D01*
X102355610Y-131808128D01*
X102369802Y-131853014D01*
X102387297Y-131904929D01*
X102406538Y-131959202D01*
X102418165Y-131990665D01*
X102438142Y-132045390D01*
X102457688Y-132101753D01*
X102475110Y-132154682D01*
X102488718Y-132199103D01*
X102493953Y-132218028D01*
X102521577Y-132352582D01*
X102537508Y-132495879D01*
X102541649Y-132643441D01*
X102533900Y-132790791D01*
X102514162Y-132933450D01*
X102510222Y-132953868D01*
X102506010Y-132973992D01*
X102501312Y-132994004D01*
X102495503Y-133015845D01*
X102487962Y-133041454D01*
X102478066Y-133072772D01*
X102465191Y-133111740D01*
X102448715Y-133160297D01*
X102428014Y-133220384D01*
X102402467Y-133293942D01*
X102384411Y-133345753D01*
X102351153Y-133452442D01*
X102328928Y-133551946D01*
X102316722Y-133649887D01*
X102313460Y-133738558D01*
X102315389Y-133816145D01*
X102321788Y-133889281D01*
X102333438Y-133961669D01*
X102351122Y-134037014D01*
X102375621Y-134119019D01*
X102407714Y-134211387D01*
X102420376Y-134245494D01*
X102461278Y-134360988D01*
X102492811Y-134466440D01*
X102515812Y-134566127D01*
X102531117Y-134664324D01*
X102539564Y-134765309D01*
X102542000Y-134866764D01*
X102539264Y-134973971D01*
X102530498Y-135074373D01*
X102514868Y-135172232D01*
X102491539Y-135271809D01*
X102459675Y-135377366D01*
X102420174Y-135488572D01*
X102384877Y-135586528D01*
X102357540Y-135672780D01*
X102337492Y-135750947D01*
X102324062Y-135824648D01*
X102316582Y-135897499D01*
X102314380Y-135973119D01*
X102316462Y-136048666D01*
X102321380Y-136119074D01*
X102329479Y-136183402D01*
X102341775Y-136246209D01*
X102359288Y-136312054D01*
X102383036Y-136385494D01*
X102406055Y-136449662D01*
X102440169Y-136543596D01*
X102467905Y-136624630D01*
X102489900Y-136695991D01*
X102506790Y-136760905D01*
X102519212Y-136822597D01*
X102527801Y-136884293D01*
X102533195Y-136949219D01*
X102536030Y-137020600D01*
X102536941Y-137101661D01*
X102536952Y-137113112D01*
X102536239Y-137195854D01*
X102533673Y-137268466D01*
X102528617Y-137334189D01*
X102520433Y-137396260D01*
X102508481Y-137457919D01*
X102492124Y-137522406D01*
X102470724Y-137592958D01*
X102443641Y-137672817D01*
X102410238Y-137765220D01*
X102406386Y-137775651D01*
X102388061Y-137826687D01*
X102370894Y-137877189D01*
X102356372Y-137922590D01*
X102345982Y-137958323D01*
X102342923Y-137970596D01*
X102329390Y-138030520D01*
X102262054Y-138001671D01*
X102196764Y-137972512D01*
X102127166Y-137938970D01*
X102049749Y-137899299D01*
X101963363Y-137853036D01*
X101921738Y-137829931D01*
X101893623Y-137812977D01*
X101876783Y-137800489D01*
X101868985Y-137790785D01*
X101867996Y-137782180D01*
X101868189Y-137781302D01*
X101872405Y-137767372D01*
X101881334Y-137740003D01*
X101893921Y-137702365D01*
X101909108Y-137657629D01*
X101920974Y-137623046D01*
X101945481Y-137549330D01*
X101964535Y-137484710D01*
X101978785Y-137425047D01*
X101988878Y-137366203D01*
X101995462Y-137304041D01*
X101999186Y-137234423D01*
X102000697Y-137153209D01*
X102000827Y-137113112D01*
X102000686Y-137051205D01*
X101999955Y-136997170D01*
X101998176Y-136948900D01*
X101994888Y-136904282D01*
X101989634Y-136861207D01*
X101981952Y-136817565D01*
X101971384Y-136771246D01*
X101957471Y-136720139D01*
X101939753Y-136662134D01*
X101917770Y-136595122D01*
X101891064Y-136516991D01*
X101859175Y-136425633D01*
X101838138Y-136365795D01*
X101810555Y-136277728D01*
X101791913Y-136193382D01*
X101781156Y-136106310D01*
X101777230Y-136010064D01*
X101777165Y-135993182D01*
X101778180Y-135924042D01*
X101781633Y-135862492D01*
X101788262Y-135805004D01*
X101798805Y-135748048D01*
X101813999Y-135688095D01*
X101834582Y-135621617D01*
X101861291Y-135545085D01*
X101883190Y-135485870D01*
X101916070Y-135395989D01*
X101942246Y-135318197D01*
X101962532Y-135248691D01*
X101977746Y-135183665D01*
X101988704Y-135119315D01*
X101996221Y-135051837D01*
X102001115Y-134977426D01*
X102003172Y-134926660D01*
X102004531Y-134817253D01*
X102000354Y-134717506D01*
X101989896Y-134623116D01*
X101972408Y-134529782D01*
X101947144Y-134433201D01*
X101913355Y-134329069D01*
X101886655Y-134255794D01*
X101857195Y-134176391D01*
X101833863Y-134109764D01*
X101815917Y-134052503D01*
X101802617Y-134001197D01*
X101793222Y-133952435D01*
X101786991Y-133902808D01*
X101783184Y-133848904D01*
X101781059Y-133787312D01*
X101780656Y-133767768D01*
X101779962Y-133693716D01*
X101781009Y-133634081D01*
X101783932Y-133585772D01*
X101788864Y-133545694D01*
X101790761Y-133534781D01*
X101798971Y-133498725D01*
X101811705Y-133452175D01*
X101827240Y-133401074D01*
X101843856Y-133351362D01*
X101844284Y-133350149D01*
X101878911Y-133251866D01*
X101908025Y-133167879D01*
X101932103Y-133095953D01*
X101951622Y-133033850D01*
X101967060Y-132979336D01*
X101978893Y-132930173D01*
X101987599Y-132884127D01*
X101993654Y-132838961D01*
X101997535Y-132792438D01*
X101999721Y-132742324D01*
X102000686Y-132686381D01*
X102000910Y-132622374D01*
X102000910Y-132616020D01*
X101999937Y-132524464D01*
X101996591Y-132446165D01*
X101990186Y-132376875D01*
X101980034Y-132312348D01*
X101965449Y-132248336D01*
X101945743Y-132180594D01*
X101920229Y-132104874D01*
X101916531Y-132094452D01*
X101900610Y-132049385D01*
X101886645Y-132009118D01*
X101875801Y-131977066D01*
X101869242Y-131956643D01*
X101868016Y-131952226D01*
X101868621Y-131943218D01*
X101876213Y-131933220D01*
X101893089Y-131920432D01*
X101921547Y-131903054D01*
X101954588Y-131884420D01*
X101987493Y-131866748D01*
X102029546Y-131844987D01*
X102077600Y-131820677D01*
X102128511Y-131795360D01*
X102179130Y-131770578D01*
X102226314Y-131747874D01*
X102266915Y-131728787D01*
X102297787Y-131714861D01*
X102314363Y-131708114D01*
X102322222Y-131708747D01*
G37*
G36*
X104476233Y-133336209D02*
G01*
X103836617Y-133339287D01*
X103709184Y-133339902D01*
X103597995Y-133340510D01*
X103501709Y-133341222D01*
X103418989Y-133342147D01*
X103348493Y-133343395D01*
X103288883Y-133345076D01*
X103238818Y-133347299D01*
X103196959Y-133350175D01*
X103161967Y-133353813D01*
X103132501Y-133358323D01*
X103107222Y-133363815D01*
X103084791Y-133370399D01*
X103063867Y-133378184D01*
X103043112Y-133387281D01*
X103021185Y-133397799D01*
X103000925Y-133407790D01*
X102926589Y-133453419D01*
X102864763Y-133510298D01*
X102816541Y-133577056D01*
X102783019Y-133652318D01*
X102771485Y-133695667D01*
X102765557Y-133738686D01*
X102762544Y-133792221D01*
X102762468Y-133849444D01*
X102765354Y-133903525D01*
X102770638Y-133944605D01*
X102793830Y-134022421D01*
X102832511Y-134092998D01*
X102885761Y-134155413D01*
X102952660Y-134208746D01*
X103032286Y-134252076D01*
X103104748Y-134278985D01*
X103117344Y-134282764D01*
X103129507Y-134286043D01*
X103142536Y-134288864D01*
X103157729Y-134291267D01*
X103176383Y-134293294D01*
X103199795Y-134294987D01*
X103229263Y-134296387D01*
X103266085Y-134297536D01*
X103311557Y-134298475D01*
X103366979Y-134299246D01*
X103433646Y-134299889D01*
X103512858Y-134300447D01*
X103605910Y-134300962D01*
X103714101Y-134301473D01*
X103823429Y-134301957D01*
X104476233Y-134304817D01*
X104476233Y-134532669D01*
X103878033Y-134532669D01*
X103739762Y-134532560D01*
X103617753Y-134532153D01*
X103510685Y-134531333D01*
X103417238Y-134529981D01*
X103336091Y-134527982D01*
X103265921Y-134525217D01*
X103205410Y-134521569D01*
X103153235Y-134516922D01*
X103108076Y-134511158D01*
X103068612Y-134504160D01*
X103033522Y-134495811D01*
X103001486Y-134485995D01*
X102971181Y-134474593D01*
X102941288Y-134461489D01*
X102911263Y-134446954D01*
X102845323Y-134413977D01*
X102811482Y-134321662D01*
X102780060Y-134235134D01*
X102754523Y-134162878D01*
X102734205Y-134102846D01*
X102718441Y-134052991D01*
X102706565Y-134011266D01*
X102697914Y-133975624D01*
X102695803Y-133965587D01*
X102688670Y-133919228D01*
X102683130Y-133861379D01*
X102679371Y-133797313D01*
X102677580Y-133732301D01*
X102677944Y-133671615D01*
X102680652Y-133620527D01*
X102682827Y-133601054D01*
X102692340Y-133540439D01*
X102703367Y-133486712D01*
X102717712Y-133432170D01*
X102737025Y-133369582D01*
X102764879Y-133283512D01*
X102822685Y-133245221D01*
X102897449Y-133202036D01*
X102980002Y-133167130D01*
X103063042Y-133141563D01*
X103076875Y-133137988D01*
X103090466Y-133134879D01*
X103105109Y-133132196D01*
X103122094Y-133129902D01*
X103142714Y-133127957D01*
X103168260Y-133126324D01*
X103200024Y-133124963D01*
X103239298Y-133123837D01*
X103287373Y-133122906D01*
X103345542Y-133122132D01*
X103415095Y-133121476D01*
X103497326Y-133120900D01*
X103593524Y-133120365D01*
X103704983Y-133119833D01*
X103805845Y-133119384D01*
X104476233Y-133116440D01*
X104476233Y-133336209D01*
G37*
G36*
X102796660Y-137739762D02*
G01*
X102796967Y-137742450D01*
X102801439Y-137758392D01*
X102813397Y-137785028D01*
X102830653Y-137818370D01*
X102851021Y-137854428D01*
X102872311Y-137889213D01*
X102892338Y-137918735D01*
X102897166Y-137925185D01*
X102924119Y-137957775D01*
X102954636Y-137991130D01*
X102976028Y-138012272D01*
X102997186Y-138032493D01*
X103011915Y-138047946D01*
X103016766Y-138054737D01*
X103011407Y-138062981D01*
X102996832Y-138081733D01*
X102975294Y-138108172D01*
X102950146Y-138138178D01*
X102919383Y-138172920D01*
X102895138Y-138197179D01*
X102878878Y-138209573D01*
X102873216Y-138210574D01*
X102846642Y-138191326D01*
X102813660Y-138162403D01*
X102778681Y-138127992D01*
X102746116Y-138092281D01*
X102736748Y-138081044D01*
X102715962Y-138054930D01*
X102700438Y-138034480D01*
X102692741Y-138023108D01*
X102692347Y-138021957D01*
X102694663Y-138012128D01*
X102699380Y-137991542D01*
X102701203Y-137983517D01*
X102708456Y-137955858D01*
X102719174Y-137920327D01*
X102732150Y-137880345D01*
X102746181Y-137839329D01*
X102760062Y-137800700D01*
X102772588Y-137767876D01*
X102782555Y-137744277D01*
X102788759Y-137733320D01*
X102789479Y-137732946D01*
X102796660Y-137739762D01*
G37*
G36*
X100611614Y-133260478D02*
G01*
X100604985Y-133282477D01*
X100594513Y-133314347D01*
X100581497Y-133352067D01*
X100555913Y-133430478D01*
X100537660Y-133501737D01*
X100525752Y-133571806D01*
X100519201Y-133646644D01*
X100517019Y-133732213D01*
X100517003Y-133741392D01*
X100517298Y-133792842D01*
X100518534Y-133838257D01*
X100521233Y-133879906D01*
X100525918Y-133920060D01*
X100533112Y-133960991D01*
X100543339Y-134004970D01*
X100557120Y-134054266D01*
X100574980Y-134111152D01*
X100597440Y-134177898D01*
X100625025Y-134256775D01*
X100655238Y-134341615D01*
X100679339Y-134411787D01*
X100698073Y-134474003D01*
X100712177Y-134532519D01*
X100722388Y-134591595D01*
X100729443Y-134655489D01*
X100734079Y-134728459D01*
X100737015Y-134814012D01*
X100738356Y-134907924D01*
X100736888Y-134990576D01*
X100731975Y-135065606D01*
X100722975Y-135136653D01*
X100709249Y-135207356D01*
X100690159Y-135281353D01*
X100665065Y-135362283D01*
X100633328Y-135453786D01*
X100616487Y-135499980D01*
X100596053Y-135557547D01*
X100576592Y-135616279D01*
X100559500Y-135671671D01*
X100546173Y-135719219D01*
X100538583Y-135751416D01*
X100518272Y-135894690D01*
X100514980Y-136035197D01*
X100528818Y-136174332D01*
X100559896Y-136313491D01*
X100590532Y-136407747D01*
X100601893Y-136440060D01*
X100609992Y-136465412D01*
X100613599Y-136479845D01*
X100613512Y-136481672D01*
X100608930Y-136475218D01*
X100598209Y-136455493D01*
X100582709Y-136425129D01*
X100563786Y-136386762D01*
X100552213Y-136362788D01*
X100452047Y-136133989D01*
X100368946Y-135901440D01*
X100302985Y-135665513D01*
X100254240Y-135426579D01*
X100222785Y-135185008D01*
X100208696Y-134941172D01*
X100212048Y-134695442D01*
X100212497Y-134686529D01*
X100231521Y-134466294D01*
X100265538Y-134243948D01*
X100313723Y-134023187D01*
X100375251Y-133807705D01*
X100449296Y-133601197D01*
X100461956Y-133569948D01*
X100476104Y-133536744D01*
X100493921Y-133496650D01*
X100514109Y-133452395D01*
X100535369Y-133406712D01*
X100556403Y-133362329D01*
X100575912Y-133321978D01*
X100592597Y-133288387D01*
X100605160Y-133264288D01*
X100612301Y-133252411D01*
X100613342Y-133251686D01*
X100611614Y-133260478D01*
G37*
G36*
X104476233Y-135326793D02*
G01*
X104476086Y-135420140D01*
X104475598Y-135497897D01*
X104474705Y-135562056D01*
X104473338Y-135614611D01*
X104471430Y-135657552D01*
X104468916Y-135692873D01*
X104465727Y-135722565D01*
X104462144Y-135746610D01*
X104437659Y-135850959D01*
X104401926Y-135941896D01*
X104354850Y-136019597D01*
X104296340Y-136084240D01*
X104278063Y-136099889D01*
X104222269Y-136138189D01*
X104163321Y-136163887D01*
X104096352Y-136178781D01*
X104052623Y-136183132D01*
X103959396Y-136181736D01*
X103874766Y-136165056D01*
X103799088Y-136133314D01*
X103732719Y-136086732D01*
X103676013Y-136025531D01*
X103629327Y-135949932D01*
X103610224Y-135907717D01*
X103590432Y-135859019D01*
X103576194Y-135922067D01*
X103548628Y-136005898D01*
X103506468Y-136081759D01*
X103451413Y-136147922D01*
X103385165Y-136202662D01*
X103309422Y-136244253D01*
X103234458Y-136269034D01*
X103155331Y-136280257D01*
X103071849Y-136278929D01*
X102989608Y-136265663D01*
X102914204Y-136241072D01*
X102894118Y-136231761D01*
X102847511Y-136202168D01*
X102799268Y-136160822D01*
X102754056Y-136112383D01*
X102716544Y-136061514D01*
X102706123Y-136044043D01*
X102691524Y-136016272D01*
X102681841Y-135992121D01*
X102676613Y-135967467D01*
X102675379Y-135938184D01*
X102677678Y-135900148D01*
X102683049Y-135849235D01*
X102683706Y-135843542D01*
X102696222Y-135768571D01*
X102717137Y-135683255D01*
X102745270Y-135591992D01*
X102768534Y-135527169D01*
X102803194Y-135436008D01*
X102808214Y-135575598D01*
X102813744Y-135666191D01*
X102823802Y-135742351D01*
X102839242Y-135806843D01*
X102860916Y-135862431D01*
X102889679Y-135911879D01*
X102926250Y-135957802D01*
X102973541Y-135997588D01*
X103030455Y-136025119D01*
X103093724Y-136040104D01*
X103160084Y-136042250D01*
X103226269Y-136031265D01*
X103289015Y-136006859D01*
X103313745Y-135992413D01*
X103349155Y-135966858D01*
X103376449Y-135940117D01*
X103400125Y-135906936D01*
X103423846Y-135863703D01*
X103437842Y-135833135D01*
X103449079Y-135800953D01*
X103457832Y-135764876D01*
X103464375Y-135722619D01*
X103468984Y-135671901D01*
X103471932Y-135610438D01*
X103473496Y-135535947D01*
X103473949Y-135447405D01*
X103473949Y-135209651D01*
X102874045Y-135209651D01*
X102874096Y-135209412D01*
X103683288Y-135209412D01*
X103687000Y-135449112D01*
X103688237Y-135521932D01*
X103689558Y-135579632D01*
X103691152Y-135624678D01*
X103693207Y-135659535D01*
X103695912Y-135686667D01*
X103699454Y-135708539D01*
X103704021Y-135727616D01*
X103709669Y-135745961D01*
X103739896Y-135814270D01*
X103780558Y-135868430D01*
X103831642Y-135908430D01*
X103893135Y-135934260D01*
X103958504Y-135945470D01*
X104031875Y-135944012D01*
X104095686Y-135927871D01*
X104149806Y-135897115D01*
X104194101Y-135851812D01*
X104220616Y-135808687D01*
X104234560Y-135778925D01*
X104245596Y-135749510D01*
X104254056Y-135717900D01*
X104260269Y-135681550D01*
X104264565Y-135637916D01*
X104267274Y-135584454D01*
X104268727Y-135518620D01*
X104269254Y-135437870D01*
X104269261Y-135433846D01*
X104269622Y-135214047D01*
X103976455Y-135211729D01*
X103683288Y-135209412D01*
X102874096Y-135209412D01*
X102879248Y-135185473D01*
X102882586Y-135166301D01*
X102887223Y-135134937D01*
X102892400Y-135096652D01*
X102895077Y-135075573D01*
X102905702Y-134989851D01*
X104476233Y-134989851D01*
X104476233Y-135326793D01*
G37*
G36*
X103634045Y-136558106D02*
G01*
X103760010Y-136575981D01*
X103882566Y-136608519D01*
X103989275Y-136651007D01*
X104098726Y-136711835D01*
X104199132Y-136786912D01*
X104288815Y-136874571D01*
X104366102Y-136973146D01*
X104429317Y-137080973D01*
X104436406Y-137095568D01*
X104477456Y-137198954D01*
X104505694Y-137307278D01*
X104521445Y-137418487D01*
X104525034Y-137530530D01*
X104516787Y-137641352D01*
X104497030Y-137748903D01*
X104466087Y-137851129D01*
X104424285Y-137945979D01*
X104371947Y-138031398D01*
X104309401Y-138105336D01*
X104270774Y-138140358D01*
X104231869Y-138172238D01*
X104165024Y-138080064D01*
X104140004Y-138045132D01*
X104119248Y-138015328D01*
X104104702Y-137993510D01*
X104098313Y-137982536D01*
X104098178Y-137981973D01*
X104103927Y-137973554D01*
X104119419Y-137955602D01*
X104142029Y-137931082D01*
X104159634Y-137912677D01*
X104220277Y-137838143D01*
X104266172Y-137756164D01*
X104297566Y-137668480D01*
X104314704Y-137576832D01*
X104317833Y-137482962D01*
X104307197Y-137388610D01*
X104283043Y-137295517D01*
X104245617Y-137205424D01*
X104195164Y-137120072D01*
X104131931Y-137041203D01*
X104056163Y-136970558D01*
X104023055Y-136945458D01*
X103960991Y-136906468D01*
X103888837Y-136869647D01*
X103814041Y-136838468D01*
X103748995Y-136817672D01*
X103679935Y-136804155D01*
X103600860Y-136796149D01*
X103518536Y-136793904D01*
X103439727Y-136797671D01*
X103388711Y-136804291D01*
X103270557Y-136832908D01*
X103162729Y-136875713D01*
X103065045Y-136932793D01*
X102977346Y-137004219D01*
X102950184Y-137029709D01*
X102928042Y-137049903D01*
X102913797Y-137062210D01*
X102910113Y-137064756D01*
X102907958Y-137056752D01*
X102905803Y-137035877D01*
X102904270Y-137009806D01*
X102902075Y-136975546D01*
X102898359Y-136934416D01*
X102893693Y-136891333D01*
X102888650Y-136851217D01*
X102883803Y-136818987D01*
X102879859Y-136800012D01*
X102884389Y-136785922D01*
X102904525Y-136765077D01*
X102925909Y-136747916D01*
X103027611Y-136681887D01*
X103138680Y-136629357D01*
X103256988Y-136590520D01*
X103380404Y-136565569D01*
X103506800Y-136554700D01*
X103634045Y-136558106D01*
G37*
G36*
X103973242Y-130893598D02*
G01*
X104232244Y-130924109D01*
X104490118Y-130971694D01*
X104589095Y-130994644D01*
X104841790Y-131065615D01*
X105088354Y-131153037D01*
X105328580Y-131256804D01*
X105562260Y-131376811D01*
X105789188Y-131512952D01*
X106009156Y-131665122D01*
X106199459Y-131814407D01*
X106253933Y-131861571D01*
X106316596Y-131919045D01*
X106384310Y-131983690D01*
X106453937Y-132052369D01*
X106522339Y-132121942D01*
X106586376Y-132189272D01*
X106642911Y-132251220D01*
X106684561Y-132299509D01*
X106850524Y-132512723D01*
X107000727Y-132733405D01*
X107135020Y-132961022D01*
X107253250Y-133195042D01*
X107355266Y-133434934D01*
X107440917Y-133680166D01*
X107510050Y-133930205D01*
X107562515Y-134184521D01*
X107598159Y-134442581D01*
X107616831Y-134703853D01*
X107618380Y-134967805D01*
X107602654Y-135233906D01*
X107578917Y-135438242D01*
X107534210Y-135693343D01*
X107472929Y-135943662D01*
X107395606Y-136188484D01*
X107302775Y-136427091D01*
X107194968Y-136658765D01*
X107072719Y-136882791D01*
X106936561Y-137098450D01*
X106787027Y-137305026D01*
X106624650Y-137501802D01*
X106449964Y-137688060D01*
X106263501Y-137863084D01*
X106065794Y-138026157D01*
X105857378Y-138176562D01*
X105638784Y-138313581D01*
X105410546Y-138436498D01*
X105315866Y-138481927D01*
X105075472Y-138584597D01*
X104833957Y-138670149D01*
X104590097Y-138738854D01*
X104342668Y-138790978D01*
X104090444Y-138826791D01*
X103832203Y-138846561D01*
X103632204Y-138851022D01*
X103366014Y-138842879D01*
X103106002Y-138818376D01*
X102851535Y-138777366D01*
X102601978Y-138719701D01*
X102356700Y-138645232D01*
X102115065Y-138553811D01*
X101876442Y-138445290D01*
X101857950Y-138436108D01*
X101651065Y-138326171D01*
X101457911Y-138209448D01*
X101275338Y-138083664D01*
X101100199Y-137946545D01*
X100929341Y-137795815D01*
X100805586Y-137675957D01*
X100625000Y-137482351D01*
X100458339Y-137278373D01*
X100306007Y-137064688D01*
X100168411Y-136841962D01*
X100045958Y-136610861D01*
X99939055Y-136372051D01*
X99848107Y-136126198D01*
X99834486Y-136084452D01*
X99767610Y-135848869D01*
X99714889Y-135605358D01*
X99676719Y-135356943D01*
X99653497Y-135106647D01*
X99645621Y-134857494D01*
X99645700Y-134854107D01*
X99860154Y-134854107D01*
X99867611Y-135088434D01*
X99869345Y-135112939D01*
X99897416Y-135375282D01*
X99941974Y-135631795D01*
X100002870Y-135882131D01*
X100079955Y-136125944D01*
X100173077Y-136362889D01*
X100282088Y-136592619D01*
X100406838Y-136814788D01*
X100547175Y-137029050D01*
X100702952Y-137235060D01*
X100874017Y-137432471D01*
X100874196Y-137432664D01*
X101052794Y-137612894D01*
X101241518Y-137779174D01*
X101439557Y-137931324D01*
X101646102Y-138069162D01*
X101860341Y-138192509D01*
X102081464Y-138301184D01*
X102308662Y-138395006D01*
X102541124Y-138473795D01*
X102778040Y-138537371D01*
X103018599Y-138585553D01*
X103261992Y-138618161D01*
X103507407Y-138635014D01*
X103754036Y-138635931D01*
X104001067Y-138620733D01*
X104247690Y-138589239D01*
X104493095Y-138541268D01*
X104736472Y-138476639D01*
X104977010Y-138395173D01*
X105056503Y-138364211D01*
X105287242Y-138262022D01*
X105509455Y-138144962D01*
X105722539Y-138013756D01*
X105925892Y-137869126D01*
X106118913Y-137711797D01*
X106300999Y-137542492D01*
X106471549Y-137361934D01*
X106629960Y-137170848D01*
X106775631Y-136969956D01*
X106907959Y-136759983D01*
X107026343Y-136541651D01*
X107130181Y-136315686D01*
X107218870Y-136082809D01*
X107291809Y-135843745D01*
X107345800Y-135612385D01*
X107388152Y-135355844D01*
X107413225Y-135099794D01*
X107421232Y-134844937D01*
X107412382Y-134591975D01*
X107386887Y-134341609D01*
X107344959Y-134094540D01*
X107286809Y-133851471D01*
X107212647Y-133613103D01*
X107122686Y-133380138D01*
X107017136Y-133153276D01*
X106896209Y-132933221D01*
X106760116Y-132720673D01*
X106609068Y-132516333D01*
X106443277Y-132320904D01*
X106313879Y-132185089D01*
X106126806Y-132010096D01*
X105930747Y-131849818D01*
X105726477Y-131704347D01*
X105514773Y-131573772D01*
X105296410Y-131458184D01*
X105072165Y-131357675D01*
X104842815Y-131272335D01*
X104609135Y-131202255D01*
X104371902Y-131147525D01*
X104131891Y-131108236D01*
X103889879Y-131084479D01*
X103646642Y-131076345D01*
X103402957Y-131083924D01*
X103159599Y-131107307D01*
X102917345Y-131146585D01*
X102676971Y-131201848D01*
X102439253Y-131273188D01*
X102204967Y-131360694D01*
X101974890Y-131464459D01*
X101749797Y-131584571D01*
X101655791Y-131640617D01*
X101445225Y-131780489D01*
X101244613Y-131934464D01*
X101054690Y-132101673D01*
X100876188Y-132281244D01*
X100709843Y-132472309D01*
X100556389Y-132673998D01*
X100416560Y-132885440D01*
X100291089Y-133105767D01*
X100180711Y-133334107D01*
X100134638Y-133443005D01*
X100052751Y-133667063D01*
X99984824Y-133898702D01*
X99931227Y-134135573D01*
X99892335Y-134375329D01*
X99868519Y-134615623D01*
X99860154Y-134854107D01*
X99645700Y-134854107D01*
X99649804Y-134677737D01*
X99671044Y-134412505D01*
X99709333Y-134151281D01*
X99764491Y-133894571D01*
X99836336Y-133642882D01*
X99924685Y-133396720D01*
X100029357Y-133156591D01*
X100150170Y-132923002D01*
X100286943Y-132696460D01*
X100439493Y-132477470D01*
X100439574Y-132477363D01*
X100582353Y-132298218D01*
X100739762Y-132123348D01*
X100908906Y-131955607D01*
X101086887Y-131797850D01*
X101270810Y-131652930D01*
X101291624Y-131637645D01*
X101507222Y-131491234D01*
X101730994Y-131360083D01*
X101962094Y-131244356D01*
X102199677Y-131144218D01*
X102442897Y-131059834D01*
X102690909Y-130991369D01*
X102942866Y-130938988D01*
X103197924Y-130902855D01*
X103455236Y-130883136D01*
X103646642Y-130880812D01*
X103713957Y-130879995D01*
X103973242Y-130893598D01*
G37*
G36*
X101571334Y-132149342D02*
G01*
X101578532Y-132171357D01*
X101587311Y-132203924D01*
X101596890Y-132243669D01*
X101606490Y-132287216D01*
X101615331Y-132331192D01*
X101622635Y-132372220D01*
X101627365Y-132404782D01*
X101632342Y-132462014D01*
X101635259Y-132531222D01*
X101636167Y-132607221D01*
X101635115Y-132684827D01*
X101632152Y-132758856D01*
X101627330Y-132824123D01*
X101622983Y-132861067D01*
X101613148Y-132920847D01*
X101600661Y-132979646D01*
X101584521Y-133041034D01*
X101563725Y-133108583D01*
X101537271Y-133185863D01*
X101513422Y-133251527D01*
X101484893Y-133330736D01*
X101462658Y-133397907D01*
X101445719Y-133456999D01*
X101433078Y-133511975D01*
X101423740Y-133566798D01*
X101416705Y-133625428D01*
X101415094Y-133642186D01*
X101410355Y-133710334D01*
X101409977Y-133771418D01*
X101413987Y-133835417D01*
X101415694Y-133853193D01*
X101422553Y-133911412D01*
X101431283Y-133965159D01*
X101442859Y-134018189D01*
X101458258Y-134074260D01*
X101478459Y-134137129D01*
X101504437Y-134210553D01*
X101518597Y-134248912D01*
X101555457Y-134352445D01*
X101584274Y-134445075D01*
X101605865Y-134531088D01*
X101621047Y-134614770D01*
X101630638Y-134700406D01*
X101635455Y-134792281D01*
X101636427Y-134866764D01*
X101634615Y-134966012D01*
X101628633Y-135055850D01*
X101617665Y-135140564D01*
X101600892Y-135224440D01*
X101577499Y-135311763D01*
X101546666Y-135406820D01*
X101518597Y-135484615D01*
X101498706Y-135539299D01*
X101479576Y-135594263D01*
X101462706Y-135645031D01*
X101449593Y-135687130D01*
X101443269Y-135709752D01*
X101422409Y-135817081D01*
X101411827Y-135932124D01*
X101412031Y-136047977D01*
X101415161Y-136092072D01*
X101421447Y-136150275D01*
X101429513Y-136203142D01*
X101440368Y-136254703D01*
X101455021Y-136308993D01*
X101474480Y-136370043D01*
X101499753Y-136441885D01*
X101508898Y-136466902D01*
X101544951Y-136567967D01*
X101573849Y-136656868D01*
X101596291Y-136737174D01*
X101612979Y-136812453D01*
X101624614Y-136886273D01*
X101631895Y-136962201D01*
X101635523Y-137043807D01*
X101636266Y-137115612D01*
X101632071Y-137252133D01*
X101619638Y-137375183D01*
X101598720Y-137486954D01*
X101591181Y-137517009D01*
X101582222Y-137549878D01*
X101574806Y-137575551D01*
X101570163Y-137589821D01*
X101569442Y-137591318D01*
X101560831Y-137588543D01*
X101541256Y-137575336D01*
X101512574Y-137553304D01*
X101476638Y-137524053D01*
X101435303Y-137489190D01*
X101390426Y-137450320D01*
X101343859Y-137409049D01*
X101297458Y-137366985D01*
X101253078Y-137325732D01*
X101212573Y-137286898D01*
X101178297Y-137252601D01*
X101102618Y-137174656D01*
X101097383Y-137025192D01*
X101092431Y-136932735D01*
X101083861Y-136851864D01*
X101070568Y-136776760D01*
X101051451Y-136701605D01*
X101025406Y-136620583D01*
X101015248Y-136591967D01*
X100980559Y-136495307D01*
X100951733Y-136412778D01*
X100928279Y-136342116D01*
X100909705Y-136281056D01*
X100895519Y-136227335D01*
X100885231Y-136178687D01*
X100878349Y-136132848D01*
X100874383Y-136087555D01*
X100872840Y-136040541D01*
X100873229Y-135989543D01*
X100874623Y-135943780D01*
X100878442Y-135874928D01*
X100885085Y-135812343D01*
X100895452Y-135752079D01*
X100910441Y-135690190D01*
X100930950Y-135622731D01*
X100957878Y-135545757D01*
X100976717Y-135495390D01*
X101013737Y-135394187D01*
X101042968Y-135304302D01*
X101065201Y-135221702D01*
X101081228Y-135142356D01*
X101091838Y-135062232D01*
X101097822Y-134977299D01*
X101099972Y-134883524D01*
X101100013Y-134866764D01*
X101098367Y-134768696D01*
X101092882Y-134680753D01*
X101082736Y-134598681D01*
X101067108Y-134518224D01*
X101045178Y-134435129D01*
X101016123Y-134345142D01*
X100980501Y-134247626D01*
X100950346Y-134166121D01*
X100926765Y-134096716D01*
X100908695Y-134035671D01*
X100895074Y-133979247D01*
X100884841Y-133923702D01*
X100880896Y-133896813D01*
X100874895Y-133831136D01*
X100872709Y-133755322D01*
X100874247Y-133676379D01*
X100879419Y-133601314D01*
X100885377Y-133553366D01*
X100889149Y-133530964D01*
X100893722Y-133508454D01*
X100899698Y-133483911D01*
X100907683Y-133455413D01*
X100918283Y-133421034D01*
X100932100Y-133378852D01*
X100949741Y-133326942D01*
X100971809Y-133263381D01*
X100998911Y-133186244D01*
X101015908Y-133138108D01*
X101045099Y-133049626D01*
X101066609Y-132969123D01*
X101081590Y-132890418D01*
X101091196Y-132807331D01*
X101096579Y-132713682D01*
X101096915Y-132703939D01*
X101101675Y-132558872D01*
X101226182Y-132435523D01*
X101263234Y-132399647D01*
X101305078Y-132360515D01*
X101349674Y-132319891D01*
X101394979Y-132279541D01*
X101438954Y-132241230D01*
X101479557Y-132206723D01*
X101514746Y-132177783D01*
X101542482Y-132156177D01*
X101560723Y-132143669D01*
X101566495Y-132141253D01*
X101571334Y-132149342D01*
G37*
G36*
X102814166Y-131523374D02*
G01*
X102830484Y-131540400D01*
X102852642Y-131565060D01*
X102878058Y-131594314D01*
X102904150Y-131625122D01*
X102928335Y-131654443D01*
X102948031Y-131679239D01*
X102960656Y-131696467D01*
X102963934Y-131702657D01*
X102957370Y-131710302D01*
X102940499Y-131723928D01*
X102927274Y-131733429D01*
X102890675Y-131765465D01*
X102854179Y-131809123D01*
X102821802Y-131858883D01*
X102797565Y-131909227D01*
X102795762Y-131914033D01*
X102786585Y-131938241D01*
X102779272Y-131952094D01*
X102772434Y-131954411D01*
X102764679Y-131944015D01*
X102754619Y-131919728D01*
X102740864Y-131880369D01*
X102734741Y-131862287D01*
X102723504Y-131825939D01*
X102711854Y-131783109D01*
X102700867Y-131738424D01*
X102691623Y-131696512D01*
X102685200Y-131661998D01*
X102682676Y-131639509D01*
X102682671Y-131638883D01*
X102688561Y-131629535D01*
X102704345Y-131611230D01*
X102727198Y-131587145D01*
X102740408Y-131573914D01*
X102766571Y-131548952D01*
X102788470Y-131529563D01*
X102802881Y-131518533D01*
X102806270Y-131517024D01*
X102814166Y-131523374D01*
G37*
D13*
X71865000Y-102785000D02*
X64025000Y-102785000D01*
X61525000Y-109605000D02*
X74365000Y-109605000D01*
X74365000Y-104285000D02*
X71865000Y-104285000D01*
X74365000Y-107075000D02*
X74235000Y-107075000D01*
X74365000Y-105265000D02*
X74365000Y-104285000D01*
X74235000Y-105265000D02*
X74365000Y-105265000D01*
X74235000Y-107075000D02*
X74235000Y-105265000D01*
X61525000Y-107075000D02*
X61525000Y-109605000D01*
X74365000Y-109605000D02*
X74365000Y-107075000D01*
X61655000Y-105265000D02*
X61655000Y-107075000D01*
X61655000Y-107075000D02*
X61525000Y-107075000D01*
X64025000Y-102785000D02*
X64025000Y-104285000D01*
X64025000Y-104285000D02*
X61525000Y-104285000D01*
X61525000Y-104285000D02*
X61525000Y-105265000D01*
X71865000Y-104285000D02*
X71865000Y-102785000D01*
X61525000Y-105265000D02*
X61655000Y-105265000D01*
X116840000Y-102098203D02*
X116840000Y-99428203D01*
X78740000Y-114798203D02*
X78740000Y-117468203D01*
X116840000Y-114798203D02*
X116840000Y-117468203D01*
X78740000Y-102098203D02*
X78740000Y-99428203D01*
X81280000Y-114798203D02*
X116840000Y-114798203D01*
X81280000Y-117468203D02*
X119510000Y-117468203D01*
X119510000Y-117468203D02*
X119510000Y-99428203D01*
X76070000Y-99428203D02*
X76070000Y-117468203D01*
X76070000Y-117468203D02*
X78740000Y-117468203D01*
X78740000Y-102098203D02*
X116840000Y-102098203D01*
X81280000Y-114798203D02*
X78740000Y-114798203D01*
X119510000Y-99428203D02*
X76070000Y-99428203D01*
X81280000Y-114798203D02*
X81280000Y-117468203D01*
X74365000Y-118605000D02*
X74365000Y-116075000D01*
X61525000Y-118605000D02*
X74365000Y-118605000D01*
X74235000Y-114265000D02*
X74365000Y-114265000D01*
X71865000Y-111785000D02*
X64025000Y-111785000D01*
X71865000Y-113285000D02*
X71865000Y-111785000D01*
X61655000Y-114265000D02*
X61655000Y-116075000D01*
X61525000Y-114265000D02*
X61655000Y-114265000D01*
X61525000Y-113285000D02*
X61525000Y-114265000D01*
X74365000Y-113285000D02*
X71865000Y-113285000D01*
X74365000Y-114265000D02*
X74365000Y-113285000D01*
X64025000Y-113285000D02*
X61525000Y-113285000D01*
X74235000Y-116075000D02*
X74235000Y-114265000D01*
X74365000Y-116075000D02*
X74235000Y-116075000D01*
X61525000Y-116075000D02*
X61525000Y-118605000D01*
X64025000Y-111785000D02*
X64025000Y-113285000D01*
X61655000Y-116075000D02*
X61525000Y-116075000D01*
D12*
X51241000Y-151907000D02*
X51241000Y-143497000D01*
X62741000Y-151907000D02*
X56391000Y-151907000D01*
X51241000Y-143497000D02*
X62741000Y-143497000D01*
X54091000Y-151907000D02*
X51241000Y-151907000D01*
X62741000Y-143497000D02*
X62741000Y-151907000D01*
D13*
X71865000Y-93785000D02*
X64025000Y-93785000D01*
X71865000Y-95285000D02*
X71865000Y-93785000D01*
X61655000Y-98075000D02*
X61525000Y-98075000D01*
X74365000Y-96265000D02*
X74365000Y-95285000D01*
X74365000Y-98075000D02*
X74235000Y-98075000D01*
X74365000Y-100605000D02*
X74365000Y-98075000D01*
X64025000Y-95285000D02*
X61525000Y-95285000D01*
X74365000Y-95285000D02*
X71865000Y-95285000D01*
X61525000Y-96265000D02*
X61655000Y-96265000D01*
X61525000Y-95285000D02*
X61525000Y-96265000D01*
X61525000Y-100605000D02*
X74365000Y-100605000D01*
X61655000Y-96265000D02*
X61655000Y-98075000D01*
X74235000Y-98075000D02*
X74235000Y-96265000D01*
X74235000Y-96265000D02*
X74365000Y-96265000D01*
X64025000Y-93785000D02*
X64025000Y-95285000D01*
X61525000Y-98075000D02*
X61525000Y-100605000D01*
X44227600Y-107075000D02*
X44227600Y-109605000D01*
X44357600Y-105265000D02*
X44357600Y-107075000D01*
X59607600Y-105265000D02*
X59607600Y-104285000D01*
X59607600Y-109605000D02*
X59607600Y-107075000D01*
X55837600Y-102785000D02*
X47997600Y-102785000D01*
X55837600Y-104285000D02*
X55837600Y-102785000D01*
X59477600Y-105265000D02*
X59607600Y-105265000D01*
X59607600Y-107075000D02*
X59477600Y-107075000D01*
X44227600Y-104285000D02*
X44227600Y-105265000D01*
X44357600Y-107075000D02*
X44227600Y-107075000D01*
X44227600Y-109605000D02*
X59607600Y-109605000D01*
X47997600Y-102785000D02*
X47997600Y-104285000D01*
X44227600Y-105265000D02*
X44357600Y-105265000D01*
X59477600Y-107075000D02*
X59477600Y-105265000D01*
X59607600Y-104285000D02*
X55837600Y-104285000D01*
X47997600Y-104285000D02*
X44227600Y-104285000D01*
%LPC*%
D14*
X55679100Y-139907000D02*
G75*
G03*
X55679100Y-139907000I-438100J0D01*
G01*
D15*
X57409100Y-137677000D02*
G75*
G03*
X57409100Y-137677000I-418100J0D01*
G01*
X60909100Y-137677000D02*
G75*
G03*
X60909100Y-137677000I-418100J0D01*
G01*
G36*
X54327200Y-138513200D02*
G01*
X52654800Y-138513200D01*
X52654800Y-136840800D01*
X54327200Y-136840800D01*
X54327200Y-138513200D01*
G37*
D16*
X54327200Y-138513200D02*
X52654800Y-138513200D01*
X52654800Y-136840800D01*
X54327200Y-136840800D01*
X54327200Y-138513200D01*
D15*
X60909100Y-160277000D02*
G75*
G03*
X60909100Y-160277000I-418100J0D01*
G01*
X57409100Y-160277000D02*
G75*
G03*
X57409100Y-160277000I-418100J0D01*
G01*
D14*
X55679100Y-162507000D02*
G75*
G03*
X55679100Y-162507000I-438100J0D01*
G01*
G36*
X54327200Y-161113200D02*
G01*
X52654800Y-161113200D01*
X52654800Y-159440800D01*
X54327200Y-159440800D01*
X54327200Y-161113200D01*
G37*
D16*
X54327200Y-161113200D02*
X52654800Y-161113200D01*
X52654800Y-159440800D01*
X54327200Y-159440800D01*
X54327200Y-161113200D01*
D15*
X60909100Y-171577000D02*
G75*
G03*
X60909100Y-171577000I-418100J0D01*
G01*
X57409100Y-171577000D02*
G75*
G03*
X57409100Y-171577000I-418100J0D01*
G01*
D14*
X55679100Y-173807000D02*
G75*
G03*
X55679100Y-173807000I-438100J0D01*
G01*
G36*
X54327200Y-172413200D02*
G01*
X52654800Y-172413200D01*
X52654800Y-170740800D01*
X54327200Y-170740800D01*
X54327200Y-172413200D01*
G37*
D16*
X54327200Y-172413200D02*
X52654800Y-172413200D01*
X52654800Y-170740800D01*
X54327200Y-170740800D01*
X54327200Y-172413200D01*
D15*
X57409100Y-148977000D02*
G75*
G03*
X57409100Y-148977000I-418100J0D01*
G01*
D14*
X55679100Y-151207000D02*
G75*
G03*
X55679100Y-151207000I-438100J0D01*
G01*
D15*
X60909100Y-148977000D02*
G75*
G03*
X60909100Y-148977000I-418100J0D01*
G01*
G36*
X54327200Y-149813200D02*
G01*
X52654800Y-149813200D01*
X52654800Y-148140800D01*
X54327200Y-148140800D01*
X54327200Y-149813200D01*
G37*
D16*
X54327200Y-149813200D02*
X52654800Y-149813200D01*
X52654800Y-148140800D01*
X54327200Y-148140800D01*
X54327200Y-149813200D01*
D17*
X91932000Y-167479000D03*
X117332000Y-128679000D03*
X117332000Y-167479000D03*
X91932000Y-128679000D03*
D18*
X90272000Y-134099000D03*
D19*
X90272000Y-139099000D03*
X90272000Y-157039000D03*
D18*
X90272000Y-162039000D03*
D20*
X69469000Y-160528000D03*
X69469000Y-157226000D03*
X82931000Y-160528000D03*
X82931000Y-157226000D03*
X69469000Y-149228000D03*
X69469000Y-145926000D03*
X82931000Y-149228000D03*
X82931000Y-145926000D03*
X69469000Y-137928000D03*
X69469000Y-134626000D03*
X82931000Y-137928000D03*
X82931000Y-134626000D03*
X69469000Y-171828000D03*
X69469000Y-168526000D03*
X82931000Y-171828000D03*
X82931000Y-168526000D03*
D21*
X43942000Y-90805000D03*
X43942000Y-175133000D03*
X117475000Y-175133000D03*
X117475000Y-90805000D03*
D22*
X62782000Y-125600000D03*
D23*
X55582000Y-125600000D03*
D24*
X83561000Y-95758000D03*
D25*
X86101000Y-95758000D03*
X88641000Y-95758000D03*
X91181000Y-95758000D03*
X93721000Y-95758000D03*
X96261000Y-95758000D03*
X98801000Y-95758000D03*
X101341000Y-95758000D03*
X103881000Y-95758000D03*
X106421000Y-95758000D03*
X108961000Y-95758000D03*
X111501000Y-95758000D03*
D26*
X55241000Y-139907000D03*
X55241000Y-162507000D03*
D27*
X54457600Y-115945000D03*
D28*
X51917600Y-115945000D03*
X49377600Y-115945000D03*
D27*
X54457600Y-97945000D03*
D28*
X51917600Y-97945000D03*
X49377600Y-97945000D03*
D26*
X55241000Y-173807000D03*
D27*
X71755000Y-106945000D03*
D28*
X69215000Y-106945000D03*
X66675000Y-106945000D03*
X64135000Y-106945000D03*
D29*
X80010000Y-116068203D03*
D30*
X82550000Y-116068203D03*
X85090000Y-116068203D03*
X87630000Y-116068203D03*
X90170000Y-116068203D03*
X92710000Y-116068203D03*
X95250000Y-116068203D03*
X97790000Y-116068203D03*
X100330000Y-116068203D03*
X102870000Y-116068203D03*
X105410000Y-116068203D03*
X107950000Y-116068203D03*
X110490000Y-116068203D03*
X113030000Y-116068203D03*
X115570000Y-116068203D03*
X115570000Y-100828203D03*
X113030000Y-100828203D03*
X110490000Y-100828203D03*
X107950000Y-100828203D03*
X105410000Y-100828203D03*
X102870000Y-100828203D03*
X100330000Y-100828203D03*
X97790000Y-100828203D03*
X95250000Y-100828203D03*
X92710000Y-100828203D03*
X90170000Y-100828203D03*
X87630000Y-100828203D03*
X85090000Y-100828203D03*
X82550000Y-100828203D03*
X80010000Y-100828203D03*
D27*
X71755000Y-115945000D03*
D28*
X69215000Y-115945000D03*
X66675000Y-115945000D03*
X64135000Y-115945000D03*
D26*
X55241000Y-151207000D03*
D27*
X71755000Y-97945000D03*
D28*
X69215000Y-97945000D03*
X66675000Y-97945000D03*
X64135000Y-97945000D03*
D27*
X56997600Y-106945000D03*
D28*
X54457600Y-106945000D03*
X51917600Y-106945000D03*
X49377600Y-106945000D03*
X46837600Y-106945000D03*
M02*
