G04 #@! TF.GenerationSoftware,KiCad,Pcbnew,(6.0.8)*
G04 #@! TF.CreationDate,2022-10-01T20:43:50-07:00*
G04 #@! TF.ProjectId,unified_elec_steering,756e6966-6965-4645-9f65-6c65635f7374,rev?*
G04 #@! TF.SameCoordinates,Original*
G04 #@! TF.FileFunction,Soldermask,Bot*
G04 #@! TF.FilePolarity,Negative*
%FSLAX46Y46*%
G04 Gerber Fmt 4.6, Leading zero omitted, Abs format (unit mm)*
G04 Created by KiCad (PCBNEW (6.0.8)) date 2022-10-01 20:43:50*
%MOMM*%
%LPD*%
G01*
G04 APERTURE LIST*
G04 Aperture macros list*
%AMRoundRect*
0 Rectangle with rounded corners*
0 $1 Rounding radius*
0 $2 $3 $4 $5 $6 $7 $8 $9 X,Y pos of 4 corners*
0 Add a 4 corners polygon primitive as box body*
4,1,4,$2,$3,$4,$5,$6,$7,$8,$9,$2,$3,0*
0 Add four circle primitives for the rounded corners*
1,1,$1+$1,$2,$3*
1,1,$1+$1,$4,$5*
1,1,$1+$1,$6,$7*
1,1,$1+$1,$8,$9*
0 Add four rect primitives between the rounded corners*
20,1,$1+$1,$2,$3,$4,$5,0*
20,1,$1+$1,$4,$5,$6,$7,0*
20,1,$1+$1,$6,$7,$8,$9,0*
20,1,$1+$1,$8,$9,$2,$3,0*%
G04 Aperture macros list end*
%ADD10C,0.836200*%
%ADD11C,0.876200*%
%ADD12C,0.010000*%
%ADD13C,2.180000*%
%ADD14C,3.196000*%
%ADD15R,3.196000X3.196000*%
%ADD16C,2.235200*%
%ADD17C,6.400000*%
%ADD18RoundRect,1.500000X1.500000X1.500000X-1.500000X1.500000X-1.500000X-1.500000X1.500000X-1.500000X0*%
%ADD19C,6.000000*%
%ADD20C,1.700000*%
%ADD21O,1.700000X1.700000*%
%ADD22C,1.600000*%
%ADD23RoundRect,0.250000X0.620000X0.620000X-0.620000X0.620000X-0.620000X-0.620000X0.620000X-0.620000X0*%
%ADD24C,1.740000*%
%ADD25R,1.600000X1.600000*%
%ADD26O,1.600000X1.600000*%
G04 APERTURE END LIST*
D10*
X60909100Y-137677000D02*
G75*
G03*
X60909100Y-137677000I-418100J0D01*
G01*
X57409100Y-137677000D02*
G75*
G03*
X57409100Y-137677000I-418100J0D01*
G01*
D11*
X55679100Y-139907000D02*
G75*
G03*
X55679100Y-139907000I-438100J0D01*
G01*
G36*
X54327200Y-138513200D02*
G01*
X52654800Y-138513200D01*
X52654800Y-136840800D01*
X54327200Y-136840800D01*
X54327200Y-138513200D01*
G37*
D12*
X54327200Y-138513200D02*
X52654800Y-138513200D01*
X52654800Y-136840800D01*
X54327200Y-136840800D01*
X54327200Y-138513200D01*
D10*
X57409100Y-160277000D02*
G75*
G03*
X57409100Y-160277000I-418100J0D01*
G01*
D11*
X55679100Y-162507000D02*
G75*
G03*
X55679100Y-162507000I-438100J0D01*
G01*
D10*
X60909100Y-160277000D02*
G75*
G03*
X60909100Y-160277000I-418100J0D01*
G01*
G36*
X54327200Y-161113200D02*
G01*
X52654800Y-161113200D01*
X52654800Y-159440800D01*
X54327200Y-159440800D01*
X54327200Y-161113200D01*
G37*
D12*
X54327200Y-161113200D02*
X52654800Y-161113200D01*
X52654800Y-159440800D01*
X54327200Y-159440800D01*
X54327200Y-161113200D01*
D10*
X60909100Y-171577000D02*
G75*
G03*
X60909100Y-171577000I-418100J0D01*
G01*
X57409100Y-171577000D02*
G75*
G03*
X57409100Y-171577000I-418100J0D01*
G01*
D11*
X55679100Y-173807000D02*
G75*
G03*
X55679100Y-173807000I-438100J0D01*
G01*
G36*
X54327200Y-172413200D02*
G01*
X52654800Y-172413200D01*
X52654800Y-170740800D01*
X54327200Y-170740800D01*
X54327200Y-172413200D01*
G37*
D12*
X54327200Y-172413200D02*
X52654800Y-172413200D01*
X52654800Y-170740800D01*
X54327200Y-170740800D01*
X54327200Y-172413200D01*
D10*
X60909100Y-148977000D02*
G75*
G03*
X60909100Y-148977000I-418100J0D01*
G01*
D11*
X55679100Y-151207000D02*
G75*
G03*
X55679100Y-151207000I-438100J0D01*
G01*
D10*
X57409100Y-148977000D02*
G75*
G03*
X57409100Y-148977000I-418100J0D01*
G01*
G36*
X54327200Y-149813200D02*
G01*
X52654800Y-149813200D01*
X52654800Y-148140800D01*
X54327200Y-148140800D01*
X54327200Y-149813200D01*
G37*
D12*
X54327200Y-149813200D02*
X52654800Y-149813200D01*
X52654800Y-148140800D01*
X54327200Y-148140800D01*
X54327200Y-149813200D01*
D13*
X91932000Y-167479000D03*
X117332000Y-128679000D03*
X117332000Y-167479000D03*
X91932000Y-128679000D03*
D14*
X90272000Y-134099000D03*
D15*
X90272000Y-139099000D03*
X90272000Y-157039000D03*
D14*
X90272000Y-162039000D03*
D16*
X69469000Y-160528000D03*
X69469000Y-157226000D03*
X82931000Y-160528000D03*
X82931000Y-157226000D03*
X69469000Y-149228000D03*
X69469000Y-145926000D03*
X82931000Y-149228000D03*
X82931000Y-145926000D03*
X69469000Y-137928000D03*
X69469000Y-134626000D03*
X82931000Y-137928000D03*
X82931000Y-134626000D03*
X69469000Y-171828000D03*
X69469000Y-168526000D03*
X82931000Y-171828000D03*
X82931000Y-168526000D03*
D17*
X43942000Y-90805000D03*
X43942000Y-175133000D03*
X117475000Y-175133000D03*
X117475000Y-90805000D03*
D18*
X62782000Y-125600000D03*
D19*
X55582000Y-125600000D03*
D20*
X83561000Y-95758000D03*
D21*
X86101000Y-95758000D03*
X88641000Y-95758000D03*
X91181000Y-95758000D03*
X93721000Y-95758000D03*
X96261000Y-95758000D03*
X98801000Y-95758000D03*
X101341000Y-95758000D03*
X103881000Y-95758000D03*
X106421000Y-95758000D03*
X108961000Y-95758000D03*
X111501000Y-95758000D03*
D22*
X55241000Y-139907000D03*
X55241000Y-162507000D03*
D23*
X54457600Y-115945000D03*
D24*
X51917600Y-115945000D03*
X49377600Y-115945000D03*
D23*
X54457600Y-97945000D03*
D24*
X51917600Y-97945000D03*
X49377600Y-97945000D03*
D22*
X55241000Y-173807000D03*
D23*
X71755000Y-106945000D03*
D24*
X69215000Y-106945000D03*
X66675000Y-106945000D03*
X64135000Y-106945000D03*
D25*
X80010000Y-116068203D03*
D26*
X82550000Y-116068203D03*
X85090000Y-116068203D03*
X87630000Y-116068203D03*
X90170000Y-116068203D03*
X92710000Y-116068203D03*
X95250000Y-116068203D03*
X97790000Y-116068203D03*
X100330000Y-116068203D03*
X102870000Y-116068203D03*
X105410000Y-116068203D03*
X107950000Y-116068203D03*
X110490000Y-116068203D03*
X113030000Y-116068203D03*
X115570000Y-116068203D03*
X115570000Y-100828203D03*
X113030000Y-100828203D03*
X110490000Y-100828203D03*
X107950000Y-100828203D03*
X105410000Y-100828203D03*
X102870000Y-100828203D03*
X100330000Y-100828203D03*
X97790000Y-100828203D03*
X95250000Y-100828203D03*
X92710000Y-100828203D03*
X90170000Y-100828203D03*
X87630000Y-100828203D03*
X85090000Y-100828203D03*
X82550000Y-100828203D03*
X80010000Y-100828203D03*
D23*
X71755000Y-115945000D03*
D24*
X69215000Y-115945000D03*
X66675000Y-115945000D03*
X64135000Y-115945000D03*
D22*
X55241000Y-151207000D03*
D23*
X71755000Y-97945000D03*
D24*
X69215000Y-97945000D03*
X66675000Y-97945000D03*
X64135000Y-97945000D03*
D23*
X56997600Y-106945000D03*
D24*
X54457600Y-106945000D03*
X51917600Y-106945000D03*
X49377600Y-106945000D03*
X46837600Y-106945000D03*
M02*
