M48
; DRILL file {KiCad (6.0.8)} date Sat Oct  1 20:44:10 2022
; FORMAT={-:-/ absolute / metric / decimal}
; #@! TF.CreationDate,2022-10-01T20:44:10-07:00
; #@! TF.GenerationSoftware,Kicad,Pcbnew,(6.0.8)
; #@! TF.FileFunction,Plated,1,2,PTH
FMAT,2
METRIC
; #@! TA.AperFunction,Plated,PTH,ComponentDrill
T1C1.000
; #@! TA.AperFunction,Plated,PTH,ComponentDrill
T2C1.020
; #@! TA.AperFunction,Plated,PTH,ComponentDrill
T3C1.090
; #@! TA.AperFunction,Plated,PTH,ComponentDrill
T4C1.727
; #@! TA.AperFunction,Plated,PTH,ComponentDrill
T5C2.180
; #@! TA.AperFunction,Plated,PTH,ComponentDrill
T6C3.200
; #@! TA.AperFunction,Plated,PTH,ComponentDrill
T7C4.500
%
G90
G05
T1
X80.01Y-100.828
X80.01Y-116.068
X82.55Y-100.828
X82.55Y-116.068
X83.561Y-95.758
X85.09Y-100.828
X85.09Y-116.068
X86.101Y-95.758
X87.63Y-100.828
X87.63Y-116.068
X88.641Y-95.758
X90.17Y-100.828
X90.17Y-116.068
X91.181Y-95.758
X92.71Y-100.828
X92.71Y-116.068
X93.721Y-95.758
X95.25Y-100.828
X95.25Y-116.068
X96.261Y-95.758
X97.79Y-100.828
X97.79Y-116.068
X98.801Y-95.758
X100.33Y-100.828
X100.33Y-116.068
X101.341Y-95.758
X102.87Y-100.828
X102.87Y-116.068
X103.881Y-95.758
X105.41Y-100.828
X105.41Y-116.068
X106.421Y-95.758
X107.95Y-100.828
X107.95Y-116.068
X108.961Y-95.758
X110.49Y-100.828
X110.49Y-116.068
X111.501Y-95.758
X113.03Y-100.828
X113.03Y-116.068
X115.57Y-100.828
X115.57Y-116.068
T2
X53.491Y-137.677
X53.491Y-148.977
X53.491Y-160.277
X53.491Y-171.577
X56.991Y-137.677
X56.991Y-148.977
X56.991Y-160.277
X56.991Y-171.577
X60.491Y-137.677
X60.491Y-148.977
X60.491Y-160.277
X60.491Y-171.577
T3
X46.838Y-106.945
X49.378Y-97.945
X49.378Y-106.945
X49.378Y-115.945
X51.918Y-97.945
X51.918Y-106.945
X51.918Y-115.945
X54.458Y-97.945
X54.458Y-106.945
X54.458Y-115.945
X56.998Y-106.945
X64.135Y-97.945
X64.135Y-106.945
X64.135Y-115.945
X66.675Y-97.945
X66.675Y-106.945
X66.675Y-115.945
X69.215Y-97.945
X69.215Y-106.945
X69.215Y-115.945
X71.755Y-97.945
X71.755Y-106.945
X71.755Y-115.945
T4
X69.469Y-134.626
X69.469Y-137.928
X69.469Y-145.926
X69.469Y-149.228
X69.469Y-157.226
X69.469Y-160.528
X69.469Y-168.526
X69.469Y-171.828
X82.931Y-134.626
X82.931Y-137.928
X82.931Y-145.926
X82.931Y-149.228
X82.931Y-157.226
X82.931Y-160.528
X82.931Y-168.526
X82.931Y-171.828
T5
X90.272Y-134.099
X90.272Y-139.099
X90.272Y-157.039
X90.272Y-162.039
T6
X43.942Y-90.805
X43.942Y-175.133
X117.475Y-90.805
X117.475Y-175.133
T7
X55.582Y-125.6
X62.782Y-125.6
T0
M30
