G04 #@! TF.GenerationSoftware,KiCad,Pcbnew,(6.0.8)*
G04 #@! TF.CreationDate,2022-10-05T13:13:21-07:00*
G04 #@! TF.ProjectId,unified_elec_steering,756e6966-6965-4645-9f65-6c65635f7374,A*
G04 #@! TF.SameCoordinates,Original*
G04 #@! TF.FileFunction,Legend,Top*
G04 #@! TF.FilePolarity,Positive*
%FSLAX46Y46*%
G04 Gerber Fmt 4.6, Leading zero omitted, Abs format (unit mm)*
G04 Created by KiCad (PCBNEW (6.0.8)) date 2022-10-05 13:13:21*
%MOMM*%
%LPD*%
G01*
G04 APERTURE LIST*
G04 Aperture macros list*
%AMRoundRect*
0 Rectangle with rounded corners*
0 $1 Rounding radius*
0 $2 $3 $4 $5 $6 $7 $8 $9 X,Y pos of 4 corners*
0 Add a 4 corners polygon primitive as box body*
4,1,4,$2,$3,$4,$5,$6,$7,$8,$9,$2,$3,0*
0 Add four circle primitives for the rounded corners*
1,1,$1+$1,$2,$3*
1,1,$1+$1,$4,$5*
1,1,$1+$1,$6,$7*
1,1,$1+$1,$8,$9*
0 Add four rect primitives between the rounded corners*
20,1,$1+$1,$2,$3,$4,$5,0*
20,1,$1+$1,$4,$5,$6,$7,0*
20,1,$1+$1,$6,$7,$8,$9,0*
20,1,$1+$1,$8,$9,$2,$3,0*%
G04 Aperture macros list end*
%ADD10C,0.150000*%
%ADD11C,0.300000*%
%ADD12C,0.120000*%
%ADD13C,0.127000*%
%ADD14RoundRect,1.500000X1.500000X1.500000X-1.500000X1.500000X-1.500000X-1.500000X1.500000X-1.500000X0*%
%ADD15C,6.000000*%
%ADD16C,1.700000*%
%ADD17O,1.700000X1.700000*%
%ADD18C,1.600000*%
%ADD19R,1.520000X1.520000*%
%ADD20C,1.520000*%
%ADD21C,2.235200*%
%ADD22RoundRect,0.250000X0.620000X0.620000X-0.620000X0.620000X-0.620000X-0.620000X0.620000X-0.620000X0*%
%ADD23C,1.740000*%
%ADD24C,6.400000*%
%ADD25C,2.180000*%
%ADD26C,3.196000*%
%ADD27R,3.196000X3.196000*%
%ADD28R,1.600000X1.600000*%
%ADD29O,1.600000X1.600000*%
G04 APERTURE END LIST*
D10*
X146724666Y-59783023D02*
X146724666Y-59306833D01*
X147010380Y-59878261D02*
X146010380Y-59544928D01*
X147010380Y-59211595D01*
X146010380Y-58449690D02*
X146010380Y-58640166D01*
X146058000Y-58735404D01*
X146105619Y-58783023D01*
X146248476Y-58878261D01*
X146438952Y-58925880D01*
X146819904Y-58925880D01*
X146915142Y-58878261D01*
X146962761Y-58830642D01*
X147010380Y-58735404D01*
X147010380Y-58544928D01*
X146962761Y-58449690D01*
X146915142Y-58402071D01*
X146819904Y-58354452D01*
X146581809Y-58354452D01*
X146486571Y-58402071D01*
X146438952Y-58449690D01*
X146391333Y-58544928D01*
X146391333Y-58735404D01*
X146438952Y-58830642D01*
X146486571Y-58878261D01*
X146581809Y-58925880D01*
X151138000Y-59211595D02*
X151090380Y-59306833D01*
X151090380Y-59449690D01*
X151138000Y-59592547D01*
X151233238Y-59687785D01*
X151328476Y-59735404D01*
X151518952Y-59783023D01*
X151661809Y-59783023D01*
X151852285Y-59735404D01*
X151947523Y-59687785D01*
X152042761Y-59592547D01*
X152090380Y-59449690D01*
X152090380Y-59354452D01*
X152042761Y-59211595D01*
X151995142Y-59163976D01*
X151661809Y-59163976D01*
X151661809Y-59354452D01*
X152090380Y-58735404D02*
X151090380Y-58735404D01*
X152090380Y-58163976D01*
X151090380Y-58163976D01*
X152090380Y-57687785D02*
X151090380Y-57687785D01*
X151090380Y-57449690D01*
X151138000Y-57306833D01*
X151233238Y-57211595D01*
X151328476Y-57163976D01*
X151518952Y-57116357D01*
X151661809Y-57116357D01*
X151852285Y-57163976D01*
X151947523Y-57211595D01*
X152042761Y-57306833D01*
X152090380Y-57449690D01*
X152090380Y-57687785D01*
X156154380Y-102133504D02*
X156202000Y-102181123D01*
X156249619Y-102276361D01*
X156249619Y-102514456D01*
X156202000Y-102609694D01*
X156154380Y-102657313D01*
X156059142Y-102704932D01*
X155963904Y-102704932D01*
X155821047Y-102657313D01*
X155249619Y-102085885D01*
X155249619Y-102704932D01*
X156249619Y-103323980D02*
X156249619Y-103419218D01*
X156202000Y-103514456D01*
X156154380Y-103562075D01*
X156059142Y-103609694D01*
X155868666Y-103657313D01*
X155630571Y-103657313D01*
X155440095Y-103609694D01*
X155344857Y-103562075D01*
X155297238Y-103514456D01*
X155249619Y-103419218D01*
X155249619Y-103323980D01*
X155297238Y-103228742D01*
X155344857Y-103181123D01*
X155440095Y-103133504D01*
X155630571Y-103085885D01*
X155868666Y-103085885D01*
X156059142Y-103133504D01*
X156154380Y-103181123D01*
X156202000Y-103228742D01*
X156249619Y-103323980D01*
X156154380Y-104038266D02*
X156202000Y-104085885D01*
X156249619Y-104181123D01*
X156249619Y-104419218D01*
X156202000Y-104514456D01*
X156154380Y-104562075D01*
X156059142Y-104609694D01*
X155963904Y-104609694D01*
X155821047Y-104562075D01*
X155249619Y-103990647D01*
X155249619Y-104609694D01*
X156154380Y-104990647D02*
X156202000Y-105038266D01*
X156249619Y-105133504D01*
X156249619Y-105371599D01*
X156202000Y-105466837D01*
X156154380Y-105514456D01*
X156059142Y-105562075D01*
X155963904Y-105562075D01*
X155821047Y-105514456D01*
X155249619Y-104943028D01*
X155249619Y-105562075D01*
X155630571Y-105990647D02*
X155630571Y-106752551D01*
X156154380Y-107181123D02*
X156202000Y-107228742D01*
X156249619Y-107323980D01*
X156249619Y-107562075D01*
X156202000Y-107657313D01*
X156154380Y-107704932D01*
X156059142Y-107752551D01*
X155963904Y-107752551D01*
X155821047Y-107704932D01*
X155249619Y-107133504D01*
X155249619Y-107752551D01*
X156249619Y-108371599D02*
X156249619Y-108466837D01*
X156202000Y-108562075D01*
X156154380Y-108609694D01*
X156059142Y-108657313D01*
X155868666Y-108704932D01*
X155630571Y-108704932D01*
X155440095Y-108657313D01*
X155344857Y-108609694D01*
X155297238Y-108562075D01*
X155249619Y-108466837D01*
X155249619Y-108371599D01*
X155297238Y-108276361D01*
X155344857Y-108228742D01*
X155440095Y-108181123D01*
X155630571Y-108133504D01*
X155868666Y-108133504D01*
X156059142Y-108181123D01*
X156154380Y-108228742D01*
X156202000Y-108276361D01*
X156249619Y-108371599D01*
X156154380Y-109085885D02*
X156202000Y-109133504D01*
X156249619Y-109228742D01*
X156249619Y-109466837D01*
X156202000Y-109562075D01*
X156154380Y-109609694D01*
X156059142Y-109657313D01*
X155963904Y-109657313D01*
X155821047Y-109609694D01*
X155249619Y-109038266D01*
X155249619Y-109657313D01*
X156249619Y-109990647D02*
X156249619Y-110609694D01*
X155868666Y-110276361D01*
X155868666Y-110419218D01*
X155821047Y-110514456D01*
X155773428Y-110562075D01*
X155678190Y-110609694D01*
X155440095Y-110609694D01*
X155344857Y-110562075D01*
X155297238Y-110514456D01*
X155249619Y-110419218D01*
X155249619Y-110133504D01*
X155297238Y-110038266D01*
X155344857Y-109990647D01*
X102410095Y-67242380D02*
X102410095Y-67956666D01*
X102362476Y-68099523D01*
X102267238Y-68194761D01*
X102124380Y-68242380D01*
X102029142Y-68242380D01*
X103076761Y-67242380D02*
X103267238Y-67242380D01*
X103362476Y-67290000D01*
X103457714Y-67385238D01*
X103505333Y-67575714D01*
X103505333Y-67909047D01*
X103457714Y-68099523D01*
X103362476Y-68194761D01*
X103267238Y-68242380D01*
X103076761Y-68242380D01*
X102981523Y-68194761D01*
X102886285Y-68099523D01*
X102838666Y-67909047D01*
X102838666Y-67575714D01*
X102886285Y-67385238D01*
X102981523Y-67290000D01*
X103076761Y-67242380D01*
X104124380Y-67766190D02*
X104124380Y-68242380D01*
X103791047Y-67242380D02*
X104124380Y-67766190D01*
X104457714Y-67242380D01*
X104743428Y-68194761D02*
X104886285Y-68242380D01*
X105124380Y-68242380D01*
X105219619Y-68194761D01*
X105267238Y-68147142D01*
X105314857Y-68051904D01*
X105314857Y-67956666D01*
X105267238Y-67861428D01*
X105219619Y-67813809D01*
X105124380Y-67766190D01*
X104933904Y-67718571D01*
X104838666Y-67670952D01*
X104791047Y-67623333D01*
X104743428Y-67528095D01*
X104743428Y-67432857D01*
X104791047Y-67337619D01*
X104838666Y-67290000D01*
X104933904Y-67242380D01*
X105172000Y-67242380D01*
X105314857Y-67290000D01*
X105600571Y-67242380D02*
X106172000Y-67242380D01*
X105886285Y-68242380D02*
X105886285Y-67242380D01*
X106505333Y-68242380D02*
X106505333Y-67242380D01*
X107552952Y-68147142D02*
X107505333Y-68194761D01*
X107362476Y-68242380D01*
X107267238Y-68242380D01*
X107124380Y-68194761D01*
X107029142Y-68099523D01*
X106981523Y-68004285D01*
X106933904Y-67813809D01*
X106933904Y-67670952D01*
X106981523Y-67480476D01*
X107029142Y-67385238D01*
X107124380Y-67290000D01*
X107267238Y-67242380D01*
X107362476Y-67242380D01*
X107505333Y-67290000D01*
X107552952Y-67337619D01*
X107981523Y-68242380D02*
X107981523Y-67242380D01*
X108552952Y-68242380D02*
X108124380Y-67670952D01*
X108552952Y-67242380D02*
X107981523Y-67813809D01*
X109695809Y-67337619D02*
X109743428Y-67290000D01*
X109838666Y-67242380D01*
X110076761Y-67242380D01*
X110172000Y-67290000D01*
X110219619Y-67337619D01*
X110267238Y-67432857D01*
X110267238Y-67528095D01*
X110219619Y-67670952D01*
X109648190Y-68242380D01*
X110267238Y-68242380D01*
D11*
X158809428Y-102143670D02*
X157595142Y-102143670D01*
X157452285Y-102215099D01*
X157380857Y-102286528D01*
X157309428Y-102429385D01*
X157309428Y-102715099D01*
X157380857Y-102857956D01*
X157452285Y-102929385D01*
X157595142Y-103000813D01*
X158809428Y-103000813D01*
X158309428Y-103715099D02*
X157309428Y-103715099D01*
X158166571Y-103715099D02*
X158238000Y-103786528D01*
X158309428Y-103929385D01*
X158309428Y-104143670D01*
X158238000Y-104286528D01*
X158095142Y-104357956D01*
X157309428Y-104357956D01*
X157309428Y-105072242D02*
X158309428Y-105072242D01*
X158809428Y-105072242D02*
X158738000Y-105000813D01*
X158666571Y-105072242D01*
X158738000Y-105143670D01*
X158809428Y-105072242D01*
X158666571Y-105072242D01*
X158309428Y-105572242D02*
X158309428Y-106143670D01*
X157309428Y-105786528D02*
X158595142Y-105786528D01*
X158738000Y-105857956D01*
X158809428Y-106000813D01*
X158809428Y-106143670D01*
X157309428Y-106643670D02*
X158309428Y-106643670D01*
X158809428Y-106643670D02*
X158738000Y-106572242D01*
X158666571Y-106643670D01*
X158738000Y-106715099D01*
X158809428Y-106643670D01*
X158666571Y-106643670D01*
X157380857Y-107929385D02*
X157309428Y-107786528D01*
X157309428Y-107500813D01*
X157380857Y-107357956D01*
X157523714Y-107286528D01*
X158095142Y-107286528D01*
X158238000Y-107357956D01*
X158309428Y-107500813D01*
X158309428Y-107786528D01*
X158238000Y-107929385D01*
X158095142Y-108000813D01*
X157952285Y-108000813D01*
X157809428Y-107286528D01*
X157309428Y-109286528D02*
X158809428Y-109286528D01*
X157380857Y-109286528D02*
X157309428Y-109143670D01*
X157309428Y-108857956D01*
X157380857Y-108715099D01*
X157452285Y-108643670D01*
X157595142Y-108572242D01*
X158023714Y-108572242D01*
X158166571Y-108643670D01*
X158238000Y-108715099D01*
X158309428Y-108857956D01*
X158309428Y-109143670D01*
X158238000Y-109286528D01*
X158095142Y-111143670D02*
X158095142Y-111643670D01*
X157309428Y-111857956D02*
X157309428Y-111143670D01*
X158809428Y-111143670D01*
X158809428Y-111857956D01*
X157309428Y-112715099D02*
X157380857Y-112572242D01*
X157523714Y-112500813D01*
X158809428Y-112500813D01*
X157380857Y-113857956D02*
X157309428Y-113715099D01*
X157309428Y-113429385D01*
X157380857Y-113286528D01*
X157523714Y-113215099D01*
X158095142Y-113215099D01*
X158238000Y-113286528D01*
X158309428Y-113429385D01*
X158309428Y-113715099D01*
X158238000Y-113857956D01*
X158095142Y-113929385D01*
X157952285Y-113929385D01*
X157809428Y-113215099D01*
X157380857Y-115215099D02*
X157309428Y-115072242D01*
X157309428Y-114786528D01*
X157380857Y-114643670D01*
X157452285Y-114572242D01*
X157595142Y-114500813D01*
X158023714Y-114500813D01*
X158166571Y-114572242D01*
X158238000Y-114643670D01*
X158309428Y-114786528D01*
X158309428Y-115072242D01*
X158238000Y-115215099D01*
X157452285Y-115857956D02*
X157380857Y-115929385D01*
X157309428Y-115857956D01*
X157380857Y-115786528D01*
X157452285Y-115857956D01*
X157309428Y-115857956D01*
X157380857Y-117643670D02*
X157309428Y-117857956D01*
X157309428Y-118215099D01*
X157380857Y-118357956D01*
X157452285Y-118429385D01*
X157595142Y-118500813D01*
X157738000Y-118500813D01*
X157880857Y-118429385D01*
X157952285Y-118357956D01*
X158023714Y-118215099D01*
X158095142Y-117929385D01*
X158166571Y-117786528D01*
X158238000Y-117715099D01*
X158380857Y-117643670D01*
X158523714Y-117643670D01*
X158666571Y-117715099D01*
X158738000Y-117786528D01*
X158809428Y-117929385D01*
X158809428Y-118286528D01*
X158738000Y-118500813D01*
X158309428Y-118929385D02*
X158309428Y-119500813D01*
X158809428Y-119143670D02*
X157523714Y-119143670D01*
X157380857Y-119215099D01*
X157309428Y-119357956D01*
X157309428Y-119500813D01*
X157380857Y-120572242D02*
X157309428Y-120429385D01*
X157309428Y-120143670D01*
X157380857Y-120000813D01*
X157523714Y-119929385D01*
X158095142Y-119929385D01*
X158238000Y-120000813D01*
X158309428Y-120143670D01*
X158309428Y-120429385D01*
X158238000Y-120572242D01*
X158095142Y-120643670D01*
X157952285Y-120643670D01*
X157809428Y-119929385D01*
X157380857Y-121857956D02*
X157309428Y-121715099D01*
X157309428Y-121429385D01*
X157380857Y-121286528D01*
X157523714Y-121215099D01*
X158095142Y-121215099D01*
X158238000Y-121286528D01*
X158309428Y-121429385D01*
X158309428Y-121715099D01*
X158238000Y-121857956D01*
X158095142Y-121929385D01*
X157952285Y-121929385D01*
X157809428Y-121215099D01*
X157309428Y-122572242D02*
X158309428Y-122572242D01*
X158023714Y-122572242D02*
X158166571Y-122643670D01*
X158238000Y-122715099D01*
X158309428Y-122857956D01*
X158309428Y-123000813D01*
X157309428Y-123500813D02*
X158309428Y-123500813D01*
X158809428Y-123500813D02*
X158738000Y-123429385D01*
X158666571Y-123500813D01*
X158738000Y-123572242D01*
X158809428Y-123500813D01*
X158666571Y-123500813D01*
X158309428Y-124215099D02*
X157309428Y-124215099D01*
X158166571Y-124215099D02*
X158238000Y-124286528D01*
X158309428Y-124429385D01*
X158309428Y-124643670D01*
X158238000Y-124786528D01*
X158095142Y-124857956D01*
X157309428Y-124857956D01*
X158309428Y-126215099D02*
X157095142Y-126215099D01*
X156952285Y-126143670D01*
X156880857Y-126072242D01*
X156809428Y-125929385D01*
X156809428Y-125715099D01*
X156880857Y-125572242D01*
X157380857Y-126215099D02*
X157309428Y-126072242D01*
X157309428Y-125786528D01*
X157380857Y-125643670D01*
X157452285Y-125572242D01*
X157595142Y-125500813D01*
X158023714Y-125500813D01*
X158166571Y-125572242D01*
X158238000Y-125643670D01*
X158309428Y-125786528D01*
X158309428Y-126072242D01*
X158238000Y-126215099D01*
D10*
X128666952Y-101671380D02*
X128095523Y-101671380D01*
X128381238Y-101671380D02*
X128381238Y-100671380D01*
X128286000Y-100814238D01*
X128190761Y-100909476D01*
X128095523Y-100957095D01*
X129286000Y-100671380D02*
X129381238Y-100671380D01*
X129476476Y-100719000D01*
X129524095Y-100766619D01*
X129571714Y-100861857D01*
X129619333Y-101052333D01*
X129619333Y-101290428D01*
X129571714Y-101480904D01*
X129524095Y-101576142D01*
X129476476Y-101623761D01*
X129381238Y-101671380D01*
X129286000Y-101671380D01*
X129190761Y-101623761D01*
X129143142Y-101576142D01*
X129095523Y-101480904D01*
X129047904Y-101290428D01*
X129047904Y-101052333D01*
X129095523Y-100861857D01*
X129143142Y-100766619D01*
X129190761Y-100719000D01*
X129286000Y-100671380D01*
X130000285Y-101385666D02*
X130476476Y-101385666D01*
X129905047Y-101671380D02*
X130238380Y-100671380D01*
X130571714Y-101671380D01*
X149264666Y-59783023D02*
X149264666Y-59306833D01*
X149550380Y-59878261D02*
X148550380Y-59544928D01*
X149550380Y-59211595D01*
X148550380Y-58402071D02*
X148550380Y-58878261D01*
X149026571Y-58925880D01*
X148978952Y-58878261D01*
X148931333Y-58783023D01*
X148931333Y-58544928D01*
X148978952Y-58449690D01*
X149026571Y-58402071D01*
X149121809Y-58354452D01*
X149359904Y-58354452D01*
X149455142Y-58402071D01*
X149502761Y-58449690D01*
X149550380Y-58544928D01*
X149550380Y-58783023D01*
X149502761Y-58878261D01*
X149455142Y-58925880D01*
X138438000Y-59211595D02*
X138390380Y-59306833D01*
X138390380Y-59449690D01*
X138438000Y-59592547D01*
X138533238Y-59687785D01*
X138628476Y-59735404D01*
X138818952Y-59783023D01*
X138961809Y-59783023D01*
X139152285Y-59735404D01*
X139247523Y-59687785D01*
X139342761Y-59592547D01*
X139390380Y-59449690D01*
X139390380Y-59354452D01*
X139342761Y-59211595D01*
X139295142Y-59163976D01*
X138961809Y-59163976D01*
X138961809Y-59354452D01*
X139390380Y-58735404D02*
X138390380Y-58735404D01*
X139390380Y-58163976D01*
X138390380Y-58163976D01*
X139390380Y-57687785D02*
X138390380Y-57687785D01*
X138390380Y-57449690D01*
X138438000Y-57306833D01*
X138533238Y-57211595D01*
X138628476Y-57163976D01*
X138818952Y-57116357D01*
X138961809Y-57116357D01*
X139152285Y-57163976D01*
X139247523Y-57211595D01*
X139342761Y-57306833D01*
X139390380Y-57449690D01*
X139390380Y-57687785D01*
X164790380Y-59735404D02*
X163790380Y-59735404D01*
X163790380Y-59497309D01*
X163838000Y-59354452D01*
X163933238Y-59259214D01*
X164028476Y-59211595D01*
X164218952Y-59163976D01*
X164361809Y-59163976D01*
X164552285Y-59211595D01*
X164647523Y-59259214D01*
X164742761Y-59354452D01*
X164790380Y-59497309D01*
X164790380Y-59735404D01*
X164790380Y-58211595D02*
X164790380Y-58783023D01*
X164790380Y-58497309D02*
X163790380Y-58497309D01*
X163933238Y-58592547D01*
X164028476Y-58687785D01*
X164076095Y-58783023D01*
X163885619Y-57830642D02*
X163838000Y-57783023D01*
X163790380Y-57687785D01*
X163790380Y-57449690D01*
X163838000Y-57354452D01*
X163885619Y-57306833D01*
X163980857Y-57259214D01*
X164076095Y-57259214D01*
X164218952Y-57306833D01*
X164790380Y-57878261D01*
X164790380Y-57259214D01*
X157170380Y-59735404D02*
X156170380Y-59735404D01*
X156170380Y-59497309D01*
X156218000Y-59354452D01*
X156313238Y-59259214D01*
X156408476Y-59211595D01*
X156598952Y-59163976D01*
X156741809Y-59163976D01*
X156932285Y-59211595D01*
X157027523Y-59259214D01*
X157122761Y-59354452D01*
X157170380Y-59497309D01*
X157170380Y-59735404D01*
X157170380Y-58211595D02*
X157170380Y-58783023D01*
X157170380Y-58497309D02*
X156170380Y-58497309D01*
X156313238Y-58592547D01*
X156408476Y-58687785D01*
X156456095Y-58783023D01*
X156170380Y-57878261D02*
X156170380Y-57259214D01*
X156551333Y-57592547D01*
X156551333Y-57449690D01*
X156598952Y-57354452D01*
X156646571Y-57306833D01*
X156741809Y-57259214D01*
X156979904Y-57259214D01*
X157075142Y-57306833D01*
X157122761Y-57354452D01*
X157170380Y-57449690D01*
X157170380Y-57735404D01*
X157122761Y-57830642D01*
X157075142Y-57878261D01*
X107767367Y-118123761D02*
X107910225Y-118171380D01*
X108148320Y-118171380D01*
X108243558Y-118123761D01*
X108291177Y-118076142D01*
X108338796Y-117980904D01*
X108338796Y-117885666D01*
X108291177Y-117790428D01*
X108243558Y-117742809D01*
X108148320Y-117695190D01*
X107957844Y-117647571D01*
X107862606Y-117599952D01*
X107814987Y-117552333D01*
X107767367Y-117457095D01*
X107767367Y-117361857D01*
X107814987Y-117266619D01*
X107862606Y-117219000D01*
X107957844Y-117171380D01*
X108195939Y-117171380D01*
X108338796Y-117219000D01*
X108767367Y-117647571D02*
X109100701Y-117647571D01*
X109243558Y-118171380D02*
X108767367Y-118171380D01*
X108767367Y-117171380D01*
X109243558Y-117171380D01*
X110243558Y-118171380D02*
X109910225Y-117695190D01*
X109672129Y-118171380D02*
X109672129Y-117171380D01*
X110053082Y-117171380D01*
X110148320Y-117219000D01*
X110195939Y-117266619D01*
X110243558Y-117361857D01*
X110243558Y-117504714D01*
X110195939Y-117599952D01*
X110148320Y-117647571D01*
X110053082Y-117695190D01*
X109672129Y-117695190D01*
X110529272Y-117171380D02*
X110862606Y-118171380D01*
X111195939Y-117171380D01*
X111719748Y-117171380D02*
X111910225Y-117171380D01*
X112005463Y-117219000D01*
X112100701Y-117314238D01*
X112148320Y-117504714D01*
X112148320Y-117838047D01*
X112100701Y-118028523D01*
X112005463Y-118123761D01*
X111910225Y-118171380D01*
X111719748Y-118171380D01*
X111624510Y-118123761D01*
X111529272Y-118028523D01*
X111481653Y-117838047D01*
X111481653Y-117504714D01*
X111529272Y-117314238D01*
X111624510Y-117219000D01*
X111719748Y-117171380D01*
X113291177Y-117266619D02*
X113338796Y-117219000D01*
X113434034Y-117171380D01*
X113672129Y-117171380D01*
X113767367Y-117219000D01*
X113814987Y-117266619D01*
X113862606Y-117361857D01*
X113862606Y-117457095D01*
X113814987Y-117599952D01*
X113243558Y-118171380D01*
X113862606Y-118171380D01*
X121357142Y-90860571D02*
X121500000Y-90908190D01*
X121547619Y-90955809D01*
X121595238Y-91051047D01*
X121595238Y-91193904D01*
X121547619Y-91289142D01*
X121500000Y-91336761D01*
X121404761Y-91384380D01*
X121023809Y-91384380D01*
X121023809Y-90384380D01*
X121357142Y-90384380D01*
X121452380Y-90432000D01*
X121500000Y-90479619D01*
X121547619Y-90574857D01*
X121547619Y-90670095D01*
X121500000Y-90765333D01*
X121452380Y-90812952D01*
X121357142Y-90860571D01*
X121023809Y-90860571D01*
X121976190Y-91098666D02*
X122452380Y-91098666D01*
X121880952Y-91384380D02*
X122214285Y-90384380D01*
X122547619Y-91384380D01*
X122738095Y-90384380D02*
X123309523Y-90384380D01*
X123023809Y-91384380D02*
X123023809Y-90384380D01*
X123500000Y-90384380D02*
X124071428Y-90384380D01*
X123785714Y-91384380D02*
X123785714Y-90384380D01*
X124404761Y-90860571D02*
X124738095Y-90860571D01*
X124880952Y-91384380D02*
X124404761Y-91384380D01*
X124404761Y-90384380D01*
X124880952Y-90384380D01*
X125880952Y-91384380D02*
X125547619Y-90908190D01*
X125309523Y-91384380D02*
X125309523Y-90384380D01*
X125690476Y-90384380D01*
X125785714Y-90432000D01*
X125833333Y-90479619D01*
X125880952Y-90574857D01*
X125880952Y-90717714D01*
X125833333Y-90812952D01*
X125785714Y-90860571D01*
X125690476Y-90908190D01*
X125309523Y-90908190D01*
X126500000Y-90908190D02*
X126500000Y-91384380D01*
X126166666Y-90384380D02*
X126500000Y-90908190D01*
X126833333Y-90384380D01*
X127928571Y-91384380D02*
X127928571Y-90384380D01*
X128404761Y-91384380D02*
X128404761Y-90384380D01*
X128976190Y-91384380D01*
X128976190Y-90384380D01*
X154380952Y-139025380D02*
X154380952Y-139739666D01*
X154333333Y-139882523D01*
X154238095Y-139977761D01*
X154095238Y-140025380D01*
X154000000Y-140025380D01*
X155333333Y-140025380D02*
X154857142Y-140025380D01*
X154857142Y-139025380D01*
X156238095Y-139930142D02*
X156190476Y-139977761D01*
X156047619Y-140025380D01*
X155952380Y-140025380D01*
X155809523Y-139977761D01*
X155714285Y-139882523D01*
X155666666Y-139787285D01*
X155619047Y-139596809D01*
X155619047Y-139453952D01*
X155666666Y-139263476D01*
X155714285Y-139168238D01*
X155809523Y-139073000D01*
X155952380Y-139025380D01*
X156047619Y-139025380D01*
X156190476Y-139073000D01*
X156238095Y-139120619D01*
X156952380Y-139025380D02*
X156952380Y-139739666D01*
X156904761Y-139882523D01*
X156809523Y-139977761D01*
X156666666Y-140025380D01*
X156571428Y-140025380D01*
X157904761Y-140025380D02*
X157428571Y-140025380D01*
X157428571Y-139025380D01*
X158809523Y-139930142D02*
X158761904Y-139977761D01*
X158619047Y-140025380D01*
X158523809Y-140025380D01*
X158380952Y-139977761D01*
X158285714Y-139882523D01*
X158238095Y-139787285D01*
X158190476Y-139596809D01*
X158190476Y-139453952D01*
X158238095Y-139263476D01*
X158285714Y-139168238D01*
X158380952Y-139073000D01*
X158523809Y-139025380D01*
X158619047Y-139025380D01*
X158761904Y-139073000D01*
X158809523Y-139120619D01*
X159523809Y-139025380D02*
X159523809Y-139739666D01*
X159476190Y-139882523D01*
X159380952Y-139977761D01*
X159238095Y-140025380D01*
X159142857Y-140025380D01*
X160476190Y-140025380D02*
X160000000Y-140025380D01*
X160000000Y-139025380D01*
X161380952Y-139930142D02*
X161333333Y-139977761D01*
X161190476Y-140025380D01*
X161095238Y-140025380D01*
X160952380Y-139977761D01*
X160857142Y-139882523D01*
X160809523Y-139787285D01*
X160761904Y-139596809D01*
X160761904Y-139453952D01*
X160809523Y-139263476D01*
X160857142Y-139168238D01*
X160952380Y-139073000D01*
X161095238Y-139025380D01*
X161190476Y-139025380D01*
X161333333Y-139073000D01*
X161380952Y-139120619D01*
X162095238Y-139025380D02*
X162095238Y-139739666D01*
X162047619Y-139882523D01*
X161952380Y-139977761D01*
X161809523Y-140025380D01*
X161714285Y-140025380D01*
X163047619Y-140025380D02*
X162571428Y-140025380D01*
X162571428Y-139025380D01*
X163952380Y-139930142D02*
X163904761Y-139977761D01*
X163761904Y-140025380D01*
X163666666Y-140025380D01*
X163523809Y-139977761D01*
X163428571Y-139882523D01*
X163380952Y-139787285D01*
X163333333Y-139596809D01*
X163333333Y-139453952D01*
X163380952Y-139263476D01*
X163428571Y-139168238D01*
X163523809Y-139073000D01*
X163666666Y-139025380D01*
X163761904Y-139025380D01*
X163904761Y-139073000D01*
X163952380Y-139120619D01*
X107767367Y-106873761D02*
X107910225Y-106921380D01*
X108148320Y-106921380D01*
X108243558Y-106873761D01*
X108291177Y-106826142D01*
X108338796Y-106730904D01*
X108338796Y-106635666D01*
X108291177Y-106540428D01*
X108243558Y-106492809D01*
X108148320Y-106445190D01*
X107957844Y-106397571D01*
X107862606Y-106349952D01*
X107814987Y-106302333D01*
X107767367Y-106207095D01*
X107767367Y-106111857D01*
X107814987Y-106016619D01*
X107862606Y-105969000D01*
X107957844Y-105921380D01*
X108195939Y-105921380D01*
X108338796Y-105969000D01*
X108767367Y-106397571D02*
X109100701Y-106397571D01*
X109243558Y-106921380D02*
X108767367Y-106921380D01*
X108767367Y-105921380D01*
X109243558Y-105921380D01*
X110243558Y-106921380D02*
X109910225Y-106445190D01*
X109672129Y-106921380D02*
X109672129Y-105921380D01*
X110053082Y-105921380D01*
X110148320Y-105969000D01*
X110195939Y-106016619D01*
X110243558Y-106111857D01*
X110243558Y-106254714D01*
X110195939Y-106349952D01*
X110148320Y-106397571D01*
X110053082Y-106445190D01*
X109672129Y-106445190D01*
X110529272Y-105921380D02*
X110862606Y-106921380D01*
X111195939Y-105921380D01*
X111719748Y-105921380D02*
X111910225Y-105921380D01*
X112005463Y-105969000D01*
X112100701Y-106064238D01*
X112148320Y-106254714D01*
X112148320Y-106588047D01*
X112100701Y-106778523D01*
X112005463Y-106873761D01*
X111910225Y-106921380D01*
X111719748Y-106921380D01*
X111624510Y-106873761D01*
X111529272Y-106778523D01*
X111481653Y-106588047D01*
X111481653Y-106254714D01*
X111529272Y-106064238D01*
X111624510Y-105969000D01*
X111719748Y-105921380D01*
X113862606Y-106921380D02*
X113291177Y-106921380D01*
X113576891Y-106921380D02*
X113576891Y-105921380D01*
X113481653Y-106064238D01*
X113386415Y-106159476D01*
X113291177Y-106207095D01*
X103910095Y-85752571D02*
X104052952Y-85800190D01*
X104100571Y-85847809D01*
X104148190Y-85943047D01*
X104148190Y-86085904D01*
X104100571Y-86181142D01*
X104052952Y-86228761D01*
X103957714Y-86276380D01*
X103576761Y-86276380D01*
X103576761Y-85276380D01*
X103910095Y-85276380D01*
X104005333Y-85324000D01*
X104052952Y-85371619D01*
X104100571Y-85466857D01*
X104100571Y-85562095D01*
X104052952Y-85657333D01*
X104005333Y-85704952D01*
X103910095Y-85752571D01*
X103576761Y-85752571D01*
X104576761Y-85276380D02*
X104576761Y-86085904D01*
X104624380Y-86181142D01*
X104672000Y-86228761D01*
X104767238Y-86276380D01*
X104957714Y-86276380D01*
X105052952Y-86228761D01*
X105100571Y-86181142D01*
X105148190Y-86085904D01*
X105148190Y-85276380D01*
X105481523Y-85276380D02*
X106052952Y-85276380D01*
X105767238Y-86276380D02*
X105767238Y-85276380D01*
X106243428Y-85276380D02*
X106814857Y-85276380D01*
X106529142Y-86276380D02*
X106529142Y-85276380D01*
X107338666Y-85276380D02*
X107529142Y-85276380D01*
X107624380Y-85324000D01*
X107719619Y-85419238D01*
X107767238Y-85609714D01*
X107767238Y-85943047D01*
X107719619Y-86133523D01*
X107624380Y-86228761D01*
X107529142Y-86276380D01*
X107338666Y-86276380D01*
X107243428Y-86228761D01*
X107148190Y-86133523D01*
X107100571Y-85943047D01*
X107100571Y-85609714D01*
X107148190Y-85419238D01*
X107243428Y-85324000D01*
X107338666Y-85276380D01*
X108195809Y-86276380D02*
X108195809Y-85276380D01*
X108767238Y-86276380D01*
X108767238Y-85276380D01*
X117650095Y-67962666D02*
X118126285Y-67962666D01*
X117554857Y-68248380D02*
X117888190Y-67248380D01*
X118221523Y-68248380D01*
X118554857Y-68248380D02*
X118554857Y-67248380D01*
X119126285Y-68248380D01*
X119126285Y-67248380D01*
X119554857Y-67962666D02*
X120031047Y-67962666D01*
X119459619Y-68248380D02*
X119792952Y-67248380D01*
X120126285Y-68248380D01*
X120935809Y-68248380D02*
X120459619Y-68248380D01*
X120459619Y-67248380D01*
X121459619Y-67248380D02*
X121650095Y-67248380D01*
X121745333Y-67296000D01*
X121840571Y-67391238D01*
X121888190Y-67581714D01*
X121888190Y-67915047D01*
X121840571Y-68105523D01*
X121745333Y-68200761D01*
X121650095Y-68248380D01*
X121459619Y-68248380D01*
X121364380Y-68200761D01*
X121269142Y-68105523D01*
X121221523Y-67915047D01*
X121221523Y-67581714D01*
X121269142Y-67391238D01*
X121364380Y-67296000D01*
X121459619Y-67248380D01*
X122840571Y-67296000D02*
X122745333Y-67248380D01*
X122602476Y-67248380D01*
X122459619Y-67296000D01*
X122364380Y-67391238D01*
X122316761Y-67486476D01*
X122269142Y-67676952D01*
X122269142Y-67819809D01*
X122316761Y-68010285D01*
X122364380Y-68105523D01*
X122459619Y-68200761D01*
X122602476Y-68248380D01*
X122697714Y-68248380D01*
X122840571Y-68200761D01*
X122888190Y-68153142D01*
X122888190Y-67819809D01*
X122697714Y-67819809D01*
X124078666Y-68248380D02*
X124078666Y-67248380D01*
X124554857Y-68248380D02*
X124554857Y-67248380D01*
X125126285Y-68248380D01*
X125126285Y-67248380D01*
X146547619Y-96902997D02*
X145547619Y-97236331D01*
X146547619Y-97569664D01*
X145547619Y-97902997D02*
X146547619Y-97902997D01*
X145547619Y-98379188D02*
X146547619Y-98379188D01*
X145547619Y-98950616D01*
X146547619Y-98950616D01*
X128666952Y-135421380D02*
X128095523Y-135421380D01*
X128381238Y-135421380D02*
X128381238Y-134421380D01*
X128286000Y-134564238D01*
X128190761Y-134659476D01*
X128095523Y-134707095D01*
X129286000Y-134421380D02*
X129381238Y-134421380D01*
X129476476Y-134469000D01*
X129524095Y-134516619D01*
X129571714Y-134611857D01*
X129619333Y-134802333D01*
X129619333Y-135040428D01*
X129571714Y-135230904D01*
X129524095Y-135326142D01*
X129476476Y-135373761D01*
X129381238Y-135421380D01*
X129286000Y-135421380D01*
X129190761Y-135373761D01*
X129143142Y-135326142D01*
X129095523Y-135230904D01*
X129047904Y-135040428D01*
X129047904Y-134802333D01*
X129095523Y-134611857D01*
X129143142Y-134516619D01*
X129190761Y-134469000D01*
X129286000Y-134421380D01*
X130000285Y-135135666D02*
X130476476Y-135135666D01*
X129905047Y-135421380D02*
X130238380Y-134421380D01*
X130571714Y-135421380D01*
X159710380Y-59735404D02*
X158710380Y-59735404D01*
X158710380Y-59497309D01*
X158758000Y-59354452D01*
X158853238Y-59259214D01*
X158948476Y-59211595D01*
X159138952Y-59163976D01*
X159281809Y-59163976D01*
X159472285Y-59211595D01*
X159567523Y-59259214D01*
X159662761Y-59354452D01*
X159710380Y-59497309D01*
X159710380Y-59735404D01*
X159043714Y-58306833D02*
X159710380Y-58306833D01*
X158662761Y-58544928D02*
X159377047Y-58783023D01*
X159377047Y-58163976D01*
X136850380Y-59163976D02*
X136374190Y-59497309D01*
X136850380Y-59735404D02*
X135850380Y-59735404D01*
X135850380Y-59354452D01*
X135898000Y-59259214D01*
X135945619Y-59211595D01*
X136040857Y-59163976D01*
X136183714Y-59163976D01*
X136278952Y-59211595D01*
X136326571Y-59259214D01*
X136374190Y-59354452D01*
X136374190Y-59735404D01*
X136326571Y-58735404D02*
X136326571Y-58402071D01*
X136850380Y-58259214D02*
X136850380Y-58735404D01*
X135850380Y-58735404D01*
X135850380Y-58259214D01*
X136802761Y-57878261D02*
X136850380Y-57735404D01*
X136850380Y-57497309D01*
X136802761Y-57402071D01*
X136755142Y-57354452D01*
X136659904Y-57306833D01*
X136564666Y-57306833D01*
X136469428Y-57354452D01*
X136421809Y-57402071D01*
X136374190Y-57497309D01*
X136326571Y-57687785D01*
X136278952Y-57783023D01*
X136231333Y-57830642D01*
X136136095Y-57878261D01*
X136040857Y-57878261D01*
X135945619Y-57830642D01*
X135898000Y-57783023D01*
X135850380Y-57687785D01*
X135850380Y-57449690D01*
X135898000Y-57306833D01*
X136326571Y-56878261D02*
X136326571Y-56544928D01*
X136850380Y-56402071D02*
X136850380Y-56878261D01*
X135850380Y-56878261D01*
X135850380Y-56402071D01*
X135850380Y-56116357D02*
X135850380Y-55544928D01*
X136850380Y-55830642D02*
X135850380Y-55830642D01*
X107767367Y-129373761D02*
X107910225Y-129421380D01*
X108148320Y-129421380D01*
X108243558Y-129373761D01*
X108291177Y-129326142D01*
X108338796Y-129230904D01*
X108338796Y-129135666D01*
X108291177Y-129040428D01*
X108243558Y-128992809D01*
X108148320Y-128945190D01*
X107957844Y-128897571D01*
X107862606Y-128849952D01*
X107814987Y-128802333D01*
X107767367Y-128707095D01*
X107767367Y-128611857D01*
X107814987Y-128516619D01*
X107862606Y-128469000D01*
X107957844Y-128421380D01*
X108195939Y-128421380D01*
X108338796Y-128469000D01*
X108767367Y-128897571D02*
X109100701Y-128897571D01*
X109243558Y-129421380D02*
X108767367Y-129421380D01*
X108767367Y-128421380D01*
X109243558Y-128421380D01*
X110243558Y-129421380D02*
X109910225Y-128945190D01*
X109672129Y-129421380D02*
X109672129Y-128421380D01*
X110053082Y-128421380D01*
X110148320Y-128469000D01*
X110195939Y-128516619D01*
X110243558Y-128611857D01*
X110243558Y-128754714D01*
X110195939Y-128849952D01*
X110148320Y-128897571D01*
X110053082Y-128945190D01*
X109672129Y-128945190D01*
X110529272Y-128421380D02*
X110862606Y-129421380D01*
X111195939Y-128421380D01*
X111719748Y-128421380D02*
X111910225Y-128421380D01*
X112005463Y-128469000D01*
X112100701Y-128564238D01*
X112148320Y-128754714D01*
X112148320Y-129088047D01*
X112100701Y-129278523D01*
X112005463Y-129373761D01*
X111910225Y-129421380D01*
X111719748Y-129421380D01*
X111624510Y-129373761D01*
X111529272Y-129278523D01*
X111481653Y-129088047D01*
X111481653Y-128754714D01*
X111529272Y-128564238D01*
X111624510Y-128469000D01*
X111719748Y-128421380D01*
X113243558Y-128421380D02*
X113862606Y-128421380D01*
X113529272Y-128802333D01*
X113672129Y-128802333D01*
X113767367Y-128849952D01*
X113814987Y-128897571D01*
X113862606Y-128992809D01*
X113862606Y-129230904D01*
X113814987Y-129326142D01*
X113767367Y-129373761D01*
X113672129Y-129421380D01*
X113386415Y-129421380D01*
X113291177Y-129373761D01*
X113243558Y-129326142D01*
X117816761Y-77265380D02*
X117816761Y-76265380D01*
X118054857Y-76265380D01*
X118197714Y-76313000D01*
X118292952Y-76408238D01*
X118340571Y-76503476D01*
X118388190Y-76693952D01*
X118388190Y-76836809D01*
X118340571Y-77027285D01*
X118292952Y-77122523D01*
X118197714Y-77217761D01*
X118054857Y-77265380D01*
X117816761Y-77265380D01*
X118816761Y-77265380D02*
X118816761Y-76265380D01*
X119816761Y-76313000D02*
X119721523Y-76265380D01*
X119578666Y-76265380D01*
X119435809Y-76313000D01*
X119340571Y-76408238D01*
X119292952Y-76503476D01*
X119245333Y-76693952D01*
X119245333Y-76836809D01*
X119292952Y-77027285D01*
X119340571Y-77122523D01*
X119435809Y-77217761D01*
X119578666Y-77265380D01*
X119673904Y-77265380D01*
X119816761Y-77217761D01*
X119864380Y-77170142D01*
X119864380Y-76836809D01*
X119673904Y-76836809D01*
X120292952Y-77265380D02*
X120292952Y-76265380D01*
X120626285Y-76265380D02*
X121197714Y-76265380D01*
X120912000Y-77265380D02*
X120912000Y-76265380D01*
X121483428Y-76979666D02*
X121959619Y-76979666D01*
X121388190Y-77265380D02*
X121721523Y-76265380D01*
X122054857Y-77265380D01*
X122864380Y-77265380D02*
X122388190Y-77265380D01*
X122388190Y-76265380D01*
X123959619Y-77265380D02*
X123959619Y-76265380D01*
X124435809Y-77265380D02*
X124435809Y-76265380D01*
X125007238Y-77265380D01*
X125007238Y-76265380D01*
X144184666Y-59783023D02*
X144184666Y-59306833D01*
X144470380Y-59878261D02*
X143470380Y-59544928D01*
X144470380Y-59211595D01*
X143470380Y-58973500D02*
X143470380Y-58306833D01*
X144470380Y-58735404D01*
X128666952Y-124171380D02*
X128095523Y-124171380D01*
X128381238Y-124171380D02*
X128381238Y-123171380D01*
X128286000Y-123314238D01*
X128190761Y-123409476D01*
X128095523Y-123457095D01*
X129286000Y-123171380D02*
X129381238Y-123171380D01*
X129476476Y-123219000D01*
X129524095Y-123266619D01*
X129571714Y-123361857D01*
X129619333Y-123552333D01*
X129619333Y-123790428D01*
X129571714Y-123980904D01*
X129524095Y-124076142D01*
X129476476Y-124123761D01*
X129381238Y-124171380D01*
X129286000Y-124171380D01*
X129190761Y-124123761D01*
X129143142Y-124076142D01*
X129095523Y-123980904D01*
X129047904Y-123790428D01*
X129047904Y-123552333D01*
X129095523Y-123361857D01*
X129143142Y-123266619D01*
X129190761Y-123219000D01*
X129286000Y-123171380D01*
X130000285Y-123885666D02*
X130476476Y-123885666D01*
X129905047Y-124171380D02*
X130238380Y-123171380D01*
X130571714Y-124171380D01*
X128412952Y-112921380D02*
X127841523Y-112921380D01*
X128127238Y-112921380D02*
X128127238Y-111921380D01*
X128032000Y-112064238D01*
X127936761Y-112159476D01*
X127841523Y-112207095D01*
X129032000Y-111921380D02*
X129127238Y-111921380D01*
X129222476Y-111969000D01*
X129270095Y-112016619D01*
X129317714Y-112111857D01*
X129365333Y-112302333D01*
X129365333Y-112540428D01*
X129317714Y-112730904D01*
X129270095Y-112826142D01*
X129222476Y-112873761D01*
X129127238Y-112921380D01*
X129032000Y-112921380D01*
X128936761Y-112873761D01*
X128889142Y-112826142D01*
X128841523Y-112730904D01*
X128793904Y-112540428D01*
X128793904Y-112302333D01*
X128841523Y-112111857D01*
X128889142Y-112016619D01*
X128936761Y-111969000D01*
X129032000Y-111921380D01*
X129746285Y-112635666D02*
X130222476Y-112635666D01*
X129651047Y-112921380D02*
X129984380Y-111921380D01*
X130317714Y-112921380D01*
X107767367Y-140623761D02*
X107910225Y-140671380D01*
X108148320Y-140671380D01*
X108243558Y-140623761D01*
X108291177Y-140576142D01*
X108338796Y-140480904D01*
X108338796Y-140385666D01*
X108291177Y-140290428D01*
X108243558Y-140242809D01*
X108148320Y-140195190D01*
X107957844Y-140147571D01*
X107862606Y-140099952D01*
X107814987Y-140052333D01*
X107767367Y-139957095D01*
X107767367Y-139861857D01*
X107814987Y-139766619D01*
X107862606Y-139719000D01*
X107957844Y-139671380D01*
X108195939Y-139671380D01*
X108338796Y-139719000D01*
X108767367Y-140147571D02*
X109100701Y-140147571D01*
X109243558Y-140671380D02*
X108767367Y-140671380D01*
X108767367Y-139671380D01*
X109243558Y-139671380D01*
X110243558Y-140671380D02*
X109910225Y-140195190D01*
X109672129Y-140671380D02*
X109672129Y-139671380D01*
X110053082Y-139671380D01*
X110148320Y-139719000D01*
X110195939Y-139766619D01*
X110243558Y-139861857D01*
X110243558Y-140004714D01*
X110195939Y-140099952D01*
X110148320Y-140147571D01*
X110053082Y-140195190D01*
X109672129Y-140195190D01*
X110529272Y-139671380D02*
X110862606Y-140671380D01*
X111195939Y-139671380D01*
X111719748Y-139671380D02*
X111910225Y-139671380D01*
X112005463Y-139719000D01*
X112100701Y-139814238D01*
X112148320Y-140004714D01*
X112148320Y-140338047D01*
X112100701Y-140528523D01*
X112005463Y-140623761D01*
X111910225Y-140671380D01*
X111719748Y-140671380D01*
X111624510Y-140623761D01*
X111529272Y-140528523D01*
X111481653Y-140338047D01*
X111481653Y-140004714D01*
X111529272Y-139814238D01*
X111624510Y-139719000D01*
X111719748Y-139671380D01*
X113767367Y-140004714D02*
X113767367Y-140671380D01*
X113529272Y-139623761D02*
X113291177Y-140338047D01*
X113910225Y-140338047D01*
X119816761Y-85282380D02*
X119816761Y-86091904D01*
X119864380Y-86187142D01*
X119912000Y-86234761D01*
X120007238Y-86282380D01*
X120197714Y-86282380D01*
X120292952Y-86234761D01*
X120340571Y-86187142D01*
X120388190Y-86091904D01*
X120388190Y-85282380D01*
X120816761Y-85996666D02*
X121292952Y-85996666D01*
X120721523Y-86282380D02*
X121054857Y-85282380D01*
X121388190Y-86282380D01*
X122292952Y-86282380D02*
X121959619Y-85806190D01*
X121721523Y-86282380D02*
X121721523Y-85282380D01*
X122102476Y-85282380D01*
X122197714Y-85330000D01*
X122245333Y-85377619D01*
X122292952Y-85472857D01*
X122292952Y-85615714D01*
X122245333Y-85710952D01*
X122197714Y-85758571D01*
X122102476Y-85806190D01*
X121721523Y-85806190D01*
X122578666Y-85282380D02*
X123150095Y-85282380D01*
X122864380Y-86282380D02*
X122864380Y-85282380D01*
X102410095Y-76259380D02*
X102410095Y-76973666D01*
X102362476Y-77116523D01*
X102267238Y-77211761D01*
X102124380Y-77259380D01*
X102029142Y-77259380D01*
X103076761Y-76259380D02*
X103267238Y-76259380D01*
X103362476Y-76307000D01*
X103457714Y-76402238D01*
X103505333Y-76592714D01*
X103505333Y-76926047D01*
X103457714Y-77116523D01*
X103362476Y-77211761D01*
X103267238Y-77259380D01*
X103076761Y-77259380D01*
X102981523Y-77211761D01*
X102886285Y-77116523D01*
X102838666Y-76926047D01*
X102838666Y-76592714D01*
X102886285Y-76402238D01*
X102981523Y-76307000D01*
X103076761Y-76259380D01*
X104124380Y-76783190D02*
X104124380Y-77259380D01*
X103791047Y-76259380D02*
X104124380Y-76783190D01*
X104457714Y-76259380D01*
X104743428Y-77211761D02*
X104886285Y-77259380D01*
X105124380Y-77259380D01*
X105219619Y-77211761D01*
X105267238Y-77164142D01*
X105314857Y-77068904D01*
X105314857Y-76973666D01*
X105267238Y-76878428D01*
X105219619Y-76830809D01*
X105124380Y-76783190D01*
X104933904Y-76735571D01*
X104838666Y-76687952D01*
X104791047Y-76640333D01*
X104743428Y-76545095D01*
X104743428Y-76449857D01*
X104791047Y-76354619D01*
X104838666Y-76307000D01*
X104933904Y-76259380D01*
X105172000Y-76259380D01*
X105314857Y-76307000D01*
X105600571Y-76259380D02*
X106172000Y-76259380D01*
X105886285Y-77259380D02*
X105886285Y-76259380D01*
X106505333Y-77259380D02*
X106505333Y-76259380D01*
X107552952Y-77164142D02*
X107505333Y-77211761D01*
X107362476Y-77259380D01*
X107267238Y-77259380D01*
X107124380Y-77211761D01*
X107029142Y-77116523D01*
X106981523Y-77021285D01*
X106933904Y-76830809D01*
X106933904Y-76687952D01*
X106981523Y-76497476D01*
X107029142Y-76402238D01*
X107124380Y-76307000D01*
X107267238Y-76259380D01*
X107362476Y-76259380D01*
X107505333Y-76307000D01*
X107552952Y-76354619D01*
X107981523Y-77259380D02*
X107981523Y-76259380D01*
X108552952Y-77259380D02*
X108124380Y-76687952D01*
X108552952Y-76259380D02*
X107981523Y-76830809D01*
X110267238Y-77259380D02*
X109695809Y-77259380D01*
X109981523Y-77259380D02*
X109981523Y-76259380D01*
X109886285Y-76402238D01*
X109791047Y-76497476D01*
X109695809Y-76545095D01*
X146547619Y-119176331D02*
X145547619Y-119509664D01*
X146547619Y-119842997D01*
X146547619Y-120366807D02*
X146547619Y-120557283D01*
X146500000Y-120652521D01*
X146404761Y-120747759D01*
X146214285Y-120795378D01*
X145880952Y-120795378D01*
X145690476Y-120747759D01*
X145595238Y-120652521D01*
X145547619Y-120557283D01*
X145547619Y-120366807D01*
X145595238Y-120271569D01*
X145690476Y-120176331D01*
X145880952Y-120128712D01*
X146214285Y-120128712D01*
X146404761Y-120176331D01*
X146500000Y-120271569D01*
X146547619Y-120366807D01*
X146547619Y-121223950D02*
X145738095Y-121223950D01*
X145642857Y-121271569D01*
X145595238Y-121319188D01*
X145547619Y-121414426D01*
X145547619Y-121604902D01*
X145595238Y-121700140D01*
X145642857Y-121747759D01*
X145738095Y-121795378D01*
X146547619Y-121795378D01*
X146547619Y-122128712D02*
X146547619Y-122700140D01*
X145547619Y-122414426D02*
X146547619Y-122414426D01*
X140930380Y-59259214D02*
X140930380Y-59735404D01*
X141406571Y-59783023D01*
X141358952Y-59735404D01*
X141311333Y-59640166D01*
X141311333Y-59402071D01*
X141358952Y-59306833D01*
X141406571Y-59259214D01*
X141501809Y-59211595D01*
X141739904Y-59211595D01*
X141835142Y-59259214D01*
X141882761Y-59306833D01*
X141930380Y-59402071D01*
X141930380Y-59640166D01*
X141882761Y-59735404D01*
X141835142Y-59783023D01*
X140930380Y-58925880D02*
X141930380Y-58592547D01*
X140930380Y-58259214D01*
X153630380Y-59830642D02*
X153630380Y-59211595D01*
X154011333Y-59544928D01*
X154011333Y-59402071D01*
X154058952Y-59306833D01*
X154106571Y-59259214D01*
X154201809Y-59211595D01*
X154439904Y-59211595D01*
X154535142Y-59259214D01*
X154582761Y-59306833D01*
X154630380Y-59402071D01*
X154630380Y-59687785D01*
X154582761Y-59783023D01*
X154535142Y-59830642D01*
X154535142Y-58783023D02*
X154582761Y-58735404D01*
X154630380Y-58783023D01*
X154582761Y-58830642D01*
X154535142Y-58783023D01*
X154630380Y-58783023D01*
X153630380Y-58402071D02*
X153630380Y-57783023D01*
X154011333Y-58116357D01*
X154011333Y-57973500D01*
X154058952Y-57878261D01*
X154106571Y-57830642D01*
X154201809Y-57783023D01*
X154439904Y-57783023D01*
X154535142Y-57830642D01*
X154582761Y-57878261D01*
X154630380Y-57973500D01*
X154630380Y-58259214D01*
X154582761Y-58354452D01*
X154535142Y-58402071D01*
X153630380Y-57497309D02*
X154630380Y-57163976D01*
X153630380Y-56830642D01*
X162250380Y-59735404D02*
X161250380Y-59735404D01*
X161250380Y-59497309D01*
X161298000Y-59354452D01*
X161393238Y-59259214D01*
X161488476Y-59211595D01*
X161678952Y-59163976D01*
X161821809Y-59163976D01*
X162012285Y-59211595D01*
X162107523Y-59259214D01*
X162202761Y-59354452D01*
X162250380Y-59497309D01*
X162250380Y-59735404D01*
X161250380Y-58259214D02*
X161250380Y-58735404D01*
X161726571Y-58783023D01*
X161678952Y-58735404D01*
X161631333Y-58640166D01*
X161631333Y-58402071D01*
X161678952Y-58306833D01*
X161726571Y-58259214D01*
X161821809Y-58211595D01*
X162059904Y-58211595D01*
X162155142Y-58259214D01*
X162202761Y-58306833D01*
X162250380Y-58402071D01*
X162250380Y-58640166D01*
X162202761Y-58735404D01*
X162155142Y-58783023D01*
D12*
X119395000Y-92532000D02*
X119395000Y-89382000D01*
X103695000Y-95082000D02*
X116545000Y-95082000D01*
X116545000Y-95082000D02*
X119395000Y-92532000D01*
X103695000Y-86782000D02*
X103695000Y-95082000D01*
X119395000Y-89382000D02*
X116545000Y-86782000D01*
X116545000Y-86782000D02*
X103695000Y-86782000D01*
X135063000Y-63179000D02*
X165663000Y-63179000D01*
X165663000Y-63179000D02*
X165663000Y-60519000D01*
X135063000Y-60519000D02*
X165663000Y-60519000D01*
X135063000Y-63179000D02*
X135063000Y-60519000D01*
X114460014Y-100198991D02*
X116564976Y-100198991D01*
X107669961Y-97139002D02*
X113960014Y-97139002D01*
X105064999Y-100198991D02*
X107169961Y-100198991D01*
X107169961Y-100198991D02*
X107169961Y-97639002D01*
X116564976Y-105549000D02*
X109939335Y-105549000D01*
X114460014Y-97639002D02*
X114460014Y-100198991D01*
X116564976Y-100198991D02*
X116564976Y-105549000D01*
X105064999Y-105549000D02*
X105064999Y-100198991D01*
X108190632Y-105549000D02*
X105064999Y-105549000D01*
X107669961Y-97139002D02*
G75*
G03*
X107169961Y-97639002I1J-500001D01*
G01*
X114460016Y-97639002D02*
G75*
G03*
X113960014Y-97139002I-499999J1D01*
G01*
X107169961Y-122698991D02*
X107169961Y-120139002D01*
X114460014Y-122698991D02*
X116564976Y-122698991D01*
X107669961Y-119639002D02*
X113960014Y-119639002D01*
X105064999Y-128049000D02*
X105064999Y-122698991D01*
X116564976Y-128049000D02*
X109939335Y-128049000D01*
X114460014Y-120139002D02*
X114460014Y-122698991D01*
X105064999Y-122698991D02*
X107169961Y-122698991D01*
X116564976Y-122698991D02*
X116564976Y-128049000D01*
X108190632Y-128049000D02*
X105064999Y-128049000D01*
X107669961Y-119639002D02*
G75*
G03*
X107169961Y-120139002I1J-500001D01*
G01*
X114460016Y-120139002D02*
G75*
G03*
X113960014Y-119639002I-499999J1D01*
G01*
X139382500Y-120163000D02*
X119189500Y-120163000D01*
X139382500Y-127275000D02*
X139382500Y-120163000D01*
X119189500Y-120163000D02*
X119189500Y-127275000D01*
X119189500Y-127275000D02*
X139382500Y-127275000D01*
X111322000Y-80322000D02*
X111322000Y-79342000D01*
X110092000Y-77842000D02*
X102252000Y-77842000D01*
X111322000Y-84662000D02*
X111322000Y-82132000D01*
X101152000Y-82132000D02*
X101022000Y-82132000D01*
X110092000Y-79342000D02*
X110092000Y-77842000D01*
X111322000Y-79342000D02*
X110092000Y-79342000D01*
X111322000Y-82132000D02*
X111192000Y-82132000D01*
X101022000Y-79342000D02*
X101022000Y-80322000D01*
X101152000Y-80322000D02*
X101152000Y-82132000D01*
X101022000Y-82132000D02*
X101022000Y-84662000D01*
X101022000Y-80322000D02*
X101152000Y-80322000D01*
X101022000Y-84662000D02*
X111322000Y-84662000D01*
X111192000Y-80322000D02*
X111322000Y-80322000D01*
X111192000Y-82132000D02*
X111192000Y-80322000D01*
X102252000Y-77842000D02*
X102252000Y-79342000D01*
X102252000Y-79342000D02*
X101022000Y-79342000D01*
X111322000Y-64132000D02*
X111192000Y-64132000D01*
X110092000Y-59842000D02*
X102252000Y-59842000D01*
X101022000Y-66662000D02*
X111322000Y-66662000D01*
X101022000Y-62322000D02*
X101152000Y-62322000D01*
X101152000Y-64132000D02*
X101022000Y-64132000D01*
X101152000Y-62322000D02*
X101152000Y-64132000D01*
X111322000Y-66662000D02*
X111322000Y-64132000D01*
X111322000Y-61342000D02*
X110092000Y-61342000D01*
X110092000Y-61342000D02*
X110092000Y-59842000D01*
X111322000Y-62322000D02*
X111322000Y-61342000D01*
X102252000Y-59842000D02*
X102252000Y-61342000D01*
X101022000Y-64132000D02*
X101022000Y-66662000D01*
X111192000Y-64132000D02*
X111192000Y-62322000D01*
X101022000Y-61342000D02*
X101022000Y-62322000D01*
X111192000Y-62322000D02*
X111322000Y-62322000D01*
X102252000Y-61342000D02*
X101022000Y-61342000D01*
X105064999Y-139299000D02*
X105064999Y-133948991D01*
X116564976Y-139299000D02*
X109939335Y-139299000D01*
X108190632Y-139299000D02*
X105064999Y-139299000D01*
X105064999Y-133948991D02*
X107169961Y-133948991D01*
X114460014Y-133948991D02*
X116564976Y-133948991D01*
X114460014Y-131389002D02*
X114460014Y-133948991D01*
X107669961Y-130889002D02*
X113960014Y-130889002D01*
X116564976Y-133948991D02*
X116564976Y-139299000D01*
X107169961Y-133948991D02*
X107169961Y-131389002D01*
X114460016Y-131389002D02*
G75*
G03*
X113960014Y-130889002I-499999J1D01*
G01*
X107669961Y-130889002D02*
G75*
G03*
X107169961Y-131389002I1J-500001D01*
G01*
G36*
X158855910Y-93033342D02*
G01*
X158878687Y-93040367D01*
X158912288Y-93052149D01*
X158954001Y-93067697D01*
X159001119Y-93086023D01*
X159050930Y-93106137D01*
X159061853Y-93110651D01*
X159101303Y-93127547D01*
X159127221Y-93140341D01*
X159142586Y-93150971D01*
X159150379Y-93161375D01*
X159152994Y-93169908D01*
X159154488Y-93181869D01*
X159157568Y-93210077D01*
X159162107Y-93253281D01*
X159167978Y-93310226D01*
X159175054Y-93379660D01*
X159183209Y-93460330D01*
X159192317Y-93550983D01*
X159202250Y-93650367D01*
X159212883Y-93757229D01*
X159224089Y-93870315D01*
X159235741Y-93988373D01*
X159238613Y-94017543D01*
X159319734Y-94841879D01*
X159355510Y-94850894D01*
X159504201Y-94897251D01*
X159645533Y-94959544D01*
X159779574Y-95037813D01*
X159906390Y-95132096D01*
X160015963Y-95232237D01*
X160124402Y-95352589D01*
X160217420Y-95480664D01*
X160294692Y-95615895D01*
X160355890Y-95757719D01*
X160397621Y-95893157D01*
X160406692Y-95929141D01*
X160558387Y-95944805D01*
X160612981Y-95950461D01*
X160679997Y-95957432D01*
X160754369Y-95965190D01*
X160831031Y-95973205D01*
X160904919Y-95980950D01*
X160929881Y-95983572D01*
X161149680Y-96006674D01*
X161156820Y-96076991D01*
X161158292Y-96100817D01*
X161159312Y-96136742D01*
X161159909Y-96181907D01*
X161160111Y-96233450D01*
X161159947Y-96288513D01*
X161159447Y-96344235D01*
X161158639Y-96397755D01*
X161157552Y-96446213D01*
X161156215Y-96486750D01*
X161154657Y-96516506D01*
X161152906Y-96532619D01*
X161152200Y-96534566D01*
X161143085Y-96536104D01*
X161118357Y-96539216D01*
X161079897Y-96543691D01*
X161029586Y-96549320D01*
X160969305Y-96555893D01*
X160900934Y-96563202D01*
X160826354Y-96571037D01*
X160802146Y-96573552D01*
X160724739Y-96581655D01*
X160651866Y-96589436D01*
X160585600Y-96596664D01*
X160528016Y-96603106D01*
X160481187Y-96608528D01*
X160447187Y-96612699D01*
X160428089Y-96615384D01*
X160425889Y-96615795D01*
X160413100Y-96619283D01*
X160403327Y-96625356D01*
X160394748Y-96637037D01*
X160385539Y-96657348D01*
X160373879Y-96689312D01*
X160363774Y-96718786D01*
X160305026Y-96864679D01*
X160231243Y-97002219D01*
X160143340Y-97130452D01*
X160042233Y-97248423D01*
X159928839Y-97355177D01*
X159804074Y-97449761D01*
X159668854Y-97531218D01*
X159524096Y-97598596D01*
X159516458Y-97601644D01*
X159473544Y-97617458D01*
X159426399Y-97633039D01*
X159385163Y-97645039D01*
X159384827Y-97645126D01*
X159321448Y-97661588D01*
X159232614Y-98520199D01*
X159220009Y-98641320D01*
X159207776Y-98757506D01*
X159196047Y-98867562D01*
X159184957Y-98970290D01*
X159174639Y-99064495D01*
X159165228Y-99148981D01*
X159156858Y-99222552D01*
X159149661Y-99284011D01*
X159143773Y-99332163D01*
X159139327Y-99365811D01*
X159136456Y-99383760D01*
X159135654Y-99386473D01*
X159123247Y-99393591D01*
X159097808Y-99405154D01*
X159062900Y-99419792D01*
X159022084Y-99436130D01*
X158978920Y-99452796D01*
X158936972Y-99468416D01*
X158899800Y-99481619D01*
X158870966Y-99491031D01*
X158854032Y-99495279D01*
X158853166Y-99495365D01*
X158828955Y-99497049D01*
X158809193Y-99312417D01*
X158852688Y-99193726D01*
X158887791Y-99096477D01*
X158916636Y-99012552D01*
X158939815Y-98939080D01*
X158957920Y-98873189D01*
X158971546Y-98812009D01*
X158981283Y-98752669D01*
X158987724Y-98692297D01*
X158991462Y-98628024D01*
X158993089Y-98556977D01*
X158993299Y-98512348D01*
X158992548Y-98434579D01*
X158989891Y-98365239D01*
X158984722Y-98301419D01*
X158976435Y-98240212D01*
X158964422Y-98178708D01*
X158948079Y-98113999D01*
X158926799Y-98043177D01*
X158899975Y-97963334D01*
X158867002Y-97871560D01*
X158850361Y-97826574D01*
X158807484Y-97695000D01*
X158779441Y-97569296D01*
X158765821Y-97446575D01*
X158766209Y-97323952D01*
X158770648Y-97269883D01*
X158778180Y-97210443D01*
X158788413Y-97153787D01*
X158802379Y-97096029D01*
X158821107Y-97033284D01*
X158845630Y-96961665D01*
X158869851Y-96896062D01*
X158906708Y-96794793D01*
X158935936Y-96705077D01*
X158958298Y-96623014D01*
X158974552Y-96544703D01*
X158985461Y-96466244D01*
X158991783Y-96383734D01*
X158994280Y-96293275D01*
X158994387Y-96257208D01*
X158992797Y-96168212D01*
X158987979Y-96087964D01*
X158979184Y-96012736D01*
X158965665Y-95938801D01*
X158946673Y-95862433D01*
X158921459Y-95779904D01*
X158889275Y-95687487D01*
X158869043Y-95632978D01*
X158846425Y-95570593D01*
X158825505Y-95508336D01*
X158807699Y-95450707D01*
X158794427Y-95402207D01*
X158789378Y-95380102D01*
X158778284Y-95310438D01*
X158770671Y-95231378D01*
X158766852Y-95149539D01*
X158767138Y-95071541D01*
X158771696Y-95005274D01*
X158778732Y-94954794D01*
X158788650Y-94904252D01*
X158802356Y-94850390D01*
X158820757Y-94789951D01*
X158844758Y-94719678D01*
X158871580Y-94646182D01*
X158906065Y-94551037D01*
X158933625Y-94468069D01*
X158954981Y-94393618D01*
X158970851Y-94324026D01*
X158981954Y-94255633D01*
X158989009Y-94184780D01*
X158992736Y-94107808D01*
X158993851Y-94024048D01*
X158992572Y-93928643D01*
X158987954Y-93843951D01*
X158979204Y-93765774D01*
X158965529Y-93689912D01*
X158946135Y-93612164D01*
X158920230Y-93528331D01*
X158887021Y-93434214D01*
X158877741Y-93409269D01*
X158823781Y-93265394D01*
X158834041Y-93150172D01*
X158838017Y-93107223D01*
X158841649Y-93071090D01*
X158844578Y-93045117D01*
X158846448Y-93032646D01*
X158846665Y-93032064D01*
X158855910Y-93033342D01*
G37*
G36*
X158181034Y-92964410D02*
G01*
X158265453Y-92984335D01*
X158320729Y-93007450D01*
X158394829Y-93054734D01*
X158460137Y-93115915D01*
X158515874Y-93189238D01*
X158561262Y-93272947D01*
X158595521Y-93365288D01*
X158617873Y-93464505D01*
X158627540Y-93568843D01*
X158623743Y-93676548D01*
X158622555Y-93687767D01*
X158604691Y-93794076D01*
X158576188Y-93887342D01*
X158536440Y-93968964D01*
X158484838Y-94040342D01*
X158455984Y-94071077D01*
X158406586Y-94119665D01*
X158332338Y-94033744D01*
X158304270Y-94000869D01*
X158280689Y-93972501D01*
X158263853Y-93951413D01*
X158256022Y-93940378D01*
X158255769Y-93939778D01*
X158260950Y-93930449D01*
X158276730Y-93916087D01*
X158286582Y-93908829D01*
X158321414Y-93876886D01*
X158355101Y-93831368D01*
X158384911Y-93776213D01*
X158395103Y-93752422D01*
X158406195Y-93711923D01*
X158413315Y-93659682D01*
X158416401Y-93601103D01*
X158415390Y-93541587D01*
X158410220Y-93486539D01*
X158400828Y-93441360D01*
X158398785Y-93434986D01*
X158369005Y-93362525D01*
X158333920Y-93305173D01*
X158291834Y-93260831D01*
X158241056Y-93227398D01*
X158225200Y-93219774D01*
X158197300Y-93208080D01*
X158173781Y-93201215D01*
X158148501Y-93198237D01*
X158115318Y-93198203D01*
X158090710Y-93199130D01*
X158048699Y-93201756D01*
X158018620Y-93206121D01*
X157994828Y-93213502D01*
X157971677Y-93225173D01*
X157969299Y-93226555D01*
X157937755Y-93248061D01*
X157909184Y-93274681D01*
X157882543Y-93308248D01*
X157856787Y-93350598D01*
X157830874Y-93403563D01*
X157803758Y-93468979D01*
X157774396Y-93548679D01*
X157756490Y-93600509D01*
X157731892Y-93672605D01*
X157711721Y-93730497D01*
X157694945Y-93776698D01*
X157680533Y-93813718D01*
X157667455Y-93844071D01*
X157654678Y-93870266D01*
X157641173Y-93894818D01*
X157625907Y-93920236D01*
X157623904Y-93923470D01*
X157572370Y-93993137D01*
X157511757Y-94052223D01*
X157444857Y-94098452D01*
X157374460Y-94129548D01*
X157369214Y-94131177D01*
X157314872Y-94142590D01*
X157249937Y-94148488D01*
X157180514Y-94148877D01*
X157112703Y-94143761D01*
X157052609Y-94133148D01*
X157043830Y-94130861D01*
X157008663Y-94121180D01*
X157007181Y-93985044D01*
X157005700Y-93848907D01*
X157037953Y-93869619D01*
X157077405Y-93891000D01*
X157117961Y-93903627D01*
X157165122Y-93908699D01*
X157214118Y-93907985D01*
X157261509Y-93903520D01*
X157302686Y-93894291D01*
X157338831Y-93878864D01*
X157371128Y-93855805D01*
X157400758Y-93823679D01*
X157428904Y-93781051D01*
X157456749Y-93726488D01*
X157485474Y-93658556D01*
X157516262Y-93575820D01*
X157536913Y-93516438D01*
X157570788Y-93419957D01*
X157601555Y-93338698D01*
X157630138Y-93270770D01*
X157657462Y-93214279D01*
X157684453Y-93167333D01*
X157712036Y-93128040D01*
X157741136Y-93094507D01*
X157745171Y-93090378D01*
X157805966Y-93037450D01*
X157870423Y-92998891D01*
X157941416Y-92973582D01*
X158021816Y-92960406D01*
X158085679Y-92957802D01*
X158181034Y-92964410D01*
G37*
G36*
X156424018Y-93107983D02*
G01*
X156431151Y-93117777D01*
X156438869Y-93139479D01*
X156448075Y-93174178D01*
X156457406Y-93207364D01*
X156471598Y-93252250D01*
X156489093Y-93304165D01*
X156508334Y-93358438D01*
X156519961Y-93389901D01*
X156539938Y-93444626D01*
X156559484Y-93500989D01*
X156576906Y-93553918D01*
X156590514Y-93598339D01*
X156595749Y-93617264D01*
X156623373Y-93751818D01*
X156639304Y-93895115D01*
X156643445Y-94042677D01*
X156635696Y-94190027D01*
X156615958Y-94332686D01*
X156612018Y-94353104D01*
X156607806Y-94373228D01*
X156603108Y-94393240D01*
X156597299Y-94415081D01*
X156589758Y-94440690D01*
X156579862Y-94472008D01*
X156566987Y-94510976D01*
X156550511Y-94559533D01*
X156529810Y-94619620D01*
X156504263Y-94693178D01*
X156486207Y-94744989D01*
X156452949Y-94851678D01*
X156430724Y-94951182D01*
X156418518Y-95049123D01*
X156415256Y-95137794D01*
X156417185Y-95215381D01*
X156423584Y-95288517D01*
X156435234Y-95360905D01*
X156452918Y-95436250D01*
X156477417Y-95518255D01*
X156509510Y-95610623D01*
X156522172Y-95644730D01*
X156563074Y-95760224D01*
X156594607Y-95865676D01*
X156617608Y-95965363D01*
X156632913Y-96063560D01*
X156641360Y-96164545D01*
X156643796Y-96266000D01*
X156641060Y-96373207D01*
X156632294Y-96473609D01*
X156616664Y-96571468D01*
X156593335Y-96671045D01*
X156561471Y-96776602D01*
X156521970Y-96887808D01*
X156486673Y-96985764D01*
X156459336Y-97072016D01*
X156439288Y-97150183D01*
X156425858Y-97223884D01*
X156418378Y-97296735D01*
X156416176Y-97372355D01*
X156418258Y-97447902D01*
X156423176Y-97518310D01*
X156431275Y-97582638D01*
X156443571Y-97645445D01*
X156461084Y-97711290D01*
X156484832Y-97784730D01*
X156507851Y-97848898D01*
X156541965Y-97942832D01*
X156569701Y-98023866D01*
X156591696Y-98095227D01*
X156608586Y-98160141D01*
X156621008Y-98221833D01*
X156629597Y-98283529D01*
X156634991Y-98348455D01*
X156637826Y-98419836D01*
X156638737Y-98500897D01*
X156638748Y-98512348D01*
X156638035Y-98595090D01*
X156635469Y-98667702D01*
X156630413Y-98733425D01*
X156622229Y-98795496D01*
X156610277Y-98857155D01*
X156593920Y-98921642D01*
X156572520Y-98992194D01*
X156545437Y-99072053D01*
X156512034Y-99164456D01*
X156508182Y-99174887D01*
X156489857Y-99225923D01*
X156472690Y-99276425D01*
X156458168Y-99321826D01*
X156447778Y-99357559D01*
X156444719Y-99369832D01*
X156431186Y-99429756D01*
X156363850Y-99400907D01*
X156298560Y-99371748D01*
X156228962Y-99338206D01*
X156151545Y-99298535D01*
X156065159Y-99252272D01*
X156023534Y-99229167D01*
X155995419Y-99212213D01*
X155978579Y-99199725D01*
X155970781Y-99190021D01*
X155969792Y-99181416D01*
X155969985Y-99180538D01*
X155974201Y-99166608D01*
X155983130Y-99139239D01*
X155995717Y-99101601D01*
X156010904Y-99056865D01*
X156022770Y-99022282D01*
X156047277Y-98948566D01*
X156066331Y-98883946D01*
X156080581Y-98824283D01*
X156090674Y-98765439D01*
X156097258Y-98703277D01*
X156100982Y-98633659D01*
X156102493Y-98552445D01*
X156102623Y-98512348D01*
X156102482Y-98450441D01*
X156101751Y-98396406D01*
X156099972Y-98348136D01*
X156096684Y-98303518D01*
X156091430Y-98260443D01*
X156083748Y-98216801D01*
X156073180Y-98170482D01*
X156059267Y-98119375D01*
X156041549Y-98061370D01*
X156019566Y-97994358D01*
X155992860Y-97916227D01*
X155960971Y-97824869D01*
X155939934Y-97765031D01*
X155912351Y-97676964D01*
X155893709Y-97592618D01*
X155882952Y-97505546D01*
X155879026Y-97409300D01*
X155878961Y-97392418D01*
X155879976Y-97323278D01*
X155883429Y-97261728D01*
X155890058Y-97204240D01*
X155900601Y-97147284D01*
X155915795Y-97087331D01*
X155936378Y-97020853D01*
X155963087Y-96944321D01*
X155984986Y-96885106D01*
X156017866Y-96795225D01*
X156044042Y-96717433D01*
X156064328Y-96647927D01*
X156079542Y-96582901D01*
X156090500Y-96518551D01*
X156098017Y-96451073D01*
X156102911Y-96376662D01*
X156104968Y-96325896D01*
X156106327Y-96216489D01*
X156102150Y-96116742D01*
X156091692Y-96022352D01*
X156074204Y-95929018D01*
X156048940Y-95832437D01*
X156015151Y-95728305D01*
X155988451Y-95655030D01*
X155958991Y-95575627D01*
X155935659Y-95509000D01*
X155917713Y-95451739D01*
X155904413Y-95400433D01*
X155895018Y-95351671D01*
X155888787Y-95302044D01*
X155884980Y-95248140D01*
X155882855Y-95186548D01*
X155882452Y-95167004D01*
X155881758Y-95092952D01*
X155882805Y-95033317D01*
X155885728Y-94985008D01*
X155890660Y-94944930D01*
X155892557Y-94934017D01*
X155900767Y-94897961D01*
X155913501Y-94851411D01*
X155929036Y-94800310D01*
X155945652Y-94750598D01*
X155946080Y-94749385D01*
X155980707Y-94651102D01*
X156009821Y-94567115D01*
X156033899Y-94495189D01*
X156053418Y-94433086D01*
X156068856Y-94378572D01*
X156080689Y-94329409D01*
X156089395Y-94283363D01*
X156095450Y-94238197D01*
X156099331Y-94191674D01*
X156101517Y-94141560D01*
X156102482Y-94085617D01*
X156102706Y-94021610D01*
X156102706Y-94015256D01*
X156101733Y-93923700D01*
X156098387Y-93845401D01*
X156091982Y-93776111D01*
X156081830Y-93711584D01*
X156067245Y-93647572D01*
X156047539Y-93579830D01*
X156022025Y-93504110D01*
X156018327Y-93493688D01*
X156002406Y-93448621D01*
X155988441Y-93408354D01*
X155977597Y-93376302D01*
X155971038Y-93355879D01*
X155969812Y-93351462D01*
X155970417Y-93342454D01*
X155978009Y-93332456D01*
X155994885Y-93319668D01*
X156023343Y-93302290D01*
X156056384Y-93283656D01*
X156089289Y-93265984D01*
X156131342Y-93244223D01*
X156179396Y-93219913D01*
X156230307Y-93194596D01*
X156280926Y-93169814D01*
X156328110Y-93147110D01*
X156368711Y-93128023D01*
X156399583Y-93114097D01*
X156416159Y-93107350D01*
X156424018Y-93107983D01*
G37*
G36*
X158578029Y-94735445D02*
G01*
X157938413Y-94738523D01*
X157810980Y-94739138D01*
X157699791Y-94739746D01*
X157603505Y-94740458D01*
X157520785Y-94741383D01*
X157450289Y-94742631D01*
X157390679Y-94744312D01*
X157340614Y-94746535D01*
X157298755Y-94749411D01*
X157263763Y-94753049D01*
X157234297Y-94757559D01*
X157209018Y-94763051D01*
X157186587Y-94769635D01*
X157165663Y-94777420D01*
X157144908Y-94786517D01*
X157122981Y-94797035D01*
X157102721Y-94807026D01*
X157028385Y-94852655D01*
X156966559Y-94909534D01*
X156918337Y-94976292D01*
X156884815Y-95051554D01*
X156873281Y-95094903D01*
X156867353Y-95137922D01*
X156864340Y-95191457D01*
X156864264Y-95248680D01*
X156867150Y-95302761D01*
X156872434Y-95343841D01*
X156895626Y-95421657D01*
X156934307Y-95492234D01*
X156987557Y-95554649D01*
X157054456Y-95607982D01*
X157134082Y-95651312D01*
X157206544Y-95678221D01*
X157219140Y-95682000D01*
X157231303Y-95685279D01*
X157244332Y-95688100D01*
X157259525Y-95690503D01*
X157278179Y-95692530D01*
X157301591Y-95694223D01*
X157331059Y-95695623D01*
X157367881Y-95696772D01*
X157413353Y-95697711D01*
X157468775Y-95698482D01*
X157535442Y-95699125D01*
X157614654Y-95699683D01*
X157707706Y-95700198D01*
X157815897Y-95700709D01*
X157925225Y-95701193D01*
X158578029Y-95704053D01*
X158578029Y-95931905D01*
X157979829Y-95931905D01*
X157841558Y-95931796D01*
X157719549Y-95931389D01*
X157612481Y-95930569D01*
X157519034Y-95929217D01*
X157437887Y-95927218D01*
X157367717Y-95924453D01*
X157307206Y-95920805D01*
X157255031Y-95916158D01*
X157209872Y-95910394D01*
X157170408Y-95903396D01*
X157135318Y-95895047D01*
X157103282Y-95885231D01*
X157072977Y-95873829D01*
X157043084Y-95860725D01*
X157013059Y-95846190D01*
X156947119Y-95813213D01*
X156913278Y-95720898D01*
X156881856Y-95634370D01*
X156856319Y-95562114D01*
X156836001Y-95502082D01*
X156820237Y-95452227D01*
X156808361Y-95410502D01*
X156799710Y-95374860D01*
X156797599Y-95364823D01*
X156790466Y-95318464D01*
X156784926Y-95260615D01*
X156781167Y-95196549D01*
X156779376Y-95131537D01*
X156779740Y-95070851D01*
X156782448Y-95019763D01*
X156784623Y-95000290D01*
X156794136Y-94939675D01*
X156805163Y-94885948D01*
X156819508Y-94831406D01*
X156838821Y-94768818D01*
X156866675Y-94682748D01*
X156924481Y-94644457D01*
X156999245Y-94601272D01*
X157081798Y-94566366D01*
X157164838Y-94540799D01*
X157178671Y-94537224D01*
X157192262Y-94534115D01*
X157206905Y-94531432D01*
X157223890Y-94529138D01*
X157244510Y-94527193D01*
X157270056Y-94525560D01*
X157301820Y-94524199D01*
X157341094Y-94523073D01*
X157389169Y-94522142D01*
X157447338Y-94521368D01*
X157516891Y-94520712D01*
X157599122Y-94520136D01*
X157695320Y-94519601D01*
X157806779Y-94519069D01*
X157907641Y-94518620D01*
X158578029Y-94515676D01*
X158578029Y-94735445D01*
G37*
G36*
X156898456Y-99138998D02*
G01*
X156898763Y-99141686D01*
X156903235Y-99157628D01*
X156915193Y-99184264D01*
X156932449Y-99217606D01*
X156952817Y-99253664D01*
X156974107Y-99288449D01*
X156994134Y-99317971D01*
X156998962Y-99324421D01*
X157025915Y-99357011D01*
X157056432Y-99390366D01*
X157077824Y-99411508D01*
X157098982Y-99431729D01*
X157113711Y-99447182D01*
X157118562Y-99453973D01*
X157113203Y-99462217D01*
X157098628Y-99480969D01*
X157077090Y-99507408D01*
X157051942Y-99537414D01*
X157021179Y-99572156D01*
X156996934Y-99596415D01*
X156980674Y-99608809D01*
X156975012Y-99609810D01*
X156948438Y-99590562D01*
X156915456Y-99561639D01*
X156880477Y-99527228D01*
X156847912Y-99491517D01*
X156838544Y-99480280D01*
X156817758Y-99454166D01*
X156802234Y-99433716D01*
X156794537Y-99422344D01*
X156794143Y-99421193D01*
X156796459Y-99411364D01*
X156801176Y-99390778D01*
X156802999Y-99382753D01*
X156810252Y-99355094D01*
X156820970Y-99319563D01*
X156833946Y-99279581D01*
X156847977Y-99238565D01*
X156861858Y-99199936D01*
X156874384Y-99167112D01*
X156884351Y-99143513D01*
X156890555Y-99132556D01*
X156891275Y-99132182D01*
X156898456Y-99138998D01*
G37*
G36*
X154713410Y-94659714D02*
G01*
X154706781Y-94681713D01*
X154696309Y-94713583D01*
X154683293Y-94751303D01*
X154657709Y-94829714D01*
X154639456Y-94900973D01*
X154627548Y-94971042D01*
X154620997Y-95045880D01*
X154618815Y-95131449D01*
X154618799Y-95140628D01*
X154619094Y-95192078D01*
X154620330Y-95237493D01*
X154623029Y-95279142D01*
X154627714Y-95319296D01*
X154634908Y-95360227D01*
X154645135Y-95404206D01*
X154658916Y-95453502D01*
X154676776Y-95510388D01*
X154699236Y-95577134D01*
X154726821Y-95656011D01*
X154757034Y-95740851D01*
X154781135Y-95811023D01*
X154799869Y-95873239D01*
X154813973Y-95931755D01*
X154824184Y-95990831D01*
X154831239Y-96054725D01*
X154835875Y-96127695D01*
X154838811Y-96213248D01*
X154840152Y-96307160D01*
X154838684Y-96389812D01*
X154833771Y-96464842D01*
X154824771Y-96535889D01*
X154811045Y-96606592D01*
X154791955Y-96680589D01*
X154766861Y-96761519D01*
X154735124Y-96853022D01*
X154718283Y-96899216D01*
X154697849Y-96956783D01*
X154678388Y-97015515D01*
X154661296Y-97070907D01*
X154647969Y-97118455D01*
X154640379Y-97150652D01*
X154620068Y-97293926D01*
X154616776Y-97434433D01*
X154630614Y-97573568D01*
X154661692Y-97712727D01*
X154692328Y-97806983D01*
X154703689Y-97839296D01*
X154711788Y-97864648D01*
X154715395Y-97879081D01*
X154715308Y-97880908D01*
X154710726Y-97874454D01*
X154700005Y-97854729D01*
X154684505Y-97824365D01*
X154665582Y-97785998D01*
X154654009Y-97762024D01*
X154553843Y-97533225D01*
X154470742Y-97300676D01*
X154404781Y-97064749D01*
X154356036Y-96825815D01*
X154324581Y-96584244D01*
X154310492Y-96340408D01*
X154313844Y-96094678D01*
X154314293Y-96085765D01*
X154333317Y-95865530D01*
X154367334Y-95643184D01*
X154415519Y-95422423D01*
X154477047Y-95206941D01*
X154551092Y-95000433D01*
X154563752Y-94969184D01*
X154577900Y-94935980D01*
X154595717Y-94895886D01*
X154615905Y-94851631D01*
X154637165Y-94805948D01*
X154658199Y-94761565D01*
X154677708Y-94721214D01*
X154694393Y-94687623D01*
X154706956Y-94663524D01*
X154714097Y-94651647D01*
X154715138Y-94650922D01*
X154713410Y-94659714D01*
G37*
G36*
X158578029Y-96726029D02*
G01*
X158577882Y-96819376D01*
X158577394Y-96897133D01*
X158576501Y-96961292D01*
X158575134Y-97013847D01*
X158573226Y-97056788D01*
X158570712Y-97092109D01*
X158567523Y-97121801D01*
X158563940Y-97145846D01*
X158539455Y-97250195D01*
X158503722Y-97341132D01*
X158456646Y-97418833D01*
X158398136Y-97483476D01*
X158379859Y-97499125D01*
X158324065Y-97537425D01*
X158265117Y-97563123D01*
X158198148Y-97578017D01*
X158154419Y-97582368D01*
X158061192Y-97580972D01*
X157976562Y-97564292D01*
X157900884Y-97532550D01*
X157834515Y-97485968D01*
X157777809Y-97424767D01*
X157731123Y-97349168D01*
X157712020Y-97306953D01*
X157692228Y-97258255D01*
X157677990Y-97321303D01*
X157650424Y-97405134D01*
X157608264Y-97480995D01*
X157553209Y-97547158D01*
X157486961Y-97601898D01*
X157411218Y-97643489D01*
X157336254Y-97668270D01*
X157257127Y-97679493D01*
X157173645Y-97678165D01*
X157091404Y-97664899D01*
X157016000Y-97640308D01*
X156995914Y-97630997D01*
X156949307Y-97601404D01*
X156901064Y-97560058D01*
X156855852Y-97511619D01*
X156818340Y-97460750D01*
X156807919Y-97443279D01*
X156793320Y-97415508D01*
X156783637Y-97391357D01*
X156778409Y-97366703D01*
X156777175Y-97337420D01*
X156779474Y-97299384D01*
X156784845Y-97248471D01*
X156785502Y-97242778D01*
X156798018Y-97167807D01*
X156818933Y-97082491D01*
X156847066Y-96991228D01*
X156870330Y-96926405D01*
X156904990Y-96835244D01*
X156910010Y-96974834D01*
X156915540Y-97065427D01*
X156925598Y-97141587D01*
X156941038Y-97206079D01*
X156962712Y-97261667D01*
X156991475Y-97311115D01*
X157028046Y-97357038D01*
X157075337Y-97396824D01*
X157132251Y-97424355D01*
X157195520Y-97439340D01*
X157261880Y-97441486D01*
X157328065Y-97430501D01*
X157390811Y-97406095D01*
X157415541Y-97391649D01*
X157450951Y-97366094D01*
X157478245Y-97339353D01*
X157501921Y-97306172D01*
X157525642Y-97262939D01*
X157539638Y-97232371D01*
X157550875Y-97200189D01*
X157559628Y-97164112D01*
X157566171Y-97121855D01*
X157570780Y-97071137D01*
X157573728Y-97009674D01*
X157575292Y-96935183D01*
X157575745Y-96846641D01*
X157575745Y-96608887D01*
X156975841Y-96608887D01*
X156975892Y-96608648D01*
X157785084Y-96608648D01*
X157788796Y-96848348D01*
X157790033Y-96921168D01*
X157791354Y-96978868D01*
X157792948Y-97023914D01*
X157795003Y-97058771D01*
X157797708Y-97085903D01*
X157801250Y-97107775D01*
X157805817Y-97126852D01*
X157811465Y-97145197D01*
X157841692Y-97213506D01*
X157882354Y-97267666D01*
X157933438Y-97307666D01*
X157994931Y-97333496D01*
X158060300Y-97344706D01*
X158133671Y-97343248D01*
X158197482Y-97327107D01*
X158251602Y-97296351D01*
X158295897Y-97251048D01*
X158322412Y-97207923D01*
X158336356Y-97178161D01*
X158347392Y-97148746D01*
X158355852Y-97117136D01*
X158362065Y-97080786D01*
X158366361Y-97037152D01*
X158369070Y-96983690D01*
X158370523Y-96917856D01*
X158371050Y-96837106D01*
X158371057Y-96833082D01*
X158371418Y-96613283D01*
X158078251Y-96610965D01*
X157785084Y-96608648D01*
X156975892Y-96608648D01*
X156981044Y-96584709D01*
X156984382Y-96565537D01*
X156989019Y-96534173D01*
X156994196Y-96495888D01*
X156996873Y-96474809D01*
X157007498Y-96389087D01*
X158578029Y-96389087D01*
X158578029Y-96726029D01*
G37*
G36*
X157735841Y-97957342D02*
G01*
X157861806Y-97975217D01*
X157984362Y-98007755D01*
X158091071Y-98050243D01*
X158200522Y-98111071D01*
X158300928Y-98186148D01*
X158390611Y-98273807D01*
X158467898Y-98372382D01*
X158531113Y-98480209D01*
X158538202Y-98494804D01*
X158579252Y-98598190D01*
X158607490Y-98706514D01*
X158623241Y-98817723D01*
X158626830Y-98929766D01*
X158618583Y-99040588D01*
X158598826Y-99148139D01*
X158567883Y-99250365D01*
X158526081Y-99345215D01*
X158473743Y-99430634D01*
X158411197Y-99504572D01*
X158372570Y-99539594D01*
X158333665Y-99571474D01*
X158266820Y-99479300D01*
X158241800Y-99444368D01*
X158221044Y-99414564D01*
X158206498Y-99392746D01*
X158200109Y-99381772D01*
X158199974Y-99381209D01*
X158205723Y-99372790D01*
X158221215Y-99354838D01*
X158243825Y-99330318D01*
X158261430Y-99311913D01*
X158322073Y-99237379D01*
X158367968Y-99155400D01*
X158399362Y-99067716D01*
X158416500Y-98976068D01*
X158419629Y-98882198D01*
X158408993Y-98787846D01*
X158384839Y-98694753D01*
X158347413Y-98604660D01*
X158296960Y-98519308D01*
X158233727Y-98440439D01*
X158157959Y-98369794D01*
X158124851Y-98344694D01*
X158062787Y-98305704D01*
X157990633Y-98268883D01*
X157915837Y-98237704D01*
X157850791Y-98216908D01*
X157781731Y-98203391D01*
X157702656Y-98195385D01*
X157620332Y-98193140D01*
X157541523Y-98196907D01*
X157490507Y-98203527D01*
X157372353Y-98232144D01*
X157264525Y-98274949D01*
X157166841Y-98332029D01*
X157079142Y-98403455D01*
X157051980Y-98428945D01*
X157029838Y-98449139D01*
X157015593Y-98461446D01*
X157011909Y-98463992D01*
X157009754Y-98455988D01*
X157007599Y-98435113D01*
X157006066Y-98409042D01*
X157003871Y-98374782D01*
X157000155Y-98333652D01*
X156995489Y-98290569D01*
X156990446Y-98250453D01*
X156985599Y-98218223D01*
X156981655Y-98199248D01*
X156986185Y-98185158D01*
X157006321Y-98164313D01*
X157027705Y-98147152D01*
X157129407Y-98081123D01*
X157240476Y-98028593D01*
X157358784Y-97989756D01*
X157482200Y-97964805D01*
X157608596Y-97953936D01*
X157735841Y-97957342D01*
G37*
G36*
X158075038Y-92292834D02*
G01*
X158334040Y-92323345D01*
X158591914Y-92370930D01*
X158690891Y-92393880D01*
X158943586Y-92464851D01*
X159190150Y-92552273D01*
X159430376Y-92656040D01*
X159664056Y-92776047D01*
X159890984Y-92912188D01*
X160110952Y-93064358D01*
X160301255Y-93213643D01*
X160355729Y-93260807D01*
X160418392Y-93318281D01*
X160486106Y-93382926D01*
X160555733Y-93451605D01*
X160624135Y-93521178D01*
X160688172Y-93588508D01*
X160744707Y-93650456D01*
X160786357Y-93698745D01*
X160952320Y-93911959D01*
X161102523Y-94132641D01*
X161236816Y-94360258D01*
X161355046Y-94594278D01*
X161457062Y-94834170D01*
X161542713Y-95079402D01*
X161611846Y-95329441D01*
X161664311Y-95583757D01*
X161699955Y-95841817D01*
X161718627Y-96103089D01*
X161720176Y-96367041D01*
X161704450Y-96633142D01*
X161680713Y-96837478D01*
X161636006Y-97092579D01*
X161574725Y-97342898D01*
X161497402Y-97587720D01*
X161404571Y-97826327D01*
X161296764Y-98058001D01*
X161174515Y-98282027D01*
X161038357Y-98497686D01*
X160888823Y-98704262D01*
X160726446Y-98901038D01*
X160551760Y-99087296D01*
X160365297Y-99262320D01*
X160167590Y-99425393D01*
X159959174Y-99575798D01*
X159740580Y-99712817D01*
X159512342Y-99835734D01*
X159417662Y-99881163D01*
X159177268Y-99983833D01*
X158935753Y-100069385D01*
X158691893Y-100138090D01*
X158444464Y-100190214D01*
X158192240Y-100226027D01*
X157933999Y-100245797D01*
X157734000Y-100250258D01*
X157467810Y-100242115D01*
X157207798Y-100217612D01*
X156953331Y-100176602D01*
X156703774Y-100118937D01*
X156458496Y-100044468D01*
X156216861Y-99953047D01*
X155978238Y-99844526D01*
X155959746Y-99835344D01*
X155752861Y-99725407D01*
X155559707Y-99608684D01*
X155377134Y-99482900D01*
X155201995Y-99345781D01*
X155031137Y-99195051D01*
X154907382Y-99075193D01*
X154726796Y-98881587D01*
X154560135Y-98677609D01*
X154407803Y-98463924D01*
X154270207Y-98241198D01*
X154147754Y-98010097D01*
X154040851Y-97771287D01*
X153949903Y-97525434D01*
X153936282Y-97483688D01*
X153869406Y-97248105D01*
X153816685Y-97004594D01*
X153778515Y-96756179D01*
X153755293Y-96505883D01*
X153747417Y-96256730D01*
X153747496Y-96253343D01*
X153961950Y-96253343D01*
X153969407Y-96487670D01*
X153971141Y-96512175D01*
X153999212Y-96774518D01*
X154043770Y-97031031D01*
X154104666Y-97281367D01*
X154181751Y-97525180D01*
X154274873Y-97762125D01*
X154383884Y-97991855D01*
X154508634Y-98214024D01*
X154648971Y-98428286D01*
X154804748Y-98634296D01*
X154975813Y-98831707D01*
X154975992Y-98831900D01*
X155154590Y-99012130D01*
X155343314Y-99178410D01*
X155541353Y-99330560D01*
X155747898Y-99468398D01*
X155962137Y-99591745D01*
X156183260Y-99700420D01*
X156410458Y-99794242D01*
X156642920Y-99873031D01*
X156879836Y-99936607D01*
X157120395Y-99984789D01*
X157363788Y-100017397D01*
X157609203Y-100034250D01*
X157855832Y-100035167D01*
X158102863Y-100019969D01*
X158349486Y-99988475D01*
X158594891Y-99940504D01*
X158838268Y-99875875D01*
X159078806Y-99794409D01*
X159158299Y-99763447D01*
X159389038Y-99661258D01*
X159611251Y-99544198D01*
X159824335Y-99412992D01*
X160027688Y-99268362D01*
X160220709Y-99111033D01*
X160402795Y-98941728D01*
X160573345Y-98761170D01*
X160731756Y-98570084D01*
X160877427Y-98369192D01*
X161009755Y-98159219D01*
X161128139Y-97940887D01*
X161231977Y-97714922D01*
X161320666Y-97482045D01*
X161393605Y-97242981D01*
X161447596Y-97011621D01*
X161489948Y-96755080D01*
X161515021Y-96499030D01*
X161523028Y-96244173D01*
X161514178Y-95991211D01*
X161488683Y-95740845D01*
X161446755Y-95493776D01*
X161388605Y-95250707D01*
X161314443Y-95012339D01*
X161224482Y-94779374D01*
X161118932Y-94552512D01*
X160998005Y-94332457D01*
X160861912Y-94119909D01*
X160710864Y-93915569D01*
X160545073Y-93720140D01*
X160415675Y-93584325D01*
X160228602Y-93409332D01*
X160032543Y-93249054D01*
X159828273Y-93103583D01*
X159616569Y-92973008D01*
X159398206Y-92857420D01*
X159173961Y-92756911D01*
X158944611Y-92671571D01*
X158710931Y-92601491D01*
X158473698Y-92546761D01*
X158233687Y-92507472D01*
X157991675Y-92483715D01*
X157748438Y-92475581D01*
X157504753Y-92483160D01*
X157261395Y-92506543D01*
X157019141Y-92545821D01*
X156778767Y-92601084D01*
X156541049Y-92672424D01*
X156306763Y-92759930D01*
X156076686Y-92863695D01*
X155851593Y-92983807D01*
X155757587Y-93039853D01*
X155547021Y-93179725D01*
X155346409Y-93333700D01*
X155156486Y-93500909D01*
X154977984Y-93680480D01*
X154811639Y-93871545D01*
X154658185Y-94073234D01*
X154518356Y-94284676D01*
X154392885Y-94505003D01*
X154282507Y-94733343D01*
X154236434Y-94842241D01*
X154154547Y-95066299D01*
X154086620Y-95297938D01*
X154033023Y-95534809D01*
X153994131Y-95774565D01*
X153970315Y-96014859D01*
X153961950Y-96253343D01*
X153747496Y-96253343D01*
X153751600Y-96076973D01*
X153772840Y-95811741D01*
X153811129Y-95550517D01*
X153866287Y-95293807D01*
X153938132Y-95042118D01*
X154026481Y-94795956D01*
X154131153Y-94555827D01*
X154251966Y-94322238D01*
X154388739Y-94095696D01*
X154541289Y-93876706D01*
X154541370Y-93876599D01*
X154684149Y-93697454D01*
X154841558Y-93522584D01*
X155010702Y-93354843D01*
X155188683Y-93197086D01*
X155372606Y-93052166D01*
X155393420Y-93036881D01*
X155609018Y-92890470D01*
X155832790Y-92759319D01*
X156063890Y-92643592D01*
X156301473Y-92543454D01*
X156544693Y-92459070D01*
X156792705Y-92390605D01*
X157044662Y-92338224D01*
X157299720Y-92302091D01*
X157557032Y-92282372D01*
X157748438Y-92280048D01*
X157815753Y-92279231D01*
X158075038Y-92292834D01*
G37*
G36*
X155673130Y-93548578D02*
G01*
X155680328Y-93570593D01*
X155689107Y-93603160D01*
X155698686Y-93642905D01*
X155708286Y-93686452D01*
X155717127Y-93730428D01*
X155724431Y-93771456D01*
X155729161Y-93804018D01*
X155734138Y-93861250D01*
X155737055Y-93930458D01*
X155737963Y-94006457D01*
X155736911Y-94084063D01*
X155733948Y-94158092D01*
X155729126Y-94223359D01*
X155724779Y-94260303D01*
X155714944Y-94320083D01*
X155702457Y-94378882D01*
X155686317Y-94440270D01*
X155665521Y-94507819D01*
X155639067Y-94585099D01*
X155615218Y-94650763D01*
X155586689Y-94729972D01*
X155564454Y-94797143D01*
X155547515Y-94856235D01*
X155534874Y-94911211D01*
X155525536Y-94966034D01*
X155518501Y-95024664D01*
X155516890Y-95041422D01*
X155512151Y-95109570D01*
X155511773Y-95170654D01*
X155515783Y-95234653D01*
X155517490Y-95252429D01*
X155524349Y-95310648D01*
X155533079Y-95364395D01*
X155544655Y-95417425D01*
X155560054Y-95473496D01*
X155580255Y-95536365D01*
X155606233Y-95609789D01*
X155620393Y-95648148D01*
X155657253Y-95751681D01*
X155686070Y-95844311D01*
X155707661Y-95930324D01*
X155722843Y-96014006D01*
X155732434Y-96099642D01*
X155737251Y-96191517D01*
X155738223Y-96266000D01*
X155736411Y-96365248D01*
X155730429Y-96455086D01*
X155719461Y-96539800D01*
X155702688Y-96623676D01*
X155679295Y-96710999D01*
X155648462Y-96806056D01*
X155620393Y-96883851D01*
X155600502Y-96938535D01*
X155581372Y-96993499D01*
X155564502Y-97044267D01*
X155551389Y-97086366D01*
X155545065Y-97108988D01*
X155524205Y-97216317D01*
X155513623Y-97331360D01*
X155513827Y-97447213D01*
X155516957Y-97491308D01*
X155523243Y-97549511D01*
X155531309Y-97602378D01*
X155542164Y-97653939D01*
X155556817Y-97708229D01*
X155576276Y-97769279D01*
X155601549Y-97841121D01*
X155610694Y-97866138D01*
X155646747Y-97967203D01*
X155675645Y-98056104D01*
X155698087Y-98136410D01*
X155714775Y-98211689D01*
X155726410Y-98285509D01*
X155733691Y-98361437D01*
X155737319Y-98443043D01*
X155738062Y-98514848D01*
X155733867Y-98651369D01*
X155721434Y-98774419D01*
X155700516Y-98886190D01*
X155692977Y-98916245D01*
X155684018Y-98949114D01*
X155676602Y-98974787D01*
X155671959Y-98989057D01*
X155671238Y-98990554D01*
X155662627Y-98987779D01*
X155643052Y-98974572D01*
X155614370Y-98952540D01*
X155578434Y-98923289D01*
X155537099Y-98888426D01*
X155492222Y-98849556D01*
X155445655Y-98808285D01*
X155399254Y-98766221D01*
X155354874Y-98724968D01*
X155314369Y-98686134D01*
X155280093Y-98651837D01*
X155204414Y-98573892D01*
X155199179Y-98424428D01*
X155194227Y-98331971D01*
X155185657Y-98251100D01*
X155172364Y-98175996D01*
X155153247Y-98100841D01*
X155127202Y-98019819D01*
X155117044Y-97991203D01*
X155082355Y-97894543D01*
X155053529Y-97812014D01*
X155030075Y-97741352D01*
X155011501Y-97680292D01*
X154997315Y-97626571D01*
X154987027Y-97577923D01*
X154980145Y-97532084D01*
X154976179Y-97486791D01*
X154974636Y-97439777D01*
X154975025Y-97388779D01*
X154976419Y-97343016D01*
X154980238Y-97274164D01*
X154986881Y-97211579D01*
X154997248Y-97151315D01*
X155012237Y-97089426D01*
X155032746Y-97021967D01*
X155059674Y-96944993D01*
X155078513Y-96894626D01*
X155115533Y-96793423D01*
X155144764Y-96703538D01*
X155166997Y-96620938D01*
X155183024Y-96541592D01*
X155193634Y-96461468D01*
X155199618Y-96376535D01*
X155201768Y-96282760D01*
X155201809Y-96266000D01*
X155200163Y-96167932D01*
X155194678Y-96079989D01*
X155184532Y-95997917D01*
X155168904Y-95917460D01*
X155146974Y-95834365D01*
X155117919Y-95744378D01*
X155082297Y-95646862D01*
X155052142Y-95565357D01*
X155028561Y-95495952D01*
X155010491Y-95434907D01*
X154996870Y-95378483D01*
X154986637Y-95322938D01*
X154982692Y-95296049D01*
X154976691Y-95230372D01*
X154974505Y-95154558D01*
X154976043Y-95075615D01*
X154981215Y-95000550D01*
X154987173Y-94952602D01*
X154990945Y-94930200D01*
X154995518Y-94907690D01*
X155001494Y-94883147D01*
X155009479Y-94854649D01*
X155020079Y-94820270D01*
X155033896Y-94778088D01*
X155051537Y-94726178D01*
X155073605Y-94662617D01*
X155100707Y-94585480D01*
X155117704Y-94537344D01*
X155146895Y-94448862D01*
X155168405Y-94368359D01*
X155183386Y-94289654D01*
X155192992Y-94206567D01*
X155198375Y-94112918D01*
X155198711Y-94103175D01*
X155203471Y-93958108D01*
X155327978Y-93834759D01*
X155365030Y-93798883D01*
X155406874Y-93759751D01*
X155451470Y-93719127D01*
X155496775Y-93678777D01*
X155540750Y-93640466D01*
X155581353Y-93605959D01*
X155616542Y-93577019D01*
X155644278Y-93555413D01*
X155662519Y-93542905D01*
X155668291Y-93540489D01*
X155673130Y-93548578D01*
G37*
G36*
X156915962Y-92922610D02*
G01*
X156932280Y-92939636D01*
X156954438Y-92964296D01*
X156979854Y-92993550D01*
X157005946Y-93024358D01*
X157030131Y-93053679D01*
X157049827Y-93078475D01*
X157062452Y-93095703D01*
X157065730Y-93101893D01*
X157059166Y-93109538D01*
X157042295Y-93123164D01*
X157029070Y-93132665D01*
X156992471Y-93164701D01*
X156955975Y-93208359D01*
X156923598Y-93258119D01*
X156899361Y-93308463D01*
X156897558Y-93313269D01*
X156888381Y-93337477D01*
X156881068Y-93351330D01*
X156874230Y-93353647D01*
X156866475Y-93343251D01*
X156856415Y-93318964D01*
X156842660Y-93279605D01*
X156836537Y-93261523D01*
X156825300Y-93225175D01*
X156813650Y-93182345D01*
X156802663Y-93137660D01*
X156793419Y-93095748D01*
X156786996Y-93061234D01*
X156784472Y-93038745D01*
X156784467Y-93038119D01*
X156790357Y-93028771D01*
X156806141Y-93010466D01*
X156828994Y-92986381D01*
X156842204Y-92973150D01*
X156868367Y-92948188D01*
X156890266Y-92928799D01*
X156904677Y-92917769D01*
X156908066Y-92916260D01*
X156915962Y-92922610D01*
G37*
X125332000Y-68848000D02*
X117492000Y-68848000D01*
X114992000Y-75668000D02*
X127832000Y-75668000D01*
X127832000Y-70348000D02*
X125332000Y-70348000D01*
X127832000Y-73138000D02*
X127702000Y-73138000D01*
X127832000Y-71328000D02*
X127832000Y-70348000D01*
X127702000Y-71328000D02*
X127832000Y-71328000D01*
X127702000Y-73138000D02*
X127702000Y-71328000D01*
X114992000Y-73138000D02*
X114992000Y-75668000D01*
X127832000Y-75668000D02*
X127832000Y-73138000D01*
X115122000Y-71328000D02*
X115122000Y-73138000D01*
X115122000Y-73138000D02*
X114992000Y-73138000D01*
X117492000Y-68848000D02*
X117492000Y-70348000D01*
X117492000Y-70348000D02*
X114992000Y-70348000D01*
X114992000Y-70348000D02*
X114992000Y-71328000D01*
X125332000Y-70348000D02*
X125332000Y-68848000D01*
X114992000Y-71328000D02*
X115122000Y-71328000D01*
D13*
X172110000Y-87878236D02*
X172110000Y-131078236D01*
X140310000Y-87878236D02*
X172110000Y-87878236D01*
X172110000Y-131078236D02*
X140310000Y-131078236D01*
X140310000Y-131078236D02*
X140310000Y-87878236D01*
D12*
X169672000Y-68189203D02*
X169672000Y-65519203D01*
X131572000Y-80889203D02*
X131572000Y-83559203D01*
X169672000Y-80889203D02*
X169672000Y-83559203D01*
X131572000Y-68189203D02*
X131572000Y-65519203D01*
X134112000Y-80889203D02*
X169672000Y-80889203D01*
X134112000Y-83559203D02*
X172342000Y-83559203D01*
X172342000Y-83559203D02*
X172342000Y-65519203D01*
X128902000Y-65519203D02*
X128902000Y-83559203D01*
X128902000Y-83559203D02*
X131572000Y-83559203D01*
X131572000Y-68189203D02*
X169672000Y-68189203D01*
X134112000Y-80889203D02*
X131572000Y-80889203D01*
X172342000Y-65519203D02*
X128902000Y-65519203D01*
X134112000Y-80889203D02*
X134112000Y-83559203D01*
X127832000Y-84668000D02*
X127832000Y-82138000D01*
X114992000Y-84668000D02*
X127832000Y-84668000D01*
X127702000Y-80328000D02*
X127832000Y-80328000D01*
X125332000Y-77848000D02*
X117492000Y-77848000D01*
X125332000Y-79348000D02*
X125332000Y-77848000D01*
X115122000Y-80328000D02*
X115122000Y-82138000D01*
X114992000Y-80328000D02*
X115122000Y-80328000D01*
X114992000Y-79348000D02*
X114992000Y-80328000D01*
X127832000Y-79348000D02*
X125332000Y-79348000D01*
X127832000Y-80328000D02*
X127832000Y-79348000D01*
X117492000Y-79348000D02*
X114992000Y-79348000D01*
X127702000Y-82138000D02*
X127702000Y-80328000D01*
X127832000Y-82138000D02*
X127702000Y-82138000D01*
X114992000Y-82138000D02*
X114992000Y-84668000D01*
X117492000Y-77848000D02*
X117492000Y-79348000D01*
X115122000Y-82138000D02*
X114992000Y-82138000D01*
X107669961Y-108389002D02*
X113960014Y-108389002D01*
X116564976Y-111448991D02*
X116564976Y-116799000D01*
X114460014Y-111448991D02*
X116564976Y-111448991D01*
X105064999Y-111448991D02*
X107169961Y-111448991D01*
X105064999Y-116799000D02*
X105064999Y-111448991D01*
X116564976Y-116799000D02*
X109939335Y-116799000D01*
X108190632Y-116799000D02*
X105064999Y-116799000D01*
X107169961Y-111448991D02*
X107169961Y-108889002D01*
X114460014Y-108889002D02*
X114460014Y-111448991D01*
X114460016Y-108889002D02*
G75*
G03*
X113960014Y-108389002I-499999J1D01*
G01*
X107669961Y-108389002D02*
G75*
G03*
X107169961Y-108889002I1J-500001D01*
G01*
X139128500Y-108913000D02*
X118935500Y-108913000D01*
X118935500Y-108913000D02*
X118935500Y-116025000D01*
X139128500Y-116025000D02*
X139128500Y-108913000D01*
X118935500Y-116025000D02*
X139128500Y-116025000D01*
X125332000Y-59848000D02*
X117492000Y-59848000D01*
X125332000Y-61348000D02*
X125332000Y-59848000D01*
X115122000Y-64138000D02*
X114992000Y-64138000D01*
X127832000Y-62328000D02*
X127832000Y-61348000D01*
X127832000Y-64138000D02*
X127702000Y-64138000D01*
X127832000Y-66668000D02*
X127832000Y-64138000D01*
X117492000Y-61348000D02*
X114992000Y-61348000D01*
X127832000Y-61348000D02*
X125332000Y-61348000D01*
X114992000Y-62328000D02*
X115122000Y-62328000D01*
X114992000Y-61348000D02*
X114992000Y-62328000D01*
X114992000Y-66668000D02*
X127832000Y-66668000D01*
X115122000Y-62328000D02*
X115122000Y-64138000D01*
X127702000Y-64138000D02*
X127702000Y-62328000D01*
X127702000Y-62328000D02*
X127832000Y-62328000D01*
X117492000Y-59848000D02*
X117492000Y-61348000D01*
X114992000Y-64138000D02*
X114992000Y-66668000D01*
X139382500Y-97663000D02*
X119189500Y-97663000D01*
X119189500Y-104775000D02*
X139382500Y-104775000D01*
X139382500Y-104775000D02*
X139382500Y-97663000D01*
X119189500Y-97663000D02*
X119189500Y-104775000D01*
X98482000Y-73132000D02*
X98482000Y-75662000D01*
X98612000Y-71322000D02*
X98612000Y-73132000D01*
X113862000Y-71322000D02*
X113862000Y-70342000D01*
X113862000Y-75662000D02*
X113862000Y-73132000D01*
X110092000Y-68842000D02*
X102252000Y-68842000D01*
X110092000Y-70342000D02*
X110092000Y-68842000D01*
X113732000Y-71322000D02*
X113862000Y-71322000D01*
X113862000Y-73132000D02*
X113732000Y-73132000D01*
X98482000Y-70342000D02*
X98482000Y-71322000D01*
X98612000Y-73132000D02*
X98482000Y-73132000D01*
X98482000Y-75662000D02*
X113862000Y-75662000D01*
X102252000Y-68842000D02*
X102252000Y-70342000D01*
X98482000Y-71322000D02*
X98612000Y-71322000D01*
X113732000Y-73132000D02*
X113732000Y-71322000D01*
X113862000Y-70342000D02*
X110092000Y-70342000D01*
X102252000Y-70342000D02*
X98482000Y-70342000D01*
X119189500Y-138525000D02*
X139382500Y-138525000D01*
X119189500Y-131413000D02*
X119189500Y-138525000D01*
X139382500Y-138525000D02*
X139382500Y-131413000D01*
X139382500Y-131413000D02*
X119189500Y-131413000D01*
%LPC*%
D14*
X115145000Y-90932000D03*
D15*
X107945000Y-90932000D03*
D16*
X136393000Y-61849000D03*
D17*
X138933000Y-61849000D03*
X141473000Y-61849000D03*
X144013000Y-61849000D03*
X146553000Y-61849000D03*
X149093000Y-61849000D03*
X151633000Y-61849000D03*
X154173000Y-61849000D03*
X156713000Y-61849000D03*
X159253000Y-61849000D03*
X161793000Y-61849000D03*
X164333000Y-61849000D03*
D18*
X109064983Y-104849001D03*
D19*
X107314987Y-102619001D03*
D20*
X110814988Y-102619001D03*
X114314988Y-102619001D03*
D18*
X109064983Y-127349001D03*
D19*
X107314987Y-125119001D03*
D20*
X110814988Y-125119001D03*
X114314988Y-125119001D03*
D21*
X122555000Y-122068000D03*
X122555000Y-125370000D03*
X136017000Y-122068000D03*
X136017000Y-125370000D03*
D22*
X108712000Y-82002000D03*
D23*
X106172000Y-82002000D03*
X103632000Y-82002000D03*
D22*
X108712000Y-64002000D03*
D23*
X106172000Y-64002000D03*
X103632000Y-64002000D03*
D18*
X109064983Y-138599001D03*
D19*
X107314987Y-136369001D03*
D20*
X110814988Y-136369001D03*
X114314988Y-136369001D03*
D24*
X170057000Y-138075000D03*
D22*
X125222000Y-73008000D03*
D23*
X122682000Y-73008000D03*
X120142000Y-73008000D03*
X117602000Y-73008000D03*
D25*
X144510000Y-128878236D03*
X169910000Y-90078236D03*
X169910000Y-128878236D03*
X144510000Y-90078236D03*
D26*
X142850000Y-95498236D03*
D27*
X142850000Y-100498236D03*
X142850000Y-118438236D03*
D26*
X142850000Y-123438236D03*
D24*
X99720400Y-138075000D03*
D28*
X132842000Y-82159203D03*
D29*
X135382000Y-82159203D03*
X137922000Y-82159203D03*
X140462000Y-82159203D03*
X143002000Y-82159203D03*
X145542000Y-82159203D03*
X148082000Y-82159203D03*
X150622000Y-82159203D03*
X153162000Y-82159203D03*
X155702000Y-82159203D03*
X158242000Y-82159203D03*
X160782000Y-82159203D03*
X163322000Y-82159203D03*
X165862000Y-82159203D03*
X168402000Y-82159203D03*
X168402000Y-66919203D03*
X165862000Y-66919203D03*
X163322000Y-66919203D03*
X160782000Y-66919203D03*
X158242000Y-66919203D03*
X155702000Y-66919203D03*
X153162000Y-66919203D03*
X150622000Y-66919203D03*
X148082000Y-66919203D03*
X145542000Y-66919203D03*
X143002000Y-66919203D03*
X140462000Y-66919203D03*
X137922000Y-66919203D03*
X135382000Y-66919203D03*
X132842000Y-66919203D03*
D22*
X125222000Y-82008000D03*
D23*
X122682000Y-82008000D03*
X120142000Y-82008000D03*
X117602000Y-82008000D03*
D24*
X170057000Y-57273000D03*
D18*
X109064983Y-116099001D03*
D19*
X107314987Y-113869001D03*
D20*
X110814988Y-113869001D03*
X114314988Y-113869001D03*
D21*
X122301000Y-110818000D03*
X122301000Y-114120000D03*
X135763000Y-114120000D03*
X135763000Y-110818000D03*
D22*
X125222000Y-64008000D03*
D23*
X122682000Y-64008000D03*
X120142000Y-64008000D03*
X117602000Y-64008000D03*
D24*
X99720400Y-57277000D03*
D21*
X122555000Y-102870000D03*
X122555000Y-99568000D03*
X136017000Y-99568000D03*
X136017000Y-102870000D03*
D22*
X111252000Y-73002000D03*
D23*
X108712000Y-73002000D03*
X106172000Y-73002000D03*
X103632000Y-73002000D03*
X101092000Y-73002000D03*
D21*
X122555000Y-133318000D03*
X122555000Y-136620000D03*
X136017000Y-136620000D03*
X136017000Y-133318000D03*
M02*
