G04 #@! TF.GenerationSoftware,KiCad,Pcbnew,(6.0.8)*
G04 #@! TF.CreationDate,2022-10-05T13:13:21-07:00*
G04 #@! TF.ProjectId,unified_elec_steering,756e6966-6965-4645-9f65-6c65635f7374,A*
G04 #@! TF.SameCoordinates,Original*
G04 #@! TF.FileFunction,Copper,L1,Top*
G04 #@! TF.FilePolarity,Positive*
%FSLAX46Y46*%
G04 Gerber Fmt 4.6, Leading zero omitted, Abs format (unit mm)*
G04 Created by KiCad (PCBNEW (6.0.8)) date 2022-10-05 13:13:21*
%MOMM*%
%LPD*%
G01*
G04 APERTURE LIST*
G04 Aperture macros list*
%AMRoundRect*
0 Rectangle with rounded corners*
0 $1 Rounding radius*
0 $2 $3 $4 $5 $6 $7 $8 $9 X,Y pos of 4 corners*
0 Add a 4 corners polygon primitive as box body*
4,1,4,$2,$3,$4,$5,$6,$7,$8,$9,$2,$3,0*
0 Add four circle primitives for the rounded corners*
1,1,$1+$1,$2,$3*
1,1,$1+$1,$4,$5*
1,1,$1+$1,$6,$7*
1,1,$1+$1,$8,$9*
0 Add four rect primitives between the rounded corners*
20,1,$1+$1,$2,$3,$4,$5,0*
20,1,$1+$1,$4,$5,$6,$7,0*
20,1,$1+$1,$6,$7,$8,$9,0*
20,1,$1+$1,$8,$9,$2,$3,0*%
G04 Aperture macros list end*
G04 #@! TA.AperFunction,ComponentPad*
%ADD10RoundRect,1.500000X1.500000X1.500000X-1.500000X1.500000X-1.500000X-1.500000X1.500000X-1.500000X0*%
G04 #@! TD*
G04 #@! TA.AperFunction,ComponentPad*
%ADD11C,6.000000*%
G04 #@! TD*
G04 #@! TA.AperFunction,ComponentPad*
%ADD12C,1.700000*%
G04 #@! TD*
G04 #@! TA.AperFunction,ComponentPad*
%ADD13O,1.700000X1.700000*%
G04 #@! TD*
G04 #@! TA.AperFunction,ComponentPad*
%ADD14R,1.520000X1.520000*%
G04 #@! TD*
G04 #@! TA.AperFunction,ComponentPad*
%ADD15C,1.520000*%
G04 #@! TD*
G04 #@! TA.AperFunction,ComponentPad*
%ADD16C,2.235200*%
G04 #@! TD*
G04 #@! TA.AperFunction,ComponentPad*
%ADD17RoundRect,0.250000X0.620000X0.620000X-0.620000X0.620000X-0.620000X-0.620000X0.620000X-0.620000X0*%
G04 #@! TD*
G04 #@! TA.AperFunction,ComponentPad*
%ADD18C,1.740000*%
G04 #@! TD*
G04 #@! TA.AperFunction,ComponentPad*
%ADD19C,6.400000*%
G04 #@! TD*
G04 #@! TA.AperFunction,ComponentPad*
%ADD20C,3.196000*%
G04 #@! TD*
G04 #@! TA.AperFunction,ComponentPad*
%ADD21R,3.196000X3.196000*%
G04 #@! TD*
G04 #@! TA.AperFunction,ComponentPad*
%ADD22R,1.600000X1.600000*%
G04 #@! TD*
G04 #@! TA.AperFunction,ComponentPad*
%ADD23O,1.600000X1.600000*%
G04 #@! TD*
G04 #@! TA.AperFunction,Conductor*
%ADD24C,0.508000*%
G04 #@! TD*
G04 #@! TA.AperFunction,Conductor*
%ADD25C,0.350000*%
G04 #@! TD*
G04 #@! TA.AperFunction,Conductor*
%ADD26C,0.250000*%
G04 #@! TD*
G04 APERTURE END LIST*
D10*
X115145000Y-90932000D03*
D11*
X107945000Y-90932000D03*
D12*
X136393000Y-61849000D03*
D13*
X138933000Y-61849000D03*
X141473000Y-61849000D03*
X144013000Y-61849000D03*
X146553000Y-61849000D03*
X149093000Y-61849000D03*
X151633000Y-61849000D03*
X154173000Y-61849000D03*
X156713000Y-61849000D03*
X159253000Y-61849000D03*
X161793000Y-61849000D03*
X164333000Y-61849000D03*
D14*
X107314987Y-102619001D03*
D15*
X110814988Y-102619001D03*
X114314988Y-102619001D03*
D14*
X107314987Y-125119001D03*
D15*
X110814988Y-125119001D03*
X114314988Y-125119001D03*
D16*
X122555000Y-122068000D03*
X122555000Y-125370000D03*
X136017000Y-122068000D03*
X136017000Y-125370000D03*
D17*
X108712000Y-82002000D03*
D18*
X106172000Y-82002000D03*
X103632000Y-82002000D03*
D17*
X108712000Y-64002000D03*
D18*
X106172000Y-64002000D03*
X103632000Y-64002000D03*
D14*
X107314987Y-136369001D03*
D15*
X110814988Y-136369001D03*
X114314988Y-136369001D03*
D19*
X170057000Y-138075000D03*
D17*
X125222000Y-73008000D03*
D18*
X122682000Y-73008000D03*
X120142000Y-73008000D03*
X117602000Y-73008000D03*
D20*
X142850000Y-95498236D03*
D21*
X142850000Y-100498236D03*
X142850000Y-118438236D03*
D20*
X142850000Y-123438236D03*
D19*
X99720400Y-138075000D03*
D22*
X132842000Y-82159203D03*
D23*
X135382000Y-82159203D03*
X137922000Y-82159203D03*
X140462000Y-82159203D03*
X143002000Y-82159203D03*
X145542000Y-82159203D03*
X148082000Y-82159203D03*
X150622000Y-82159203D03*
X153162000Y-82159203D03*
X155702000Y-82159203D03*
X158242000Y-82159203D03*
X160782000Y-82159203D03*
X163322000Y-82159203D03*
X165862000Y-82159203D03*
X168402000Y-82159203D03*
X168402000Y-66919203D03*
X165862000Y-66919203D03*
X163322000Y-66919203D03*
X160782000Y-66919203D03*
X158242000Y-66919203D03*
X155702000Y-66919203D03*
X153162000Y-66919203D03*
X150622000Y-66919203D03*
X148082000Y-66919203D03*
X145542000Y-66919203D03*
X143002000Y-66919203D03*
X140462000Y-66919203D03*
X137922000Y-66919203D03*
X135382000Y-66919203D03*
X132842000Y-66919203D03*
D17*
X125222000Y-82008000D03*
D18*
X122682000Y-82008000D03*
X120142000Y-82008000D03*
X117602000Y-82008000D03*
D19*
X170057000Y-57273000D03*
D14*
X107314987Y-113869001D03*
D15*
X110814988Y-113869001D03*
X114314988Y-113869001D03*
D16*
X122301000Y-110818000D03*
X122301000Y-114120000D03*
X135763000Y-114120000D03*
X135763000Y-110818000D03*
D17*
X125222000Y-64008000D03*
D18*
X122682000Y-64008000D03*
X120142000Y-64008000D03*
X117602000Y-64008000D03*
D19*
X99720400Y-57277000D03*
D16*
X122555000Y-102870000D03*
X122555000Y-99568000D03*
X136017000Y-99568000D03*
X136017000Y-102870000D03*
D17*
X111252000Y-73002000D03*
D18*
X108712000Y-73002000D03*
X106172000Y-73002000D03*
X103632000Y-73002000D03*
X101092000Y-73002000D03*
D16*
X122555000Y-133318000D03*
X122555000Y-136620000D03*
X136017000Y-136620000D03*
X136017000Y-133318000D03*
D24*
X116078000Y-85344000D02*
X116586000Y-85344000D01*
X130175000Y-83693000D02*
X130175000Y-83439000D01*
X115145000Y-86277000D02*
X116078000Y-85344000D01*
X132842000Y-66919203D02*
X130175000Y-69586203D01*
X130175000Y-69586203D02*
X130175000Y-83439000D01*
X128524000Y-85344000D02*
X130175000Y-83693000D01*
X128524000Y-85344000D02*
X116586000Y-85344000D01*
X115145000Y-86277000D02*
X115145000Y-90932000D01*
D25*
X108712000Y-73002000D02*
X108712000Y-79462000D01*
X135382000Y-77079203D02*
X140462000Y-82159203D01*
X106172000Y-70462000D02*
X108712000Y-73002000D01*
X106172000Y-64002000D02*
X106172000Y-70462000D01*
X122682000Y-73008000D02*
X122682000Y-82008000D01*
X135382000Y-66919203D02*
X135382000Y-77079203D01*
X122682000Y-64008000D02*
X122682000Y-73008000D01*
X108712000Y-79462000D02*
X106172000Y-82002000D01*
D26*
X137922000Y-65280500D02*
X137922000Y-66919203D01*
X136393000Y-61849000D02*
X136393000Y-63751500D01*
X136393000Y-63751500D02*
X137922000Y-65280500D01*
D25*
X108712000Y-70462000D02*
X111252000Y-73002000D01*
X141473000Y-61849000D02*
X140048000Y-60424000D01*
X140048000Y-60424000D02*
X128806000Y-60424000D01*
X141473000Y-65908203D02*
X140462000Y-66919203D01*
X108712000Y-64002000D02*
X112290000Y-60424000D01*
X125222000Y-73008000D02*
X125222000Y-64008000D01*
X128806000Y-60424000D02*
X125222000Y-64008000D01*
X111252000Y-73002000D02*
X111252000Y-79462000D01*
X111252000Y-79462000D02*
X108712000Y-82002000D01*
X112290000Y-60424000D02*
X128806000Y-60424000D01*
X141473000Y-61849000D02*
X141473000Y-65908203D01*
X108712000Y-64002000D02*
X108712000Y-70462000D01*
X125222000Y-73008000D02*
X125222000Y-82008000D01*
D26*
X144013000Y-65908203D02*
X143002000Y-66919203D01*
X144013000Y-61849000D02*
X144013000Y-65908203D01*
X146553000Y-61849000D02*
X146553000Y-65908203D01*
X146553000Y-65908203D02*
X145542000Y-66919203D01*
X149093000Y-61849000D02*
X149093000Y-65908203D01*
X149093000Y-65908203D02*
X148082000Y-66919203D01*
D25*
X165862000Y-66919203D02*
X164474797Y-65532000D01*
X157856000Y-65532000D02*
X154173000Y-61849000D01*
X164474797Y-65532000D02*
X157856000Y-65532000D01*
D26*
X159696000Y-64832000D02*
X166314797Y-64832000D01*
X166314797Y-64832000D02*
X168402000Y-66919203D01*
X156713000Y-61849000D02*
X159696000Y-64832000D01*
X150057000Y-80184203D02*
X148082000Y-82159203D01*
X161586000Y-64182000D02*
X167538630Y-64182000D01*
X169727000Y-66370370D02*
X169727000Y-78995727D01*
X168538524Y-80184203D02*
X150057000Y-80184203D01*
X167538630Y-64182000D02*
X169727000Y-66370370D01*
X169727000Y-78995727D02*
X168538524Y-80184203D01*
X159253000Y-61849000D02*
X161586000Y-64182000D01*
X150622000Y-82159203D02*
X151947000Y-80834203D01*
X170377000Y-66101132D02*
X167807868Y-63532000D01*
X151947000Y-80834203D02*
X168807762Y-80834203D01*
X163476000Y-63532000D02*
X161793000Y-61849000D01*
X170377000Y-79264965D02*
X170377000Y-66101132D01*
X167807868Y-63532000D02*
X163476000Y-63532000D01*
X168807762Y-80834203D02*
X170377000Y-79264965D01*
X171027000Y-79534203D02*
X168402000Y-82159203D01*
X171027000Y-65831893D02*
X171027000Y-79534203D01*
X165366000Y-62882000D02*
X168077106Y-62882000D01*
X164333000Y-61849000D02*
X165366000Y-62882000D01*
X168077106Y-62882000D02*
X171027000Y-65831893D01*
G04 #@! TA.AperFunction,Conductor*
G36*
X127523931Y-131433002D02*
G01*
X127544905Y-131449905D01*
X127979095Y-131884095D01*
X128013121Y-131946407D01*
X128016000Y-131973190D01*
X128016000Y-137964810D01*
X127995998Y-138032931D01*
X127979095Y-138053905D01*
X127544905Y-138488095D01*
X127482593Y-138522121D01*
X127455810Y-138525000D01*
X112701190Y-138525000D01*
X112633069Y-138504998D01*
X112612095Y-138488095D01*
X112250774Y-138126774D01*
X121951872Y-138126774D01*
X121955061Y-138131034D01*
X122046536Y-138168924D01*
X122055921Y-138171973D01*
X122295101Y-138229396D01*
X122304848Y-138230939D01*
X122550070Y-138250239D01*
X122559930Y-138250239D01*
X122805152Y-138230939D01*
X122814899Y-138229396D01*
X123054079Y-138171973D01*
X123063464Y-138168924D01*
X123147443Y-138134139D01*
X123158424Y-138125290D01*
X123157108Y-138120134D01*
X122567812Y-137530838D01*
X122553868Y-137523224D01*
X122552035Y-137523355D01*
X122545420Y-137527606D01*
X121958632Y-138114394D01*
X121951872Y-138126774D01*
X112250774Y-138126774D01*
X112177905Y-138053905D01*
X112143879Y-137991593D01*
X112141000Y-137964810D01*
X112141000Y-137593662D01*
X113993972Y-137593662D01*
X113994961Y-137594983D01*
X113999541Y-137597208D01*
X114088651Y-137621085D01*
X114099438Y-137622987D01*
X114309513Y-137641366D01*
X114320463Y-137641366D01*
X114530538Y-137622987D01*
X114541325Y-137621085D01*
X114624560Y-137598782D01*
X114636599Y-137591444D01*
X114636403Y-137589804D01*
X114633549Y-137585587D01*
X114327796Y-137279835D01*
X114313858Y-137272224D01*
X114312022Y-137272356D01*
X114305410Y-137276605D01*
X114000731Y-137581283D01*
X113993972Y-137593662D01*
X112141000Y-137593662D01*
X112141000Y-136374476D01*
X113042623Y-136374476D01*
X113061002Y-136584551D01*
X113062904Y-136595338D01*
X113085207Y-136678573D01*
X113092545Y-136690612D01*
X113094185Y-136690416D01*
X113098402Y-136687562D01*
X113404154Y-136381809D01*
X113410531Y-136370131D01*
X115218211Y-136370131D01*
X115218343Y-136371967D01*
X115222592Y-136378579D01*
X115527270Y-136683258D01*
X115539649Y-136690017D01*
X115540970Y-136689028D01*
X115543195Y-136684448D01*
X115559143Y-136624930D01*
X120924761Y-136624930D01*
X120944061Y-136870152D01*
X120945604Y-136879899D01*
X121003027Y-137119079D01*
X121006076Y-137128464D01*
X121040861Y-137212443D01*
X121049710Y-137223424D01*
X121054866Y-137222108D01*
X121644162Y-136632812D01*
X121650540Y-136621132D01*
X123458224Y-136621132D01*
X123458355Y-136622965D01*
X123462606Y-136629580D01*
X124049394Y-137216368D01*
X124061774Y-137223128D01*
X124066034Y-137219939D01*
X124103924Y-137128464D01*
X124106973Y-137119079D01*
X124164396Y-136879899D01*
X124165939Y-136870152D01*
X124185239Y-136624930D01*
X124185239Y-136615070D01*
X124165939Y-136369848D01*
X124164396Y-136360101D01*
X124106973Y-136120921D01*
X124103924Y-136111536D01*
X124069139Y-136027557D01*
X124060290Y-136016576D01*
X124055134Y-136017892D01*
X123465838Y-136607188D01*
X123458224Y-136621132D01*
X121650540Y-136621132D01*
X121651776Y-136618868D01*
X121651645Y-136617035D01*
X121647394Y-136610420D01*
X121060606Y-136023632D01*
X121048226Y-136016872D01*
X121043966Y-136020061D01*
X121006076Y-136111536D01*
X121003027Y-136120921D01*
X120945604Y-136360101D01*
X120944061Y-136369848D01*
X120924761Y-136615070D01*
X120924761Y-136624930D01*
X115559143Y-136624930D01*
X115567072Y-136595338D01*
X115568974Y-136584551D01*
X115587353Y-136374476D01*
X115587353Y-136363526D01*
X115568974Y-136153451D01*
X115567072Y-136142664D01*
X115544769Y-136059429D01*
X115537431Y-136047390D01*
X115535791Y-136047586D01*
X115531574Y-136050440D01*
X115225822Y-136356193D01*
X115218211Y-136370131D01*
X113410531Y-136370131D01*
X113411765Y-136367871D01*
X113411633Y-136366035D01*
X113407384Y-136359423D01*
X113102706Y-136054744D01*
X113090327Y-136047985D01*
X113089006Y-136048974D01*
X113086781Y-136053554D01*
X113062904Y-136142664D01*
X113061002Y-136153451D01*
X113042623Y-136363526D01*
X113042623Y-136374476D01*
X112141000Y-136374476D01*
X112141000Y-135146558D01*
X113993377Y-135146558D01*
X113993573Y-135148198D01*
X113996427Y-135152415D01*
X114302180Y-135458167D01*
X114316118Y-135465778D01*
X114317954Y-135465646D01*
X114324566Y-135461397D01*
X114629245Y-135156719D01*
X114636004Y-135144340D01*
X114635015Y-135143019D01*
X114630435Y-135140794D01*
X114541325Y-135116917D01*
X114530538Y-135115015D01*
X114527052Y-135114710D01*
X121951576Y-135114710D01*
X121952892Y-135119866D01*
X122542188Y-135709162D01*
X122556132Y-135716776D01*
X122557965Y-135716645D01*
X122564580Y-135712394D01*
X123151368Y-135125606D01*
X123158128Y-135113226D01*
X123154939Y-135108966D01*
X123098067Y-135085409D01*
X123042786Y-135040861D01*
X123020365Y-134973497D01*
X123037923Y-134904706D01*
X123089885Y-134856328D01*
X123098067Y-134852591D01*
X123147443Y-134832139D01*
X123158424Y-134823290D01*
X123157108Y-134818134D01*
X122567812Y-134228838D01*
X122553868Y-134221224D01*
X122552035Y-134221355D01*
X122545420Y-134225606D01*
X121958632Y-134812394D01*
X121951872Y-134824774D01*
X121955061Y-134829034D01*
X122011933Y-134852591D01*
X122067214Y-134897139D01*
X122089635Y-134964503D01*
X122072077Y-135033294D01*
X122020115Y-135081672D01*
X122011933Y-135085409D01*
X121962557Y-135105861D01*
X121951576Y-135114710D01*
X114527052Y-135114710D01*
X114320463Y-135096636D01*
X114309513Y-135096636D01*
X114099438Y-135115015D01*
X114088651Y-135116917D01*
X114005416Y-135139220D01*
X113993377Y-135146558D01*
X112141000Y-135146558D01*
X112141000Y-133322930D01*
X120924761Y-133322930D01*
X120944061Y-133568152D01*
X120945604Y-133577899D01*
X121003027Y-133817079D01*
X121006076Y-133826464D01*
X121040861Y-133910443D01*
X121049710Y-133921424D01*
X121054866Y-133920108D01*
X121644162Y-133330812D01*
X121650540Y-133319132D01*
X123458224Y-133319132D01*
X123458355Y-133320965D01*
X123462606Y-133327580D01*
X124049394Y-133914368D01*
X124061774Y-133921128D01*
X124066034Y-133917939D01*
X124103924Y-133826464D01*
X124106973Y-133817079D01*
X124164396Y-133577899D01*
X124165939Y-133568152D01*
X124185239Y-133322930D01*
X124185239Y-133313070D01*
X124165939Y-133067848D01*
X124164396Y-133058101D01*
X124106973Y-132818921D01*
X124103924Y-132809536D01*
X124069139Y-132725557D01*
X124060290Y-132714576D01*
X124055134Y-132715892D01*
X123465838Y-133305188D01*
X123458224Y-133319132D01*
X121650540Y-133319132D01*
X121651776Y-133316868D01*
X121651645Y-133315035D01*
X121647394Y-133308420D01*
X121060606Y-132721632D01*
X121048226Y-132714872D01*
X121043966Y-132718061D01*
X121006076Y-132809536D01*
X121003027Y-132818921D01*
X120945604Y-133058101D01*
X120944061Y-133067848D01*
X120924761Y-133313070D01*
X120924761Y-133322930D01*
X112141000Y-133322930D01*
X112141000Y-131973190D01*
X112161002Y-131905069D01*
X112177905Y-131884095D01*
X112249290Y-131812710D01*
X121951576Y-131812710D01*
X121952892Y-131817866D01*
X122542188Y-132407162D01*
X122556132Y-132414776D01*
X122557965Y-132414645D01*
X122564580Y-132410394D01*
X123151368Y-131823606D01*
X123158128Y-131811226D01*
X123154939Y-131806966D01*
X123063464Y-131769076D01*
X123054079Y-131766027D01*
X122814899Y-131708604D01*
X122805152Y-131707061D01*
X122559930Y-131687761D01*
X122550070Y-131687761D01*
X122304848Y-131707061D01*
X122295101Y-131708604D01*
X122055921Y-131766027D01*
X122046536Y-131769076D01*
X121962557Y-131803861D01*
X121951576Y-131812710D01*
X112249290Y-131812710D01*
X112612095Y-131449905D01*
X112674407Y-131415879D01*
X112701190Y-131413000D01*
X127455810Y-131413000D01*
X127523931Y-131433002D01*
G37*
G04 #@! TD.AperFunction*
G04 #@! TA.AperFunction,Conductor*
G36*
X139080931Y-96032002D02*
G01*
X139101905Y-96048905D01*
X139536095Y-96483095D01*
X139570121Y-96545407D01*
X139573000Y-96572190D01*
X139573000Y-97663000D01*
X140081000Y-98171000D01*
X140190316Y-98171000D01*
X140178248Y-98218283D01*
X140173351Y-98225898D01*
X140147148Y-98263600D01*
X140143943Y-98268212D01*
X140049534Y-98474420D01*
X139993132Y-98694089D01*
X139981500Y-98837102D01*
X139981500Y-102159370D01*
X139993132Y-102302383D01*
X140049534Y-102522052D01*
X140143943Y-102728260D01*
X140273377Y-102914492D01*
X140433744Y-103074859D01*
X140619976Y-103204293D01*
X140748424Y-103263101D01*
X140821079Y-103296365D01*
X140821081Y-103296366D01*
X140826184Y-103298702D01*
X140831625Y-103300099D01*
X141040649Y-103353768D01*
X141040651Y-103353768D01*
X141045853Y-103355104D01*
X141123715Y-103361437D01*
X141186316Y-103366529D01*
X141186326Y-103366529D01*
X141188866Y-103366736D01*
X144511134Y-103366736D01*
X144513674Y-103366529D01*
X144513684Y-103366529D01*
X144576285Y-103361437D01*
X144654147Y-103355104D01*
X144659349Y-103353768D01*
X144659351Y-103353768D01*
X144868375Y-103300099D01*
X144873816Y-103298702D01*
X144878919Y-103296366D01*
X144878921Y-103296365D01*
X144951576Y-103263101D01*
X145080024Y-103204293D01*
X145266256Y-103074859D01*
X145426623Y-102914492D01*
X145556057Y-102728260D01*
X145650466Y-102522052D01*
X145706868Y-102302383D01*
X145718500Y-102159370D01*
X145718500Y-98837102D01*
X145706868Y-98694089D01*
X145650466Y-98474420D01*
X145593251Y-98349451D01*
X145583081Y-98279187D01*
X145612512Y-98214578D01*
X145672202Y-98176138D01*
X145707815Y-98171000D01*
X172413810Y-98171000D01*
X172481931Y-98191002D01*
X172502905Y-98207905D01*
X172936595Y-98641595D01*
X172970621Y-98703907D01*
X172973500Y-98730690D01*
X172973500Y-134420786D01*
X172953498Y-134488907D01*
X172899842Y-134535400D01*
X172829568Y-134545504D01*
X172768722Y-134519121D01*
X172687673Y-134454189D01*
X172636822Y-134420786D01*
X172337734Y-134224321D01*
X172337724Y-134224315D01*
X172335250Y-134222690D01*
X171962605Y-134025384D01*
X171573045Y-133864023D01*
X171570222Y-133863155D01*
X171570215Y-133863152D01*
X171172867Y-133740912D01*
X171172865Y-133740912D01*
X171170029Y-133740039D01*
X171167126Y-133739438D01*
X171167119Y-133739436D01*
X170760046Y-133655136D01*
X170760041Y-133655135D01*
X170757133Y-133654533D01*
X170754184Y-133654207D01*
X170754175Y-133654206D01*
X170340987Y-133608590D01*
X170340982Y-133608590D01*
X170338023Y-133608263D01*
X170335039Y-133608216D01*
X170335037Y-133608216D01*
X170244029Y-133606786D01*
X169916419Y-133601639D01*
X169913475Y-133601871D01*
X169913465Y-133601871D01*
X169510563Y-133633581D01*
X169496062Y-133634722D01*
X169080685Y-133707217D01*
X169077814Y-133708003D01*
X169077807Y-133708004D01*
X168676837Y-133817697D01*
X168676827Y-133817700D01*
X168673973Y-133818481D01*
X168671209Y-133819525D01*
X168671198Y-133819529D01*
X168401542Y-133921424D01*
X168279537Y-133967526D01*
X167900878Y-134153029D01*
X167898343Y-134154582D01*
X167898342Y-134154583D01*
X167789380Y-134221355D01*
X167541357Y-134373344D01*
X167538972Y-134375134D01*
X167538973Y-134375134D01*
X167347202Y-134519120D01*
X167204165Y-134626515D01*
X166892295Y-134910295D01*
X166608515Y-135222165D01*
X166355344Y-135559357D01*
X166135029Y-135918878D01*
X165949526Y-136297537D01*
X165948479Y-136300307D01*
X165948478Y-136300310D01*
X165801529Y-136689198D01*
X165801525Y-136689209D01*
X165800481Y-136691973D01*
X165799700Y-136694827D01*
X165799697Y-136694837D01*
X165749070Y-136879899D01*
X165689217Y-137098685D01*
X165616722Y-137514062D01*
X165583639Y-137934419D01*
X165590263Y-138356023D01*
X165636533Y-138775133D01*
X165722039Y-139188029D01*
X165846023Y-139591045D01*
X166007384Y-139980605D01*
X166204690Y-140353250D01*
X166206315Y-140355724D01*
X166206321Y-140355734D01*
X166314851Y-140520954D01*
X166436189Y-140705673D01*
X166501121Y-140786722D01*
X166528102Y-140852389D01*
X166515297Y-140922221D01*
X166466770Y-140974045D01*
X166402786Y-140991500D01*
X131137690Y-140991500D01*
X131069569Y-140971498D01*
X131048595Y-140954595D01*
X130846905Y-140752905D01*
X130812879Y-140690593D01*
X130810000Y-140663810D01*
X130810000Y-138126774D01*
X135413872Y-138126774D01*
X135417061Y-138131034D01*
X135508536Y-138168924D01*
X135517921Y-138171973D01*
X135757101Y-138229396D01*
X135766848Y-138230939D01*
X136012070Y-138250239D01*
X136021930Y-138250239D01*
X136267152Y-138230939D01*
X136276899Y-138229396D01*
X136516079Y-138171973D01*
X136525464Y-138168924D01*
X136609443Y-138134139D01*
X136620424Y-138125290D01*
X136619108Y-138120134D01*
X136029812Y-137530838D01*
X136015868Y-137523224D01*
X136014035Y-137523355D01*
X136007420Y-137527606D01*
X135420632Y-138114394D01*
X135413872Y-138126774D01*
X130810000Y-138126774D01*
X130810000Y-136624930D01*
X134386761Y-136624930D01*
X134406061Y-136870152D01*
X134407604Y-136879899D01*
X134465027Y-137119079D01*
X134468076Y-137128464D01*
X134502861Y-137212443D01*
X134511710Y-137223424D01*
X134516866Y-137222108D01*
X135106162Y-136632812D01*
X135112540Y-136621132D01*
X136920224Y-136621132D01*
X136920355Y-136622965D01*
X136924606Y-136629580D01*
X137511394Y-137216368D01*
X137523774Y-137223128D01*
X137528034Y-137219939D01*
X137565924Y-137128464D01*
X137568973Y-137119079D01*
X137626396Y-136879899D01*
X137627939Y-136870152D01*
X137647239Y-136624930D01*
X137647239Y-136615070D01*
X137627939Y-136369848D01*
X137626396Y-136360101D01*
X137568973Y-136120921D01*
X137565924Y-136111536D01*
X137531139Y-136027557D01*
X137522290Y-136016576D01*
X137517134Y-136017892D01*
X136927838Y-136607188D01*
X136920224Y-136621132D01*
X135112540Y-136621132D01*
X135113776Y-136618868D01*
X135113645Y-136617035D01*
X135109394Y-136610420D01*
X134522606Y-136023632D01*
X134510226Y-136016872D01*
X134505966Y-136020061D01*
X134468076Y-136111536D01*
X134465027Y-136120921D01*
X134407604Y-136360101D01*
X134406061Y-136369848D01*
X134386761Y-136615070D01*
X134386761Y-136624930D01*
X130810000Y-136624930D01*
X130810000Y-135114710D01*
X135413576Y-135114710D01*
X135414892Y-135119866D01*
X136004188Y-135709162D01*
X136018132Y-135716776D01*
X136019965Y-135716645D01*
X136026580Y-135712394D01*
X136613368Y-135125606D01*
X136620128Y-135113226D01*
X136616939Y-135108966D01*
X136560067Y-135085409D01*
X136504786Y-135040861D01*
X136482365Y-134973497D01*
X136499923Y-134904706D01*
X136551885Y-134856328D01*
X136560067Y-134852591D01*
X136609443Y-134832139D01*
X136620424Y-134823290D01*
X136619108Y-134818134D01*
X136029812Y-134228838D01*
X136015868Y-134221224D01*
X136014035Y-134221355D01*
X136007420Y-134225606D01*
X135420632Y-134812394D01*
X135413872Y-134824774D01*
X135417061Y-134829034D01*
X135473933Y-134852591D01*
X135529214Y-134897139D01*
X135551635Y-134964503D01*
X135534077Y-135033294D01*
X135482115Y-135081672D01*
X135473933Y-135085409D01*
X135424557Y-135105861D01*
X135413576Y-135114710D01*
X130810000Y-135114710D01*
X130810000Y-133322930D01*
X134386761Y-133322930D01*
X134406061Y-133568152D01*
X134407604Y-133577899D01*
X134465027Y-133817079D01*
X134468076Y-133826464D01*
X134502861Y-133910443D01*
X134511710Y-133921424D01*
X134516866Y-133920108D01*
X135106162Y-133330812D01*
X135112540Y-133319132D01*
X136920224Y-133319132D01*
X136920355Y-133320965D01*
X136924606Y-133327580D01*
X137511394Y-133914368D01*
X137523774Y-133921128D01*
X137528034Y-133917939D01*
X137565924Y-133826464D01*
X137568973Y-133817079D01*
X137626396Y-133577899D01*
X137627939Y-133568152D01*
X137647239Y-133322930D01*
X137647239Y-133313070D01*
X137627939Y-133067848D01*
X137626396Y-133058101D01*
X137568973Y-132818921D01*
X137565924Y-132809536D01*
X137531139Y-132725557D01*
X137522290Y-132714576D01*
X137517134Y-132715892D01*
X136927838Y-133305188D01*
X136920224Y-133319132D01*
X135112540Y-133319132D01*
X135113776Y-133316868D01*
X135113645Y-133315035D01*
X135109394Y-133308420D01*
X134522606Y-132721632D01*
X134510226Y-132714872D01*
X134505966Y-132718061D01*
X134468076Y-132809536D01*
X134465027Y-132818921D01*
X134407604Y-133058101D01*
X134406061Y-133067848D01*
X134386761Y-133313070D01*
X134386761Y-133322930D01*
X130810000Y-133322930D01*
X130810000Y-131812710D01*
X135413576Y-131812710D01*
X135414892Y-131817866D01*
X136004188Y-132407162D01*
X136018132Y-132414776D01*
X136019965Y-132414645D01*
X136026580Y-132410394D01*
X136613368Y-131823606D01*
X136620128Y-131811226D01*
X136616939Y-131806966D01*
X136525464Y-131769076D01*
X136516079Y-131766027D01*
X136276899Y-131708604D01*
X136267152Y-131707061D01*
X136021930Y-131687761D01*
X136012070Y-131687761D01*
X135766848Y-131707061D01*
X135757101Y-131708604D01*
X135517921Y-131766027D01*
X135508536Y-131769076D01*
X135424557Y-131803861D01*
X135413576Y-131812710D01*
X130810000Y-131812710D01*
X130810000Y-128878236D01*
X142144435Y-128878236D01*
X142164673Y-129187004D01*
X142225040Y-129490489D01*
X142324503Y-129783499D01*
X142326326Y-129787195D01*
X142326329Y-129787203D01*
X142436793Y-130011200D01*
X142461361Y-130061018D01*
X142463655Y-130064451D01*
X142463656Y-130064452D01*
X142633271Y-130318301D01*
X142635985Y-130321395D01*
X142635989Y-130321401D01*
X142834584Y-130547854D01*
X142837293Y-130550943D01*
X142840382Y-130553652D01*
X143066835Y-130752247D01*
X143066841Y-130752251D01*
X143069935Y-130754965D01*
X143327218Y-130926875D01*
X143330921Y-130928701D01*
X143601033Y-131061907D01*
X143601041Y-131061910D01*
X143604737Y-131063733D01*
X143608651Y-131065062D01*
X143608652Y-131065062D01*
X143893840Y-131161870D01*
X143893843Y-131161871D01*
X143897747Y-131163196D01*
X143901786Y-131163999D01*
X143901792Y-131164001D01*
X144197189Y-131222759D01*
X144197192Y-131222759D01*
X144201232Y-131223563D01*
X144205343Y-131223832D01*
X144205347Y-131223833D01*
X144430675Y-131238602D01*
X144430684Y-131238602D01*
X144432724Y-131238736D01*
X144587276Y-131238736D01*
X144589316Y-131238602D01*
X144589325Y-131238602D01*
X144814653Y-131223833D01*
X144814657Y-131223832D01*
X144818768Y-131223563D01*
X144822808Y-131222759D01*
X144822811Y-131222759D01*
X145118208Y-131164001D01*
X145118214Y-131163999D01*
X145122253Y-131163196D01*
X145126157Y-131161871D01*
X145126160Y-131161870D01*
X145411348Y-131065062D01*
X145411349Y-131065062D01*
X145415263Y-131063733D01*
X145418959Y-131061910D01*
X145418967Y-131061907D01*
X145689079Y-130928701D01*
X145692782Y-130926875D01*
X145950065Y-130754965D01*
X145953159Y-130752251D01*
X145953165Y-130752247D01*
X146179618Y-130553652D01*
X146182707Y-130550943D01*
X146185416Y-130547854D01*
X146384011Y-130321401D01*
X146384015Y-130321395D01*
X146386729Y-130318301D01*
X146558639Y-130061019D01*
X146695497Y-129783499D01*
X146794960Y-129490489D01*
X146855327Y-129187004D01*
X146875565Y-128878236D01*
X167544435Y-128878236D01*
X167564673Y-129187004D01*
X167625040Y-129490489D01*
X167724503Y-129783499D01*
X167726326Y-129787195D01*
X167726329Y-129787203D01*
X167836793Y-130011200D01*
X167861361Y-130061018D01*
X167863655Y-130064451D01*
X167863656Y-130064452D01*
X168033271Y-130318301D01*
X168035985Y-130321395D01*
X168035989Y-130321401D01*
X168234584Y-130547854D01*
X168237293Y-130550943D01*
X168240382Y-130553652D01*
X168466835Y-130752247D01*
X168466841Y-130752251D01*
X168469935Y-130754965D01*
X168727218Y-130926875D01*
X168730921Y-130928701D01*
X169001033Y-131061907D01*
X169001041Y-131061910D01*
X169004737Y-131063733D01*
X169008651Y-131065062D01*
X169008652Y-131065062D01*
X169293840Y-131161870D01*
X169293843Y-131161871D01*
X169297747Y-131163196D01*
X169301786Y-131163999D01*
X169301792Y-131164001D01*
X169597189Y-131222759D01*
X169597192Y-131222759D01*
X169601232Y-131223563D01*
X169605343Y-131223832D01*
X169605347Y-131223833D01*
X169830675Y-131238602D01*
X169830684Y-131238602D01*
X169832724Y-131238736D01*
X169987276Y-131238736D01*
X169989316Y-131238602D01*
X169989325Y-131238602D01*
X170214653Y-131223833D01*
X170214657Y-131223832D01*
X170218768Y-131223563D01*
X170222808Y-131222759D01*
X170222811Y-131222759D01*
X170518208Y-131164001D01*
X170518214Y-131163999D01*
X170522253Y-131163196D01*
X170526157Y-131161871D01*
X170526160Y-131161870D01*
X170811348Y-131065062D01*
X170811349Y-131065062D01*
X170815263Y-131063733D01*
X170818959Y-131061910D01*
X170818967Y-131061907D01*
X171089079Y-130928701D01*
X171092782Y-130926875D01*
X171350065Y-130754965D01*
X171353159Y-130752251D01*
X171353165Y-130752247D01*
X171579618Y-130553652D01*
X171582707Y-130550943D01*
X171585416Y-130547854D01*
X171784011Y-130321401D01*
X171784015Y-130321395D01*
X171786729Y-130318301D01*
X171958639Y-130061019D01*
X172095497Y-129783499D01*
X172194960Y-129490489D01*
X172255327Y-129187004D01*
X172275565Y-128878236D01*
X172255327Y-128569468D01*
X172194960Y-128265983D01*
X172095497Y-127972973D01*
X172093673Y-127969275D01*
X172093671Y-127969269D01*
X171960465Y-127699157D01*
X171958639Y-127695454D01*
X171956345Y-127692021D01*
X171956344Y-127692019D01*
X171912499Y-127626400D01*
X171786729Y-127438171D01*
X171784015Y-127435077D01*
X171784011Y-127435071D01*
X171585416Y-127208618D01*
X171582707Y-127205529D01*
X171579618Y-127202820D01*
X171353165Y-127004225D01*
X171353159Y-127004221D01*
X171350065Y-127001507D01*
X171092782Y-126829597D01*
X171042964Y-126805029D01*
X170818967Y-126694565D01*
X170818959Y-126694562D01*
X170815263Y-126692739D01*
X170811348Y-126691410D01*
X170526160Y-126594602D01*
X170526157Y-126594601D01*
X170522253Y-126593276D01*
X170518214Y-126592473D01*
X170518208Y-126592471D01*
X170222811Y-126533713D01*
X170222808Y-126533713D01*
X170218768Y-126532909D01*
X170214657Y-126532640D01*
X170214653Y-126532639D01*
X169989325Y-126517870D01*
X169989316Y-126517870D01*
X169987276Y-126517736D01*
X169832724Y-126517736D01*
X169830684Y-126517870D01*
X169830675Y-126517870D01*
X169605347Y-126532639D01*
X169605343Y-126532640D01*
X169601232Y-126532909D01*
X169597192Y-126533713D01*
X169597189Y-126533713D01*
X169301792Y-126592471D01*
X169301786Y-126592473D01*
X169297747Y-126593276D01*
X169293843Y-126594601D01*
X169293840Y-126594602D01*
X169008652Y-126691410D01*
X169004737Y-126692739D01*
X169001041Y-126694562D01*
X169001033Y-126694565D01*
X168777036Y-126805029D01*
X168727218Y-126829597D01*
X168469935Y-127001507D01*
X168466841Y-127004221D01*
X168466835Y-127004225D01*
X168240382Y-127202820D01*
X168237293Y-127205529D01*
X168234584Y-127208618D01*
X168035989Y-127435071D01*
X168035985Y-127435077D01*
X168033271Y-127438171D01*
X167861361Y-127695453D01*
X167724503Y-127972973D01*
X167625040Y-128265983D01*
X167564673Y-128569468D01*
X167544435Y-128878236D01*
X146875565Y-128878236D01*
X146855327Y-128569468D01*
X146794960Y-128265983D01*
X146695497Y-127972973D01*
X146693673Y-127969275D01*
X146693671Y-127969269D01*
X146560465Y-127699157D01*
X146558639Y-127695454D01*
X146556345Y-127692021D01*
X146556344Y-127692019D01*
X146512499Y-127626400D01*
X146386729Y-127438171D01*
X146384015Y-127435077D01*
X146384011Y-127435071D01*
X146185416Y-127208618D01*
X146182707Y-127205529D01*
X146179618Y-127202820D01*
X145953165Y-127004225D01*
X145953159Y-127004221D01*
X145950065Y-127001507D01*
X145692782Y-126829597D01*
X145642964Y-126805029D01*
X145418967Y-126694565D01*
X145418959Y-126694562D01*
X145415263Y-126692739D01*
X145411348Y-126691410D01*
X145126160Y-126594602D01*
X145126157Y-126594601D01*
X145122253Y-126593276D01*
X145118214Y-126592473D01*
X145118208Y-126592471D01*
X144822811Y-126533713D01*
X144822808Y-126533713D01*
X144818768Y-126532909D01*
X144814657Y-126532640D01*
X144814653Y-126532639D01*
X144589325Y-126517870D01*
X144589316Y-126517870D01*
X144587276Y-126517736D01*
X144432724Y-126517736D01*
X144430684Y-126517870D01*
X144430675Y-126517870D01*
X144205347Y-126532639D01*
X144205343Y-126532640D01*
X144201232Y-126532909D01*
X144197192Y-126533713D01*
X144197189Y-126533713D01*
X143901792Y-126592471D01*
X143901786Y-126592473D01*
X143897747Y-126593276D01*
X143893843Y-126594601D01*
X143893840Y-126594602D01*
X143608652Y-126691410D01*
X143604737Y-126692739D01*
X143601041Y-126694562D01*
X143601033Y-126694565D01*
X143377036Y-126805029D01*
X143327218Y-126829597D01*
X143069935Y-127001507D01*
X143066841Y-127004221D01*
X143066835Y-127004225D01*
X142840382Y-127202820D01*
X142837293Y-127205529D01*
X142834584Y-127208618D01*
X142635989Y-127435071D01*
X142635985Y-127435077D01*
X142633271Y-127438171D01*
X142461361Y-127695453D01*
X142324503Y-127972973D01*
X142225040Y-128265983D01*
X142164673Y-128569468D01*
X142144435Y-128878236D01*
X130810000Y-128878236D01*
X130810000Y-126876774D01*
X135413872Y-126876774D01*
X135417061Y-126881034D01*
X135508536Y-126918924D01*
X135517921Y-126921973D01*
X135757101Y-126979396D01*
X135766848Y-126980939D01*
X136012070Y-127000239D01*
X136021930Y-127000239D01*
X136267152Y-126980939D01*
X136276899Y-126979396D01*
X136516079Y-126921973D01*
X136525464Y-126918924D01*
X136609443Y-126884139D01*
X136620424Y-126875290D01*
X136619108Y-126870134D01*
X136029812Y-126280838D01*
X136015868Y-126273224D01*
X136014035Y-126273355D01*
X136007420Y-126277606D01*
X135420632Y-126864394D01*
X135413872Y-126876774D01*
X130810000Y-126876774D01*
X130810000Y-125374930D01*
X134386761Y-125374930D01*
X134406061Y-125620152D01*
X134407604Y-125629899D01*
X134465027Y-125869079D01*
X134468076Y-125878464D01*
X134502861Y-125962443D01*
X134511710Y-125973424D01*
X134516866Y-125972108D01*
X135106162Y-125382812D01*
X135112540Y-125371132D01*
X136920224Y-125371132D01*
X136920355Y-125372965D01*
X136924606Y-125379580D01*
X137511394Y-125966368D01*
X137523774Y-125973128D01*
X137528034Y-125969939D01*
X137565924Y-125878464D01*
X137568973Y-125869079D01*
X137626396Y-125629899D01*
X137627939Y-125620152D01*
X137647239Y-125374930D01*
X137647239Y-125365070D01*
X137642835Y-125309110D01*
X141882772Y-125309110D01*
X141886351Y-125313890D01*
X142110280Y-125414997D01*
X142118311Y-125417984D01*
X142385404Y-125497101D01*
X142393757Y-125498968D01*
X142669122Y-125541105D01*
X142677655Y-125541821D01*
X142956186Y-125546197D01*
X142964737Y-125545748D01*
X143241289Y-125512282D01*
X143249689Y-125510680D01*
X143519155Y-125439987D01*
X143527257Y-125437260D01*
X143784630Y-125330653D01*
X143792292Y-125326850D01*
X143807133Y-125318177D01*
X143816812Y-125307920D01*
X143813494Y-125299756D01*
X142862812Y-124349074D01*
X142848868Y-124341460D01*
X142847035Y-124341591D01*
X142840420Y-124345842D01*
X141889532Y-125296730D01*
X141882772Y-125309110D01*
X137642835Y-125309110D01*
X137627939Y-125119848D01*
X137626396Y-125110101D01*
X137568973Y-124870921D01*
X137565924Y-124861536D01*
X137531139Y-124777557D01*
X137522290Y-124766576D01*
X137517134Y-124767892D01*
X136927838Y-125357188D01*
X136920224Y-125371132D01*
X135112540Y-125371132D01*
X135113776Y-125368868D01*
X135113645Y-125367035D01*
X135109394Y-125360420D01*
X134522606Y-124773632D01*
X134510226Y-124766872D01*
X134505966Y-124770061D01*
X134468076Y-124861536D01*
X134465027Y-124870921D01*
X134407604Y-125110101D01*
X134406061Y-125119848D01*
X134386761Y-125365070D01*
X134386761Y-125374930D01*
X130810000Y-125374930D01*
X130810000Y-123864710D01*
X135413576Y-123864710D01*
X135414892Y-123869866D01*
X136004188Y-124459162D01*
X136018132Y-124466776D01*
X136019965Y-124466645D01*
X136026580Y-124462394D01*
X136613368Y-123875606D01*
X136620128Y-123863226D01*
X136616939Y-123858966D01*
X136560067Y-123835409D01*
X136504786Y-123790861D01*
X136482365Y-123723497D01*
X136499923Y-123654706D01*
X136551885Y-123606328D01*
X136560067Y-123602591D01*
X136609443Y-123582139D01*
X136620424Y-123573290D01*
X136619108Y-123568134D01*
X136471385Y-123420411D01*
X140739442Y-123420411D01*
X140755477Y-123698518D01*
X140756550Y-123707017D01*
X140810182Y-123980376D01*
X140812395Y-123988638D01*
X140902631Y-124252195D01*
X140905947Y-124260082D01*
X140972827Y-124393059D01*
X140982456Y-124403362D01*
X140989060Y-124401150D01*
X141939162Y-123451048D01*
X141945540Y-123439368D01*
X143753224Y-123439368D01*
X143753355Y-123441201D01*
X143757606Y-123447816D01*
X144706347Y-124396557D01*
X144718727Y-124403317D01*
X144724991Y-124398628D01*
X144767276Y-124320748D01*
X144770844Y-124312954D01*
X144869308Y-124052377D01*
X144871785Y-124044171D01*
X144933974Y-123772641D01*
X144935314Y-123764181D01*
X144960238Y-123484909D01*
X144960484Y-123479970D01*
X144960895Y-123440720D01*
X144960752Y-123435756D01*
X144941682Y-123156028D01*
X144940521Y-123147554D01*
X144884031Y-122874774D01*
X144881726Y-122866520D01*
X144788739Y-122603929D01*
X144785343Y-122596081D01*
X144727213Y-122483457D01*
X144717476Y-122473255D01*
X144710636Y-122475626D01*
X143760838Y-123425424D01*
X143753224Y-123439368D01*
X141945540Y-123439368D01*
X141946776Y-123437104D01*
X141946645Y-123435271D01*
X141942394Y-123428656D01*
X140993866Y-122480128D01*
X140981486Y-122473368D01*
X140975462Y-122477878D01*
X140923583Y-122575860D01*
X140920104Y-122583674D01*
X140824371Y-122845277D01*
X140821982Y-122853500D01*
X140762637Y-123125680D01*
X140761388Y-123134136D01*
X140739531Y-123411860D01*
X140739442Y-123420411D01*
X136471385Y-123420411D01*
X136029812Y-122978838D01*
X136015868Y-122971224D01*
X136014035Y-122971355D01*
X136007420Y-122975606D01*
X135420632Y-123562394D01*
X135413872Y-123574774D01*
X135417061Y-123579034D01*
X135473933Y-123602591D01*
X135529214Y-123647139D01*
X135551635Y-123714503D01*
X135534077Y-123783294D01*
X135482115Y-123831672D01*
X135473933Y-123835409D01*
X135424557Y-123855861D01*
X135413576Y-123864710D01*
X130810000Y-123864710D01*
X130810000Y-122072930D01*
X134386761Y-122072930D01*
X134406061Y-122318152D01*
X134407604Y-122327899D01*
X134465027Y-122567079D01*
X134468076Y-122576464D01*
X134502861Y-122660443D01*
X134511710Y-122671424D01*
X134516866Y-122670108D01*
X135106162Y-122080812D01*
X135112540Y-122069132D01*
X136920224Y-122069132D01*
X136920355Y-122070965D01*
X136924606Y-122077580D01*
X137511394Y-122664368D01*
X137523774Y-122671128D01*
X137528034Y-122667939D01*
X137565924Y-122576464D01*
X137568973Y-122567079D01*
X137626396Y-122327899D01*
X137627939Y-122318152D01*
X137647239Y-122072930D01*
X137647239Y-122063070D01*
X137627939Y-121817848D01*
X137626396Y-121808101D01*
X137568973Y-121568921D01*
X137565924Y-121559536D01*
X137531139Y-121475557D01*
X137522290Y-121464576D01*
X137517134Y-121465892D01*
X136927838Y-122055188D01*
X136920224Y-122069132D01*
X135112540Y-122069132D01*
X135113776Y-122066868D01*
X135113645Y-122065035D01*
X135109394Y-122058420D01*
X134522606Y-121471632D01*
X134510226Y-121464872D01*
X134505966Y-121468061D01*
X134468076Y-121559536D01*
X134465027Y-121568921D01*
X134407604Y-121808101D01*
X134406061Y-121817848D01*
X134386761Y-122063070D01*
X134386761Y-122072930D01*
X130810000Y-122072930D01*
X130810000Y-120562710D01*
X135413576Y-120562710D01*
X135414892Y-120567866D01*
X136004188Y-121157162D01*
X136018132Y-121164776D01*
X136019965Y-121164645D01*
X136026580Y-121160394D01*
X136613368Y-120573606D01*
X136620128Y-120561226D01*
X136616939Y-120556966D01*
X136525464Y-120519076D01*
X136516079Y-120516027D01*
X136276899Y-120458604D01*
X136267152Y-120457061D01*
X136021930Y-120437761D01*
X136012070Y-120437761D01*
X135766848Y-120457061D01*
X135757101Y-120458604D01*
X135517921Y-120516027D01*
X135508536Y-120519076D01*
X135424557Y-120553861D01*
X135413576Y-120562710D01*
X130810000Y-120562710D01*
X130810000Y-120099370D01*
X139981500Y-120099370D01*
X139993132Y-120242383D01*
X140049534Y-120462052D01*
X140051870Y-120467155D01*
X140051871Y-120467157D01*
X140085135Y-120539812D01*
X140143943Y-120668260D01*
X140273377Y-120854492D01*
X140433744Y-121014859D01*
X140619976Y-121144293D01*
X140748424Y-121203101D01*
X140821079Y-121236365D01*
X140821081Y-121236366D01*
X140826184Y-121238702D01*
X140831625Y-121240099D01*
X141040649Y-121293768D01*
X141040651Y-121293768D01*
X141045853Y-121295104D01*
X141123715Y-121301437D01*
X141186316Y-121306529D01*
X141186326Y-121306529D01*
X141188866Y-121306736D01*
X141862762Y-121306736D01*
X141930883Y-121326738D01*
X141977376Y-121380394D01*
X141987480Y-121450668D01*
X141957986Y-121515248D01*
X141912197Y-121548633D01*
X141895614Y-121555706D01*
X141891285Y-121557912D01*
X141882323Y-121567612D01*
X141885868Y-121576078D01*
X142837188Y-122527398D01*
X142851132Y-122535012D01*
X142852965Y-122534881D01*
X142859580Y-122530630D01*
X143811485Y-121578725D01*
X143818245Y-121566345D01*
X143814802Y-121561746D01*
X143783738Y-121548110D01*
X143729402Y-121502414D01*
X143708397Y-121434596D01*
X143727391Y-121366187D01*
X143780355Y-121318907D01*
X143834383Y-121306736D01*
X144511134Y-121306736D01*
X144513674Y-121306529D01*
X144513684Y-121306529D01*
X144576285Y-121301437D01*
X144654147Y-121295104D01*
X144659349Y-121293768D01*
X144659351Y-121293768D01*
X144868375Y-121240099D01*
X144873816Y-121238702D01*
X144878919Y-121236366D01*
X144878921Y-121236365D01*
X144951576Y-121203101D01*
X145080024Y-121144293D01*
X145266256Y-121014859D01*
X145426623Y-120854492D01*
X145556057Y-120668260D01*
X145614865Y-120539812D01*
X145648129Y-120467157D01*
X145648130Y-120467155D01*
X145650466Y-120462052D01*
X145706868Y-120242383D01*
X145718500Y-120099370D01*
X145718500Y-116777102D01*
X145706868Y-116634089D01*
X145650466Y-116414420D01*
X145556057Y-116208212D01*
X145426623Y-116021980D01*
X145266256Y-115861613D01*
X145080024Y-115732179D01*
X144941863Y-115668924D01*
X144878921Y-115640107D01*
X144878919Y-115640106D01*
X144873816Y-115637770D01*
X144805129Y-115620134D01*
X144659351Y-115582704D01*
X144659349Y-115582704D01*
X144654147Y-115581368D01*
X144576285Y-115575035D01*
X144513684Y-115569943D01*
X144513674Y-115569943D01*
X144511134Y-115569736D01*
X141188866Y-115569736D01*
X141186326Y-115569943D01*
X141186316Y-115569943D01*
X141123715Y-115575035D01*
X141045853Y-115581368D01*
X141040651Y-115582704D01*
X141040649Y-115582704D01*
X140894871Y-115620134D01*
X140826184Y-115637770D01*
X140821081Y-115640106D01*
X140821079Y-115640107D01*
X140758137Y-115668924D01*
X140619976Y-115732179D01*
X140433744Y-115861613D01*
X140273377Y-116021980D01*
X140143943Y-116208212D01*
X140049534Y-116414420D01*
X139993132Y-116634089D01*
X139981500Y-116777102D01*
X139981500Y-120099370D01*
X130810000Y-120099370D01*
X130810000Y-115626774D01*
X135159872Y-115626774D01*
X135163061Y-115631034D01*
X135254536Y-115668924D01*
X135263921Y-115671973D01*
X135503101Y-115729396D01*
X135512848Y-115730939D01*
X135758070Y-115750239D01*
X135767930Y-115750239D01*
X136013152Y-115730939D01*
X136022899Y-115729396D01*
X136262079Y-115671973D01*
X136271464Y-115668924D01*
X136355443Y-115634139D01*
X136366424Y-115625290D01*
X136365108Y-115620134D01*
X135775812Y-115030838D01*
X135761868Y-115023224D01*
X135760035Y-115023355D01*
X135753420Y-115027606D01*
X135166632Y-115614394D01*
X135159872Y-115626774D01*
X130810000Y-115626774D01*
X130810000Y-114124930D01*
X134132761Y-114124930D01*
X134152061Y-114370152D01*
X134153604Y-114379899D01*
X134211027Y-114619079D01*
X134214076Y-114628464D01*
X134248861Y-114712443D01*
X134257710Y-114723424D01*
X134262866Y-114722108D01*
X134852162Y-114132812D01*
X134858540Y-114121132D01*
X136666224Y-114121132D01*
X136666355Y-114122965D01*
X136670606Y-114129580D01*
X137257394Y-114716368D01*
X137269774Y-114723128D01*
X137274034Y-114719939D01*
X137311924Y-114628464D01*
X137314973Y-114619079D01*
X137372396Y-114379899D01*
X137373939Y-114370152D01*
X137393239Y-114124930D01*
X137393239Y-114115070D01*
X137373939Y-113869848D01*
X137372396Y-113860101D01*
X137314973Y-113620921D01*
X137311924Y-113611536D01*
X137277139Y-113527557D01*
X137268290Y-113516576D01*
X137263134Y-113517892D01*
X136673838Y-114107188D01*
X136666224Y-114121132D01*
X134858540Y-114121132D01*
X134859776Y-114118868D01*
X134859645Y-114117035D01*
X134855394Y-114110420D01*
X134268606Y-113523632D01*
X134256226Y-113516872D01*
X134251966Y-113520061D01*
X134214076Y-113611536D01*
X134211027Y-113620921D01*
X134153604Y-113860101D01*
X134152061Y-113869848D01*
X134132761Y-114115070D01*
X134132761Y-114124930D01*
X130810000Y-114124930D01*
X130810000Y-112614710D01*
X135159576Y-112614710D01*
X135160892Y-112619866D01*
X135750188Y-113209162D01*
X135764132Y-113216776D01*
X135765965Y-113216645D01*
X135772580Y-113212394D01*
X136359368Y-112625606D01*
X136366128Y-112613226D01*
X136362939Y-112608966D01*
X136306067Y-112585409D01*
X136250786Y-112540861D01*
X136228365Y-112473497D01*
X136245923Y-112404706D01*
X136297885Y-112356328D01*
X136306067Y-112352591D01*
X136355443Y-112332139D01*
X136366424Y-112323290D01*
X136365108Y-112318134D01*
X135775812Y-111728838D01*
X135761868Y-111721224D01*
X135760035Y-111721355D01*
X135753420Y-111725606D01*
X135166632Y-112312394D01*
X135159872Y-112324774D01*
X135163061Y-112329034D01*
X135219933Y-112352591D01*
X135275214Y-112397139D01*
X135297635Y-112464503D01*
X135280077Y-112533294D01*
X135228115Y-112581672D01*
X135219933Y-112585409D01*
X135170557Y-112605861D01*
X135159576Y-112614710D01*
X130810000Y-112614710D01*
X130810000Y-110822930D01*
X134132761Y-110822930D01*
X134152061Y-111068152D01*
X134153604Y-111077899D01*
X134211027Y-111317079D01*
X134214076Y-111326464D01*
X134248861Y-111410443D01*
X134257710Y-111421424D01*
X134262866Y-111420108D01*
X134852162Y-110830812D01*
X134858540Y-110819132D01*
X136666224Y-110819132D01*
X136666355Y-110820965D01*
X136670606Y-110827580D01*
X137257394Y-111414368D01*
X137269774Y-111421128D01*
X137274034Y-111417939D01*
X137311924Y-111326464D01*
X137314973Y-111317079D01*
X137372396Y-111077899D01*
X137373939Y-111068152D01*
X137393239Y-110822930D01*
X137393239Y-110813070D01*
X137373939Y-110567848D01*
X137372396Y-110558101D01*
X137314973Y-110318921D01*
X137311924Y-110309536D01*
X137277139Y-110225557D01*
X137268290Y-110214576D01*
X137263134Y-110215892D01*
X136673838Y-110805188D01*
X136666224Y-110819132D01*
X134858540Y-110819132D01*
X134859776Y-110816868D01*
X134859645Y-110815035D01*
X134855394Y-110808420D01*
X134268606Y-110221632D01*
X134256226Y-110214872D01*
X134251966Y-110218061D01*
X134214076Y-110309536D01*
X134211027Y-110318921D01*
X134153604Y-110558101D01*
X134152061Y-110567848D01*
X134132761Y-110813070D01*
X134132761Y-110822930D01*
X130810000Y-110822930D01*
X130810000Y-109312710D01*
X135159576Y-109312710D01*
X135160892Y-109317866D01*
X135750188Y-109907162D01*
X135764132Y-109914776D01*
X135765965Y-109914645D01*
X135772580Y-109910394D01*
X136359368Y-109323606D01*
X136366128Y-109311226D01*
X136362939Y-109306966D01*
X136271464Y-109269076D01*
X136262079Y-109266027D01*
X136022899Y-109208604D01*
X136013152Y-109207061D01*
X135767930Y-109187761D01*
X135758070Y-109187761D01*
X135512848Y-109207061D01*
X135503101Y-109208604D01*
X135263921Y-109266027D01*
X135254536Y-109269076D01*
X135170557Y-109303861D01*
X135159576Y-109312710D01*
X130810000Y-109312710D01*
X130810000Y-104376774D01*
X135413872Y-104376774D01*
X135417061Y-104381034D01*
X135508536Y-104418924D01*
X135517921Y-104421973D01*
X135757101Y-104479396D01*
X135766848Y-104480939D01*
X136012070Y-104500239D01*
X136021930Y-104500239D01*
X136267152Y-104480939D01*
X136276899Y-104479396D01*
X136516079Y-104421973D01*
X136525464Y-104418924D01*
X136609443Y-104384139D01*
X136620424Y-104375290D01*
X136619108Y-104370134D01*
X136029812Y-103780838D01*
X136015868Y-103773224D01*
X136014035Y-103773355D01*
X136007420Y-103777606D01*
X135420632Y-104364394D01*
X135413872Y-104376774D01*
X130810000Y-104376774D01*
X130810000Y-102874930D01*
X134386761Y-102874930D01*
X134406061Y-103120152D01*
X134407604Y-103129899D01*
X134465027Y-103369079D01*
X134468076Y-103378464D01*
X134502861Y-103462443D01*
X134511710Y-103473424D01*
X134516866Y-103472108D01*
X135106162Y-102882812D01*
X135112540Y-102871132D01*
X136920224Y-102871132D01*
X136920355Y-102872965D01*
X136924606Y-102879580D01*
X137511394Y-103466368D01*
X137523774Y-103473128D01*
X137528034Y-103469939D01*
X137565924Y-103378464D01*
X137568973Y-103369079D01*
X137626396Y-103129899D01*
X137627939Y-103120152D01*
X137647239Y-102874930D01*
X137647239Y-102865070D01*
X137627939Y-102619848D01*
X137626396Y-102610101D01*
X137568973Y-102370921D01*
X137565924Y-102361536D01*
X137531139Y-102277557D01*
X137522290Y-102266576D01*
X137517134Y-102267892D01*
X136927838Y-102857188D01*
X136920224Y-102871132D01*
X135112540Y-102871132D01*
X135113776Y-102868868D01*
X135113645Y-102867035D01*
X135109394Y-102860420D01*
X134522606Y-102273632D01*
X134510226Y-102266872D01*
X134505966Y-102270061D01*
X134468076Y-102361536D01*
X134465027Y-102370921D01*
X134407604Y-102610101D01*
X134406061Y-102619848D01*
X134386761Y-102865070D01*
X134386761Y-102874930D01*
X130810000Y-102874930D01*
X130810000Y-101364710D01*
X135413576Y-101364710D01*
X135414892Y-101369866D01*
X136004188Y-101959162D01*
X136018132Y-101966776D01*
X136019965Y-101966645D01*
X136026580Y-101962394D01*
X136613368Y-101375606D01*
X136620128Y-101363226D01*
X136616939Y-101358966D01*
X136560067Y-101335409D01*
X136504786Y-101290861D01*
X136482365Y-101223497D01*
X136499923Y-101154706D01*
X136551885Y-101106328D01*
X136560067Y-101102591D01*
X136609443Y-101082139D01*
X136620424Y-101073290D01*
X136619108Y-101068134D01*
X136029812Y-100478838D01*
X136015868Y-100471224D01*
X136014035Y-100471355D01*
X136007420Y-100475606D01*
X135420632Y-101062394D01*
X135413872Y-101074774D01*
X135417061Y-101079034D01*
X135473933Y-101102591D01*
X135529214Y-101147139D01*
X135551635Y-101214503D01*
X135534077Y-101283294D01*
X135482115Y-101331672D01*
X135473933Y-101335409D01*
X135424557Y-101355861D01*
X135413576Y-101364710D01*
X130810000Y-101364710D01*
X130810000Y-99572930D01*
X134386761Y-99572930D01*
X134406061Y-99818152D01*
X134407604Y-99827899D01*
X134465027Y-100067079D01*
X134468076Y-100076464D01*
X134502861Y-100160443D01*
X134511710Y-100171424D01*
X134516866Y-100170108D01*
X135106162Y-99580812D01*
X135112540Y-99569132D01*
X136920224Y-99569132D01*
X136920355Y-99570965D01*
X136924606Y-99577580D01*
X137511394Y-100164368D01*
X137523774Y-100171128D01*
X137528034Y-100167939D01*
X137565924Y-100076464D01*
X137568973Y-100067079D01*
X137626396Y-99827899D01*
X137627939Y-99818152D01*
X137647239Y-99572930D01*
X137647239Y-99563070D01*
X137627939Y-99317848D01*
X137626396Y-99308101D01*
X137568973Y-99068921D01*
X137565924Y-99059536D01*
X137531139Y-98975557D01*
X137522290Y-98964576D01*
X137517134Y-98965892D01*
X136927838Y-99555188D01*
X136920224Y-99569132D01*
X135112540Y-99569132D01*
X135113776Y-99566868D01*
X135113645Y-99565035D01*
X135109394Y-99558420D01*
X134522606Y-98971632D01*
X134510226Y-98964872D01*
X134505966Y-98968061D01*
X134468076Y-99059536D01*
X134465027Y-99068921D01*
X134407604Y-99308101D01*
X134406061Y-99317848D01*
X134386761Y-99563070D01*
X134386761Y-99572930D01*
X130810000Y-99572930D01*
X130810000Y-98062710D01*
X135413576Y-98062710D01*
X135414892Y-98067866D01*
X136004188Y-98657162D01*
X136018132Y-98664776D01*
X136019965Y-98664645D01*
X136026580Y-98660394D01*
X136613368Y-98073606D01*
X136620128Y-98061226D01*
X136616939Y-98056966D01*
X136525464Y-98019076D01*
X136516079Y-98016027D01*
X136276899Y-97958604D01*
X136267152Y-97957061D01*
X136021930Y-97937761D01*
X136012070Y-97937761D01*
X135766848Y-97957061D01*
X135757101Y-97958604D01*
X135517921Y-98016027D01*
X135508536Y-98019076D01*
X135424557Y-98053861D01*
X135413576Y-98062710D01*
X130810000Y-98062710D01*
X130810000Y-96572190D01*
X130830002Y-96504069D01*
X130846905Y-96483095D01*
X131281095Y-96048905D01*
X131343407Y-96014879D01*
X131370190Y-96012000D01*
X139012810Y-96012000D01*
X139080931Y-96032002D01*
G37*
G04 #@! TD.AperFunction*
G04 #@! TA.AperFunction,Conductor*
G36*
X127269931Y-108933002D02*
G01*
X127290905Y-108949905D01*
X127725095Y-109384095D01*
X127759121Y-109446407D01*
X127762000Y-109473190D01*
X127762000Y-115464810D01*
X127741998Y-115532931D01*
X127725095Y-115553905D01*
X127290905Y-115988095D01*
X127228593Y-116022121D01*
X127201810Y-116025000D01*
X112447190Y-116025000D01*
X112379069Y-116004998D01*
X112358095Y-115988095D01*
X111996774Y-115626774D01*
X121697872Y-115626774D01*
X121701061Y-115631034D01*
X121792536Y-115668924D01*
X121801921Y-115671973D01*
X122041101Y-115729396D01*
X122050848Y-115730939D01*
X122296070Y-115750239D01*
X122305930Y-115750239D01*
X122551152Y-115730939D01*
X122560899Y-115729396D01*
X122800079Y-115671973D01*
X122809464Y-115668924D01*
X122893443Y-115634139D01*
X122904424Y-115625290D01*
X122903108Y-115620134D01*
X122313812Y-115030838D01*
X122299868Y-115023224D01*
X122298035Y-115023355D01*
X122291420Y-115027606D01*
X121704632Y-115614394D01*
X121697872Y-115626774D01*
X111996774Y-115626774D01*
X111923905Y-115553905D01*
X111889879Y-115491593D01*
X111887000Y-115464810D01*
X111887000Y-115093662D01*
X113993972Y-115093662D01*
X113994961Y-115094983D01*
X113999541Y-115097208D01*
X114088651Y-115121085D01*
X114099438Y-115122987D01*
X114309513Y-115141366D01*
X114320463Y-115141366D01*
X114530538Y-115122987D01*
X114541325Y-115121085D01*
X114624560Y-115098782D01*
X114636599Y-115091444D01*
X114636403Y-115089804D01*
X114633549Y-115085587D01*
X114327796Y-114779835D01*
X114313858Y-114772224D01*
X114312022Y-114772356D01*
X114305410Y-114776605D01*
X114000731Y-115081283D01*
X113993972Y-115093662D01*
X111887000Y-115093662D01*
X111887000Y-114589298D01*
X111909786Y-114517028D01*
X111914581Y-114510180D01*
X111917737Y-114505673D01*
X111920060Y-114500691D01*
X111920063Y-114500686D01*
X112009218Y-114309493D01*
X112009219Y-114309491D01*
X112011541Y-114304511D01*
X112042220Y-114190017D01*
X112067564Y-114095430D01*
X112067564Y-114095428D01*
X112068988Y-114090115D01*
X112087854Y-113874476D01*
X113042623Y-113874476D01*
X113061002Y-114084551D01*
X113062904Y-114095338D01*
X113085207Y-114178573D01*
X113092545Y-114190612D01*
X113094185Y-114190416D01*
X113098402Y-114187562D01*
X113404154Y-113881809D01*
X113410531Y-113870131D01*
X115218211Y-113870131D01*
X115218343Y-113871967D01*
X115222592Y-113878579D01*
X115527270Y-114183258D01*
X115539649Y-114190017D01*
X115540970Y-114189028D01*
X115543195Y-114184448D01*
X115559143Y-114124930D01*
X120670761Y-114124930D01*
X120690061Y-114370152D01*
X120691604Y-114379899D01*
X120749027Y-114619079D01*
X120752076Y-114628464D01*
X120786861Y-114712443D01*
X120795710Y-114723424D01*
X120800866Y-114722108D01*
X121390162Y-114132812D01*
X121396540Y-114121132D01*
X123204224Y-114121132D01*
X123204355Y-114122965D01*
X123208606Y-114129580D01*
X123795394Y-114716368D01*
X123807774Y-114723128D01*
X123812034Y-114719939D01*
X123849924Y-114628464D01*
X123852973Y-114619079D01*
X123910396Y-114379899D01*
X123911939Y-114370152D01*
X123931239Y-114124930D01*
X123931239Y-114115070D01*
X123911939Y-113869848D01*
X123910396Y-113860101D01*
X123852973Y-113620921D01*
X123849924Y-113611536D01*
X123815139Y-113527557D01*
X123806290Y-113516576D01*
X123801134Y-113517892D01*
X123211838Y-114107188D01*
X123204224Y-114121132D01*
X121396540Y-114121132D01*
X121397776Y-114118868D01*
X121397645Y-114117035D01*
X121393394Y-114110420D01*
X120806606Y-113523632D01*
X120794226Y-113516872D01*
X120789966Y-113520061D01*
X120752076Y-113611536D01*
X120749027Y-113620921D01*
X120691604Y-113860101D01*
X120690061Y-113869848D01*
X120670761Y-114115070D01*
X120670761Y-114124930D01*
X115559143Y-114124930D01*
X115567072Y-114095338D01*
X115568974Y-114084551D01*
X115587353Y-113874476D01*
X115587353Y-113863526D01*
X115568974Y-113653451D01*
X115567072Y-113642664D01*
X115544769Y-113559429D01*
X115537431Y-113547390D01*
X115535791Y-113547586D01*
X115531574Y-113550440D01*
X115225822Y-113856193D01*
X115218211Y-113870131D01*
X113410531Y-113870131D01*
X113411765Y-113867871D01*
X113411633Y-113866035D01*
X113407384Y-113859423D01*
X113102706Y-113554744D01*
X113090327Y-113547985D01*
X113089006Y-113548974D01*
X113086781Y-113553554D01*
X113062904Y-113642664D01*
X113061002Y-113653451D01*
X113042623Y-113863526D01*
X113042623Y-113874476D01*
X112087854Y-113874476D01*
X112088333Y-113869001D01*
X112068988Y-113647887D01*
X112042877Y-113550440D01*
X112012964Y-113438801D01*
X112012963Y-113438799D01*
X112011541Y-113433491D01*
X112009218Y-113428509D01*
X111920063Y-113237316D01*
X111920060Y-113237311D01*
X111917737Y-113232329D01*
X111909786Y-113220974D01*
X111887000Y-113148704D01*
X111887000Y-112646558D01*
X113993377Y-112646558D01*
X113993573Y-112648198D01*
X113996427Y-112652415D01*
X114302180Y-112958167D01*
X114316118Y-112965778D01*
X114317954Y-112965646D01*
X114324566Y-112961397D01*
X114629245Y-112656719D01*
X114636004Y-112644340D01*
X114635015Y-112643019D01*
X114630435Y-112640794D01*
X114541325Y-112616917D01*
X114530538Y-112615015D01*
X114527052Y-112614710D01*
X121697576Y-112614710D01*
X121698892Y-112619866D01*
X122288188Y-113209162D01*
X122302132Y-113216776D01*
X122303965Y-113216645D01*
X122310580Y-113212394D01*
X122897368Y-112625606D01*
X122904128Y-112613226D01*
X122900939Y-112608966D01*
X122844067Y-112585409D01*
X122788786Y-112540861D01*
X122766365Y-112473497D01*
X122783923Y-112404706D01*
X122835885Y-112356328D01*
X122844067Y-112352591D01*
X122893443Y-112332139D01*
X122904424Y-112323290D01*
X122903108Y-112318134D01*
X122313812Y-111728838D01*
X122299868Y-111721224D01*
X122298035Y-111721355D01*
X122291420Y-111725606D01*
X121704632Y-112312394D01*
X121697872Y-112324774D01*
X121701061Y-112329034D01*
X121757933Y-112352591D01*
X121813214Y-112397139D01*
X121835635Y-112464503D01*
X121818077Y-112533294D01*
X121766115Y-112581672D01*
X121757933Y-112585409D01*
X121708557Y-112605861D01*
X121697576Y-112614710D01*
X114527052Y-112614710D01*
X114320463Y-112596636D01*
X114309513Y-112596636D01*
X114099438Y-112615015D01*
X114088651Y-112616917D01*
X114005416Y-112639220D01*
X113993377Y-112646558D01*
X111887000Y-112646558D01*
X111887000Y-110822930D01*
X120670761Y-110822930D01*
X120690061Y-111068152D01*
X120691604Y-111077899D01*
X120749027Y-111317079D01*
X120752076Y-111326464D01*
X120786861Y-111410443D01*
X120795710Y-111421424D01*
X120800866Y-111420108D01*
X121390162Y-110830812D01*
X121396540Y-110819132D01*
X123204224Y-110819132D01*
X123204355Y-110820965D01*
X123208606Y-110827580D01*
X123795394Y-111414368D01*
X123807774Y-111421128D01*
X123812034Y-111417939D01*
X123849924Y-111326464D01*
X123852973Y-111317079D01*
X123910396Y-111077899D01*
X123911939Y-111068152D01*
X123931239Y-110822930D01*
X123931239Y-110813070D01*
X123911939Y-110567848D01*
X123910396Y-110558101D01*
X123852973Y-110318921D01*
X123849924Y-110309536D01*
X123815139Y-110225557D01*
X123806290Y-110214576D01*
X123801134Y-110215892D01*
X123211838Y-110805188D01*
X123204224Y-110819132D01*
X121396540Y-110819132D01*
X121397776Y-110816868D01*
X121397645Y-110815035D01*
X121393394Y-110808420D01*
X120806606Y-110221632D01*
X120794226Y-110214872D01*
X120789966Y-110218061D01*
X120752076Y-110309536D01*
X120749027Y-110318921D01*
X120691604Y-110558101D01*
X120690061Y-110567848D01*
X120670761Y-110813070D01*
X120670761Y-110822930D01*
X111887000Y-110822930D01*
X111887000Y-109473190D01*
X111907002Y-109405069D01*
X111923905Y-109384095D01*
X111995290Y-109312710D01*
X121697576Y-109312710D01*
X121698892Y-109317866D01*
X122288188Y-109907162D01*
X122302132Y-109914776D01*
X122303965Y-109914645D01*
X122310580Y-109910394D01*
X122897368Y-109323606D01*
X122904128Y-109311226D01*
X122900939Y-109306966D01*
X122809464Y-109269076D01*
X122800079Y-109266027D01*
X122560899Y-109208604D01*
X122551152Y-109207061D01*
X122305930Y-109187761D01*
X122296070Y-109187761D01*
X122050848Y-109207061D01*
X122041101Y-109208604D01*
X121801921Y-109266027D01*
X121792536Y-109269076D01*
X121708557Y-109303861D01*
X121697576Y-109312710D01*
X111995290Y-109312710D01*
X112358095Y-108949905D01*
X112420407Y-108915879D01*
X112447190Y-108913000D01*
X127201810Y-108913000D01*
X127269931Y-108933002D01*
G37*
G04 #@! TD.AperFunction*
G04 #@! TA.AperFunction,Conductor*
G36*
X127523931Y-120183002D02*
G01*
X127544905Y-120199905D01*
X127979095Y-120634095D01*
X128013121Y-120696407D01*
X128016000Y-120723190D01*
X128016000Y-126714810D01*
X127995998Y-126782931D01*
X127979095Y-126803905D01*
X127544905Y-127238095D01*
X127482593Y-127272121D01*
X127455810Y-127275000D01*
X112701190Y-127275000D01*
X112633069Y-127254998D01*
X112612095Y-127238095D01*
X112250774Y-126876774D01*
X121951872Y-126876774D01*
X121955061Y-126881034D01*
X122046536Y-126918924D01*
X122055921Y-126921973D01*
X122295101Y-126979396D01*
X122304848Y-126980939D01*
X122550070Y-127000239D01*
X122559930Y-127000239D01*
X122805152Y-126980939D01*
X122814899Y-126979396D01*
X123054079Y-126921973D01*
X123063464Y-126918924D01*
X123147443Y-126884139D01*
X123158424Y-126875290D01*
X123157108Y-126870134D01*
X122567812Y-126280838D01*
X122553868Y-126273224D01*
X122552035Y-126273355D01*
X122545420Y-126277606D01*
X121958632Y-126864394D01*
X121951872Y-126876774D01*
X112250774Y-126876774D01*
X112177905Y-126803905D01*
X112143879Y-126741593D01*
X112141000Y-126714810D01*
X112141000Y-126343662D01*
X113993972Y-126343662D01*
X113994961Y-126344983D01*
X113999541Y-126347208D01*
X114088651Y-126371085D01*
X114099438Y-126372987D01*
X114309513Y-126391366D01*
X114320463Y-126391366D01*
X114530538Y-126372987D01*
X114541325Y-126371085D01*
X114624560Y-126348782D01*
X114636599Y-126341444D01*
X114636403Y-126339804D01*
X114633549Y-126335587D01*
X114327796Y-126029835D01*
X114313858Y-126022224D01*
X114312022Y-126022356D01*
X114305410Y-126026605D01*
X114000731Y-126331283D01*
X113993972Y-126343662D01*
X112141000Y-126343662D01*
X112141000Y-125124476D01*
X113042623Y-125124476D01*
X113061002Y-125334551D01*
X113062904Y-125345338D01*
X113085207Y-125428573D01*
X113092545Y-125440612D01*
X113094185Y-125440416D01*
X113098402Y-125437562D01*
X113404154Y-125131809D01*
X113410531Y-125120131D01*
X115218211Y-125120131D01*
X115218343Y-125121967D01*
X115222592Y-125128579D01*
X115527270Y-125433258D01*
X115539649Y-125440017D01*
X115540970Y-125439028D01*
X115543195Y-125434448D01*
X115559143Y-125374930D01*
X120924761Y-125374930D01*
X120944061Y-125620152D01*
X120945604Y-125629899D01*
X121003027Y-125869079D01*
X121006076Y-125878464D01*
X121040861Y-125962443D01*
X121049710Y-125973424D01*
X121054866Y-125972108D01*
X121644162Y-125382812D01*
X121650540Y-125371132D01*
X123458224Y-125371132D01*
X123458355Y-125372965D01*
X123462606Y-125379580D01*
X124049394Y-125966368D01*
X124061774Y-125973128D01*
X124066034Y-125969939D01*
X124103924Y-125878464D01*
X124106973Y-125869079D01*
X124164396Y-125629899D01*
X124165939Y-125620152D01*
X124185239Y-125374930D01*
X124185239Y-125365070D01*
X124165939Y-125119848D01*
X124164396Y-125110101D01*
X124106973Y-124870921D01*
X124103924Y-124861536D01*
X124069139Y-124777557D01*
X124060290Y-124766576D01*
X124055134Y-124767892D01*
X123465838Y-125357188D01*
X123458224Y-125371132D01*
X121650540Y-125371132D01*
X121651776Y-125368868D01*
X121651645Y-125367035D01*
X121647394Y-125360420D01*
X121060606Y-124773632D01*
X121048226Y-124766872D01*
X121043966Y-124770061D01*
X121006076Y-124861536D01*
X121003027Y-124870921D01*
X120945604Y-125110101D01*
X120944061Y-125119848D01*
X120924761Y-125365070D01*
X120924761Y-125374930D01*
X115559143Y-125374930D01*
X115567072Y-125345338D01*
X115568974Y-125334551D01*
X115587353Y-125124476D01*
X115587353Y-125113526D01*
X115568974Y-124903451D01*
X115567072Y-124892664D01*
X115544769Y-124809429D01*
X115537431Y-124797390D01*
X115535791Y-124797586D01*
X115531574Y-124800440D01*
X115225822Y-125106193D01*
X115218211Y-125120131D01*
X113410531Y-125120131D01*
X113411765Y-125117871D01*
X113411633Y-125116035D01*
X113407384Y-125109423D01*
X113102706Y-124804744D01*
X113090327Y-124797985D01*
X113089006Y-124798974D01*
X113086781Y-124803554D01*
X113062904Y-124892664D01*
X113061002Y-124903451D01*
X113042623Y-125113526D01*
X113042623Y-125124476D01*
X112141000Y-125124476D01*
X112141000Y-123896558D01*
X113993377Y-123896558D01*
X113993573Y-123898198D01*
X113996427Y-123902415D01*
X114302180Y-124208167D01*
X114316118Y-124215778D01*
X114317954Y-124215646D01*
X114324566Y-124211397D01*
X114629245Y-123906719D01*
X114636004Y-123894340D01*
X114635015Y-123893019D01*
X114630435Y-123890794D01*
X114541325Y-123866917D01*
X114530538Y-123865015D01*
X114527052Y-123864710D01*
X121951576Y-123864710D01*
X121952892Y-123869866D01*
X122542188Y-124459162D01*
X122556132Y-124466776D01*
X122557965Y-124466645D01*
X122564580Y-124462394D01*
X123151368Y-123875606D01*
X123158128Y-123863226D01*
X123154939Y-123858966D01*
X123098067Y-123835409D01*
X123042786Y-123790861D01*
X123020365Y-123723497D01*
X123037923Y-123654706D01*
X123089885Y-123606328D01*
X123098067Y-123602591D01*
X123147443Y-123582139D01*
X123158424Y-123573290D01*
X123157108Y-123568134D01*
X122567812Y-122978838D01*
X122553868Y-122971224D01*
X122552035Y-122971355D01*
X122545420Y-122975606D01*
X121958632Y-123562394D01*
X121951872Y-123574774D01*
X121955061Y-123579034D01*
X122011933Y-123602591D01*
X122067214Y-123647139D01*
X122089635Y-123714503D01*
X122072077Y-123783294D01*
X122020115Y-123831672D01*
X122011933Y-123835409D01*
X121962557Y-123855861D01*
X121951576Y-123864710D01*
X114527052Y-123864710D01*
X114320463Y-123846636D01*
X114309513Y-123846636D01*
X114099438Y-123865015D01*
X114088651Y-123866917D01*
X114005416Y-123889220D01*
X113993377Y-123896558D01*
X112141000Y-123896558D01*
X112141000Y-122072930D01*
X120924761Y-122072930D01*
X120944061Y-122318152D01*
X120945604Y-122327899D01*
X121003027Y-122567079D01*
X121006076Y-122576464D01*
X121040861Y-122660443D01*
X121049710Y-122671424D01*
X121054866Y-122670108D01*
X121644162Y-122080812D01*
X121650540Y-122069132D01*
X123458224Y-122069132D01*
X123458355Y-122070965D01*
X123462606Y-122077580D01*
X124049394Y-122664368D01*
X124061774Y-122671128D01*
X124066034Y-122667939D01*
X124103924Y-122576464D01*
X124106973Y-122567079D01*
X124164396Y-122327899D01*
X124165939Y-122318152D01*
X124185239Y-122072930D01*
X124185239Y-122063070D01*
X124165939Y-121817848D01*
X124164396Y-121808101D01*
X124106973Y-121568921D01*
X124103924Y-121559536D01*
X124069139Y-121475557D01*
X124060290Y-121464576D01*
X124055134Y-121465892D01*
X123465838Y-122055188D01*
X123458224Y-122069132D01*
X121650540Y-122069132D01*
X121651776Y-122066868D01*
X121651645Y-122065035D01*
X121647394Y-122058420D01*
X121060606Y-121471632D01*
X121048226Y-121464872D01*
X121043966Y-121468061D01*
X121006076Y-121559536D01*
X121003027Y-121568921D01*
X120945604Y-121808101D01*
X120944061Y-121817848D01*
X120924761Y-122063070D01*
X120924761Y-122072930D01*
X112141000Y-122072930D01*
X112141000Y-120723190D01*
X112161002Y-120655069D01*
X112177905Y-120634095D01*
X112249290Y-120562710D01*
X121951576Y-120562710D01*
X121952892Y-120567866D01*
X122542188Y-121157162D01*
X122556132Y-121164776D01*
X122557965Y-121164645D01*
X122564580Y-121160394D01*
X123151368Y-120573606D01*
X123158128Y-120561226D01*
X123154939Y-120556966D01*
X123063464Y-120519076D01*
X123054079Y-120516027D01*
X122814899Y-120458604D01*
X122805152Y-120457061D01*
X122559930Y-120437761D01*
X122550070Y-120437761D01*
X122304848Y-120457061D01*
X122295101Y-120458604D01*
X122055921Y-120516027D01*
X122046536Y-120519076D01*
X121962557Y-120553861D01*
X121951576Y-120562710D01*
X112249290Y-120562710D01*
X112612095Y-120199905D01*
X112674407Y-120165879D01*
X112701190Y-120163000D01*
X127455810Y-120163000D01*
X127523931Y-120183002D01*
G37*
G04 #@! TD.AperFunction*
G04 #@! TA.AperFunction,Conductor*
G36*
X172481929Y-86380004D02*
G01*
X172502904Y-86396906D01*
X172936595Y-86830595D01*
X172970620Y-86892907D01*
X172973500Y-86919691D01*
X172973500Y-97103310D01*
X172953498Y-97171431D01*
X172936595Y-97192405D01*
X172502905Y-97626095D01*
X172440593Y-97660121D01*
X172413810Y-97663000D01*
X144754313Y-97663000D01*
X144722978Y-97659041D01*
X144659351Y-97642704D01*
X144659349Y-97642704D01*
X144654147Y-97641368D01*
X144576285Y-97635035D01*
X144513684Y-97629943D01*
X144513674Y-97629943D01*
X144511134Y-97629736D01*
X143840204Y-97629736D01*
X143772083Y-97609734D01*
X143725590Y-97556078D01*
X143715486Y-97485804D01*
X143744980Y-97421224D01*
X143784180Y-97390876D01*
X143792298Y-97386846D01*
X143807133Y-97378177D01*
X143816812Y-97367920D01*
X143813494Y-97359756D01*
X142862812Y-96409074D01*
X142848868Y-96401460D01*
X142847035Y-96401591D01*
X142840420Y-96405842D01*
X141889532Y-97356730D01*
X141882772Y-97369110D01*
X141886351Y-97373890D01*
X141919591Y-97388899D01*
X141973445Y-97435162D01*
X141993739Y-97503196D01*
X141974029Y-97571402D01*
X141920573Y-97618124D01*
X141867740Y-97629736D01*
X141188866Y-97629736D01*
X141186326Y-97629943D01*
X141186316Y-97629943D01*
X141123715Y-97635035D01*
X141045853Y-97641368D01*
X141040651Y-97642704D01*
X141040649Y-97642704D01*
X140977022Y-97659041D01*
X140945687Y-97663000D01*
X140641190Y-97663000D01*
X140573069Y-97642998D01*
X140552095Y-97626095D01*
X140117905Y-97191905D01*
X140083879Y-97129593D01*
X140081000Y-97102810D01*
X140081000Y-96012000D01*
X139446000Y-95504000D01*
X132497328Y-95504049D01*
X131973591Y-95504052D01*
X112178567Y-95504191D01*
X112110447Y-95484189D01*
X112105725Y-95480411D01*
X140739442Y-95480411D01*
X140755477Y-95758518D01*
X140756550Y-95767017D01*
X140810182Y-96040376D01*
X140812395Y-96048638D01*
X140902631Y-96312195D01*
X140905947Y-96320082D01*
X140972827Y-96453059D01*
X140982456Y-96463362D01*
X140989060Y-96461150D01*
X141939162Y-95511048D01*
X141945540Y-95499368D01*
X143753224Y-95499368D01*
X143753355Y-95501201D01*
X143757606Y-95507816D01*
X144706347Y-96456557D01*
X144718727Y-96463317D01*
X144724991Y-96458628D01*
X144767276Y-96380748D01*
X144770844Y-96372954D01*
X144869308Y-96112377D01*
X144871785Y-96104171D01*
X144933974Y-95832641D01*
X144935314Y-95824181D01*
X144960238Y-95544909D01*
X144960484Y-95539970D01*
X144960895Y-95500720D01*
X144960752Y-95495756D01*
X144941682Y-95216028D01*
X144940521Y-95207554D01*
X144884031Y-94934774D01*
X144881726Y-94926520D01*
X144788739Y-94663929D01*
X144785343Y-94656081D01*
X144727213Y-94543457D01*
X144717476Y-94533255D01*
X144710636Y-94535626D01*
X143760838Y-95485424D01*
X143753224Y-95499368D01*
X141945540Y-95499368D01*
X141946776Y-95497104D01*
X141946645Y-95495271D01*
X141942394Y-95488656D01*
X140993866Y-94540128D01*
X140981486Y-94533368D01*
X140975462Y-94537878D01*
X140923583Y-94635860D01*
X140920104Y-94643674D01*
X140824371Y-94905277D01*
X140821982Y-94913500D01*
X140762637Y-95185680D01*
X140761388Y-95194136D01*
X140739531Y-95471860D01*
X140739442Y-95480411D01*
X112105725Y-95480411D01*
X112090093Y-95467903D01*
X111648629Y-95032531D01*
X111614173Y-94970459D01*
X111611116Y-94944571D01*
X111610866Y-94926520D01*
X111588887Y-93344058D01*
X111607941Y-93275666D01*
X111660946Y-93228432D01*
X111731073Y-93217354D01*
X111796057Y-93245947D01*
X111829070Y-93289058D01*
X111882613Y-93403883D01*
X111886876Y-93411572D01*
X112035024Y-93639700D01*
X112040314Y-93646719D01*
X112218783Y-93852024D01*
X112224976Y-93858217D01*
X112430281Y-94036686D01*
X112437300Y-94041976D01*
X112665428Y-94190124D01*
X112673118Y-94194387D01*
X112919647Y-94309345D01*
X112927857Y-94312496D01*
X113187977Y-94392022D01*
X113196547Y-94394001D01*
X113466044Y-94436685D01*
X113473128Y-94437399D01*
X113531331Y-94439940D01*
X113534083Y-94440000D01*
X114491885Y-94440000D01*
X114507124Y-94435525D01*
X114508329Y-94434135D01*
X114510000Y-94426452D01*
X114510000Y-94421884D01*
X115780000Y-94421884D01*
X115784475Y-94437123D01*
X115785865Y-94438328D01*
X115793548Y-94439999D01*
X116755915Y-94439999D01*
X116758672Y-94439939D01*
X116816855Y-94437399D01*
X116823972Y-94436683D01*
X117093453Y-94394001D01*
X117102023Y-94392022D01*
X117362143Y-94312496D01*
X117370353Y-94309345D01*
X117616882Y-94194387D01*
X117624572Y-94190124D01*
X117852700Y-94041976D01*
X117859719Y-94036686D01*
X118065024Y-93858217D01*
X118071217Y-93852024D01*
X118249686Y-93646719D01*
X118254976Y-93639700D01*
X118262826Y-93627612D01*
X141882323Y-93627612D01*
X141885868Y-93636078D01*
X142837188Y-94587398D01*
X142851132Y-94595012D01*
X142852965Y-94594881D01*
X142859580Y-94590630D01*
X143811485Y-93638725D01*
X143818245Y-93626345D01*
X143814801Y-93621745D01*
X143568981Y-93513837D01*
X143560921Y-93510935D01*
X143293015Y-93434621D01*
X143284637Y-93432839D01*
X143008851Y-93393589D01*
X143000304Y-93392961D01*
X142721740Y-93391502D01*
X142713206Y-93392039D01*
X142437017Y-93428401D01*
X142428619Y-93430094D01*
X142159927Y-93503600D01*
X142151840Y-93506416D01*
X141895614Y-93615706D01*
X141891285Y-93617912D01*
X141882323Y-93627612D01*
X118262826Y-93627612D01*
X118403124Y-93411572D01*
X118407387Y-93403882D01*
X118522345Y-93157353D01*
X118525496Y-93149143D01*
X118605022Y-92889023D01*
X118607001Y-92880453D01*
X118649685Y-92610956D01*
X118650399Y-92603872D01*
X118652940Y-92545669D01*
X118653000Y-92542917D01*
X118653000Y-91585115D01*
X118648525Y-91569876D01*
X118647135Y-91568671D01*
X118639452Y-91567000D01*
X115798115Y-91567000D01*
X115782876Y-91571475D01*
X115781671Y-91572865D01*
X115780000Y-91580548D01*
X115780000Y-94421884D01*
X114510000Y-94421884D01*
X114510000Y-90278885D01*
X115780000Y-90278885D01*
X115784475Y-90294124D01*
X115785865Y-90295329D01*
X115793548Y-90297000D01*
X118634884Y-90297000D01*
X118650123Y-90292525D01*
X118651328Y-90291135D01*
X118652999Y-90283452D01*
X118652999Y-90078236D01*
X142144435Y-90078236D01*
X142164673Y-90387004D01*
X142165477Y-90391044D01*
X142165477Y-90391047D01*
X142200031Y-90564759D01*
X142225040Y-90690489D01*
X142226365Y-90694393D01*
X142226366Y-90694396D01*
X142323174Y-90979584D01*
X142324503Y-90983499D01*
X142326326Y-90987195D01*
X142326329Y-90987203D01*
X142436793Y-91211200D01*
X142461361Y-91261018D01*
X142463655Y-91264451D01*
X142463656Y-91264452D01*
X142633271Y-91518301D01*
X142635985Y-91521395D01*
X142635989Y-91521401D01*
X142677444Y-91568671D01*
X142837293Y-91750943D01*
X142840382Y-91753652D01*
X143066835Y-91952247D01*
X143066841Y-91952251D01*
X143069935Y-91954965D01*
X143327218Y-92126875D01*
X143330921Y-92128701D01*
X143601033Y-92261907D01*
X143601041Y-92261910D01*
X143604737Y-92263733D01*
X143608651Y-92265062D01*
X143608652Y-92265062D01*
X143893840Y-92361870D01*
X143893843Y-92361871D01*
X143897747Y-92363196D01*
X143901786Y-92363999D01*
X143901792Y-92364001D01*
X144197189Y-92422759D01*
X144197192Y-92422759D01*
X144201232Y-92423563D01*
X144205343Y-92423832D01*
X144205347Y-92423833D01*
X144430675Y-92438602D01*
X144430684Y-92438602D01*
X144432724Y-92438736D01*
X144587276Y-92438736D01*
X144589316Y-92438602D01*
X144589325Y-92438602D01*
X144814653Y-92423833D01*
X144814657Y-92423832D01*
X144818768Y-92423563D01*
X144822808Y-92422759D01*
X144822811Y-92422759D01*
X145118208Y-92364001D01*
X145118214Y-92363999D01*
X145122253Y-92363196D01*
X145126157Y-92361871D01*
X145126160Y-92361870D01*
X145411348Y-92265062D01*
X145411349Y-92265062D01*
X145415263Y-92263733D01*
X145418959Y-92261910D01*
X145418967Y-92261907D01*
X145689079Y-92128701D01*
X145692782Y-92126875D01*
X145950065Y-91954965D01*
X145953159Y-91952251D01*
X145953165Y-91952247D01*
X146179618Y-91753652D01*
X146182707Y-91750943D01*
X146342556Y-91568671D01*
X146384011Y-91521401D01*
X146384015Y-91521395D01*
X146386729Y-91518301D01*
X146558639Y-91261019D01*
X146695497Y-90983499D01*
X146696826Y-90979584D01*
X146793634Y-90694396D01*
X146793635Y-90694393D01*
X146794960Y-90690489D01*
X146819970Y-90564759D01*
X146854523Y-90391047D01*
X146854523Y-90391044D01*
X146855327Y-90387004D01*
X146875565Y-90078236D01*
X167544435Y-90078236D01*
X167564673Y-90387004D01*
X167565477Y-90391044D01*
X167565477Y-90391047D01*
X167600031Y-90564759D01*
X167625040Y-90690489D01*
X167626365Y-90694393D01*
X167626366Y-90694396D01*
X167723174Y-90979584D01*
X167724503Y-90983499D01*
X167726326Y-90987195D01*
X167726329Y-90987203D01*
X167836793Y-91211200D01*
X167861361Y-91261018D01*
X167863655Y-91264451D01*
X167863656Y-91264452D01*
X168033271Y-91518301D01*
X168035985Y-91521395D01*
X168035989Y-91521401D01*
X168077444Y-91568671D01*
X168237293Y-91750943D01*
X168240382Y-91753652D01*
X168466835Y-91952247D01*
X168466841Y-91952251D01*
X168469935Y-91954965D01*
X168727218Y-92126875D01*
X168730921Y-92128701D01*
X169001033Y-92261907D01*
X169001041Y-92261910D01*
X169004737Y-92263733D01*
X169008651Y-92265062D01*
X169008652Y-92265062D01*
X169293840Y-92361870D01*
X169293843Y-92361871D01*
X169297747Y-92363196D01*
X169301786Y-92363999D01*
X169301792Y-92364001D01*
X169597189Y-92422759D01*
X169597192Y-92422759D01*
X169601232Y-92423563D01*
X169605343Y-92423832D01*
X169605347Y-92423833D01*
X169830675Y-92438602D01*
X169830684Y-92438602D01*
X169832724Y-92438736D01*
X169987276Y-92438736D01*
X169989316Y-92438602D01*
X169989325Y-92438602D01*
X170214653Y-92423833D01*
X170214657Y-92423832D01*
X170218768Y-92423563D01*
X170222808Y-92422759D01*
X170222811Y-92422759D01*
X170518208Y-92364001D01*
X170518214Y-92363999D01*
X170522253Y-92363196D01*
X170526157Y-92361871D01*
X170526160Y-92361870D01*
X170811348Y-92265062D01*
X170811349Y-92265062D01*
X170815263Y-92263733D01*
X170818959Y-92261910D01*
X170818967Y-92261907D01*
X171089079Y-92128701D01*
X171092782Y-92126875D01*
X171350065Y-91954965D01*
X171353159Y-91952251D01*
X171353165Y-91952247D01*
X171579618Y-91753652D01*
X171582707Y-91750943D01*
X171742556Y-91568671D01*
X171784011Y-91521401D01*
X171784015Y-91521395D01*
X171786729Y-91518301D01*
X171958639Y-91261019D01*
X172095497Y-90983499D01*
X172096826Y-90979584D01*
X172193634Y-90694396D01*
X172193635Y-90694393D01*
X172194960Y-90690489D01*
X172219970Y-90564759D01*
X172254523Y-90391047D01*
X172254523Y-90391044D01*
X172255327Y-90387004D01*
X172275565Y-90078236D01*
X172255327Y-89769468D01*
X172254523Y-89765425D01*
X172195765Y-89470028D01*
X172195763Y-89470022D01*
X172194960Y-89465983D01*
X172095497Y-89172973D01*
X172093673Y-89169275D01*
X172093671Y-89169269D01*
X171960465Y-88899157D01*
X171958639Y-88895454D01*
X171956345Y-88892021D01*
X171956344Y-88892019D01*
X171870456Y-88763478D01*
X171786729Y-88638171D01*
X171784015Y-88635077D01*
X171784011Y-88635071D01*
X171585416Y-88408618D01*
X171582707Y-88405529D01*
X171486432Y-88321098D01*
X171353165Y-88204225D01*
X171353159Y-88204221D01*
X171350065Y-88201507D01*
X171092782Y-88029597D01*
X171042964Y-88005029D01*
X170818967Y-87894565D01*
X170818959Y-87894562D01*
X170815263Y-87892739D01*
X170805368Y-87889380D01*
X170526160Y-87794602D01*
X170526157Y-87794601D01*
X170522253Y-87793276D01*
X170518214Y-87792473D01*
X170518208Y-87792471D01*
X170222811Y-87733713D01*
X170222808Y-87733713D01*
X170218768Y-87732909D01*
X170214657Y-87732640D01*
X170214653Y-87732639D01*
X169989325Y-87717870D01*
X169989316Y-87717870D01*
X169987276Y-87717736D01*
X169832724Y-87717736D01*
X169830684Y-87717870D01*
X169830675Y-87717870D01*
X169605347Y-87732639D01*
X169605343Y-87732640D01*
X169601232Y-87732909D01*
X169597192Y-87733713D01*
X169597189Y-87733713D01*
X169301792Y-87792471D01*
X169301786Y-87792473D01*
X169297747Y-87793276D01*
X169293843Y-87794601D01*
X169293840Y-87794602D01*
X169014632Y-87889380D01*
X169004737Y-87892739D01*
X169001041Y-87894562D01*
X169001033Y-87894565D01*
X168777036Y-88005029D01*
X168727218Y-88029597D01*
X168469935Y-88201507D01*
X168466841Y-88204221D01*
X168466835Y-88204225D01*
X168333568Y-88321098D01*
X168237293Y-88405529D01*
X168234584Y-88408618D01*
X168035989Y-88635071D01*
X168035985Y-88635077D01*
X168033271Y-88638171D01*
X168030982Y-88641597D01*
X168030978Y-88641602D01*
X167902707Y-88833575D01*
X167861361Y-88895453D01*
X167724503Y-89172973D01*
X167723178Y-89176878D01*
X167723177Y-89176879D01*
X167674226Y-89321086D01*
X167625040Y-89465983D01*
X167624237Y-89470022D01*
X167624235Y-89470028D01*
X167565477Y-89765425D01*
X167564673Y-89769468D01*
X167544435Y-90078236D01*
X146875565Y-90078236D01*
X146855327Y-89769468D01*
X146854523Y-89765425D01*
X146795765Y-89470028D01*
X146795763Y-89470022D01*
X146794960Y-89465983D01*
X146695497Y-89172973D01*
X146693673Y-89169275D01*
X146693671Y-89169269D01*
X146560465Y-88899157D01*
X146558639Y-88895454D01*
X146556345Y-88892021D01*
X146556344Y-88892019D01*
X146470456Y-88763478D01*
X146386729Y-88638171D01*
X146384015Y-88635077D01*
X146384011Y-88635071D01*
X146185416Y-88408618D01*
X146182707Y-88405529D01*
X146086432Y-88321098D01*
X145953165Y-88204225D01*
X145953159Y-88204221D01*
X145950065Y-88201507D01*
X145692782Y-88029597D01*
X145642964Y-88005029D01*
X145418967Y-87894565D01*
X145418959Y-87894562D01*
X145415263Y-87892739D01*
X145405368Y-87889380D01*
X145126160Y-87794602D01*
X145126157Y-87794601D01*
X145122253Y-87793276D01*
X145118214Y-87792473D01*
X145118208Y-87792471D01*
X144822811Y-87733713D01*
X144822808Y-87733713D01*
X144818768Y-87732909D01*
X144814657Y-87732640D01*
X144814653Y-87732639D01*
X144589325Y-87717870D01*
X144589316Y-87717870D01*
X144587276Y-87717736D01*
X144432724Y-87717736D01*
X144430684Y-87717870D01*
X144430675Y-87717870D01*
X144205347Y-87732639D01*
X144205343Y-87732640D01*
X144201232Y-87732909D01*
X144197192Y-87733713D01*
X144197189Y-87733713D01*
X143901792Y-87792471D01*
X143901786Y-87792473D01*
X143897747Y-87793276D01*
X143893843Y-87794601D01*
X143893840Y-87794602D01*
X143614632Y-87889380D01*
X143604737Y-87892739D01*
X143601041Y-87894562D01*
X143601033Y-87894565D01*
X143377036Y-88005029D01*
X143327218Y-88029597D01*
X143069935Y-88201507D01*
X143066841Y-88204221D01*
X143066835Y-88204225D01*
X142933568Y-88321098D01*
X142837293Y-88405529D01*
X142834584Y-88408618D01*
X142635989Y-88635071D01*
X142635985Y-88635077D01*
X142633271Y-88638171D01*
X142630982Y-88641597D01*
X142630978Y-88641602D01*
X142502707Y-88833575D01*
X142461361Y-88895453D01*
X142324503Y-89172973D01*
X142323178Y-89176878D01*
X142323177Y-89176879D01*
X142274226Y-89321086D01*
X142225040Y-89465983D01*
X142224237Y-89470022D01*
X142224235Y-89470028D01*
X142165477Y-89765425D01*
X142164673Y-89769468D01*
X142144435Y-90078236D01*
X118652999Y-90078236D01*
X118652999Y-89321086D01*
X118652939Y-89318328D01*
X118650399Y-89260145D01*
X118649683Y-89253028D01*
X118607001Y-88983547D01*
X118605022Y-88974977D01*
X118525496Y-88714857D01*
X118522345Y-88706647D01*
X118407387Y-88460118D01*
X118403124Y-88452428D01*
X118254976Y-88224300D01*
X118249686Y-88217281D01*
X118071217Y-88011976D01*
X118065024Y-88005783D01*
X117859719Y-87827314D01*
X117852700Y-87822024D01*
X117624572Y-87673876D01*
X117616882Y-87669613D01*
X117370353Y-87554655D01*
X117362143Y-87551504D01*
X117102023Y-87471978D01*
X117093453Y-87469999D01*
X116823956Y-87427315D01*
X116816872Y-87426601D01*
X116758669Y-87424060D01*
X116755917Y-87424000D01*
X115798115Y-87424000D01*
X115782876Y-87428475D01*
X115781671Y-87429865D01*
X115780000Y-87437548D01*
X115780000Y-90278885D01*
X114510000Y-90278885D01*
X114510000Y-87442116D01*
X114505525Y-87426877D01*
X114504135Y-87425672D01*
X114496452Y-87424001D01*
X113534086Y-87424001D01*
X113531328Y-87424061D01*
X113473145Y-87426601D01*
X113466028Y-87427317D01*
X113196547Y-87469999D01*
X113187977Y-87471978D01*
X112927857Y-87551504D01*
X112919647Y-87554655D01*
X112673118Y-87669613D01*
X112665428Y-87673876D01*
X112437300Y-87822024D01*
X112430281Y-87827314D01*
X112224976Y-88005783D01*
X112218783Y-88011976D01*
X112040314Y-88217281D01*
X112035024Y-88224300D01*
X111886876Y-88452428D01*
X111882613Y-88460118D01*
X111767648Y-88706662D01*
X111767499Y-88707050D01*
X111767417Y-88707158D01*
X111765793Y-88710640D01*
X111765030Y-88710284D01*
X111724413Y-88763478D01*
X111657659Y-88787653D01*
X111588432Y-88771901D01*
X111538711Y-88721222D01*
X111523881Y-88663644D01*
X111523485Y-88635071D01*
X111499676Y-86920844D01*
X111518730Y-86852452D01*
X111535947Y-86830625D01*
X111962883Y-86397717D01*
X112024955Y-86363261D01*
X112052593Y-86360193D01*
X119570915Y-86360169D01*
X142232944Y-86360098D01*
X172413810Y-86360002D01*
X172481929Y-86380004D01*
G37*
G04 #@! TD.AperFunction*
G04 #@! TA.AperFunction,Conductor*
G36*
X127523931Y-97683002D02*
G01*
X127544905Y-97699905D01*
X127979095Y-98134095D01*
X128013121Y-98196407D01*
X128016000Y-98223190D01*
X128016000Y-104214810D01*
X127995998Y-104282931D01*
X127979095Y-104303905D01*
X127544905Y-104738095D01*
X127482593Y-104772121D01*
X127455810Y-104775000D01*
X112701190Y-104775000D01*
X112633069Y-104754998D01*
X112612095Y-104738095D01*
X112250774Y-104376774D01*
X121951872Y-104376774D01*
X121955061Y-104381034D01*
X122046536Y-104418924D01*
X122055921Y-104421973D01*
X122295101Y-104479396D01*
X122304848Y-104480939D01*
X122550070Y-104500239D01*
X122559930Y-104500239D01*
X122805152Y-104480939D01*
X122814899Y-104479396D01*
X123054079Y-104421973D01*
X123063464Y-104418924D01*
X123147443Y-104384139D01*
X123158424Y-104375290D01*
X123157108Y-104370134D01*
X122567812Y-103780838D01*
X122553868Y-103773224D01*
X122552035Y-103773355D01*
X122545420Y-103777606D01*
X121958632Y-104364394D01*
X121951872Y-104376774D01*
X112250774Y-104376774D01*
X112177905Y-104303905D01*
X112143879Y-104241593D01*
X112141000Y-104214810D01*
X112141000Y-103843662D01*
X113993972Y-103843662D01*
X113994961Y-103844983D01*
X113999541Y-103847208D01*
X114088651Y-103871085D01*
X114099438Y-103872987D01*
X114309513Y-103891366D01*
X114320463Y-103891366D01*
X114530538Y-103872987D01*
X114541325Y-103871085D01*
X114624560Y-103848782D01*
X114636599Y-103841444D01*
X114636403Y-103839804D01*
X114633549Y-103835587D01*
X114327796Y-103529835D01*
X114313858Y-103522224D01*
X114312022Y-103522356D01*
X114305410Y-103526605D01*
X114000731Y-103831283D01*
X113993972Y-103843662D01*
X112141000Y-103843662D01*
X112141000Y-102624476D01*
X113042623Y-102624476D01*
X113061002Y-102834551D01*
X113062904Y-102845338D01*
X113085207Y-102928573D01*
X113092545Y-102940612D01*
X113094185Y-102940416D01*
X113098402Y-102937562D01*
X113404154Y-102631809D01*
X113410531Y-102620131D01*
X115218211Y-102620131D01*
X115218343Y-102621967D01*
X115222592Y-102628579D01*
X115527270Y-102933258D01*
X115539649Y-102940017D01*
X115540970Y-102939028D01*
X115543195Y-102934448D01*
X115559143Y-102874930D01*
X120924761Y-102874930D01*
X120944061Y-103120152D01*
X120945604Y-103129899D01*
X121003027Y-103369079D01*
X121006076Y-103378464D01*
X121040861Y-103462443D01*
X121049710Y-103473424D01*
X121054866Y-103472108D01*
X121644162Y-102882812D01*
X121650540Y-102871132D01*
X123458224Y-102871132D01*
X123458355Y-102872965D01*
X123462606Y-102879580D01*
X124049394Y-103466368D01*
X124061774Y-103473128D01*
X124066034Y-103469939D01*
X124103924Y-103378464D01*
X124106973Y-103369079D01*
X124164396Y-103129899D01*
X124165939Y-103120152D01*
X124185239Y-102874930D01*
X124185239Y-102865070D01*
X124165939Y-102619848D01*
X124164396Y-102610101D01*
X124106973Y-102370921D01*
X124103924Y-102361536D01*
X124069139Y-102277557D01*
X124060290Y-102266576D01*
X124055134Y-102267892D01*
X123465838Y-102857188D01*
X123458224Y-102871132D01*
X121650540Y-102871132D01*
X121651776Y-102868868D01*
X121651645Y-102867035D01*
X121647394Y-102860420D01*
X121060606Y-102273632D01*
X121048226Y-102266872D01*
X121043966Y-102270061D01*
X121006076Y-102361536D01*
X121003027Y-102370921D01*
X120945604Y-102610101D01*
X120944061Y-102619848D01*
X120924761Y-102865070D01*
X120924761Y-102874930D01*
X115559143Y-102874930D01*
X115567072Y-102845338D01*
X115568974Y-102834551D01*
X115587353Y-102624476D01*
X115587353Y-102613526D01*
X115568974Y-102403451D01*
X115567072Y-102392664D01*
X115544769Y-102309429D01*
X115537431Y-102297390D01*
X115535791Y-102297586D01*
X115531574Y-102300440D01*
X115225822Y-102606193D01*
X115218211Y-102620131D01*
X113410531Y-102620131D01*
X113411765Y-102617871D01*
X113411633Y-102616035D01*
X113407384Y-102609423D01*
X113102706Y-102304744D01*
X113090327Y-102297985D01*
X113089006Y-102298974D01*
X113086781Y-102303554D01*
X113062904Y-102392664D01*
X113061002Y-102403451D01*
X113042623Y-102613526D01*
X113042623Y-102624476D01*
X112141000Y-102624476D01*
X112141000Y-101396558D01*
X113993377Y-101396558D01*
X113993573Y-101398198D01*
X113996427Y-101402415D01*
X114302180Y-101708167D01*
X114316118Y-101715778D01*
X114317954Y-101715646D01*
X114324566Y-101711397D01*
X114629245Y-101406719D01*
X114636004Y-101394340D01*
X114635015Y-101393019D01*
X114630435Y-101390794D01*
X114541325Y-101366917D01*
X114530538Y-101365015D01*
X114527052Y-101364710D01*
X121951576Y-101364710D01*
X121952892Y-101369866D01*
X122542188Y-101959162D01*
X122556132Y-101966776D01*
X122557965Y-101966645D01*
X122564580Y-101962394D01*
X123151368Y-101375606D01*
X123158128Y-101363226D01*
X123154939Y-101358966D01*
X123098067Y-101335409D01*
X123042786Y-101290861D01*
X123020365Y-101223497D01*
X123037923Y-101154706D01*
X123089885Y-101106328D01*
X123098067Y-101102591D01*
X123147443Y-101082139D01*
X123158424Y-101073290D01*
X123157108Y-101068134D01*
X122567812Y-100478838D01*
X122553868Y-100471224D01*
X122552035Y-100471355D01*
X122545420Y-100475606D01*
X121958632Y-101062394D01*
X121951872Y-101074774D01*
X121955061Y-101079034D01*
X122011933Y-101102591D01*
X122067214Y-101147139D01*
X122089635Y-101214503D01*
X122072077Y-101283294D01*
X122020115Y-101331672D01*
X122011933Y-101335409D01*
X121962557Y-101355861D01*
X121951576Y-101364710D01*
X114527052Y-101364710D01*
X114320463Y-101346636D01*
X114309513Y-101346636D01*
X114099438Y-101365015D01*
X114088651Y-101366917D01*
X114005416Y-101389220D01*
X113993377Y-101396558D01*
X112141000Y-101396558D01*
X112141000Y-99572930D01*
X120924761Y-99572930D01*
X120944061Y-99818152D01*
X120945604Y-99827899D01*
X121003027Y-100067079D01*
X121006076Y-100076464D01*
X121040861Y-100160443D01*
X121049710Y-100171424D01*
X121054866Y-100170108D01*
X121644162Y-99580812D01*
X121650540Y-99569132D01*
X123458224Y-99569132D01*
X123458355Y-99570965D01*
X123462606Y-99577580D01*
X124049394Y-100164368D01*
X124061774Y-100171128D01*
X124066034Y-100167939D01*
X124103924Y-100076464D01*
X124106973Y-100067079D01*
X124164396Y-99827899D01*
X124165939Y-99818152D01*
X124185239Y-99572930D01*
X124185239Y-99563070D01*
X124165939Y-99317848D01*
X124164396Y-99308101D01*
X124106973Y-99068921D01*
X124103924Y-99059536D01*
X124069139Y-98975557D01*
X124060290Y-98964576D01*
X124055134Y-98965892D01*
X123465838Y-99555188D01*
X123458224Y-99569132D01*
X121650540Y-99569132D01*
X121651776Y-99566868D01*
X121651645Y-99565035D01*
X121647394Y-99558420D01*
X121060606Y-98971632D01*
X121048226Y-98964872D01*
X121043966Y-98968061D01*
X121006076Y-99059536D01*
X121003027Y-99068921D01*
X120945604Y-99308101D01*
X120944061Y-99317848D01*
X120924761Y-99563070D01*
X120924761Y-99572930D01*
X112141000Y-99572930D01*
X112141000Y-98223190D01*
X112161002Y-98155069D01*
X112177905Y-98134095D01*
X112249290Y-98062710D01*
X121951576Y-98062710D01*
X121952892Y-98067866D01*
X122542188Y-98657162D01*
X122556132Y-98664776D01*
X122557965Y-98664645D01*
X122564580Y-98660394D01*
X123151368Y-98073606D01*
X123158128Y-98061226D01*
X123154939Y-98056966D01*
X123063464Y-98019076D01*
X123054079Y-98016027D01*
X122814899Y-97958604D01*
X122805152Y-97957061D01*
X122559930Y-97937761D01*
X122550070Y-97937761D01*
X122304848Y-97957061D01*
X122295101Y-97958604D01*
X122055921Y-98016027D01*
X122046536Y-98019076D01*
X121962557Y-98053861D01*
X121951576Y-98062710D01*
X112249290Y-98062710D01*
X112612095Y-97699905D01*
X112674407Y-97665879D01*
X112701190Y-97663000D01*
X127455810Y-97663000D01*
X127523931Y-97683002D01*
G37*
G04 #@! TD.AperFunction*
M02*
