M48
; DRILL file {KiCad (6.0.8)} date Wed Oct  5 13:13:32 2022
; FORMAT={-:-/ absolute / metric / decimal}
; #@! TF.CreationDate,2022-10-05T13:13:32-07:00
; #@! TF.GenerationSoftware,Kicad,Pcbnew,(6.0.8)
; #@! TF.FileFunction,Plated,1,2,PTH
FMAT,2
METRIC
; #@! TA.AperFunction,Plated,PTH,ComponentDrill
T1C1.000
; #@! TA.AperFunction,Plated,PTH,ComponentDrill
T2C1.016
; #@! TA.AperFunction,Plated,PTH,ComponentDrill
T3C1.020
; #@! TA.AperFunction,Plated,PTH,ComponentDrill
T4C1.090
; #@! TA.AperFunction,Plated,PTH,ComponentDrill
T5C1.727
; #@! TA.AperFunction,Plated,PTH,ComponentDrill
T6C2.180
; #@! TA.AperFunction,Plated,PTH,ComponentDrill
T7C3.200
; #@! TA.AperFunction,Plated,PTH,ComponentDrill
T8C4.500
%
G90
G05
T1
X132.842Y-66.919
X132.842Y-82.159
X135.382Y-66.919
X135.382Y-82.159
X136.393Y-61.849
X137.922Y-66.919
X137.922Y-82.159
X138.933Y-61.849
X140.462Y-66.919
X140.462Y-82.159
X141.473Y-61.849
X143.002Y-66.919
X143.002Y-82.159
X144.013Y-61.849
X145.542Y-66.919
X145.542Y-82.159
X146.553Y-61.849
X148.082Y-66.919
X148.082Y-82.159
X149.093Y-61.849
X150.622Y-66.919
X150.622Y-82.159
X151.633Y-61.849
X153.162Y-66.919
X153.162Y-82.159
X154.173Y-61.849
X155.702Y-66.919
X155.702Y-82.159
X156.713Y-61.849
X158.242Y-66.919
X158.242Y-82.159
X159.253Y-61.849
X160.782Y-66.919
X160.782Y-82.159
X161.793Y-61.849
X163.322Y-66.919
X163.322Y-82.159
X164.333Y-61.849
X165.862Y-66.919
X165.862Y-82.159
X168.402Y-66.919
X168.402Y-82.159
T2
X110.815Y-102.619
X110.815Y-113.869
X110.815Y-125.119
X110.815Y-136.369
X114.315Y-102.619
X114.315Y-113.869
X114.315Y-125.119
X114.315Y-136.369
T3
X107.315Y-102.619
X107.315Y-113.869
X107.315Y-125.119
X107.315Y-136.369
T4
X101.092Y-73.002
X103.632Y-64.002
X103.632Y-73.002
X103.632Y-82.002
X106.172Y-64.002
X106.172Y-73.002
X106.172Y-82.002
X108.712Y-64.002
X108.712Y-73.002
X108.712Y-82.002
X111.252Y-73.002
X117.602Y-64.008
X117.602Y-73.008
X117.602Y-82.008
X120.142Y-64.008
X120.142Y-73.008
X120.142Y-82.008
X122.682Y-64.008
X122.682Y-73.008
X122.682Y-82.008
X125.222Y-64.008
X125.222Y-73.008
X125.222Y-82.008
T5
X122.301Y-110.818
X122.301Y-114.12
X122.555Y-99.568
X122.555Y-102.87
X122.555Y-122.068
X122.555Y-125.37
X122.555Y-133.318
X122.555Y-136.62
X135.763Y-110.818
X135.763Y-114.12
X136.017Y-99.568
X136.017Y-102.87
X136.017Y-122.068
X136.017Y-125.37
X136.017Y-133.318
X136.017Y-136.62
T6
X142.85Y-95.498
X142.85Y-100.498
X142.85Y-118.438
X142.85Y-123.438
T7
X99.72Y-57.277
X99.72Y-138.075
X170.057Y-57.273
X170.057Y-138.075
T8
X107.945Y-90.932
X115.145Y-90.932
T0
M30
