G04 #@! TF.GenerationSoftware,KiCad,Pcbnew,(6.0.8)*
G04 #@! TF.CreationDate,2022-10-29T14:17:15-07:00*
G04 #@! TF.ProjectId,unified_elec_steering,756e6966-6965-4645-9f65-6c65635f7374,A*
G04 #@! TF.SameCoordinates,Original*
G04 #@! TF.FileFunction,Legend,Bot*
G04 #@! TF.FilePolarity,Positive*
%FSLAX46Y46*%
G04 Gerber Fmt 4.6, Leading zero omitted, Abs format (unit mm)*
G04 Created by KiCad (PCBNEW (6.0.8)) date 2022-10-29 14:17:15*
%MOMM*%
%LPD*%
G01*
G04 APERTURE LIST*
G04 Aperture macros list*
%AMRoundRect*
0 Rectangle with rounded corners*
0 $1 Rounding radius*
0 $2 $3 $4 $5 $6 $7 $8 $9 X,Y pos of 4 corners*
0 Add a 4 corners polygon primitive as box body*
4,1,4,$2,$3,$4,$5,$6,$7,$8,$9,$2,$3,0*
0 Add four circle primitives for the rounded corners*
1,1,$1+$1,$2,$3*
1,1,$1+$1,$4,$5*
1,1,$1+$1,$6,$7*
1,1,$1+$1,$8,$9*
0 Add four rect primitives between the rounded corners*
20,1,$1+$1,$2,$3,$4,$5,0*
20,1,$1+$1,$4,$5,$6,$7,0*
20,1,$1+$1,$6,$7,$8,$9,0*
20,1,$1+$1,$8,$9,$2,$3,0*%
G04 Aperture macros list end*
%ADD10C,0.150000*%
%ADD11RoundRect,1.500000X1.500000X1.500000X-1.500000X1.500000X-1.500000X-1.500000X1.500000X-1.500000X0*%
%ADD12C,6.000000*%
%ADD13C,1.700000*%
%ADD14O,1.700000X1.700000*%
%ADD15C,1.600000*%
%ADD16R,1.520000X1.520000*%
%ADD17C,1.520000*%
%ADD18C,2.235200*%
%ADD19RoundRect,0.250000X0.620000X0.620000X-0.620000X0.620000X-0.620000X-0.620000X0.620000X-0.620000X0*%
%ADD20C,1.740000*%
%ADD21C,6.400000*%
%ADD22C,2.180000*%
%ADD23C,3.196000*%
%ADD24R,3.196000X3.196000*%
%ADD25R,1.600000X1.600000*%
%ADD26O,1.600000X1.600000*%
G04 APERTURE END LIST*
D10*
X122202672Y-58221619D02*
X122149101Y-58174000D01*
X122047910Y-58126380D01*
X121809815Y-58126380D01*
X121720529Y-58174000D01*
X121678863Y-58221619D01*
X121643148Y-58316857D01*
X121655053Y-58412095D01*
X121720529Y-58554952D01*
X122363386Y-59126380D01*
X121744339Y-59126380D01*
X121000291Y-58126380D02*
X120905053Y-58126380D01*
X120815767Y-58174000D01*
X120774101Y-58221619D01*
X120738386Y-58316857D01*
X120714577Y-58507333D01*
X120744339Y-58745428D01*
X120815767Y-58935904D01*
X120875291Y-59031142D01*
X120928863Y-59078761D01*
X121030053Y-59126380D01*
X121125291Y-59126380D01*
X121214577Y-59078761D01*
X121256244Y-59031142D01*
X121291958Y-58935904D01*
X121315767Y-58745428D01*
X121286005Y-58507333D01*
X121214577Y-58316857D01*
X121155053Y-58221619D01*
X121101482Y-58174000D01*
X121000291Y-58126380D01*
X120297910Y-58221619D02*
X120244339Y-58174000D01*
X120143148Y-58126380D01*
X119905053Y-58126380D01*
X119815767Y-58174000D01*
X119774101Y-58221619D01*
X119738386Y-58316857D01*
X119750291Y-58412095D01*
X119815767Y-58554952D01*
X120458625Y-59126380D01*
X119839577Y-59126380D01*
X119345529Y-58221619D02*
X119291958Y-58174000D01*
X119190767Y-58126380D01*
X118952672Y-58126380D01*
X118863386Y-58174000D01*
X118821720Y-58221619D01*
X118786005Y-58316857D01*
X118797910Y-58412095D01*
X118863386Y-58554952D01*
X119506244Y-59126380D01*
X118887196Y-59126380D01*
X118411005Y-58745428D02*
X117649101Y-58745428D01*
X117155053Y-58221619D02*
X117101482Y-58174000D01*
X117000291Y-58126380D01*
X116762196Y-58126380D01*
X116672910Y-58174000D01*
X116631244Y-58221619D01*
X116595529Y-58316857D01*
X116607434Y-58412095D01*
X116672910Y-58554952D01*
X117315767Y-59126380D01*
X116696720Y-59126380D01*
X115952672Y-58126380D02*
X115857434Y-58126380D01*
X115768148Y-58174000D01*
X115726482Y-58221619D01*
X115690767Y-58316857D01*
X115666958Y-58507333D01*
X115696720Y-58745428D01*
X115768148Y-58935904D01*
X115827672Y-59031142D01*
X115881244Y-59078761D01*
X115982434Y-59126380D01*
X116077672Y-59126380D01*
X116166958Y-59078761D01*
X116208625Y-59031142D01*
X116244339Y-58935904D01*
X116268148Y-58745428D01*
X116238386Y-58507333D01*
X116166958Y-58316857D01*
X116107434Y-58221619D01*
X116053863Y-58174000D01*
X115952672Y-58126380D01*
X115250291Y-58221619D02*
X115196720Y-58174000D01*
X115095529Y-58126380D01*
X114857434Y-58126380D01*
X114768148Y-58174000D01*
X114726482Y-58221619D01*
X114690767Y-58316857D01*
X114702672Y-58412095D01*
X114768148Y-58554952D01*
X115411005Y-59126380D01*
X114791958Y-59126380D01*
X114297910Y-58221619D02*
X114244339Y-58174000D01*
X114143148Y-58126380D01*
X113905053Y-58126380D01*
X113815767Y-58174000D01*
X113774101Y-58221619D01*
X113738386Y-58316857D01*
X113750291Y-58412095D01*
X113815767Y-58554952D01*
X114458625Y-59126380D01*
X113839577Y-59126380D01*
X130173476Y-57348380D02*
X130173476Y-56348380D01*
X129697285Y-56681714D02*
X129697285Y-57348380D01*
X129697285Y-56776952D02*
X129649666Y-56729333D01*
X129554428Y-56681714D01*
X129411571Y-56681714D01*
X129316333Y-56729333D01*
X129268714Y-56824571D01*
X129268714Y-57348380D01*
X127554428Y-57348380D02*
X128030619Y-57348380D01*
X128030619Y-56348380D01*
X127078238Y-57348380D02*
X127173476Y-57300761D01*
X127221095Y-57253142D01*
X127268714Y-57157904D01*
X127268714Y-56872190D01*
X127221095Y-56776952D01*
X127173476Y-56729333D01*
X127078238Y-56681714D01*
X126935380Y-56681714D01*
X126840142Y-56729333D01*
X126792523Y-56776952D01*
X126744904Y-56872190D01*
X126744904Y-57157904D01*
X126792523Y-57253142D01*
X126840142Y-57300761D01*
X126935380Y-57348380D01*
X127078238Y-57348380D01*
X126411571Y-56681714D02*
X126173476Y-57348380D01*
X125935380Y-56681714D01*
X125554428Y-57348380D02*
X125554428Y-56681714D01*
X125554428Y-56348380D02*
X125602047Y-56396000D01*
X125554428Y-56443619D01*
X125506809Y-56396000D01*
X125554428Y-56348380D01*
X125554428Y-56443619D01*
X125078238Y-56681714D02*
X125078238Y-57348380D01*
X125078238Y-56776952D02*
X125030619Y-56729333D01*
X124935380Y-56681714D01*
X124792523Y-56681714D01*
X124697285Y-56729333D01*
X124649666Y-56824571D01*
X124649666Y-57348380D01*
X123744904Y-56681714D02*
X123744904Y-57491238D01*
X123792523Y-57586476D01*
X123840142Y-57634095D01*
X123935380Y-57681714D01*
X124078238Y-57681714D01*
X124173476Y-57634095D01*
X123744904Y-57300761D02*
X123840142Y-57348380D01*
X124030619Y-57348380D01*
X124125857Y-57300761D01*
X124173476Y-57253142D01*
X124221095Y-57157904D01*
X124221095Y-56872190D01*
X124173476Y-56776952D01*
X124125857Y-56729333D01*
X124030619Y-56681714D01*
X123840142Y-56681714D01*
X123744904Y-56729333D01*
X122506809Y-57348380D02*
X122506809Y-56348380D01*
X122173476Y-57062666D01*
X121840142Y-56348380D01*
X121840142Y-57348380D01*
X120983000Y-57300761D02*
X121078238Y-57348380D01*
X121268714Y-57348380D01*
X121363952Y-57300761D01*
X121411571Y-57205523D01*
X121411571Y-56824571D01*
X121363952Y-56729333D01*
X121268714Y-56681714D01*
X121078238Y-56681714D01*
X120983000Y-56729333D01*
X120935380Y-56824571D01*
X120935380Y-56919809D01*
X121411571Y-57015047D01*
X120506809Y-57348380D02*
X120506809Y-56681714D01*
X120506809Y-56776952D02*
X120459190Y-56729333D01*
X120363952Y-56681714D01*
X120221095Y-56681714D01*
X120125857Y-56729333D01*
X120078238Y-56824571D01*
X120078238Y-57348380D01*
X120078238Y-56824571D02*
X120030619Y-56729333D01*
X119935380Y-56681714D01*
X119792523Y-56681714D01*
X119697285Y-56729333D01*
X119649666Y-56824571D01*
X119649666Y-57348380D01*
X119030619Y-57348380D02*
X119125857Y-57300761D01*
X119173476Y-57253142D01*
X119221095Y-57157904D01*
X119221095Y-56872190D01*
X119173476Y-56776952D01*
X119125857Y-56729333D01*
X119030619Y-56681714D01*
X118887761Y-56681714D01*
X118792523Y-56729333D01*
X118744904Y-56776952D01*
X118697285Y-56872190D01*
X118697285Y-57157904D01*
X118744904Y-57253142D01*
X118792523Y-57300761D01*
X118887761Y-57348380D01*
X119030619Y-57348380D01*
X118268714Y-57348380D02*
X118268714Y-56681714D01*
X118268714Y-56872190D02*
X118221095Y-56776952D01*
X118173476Y-56729333D01*
X118078238Y-56681714D01*
X117983000Y-56681714D01*
X117744904Y-56681714D02*
X117506809Y-57348380D01*
X117268714Y-56681714D02*
X117506809Y-57348380D01*
X117602047Y-57586476D01*
X117649666Y-57634095D01*
X117744904Y-57681714D01*
X115983000Y-57348380D02*
X116078238Y-57300761D01*
X116125857Y-57253142D01*
X116173476Y-57157904D01*
X116173476Y-56872190D01*
X116125857Y-56776952D01*
X116078238Y-56729333D01*
X115983000Y-56681714D01*
X115840142Y-56681714D01*
X115744904Y-56729333D01*
X115697285Y-56776952D01*
X115649666Y-56872190D01*
X115649666Y-57157904D01*
X115697285Y-57253142D01*
X115744904Y-57300761D01*
X115840142Y-57348380D01*
X115983000Y-57348380D01*
X115363952Y-56681714D02*
X114983000Y-56681714D01*
X115221095Y-57348380D02*
X115221095Y-56491238D01*
X115173476Y-56396000D01*
X115078238Y-56348380D01*
X114983000Y-56348380D01*
X113935380Y-56348380D02*
X113935380Y-56538857D01*
X113554428Y-56348380D02*
X113554428Y-56538857D01*
X112792523Y-56824571D02*
X112649666Y-56872190D01*
X112602047Y-56919809D01*
X112554428Y-57015047D01*
X112554428Y-57157904D01*
X112602047Y-57253142D01*
X112649666Y-57300761D01*
X112744904Y-57348380D01*
X113125857Y-57348380D01*
X113125857Y-56348380D01*
X112792523Y-56348380D01*
X112697285Y-56396000D01*
X112649666Y-56443619D01*
X112602047Y-56538857D01*
X112602047Y-56634095D01*
X112649666Y-56729333D01*
X112697285Y-56776952D01*
X112792523Y-56824571D01*
X113125857Y-56824571D01*
X112125857Y-57348380D02*
X112125857Y-56681714D01*
X112125857Y-56348380D02*
X112173476Y-56396000D01*
X112125857Y-56443619D01*
X112078238Y-56396000D01*
X112125857Y-56348380D01*
X112125857Y-56443619D01*
X111221095Y-56681714D02*
X111221095Y-57491238D01*
X111268714Y-57586476D01*
X111316333Y-57634095D01*
X111411571Y-57681714D01*
X111554428Y-57681714D01*
X111649666Y-57634095D01*
X111221095Y-57300761D02*
X111316333Y-57348380D01*
X111506809Y-57348380D01*
X111602047Y-57300761D01*
X111649666Y-57253142D01*
X111697285Y-57157904D01*
X111697285Y-56872190D01*
X111649666Y-56776952D01*
X111602047Y-56729333D01*
X111506809Y-56681714D01*
X111316333Y-56681714D01*
X111221095Y-56729333D01*
X109411571Y-57348380D02*
X109744904Y-56872190D01*
X109983000Y-57348380D02*
X109983000Y-56348380D01*
X109602047Y-56348380D01*
X109506809Y-56396000D01*
X109459190Y-56443619D01*
X109411571Y-56538857D01*
X109411571Y-56681714D01*
X109459190Y-56776952D01*
X109506809Y-56824571D01*
X109602047Y-56872190D01*
X109983000Y-56872190D01*
X108983000Y-57348380D02*
X108983000Y-56681714D01*
X108983000Y-56348380D02*
X109030619Y-56396000D01*
X108983000Y-56443619D01*
X108935380Y-56396000D01*
X108983000Y-56348380D01*
X108983000Y-56443619D01*
X108078238Y-57300761D02*
X108173476Y-57348380D01*
X108363952Y-57348380D01*
X108459190Y-57300761D01*
X108506809Y-57253142D01*
X108554428Y-57157904D01*
X108554428Y-56872190D01*
X108506809Y-56776952D01*
X108459190Y-56729333D01*
X108363952Y-56681714D01*
X108173476Y-56681714D01*
X108078238Y-56729333D01*
X107649666Y-57348380D02*
X107649666Y-56348380D01*
X107554428Y-56967428D02*
X107268714Y-57348380D01*
X107268714Y-56681714D02*
X107649666Y-57062666D01*
X106935380Y-56681714D02*
X106697285Y-57348380D01*
X106459190Y-56681714D02*
X106697285Y-57348380D01*
X106792523Y-57586476D01*
X106840142Y-57634095D01*
X106935380Y-57681714D01*
X106125857Y-56348380D02*
X106125857Y-56538857D01*
X105744904Y-56348380D02*
X105744904Y-56538857D01*
G36*
X137798342Y-97350514D02*
G01*
X137756565Y-97392290D01*
X137714789Y-97350514D01*
X137756565Y-97308737D01*
X137798342Y-97350514D01*
G37*
G36*
X156260207Y-88960632D02*
G01*
X156273800Y-89285971D01*
X156276504Y-89412098D01*
X156293955Y-89674759D01*
X156301791Y-89792712D01*
X156347975Y-90234781D01*
X156408052Y-90666303D01*
X156436789Y-90854308D01*
X156493408Y-91284554D01*
X156535186Y-91684790D01*
X156554665Y-91987805D01*
X156569761Y-92229773D01*
X156630958Y-92496139D01*
X156753430Y-92699591D01*
X156788283Y-92742233D01*
X157009203Y-93052055D01*
X157098199Y-93279728D01*
X157057696Y-93440312D01*
X156890118Y-93548869D01*
X156783657Y-93595641D01*
X156696920Y-93684076D01*
X156734250Y-93812467D01*
X156896100Y-94016301D01*
X157020767Y-94159394D01*
X157305703Y-94509461D01*
X157495759Y-94781902D01*
X157577564Y-94958233D01*
X157581493Y-94991537D01*
X157591508Y-95177848D01*
X157601013Y-95484187D01*
X157609089Y-95876891D01*
X157614817Y-96322301D01*
X157626139Y-97550009D01*
X157978456Y-97951577D01*
X158062997Y-98043113D01*
X158329705Y-98279671D01*
X158664814Y-98503760D01*
X159091847Y-98728244D01*
X159634326Y-98965988D01*
X160315776Y-99229857D01*
X160633461Y-99348735D01*
X161042821Y-99504889D01*
X161400008Y-99644278D01*
X161652618Y-99746644D01*
X162049944Y-99905748D01*
X162599591Y-100108218D01*
X163175749Y-100305545D01*
X163718462Y-100477312D01*
X164167779Y-100603104D01*
X165303189Y-100908330D01*
X166542945Y-101290788D01*
X167668407Y-101692867D01*
X167902129Y-101779099D01*
X168254471Y-101897573D01*
X168545710Y-101983167D01*
X168655075Y-102011864D01*
X169002924Y-102108082D01*
X169339460Y-102206623D01*
X169390695Y-102222290D01*
X169551973Y-102273062D01*
X169729416Y-102331890D01*
X169946447Y-102407103D01*
X170226490Y-102507027D01*
X170592969Y-102639992D01*
X171069309Y-102814323D01*
X171678934Y-103038350D01*
X172273577Y-103254911D01*
X172981488Y-103505230D01*
X173551971Y-103696972D01*
X173976631Y-103827256D01*
X174686782Y-104043421D01*
X175581240Y-104354587D01*
X176438157Y-104692984D01*
X177193407Y-105034544D01*
X177507171Y-105184843D01*
X177975353Y-105401635D01*
X178477589Y-105627996D01*
X178948013Y-105833919D01*
X179365868Y-106015052D01*
X180167308Y-106375472D01*
X180832456Y-106695695D01*
X181376775Y-106983709D01*
X181815731Y-107247498D01*
X182164789Y-107495049D01*
X182609952Y-107842566D01*
X183154086Y-108263049D01*
X183602029Y-108602064D01*
X183973615Y-108873637D01*
X184288675Y-109091794D01*
X184567041Y-109270562D01*
X184828548Y-109423968D01*
X185093027Y-109566038D01*
X185296789Y-109675678D01*
X185654551Y-109886658D01*
X185961533Y-110089693D01*
X186167700Y-110252808D01*
X186369827Y-110443323D01*
X186647979Y-110702400D01*
X186927289Y-110960069D01*
X187066541Y-111096336D01*
X187362164Y-111432596D01*
X187655580Y-111819158D01*
X187924469Y-112221489D01*
X188146509Y-112605058D01*
X188299380Y-112935332D01*
X188360762Y-113177781D01*
X188370480Y-113379981D01*
X188393386Y-113680421D01*
X188428836Y-113876854D01*
X188486357Y-114011350D01*
X188575475Y-114125981D01*
X188796881Y-114412771D01*
X188908866Y-114693256D01*
X188917460Y-114714780D01*
X188879032Y-114972535D01*
X188681894Y-115189000D01*
X188534242Y-115310099D01*
X188447133Y-115466152D01*
X188510187Y-115627109D01*
X188725443Y-115822662D01*
X188805685Y-115887459D01*
X189092388Y-116165427D01*
X189381923Y-116504219D01*
X189642259Y-116860986D01*
X189841366Y-117192879D01*
X189947211Y-117457049D01*
X189961205Y-117514507D01*
X190062430Y-117833362D01*
X190188324Y-118138209D01*
X190246874Y-118267956D01*
X190328984Y-118542859D01*
X190331093Y-118724891D01*
X190332164Y-118817270D01*
X190253074Y-119138508D01*
X190088372Y-119553890D01*
X190037788Y-119664882D01*
X189715501Y-120213297D01*
X189283309Y-120723086D01*
X188727023Y-121206928D01*
X188032451Y-121677501D01*
X187185402Y-122147483D01*
X186736545Y-122377557D01*
X186417559Y-122546523D01*
X186209905Y-122669103D01*
X186094845Y-122760122D01*
X186053639Y-122834407D01*
X186067546Y-122906783D01*
X186117826Y-122992076D01*
X186174031Y-123082451D01*
X186310670Y-123365057D01*
X186359735Y-123639915D01*
X186324649Y-123958990D01*
X186208834Y-124374248D01*
X186156483Y-124516502D01*
X186079659Y-124725257D01*
X185914728Y-125060283D01*
X185689361Y-125419636D01*
X185376261Y-125851758D01*
X185362574Y-125869897D01*
X185126096Y-126189524D01*
X184932941Y-126461888D01*
X184802689Y-126658639D01*
X184754921Y-126751426D01*
X184730704Y-126837947D01*
X184651004Y-127037723D01*
X184534975Y-127296070D01*
X184428695Y-127484160D01*
X184154416Y-127852490D01*
X183778574Y-128273671D01*
X183326088Y-128725349D01*
X182821878Y-129185172D01*
X182290861Y-129630785D01*
X181757959Y-130039837D01*
X181248089Y-130389973D01*
X180786171Y-130658841D01*
X180534003Y-130790759D01*
X179829701Y-131192606D01*
X179205100Y-131609559D01*
X178597420Y-132082452D01*
X178315113Y-132303358D01*
X177797130Y-132666783D01*
X177215139Y-133037427D01*
X176617040Y-133386510D01*
X176050737Y-133685251D01*
X175564131Y-133904871D01*
X174991100Y-134132909D01*
X174407269Y-134369763D01*
X173956359Y-134559778D01*
X173625220Y-134709308D01*
X173400703Y-134824700D01*
X173269660Y-134912307D01*
X173218942Y-134978479D01*
X173235398Y-135029566D01*
X173291706Y-135037719D01*
X173500485Y-135049076D01*
X173847535Y-135061127D01*
X174316575Y-135073664D01*
X174891328Y-135086480D01*
X175555517Y-135099366D01*
X176292862Y-135112116D01*
X177087086Y-135124520D01*
X177921911Y-135136372D01*
X178781059Y-135147464D01*
X179648251Y-135157587D01*
X180507210Y-135166533D01*
X181341657Y-135174096D01*
X182135315Y-135180067D01*
X182871905Y-135184239D01*
X183535149Y-135186402D01*
X184108769Y-135186351D01*
X184576488Y-135183876D01*
X184922026Y-135178771D01*
X185263418Y-135173331D01*
X185865634Y-135173928D01*
X186454377Y-135185784D01*
X186978493Y-135207663D01*
X187386828Y-135238329D01*
X187664537Y-135266119D01*
X188213257Y-135317115D01*
X188790197Y-135366917D01*
X189308539Y-135407865D01*
X189592329Y-135429326D01*
X190371912Y-135494218D01*
X191045005Y-135559512D01*
X191596483Y-135623509D01*
X192011225Y-135684511D01*
X192274106Y-135740821D01*
X192562926Y-135801006D01*
X192858974Y-135827097D01*
X192927617Y-135832318D01*
X193192897Y-135888448D01*
X193550135Y-135993893D01*
X193956367Y-136133365D01*
X194368631Y-136291573D01*
X194743961Y-136453229D01*
X195039395Y-136603043D01*
X195279763Y-136786090D01*
X195383441Y-136996052D01*
X195415630Y-137101315D01*
X195517294Y-137216343D01*
X195716041Y-137345853D01*
X196041200Y-137512891D01*
X196160524Y-137572423D01*
X196701932Y-137890695D01*
X197115693Y-138221909D01*
X197389152Y-138554317D01*
X197509655Y-138876172D01*
X197512747Y-138902432D01*
X197516945Y-138938080D01*
X197519439Y-139104706D01*
X197470628Y-139246713D01*
X197347218Y-139410660D01*
X197125913Y-139643102D01*
X196875527Y-139870246D01*
X196612061Y-140063940D01*
X196400590Y-140174512D01*
X196206313Y-140251946D01*
X195908291Y-140392981D01*
X195600476Y-140556430D01*
X195333628Y-140698008D01*
X195108581Y-140800527D01*
X194977942Y-140839658D01*
X194831041Y-140872332D01*
X194628541Y-140957535D01*
X194488930Y-141019031D01*
X194211485Y-141119542D01*
X193901605Y-141215169D01*
X193602163Y-141295833D01*
X193094183Y-141412835D01*
X192598153Y-141495232D01*
X192069448Y-141548269D01*
X191463442Y-141577189D01*
X190735513Y-141587237D01*
X190595260Y-141587794D01*
X190052198Y-141594085D01*
X189651763Y-141607608D01*
X189373958Y-141629824D01*
X189198782Y-141662192D01*
X189106236Y-141706172D01*
X189043303Y-141755584D01*
X188702814Y-141935089D01*
X188236249Y-142085970D01*
X187675540Y-142199507D01*
X187052618Y-142266981D01*
X186627528Y-142287125D01*
X186030334Y-142299920D01*
X185363267Y-142301586D01*
X184660172Y-142293018D01*
X183954893Y-142275110D01*
X183281272Y-142248755D01*
X182673154Y-142214847D01*
X182164383Y-142174281D01*
X181788802Y-142127950D01*
X181712075Y-142115398D01*
X181271062Y-142044819D01*
X180822262Y-141975104D01*
X180451960Y-141919692D01*
X180141204Y-141872024D01*
X179776527Y-141810620D01*
X179491105Y-141756821D01*
X179356795Y-141730974D01*
X179003813Y-141673605D01*
X178655578Y-141627866D01*
X178408629Y-141596611D01*
X177815173Y-141495360D01*
X177111302Y-141343054D01*
X176274328Y-141134997D01*
X175998706Y-141063318D01*
X175119018Y-140837667D01*
X174366389Y-140650938D01*
X173714630Y-140497642D01*
X173137554Y-140372290D01*
X172608970Y-140269392D01*
X172102691Y-140183461D01*
X171592527Y-140109007D01*
X171052289Y-140040542D01*
X170643515Y-139990611D01*
X170190045Y-139932854D01*
X169792758Y-139879900D01*
X169506565Y-139838913D01*
X169338779Y-139815145D01*
X168941615Y-139765948D01*
X168431608Y-139708488D01*
X167842522Y-139646207D01*
X167208124Y-139582541D01*
X166562179Y-139520932D01*
X165938452Y-139464818D01*
X165370710Y-139417639D01*
X165103333Y-139395834D01*
X164455684Y-139337962D01*
X163771816Y-139271012D01*
X163092298Y-139199348D01*
X162457696Y-139127334D01*
X161908579Y-139059334D01*
X161485513Y-138999711D01*
X161151896Y-138950146D01*
X160693887Y-138886768D01*
X160274000Y-138832976D01*
X159886816Y-138786168D01*
X159411732Y-138728602D01*
X158978934Y-138676041D01*
X158886853Y-138664199D01*
X158380430Y-138580744D01*
X157849174Y-138467762D01*
X157340808Y-138337288D01*
X156903058Y-138201357D01*
X156583648Y-138072004D01*
X156249741Y-137890036D01*
X155575886Y-137427917D01*
X154881963Y-136823881D01*
X154520183Y-136477965D01*
X155177289Y-136477965D01*
X155245717Y-136616298D01*
X155433336Y-136813443D01*
X155711631Y-137048788D01*
X156052085Y-137302194D01*
X156426181Y-137553522D01*
X156805400Y-137782634D01*
X157161226Y-137969390D01*
X157465142Y-138093651D01*
X157904600Y-138211954D01*
X158520159Y-138338554D01*
X159302325Y-138470422D01*
X160250888Y-138607531D01*
X161365639Y-138749851D01*
X162646368Y-138897354D01*
X164092865Y-139050013D01*
X165704921Y-139207798D01*
X166043543Y-139239854D01*
X166890146Y-139320290D01*
X167598359Y-139388249D01*
X168188829Y-139445937D01*
X168682207Y-139495556D01*
X169099141Y-139539309D01*
X169460280Y-139579400D01*
X169786272Y-139618032D01*
X170097765Y-139657409D01*
X170415410Y-139699735D01*
X170759855Y-139747212D01*
X171465333Y-139846874D01*
X172233062Y-139959949D01*
X172850700Y-140057229D01*
X173327247Y-140140216D01*
X173671707Y-140210409D01*
X173893078Y-140269307D01*
X174048870Y-140315924D01*
X174358575Y-140396640D01*
X174686828Y-140472060D01*
X174980512Y-140537036D01*
X175382909Y-140632154D01*
X175800058Y-140735898D01*
X176196452Y-140838995D01*
X176536583Y-140932170D01*
X176784943Y-141006150D01*
X176906024Y-141051661D01*
X176959245Y-141068221D01*
X177160682Y-141112456D01*
X177486643Y-141176281D01*
X177912901Y-141255464D01*
X178415232Y-141345772D01*
X178969409Y-141442970D01*
X179551206Y-141542826D01*
X180136399Y-141641106D01*
X180700762Y-141733578D01*
X181220069Y-141816007D01*
X181670094Y-141884161D01*
X181902275Y-141914247D01*
X182346965Y-141961300D01*
X182878114Y-142008857D01*
X183448167Y-142052759D01*
X184009568Y-142088844D01*
X184484280Y-142114972D01*
X184923801Y-142137398D01*
X185280237Y-142153709D01*
X185525681Y-142162633D01*
X185632223Y-142162895D01*
X185714049Y-142155199D01*
X185935547Y-142139236D01*
X186255098Y-142118460D01*
X186634855Y-142095417D01*
X187050141Y-142065570D01*
X187501303Y-142009723D01*
X187869993Y-141925124D01*
X188204752Y-141799792D01*
X188554123Y-141621748D01*
X188618947Y-141583210D01*
X188914349Y-141316190D01*
X189061646Y-140997681D01*
X189060081Y-140651257D01*
X188908894Y-140300492D01*
X188607326Y-139968960D01*
X188037193Y-139547374D01*
X187152347Y-139046971D01*
X186167300Y-138638502D01*
X185109218Y-138329494D01*
X184005266Y-138127472D01*
X182882611Y-138039962D01*
X181768418Y-138074488D01*
X181682086Y-138081931D01*
X181198348Y-138112521D01*
X180832593Y-138115228D01*
X180596679Y-138091112D01*
X180502469Y-138041233D01*
X180561823Y-137966651D01*
X180627157Y-137944509D01*
X180850811Y-137909436D01*
X181190464Y-137877668D01*
X181614211Y-137850518D01*
X182090145Y-137829303D01*
X182586359Y-137815334D01*
X183070947Y-137809928D01*
X183512002Y-137814399D01*
X183877618Y-137830060D01*
X184438487Y-137887868D01*
X185553474Y-138107964D01*
X186665201Y-138457250D01*
X187727454Y-138919891D01*
X188694016Y-139480057D01*
X188870329Y-139601575D01*
X189226651Y-139888773D01*
X189457137Y-140161939D01*
X189584177Y-140452445D01*
X189630163Y-140791663D01*
X189641612Y-140973527D01*
X189673199Y-141198673D01*
X189713823Y-141314689D01*
X189747491Y-141330507D01*
X189927027Y-141357487D01*
X190223887Y-141374143D01*
X190604111Y-141380887D01*
X191033738Y-141378127D01*
X191478810Y-141366274D01*
X191905366Y-141345738D01*
X192279447Y-141316927D01*
X192567092Y-141280253D01*
X192822938Y-141229546D01*
X193506482Y-141048334D01*
X194246154Y-140798702D01*
X194985564Y-140500755D01*
X195668318Y-140174599D01*
X195872842Y-140066027D01*
X196254547Y-139850001D01*
X196520571Y-139669430D01*
X196696888Y-139501656D01*
X196809470Y-139324022D01*
X196884293Y-139113870D01*
X196884579Y-139112832D01*
X196922449Y-138902432D01*
X196884993Y-138725241D01*
X196755386Y-138501311D01*
X196725989Y-138458865D01*
X196433949Y-138159593D01*
X196010105Y-137891228D01*
X195447597Y-137651262D01*
X194739570Y-137437187D01*
X193879166Y-137246496D01*
X192859526Y-137076681D01*
X192494313Y-137028321D01*
X191679813Y-136944744D01*
X190767943Y-136877066D01*
X189804473Y-136827410D01*
X188835174Y-136797898D01*
X187905816Y-136790653D01*
X187062170Y-136807799D01*
X186776832Y-136818118D01*
X186372434Y-136828566D01*
X186100484Y-136827050D01*
X185938778Y-136812279D01*
X185865109Y-136782963D01*
X185857270Y-136737812D01*
X185873202Y-136709459D01*
X185979077Y-136644778D01*
X186187657Y-136594004D01*
X186511788Y-136555919D01*
X186964311Y-136529305D01*
X187558070Y-136512946D01*
X188305907Y-136505622D01*
X189001226Y-136509232D01*
X190159516Y-136542459D01*
X191280643Y-136607509D01*
X192332471Y-136701819D01*
X193282863Y-136822823D01*
X194099683Y-136967958D01*
X194452499Y-137028878D01*
X194705000Y-137039810D01*
X194818556Y-136997085D01*
X194785798Y-136903730D01*
X194599359Y-136762769D01*
X194532303Y-136722522D01*
X193914856Y-136424557D01*
X193160428Y-136167456D01*
X192292610Y-135957067D01*
X191334994Y-135799238D01*
X190311171Y-135699817D01*
X190069285Y-135683167D01*
X189636715Y-135651309D01*
X189116974Y-135611420D01*
X188555216Y-135566979D01*
X187996594Y-135521467D01*
X187745453Y-135501985D01*
X186808838Y-135448894D01*
X185860664Y-135422356D01*
X184988699Y-135425181D01*
X183543407Y-135458310D01*
X182540776Y-135846446D01*
X182175623Y-135986771D01*
X181649551Y-136186361D01*
X181134452Y-136379340D01*
X180702618Y-136538490D01*
X180496488Y-136618219D01*
X180065615Y-136801704D01*
X179563136Y-137030850D01*
X179035772Y-137284118D01*
X178530250Y-137539966D01*
X178175940Y-137722929D01*
X177718665Y-137953737D01*
X177304510Y-138157093D01*
X176968271Y-138315975D01*
X176744746Y-138413362D01*
X176577235Y-138471797D01*
X176099610Y-138595368D01*
X175490105Y-138711177D01*
X174772859Y-138817336D01*
X173972012Y-138911958D01*
X173111702Y-138993157D01*
X172216068Y-139059045D01*
X171309250Y-139107735D01*
X170415387Y-139137341D01*
X169558617Y-139145976D01*
X168763080Y-139131753D01*
X168052914Y-139092785D01*
X167930157Y-139082881D01*
X167376252Y-139033617D01*
X166808459Y-138976876D01*
X166286983Y-138918920D01*
X165872026Y-138866008D01*
X165705706Y-138843286D01*
X165171855Y-138777329D01*
X164604520Y-138715143D01*
X164101484Y-138667680D01*
X163948455Y-138653479D01*
X163298165Y-138565552D01*
X162547947Y-138423422D01*
X161689009Y-138224804D01*
X160712558Y-137967414D01*
X159609801Y-137648966D01*
X158371946Y-137267176D01*
X156990200Y-136819760D01*
X156915576Y-136795255D01*
X156312813Y-136609244D01*
X155828970Y-136482882D01*
X155472680Y-136417797D01*
X155252576Y-136415615D01*
X155177289Y-136477965D01*
X154520183Y-136477965D01*
X154294202Y-136261894D01*
X153628673Y-136209327D01*
X153472973Y-136196772D01*
X153035838Y-136159964D01*
X152546949Y-136117219D01*
X152085842Y-136075438D01*
X151874172Y-136057871D01*
X151218469Y-136036596D01*
X150707223Y-136078231D01*
X150536595Y-136104141D01*
X150163701Y-136152178D01*
X149726118Y-136201348D01*
X149286828Y-136244286D01*
X149085072Y-136262493D01*
X148543279Y-136312845D01*
X147980489Y-136366760D01*
X147490447Y-136415312D01*
X147144455Y-136450543D01*
X146635591Y-136502481D01*
X146180621Y-136548476D01*
X145766550Y-136589155D01*
X145380381Y-136625145D01*
X145009118Y-136657074D01*
X144639766Y-136685568D01*
X144259328Y-136711256D01*
X143854808Y-136734764D01*
X143413211Y-136756719D01*
X142921539Y-136777749D01*
X142366797Y-136798481D01*
X141735989Y-136819542D01*
X141016119Y-136841560D01*
X140194191Y-136865162D01*
X139257208Y-136890975D01*
X138192175Y-136919626D01*
X136986095Y-136951743D01*
X135625973Y-136987952D01*
X135528845Y-136990565D01*
X134739755Y-137013256D01*
X133961535Y-137038056D01*
X133220217Y-137063972D01*
X132541833Y-137090010D01*
X131952415Y-137115177D01*
X131477995Y-137138480D01*
X131144603Y-137158925D01*
X130705715Y-137184139D01*
X129867680Y-137196431D01*
X129097564Y-137162268D01*
X128555604Y-137133299D01*
X127778061Y-137130072D01*
X126978276Y-137164676D01*
X126711301Y-137178624D01*
X126261550Y-137194075D01*
X125686805Y-137208154D01*
X125009829Y-137220509D01*
X124253387Y-137230788D01*
X123440243Y-137238640D01*
X122593160Y-137243713D01*
X121734902Y-137245656D01*
X117661265Y-137246895D01*
X116481366Y-136996787D01*
X115975399Y-136878623D01*
X115453112Y-136736867D01*
X114983569Y-136590573D01*
X114622766Y-136456031D01*
X114565275Y-136431794D01*
X114161862Y-136277401D01*
X113746620Y-136140006D01*
X113400973Y-136046876D01*
X112386906Y-135805248D01*
X111510015Y-135551768D01*
X110790972Y-135291392D01*
X110232085Y-135025071D01*
X109835661Y-134753759D01*
X109604006Y-134478410D01*
X109598388Y-134467897D01*
X109502911Y-134253679D01*
X109488355Y-134070097D01*
X109489928Y-134063474D01*
X110127710Y-134063474D01*
X110178720Y-134389412D01*
X110341080Y-134647160D01*
X110420975Y-134711049D01*
X110700304Y-134874574D01*
X111084034Y-135053216D01*
X111531496Y-135232296D01*
X112002024Y-135397133D01*
X112454951Y-135533048D01*
X112849609Y-135625362D01*
X113145330Y-135659395D01*
X113301547Y-135642056D01*
X113404672Y-135553342D01*
X113480133Y-135346073D01*
X113494290Y-135293928D01*
X113546325Y-135076979D01*
X113567613Y-134943349D01*
X113567633Y-134941837D01*
X113633361Y-134789149D01*
X113801923Y-134579095D01*
X114037750Y-134346761D01*
X114305274Y-134127235D01*
X114568926Y-133955601D01*
X114777278Y-133854330D01*
X115209482Y-133681113D01*
X115745192Y-133496725D01*
X116347589Y-133312838D01*
X116979853Y-133141120D01*
X117605163Y-132993244D01*
X117825948Y-132948555D01*
X118333760Y-132872690D01*
X118884980Y-132831209D01*
X119540634Y-132818606D01*
X119657829Y-132818993D01*
X120055046Y-132826549D01*
X120376436Y-132842280D01*
X120591578Y-132864250D01*
X120670052Y-132890520D01*
X120598765Y-132939579D01*
X120394269Y-132988127D01*
X120091669Y-133029201D01*
X119726228Y-133058069D01*
X119333210Y-133069996D01*
X119039731Y-133082456D01*
X118461964Y-133149604D01*
X117813690Y-133265799D01*
X117134432Y-133420767D01*
X116463712Y-133604235D01*
X115841054Y-133805929D01*
X115305980Y-134015575D01*
X114898013Y-134222899D01*
X114628326Y-134417006D01*
X114333917Y-134725156D01*
X114144584Y-135052225D01*
X114069796Y-135371848D01*
X114119021Y-135657659D01*
X114301728Y-135883294D01*
X114465306Y-135995325D01*
X115062314Y-136303499D01*
X115810924Y-136566557D01*
X116703520Y-136782136D01*
X117732487Y-136947874D01*
X118057168Y-136983810D01*
X118646621Y-137030298D01*
X119250636Y-137059579D01*
X119779527Y-137066456D01*
X121821074Y-137038634D01*
X124465093Y-136999309D01*
X126974331Y-136958067D01*
X129346480Y-136914979D01*
X131579231Y-136870113D01*
X133670275Y-136823537D01*
X135617304Y-136775320D01*
X137418009Y-136725531D01*
X139070081Y-136674237D01*
X140571211Y-136621509D01*
X141919092Y-136567414D01*
X143111413Y-136512021D01*
X144145866Y-136455399D01*
X145020143Y-136397616D01*
X145731936Y-136338740D01*
X146278934Y-136278842D01*
X146499963Y-136251703D01*
X147050939Y-136193228D01*
X147630907Y-136141404D01*
X148145816Y-136104990D01*
X148465246Y-136083187D01*
X148776238Y-136050598D01*
X148948530Y-136015637D01*
X148967925Y-135980453D01*
X148952648Y-135973117D01*
X148836229Y-135943087D01*
X148630601Y-135915894D01*
X148324638Y-135890995D01*
X147907212Y-135867846D01*
X147367194Y-135845905D01*
X146693457Y-135824627D01*
X145874874Y-135803471D01*
X144900315Y-135781892D01*
X144318848Y-135767830D01*
X143694976Y-135748509D01*
X143118939Y-135726443D01*
X142620551Y-135702910D01*
X142229625Y-135679187D01*
X141975973Y-135656552D01*
X141908831Y-135648886D01*
X141592362Y-135620242D01*
X141154936Y-135587944D01*
X140631800Y-135554302D01*
X140058203Y-135521628D01*
X139469394Y-135492231D01*
X139261215Y-135482255D01*
X138691778Y-135451357D01*
X138161369Y-135417630D01*
X137701976Y-135383389D01*
X137345587Y-135350947D01*
X137124191Y-135322616D01*
X137046891Y-135309513D01*
X136702695Y-135258449D01*
X136216187Y-135193600D01*
X135605507Y-135117154D01*
X134888795Y-135031296D01*
X134084191Y-134938213D01*
X133209836Y-134840093D01*
X132283868Y-134739122D01*
X131834225Y-134689342D01*
X131332303Y-134630438D01*
X130888707Y-134574916D01*
X130539409Y-134527302D01*
X130320381Y-134492121D01*
X130116107Y-134459078D01*
X129762851Y-134413133D01*
X129339913Y-134365934D01*
X128899986Y-134323728D01*
X128574126Y-134292943D01*
X128054531Y-134236720D01*
X127553620Y-134175294D01*
X127145381Y-134117365D01*
X127035590Y-134100128D01*
X126632877Y-134038412D01*
X126256508Y-133982750D01*
X125975794Y-133943448D01*
X125826630Y-133920789D01*
X125437801Y-133848494D01*
X124953201Y-133747146D01*
X124415929Y-133626796D01*
X123869080Y-133497499D01*
X123355753Y-133369308D01*
X122919043Y-133252276D01*
X122602049Y-133156456D01*
X122447859Y-133100569D01*
X122082496Y-132952054D01*
X121666705Y-132768182D01*
X121263803Y-132576399D01*
X121020092Y-132457341D01*
X120663633Y-132290225D01*
X120361792Y-132156710D01*
X120161632Y-132078075D01*
X120135063Y-132070690D01*
X119928111Y-132037224D01*
X119591329Y-132002192D01*
X119154841Y-131968024D01*
X118648772Y-131937150D01*
X118103246Y-131912000D01*
X117784066Y-131901132D01*
X116433955Y-131890442D01*
X115189439Y-131939591D01*
X114058237Y-132047085D01*
X113048072Y-132211431D01*
X112166663Y-132431135D01*
X111421733Y-132704704D01*
X110821001Y-133030645D01*
X110372190Y-133407463D01*
X110354203Y-133427668D01*
X110186665Y-133724506D01*
X110127710Y-134063474D01*
X109489928Y-134063474D01*
X109546614Y-133824799D01*
X109657304Y-133570243D01*
X109923418Y-133234502D01*
X110331721Y-132907674D01*
X110894394Y-132578496D01*
X111082519Y-132477958D01*
X111346790Y-132315366D01*
X111493878Y-132181418D01*
X111549545Y-132055551D01*
X111593581Y-131907782D01*
X111623470Y-131857750D01*
X112111918Y-131857750D01*
X112140579Y-131901354D01*
X112304385Y-131941305D01*
X112592111Y-131946761D01*
X112979614Y-131917780D01*
X113442750Y-131854424D01*
X113724954Y-131811436D01*
X114682416Y-131702471D01*
X115699258Y-131634691D01*
X116702805Y-131611865D01*
X117620381Y-131637763D01*
X117754719Y-131645426D01*
X118175121Y-131663085D01*
X118531292Y-131668739D01*
X118789093Y-131662241D01*
X118914391Y-131643439D01*
X118928969Y-131600592D01*
X118828556Y-131509152D01*
X118589908Y-131369200D01*
X118204194Y-131174909D01*
X117369723Y-130771566D01*
X116408868Y-130789616D01*
X116012246Y-130801368D01*
X115464013Y-130838008D01*
X114934025Y-130904282D01*
X114363439Y-131008163D01*
X113693407Y-131157627D01*
X113434011Y-131226713D01*
X113054369Y-131351296D01*
X112697892Y-131491941D01*
X112399028Y-131633397D01*
X112192221Y-131760417D01*
X112111918Y-131857750D01*
X111623470Y-131857750D01*
X111716650Y-131701774D01*
X111750036Y-131668416D01*
X111976087Y-131514001D01*
X112308466Y-131349731D01*
X112701255Y-131196304D01*
X113108539Y-131074414D01*
X113235766Y-131042680D01*
X113555950Y-130962075D01*
X113818736Y-130895013D01*
X113970258Y-130862061D01*
X114281605Y-130810626D01*
X114612486Y-130769863D01*
X114896497Y-130741248D01*
X115471301Y-130678476D01*
X115899815Y-130622883D01*
X116196534Y-130572155D01*
X116375950Y-130523978D01*
X116452556Y-130476038D01*
X116453569Y-130466401D01*
X116383393Y-130374528D01*
X116216840Y-130222760D01*
X115988018Y-130038827D01*
X115731036Y-129850457D01*
X115480004Y-129685382D01*
X115457343Y-129669568D01*
X115315365Y-129552663D01*
X115086419Y-129351856D01*
X114796781Y-129090458D01*
X114472726Y-128791780D01*
X114395074Y-128719626D01*
X114054767Y-128406401D01*
X113739473Y-128120600D01*
X113481427Y-127891249D01*
X113312862Y-127747372D01*
X113242581Y-127688870D01*
X112938842Y-127411426D01*
X112578142Y-127053268D01*
X112185821Y-126642478D01*
X111787218Y-126207138D01*
X111407676Y-125775328D01*
X111072534Y-125375131D01*
X110807133Y-125034627D01*
X110636814Y-124781897D01*
X110448462Y-124446738D01*
X110235883Y-124043491D01*
X110104087Y-123755713D01*
X110058868Y-123595297D01*
X110053704Y-123568924D01*
X109948722Y-123464370D01*
X109756155Y-123376502D01*
X109539121Y-123328191D01*
X109360741Y-123342312D01*
X109339630Y-123346974D01*
X109169761Y-123347352D01*
X108879153Y-123324505D01*
X108502329Y-123281661D01*
X108151247Y-123232818D01*
X110505354Y-123232818D01*
X110588248Y-123399093D01*
X110590249Y-123402594D01*
X110687104Y-123614541D01*
X110727289Y-123786080D01*
X110730359Y-123810214D01*
X110793184Y-123976890D01*
X110918500Y-124228296D01*
X111081769Y-124521683D01*
X111258454Y-124814300D01*
X111424015Y-125063396D01*
X111553914Y-125226221D01*
X111622039Y-125299352D01*
X111789643Y-125490842D01*
X111980578Y-125718315D01*
X112144045Y-125912698D01*
X112494841Y-126308297D01*
X112870435Y-126709549D01*
X113238100Y-127082767D01*
X113565110Y-127394265D01*
X113818736Y-127610358D01*
X113954343Y-127719764D01*
X114228601Y-127957860D01*
X114546433Y-128247723D01*
X114863144Y-128549175D01*
X115054813Y-128735172D01*
X115397275Y-129058866D01*
X115712403Y-129338371D01*
X116020347Y-129585801D01*
X116341257Y-129813269D01*
X116695284Y-130032888D01*
X117102577Y-130256770D01*
X117583287Y-130497030D01*
X118157564Y-130765778D01*
X118845559Y-131075130D01*
X119667421Y-131437198D01*
X119949672Y-131562859D01*
X120032583Y-131600592D01*
X120396525Y-131766222D01*
X120878642Y-131989368D01*
X121331299Y-132202525D01*
X121363904Y-132217966D01*
X121835551Y-132427285D01*
X122368557Y-132642909D01*
X122920356Y-132849467D01*
X123448377Y-133031589D01*
X123910053Y-133173903D01*
X124262815Y-133261039D01*
X124274707Y-133263344D01*
X124470631Y-133303799D01*
X124764813Y-133366970D01*
X125098342Y-133440221D01*
X126184831Y-133656504D01*
X127855578Y-133899599D01*
X127908737Y-133905638D01*
X128265393Y-133946128D01*
X128740943Y-134000081D01*
X129296041Y-134063034D01*
X129891338Y-134130526D01*
X130487486Y-134198092D01*
X130658315Y-134217557D01*
X131226023Y-134283710D01*
X131759779Y-134347995D01*
X132226545Y-134406309D01*
X132593285Y-134454549D01*
X132826960Y-134488612D01*
X133135560Y-134532942D01*
X133554674Y-134582327D01*
X133954921Y-134620103D01*
X134113039Y-134633874D01*
X134532649Y-134677499D01*
X135006380Y-134733683D01*
X135458868Y-134793725D01*
X136150116Y-134889055D01*
X136831755Y-134975135D01*
X137430044Y-135039942D01*
X137988420Y-135088123D01*
X138550315Y-135124320D01*
X138826127Y-135140189D01*
X139356903Y-135173185D01*
X139919396Y-135210494D01*
X140430250Y-135246690D01*
X140675699Y-135264425D01*
X141716462Y-135332018D01*
X142897682Y-135398053D01*
X144198219Y-135461481D01*
X145596933Y-135521252D01*
X147072684Y-135576319D01*
X148361734Y-135624500D01*
X149540643Y-135676256D01*
X150566420Y-135730266D01*
X151446172Y-135786945D01*
X152187009Y-135846707D01*
X152796039Y-135909965D01*
X152905651Y-135922331D01*
X153311280Y-135961358D01*
X153543360Y-135980453D01*
X153811889Y-136002547D01*
X154354180Y-136041695D01*
X154884855Y-136074602D01*
X155279487Y-136098861D01*
X155767963Y-136139176D01*
X156140438Y-136186957D01*
X156427877Y-136246519D01*
X156661244Y-136322178D01*
X156764757Y-136361163D01*
X156987677Y-136428247D01*
X157220371Y-136466186D01*
X157493809Y-136475066D01*
X157838958Y-136454970D01*
X158286789Y-136405983D01*
X158868269Y-136328190D01*
X159209060Y-136277624D01*
X160162362Y-136109831D01*
X161140558Y-135903420D01*
X162095686Y-135669813D01*
X162979783Y-135420436D01*
X163744887Y-135166710D01*
X164045186Y-135050916D01*
X164550243Y-134840374D01*
X165142852Y-134580176D01*
X165796226Y-134283170D01*
X166483579Y-133962202D01*
X167178121Y-133630118D01*
X167853067Y-133299767D01*
X168481628Y-132983994D01*
X169037018Y-132695647D01*
X169492449Y-132447573D01*
X169821133Y-132252618D01*
X170650853Y-131676491D01*
X171518594Y-130963933D01*
X172371286Y-130141117D01*
X173237545Y-129182325D01*
X173238585Y-129181104D01*
X173652212Y-128689991D01*
X173967489Y-128300037D01*
X174199525Y-127989791D01*
X174363425Y-127737804D01*
X174474297Y-127522629D01*
X174547249Y-127322815D01*
X174565098Y-127266655D01*
X174694444Y-126954037D01*
X174848222Y-126677955D01*
X174924919Y-126549079D01*
X175060112Y-126276616D01*
X175209719Y-125937506D01*
X175359691Y-125568158D01*
X175495981Y-125204976D01*
X175604538Y-124884368D01*
X175671317Y-124642742D01*
X175682267Y-124516502D01*
X175675275Y-124499244D01*
X175578388Y-124363811D01*
X175410358Y-124277791D01*
X175148068Y-124237335D01*
X174768402Y-124238593D01*
X174248246Y-124277718D01*
X173299575Y-124328269D01*
X172391174Y-124299267D01*
X172255599Y-124288019D01*
X171903894Y-124254256D01*
X171669108Y-124216820D01*
X171513026Y-124164281D01*
X171397430Y-124085209D01*
X171284101Y-123968176D01*
X171187064Y-123842238D01*
X171060547Y-123514727D01*
X171093258Y-123176775D01*
X171281698Y-122843265D01*
X171622368Y-122529085D01*
X171652657Y-122506509D01*
X171850077Y-122344557D01*
X172127809Y-122102031D01*
X172453282Y-121807797D01*
X172793928Y-121490723D01*
X172809796Y-121475710D01*
X173260494Y-121030658D01*
X173592308Y-120652391D01*
X173821712Y-120311305D01*
X173965178Y-119977799D01*
X174039178Y-119622268D01*
X174060184Y-119215111D01*
X174048984Y-118882870D01*
X174007760Y-118651624D01*
X173930735Y-118527687D01*
X173872712Y-118498761D01*
X173662666Y-118444154D01*
X173354061Y-118393068D01*
X172990768Y-118353627D01*
X172862164Y-118342631D01*
X172192871Y-118271808D01*
X171564007Y-118183626D01*
X171000873Y-118083062D01*
X170528771Y-117975099D01*
X170173001Y-117864714D01*
X169958864Y-117756888D01*
X169952922Y-117752215D01*
X169742628Y-117488324D01*
X169643150Y-117156677D01*
X170257068Y-117156677D01*
X170361787Y-117426549D01*
X170562158Y-117618013D01*
X170576425Y-117625555D01*
X170830631Y-117733385D01*
X171149021Y-117819556D01*
X171552139Y-117886775D01*
X172060532Y-117937748D01*
X172694742Y-117975182D01*
X173475315Y-118001783D01*
X173674155Y-118007284D01*
X174189667Y-118025431D01*
X174639790Y-118046808D01*
X174999103Y-118069875D01*
X175242182Y-118093093D01*
X175343605Y-118114923D01*
X175341914Y-118147644D01*
X175230419Y-118218763D01*
X175017876Y-118294269D01*
X174620239Y-118406578D01*
X174637844Y-119138591D01*
X174637869Y-119139650D01*
X174639624Y-119529174D01*
X174616801Y-119808784D01*
X174560609Y-120034798D01*
X174462257Y-120263534D01*
X174459635Y-120268799D01*
X174314478Y-120492035D01*
X174073408Y-120793918D01*
X173765257Y-121143842D01*
X173418856Y-121511201D01*
X173063037Y-121865389D01*
X172726633Y-122175800D01*
X172438475Y-122411829D01*
X172087040Y-122686586D01*
X171789335Y-122967845D01*
X171618453Y-123211848D01*
X171561481Y-123438036D01*
X171605506Y-123665849D01*
X171729685Y-123816172D01*
X172001454Y-123951429D01*
X172387593Y-124046326D01*
X172861833Y-124096633D01*
X173397903Y-124098118D01*
X173969535Y-124046551D01*
X174218644Y-124009685D01*
X174708989Y-123909985D01*
X175123490Y-123771423D01*
X175508333Y-123572027D01*
X175909705Y-123289828D01*
X176373793Y-122902854D01*
X176502846Y-122789892D01*
X176830899Y-122499954D01*
X177055244Y-122293380D01*
X177193330Y-122150773D01*
X177262611Y-122052736D01*
X177280535Y-121979874D01*
X177264556Y-121912790D01*
X177271345Y-121838724D01*
X177349619Y-121654834D01*
X177487087Y-121424786D01*
X177610945Y-121255243D01*
X177785983Y-121087944D01*
X177951301Y-121037685D01*
X178066881Y-121043416D01*
X178139711Y-121085482D01*
X178098143Y-121192381D01*
X177941400Y-121391864D01*
X177924326Y-121412498D01*
X177777725Y-121654074D01*
X177777115Y-121827066D01*
X177913714Y-121924759D01*
X178178742Y-121940442D01*
X178563418Y-121867402D01*
X178815157Y-121786971D01*
X179132690Y-121660943D01*
X179430685Y-121521449D01*
X179662766Y-121390456D01*
X179782557Y-121289931D01*
X179865310Y-121234951D01*
X180023973Y-121207098D01*
X180175500Y-121221419D01*
X180243078Y-121279633D01*
X180230844Y-121309478D01*
X180112560Y-121420916D01*
X179903212Y-121566152D01*
X179645611Y-121719037D01*
X179382568Y-121853418D01*
X179156894Y-121943144D01*
X178973920Y-121991673D01*
X178658117Y-122062112D01*
X178321368Y-122126683D01*
X178055868Y-122185695D01*
X177729642Y-122288796D01*
X177488992Y-122399183D01*
X177370735Y-122483146D01*
X177149268Y-122666064D01*
X176884517Y-122902767D01*
X176604680Y-123165974D01*
X176337948Y-123428406D01*
X176112519Y-123662781D01*
X175956585Y-123841822D01*
X175898342Y-123938246D01*
X175963963Y-124024592D01*
X176125688Y-124122342D01*
X176162704Y-124136559D01*
X176387088Y-124187876D01*
X176706874Y-124231194D01*
X177065655Y-124258350D01*
X177398338Y-124264256D01*
X178285648Y-124198257D01*
X179250020Y-124014379D01*
X180302615Y-123710142D01*
X181454592Y-123283067D01*
X181510213Y-123260553D01*
X181889844Y-123110397D01*
X182213478Y-122988210D01*
X182448341Y-122906044D01*
X182561664Y-122875948D01*
X182621674Y-122880482D01*
X182674903Y-122932242D01*
X182588308Y-123034068D01*
X182372559Y-123176309D01*
X182038325Y-123349316D01*
X181942084Y-123395629D01*
X181662552Y-123537672D01*
X181457207Y-123653356D01*
X181364973Y-123721184D01*
X181356331Y-123740975D01*
X181411343Y-123792001D01*
X181594989Y-123796843D01*
X181883237Y-123761059D01*
X182252052Y-123690209D01*
X182677401Y-123589852D01*
X183135250Y-123465546D01*
X183601567Y-123322850D01*
X184052317Y-123167322D01*
X184463467Y-123004522D01*
X184775703Y-122872351D01*
X185224195Y-122687718D01*
X185641378Y-122521288D01*
X185966434Y-122397621D01*
X186482429Y-122187793D01*
X187304820Y-121773409D01*
X188095313Y-121285124D01*
X188786335Y-120762130D01*
X188825388Y-120728518D01*
X189049221Y-120521505D01*
X189207033Y-120351154D01*
X189266763Y-120251541D01*
X189268570Y-120236628D01*
X189317858Y-120090854D01*
X189420867Y-119849659D01*
X189559197Y-119556751D01*
X189601638Y-119469118D01*
X189770365Y-119058352D01*
X189837914Y-118724891D01*
X189808115Y-118424733D01*
X189684799Y-118113877D01*
X189612928Y-117964594D01*
X189472869Y-117644939D01*
X189343089Y-117319458D01*
X189337077Y-117303646D01*
X189156153Y-116952525D01*
X188866470Y-116566077D01*
X188455393Y-116129381D01*
X187910286Y-115627518D01*
X187604497Y-115407129D01*
X187195284Y-115179155D01*
X186757030Y-114983122D01*
X186357788Y-114852983D01*
X186204641Y-114831950D01*
X186047950Y-114885919D01*
X186017786Y-115042841D01*
X186119200Y-115293396D01*
X186125956Y-115305276D01*
X186220054Y-115498006D01*
X186258868Y-115629932D01*
X186267799Y-115669145D01*
X186345557Y-115829228D01*
X186477254Y-116038242D01*
X186486358Y-116051473D01*
X186615923Y-116283010D01*
X186681790Y-116534357D01*
X186703559Y-116878259D01*
X186691121Y-117226057D01*
X186621410Y-117635242D01*
X186499287Y-117942847D01*
X186334002Y-118117848D01*
X186250813Y-118156165D01*
X186117879Y-118158839D01*
X186069412Y-118030047D01*
X186099014Y-117760043D01*
X186153350Y-117339144D01*
X186149537Y-116764728D01*
X186063640Y-116222101D01*
X185903091Y-115752680D01*
X185675317Y-115397882D01*
X185657485Y-115377632D01*
X185508935Y-115176890D01*
X185362401Y-114938343D01*
X185340738Y-114901153D01*
X185167600Y-114683414D01*
X184979008Y-114537171D01*
X184787396Y-114460935D01*
X184484963Y-114375322D01*
X184168443Y-114311898D01*
X183895106Y-114281670D01*
X183722222Y-114295643D01*
X183663197Y-114326374D01*
X183636223Y-114395319D01*
X183678151Y-114531010D01*
X183795036Y-114773152D01*
X183795779Y-114774619D01*
X183890799Y-114980437D01*
X183954238Y-115179663D01*
X183993299Y-115415715D01*
X184015184Y-115732011D01*
X184027096Y-116171972D01*
X184031757Y-116578862D01*
X184026079Y-116870257D01*
X184006472Y-117048309D01*
X183969804Y-117140495D01*
X183912948Y-117174290D01*
X183862097Y-117167463D01*
X183812976Y-117096795D01*
X183771340Y-116934331D01*
X183731168Y-116655079D01*
X183686441Y-116234049D01*
X183646169Y-115881450D01*
X183591574Y-115516380D01*
X183535076Y-115234089D01*
X183484006Y-115076498D01*
X183369790Y-114878901D01*
X183141616Y-114534341D01*
X182921770Y-114308846D01*
X182671289Y-114178152D01*
X182351204Y-114117990D01*
X181922551Y-114104096D01*
X181589390Y-114111815D01*
X181341671Y-114146081D01*
X181222474Y-114221259D01*
X181211417Y-114351734D01*
X181288120Y-114551891D01*
X181320263Y-114616335D01*
X181424623Y-114786529D01*
X181499964Y-114854790D01*
X181501970Y-114854910D01*
X181559645Y-114939428D01*
X181623125Y-115161827D01*
X181687040Y-115494328D01*
X181746014Y-115909153D01*
X181794676Y-116378521D01*
X181797573Y-116412673D01*
X181819245Y-116732743D01*
X181814968Y-116926262D01*
X181780440Y-117029356D01*
X181711359Y-117078152D01*
X181632983Y-117098671D01*
X181524779Y-117083421D01*
X181505344Y-117029897D01*
X181465275Y-116837780D01*
X181416643Y-116543160D01*
X181366027Y-116183346D01*
X181300827Y-115747009D01*
X181227233Y-115420578D01*
X181131731Y-115161712D01*
X180999802Y-114920341D01*
X180891405Y-114739780D01*
X180785397Y-114545626D01*
X180744394Y-114444425D01*
X180709162Y-114371105D01*
X180591598Y-114241095D01*
X180564700Y-114218819D01*
X180407540Y-114143285D01*
X180181353Y-114112461D01*
X179868276Y-114128088D01*
X179450447Y-114191903D01*
X178910001Y-114305645D01*
X178229077Y-114471053D01*
X177758699Y-114590525D01*
X177307736Y-114707570D01*
X176963329Y-114803044D01*
X176695004Y-114887600D01*
X176472285Y-114971894D01*
X176264697Y-115066580D01*
X176041765Y-115182314D01*
X175773013Y-115329750D01*
X175728326Y-115354325D01*
X175203375Y-115620283D01*
X174692840Y-115828886D01*
X174160489Y-115989379D01*
X173570094Y-116111007D01*
X172885425Y-116203016D01*
X172070251Y-116274652D01*
X171578965Y-116316834D01*
X171018290Y-116390135D01*
X170619147Y-116479554D01*
X170378652Y-116585798D01*
X170293923Y-116709573D01*
X170286982Y-116783045D01*
X170258056Y-116974599D01*
X170257068Y-117156677D01*
X169643150Y-117156677D01*
X169642148Y-117153338D01*
X169658817Y-116805189D01*
X169799969Y-116501811D01*
X169964355Y-116374110D01*
X170260436Y-116242034D01*
X170632926Y-116130471D01*
X171034652Y-116053331D01*
X171418442Y-116024527D01*
X171610561Y-116012072D01*
X171870712Y-115957424D01*
X172063249Y-115874576D01*
X172138473Y-115780380D01*
X172129554Y-115738640D01*
X172024820Y-115565408D01*
X171821529Y-115321785D01*
X171543916Y-115031327D01*
X171216219Y-114717586D01*
X170862674Y-114404116D01*
X170528511Y-114131592D01*
X176095234Y-114131592D01*
X176182770Y-114311205D01*
X176186888Y-114317454D01*
X176264735Y-114415364D01*
X176361529Y-114478165D01*
X176501070Y-114504710D01*
X176707157Y-114493851D01*
X177003589Y-114444441D01*
X177414165Y-114355332D01*
X177962684Y-114225375D01*
X178509469Y-114095512D01*
X179079266Y-113969436D01*
X179562861Y-113879844D01*
X180002007Y-113822965D01*
X180438457Y-113795025D01*
X180913964Y-113792252D01*
X181470281Y-113810875D01*
X182149161Y-113847119D01*
X182647850Y-113879549D01*
X183771541Y-113984072D01*
X184767699Y-114127746D01*
X185662264Y-114315642D01*
X186481177Y-114552832D01*
X187250379Y-114844386D01*
X187445307Y-114925658D01*
X187766986Y-115044767D01*
X187986822Y-115094325D01*
X188136428Y-115079431D01*
X188247421Y-115005185D01*
X188309855Y-114924010D01*
X188352132Y-114693256D01*
X188247844Y-114426910D01*
X188002612Y-114144720D01*
X187868938Y-114031908D01*
X187443338Y-113753068D01*
X186916458Y-113512807D01*
X186272043Y-113305559D01*
X185493834Y-113125756D01*
X184565576Y-112967831D01*
X184259987Y-112922468D01*
X183836870Y-112858858D01*
X183468107Y-112802554D01*
X183209197Y-112761977D01*
X183088146Y-112746042D01*
X182712814Y-112717773D01*
X182232180Y-112700319D01*
X181688880Y-112693564D01*
X181125552Y-112697396D01*
X180584832Y-112711699D01*
X180109356Y-112736361D01*
X179741763Y-112771265D01*
X179604491Y-112788903D01*
X179185530Y-112837974D01*
X178710775Y-112888703D01*
X178258796Y-112932546D01*
X178032983Y-112954908D01*
X177637950Y-113002384D01*
X177299221Y-113053042D01*
X177071970Y-113099137D01*
X176699052Y-113258451D01*
X176366228Y-113524482D01*
X176149905Y-113849974D01*
X176109969Y-113957345D01*
X176095234Y-114131592D01*
X170528511Y-114131592D01*
X170507518Y-114114471D01*
X170174986Y-113872205D01*
X169926927Y-113698361D01*
X169477892Y-113358309D01*
X169036835Y-112998007D01*
X168671039Y-112671187D01*
X168321533Y-112358255D01*
X167891485Y-112024401D01*
X167379380Y-111676885D01*
X166749328Y-111289908D01*
X166374547Y-111068553D01*
X165932972Y-110811510D01*
X165575413Y-110610666D01*
X165267216Y-110447936D01*
X164973724Y-110305232D01*
X164660285Y-110164470D01*
X164292244Y-110007562D01*
X164254053Y-109991513D01*
X163899004Y-109841680D01*
X163601877Y-109712200D01*
X163341165Y-109589967D01*
X163095362Y-109461875D01*
X162842959Y-109314818D01*
X162562451Y-109135692D01*
X162232329Y-108911389D01*
X161831087Y-108628805D01*
X161337217Y-108274833D01*
X160729213Y-107836369D01*
X160491847Y-107663983D01*
X160056164Y-107341581D01*
X159672480Y-107049963D01*
X159361898Y-106805563D01*
X159145520Y-106624817D01*
X159044447Y-106524161D01*
X158997949Y-106465947D01*
X158811163Y-106296772D01*
X158574904Y-106133396D01*
X158368437Y-105981575D01*
X158100581Y-105732264D01*
X157855991Y-105456986D01*
X157788131Y-105373580D01*
X157489811Y-105038649D01*
X157113022Y-104648533D01*
X156695413Y-104239468D01*
X156274634Y-103847688D01*
X155888335Y-103509426D01*
X155574164Y-103260918D01*
X155402262Y-103129466D01*
X155239968Y-102985148D01*
X155177289Y-102899570D01*
X155170395Y-102876327D01*
X155079545Y-102754548D01*
X154916932Y-102594086D01*
X154711395Y-102383496D01*
X154382651Y-101930995D01*
X154090342Y-101392411D01*
X153860351Y-100818191D01*
X153718565Y-100258778D01*
X153703459Y-100183105D01*
X153625000Y-99947624D01*
X153528539Y-99799238D01*
X153508422Y-99781896D01*
X153309567Y-99494806D01*
X153212457Y-99079587D01*
X153216420Y-98533512D01*
X153217095Y-98525925D01*
X153276729Y-98030932D01*
X153365191Y-97648751D01*
X153499198Y-97326219D01*
X153695468Y-97010173D01*
X153808903Y-96820359D01*
X153878439Y-96577875D01*
X153831218Y-96424993D01*
X153690845Y-96378629D01*
X153480928Y-96455697D01*
X153225071Y-96673112D01*
X153061042Y-96821388D01*
X152789309Y-97013568D01*
X152462041Y-97209574D01*
X152107522Y-97396379D01*
X151754036Y-97560958D01*
X151429867Y-97690285D01*
X151163300Y-97771333D01*
X150982618Y-97791077D01*
X150916105Y-97736491D01*
X150927965Y-97713040D01*
X151048764Y-97614032D01*
X151272162Y-97474794D01*
X151563638Y-97317652D01*
X151570424Y-97314221D01*
X152090937Y-97036226D01*
X152481608Y-96788258D01*
X152770517Y-96546904D01*
X152985742Y-96288750D01*
X153155361Y-95990383D01*
X153254583Y-95798192D01*
X153425582Y-95565154D01*
X153598566Y-95487878D01*
X153795819Y-95561048D01*
X154039627Y-95779344D01*
X154147328Y-95898597D01*
X154305579Y-96098968D01*
X154387674Y-96239167D01*
X154393066Y-96254306D01*
X154526515Y-96401385D01*
X154736584Y-96438739D01*
X154968613Y-96355430D01*
X154991169Y-96339903D01*
X155221483Y-96104933D01*
X155429048Y-95775567D01*
X155579088Y-95417355D01*
X155636828Y-95095846D01*
X155642379Y-94949853D01*
X155687519Y-94793398D01*
X155794028Y-94732506D01*
X155833120Y-94726917D01*
X156092397Y-94782479D01*
X156343580Y-94986895D01*
X156566768Y-95324906D01*
X156566932Y-95325230D01*
X156708253Y-95569881D01*
X156820950Y-95659092D01*
X156929754Y-95595770D01*
X157059396Y-95382824D01*
X157124412Y-95237058D01*
X157138610Y-95070567D01*
X157067429Y-94855474D01*
X156937721Y-94626229D01*
X156645196Y-94278716D01*
X156249956Y-93916495D01*
X155783864Y-93563145D01*
X155278782Y-93242242D01*
X154766573Y-92977366D01*
X154279098Y-92792094D01*
X154180242Y-92758422D01*
X153996769Y-92664768D01*
X153924000Y-92576380D01*
X153929344Y-92537682D01*
X154026056Y-92448836D01*
X154251221Y-92420300D01*
X154614067Y-92451818D01*
X155123822Y-92543134D01*
X155199621Y-92558808D01*
X155577601Y-92636736D01*
X155820098Y-92683454D01*
X155951560Y-92700146D01*
X155996432Y-92687995D01*
X155979161Y-92648188D01*
X155924195Y-92581907D01*
X155731396Y-92421301D01*
X155387158Y-92231998D01*
X154925827Y-92035355D01*
X154372322Y-91840906D01*
X153751564Y-91658188D01*
X153088473Y-91496739D01*
X152702975Y-91418202D01*
X151936578Y-91295579D01*
X151124543Y-91211056D01*
X150243237Y-91163623D01*
X149269026Y-91152266D01*
X148178277Y-91175974D01*
X146947355Y-91233734D01*
X146267541Y-91273520D01*
X145618102Y-91315543D01*
X145102079Y-91355661D01*
X144701446Y-91396588D01*
X144398179Y-91441044D01*
X144174251Y-91491745D01*
X144011640Y-91551409D01*
X143892318Y-91622754D01*
X143798262Y-91708496D01*
X143707687Y-91775109D01*
X143648746Y-91818457D01*
X143445286Y-91877816D01*
X143303559Y-91901803D01*
X143048449Y-91981684D01*
X142759232Y-92098203D01*
X142604623Y-92164166D01*
X142150895Y-92335791D01*
X141592055Y-92525602D01*
X140968538Y-92721174D01*
X140320782Y-92910081D01*
X139689222Y-93079898D01*
X139114296Y-93218201D01*
X138841219Y-93292766D01*
X138673511Y-93368975D01*
X138645591Y-93426700D01*
X138762867Y-93452143D01*
X139030743Y-93431502D01*
X139220343Y-93411553D01*
X139554245Y-93385209D01*
X139987943Y-93356185D01*
X140486535Y-93326804D01*
X141015118Y-93299390D01*
X141450427Y-93277761D01*
X142029808Y-93247286D01*
X142581735Y-93216545D01*
X143059716Y-93188144D01*
X143417256Y-93164689D01*
X143504545Y-93158719D01*
X143909537Y-93141381D01*
X144151532Y-93152939D01*
X144231894Y-93193443D01*
X144214398Y-93252108D01*
X144142637Y-93305243D01*
X143997657Y-93348379D01*
X143760691Y-93384276D01*
X143412969Y-93415696D01*
X142935723Y-93445399D01*
X142310184Y-93476147D01*
X141269369Y-93530339D01*
X140381932Y-93591375D01*
X139658837Y-93658871D01*
X139098751Y-93733004D01*
X138700339Y-93813951D01*
X138462270Y-93901888D01*
X138383210Y-93996993D01*
X138398535Y-94018800D01*
X138480209Y-94045138D01*
X138644836Y-94066407D01*
X138906440Y-94083207D01*
X139279045Y-94096139D01*
X139776675Y-94105803D01*
X140413356Y-94112799D01*
X141203111Y-94117729D01*
X141897851Y-94122063D01*
X142684537Y-94130886D01*
X143326914Y-94143995D01*
X143837979Y-94162247D01*
X144230729Y-94186504D01*
X144518160Y-94217623D01*
X144713269Y-94256465D01*
X144829053Y-94303888D01*
X144878509Y-94360752D01*
X144879371Y-94363748D01*
X144840879Y-94411141D01*
X144687456Y-94445732D01*
X144401743Y-94469905D01*
X143966380Y-94486043D01*
X143020381Y-94509724D01*
X143312815Y-94675684D01*
X143605250Y-94841644D01*
X143365325Y-94870207D01*
X143198900Y-94867501D01*
X142912146Y-94826825D01*
X142595770Y-94755406D01*
X142487955Y-94727007D01*
X142201582Y-94667302D01*
X142000026Y-94662920D01*
X141828097Y-94710641D01*
X141819278Y-94714373D01*
X141554433Y-94912982D01*
X141374134Y-95219165D01*
X141307552Y-95583980D01*
X141287327Y-95801448D01*
X141271525Y-95863741D01*
X141225378Y-96045650D01*
X141142302Y-96227834D01*
X141140425Y-96231951D01*
X141051688Y-96306106D01*
X141044605Y-96307362D01*
X140955185Y-96386199D01*
X140835330Y-96549992D01*
X140684029Y-96744614D01*
X140328955Y-97064956D01*
X139862824Y-97379081D01*
X139318600Y-97665796D01*
X138729248Y-97903910D01*
X138503963Y-97965859D01*
X137990060Y-98038539D01*
X137381259Y-98057668D01*
X136718753Y-98022795D01*
X136043736Y-97933465D01*
X136013447Y-97928162D01*
X135288994Y-97794811D01*
X134696053Y-97668182D01*
X134201312Y-97536919D01*
X133771458Y-97389667D01*
X133373181Y-97215069D01*
X132973169Y-97001770D01*
X132538109Y-96738414D01*
X132526918Y-96731366D01*
X132344631Y-96619977D01*
X133840101Y-96619977D01*
X133876288Y-96733061D01*
X133972956Y-96833016D01*
X134202550Y-96890974D01*
X134397032Y-96924878D01*
X134577747Y-97024421D01*
X134653909Y-97074777D01*
X134889971Y-97152862D01*
X135208238Y-97202939D01*
X135432443Y-97230725D01*
X135612353Y-97270992D01*
X135666573Y-97310640D01*
X135676518Y-97333882D01*
X135803149Y-97378767D01*
X136037572Y-97422188D01*
X136341486Y-97458958D01*
X136676592Y-97483892D01*
X137004592Y-97491804D01*
X137221590Y-97496180D01*
X137311228Y-97517813D01*
X137255250Y-97559943D01*
X137186869Y-97600626D01*
X137239045Y-97626618D01*
X137443243Y-97637075D01*
X137537011Y-97635651D01*
X137723998Y-97609174D01*
X137798342Y-97559395D01*
X137799096Y-97553140D01*
X137884962Y-97496211D01*
X138069888Y-97469139D01*
X138272307Y-97437081D01*
X138552436Y-97341126D01*
X138838179Y-97204016D01*
X139088315Y-97048690D01*
X139261628Y-96898087D01*
X139316900Y-96775147D01*
X139313348Y-96751736D01*
X139336820Y-96655992D01*
X139471381Y-96665045D01*
X139577573Y-96685048D01*
X139608319Y-96667838D01*
X139604161Y-96658971D01*
X139652128Y-96565819D01*
X139788048Y-96425481D01*
X140012486Y-96227834D01*
X139756910Y-96225193D01*
X139541785Y-96255725D01*
X139339147Y-96345225D01*
X139160366Y-96429068D01*
X138918364Y-96470554D01*
X138717003Y-96509255D01*
X138508539Y-96640316D01*
X138380306Y-96749987D01*
X138240000Y-96807422D01*
X138190723Y-96817410D01*
X138174328Y-96890974D01*
X138201209Y-97018147D01*
X138116695Y-97080704D01*
X137963350Y-97037380D01*
X137945306Y-97026555D01*
X137772316Y-96978591D01*
X137546368Y-97033001D01*
X137430235Y-97069682D01*
X137279426Y-97076096D01*
X137096399Y-97018282D01*
X136825909Y-96884884D01*
X136596486Y-96760683D01*
X136480680Y-96682999D01*
X136486519Y-96647790D01*
X136599232Y-96639037D01*
X136785507Y-96620443D01*
X136947566Y-96567956D01*
X136956761Y-96561637D01*
X136975302Y-96488254D01*
X136871598Y-96416303D01*
X136686308Y-96358807D01*
X136460091Y-96328791D01*
X136233605Y-96339276D01*
X136107231Y-96358862D01*
X135788691Y-96403141D01*
X135458868Y-96444136D01*
X135282142Y-96471755D01*
X134994788Y-96544884D01*
X134793678Y-96631375D01*
X134780573Y-96639815D01*
X134662552Y-96699098D01*
X134646488Y-96670759D01*
X134647587Y-96608856D01*
X134533742Y-96546682D01*
X134321201Y-96519959D01*
X134048988Y-96537398D01*
X133916990Y-96562789D01*
X133840101Y-96619977D01*
X132344631Y-96619977D01*
X132267337Y-96572745D01*
X132047123Y-96456671D01*
X131825343Y-96369730D01*
X131561064Y-96298509D01*
X131213354Y-96229592D01*
X130741280Y-96149567D01*
X130621655Y-96129476D01*
X130185690Y-96049099D01*
X129801148Y-95967651D01*
X129505992Y-95893629D01*
X129338184Y-95835530D01*
X129128556Y-95669114D01*
X128990955Y-95373701D01*
X128986370Y-94984495D01*
X128991868Y-94941728D01*
X128993169Y-94892713D01*
X129547812Y-94892713D01*
X129555388Y-95135034D01*
X129618816Y-95377983D01*
X129719995Y-95538272D01*
X129818310Y-95589347D01*
X130039457Y-95673113D01*
X130320381Y-95761661D01*
X130419779Y-95787382D01*
X130779867Y-95856478D01*
X131208271Y-95914432D01*
X131632475Y-95950790D01*
X132443252Y-95995769D01*
X132393780Y-95378076D01*
X132390073Y-95332848D01*
X132362942Y-95053582D01*
X132829797Y-95053582D01*
X132841589Y-95279963D01*
X132910683Y-95558016D01*
X133016455Y-95818652D01*
X133138282Y-95992783D01*
X133142997Y-95995769D01*
X133249405Y-96063160D01*
X133418578Y-96107917D01*
X133679104Y-96128815D01*
X134068618Y-96131465D01*
X134511495Y-96116545D01*
X134958155Y-96069431D01*
X135263954Y-95992835D01*
X135416718Y-95888947D01*
X135425317Y-95863741D01*
X135422001Y-95703324D01*
X135376737Y-95475858D01*
X135374550Y-95467699D01*
X135338358Y-95334662D01*
X135294962Y-95239026D01*
X135217966Y-95170799D01*
X135080975Y-95119989D01*
X134857593Y-95076604D01*
X134521425Y-95030653D01*
X134046076Y-94972143D01*
X134000925Y-94966615D01*
X133542820Y-94915428D01*
X133222665Y-94892697D01*
X133015700Y-94899019D01*
X132897163Y-94934994D01*
X132842290Y-95001218D01*
X132829797Y-95053582D01*
X132362942Y-95053582D01*
X132361272Y-95036391D01*
X132332418Y-94817489D01*
X132309243Y-94720723D01*
X132270144Y-94711933D01*
X132089429Y-94698424D01*
X131788723Y-94686553D01*
X131397048Y-94677357D01*
X130943426Y-94671874D01*
X130753147Y-94670686D01*
X130303808Y-94670215D01*
X129988079Y-94676233D01*
X129781069Y-94691372D01*
X129657885Y-94718266D01*
X129593635Y-94759548D01*
X129563427Y-94817851D01*
X129547812Y-94892713D01*
X128993169Y-94892713D01*
X128997616Y-94725106D01*
X128965565Y-94593277D01*
X128926339Y-94558264D01*
X128751014Y-94449379D01*
X128485398Y-94309079D01*
X128173293Y-94158134D01*
X127858498Y-94017310D01*
X127584813Y-93907375D01*
X127396039Y-93849097D01*
X127240989Y-93828595D01*
X126937224Y-93799918D01*
X126521818Y-93766566D01*
X126023701Y-93730361D01*
X125471802Y-93693126D01*
X124895051Y-93656683D01*
X124322378Y-93622855D01*
X123782713Y-93593465D01*
X123304985Y-93570336D01*
X122918124Y-93555289D01*
X122651059Y-93550148D01*
X122497886Y-93551159D01*
X122160104Y-93566900D01*
X121965064Y-93615476D01*
X121894847Y-93714524D01*
X121931531Y-93881681D01*
X122057195Y-94134583D01*
X122169742Y-94321860D01*
X122344799Y-94559836D01*
X122494714Y-94708093D01*
X122515078Y-94722099D01*
X122762427Y-94909199D01*
X123004349Y-95117676D01*
X123209043Y-95316773D01*
X123344704Y-95475736D01*
X123379533Y-95563807D01*
X123378899Y-95564825D01*
X123243625Y-95633643D01*
X123009933Y-95573374D01*
X122683630Y-95385506D01*
X122542080Y-95296691D01*
X122314606Y-95181464D01*
X122157285Y-95136369D01*
X122061331Y-95156114D01*
X121850743Y-95284517D01*
X121643281Y-95489999D01*
X121485018Y-95722667D01*
X121422026Y-95932627D01*
X121394017Y-96174937D01*
X121323850Y-96440413D01*
X121317492Y-96458333D01*
X121272768Y-96654700D01*
X121289606Y-96864453D01*
X121372712Y-97156542D01*
X121405329Y-97268872D01*
X121478994Y-97607955D01*
X121545695Y-98018997D01*
X121594135Y-98436698D01*
X121613799Y-98633931D01*
X121665743Y-99038948D01*
X121725686Y-99396962D01*
X121784232Y-99648096D01*
X121841462Y-99866832D01*
X121853478Y-100100941D01*
X121792603Y-100358294D01*
X121785029Y-100382470D01*
X121713344Y-100652444D01*
X121633443Y-101008452D01*
X121554822Y-101400803D01*
X121486983Y-101779805D01*
X121439422Y-102095765D01*
X121421638Y-102298993D01*
X121414285Y-102341510D01*
X121307409Y-102533915D01*
X121078147Y-102819662D01*
X120732717Y-103190702D01*
X120478265Y-103452458D01*
X120210893Y-103730265D01*
X119998521Y-103953916D01*
X119872223Y-104090906D01*
X119731895Y-104232504D01*
X119503765Y-104440652D01*
X119245589Y-104661369D01*
X119011694Y-104861138D01*
X118705939Y-105137321D01*
X118455918Y-105378778D01*
X118326307Y-105505297D01*
X118061583Y-105739505D01*
X117829263Y-105918536D01*
X117627546Y-106065798D01*
X117314724Y-106311022D01*
X116941394Y-106614744D01*
X116541128Y-106948904D01*
X116147498Y-107285438D01*
X115794079Y-107596286D01*
X115514442Y-107853385D01*
X115120015Y-108311859D01*
X114771167Y-108892334D01*
X114758713Y-108917303D01*
X114557609Y-109278749D01*
X114328268Y-109633750D01*
X114117920Y-109908817D01*
X113968674Y-110082426D01*
X113728524Y-110373919D01*
X113534839Y-110622556D01*
X113511664Y-110653281D01*
X113322380Y-110886467D01*
X113072816Y-111174971D01*
X112810569Y-111463528D01*
X112640243Y-111653009D01*
X112477989Y-111856461D01*
X112321018Y-112086188D01*
X112154473Y-112367374D01*
X111963494Y-112725202D01*
X111733224Y-113184854D01*
X111448803Y-113771513D01*
X111367169Y-113959961D01*
X111249591Y-114302994D01*
X111157516Y-114656642D01*
X111099537Y-114979246D01*
X111093781Y-115073302D01*
X111084243Y-115229152D01*
X111120227Y-115364702D01*
X111142742Y-115383402D01*
X111344380Y-115461046D01*
X111670700Y-115513506D01*
X112088040Y-115541210D01*
X112562737Y-115544586D01*
X113061127Y-115524064D01*
X113549547Y-115480073D01*
X113994336Y-115413041D01*
X114361828Y-115323397D01*
X114792744Y-115221672D01*
X115283998Y-115206615D01*
X115799907Y-115308502D01*
X116383170Y-115531734D01*
X116715975Y-115732373D01*
X116926025Y-115998404D01*
X116978644Y-116256178D01*
X116993736Y-116330113D01*
X116970908Y-116594119D01*
X116835637Y-116948426D01*
X116558767Y-117282196D01*
X116434078Y-117393498D01*
X115881988Y-117749185D01*
X115198431Y-118007841D01*
X114388011Y-118168062D01*
X113455331Y-118228445D01*
X113085140Y-118229644D01*
X112626962Y-118225127D01*
X112219705Y-118215000D01*
X111921444Y-118200328D01*
X111675506Y-118188866D01*
X111454073Y-118193852D01*
X111347844Y-118216911D01*
X111346012Y-118285606D01*
X111403041Y-118466991D01*
X111511420Y-118710310D01*
X111603718Y-118905131D01*
X111694713Y-119124762D01*
X111729921Y-119250745D01*
X111733566Y-119284536D01*
X111800184Y-119380557D01*
X111859486Y-119430892D01*
X111996122Y-119584514D01*
X112167267Y-119800018D01*
X112285992Y-119948588D01*
X112538342Y-120232393D01*
X112772573Y-120462483D01*
X113017304Y-120679854D01*
X113325689Y-120969216D01*
X113532939Y-121195140D01*
X113657784Y-121382505D01*
X113718956Y-121556189D01*
X113735184Y-121741071D01*
X113683712Y-121969055D01*
X113493632Y-122222305D01*
X113191506Y-122432892D01*
X112806983Y-122589386D01*
X112369709Y-122680356D01*
X111909334Y-122694370D01*
X111455505Y-122619999D01*
X111370945Y-122598199D01*
X111080388Y-122570742D01*
X110857216Y-122662328D01*
X110645115Y-122891847D01*
X110601168Y-122951887D01*
X110506815Y-123109140D01*
X110505354Y-123232818D01*
X108151247Y-123232818D01*
X108073811Y-123222045D01*
X107579511Y-123150658D01*
X107019197Y-123075651D01*
X106485800Y-123009538D01*
X106048342Y-122961206D01*
X105818817Y-122937536D01*
X105387781Y-122889344D01*
X104996982Y-122841344D01*
X104709505Y-122801081D01*
X104281678Y-122711895D01*
X103640925Y-122522602D01*
X102942549Y-122266645D01*
X102223390Y-121960955D01*
X101520289Y-121622463D01*
X100870084Y-121268101D01*
X100309615Y-120914800D01*
X99875721Y-120579492D01*
X99557699Y-120286847D01*
X99043132Y-119762770D01*
X98651896Y-119281795D01*
X98366475Y-118823540D01*
X98232411Y-118573236D01*
X98051598Y-118246901D01*
X97901712Y-117988014D01*
X97830791Y-117858052D01*
X97728493Y-117548830D01*
X97703269Y-117242189D01*
X98291217Y-117242189D01*
X98370780Y-117717832D01*
X98586759Y-118236209D01*
X98942875Y-118818463D01*
X99039536Y-118965068D01*
X99152858Y-119159122D01*
X99197026Y-119268747D01*
X99201173Y-119280782D01*
X99287233Y-119390802D01*
X99467717Y-119584769D01*
X99720237Y-119839296D01*
X100022406Y-120130995D01*
X100062665Y-120169035D01*
X100430382Y-120505583D01*
X100750082Y-120768418D01*
X101071979Y-120992856D01*
X101446289Y-121214212D01*
X101923228Y-121467801D01*
X102441539Y-121724522D01*
X103447944Y-122155729D01*
X104384011Y-122463772D01*
X105234824Y-122643355D01*
X105313080Y-122653949D01*
X105679100Y-122686504D01*
X105912872Y-122675693D01*
X106006315Y-122625104D01*
X105951350Y-122538329D01*
X105739896Y-122418957D01*
X104904219Y-122014933D01*
X104037288Y-121543509D01*
X103306309Y-121082660D01*
X102720830Y-120638479D01*
X102290398Y-120217062D01*
X102137006Y-120031187D01*
X102005560Y-119855364D01*
X101954802Y-119763507D01*
X102026222Y-119719345D01*
X102199947Y-119700843D01*
X102223816Y-119701333D01*
X102393469Y-119743094D01*
X102570592Y-119871811D01*
X102795076Y-120115263D01*
X103089828Y-120420182D01*
X103615874Y-120848494D01*
X104267421Y-121283171D01*
X105021920Y-121711655D01*
X105856819Y-122121388D01*
X106749569Y-122499810D01*
X107677618Y-122834363D01*
X108276988Y-122998755D01*
X108940204Y-123083158D01*
X109520553Y-123034247D01*
X110027855Y-122852093D01*
X110240862Y-122708464D01*
X110345113Y-122531568D01*
X110282899Y-122351277D01*
X110277059Y-122344797D01*
X110152331Y-122253334D01*
X109913933Y-122107759D01*
X109593669Y-121926751D01*
X109223342Y-121728989D01*
X108863609Y-121536939D01*
X108382852Y-121268296D01*
X107924409Y-121000644D01*
X107552013Y-120770533D01*
X107369694Y-120653781D01*
X107039533Y-120447414D01*
X106755752Y-120276107D01*
X106564941Y-120168285D01*
X106518694Y-120142686D01*
X106366485Y-120024336D01*
X106322325Y-119925711D01*
X106343594Y-119891652D01*
X106484817Y-119852780D01*
X106715143Y-119900537D01*
X106998059Y-120029324D01*
X107104316Y-120089851D01*
X107471672Y-120306275D01*
X107849754Y-120537676D01*
X108186436Y-120751758D01*
X108429592Y-120916226D01*
X108573243Y-121010519D01*
X108902943Y-121199681D01*
X109319099Y-121418248D01*
X109779650Y-121645669D01*
X110242535Y-121861392D01*
X110665692Y-122044869D01*
X111007059Y-122175547D01*
X111439050Y-122295993D01*
X112168745Y-122374527D01*
X112196867Y-122374506D01*
X112502504Y-122366786D01*
X112700671Y-122333609D01*
X112846778Y-122258177D01*
X112996238Y-122123695D01*
X113062339Y-122052917D01*
X113187997Y-121850678D01*
X113205636Y-121640012D01*
X113108030Y-121399077D01*
X112887954Y-121106031D01*
X112538183Y-120739032D01*
X112147960Y-120343106D01*
X111825358Y-119981242D01*
X111566320Y-119637574D01*
X111336931Y-119266834D01*
X111103276Y-118823751D01*
X110927256Y-118489777D01*
X110774935Y-118256994D01*
X110625508Y-118105909D01*
X110449091Y-117998843D01*
X110336017Y-117939364D01*
X110206950Y-117835889D01*
X110219476Y-117752208D01*
X110248451Y-117733007D01*
X110397663Y-117708740D01*
X110668969Y-117722612D01*
X111082542Y-117775158D01*
X111105972Y-117778532D01*
X111502165Y-117824411D01*
X111999709Y-117866966D01*
X112537356Y-117901582D01*
X113053858Y-117923646D01*
X113070818Y-117924143D01*
X113550047Y-117935918D01*
X113905685Y-117935996D01*
X114179806Y-117920150D01*
X114414482Y-117884156D01*
X114651786Y-117823786D01*
X114933793Y-117734815D01*
X115003295Y-117711645D01*
X115496905Y-117519140D01*
X115864985Y-117309165D01*
X116144313Y-117056130D01*
X116371670Y-116734449D01*
X116497479Y-116484845D01*
X116532391Y-116256178D01*
X116432952Y-116057373D01*
X116189451Y-115840800D01*
X115861368Y-115642067D01*
X115424571Y-115513979D01*
X114919213Y-115506185D01*
X114318399Y-115615446D01*
X113736869Y-115722227D01*
X112986667Y-115781693D01*
X112162576Y-115782891D01*
X111306865Y-115728623D01*
X110461801Y-115621691D01*
X109669651Y-115464898D01*
X108972684Y-115261045D01*
X108495353Y-115092754D01*
X107686864Y-114818907D01*
X107009659Y-114606861D01*
X106449668Y-114452580D01*
X105992823Y-114352031D01*
X105625054Y-114301179D01*
X105407247Y-114283913D01*
X105164056Y-114274634D01*
X105014392Y-114296469D01*
X104913321Y-114358863D01*
X104815912Y-114471261D01*
X104800415Y-114491967D01*
X104665249Y-114792097D01*
X104582966Y-115231909D01*
X104565129Y-115421990D01*
X104561741Y-115679693D01*
X104604281Y-115873680D01*
X104701993Y-116068955D01*
X104802767Y-116249472D01*
X104866838Y-116421030D01*
X104829677Y-116504090D01*
X104690611Y-116525644D01*
X104563814Y-116489118D01*
X104429346Y-116350693D01*
X104270757Y-116081675D01*
X104038897Y-115637904D01*
X104213939Y-115071182D01*
X104271892Y-114879568D01*
X104344953Y-114575389D01*
X104333284Y-114390299D01*
X104216566Y-114299305D01*
X103974479Y-114277409D01*
X103586702Y-114299616D01*
X103149354Y-114341183D01*
X102812201Y-114397972D01*
X102599133Y-114474861D01*
X102487731Y-114580231D01*
X102455578Y-114722462D01*
X102436458Y-114865068D01*
X102372026Y-114980119D01*
X102332110Y-115020604D01*
X102291202Y-115196163D01*
X102326091Y-115433171D01*
X102431671Y-115672368D01*
X102488391Y-115757819D01*
X102658152Y-115993728D01*
X102849434Y-116242014D01*
X102983495Y-116418819D01*
X103101380Y-116625166D01*
X103097277Y-116740576D01*
X102973851Y-116776500D01*
X102852181Y-116736927D01*
X102647115Y-116581535D01*
X102422346Y-116342233D01*
X102211024Y-116055438D01*
X102046301Y-115757565D01*
X102026131Y-115712370D01*
X101919621Y-115454247D01*
X101881679Y-115278663D01*
X101908732Y-115125859D01*
X101997210Y-114936079D01*
X102002209Y-114926401D01*
X102075895Y-114762323D01*
X102053232Y-114685708D01*
X101919391Y-114640175D01*
X101825558Y-114636918D01*
X101584001Y-114669070D01*
X101258715Y-114735210D01*
X100894220Y-114824215D01*
X100535035Y-114924958D01*
X100225678Y-115026314D01*
X100010670Y-115117159D01*
X99953057Y-115152390D01*
X99786953Y-115361065D01*
X99760664Y-115651797D01*
X99875683Y-116014655D01*
X99954241Y-116171213D01*
X100282909Y-116706541D01*
X100684810Y-117231798D01*
X101106067Y-117674310D01*
X101233074Y-117792936D01*
X101378437Y-117950152D01*
X101418263Y-118047075D01*
X101369394Y-118111682D01*
X101329343Y-118137542D01*
X101231832Y-118180891D01*
X101131860Y-118163359D01*
X100987647Y-118069353D01*
X100757412Y-117883278D01*
X100705235Y-117839605D01*
X100425759Y-117579457D01*
X100173117Y-117287077D01*
X99915632Y-116922358D01*
X99621626Y-116445191D01*
X99440226Y-116154483D01*
X99231550Y-115891430D01*
X99052002Y-115782167D01*
X98883857Y-115825403D01*
X98709390Y-116019844D01*
X98510874Y-116364198D01*
X98344347Y-116788133D01*
X98291217Y-117242189D01*
X97703269Y-117242189D01*
X97696702Y-117162349D01*
X97708286Y-116883946D01*
X97759955Y-116636415D01*
X97869303Y-116384333D01*
X98053888Y-116087388D01*
X98331264Y-115705266D01*
X98420911Y-115582577D01*
X98535289Y-115383158D01*
X98572199Y-115192800D01*
X98554214Y-114933343D01*
X98535996Y-114744778D01*
X99065471Y-114744778D01*
X99126482Y-114864598D01*
X99186205Y-114898025D01*
X99323180Y-114931233D01*
X99510461Y-114906313D01*
X99799863Y-114819818D01*
X100440488Y-114618026D01*
X101492696Y-114340163D01*
X102518351Y-114144606D01*
X103583539Y-114017338D01*
X104265612Y-113976628D01*
X105143460Y-113990532D01*
X106015200Y-114087761D01*
X106914545Y-114274113D01*
X107875209Y-114555392D01*
X108930907Y-114937396D01*
X109216419Y-115046170D01*
X109552292Y-115160674D01*
X109792412Y-115217163D01*
X109970813Y-115222698D01*
X110121532Y-115184338D01*
X110191380Y-115154490D01*
X110289240Y-115073302D01*
X110265048Y-114956360D01*
X110118528Y-114764771D01*
X109885841Y-114535728D01*
X109485544Y-114264303D01*
X108969643Y-114028262D01*
X108321142Y-113820192D01*
X107523047Y-113632683D01*
X106926440Y-113519316D01*
X106167576Y-113407772D01*
X105439884Y-113346245D01*
X104705161Y-113334473D01*
X103925200Y-113372190D01*
X103061796Y-113459133D01*
X102076746Y-113595038D01*
X101536650Y-113677969D01*
X101000137Y-113764645D01*
X100584402Y-113838930D01*
X100264652Y-113906134D01*
X100016096Y-113971567D01*
X99813942Y-114040538D01*
X99633398Y-114118358D01*
X99491682Y-114197376D01*
X99271800Y-114376235D01*
X99121820Y-114570346D01*
X99065471Y-114744778D01*
X98535996Y-114744778D01*
X98534789Y-114732288D01*
X98551242Y-114555612D01*
X98640049Y-114410474D01*
X98828444Y-114226699D01*
X98917776Y-114152204D01*
X99237614Y-113948460D01*
X99564645Y-113808201D01*
X99734961Y-113748428D01*
X100120375Y-113561319D01*
X100499247Y-113319925D01*
X100820554Y-113058832D01*
X101033272Y-112812630D01*
X101116922Y-112701881D01*
X101315188Y-112481409D01*
X101580094Y-112212434D01*
X101877669Y-111930448D01*
X102214143Y-111627002D01*
X102541069Y-111344126D01*
X102879803Y-111066246D01*
X103271797Y-110759404D01*
X103758500Y-110389643D01*
X103837649Y-110329166D01*
X104105962Y-110115011D01*
X104335513Y-109920349D01*
X104348302Y-109909184D01*
X104557632Y-109754033D01*
X104851682Y-109565974D01*
X105171039Y-109383202D01*
X105226931Y-109353048D01*
X105516362Y-109191010D01*
X105749855Y-109051076D01*
X105881236Y-108960713D01*
X105995420Y-108877327D01*
X106215788Y-108734874D01*
X106482416Y-108573861D01*
X106858764Y-108353458D01*
X107484414Y-107984318D01*
X108039885Y-107653037D01*
X108506457Y-107370886D01*
X108865406Y-107149138D01*
X109098013Y-106999066D01*
X109165412Y-106954656D01*
X109433629Y-106786762D01*
X109836683Y-106542297D01*
X110367159Y-106225671D01*
X111017647Y-105841292D01*
X111780731Y-105393571D01*
X112649000Y-104886916D01*
X112821563Y-104785830D01*
X113141633Y-104595136D01*
X113405731Y-104433780D01*
X113569401Y-104328723D01*
X113669889Y-104263904D01*
X113862974Y-104152693D01*
X114136258Y-104007265D01*
X114507522Y-103818453D01*
X114994548Y-103577089D01*
X115615118Y-103274006D01*
X115910843Y-103128033D01*
X116514182Y-102810963D01*
X116962779Y-102542832D01*
X117259647Y-102321895D01*
X117292050Y-102295201D01*
X117482500Y-102166882D01*
X117719186Y-102033325D01*
X117838966Y-101968168D01*
X118131903Y-101791139D01*
X118417301Y-101600565D01*
X118635678Y-101469361D01*
X118971967Y-101299009D01*
X119374202Y-101115668D01*
X119795919Y-100941548D01*
X120062397Y-100836818D01*
X120533781Y-100643485D01*
X120875612Y-100486250D01*
X121107444Y-100352833D01*
X121248829Y-100230951D01*
X121319321Y-100108323D01*
X121338473Y-99972667D01*
X121308633Y-99765735D01*
X121216695Y-99540027D01*
X121213223Y-99534521D01*
X121145925Y-99342659D01*
X121090682Y-99028469D01*
X121055101Y-98634589D01*
X121055094Y-98634461D01*
X121011051Y-98196771D01*
X120933788Y-97749949D01*
X120838539Y-97382103D01*
X120752506Y-97088508D01*
X120699814Y-96741093D01*
X120714433Y-96381432D01*
X120719648Y-96337249D01*
X120786417Y-95996385D01*
X120909912Y-95715609D01*
X121118801Y-95445921D01*
X121441750Y-95138324D01*
X121834722Y-94792417D01*
X121540672Y-94215427D01*
X121514907Y-94165088D01*
X121361750Y-93884810D01*
X121239340Y-93717791D01*
X121115571Y-93629237D01*
X120958337Y-93584354D01*
X120812438Y-93547989D01*
X120686715Y-93472832D01*
X120721420Y-93394504D01*
X120918836Y-93327829D01*
X120997622Y-93309549D01*
X121211671Y-93204110D01*
X121312589Y-93014817D01*
X121316343Y-92900572D01*
X121772283Y-92900572D01*
X121798013Y-93256435D01*
X122215776Y-93275385D01*
X122243175Y-93276641D01*
X122481390Y-93287913D01*
X122847723Y-93305594D01*
X123309445Y-93328090D01*
X123833829Y-93353807D01*
X124388144Y-93381152D01*
X124457577Y-93384603D01*
X125027256Y-93413988D01*
X125576861Y-93444072D01*
X126069680Y-93472730D01*
X126469000Y-93497835D01*
X126738110Y-93517261D01*
X127055982Y-93534850D01*
X127290565Y-93520370D01*
X127395074Y-93466878D01*
X127421689Y-93401939D01*
X127394299Y-93323749D01*
X127274455Y-93255101D01*
X127043690Y-93189562D01*
X126683538Y-93120702D01*
X126175534Y-93042086D01*
X125999537Y-93016468D01*
X125071584Y-92881861D01*
X124293450Y-92770026D01*
X123651962Y-92679280D01*
X123133949Y-92607939D01*
X122726235Y-92554317D01*
X122415650Y-92516732D01*
X122189018Y-92493499D01*
X122033168Y-92482934D01*
X121934926Y-92483352D01*
X121881119Y-92493071D01*
X121830970Y-92523125D01*
X121773509Y-92651356D01*
X121772283Y-92900572D01*
X121316343Y-92900572D01*
X121322691Y-92707387D01*
X121312358Y-92588708D01*
X121270106Y-92420291D01*
X121161351Y-92326231D01*
X120938188Y-92249480D01*
X120757666Y-92203729D01*
X120411646Y-92135550D01*
X120060885Y-92083976D01*
X119817166Y-92050331D01*
X119545836Y-91999518D01*
X119374986Y-91951119D01*
X119335340Y-91921044D01*
X119425938Y-91909194D01*
X119667421Y-91927519D01*
X119912681Y-91948518D01*
X120311699Y-91970684D01*
X120695716Y-91981027D01*
X120799647Y-91981587D01*
X121068248Y-91973911D01*
X121239609Y-91937136D01*
X121315672Y-91887012D01*
X121958007Y-91887012D01*
X121962695Y-92041000D01*
X122015429Y-92082608D01*
X122230343Y-92157473D01*
X122605413Y-92238692D01*
X123142898Y-92326720D01*
X123845052Y-92422014D01*
X123908550Y-92430068D01*
X124355734Y-92489008D01*
X124766734Y-92546705D01*
X125098311Y-92596909D01*
X125307223Y-92633370D01*
X125315650Y-92635087D01*
X125535440Y-92673653D01*
X125873748Y-92726263D01*
X126285999Y-92786219D01*
X126727618Y-92846824D01*
X127156912Y-92905156D01*
X127570945Y-92967812D01*
X127856790Y-93024335D01*
X128035620Y-93082039D01*
X128128602Y-93148238D01*
X128156907Y-93230245D01*
X128141704Y-93335375D01*
X128127567Y-93401461D01*
X128127627Y-93401939D01*
X128140516Y-93504241D01*
X128244606Y-93572586D01*
X128476286Y-93639643D01*
X128487967Y-93642598D01*
X128717323Y-93713784D01*
X128815199Y-93787898D01*
X128814487Y-93889213D01*
X128808234Y-93979628D01*
X128893571Y-94060516D01*
X129111942Y-94134565D01*
X129603450Y-94253217D01*
X130377722Y-94381391D01*
X131083058Y-94424036D01*
X131695135Y-94380246D01*
X132189631Y-94249115D01*
X132509889Y-94151691D01*
X132799929Y-94162666D01*
X133060914Y-94302631D01*
X133106512Y-94335886D01*
X133351296Y-94476399D01*
X133626939Y-94595474D01*
X133933851Y-94672113D01*
X134379627Y-94731340D01*
X134883965Y-94761104D01*
X135390835Y-94758264D01*
X135844208Y-94719682D01*
X136020199Y-94693079D01*
X136539860Y-94591769D01*
X136983411Y-94471030D01*
X137328236Y-94339034D01*
X137551717Y-94203953D01*
X137631236Y-94073961D01*
X137618867Y-94024610D01*
X137542937Y-93986444D01*
X137368494Y-93981822D01*
X137062234Y-94006815D01*
X136746517Y-94027662D01*
X136394626Y-94005453D01*
X136047893Y-93918295D01*
X135847480Y-93849974D01*
X135706427Y-93784864D01*
X135683785Y-93728835D01*
X135755562Y-93660751D01*
X135870459Y-93597064D01*
X136063855Y-93548869D01*
X136075516Y-93548524D01*
X136261949Y-93505001D01*
X136486193Y-93410770D01*
X136515347Y-93396679D01*
X136805543Y-93312574D01*
X137129577Y-93287741D01*
X137156820Y-93288359D01*
X137451235Y-93265932D01*
X137872814Y-93199591D01*
X138393176Y-93095416D01*
X138983939Y-92959484D01*
X139616722Y-92797873D01*
X140263144Y-92616661D01*
X140439562Y-92564681D01*
X141059021Y-92378997D01*
X141617804Y-92206656D01*
X142095903Y-92054138D01*
X142473307Y-91927923D01*
X142730007Y-91834489D01*
X142845993Y-91780316D01*
X142851181Y-91775109D01*
X142823907Y-91703278D01*
X142678888Y-91621118D01*
X142547427Y-91587441D01*
X142210624Y-91565694D01*
X141765233Y-91586173D01*
X141243324Y-91643026D01*
X140676963Y-91730400D01*
X140098217Y-91842441D01*
X139539154Y-91973298D01*
X139031842Y-92117116D01*
X138608347Y-92268043D01*
X138300738Y-92420226D01*
X138277567Y-92434786D01*
X137884889Y-92654051D01*
X137588006Y-92757614D01*
X137369606Y-92751636D01*
X137341949Y-92742174D01*
X137259245Y-92671455D01*
X137303858Y-92533471D01*
X137351910Y-92420450D01*
X137357048Y-92327750D01*
X137356217Y-92326960D01*
X137241106Y-92289856D01*
X137002779Y-92252059D01*
X136684117Y-92217042D01*
X136328001Y-92188282D01*
X135977313Y-92169254D01*
X135674934Y-92163433D01*
X135463744Y-92174296D01*
X135206854Y-92213938D01*
X134831450Y-92303882D01*
X134611501Y-92413569D01*
X134539789Y-92545902D01*
X134499630Y-92649348D01*
X134378477Y-92766675D01*
X134317937Y-92825303D01*
X134005432Y-93026868D01*
X133579319Y-93241580D01*
X133478783Y-93286168D01*
X133119193Y-93432012D01*
X132737026Y-93570882D01*
X132376367Y-93688166D01*
X132081304Y-93769251D01*
X131895921Y-93799527D01*
X131729483Y-93753261D01*
X131469715Y-93625649D01*
X131159718Y-93441974D01*
X130839509Y-93227555D01*
X130549108Y-93007714D01*
X130328532Y-92807772D01*
X130319884Y-92798642D01*
X130260098Y-92728037D01*
X131243093Y-92728037D01*
X131261399Y-92807603D01*
X131418219Y-92884879D01*
X131612056Y-92974634D01*
X131782399Y-93084446D01*
X131799516Y-93098066D01*
X132024357Y-93177592D01*
X132330478Y-93174801D01*
X132659855Y-93089367D01*
X132663800Y-93087812D01*
X132925286Y-92985587D01*
X133201958Y-92878591D01*
X133493402Y-92766675D01*
X133243734Y-92660224D01*
X133042771Y-92605936D01*
X132734641Y-92567042D01*
X132374177Y-92548283D01*
X132005049Y-92549440D01*
X131670927Y-92570289D01*
X131415482Y-92610611D01*
X131282386Y-92670182D01*
X131243093Y-92728037D01*
X130260098Y-92728037D01*
X130177176Y-92630109D01*
X130142752Y-92519074D01*
X130200049Y-92414888D01*
X130209765Y-92402692D01*
X130250560Y-92273510D01*
X130153161Y-92161512D01*
X129907933Y-92060447D01*
X129505242Y-91964062D01*
X129253604Y-91913090D01*
X128994253Y-91858111D01*
X128837595Y-91821879D01*
X128776472Y-91787875D01*
X128629646Y-91637875D01*
X128600840Y-91596222D01*
X137395240Y-91596222D01*
X137408119Y-91838858D01*
X137472546Y-91968338D01*
X137500019Y-91982087D01*
X137673255Y-92022857D01*
X137900732Y-92042822D01*
X138109676Y-92038362D01*
X138227315Y-92005861D01*
X138249550Y-91992197D01*
X138409647Y-91936182D01*
X138688838Y-91859040D01*
X139054090Y-91768274D01*
X139472370Y-91671387D01*
X139910646Y-91575880D01*
X140335885Y-91489258D01*
X140715053Y-91419022D01*
X141015118Y-91372675D01*
X141187261Y-91350642D01*
X141579627Y-91298006D01*
X141853597Y-91251431D01*
X142044194Y-91199392D01*
X142186440Y-91130364D01*
X142315356Y-91032822D01*
X142465965Y-90895242D01*
X142635493Y-90712874D01*
X142841061Y-90424632D01*
X143001705Y-90125991D01*
X143094526Y-89861263D01*
X143096627Y-89674759D01*
X143058698Y-89604692D01*
X142961447Y-89531157D01*
X142777161Y-89471801D01*
X142466345Y-89410035D01*
X142304406Y-89389726D01*
X142148692Y-89422036D01*
X142027694Y-89549500D01*
X141940035Y-89719122D01*
X141892421Y-89928006D01*
X141862942Y-90034217D01*
X141732226Y-90246057D01*
X141524627Y-90486458D01*
X141274315Y-90713492D01*
X141012453Y-90866548D01*
X140684177Y-90965309D01*
X140279193Y-91025038D01*
X139986675Y-90992438D01*
X139942652Y-90975963D01*
X139823604Y-90898707D01*
X139763727Y-90759694D01*
X139735864Y-90506286D01*
X139730563Y-90349785D01*
X139781715Y-89962552D01*
X139948300Y-89660400D01*
X140249872Y-89401289D01*
X140372370Y-89319095D01*
X140549956Y-89199356D01*
X140636711Y-89140002D01*
X140660252Y-89107222D01*
X140591341Y-89048882D01*
X140394598Y-89000549D01*
X140095792Y-88967436D01*
X139720693Y-88954754D01*
X139011137Y-88953474D01*
X138417974Y-89568177D01*
X138271925Y-89724790D01*
X138004992Y-90037231D01*
X137784500Y-90327975D01*
X137647418Y-90549920D01*
X137611719Y-90628768D01*
X137502457Y-90947237D01*
X137428491Y-91284368D01*
X137395240Y-91596222D01*
X128600840Y-91596222D01*
X128477953Y-91418527D01*
X128256337Y-91131272D01*
X127872047Y-90805832D01*
X127412203Y-90538314D01*
X126927263Y-90357035D01*
X126467689Y-90290316D01*
X126400467Y-90292307D01*
X126048346Y-90336858D01*
X125576640Y-90435071D01*
X125013767Y-90580440D01*
X124388144Y-90766458D01*
X124281860Y-90800104D01*
X123889749Y-90930168D01*
X123653240Y-91027931D01*
X123568134Y-91104463D01*
X123630235Y-91170837D01*
X123835343Y-91238122D01*
X124179263Y-91317392D01*
X124615184Y-91418646D01*
X125124055Y-91549482D01*
X125665978Y-91698911D01*
X126216621Y-91859294D01*
X126751653Y-92022993D01*
X127246740Y-92182369D01*
X127677550Y-92329784D01*
X128019751Y-92457598D01*
X128249011Y-92558175D01*
X128340997Y-92623874D01*
X128344990Y-92655834D01*
X128299592Y-92696155D01*
X128171886Y-92701469D01*
X127949060Y-92669133D01*
X127618301Y-92596509D01*
X127166799Y-92480953D01*
X126581741Y-92319826D01*
X125850315Y-92110487D01*
X125618145Y-92043878D01*
X125037387Y-91882500D01*
X124480262Y-91734512D01*
X123980865Y-91608611D01*
X123573289Y-91513493D01*
X123291630Y-91457854D01*
X123035435Y-91418430D01*
X122783272Y-91390365D01*
X122612184Y-91397456D01*
X122473408Y-91443416D01*
X122318177Y-91531957D01*
X122093258Y-91702365D01*
X121958007Y-91887012D01*
X121315672Y-91887012D01*
X121367818Y-91852649D01*
X121506958Y-91701835D01*
X121573772Y-91621442D01*
X121700836Y-91452094D01*
X121752841Y-91355852D01*
X121751040Y-91346873D01*
X121663619Y-91269038D01*
X121484690Y-91174674D01*
X121371634Y-91122728D01*
X121324836Y-91084663D01*
X121385177Y-91063665D01*
X121572646Y-91053792D01*
X121907231Y-91049106D01*
X122259928Y-91037395D01*
X123013197Y-90942257D01*
X123636171Y-90751748D01*
X123709170Y-90721599D01*
X124024476Y-90605188D01*
X124380422Y-90489265D01*
X124727734Y-90388386D01*
X125017139Y-90317106D01*
X125199365Y-90289979D01*
X125290072Y-90280665D01*
X125531414Y-90225620D01*
X125808539Y-90137649D01*
X126044420Y-90039165D01*
X126179045Y-89938466D01*
X126206902Y-89824664D01*
X126205239Y-89793905D01*
X126852947Y-89793905D01*
X126863391Y-89878822D01*
X126915180Y-89951092D01*
X127037625Y-90024181D01*
X127260030Y-90115394D01*
X127611696Y-90242039D01*
X127829551Y-90342177D01*
X128141349Y-90531781D01*
X128433157Y-90751376D01*
X128607074Y-90894825D01*
X128820789Y-91039558D01*
X129006996Y-91105883D01*
X129220131Y-91119246D01*
X129525024Y-91095456D01*
X129720690Y-91044081D01*
X129787184Y-90977678D01*
X129712358Y-90908667D01*
X129484061Y-90849465D01*
X129140198Y-90736095D01*
X128803000Y-90507092D01*
X128568087Y-90211232D01*
X128528970Y-90115701D01*
X128460922Y-89843799D01*
X128423130Y-89540210D01*
X128416756Y-89392830D01*
X128429524Y-89183518D01*
X128494486Y-89048105D01*
X128632679Y-88924807D01*
X128647604Y-88913745D01*
X128841313Y-88811557D01*
X129105917Y-88749511D01*
X129489094Y-88715982D01*
X129626740Y-88708011D01*
X129912826Y-88678162D01*
X130066025Y-88632761D01*
X130111500Y-88565733D01*
X130092362Y-88485062D01*
X129962570Y-88399245D01*
X129700786Y-88381967D01*
X129296016Y-88431415D01*
X129046894Y-88487552D01*
X128641722Y-88620642D01*
X128217995Y-88798980D01*
X127805198Y-89006123D01*
X127432812Y-89225629D01*
X127130320Y-89441057D01*
X126927204Y-89635963D01*
X126852947Y-89793905D01*
X126205239Y-89793905D01*
X126184518Y-89410604D01*
X126215395Y-88839401D01*
X126301767Y-88254043D01*
X126434331Y-87714187D01*
X126603786Y-87279488D01*
X126801423Y-86972536D01*
X127079685Y-86650605D01*
X127400816Y-86349393D01*
X127730359Y-86098097D01*
X128033852Y-85925910D01*
X128276840Y-85862027D01*
X128338146Y-85841108D01*
X128506433Y-85739171D01*
X128718819Y-85580991D01*
X129091040Y-85293538D01*
X129557865Y-84955174D01*
X130066958Y-84603133D01*
X130583395Y-84260556D01*
X131072256Y-83950582D01*
X131498618Y-83696354D01*
X131827559Y-83521012D01*
X131880344Y-83496775D01*
X132117212Y-83397096D01*
X132447465Y-83266002D01*
X132839971Y-83115013D01*
X133263596Y-82955647D01*
X133687209Y-82799426D01*
X134079676Y-82657868D01*
X134409867Y-82542493D01*
X134646647Y-82464820D01*
X134758885Y-82436369D01*
X134773354Y-82431860D01*
X134798544Y-82332518D01*
X134775917Y-82142517D01*
X134715021Y-81914460D01*
X134625404Y-81700948D01*
X134608865Y-81669730D01*
X134462097Y-81377468D01*
X134333169Y-81099527D01*
X134309292Y-81049795D01*
X134172729Y-80819005D01*
X133974120Y-80526087D01*
X133747625Y-80222224D01*
X133678921Y-80133273D01*
X133455399Y-79827035D01*
X133268536Y-79547142D01*
X133153114Y-79344922D01*
X133043943Y-79151106D01*
X132857880Y-78873749D01*
X132645429Y-78592810D01*
X132496330Y-78393155D01*
X132191291Y-77879448D01*
X131897341Y-77232371D01*
X131606375Y-76435096D01*
X131476069Y-76089344D01*
X131295878Y-75675094D01*
X131110225Y-75297286D01*
X131081048Y-75241274D01*
X130897858Y-74849508D01*
X130712715Y-74398536D01*
X130561614Y-73975106D01*
X130502719Y-73788616D01*
X130416740Y-73486639D01*
X130379712Y-73278571D01*
X130385999Y-73121491D01*
X130429966Y-72972474D01*
X130433375Y-72962963D01*
X130471172Y-72764198D01*
X130503577Y-72406961D01*
X130530706Y-71889111D01*
X130552672Y-71208509D01*
X130569590Y-70363014D01*
X130570218Y-70323299D01*
X130583142Y-69700944D01*
X130600627Y-69121689D01*
X130621511Y-68610331D01*
X130644632Y-68191674D01*
X130657182Y-68035466D01*
X132518436Y-68035466D01*
X132549268Y-68423740D01*
X132564102Y-68495844D01*
X132593310Y-68723081D01*
X132585321Y-68865692D01*
X132569679Y-68977163D01*
X132554719Y-69222282D01*
X132542940Y-69561891D01*
X132536021Y-69958764D01*
X132535098Y-70241186D01*
X132546615Y-70657802D01*
X132581600Y-71004969D01*
X132647660Y-71345355D01*
X132752399Y-71741632D01*
X132801508Y-71922506D01*
X132893822Y-72313401D01*
X132959464Y-72662642D01*
X132986646Y-72911369D01*
X132996158Y-73062885D01*
X133026945Y-73246889D01*
X133087569Y-73470739D01*
X133186971Y-73762896D01*
X133334091Y-74151820D01*
X133537873Y-74665974D01*
X133568794Y-74745517D01*
X133689474Y-75090894D01*
X133787470Y-75417948D01*
X133834249Y-75565341D01*
X133971737Y-75893320D01*
X134136039Y-76202710D01*
X134170845Y-76262285D01*
X134325328Y-76567885D01*
X134491610Y-76946748D01*
X134639259Y-77330671D01*
X134682952Y-77452877D01*
X134818020Y-77812660D01*
X134945074Y-78128140D01*
X135041443Y-78342290D01*
X135064260Y-78388720D01*
X135175979Y-78637466D01*
X135314524Y-78968117D01*
X135455186Y-79322152D01*
X135528427Y-79505184D01*
X135703781Y-79865192D01*
X135893958Y-80112796D01*
X136132532Y-80284880D01*
X136453079Y-80418326D01*
X136586796Y-80455624D01*
X136873279Y-80500413D01*
X137158211Y-80511076D01*
X137387687Y-80487117D01*
X137507802Y-80428039D01*
X137518678Y-80397533D01*
X137525873Y-80227007D01*
X137498485Y-79989388D01*
X137492173Y-79950738D01*
X137462034Y-79672129D01*
X137438838Y-79308149D01*
X137427174Y-78927158D01*
X137427131Y-78923646D01*
X137371545Y-78050074D01*
X137234478Y-77158545D01*
X137029439Y-76337027D01*
X136977181Y-76137707D01*
X136891611Y-75664553D01*
X136813766Y-75038055D01*
X136744840Y-74266883D01*
X136709397Y-73826076D01*
X136666374Y-73344427D01*
X136624685Y-72928557D01*
X136587732Y-72612109D01*
X136558918Y-72428725D01*
X136541292Y-72300227D01*
X136527567Y-72002943D01*
X136529355Y-71625091D01*
X136547155Y-71218102D01*
X136552946Y-71127656D01*
X136574722Y-70754469D01*
X136582670Y-70466745D01*
X136573406Y-70214542D01*
X136543546Y-69947916D01*
X136489708Y-69616923D01*
X136408508Y-69171621D01*
X136342579Y-68741769D01*
X136326096Y-68389295D01*
X136361678Y-68085437D01*
X136374358Y-68019277D01*
X136431696Y-67372043D01*
X136395581Y-66603794D01*
X136267404Y-65729281D01*
X136048556Y-64763260D01*
X135976985Y-64438181D01*
X135903103Y-63934047D01*
X135874051Y-63475074D01*
X135864416Y-63123813D01*
X135835270Y-62657758D01*
X135793868Y-62246108D01*
X135768845Y-62001754D01*
X135759945Y-61640087D01*
X135792177Y-61384251D01*
X135817097Y-61153495D01*
X135748786Y-60845001D01*
X135591759Y-60569238D01*
X135373559Y-60370960D01*
X135121733Y-60294922D01*
X134861834Y-60355446D01*
X134547480Y-60519977D01*
X134229709Y-60754334D01*
X133954765Y-61024306D01*
X133768898Y-61295681D01*
X133716094Y-61401549D01*
X133558389Y-61692031D01*
X133414281Y-61927837D01*
X133376488Y-61991992D01*
X133279570Y-62224143D01*
X133170485Y-62577142D01*
X133046288Y-63062121D01*
X132904032Y-63690214D01*
X132740770Y-64472553D01*
X132718577Y-64586818D01*
X132632546Y-65159871D01*
X132586089Y-65719563D01*
X132581917Y-66216965D01*
X132622739Y-66603145D01*
X132632752Y-66661322D01*
X132642456Y-67041310D01*
X132582182Y-67511548D01*
X132578444Y-67531474D01*
X132518436Y-68035466D01*
X130657182Y-68035466D01*
X130668827Y-67890515D01*
X130692934Y-67731657D01*
X130695504Y-67722892D01*
X130755212Y-67425279D01*
X130779921Y-67118934D01*
X130780103Y-67102809D01*
X130804206Y-66851265D01*
X130860938Y-66513368D01*
X130938981Y-66157527D01*
X130993070Y-65909533D01*
X131069889Y-65474075D01*
X131140784Y-64986898D01*
X131195406Y-64514329D01*
X131235019Y-64136782D01*
X131284015Y-63730624D01*
X131331218Y-63394840D01*
X131370340Y-63177487D01*
X131405762Y-63013726D01*
X131470104Y-62682332D01*
X131529601Y-62341961D01*
X131529867Y-62340326D01*
X131596611Y-61992913D01*
X131692853Y-61569885D01*
X131807825Y-61111075D01*
X131930763Y-60656314D01*
X132050901Y-60245436D01*
X132157473Y-59918272D01*
X132239713Y-59714653D01*
X132240061Y-59713980D01*
X132330021Y-59495038D01*
X132367421Y-59315042D01*
X132369837Y-59289127D01*
X132419744Y-59105422D01*
X132524035Y-58811591D01*
X132669323Y-58440119D01*
X132842219Y-58023489D01*
X133029334Y-57594184D01*
X133217281Y-57184689D01*
X133392671Y-56827487D01*
X133402021Y-56809288D01*
X133571421Y-56475798D01*
X133730174Y-56157215D01*
X133845042Y-55920206D01*
X133887782Y-55836012D01*
X134096201Y-55512393D01*
X134360058Y-55187832D01*
X134635685Y-54912326D01*
X134879417Y-54735870D01*
X134951332Y-54703320D01*
X135310205Y-54624435D01*
X135702311Y-54635818D01*
X136041197Y-54737358D01*
X136052084Y-54743232D01*
X136253371Y-54929119D01*
X136456303Y-55244455D01*
X136644804Y-55654565D01*
X136802797Y-56124772D01*
X136914208Y-56620403D01*
X136995689Y-56844246D01*
X137192944Y-57149051D01*
X137514072Y-57539481D01*
X137583075Y-57618039D01*
X137875357Y-57963079D01*
X138074773Y-58231925D01*
X138201955Y-58460300D01*
X138277537Y-58683927D01*
X138322152Y-58938529D01*
X138374974Y-59165232D01*
X138490974Y-59491150D01*
X138639745Y-59815832D01*
X138645232Y-59826378D01*
X138813298Y-60178397D01*
X138992844Y-60597836D01*
X139145919Y-60996195D01*
X139176716Y-61080412D01*
X139310148Y-61401126D01*
X139442814Y-61662336D01*
X139550034Y-61814088D01*
X139664662Y-61940692D01*
X139720052Y-62047788D01*
X139722894Y-62060502D01*
X139791110Y-62184147D01*
X139931763Y-62393176D01*
X140120088Y-62650289D01*
X140344323Y-62974504D01*
X140579783Y-63366806D01*
X140759742Y-63720579D01*
X140893902Y-64013293D01*
X141024437Y-64278088D01*
X141118470Y-64447363D01*
X141123042Y-64454673D01*
X141203821Y-64634593D01*
X141299903Y-64915942D01*
X141391473Y-65241113D01*
X141500777Y-65599378D01*
X141669459Y-66041680D01*
X141849904Y-66432124D01*
X141894527Y-66518813D01*
X142060893Y-66896385D01*
X142165698Y-67270875D01*
X142234131Y-67727190D01*
X142242771Y-67800974D01*
X142299447Y-68189558D01*
X142368193Y-68551673D01*
X142436036Y-68817290D01*
X142479778Y-68979462D01*
X142548683Y-69307566D01*
X142618951Y-69709670D01*
X142680679Y-70132541D01*
X142722570Y-70460192D01*
X142755559Y-70776534D01*
X142761907Y-71015173D01*
X142739001Y-71225802D01*
X142684225Y-71458119D01*
X142594965Y-71761818D01*
X142482026Y-72197062D01*
X142400152Y-72720937D01*
X142363442Y-73329132D01*
X142362032Y-73382730D01*
X142352460Y-73703459D01*
X142335449Y-73949839D01*
X142299656Y-74159108D01*
X142233737Y-74368502D01*
X142126347Y-74615260D01*
X141966143Y-74936618D01*
X141741782Y-75369816D01*
X141713714Y-75433177D01*
X141631570Y-75732838D01*
X141557648Y-76175679D01*
X141493736Y-76743703D01*
X141441616Y-77418915D01*
X141403074Y-78183319D01*
X141379895Y-79018921D01*
X141359085Y-80227007D01*
X141352401Y-80615038D01*
X141559746Y-80721268D01*
X141631960Y-80752569D01*
X141883810Y-80828728D01*
X142172719Y-80886391D01*
X142578346Y-80945286D01*
X142423377Y-80738307D01*
X142257545Y-80557180D01*
X142038878Y-80376777D01*
X142023502Y-80366283D01*
X141871670Y-80244416D01*
X141809108Y-80159560D01*
X141850221Y-80107702D01*
X142022433Y-80104170D01*
X142314372Y-80168667D01*
X142710287Y-80295168D01*
X143194423Y-80477648D01*
X143751027Y-80710081D01*
X144364346Y-80986444D01*
X145018624Y-81300712D01*
X145698110Y-81646859D01*
X145704279Y-81650092D01*
X146119633Y-81859113D01*
X146456759Y-82011714D01*
X146693596Y-82098676D01*
X146808082Y-82110776D01*
X146820781Y-82098571D01*
X146855808Y-81997324D01*
X146881401Y-81790448D01*
X146898471Y-81462599D01*
X146907929Y-80998433D01*
X146910686Y-80382606D01*
X146911832Y-79731816D01*
X146918982Y-78762715D01*
X146932216Y-77856392D01*
X146951027Y-77030229D01*
X146974904Y-76301611D01*
X147003339Y-75687921D01*
X147035825Y-75206541D01*
X147071851Y-74874856D01*
X147158969Y-74287124D01*
X147253690Y-73624275D01*
X147323847Y-73097283D01*
X147355337Y-72827816D01*
X149479706Y-72827816D01*
X149481025Y-72921928D01*
X149502931Y-73436289D01*
X149546644Y-73845835D01*
X149609081Y-74119786D01*
X149676820Y-74391760D01*
X149659317Y-74633399D01*
X149627042Y-74758330D01*
X149640040Y-74866006D01*
X149653101Y-74922314D01*
X149670772Y-75123335D01*
X149687111Y-75441701D01*
X149700733Y-75848766D01*
X149710250Y-76315880D01*
X149717267Y-76641818D01*
X149735304Y-77101445D01*
X149760296Y-77495358D01*
X149789935Y-77789760D01*
X149821912Y-77950854D01*
X149854107Y-78063316D01*
X149896765Y-78340567D01*
X149913473Y-78649675D01*
X149951578Y-79054621D01*
X150095964Y-79437986D01*
X150180580Y-79573311D01*
X150341734Y-79729050D01*
X150514929Y-79741020D01*
X150719722Y-79606674D01*
X150975670Y-79323466D01*
X151082432Y-79190471D01*
X151416332Y-78771992D01*
X151665036Y-78454828D01*
X151845145Y-78217204D01*
X151973259Y-78037348D01*
X152065981Y-77893487D01*
X152174253Y-77725166D01*
X152352410Y-77463204D01*
X152550039Y-77183290D01*
X152713718Y-76930092D01*
X152888998Y-76598303D01*
X152999932Y-76314770D01*
X153031771Y-76212983D01*
X153172307Y-75868800D01*
X153338663Y-75557471D01*
X153393901Y-75462976D01*
X153550245Y-75121795D01*
X153656165Y-74785978D01*
X153795247Y-74089917D01*
X153891896Y-73441667D01*
X153924000Y-72940593D01*
X153924224Y-72918285D01*
X153950635Y-72615813D01*
X154012404Y-72237370D01*
X154097275Y-71859438D01*
X154176355Y-71502359D01*
X154237869Y-71071280D01*
X154279612Y-70551284D01*
X154305727Y-69903474D01*
X154305824Y-69899927D01*
X154323246Y-69432301D01*
X154350223Y-68912684D01*
X154384059Y-68377569D01*
X154422057Y-67863452D01*
X154461523Y-67406827D01*
X154499761Y-67044187D01*
X154534075Y-66812027D01*
X154534245Y-66804679D01*
X154515634Y-66681685D01*
X154470470Y-66447005D01*
X154406925Y-66143606D01*
X154405371Y-66136413D01*
X154210511Y-64890681D01*
X154163786Y-63661728D01*
X154266278Y-62477687D01*
X154279826Y-62391043D01*
X154330995Y-62111465D01*
X154396731Y-61881159D01*
X154495167Y-61673126D01*
X154644435Y-61460368D01*
X154862669Y-61215886D01*
X155168000Y-60912682D01*
X155578562Y-60523757D01*
X155743509Y-60365970D01*
X155968308Y-60139948D01*
X156122604Y-59970307D01*
X156179921Y-59885163D01*
X156173880Y-59851611D01*
X156068976Y-59775711D01*
X155866373Y-59760614D01*
X155608854Y-59800788D01*
X155339203Y-59890698D01*
X155100203Y-60024812D01*
X155086978Y-60034831D01*
X154891423Y-60226027D01*
X154717750Y-60457441D01*
X154649992Y-60561213D01*
X154460763Y-60820056D01*
X154252520Y-61077104D01*
X154153070Y-61195334D01*
X153932636Y-61473001D01*
X153755230Y-61715316D01*
X153707163Y-61785017D01*
X153580784Y-61959606D01*
X153506250Y-62049527D01*
X153462922Y-62105830D01*
X153354645Y-62274566D01*
X153215656Y-62507802D01*
X153076517Y-62730522D01*
X152844097Y-63065632D01*
X152607715Y-63375076D01*
X152418829Y-63619553D01*
X152258356Y-63851664D01*
X152171116Y-64008485D01*
X152123697Y-64111679D01*
X151999275Y-64340065D01*
X151843102Y-64598852D01*
X151739508Y-64776957D01*
X151627881Y-65016572D01*
X151584526Y-65181699D01*
X151582067Y-65209049D01*
X151541671Y-65390416D01*
X151459341Y-65685121D01*
X151344992Y-66058981D01*
X151208539Y-66477816D01*
X151163586Y-66612819D01*
X151033475Y-67015562D01*
X150928392Y-67358758D01*
X150858147Y-67609595D01*
X150832552Y-67735261D01*
X150826867Y-67772033D01*
X150766068Y-67951629D01*
X150652834Y-68219741D01*
X150504829Y-68533356D01*
X150318013Y-68923384D01*
X150092011Y-69457036D01*
X149958977Y-69875816D01*
X149914689Y-70191597D01*
X149911249Y-70243920D01*
X149870308Y-70478604D01*
X149792990Y-70799285D01*
X149691714Y-71152452D01*
X149627998Y-71365500D01*
X149547675Y-71690020D01*
X149501224Y-72002097D01*
X149481087Y-72361454D01*
X149479706Y-72827816D01*
X147355337Y-72827816D01*
X147371494Y-72689559D01*
X147398687Y-72384516D01*
X147407480Y-72165567D01*
X147407998Y-72134340D01*
X147434135Y-71847572D01*
X147491852Y-71481430D01*
X147570190Y-71107206D01*
X147591086Y-71016817D01*
X147654683Y-70686702D01*
X147688495Y-70414619D01*
X147685556Y-70252194D01*
X147677895Y-70184266D01*
X147686528Y-69951439D01*
X147720388Y-69620160D01*
X147772870Y-69233138D01*
X147837365Y-68833079D01*
X147907264Y-68462692D01*
X147975960Y-68164684D01*
X148036846Y-67981764D01*
X148080873Y-67874613D01*
X148163567Y-67612449D01*
X148237848Y-67313343D01*
X148280438Y-67138600D01*
X148377587Y-66828628D01*
X148477154Y-66594033D01*
X148552929Y-66450196D01*
X148693195Y-66176931D01*
X148868194Y-65831482D01*
X149056558Y-65455831D01*
X149225044Y-65128597D01*
X149397316Y-64815772D01*
X149537273Y-64584468D01*
X149624982Y-64469281D01*
X149643055Y-64452077D01*
X149760031Y-64302640D01*
X149921708Y-64060632D01*
X150098796Y-63769326D01*
X150523825Y-63061665D01*
X151095307Y-62185883D01*
X151649213Y-61422979D01*
X152169326Y-60796237D01*
X152369831Y-60568363D01*
X152663680Y-60215325D01*
X152921207Y-59884941D01*
X153103069Y-59626500D01*
X153165421Y-59539095D01*
X153361379Y-59301984D01*
X153641393Y-58988177D01*
X153981277Y-58622510D01*
X154356848Y-58229818D01*
X154743922Y-57834933D01*
X155118315Y-57462692D01*
X155455841Y-57137928D01*
X155732319Y-56885475D01*
X155923562Y-56730168D01*
X156039588Y-56607467D01*
X156195097Y-56371640D01*
X156342363Y-56085923D01*
X156416830Y-55923369D01*
X156557534Y-55659878D01*
X156700521Y-55492866D01*
X156887858Y-55381128D01*
X157161613Y-55283457D01*
X157512353Y-55230345D01*
X157937120Y-55268510D01*
X158340491Y-55393366D01*
X158654972Y-55591013D01*
X158767740Y-55708898D01*
X158827250Y-55834252D01*
X158839258Y-56015734D01*
X158816052Y-56308043D01*
X158795609Y-56538394D01*
X158771290Y-56904127D01*
X158760309Y-57203474D01*
X158760792Y-57289072D01*
X158785125Y-57691051D01*
X158839754Y-58169791D01*
X158917421Y-58684734D01*
X159010874Y-59195323D01*
X159112857Y-59661002D01*
X159173735Y-59885163D01*
X159216115Y-60041214D01*
X159313393Y-60295402D01*
X159330444Y-60330638D01*
X159422585Y-60588075D01*
X159488991Y-60873849D01*
X159512714Y-60978295D01*
X159630007Y-61281740D01*
X159793480Y-61563660D01*
X159838714Y-61628939D01*
X160012737Y-61983293D01*
X160106291Y-62420646D01*
X160143503Y-62630417D01*
X160256537Y-63033913D01*
X160400523Y-63388726D01*
X160631137Y-63843820D01*
X160565670Y-65014601D01*
X160547494Y-65425192D01*
X160531009Y-65999714D01*
X160519618Y-66642539D01*
X160514217Y-67301347D01*
X160515707Y-67923817D01*
X160517142Y-68365536D01*
X160510315Y-68964870D01*
X160493749Y-69480420D01*
X160468443Y-69884456D01*
X160435399Y-70149251D01*
X160426417Y-70196390D01*
X160381779Y-70638817D01*
X160428205Y-71049458D01*
X160453890Y-71184300D01*
X160470999Y-71507571D01*
X160403633Y-71831919D01*
X160403385Y-71832726D01*
X160289453Y-72157282D01*
X160141928Y-72516066D01*
X159988985Y-72844617D01*
X159858797Y-73078474D01*
X159843185Y-73104790D01*
X159756555Y-73287867D01*
X159635434Y-73576135D01*
X159495665Y-73928208D01*
X159353092Y-74302701D01*
X159223557Y-74658231D01*
X159122903Y-74953412D01*
X159066974Y-75146858D01*
X159058943Y-75179460D01*
X158959536Y-75438769D01*
X158816537Y-75695494D01*
X158755257Y-75794920D01*
X158607539Y-76089055D01*
X158484953Y-76398496D01*
X158379786Y-76663250D01*
X158211936Y-77014447D01*
X158027002Y-77350576D01*
X158023429Y-77356548D01*
X157848245Y-77652967D01*
X157693297Y-77921300D01*
X157591754Y-78104123D01*
X157443334Y-78382978D01*
X157135714Y-78936851D01*
X156849875Y-79406455D01*
X156553963Y-79839627D01*
X156216122Y-80284204D01*
X155804496Y-80788023D01*
X155792549Y-80802325D01*
X155391156Y-81293151D01*
X155079143Y-81701700D01*
X154830943Y-82065369D01*
X154620989Y-82421555D01*
X154423713Y-82807653D01*
X154289513Y-83099438D01*
X154120331Y-83507124D01*
X153986787Y-83875123D01*
X153909670Y-84149180D01*
X153814765Y-84621746D01*
X154610580Y-85429880D01*
X154691439Y-85512237D01*
X155045953Y-85883271D01*
X155306094Y-86180183D01*
X155496353Y-86435174D01*
X155641216Y-86680449D01*
X155765173Y-86948211D01*
X155847096Y-87125891D01*
X155973395Y-87365974D01*
X155992520Y-87403520D01*
X156065116Y-87646245D01*
X156095136Y-87924515D01*
X156096243Y-87977429D01*
X156126584Y-88268087D01*
X156185143Y-88507670D01*
X156199345Y-88565733D01*
X156224808Y-88669840D01*
X156260207Y-88960632D01*
G37*
G36*
X128631162Y-100159975D02*
G01*
X128961023Y-100317347D01*
X129385756Y-100595255D01*
X129471112Y-100655792D01*
X129808302Y-100875288D01*
X130140345Y-101049471D01*
X130523438Y-101205037D01*
X131013778Y-101368686D01*
X131357770Y-101469060D01*
X131851101Y-101593121D01*
X132321484Y-101691805D01*
X132701631Y-101749912D01*
X132737540Y-101753485D01*
X133224991Y-101777315D01*
X133827968Y-101772272D01*
X134501877Y-101741077D01*
X135202126Y-101686453D01*
X135884123Y-101611123D01*
X136503276Y-101517810D01*
X136917920Y-101434386D01*
X137466628Y-101305516D01*
X138057951Y-101152134D01*
X138640213Y-100988266D01*
X139161737Y-100827940D01*
X139570846Y-100685182D01*
X139573255Y-100684255D01*
X139847245Y-100599944D01*
X140005339Y-100595944D01*
X140035151Y-100667838D01*
X139924292Y-100811207D01*
X139783197Y-100908340D01*
X139478520Y-101050263D01*
X139063777Y-101203104D01*
X138569842Y-101357976D01*
X138027593Y-101505991D01*
X137467906Y-101638261D01*
X136921657Y-101745897D01*
X136419723Y-101820012D01*
X136220183Y-101843752D01*
X135815977Y-101895185D01*
X135458804Y-101944672D01*
X135208210Y-101984148D01*
X135153656Y-101992364D01*
X134888760Y-102016707D01*
X134512306Y-102037661D01*
X134066326Y-102053215D01*
X133592855Y-102061360D01*
X133177525Y-102060713D01*
X132609991Y-102038848D01*
X132101813Y-101983748D01*
X131600043Y-101886607D01*
X131051733Y-101738617D01*
X130403934Y-101530973D01*
X130050004Y-101409030D01*
X129697466Y-101273939D01*
X129412708Y-101140219D01*
X129143474Y-100982689D01*
X128837509Y-100776172D01*
X128735347Y-100703100D01*
X128440737Y-100462958D01*
X128299190Y-100285289D01*
X128309670Y-100168900D01*
X128401675Y-100125320D01*
X128631162Y-100159975D01*
G37*
G36*
X132952289Y-92755119D02*
G01*
X132910513Y-92796895D01*
X132868736Y-92755119D01*
X132910513Y-92713343D01*
X132952289Y-92755119D01*
G37*
G36*
X139017547Y-96715853D02*
G01*
X139006287Y-96813195D01*
X138941870Y-96858801D01*
X138775154Y-96888317D01*
X138679152Y-96884818D01*
X138643590Y-96855829D01*
X138750618Y-96765664D01*
X138779790Y-96745298D01*
X138924943Y-96690041D01*
X139017547Y-96715853D01*
G37*
G36*
X132450973Y-92713343D02*
G01*
X132444943Y-92757575D01*
X132395271Y-92769044D01*
X132385272Y-92756798D01*
X132395271Y-92657641D01*
X132420403Y-92644569D01*
X132450973Y-92713343D01*
G37*
G36*
X119897190Y-93491274D02*
G01*
X119920897Y-93499085D01*
X119902982Y-93520773D01*
X119750973Y-93529484D01*
X119694284Y-93528676D01*
X119578752Y-93515491D01*
X119604756Y-93491274D01*
X119685282Y-93478280D01*
X119897190Y-93491274D01*
G37*
G36*
X141558210Y-98130985D02*
G01*
X141557947Y-98133471D01*
X141481745Y-98209907D01*
X141296516Y-98335872D01*
X141040796Y-98488322D01*
X140753120Y-98644212D01*
X140472026Y-98780500D01*
X140193295Y-98899793D01*
X139372147Y-99189290D01*
X138463409Y-99420303D01*
X137429533Y-99602981D01*
X136857753Y-99668933D01*
X136173419Y-99711997D01*
X135481199Y-99723318D01*
X134824152Y-99703279D01*
X134245338Y-99652262D01*
X133787815Y-99570650D01*
X133079024Y-99367046D01*
X132368656Y-99095760D01*
X131663193Y-98746612D01*
X131491588Y-98650749D01*
X131212252Y-98474972D01*
X131074718Y-98346509D01*
X131069916Y-98254695D01*
X131188775Y-98188867D01*
X131236049Y-98183357D01*
X131454037Y-98231036D01*
X131808297Y-98369511D01*
X132300447Y-98599377D01*
X132961462Y-98897762D01*
X133864048Y-99217502D01*
X134712968Y-99413913D01*
X135486176Y-99480895D01*
X136088559Y-99457852D01*
X136877728Y-99374040D01*
X137701602Y-99237520D01*
X138519853Y-99057358D01*
X139292150Y-98842616D01*
X139978165Y-98602359D01*
X140537566Y-98345649D01*
X140739727Y-98245453D01*
X141045801Y-98127545D01*
X141307356Y-98064303D01*
X141489717Y-98063018D01*
X141558210Y-98130985D01*
G37*
%LPC*%
D11*
X115145000Y-90932000D03*
D12*
X107945000Y-90932000D03*
D13*
X136393000Y-61849000D03*
D14*
X138933000Y-61849000D03*
X141473000Y-61849000D03*
X144013000Y-61849000D03*
X146553000Y-61849000D03*
X149093000Y-61849000D03*
X151633000Y-61849000D03*
X154173000Y-61849000D03*
X156713000Y-61849000D03*
X159253000Y-61849000D03*
X161793000Y-61849000D03*
X164333000Y-61849000D03*
D15*
X109064983Y-104849001D03*
D16*
X107314987Y-102619001D03*
D17*
X110814988Y-102619001D03*
X114314988Y-102619001D03*
D15*
X109064983Y-127349001D03*
D16*
X107314987Y-125119001D03*
D17*
X110814988Y-125119001D03*
X114314988Y-125119001D03*
D18*
X122555000Y-122068000D03*
X122555000Y-125370000D03*
X136017000Y-122068000D03*
X136017000Y-125370000D03*
D19*
X108712000Y-82002000D03*
D20*
X106172000Y-82002000D03*
X103632000Y-82002000D03*
D19*
X108712000Y-64002000D03*
D20*
X106172000Y-64002000D03*
X103632000Y-64002000D03*
D15*
X109064983Y-138599001D03*
D16*
X107314987Y-136369001D03*
D17*
X110814988Y-136369001D03*
X114314988Y-136369001D03*
D21*
X170057000Y-138075000D03*
D19*
X125222000Y-73008000D03*
D20*
X122682000Y-73008000D03*
X120142000Y-73008000D03*
X117602000Y-73008000D03*
D22*
X144510000Y-128878236D03*
X169910000Y-90078236D03*
X169910000Y-128878236D03*
X144510000Y-90078236D03*
D23*
X142850000Y-95498236D03*
D24*
X142850000Y-100498236D03*
X142850000Y-118438236D03*
D23*
X142850000Y-123438236D03*
D21*
X99720400Y-138075000D03*
D25*
X132842000Y-82159203D03*
D26*
X135382000Y-82159203D03*
X137922000Y-82159203D03*
X140462000Y-82159203D03*
X143002000Y-82159203D03*
X145542000Y-82159203D03*
X148082000Y-82159203D03*
X150622000Y-82159203D03*
X153162000Y-82159203D03*
X155702000Y-82159203D03*
X158242000Y-82159203D03*
X160782000Y-82159203D03*
X163322000Y-82159203D03*
X165862000Y-82159203D03*
X168402000Y-82159203D03*
X168402000Y-66919203D03*
X165862000Y-66919203D03*
X163322000Y-66919203D03*
X160782000Y-66919203D03*
X158242000Y-66919203D03*
X155702000Y-66919203D03*
X153162000Y-66919203D03*
X150622000Y-66919203D03*
X148082000Y-66919203D03*
X145542000Y-66919203D03*
X143002000Y-66919203D03*
X140462000Y-66919203D03*
X137922000Y-66919203D03*
X135382000Y-66919203D03*
X132842000Y-66919203D03*
D19*
X125222000Y-82008000D03*
D20*
X122682000Y-82008000D03*
X120142000Y-82008000D03*
X117602000Y-82008000D03*
D21*
X170057000Y-57273000D03*
D15*
X109064983Y-116099001D03*
D16*
X107314987Y-113869001D03*
D17*
X110814988Y-113869001D03*
X114314988Y-113869001D03*
D18*
X122301000Y-110818000D03*
X122301000Y-114120000D03*
X135763000Y-114120000D03*
X135763000Y-110818000D03*
D19*
X125222000Y-64008000D03*
D20*
X122682000Y-64008000D03*
X120142000Y-64008000D03*
X117602000Y-64008000D03*
D21*
X99720400Y-57277000D03*
D18*
X122555000Y-102870000D03*
X122555000Y-99568000D03*
X136017000Y-99568000D03*
X136017000Y-102870000D03*
D19*
X111252000Y-73002000D03*
D20*
X108712000Y-73002000D03*
X106172000Y-73002000D03*
X103632000Y-73002000D03*
X101092000Y-73002000D03*
D18*
X122555000Y-133318000D03*
X122555000Y-136620000D03*
X136017000Y-136620000D03*
X136017000Y-133318000D03*
M02*
