G04 #@! TF.GenerationSoftware,KiCad,Pcbnew,(6.0.8)*
G04 #@! TF.CreationDate,2022-10-01T20:43:50-07:00*
G04 #@! TF.ProjectId,unified_elec_steering,756e6966-6965-4645-9f65-6c65635f7374,rev?*
G04 #@! TF.SameCoordinates,Original*
G04 #@! TF.FileFunction,Legend,Bot*
G04 #@! TF.FilePolarity,Positive*
%FSLAX46Y46*%
G04 Gerber Fmt 4.6, Leading zero omitted, Abs format (unit mm)*
G04 Created by KiCad (PCBNEW (6.0.8)) date 2022-10-01 20:43:50*
%MOMM*%
%LPD*%
G01*
G04 APERTURE LIST*
G04 Aperture macros list*
%AMRoundRect*
0 Rectangle with rounded corners*
0 $1 Rounding radius*
0 $2 $3 $4 $5 $6 $7 $8 $9 X,Y pos of 4 corners*
0 Add a 4 corners polygon primitive as box body*
4,1,4,$2,$3,$4,$5,$6,$7,$8,$9,$2,$3,0*
0 Add four circle primitives for the rounded corners*
1,1,$1+$1,$2,$3*
1,1,$1+$1,$4,$5*
1,1,$1+$1,$6,$7*
1,1,$1+$1,$8,$9*
0 Add four rect primitives between the rounded corners*
20,1,$1+$1,$2,$3,$4,$5,0*
20,1,$1+$1,$4,$5,$6,$7,0*
20,1,$1+$1,$6,$7,$8,$9,0*
20,1,$1+$1,$8,$9,$2,$3,0*%
G04 Aperture macros list end*
%ADD10C,0.150000*%
%ADD11C,0.836200*%
%ADD12C,0.876200*%
%ADD13C,0.010000*%
%ADD14C,2.180000*%
%ADD15C,3.196000*%
%ADD16R,3.196000X3.196000*%
%ADD17C,2.235200*%
%ADD18C,6.400000*%
%ADD19RoundRect,1.500000X1.500000X1.500000X-1.500000X1.500000X-1.500000X-1.500000X1.500000X-1.500000X0*%
%ADD20C,6.000000*%
%ADD21C,1.700000*%
%ADD22O,1.700000X1.700000*%
%ADD23C,1.600000*%
%ADD24RoundRect,0.250000X0.620000X0.620000X-0.620000X0.620000X-0.620000X-0.620000X0.620000X-0.620000X0*%
%ADD25C,1.740000*%
%ADD26R,1.600000X1.600000*%
%ADD27O,1.600000X1.600000*%
G04 APERTURE END LIST*
D10*
X68481672Y-91622619D02*
X68428101Y-91575000D01*
X68326910Y-91527380D01*
X68088815Y-91527380D01*
X67999529Y-91575000D01*
X67957863Y-91622619D01*
X67922148Y-91717857D01*
X67934053Y-91813095D01*
X67999529Y-91955952D01*
X68642386Y-92527380D01*
X68023339Y-92527380D01*
X67279291Y-91527380D02*
X67184053Y-91527380D01*
X67094767Y-91575000D01*
X67053101Y-91622619D01*
X67017386Y-91717857D01*
X66993577Y-91908333D01*
X67023339Y-92146428D01*
X67094767Y-92336904D01*
X67154291Y-92432142D01*
X67207863Y-92479761D01*
X67309053Y-92527380D01*
X67404291Y-92527380D01*
X67493577Y-92479761D01*
X67535244Y-92432142D01*
X67570958Y-92336904D01*
X67594767Y-92146428D01*
X67565005Y-91908333D01*
X67493577Y-91717857D01*
X67434053Y-91622619D01*
X67380482Y-91575000D01*
X67279291Y-91527380D01*
X66576910Y-91622619D02*
X66523339Y-91575000D01*
X66422148Y-91527380D01*
X66184053Y-91527380D01*
X66094767Y-91575000D01*
X66053101Y-91622619D01*
X66017386Y-91717857D01*
X66029291Y-91813095D01*
X66094767Y-91955952D01*
X66737625Y-92527380D01*
X66118577Y-92527380D01*
X65624529Y-91622619D02*
X65570958Y-91575000D01*
X65469767Y-91527380D01*
X65231672Y-91527380D01*
X65142386Y-91575000D01*
X65100720Y-91622619D01*
X65065005Y-91717857D01*
X65076910Y-91813095D01*
X65142386Y-91955952D01*
X65785244Y-92527380D01*
X65166196Y-92527380D01*
X64690005Y-92146428D02*
X63928101Y-92146428D01*
X63434053Y-91622619D02*
X63380482Y-91575000D01*
X63279291Y-91527380D01*
X63041196Y-91527380D01*
X62951910Y-91575000D01*
X62910244Y-91622619D01*
X62874529Y-91717857D01*
X62886434Y-91813095D01*
X62951910Y-91955952D01*
X63594767Y-92527380D01*
X62975720Y-92527380D01*
X62231672Y-91527380D02*
X62136434Y-91527380D01*
X62047148Y-91575000D01*
X62005482Y-91622619D01*
X61969767Y-91717857D01*
X61945958Y-91908333D01*
X61975720Y-92146428D01*
X62047148Y-92336904D01*
X62106672Y-92432142D01*
X62160244Y-92479761D01*
X62261434Y-92527380D01*
X62356672Y-92527380D01*
X62445958Y-92479761D01*
X62487625Y-92432142D01*
X62523339Y-92336904D01*
X62547148Y-92146428D01*
X62517386Y-91908333D01*
X62445958Y-91717857D01*
X62386434Y-91622619D01*
X62332863Y-91575000D01*
X62231672Y-91527380D01*
X61529291Y-91622619D02*
X61475720Y-91575000D01*
X61374529Y-91527380D01*
X61136434Y-91527380D01*
X61047148Y-91575000D01*
X61005482Y-91622619D01*
X60969767Y-91717857D01*
X60981672Y-91813095D01*
X61047148Y-91955952D01*
X61690005Y-92527380D01*
X61070958Y-92527380D01*
X60576910Y-91622619D02*
X60523339Y-91575000D01*
X60422148Y-91527380D01*
X60184053Y-91527380D01*
X60094767Y-91575000D01*
X60053101Y-91622619D01*
X60017386Y-91717857D01*
X60029291Y-91813095D01*
X60094767Y-91955952D01*
X60737625Y-92527380D01*
X60118577Y-92527380D01*
X76452476Y-90749380D02*
X76452476Y-89749380D01*
X75976285Y-90082714D02*
X75976285Y-90749380D01*
X75976285Y-90177952D02*
X75928666Y-90130333D01*
X75833428Y-90082714D01*
X75690571Y-90082714D01*
X75595333Y-90130333D01*
X75547714Y-90225571D01*
X75547714Y-90749380D01*
X73833428Y-90749380D02*
X74309619Y-90749380D01*
X74309619Y-89749380D01*
X73357238Y-90749380D02*
X73452476Y-90701761D01*
X73500095Y-90654142D01*
X73547714Y-90558904D01*
X73547714Y-90273190D01*
X73500095Y-90177952D01*
X73452476Y-90130333D01*
X73357238Y-90082714D01*
X73214380Y-90082714D01*
X73119142Y-90130333D01*
X73071523Y-90177952D01*
X73023904Y-90273190D01*
X73023904Y-90558904D01*
X73071523Y-90654142D01*
X73119142Y-90701761D01*
X73214380Y-90749380D01*
X73357238Y-90749380D01*
X72690571Y-90082714D02*
X72452476Y-90749380D01*
X72214380Y-90082714D01*
X71833428Y-90749380D02*
X71833428Y-90082714D01*
X71833428Y-89749380D02*
X71881047Y-89797000D01*
X71833428Y-89844619D01*
X71785809Y-89797000D01*
X71833428Y-89749380D01*
X71833428Y-89844619D01*
X71357238Y-90082714D02*
X71357238Y-90749380D01*
X71357238Y-90177952D02*
X71309619Y-90130333D01*
X71214380Y-90082714D01*
X71071523Y-90082714D01*
X70976285Y-90130333D01*
X70928666Y-90225571D01*
X70928666Y-90749380D01*
X70023904Y-90082714D02*
X70023904Y-90892238D01*
X70071523Y-90987476D01*
X70119142Y-91035095D01*
X70214380Y-91082714D01*
X70357238Y-91082714D01*
X70452476Y-91035095D01*
X70023904Y-90701761D02*
X70119142Y-90749380D01*
X70309619Y-90749380D01*
X70404857Y-90701761D01*
X70452476Y-90654142D01*
X70500095Y-90558904D01*
X70500095Y-90273190D01*
X70452476Y-90177952D01*
X70404857Y-90130333D01*
X70309619Y-90082714D01*
X70119142Y-90082714D01*
X70023904Y-90130333D01*
X68785809Y-90749380D02*
X68785809Y-89749380D01*
X68452476Y-90463666D01*
X68119142Y-89749380D01*
X68119142Y-90749380D01*
X67262000Y-90701761D02*
X67357238Y-90749380D01*
X67547714Y-90749380D01*
X67642952Y-90701761D01*
X67690571Y-90606523D01*
X67690571Y-90225571D01*
X67642952Y-90130333D01*
X67547714Y-90082714D01*
X67357238Y-90082714D01*
X67262000Y-90130333D01*
X67214380Y-90225571D01*
X67214380Y-90320809D01*
X67690571Y-90416047D01*
X66785809Y-90749380D02*
X66785809Y-90082714D01*
X66785809Y-90177952D02*
X66738190Y-90130333D01*
X66642952Y-90082714D01*
X66500095Y-90082714D01*
X66404857Y-90130333D01*
X66357238Y-90225571D01*
X66357238Y-90749380D01*
X66357238Y-90225571D02*
X66309619Y-90130333D01*
X66214380Y-90082714D01*
X66071523Y-90082714D01*
X65976285Y-90130333D01*
X65928666Y-90225571D01*
X65928666Y-90749380D01*
X65309619Y-90749380D02*
X65404857Y-90701761D01*
X65452476Y-90654142D01*
X65500095Y-90558904D01*
X65500095Y-90273190D01*
X65452476Y-90177952D01*
X65404857Y-90130333D01*
X65309619Y-90082714D01*
X65166761Y-90082714D01*
X65071523Y-90130333D01*
X65023904Y-90177952D01*
X64976285Y-90273190D01*
X64976285Y-90558904D01*
X65023904Y-90654142D01*
X65071523Y-90701761D01*
X65166761Y-90749380D01*
X65309619Y-90749380D01*
X64547714Y-90749380D02*
X64547714Y-90082714D01*
X64547714Y-90273190D02*
X64500095Y-90177952D01*
X64452476Y-90130333D01*
X64357238Y-90082714D01*
X64262000Y-90082714D01*
X64023904Y-90082714D02*
X63785809Y-90749380D01*
X63547714Y-90082714D02*
X63785809Y-90749380D01*
X63881047Y-90987476D01*
X63928666Y-91035095D01*
X64023904Y-91082714D01*
X62262000Y-90749380D02*
X62357238Y-90701761D01*
X62404857Y-90654142D01*
X62452476Y-90558904D01*
X62452476Y-90273190D01*
X62404857Y-90177952D01*
X62357238Y-90130333D01*
X62262000Y-90082714D01*
X62119142Y-90082714D01*
X62023904Y-90130333D01*
X61976285Y-90177952D01*
X61928666Y-90273190D01*
X61928666Y-90558904D01*
X61976285Y-90654142D01*
X62023904Y-90701761D01*
X62119142Y-90749380D01*
X62262000Y-90749380D01*
X61642952Y-90082714D02*
X61262000Y-90082714D01*
X61500095Y-90749380D02*
X61500095Y-89892238D01*
X61452476Y-89797000D01*
X61357238Y-89749380D01*
X61262000Y-89749380D01*
X60214380Y-89749380D02*
X60214380Y-89939857D01*
X59833428Y-89749380D02*
X59833428Y-89939857D01*
X59071523Y-90225571D02*
X58928666Y-90273190D01*
X58881047Y-90320809D01*
X58833428Y-90416047D01*
X58833428Y-90558904D01*
X58881047Y-90654142D01*
X58928666Y-90701761D01*
X59023904Y-90749380D01*
X59404857Y-90749380D01*
X59404857Y-89749380D01*
X59071523Y-89749380D01*
X58976285Y-89797000D01*
X58928666Y-89844619D01*
X58881047Y-89939857D01*
X58881047Y-90035095D01*
X58928666Y-90130333D01*
X58976285Y-90177952D01*
X59071523Y-90225571D01*
X59404857Y-90225571D01*
X58404857Y-90749380D02*
X58404857Y-90082714D01*
X58404857Y-89749380D02*
X58452476Y-89797000D01*
X58404857Y-89844619D01*
X58357238Y-89797000D01*
X58404857Y-89749380D01*
X58404857Y-89844619D01*
X57500095Y-90082714D02*
X57500095Y-90892238D01*
X57547714Y-90987476D01*
X57595333Y-91035095D01*
X57690571Y-91082714D01*
X57833428Y-91082714D01*
X57928666Y-91035095D01*
X57500095Y-90701761D02*
X57595333Y-90749380D01*
X57785809Y-90749380D01*
X57881047Y-90701761D01*
X57928666Y-90654142D01*
X57976285Y-90558904D01*
X57976285Y-90273190D01*
X57928666Y-90177952D01*
X57881047Y-90130333D01*
X57785809Y-90082714D01*
X57595333Y-90082714D01*
X57500095Y-90130333D01*
X55690571Y-90749380D02*
X56023904Y-90273190D01*
X56262000Y-90749380D02*
X56262000Y-89749380D01*
X55881047Y-89749380D01*
X55785809Y-89797000D01*
X55738190Y-89844619D01*
X55690571Y-89939857D01*
X55690571Y-90082714D01*
X55738190Y-90177952D01*
X55785809Y-90225571D01*
X55881047Y-90273190D01*
X56262000Y-90273190D01*
X55262000Y-90749380D02*
X55262000Y-90082714D01*
X55262000Y-89749380D02*
X55309619Y-89797000D01*
X55262000Y-89844619D01*
X55214380Y-89797000D01*
X55262000Y-89749380D01*
X55262000Y-89844619D01*
X54357238Y-90701761D02*
X54452476Y-90749380D01*
X54642952Y-90749380D01*
X54738190Y-90701761D01*
X54785809Y-90654142D01*
X54833428Y-90558904D01*
X54833428Y-90273190D01*
X54785809Y-90177952D01*
X54738190Y-90130333D01*
X54642952Y-90082714D01*
X54452476Y-90082714D01*
X54357238Y-90130333D01*
X53928666Y-90749380D02*
X53928666Y-89749380D01*
X53833428Y-90368428D02*
X53547714Y-90749380D01*
X53547714Y-90082714D02*
X53928666Y-90463666D01*
X53214380Y-90082714D02*
X52976285Y-90749380D01*
X52738190Y-90082714D02*
X52976285Y-90749380D01*
X53071523Y-90987476D01*
X53119142Y-91035095D01*
X53214380Y-91082714D01*
X52404857Y-89749380D02*
X52404857Y-89939857D01*
X52023904Y-89749380D02*
X52023904Y-89939857D01*
G36*
X86805755Y-129466711D02*
G01*
X86755558Y-129516909D01*
X86705360Y-129466711D01*
X86755558Y-129416513D01*
X86805755Y-129466711D01*
G37*
G36*
X91323542Y-130404510D02*
G01*
X91323225Y-130407498D01*
X91231663Y-130499342D01*
X91009096Y-130650699D01*
X90701827Y-130833880D01*
X90356161Y-131021195D01*
X90018404Y-131184956D01*
X89683486Y-131328295D01*
X88696810Y-131676150D01*
X87604887Y-131953730D01*
X86362602Y-132173234D01*
X85675562Y-132252480D01*
X84853279Y-132304224D01*
X84021520Y-132317828D01*
X83232025Y-132293749D01*
X82536533Y-132232449D01*
X81986783Y-132134385D01*
X81135113Y-131889738D01*
X80281548Y-131563766D01*
X79433877Y-131144236D01*
X79227679Y-131029049D01*
X78892035Y-130817840D01*
X78726777Y-130663480D01*
X78721007Y-130553158D01*
X78863825Y-130474061D01*
X78920629Y-130467439D01*
X79182559Y-130524730D01*
X79608231Y-130691119D01*
X80199589Y-130967322D01*
X80993853Y-131325855D01*
X82078383Y-131710049D01*
X83098428Y-131946052D01*
X84027501Y-132026537D01*
X84751313Y-131998849D01*
X85699563Y-131898142D01*
X86689515Y-131734103D01*
X87672710Y-131517623D01*
X88600687Y-131259593D01*
X89424989Y-130970905D01*
X90097156Y-130662447D01*
X90340068Y-130542053D01*
X90707841Y-130400378D01*
X91022120Y-130324387D01*
X91241242Y-130322843D01*
X91323542Y-130404510D01*
G37*
G36*
X80982830Y-123944972D02*
G01*
X80932633Y-123995170D01*
X80882435Y-123944972D01*
X80932633Y-123894774D01*
X80982830Y-123944972D01*
G37*
G36*
X80380459Y-123894774D02*
G01*
X80373214Y-123947923D01*
X80313529Y-123961705D01*
X80301513Y-123946990D01*
X80313529Y-123827844D01*
X80343726Y-123812138D01*
X80380459Y-123894774D01*
G37*
G36*
X88270730Y-128704115D02*
G01*
X88257199Y-128821079D01*
X88179797Y-128875879D01*
X87979475Y-128911344D01*
X87864121Y-128907141D01*
X87821390Y-128872307D01*
X87949992Y-128763967D01*
X87985045Y-128739496D01*
X88159458Y-128673100D01*
X88270730Y-128704115D01*
G37*
G36*
X75790646Y-132842507D02*
G01*
X76187001Y-133031602D01*
X76697353Y-133365531D01*
X76799914Y-133438271D01*
X77205076Y-133702014D01*
X77604052Y-133911308D01*
X78064369Y-134098234D01*
X78653553Y-134294871D01*
X79066887Y-134415478D01*
X79659664Y-134564548D01*
X80224867Y-134683124D01*
X80681645Y-134752944D01*
X80724792Y-134757238D01*
X81310504Y-134785872D01*
X82035029Y-134779812D01*
X82844785Y-134742329D01*
X83686191Y-134676694D01*
X84505666Y-134586179D01*
X85249629Y-134474055D01*
X85747857Y-134373814D01*
X86407174Y-134218967D01*
X87117697Y-134034666D01*
X87817332Y-133837766D01*
X88443985Y-133645121D01*
X88935563Y-133473585D01*
X88938458Y-133472472D01*
X89267678Y-133371166D01*
X89457642Y-133366359D01*
X89493463Y-133452745D01*
X89360257Y-133625014D01*
X89190719Y-133741728D01*
X88824626Y-133912260D01*
X88326278Y-134095911D01*
X87732776Y-134282002D01*
X87081220Y-134459854D01*
X86408710Y-134618787D01*
X85752348Y-134748121D01*
X85149234Y-134837176D01*
X84909470Y-134865702D01*
X84423783Y-134927502D01*
X83994611Y-134986965D01*
X83693502Y-135034398D01*
X83627951Y-135044270D01*
X83309657Y-135073521D01*
X82857317Y-135098698D01*
X82321437Y-135117388D01*
X81752522Y-135127175D01*
X81253470Y-135126398D01*
X80571532Y-135100125D01*
X79960915Y-135033918D01*
X79357998Y-134917195D01*
X78699158Y-134739373D01*
X77920775Y-134489872D01*
X77495500Y-134343347D01*
X77071897Y-134181024D01*
X76729737Y-134020349D01*
X76406230Y-133831065D01*
X76038589Y-133582917D01*
X75915833Y-133495115D01*
X75561835Y-133206565D01*
X75391755Y-132993082D01*
X75404347Y-132853231D01*
X75514899Y-132800866D01*
X75790646Y-132842507D01*
G37*
G36*
X108989183Y-119385589D02*
G01*
X109005515Y-119776509D01*
X109008765Y-119928062D01*
X109029733Y-120243670D01*
X109039149Y-120385400D01*
X109094642Y-120916582D01*
X109166830Y-121435091D01*
X109201361Y-121660994D01*
X109269393Y-122177969D01*
X109319591Y-122658885D01*
X109342997Y-123022982D01*
X109361137Y-123313726D01*
X109434670Y-123633787D01*
X109581830Y-123878251D01*
X109623709Y-123929489D01*
X109889162Y-124301765D01*
X109996098Y-124575332D01*
X109947431Y-124768287D01*
X109746071Y-124898727D01*
X109618150Y-124954927D01*
X109513928Y-125061189D01*
X109558783Y-125215461D01*
X109753260Y-125460384D01*
X109903057Y-125632323D01*
X110245430Y-126052956D01*
X110473799Y-126380316D01*
X110572094Y-126592192D01*
X110576815Y-126632209D01*
X110588848Y-126856078D01*
X110600270Y-127224168D01*
X110609974Y-127696034D01*
X110616856Y-128231230D01*
X110630461Y-129706422D01*
X111053798Y-130188938D01*
X111155381Y-130298925D01*
X111475852Y-130583169D01*
X111878512Y-130852430D01*
X112391627Y-131122166D01*
X113043460Y-131407835D01*
X113862277Y-131724895D01*
X114244001Y-131867736D01*
X114735881Y-132055368D01*
X115165070Y-132222855D01*
X115468601Y-132345856D01*
X115946021Y-132537032D01*
X116606466Y-132780317D01*
X117298766Y-133017420D01*
X117950881Y-133223812D01*
X118490771Y-133374962D01*
X119855058Y-133741716D01*
X121344725Y-134201270D01*
X122697060Y-134684400D01*
X122977895Y-134788015D01*
X123401262Y-134930372D01*
X123751210Y-135033220D01*
X123882620Y-135067701D01*
X124300590Y-135183315D01*
X124704965Y-135301720D01*
X124766528Y-135320545D01*
X124960317Y-135381551D01*
X125173528Y-135452239D01*
X125434308Y-135542613D01*
X125770803Y-135662680D01*
X126211158Y-135822448D01*
X126783519Y-136031921D01*
X127516032Y-136301107D01*
X128230544Y-136561323D01*
X129081156Y-136862101D01*
X129766639Y-137092495D01*
X130276902Y-137249041D01*
X131130206Y-137508782D01*
X132204969Y-137882673D01*
X133234624Y-138289284D01*
X134142119Y-138699696D01*
X134519131Y-138880293D01*
X135081689Y-139140785D01*
X135685167Y-139412777D01*
X136250419Y-139660210D01*
X136752507Y-139877856D01*
X137715502Y-140310929D01*
X138514730Y-140695704D01*
X139168774Y-141041776D01*
X139696215Y-141358740D01*
X140115637Y-141656193D01*
X140650536Y-142073762D01*
X141304357Y-142579007D01*
X141842597Y-142986361D01*
X142289087Y-143312677D01*
X142667657Y-143574811D01*
X143002138Y-143789615D01*
X143316359Y-143973945D01*
X143634152Y-144144653D01*
X143878988Y-144276395D01*
X144308869Y-144529905D01*
X144677732Y-144773867D01*
X144925458Y-144969863D01*
X145168331Y-145198782D01*
X145502553Y-145510084D01*
X145838166Y-145819695D01*
X146005489Y-145983430D01*
X146360704Y-146387475D01*
X146713267Y-146851960D01*
X147036359Y-147335393D01*
X147303158Y-147796282D01*
X147486845Y-148193134D01*
X147560600Y-148484455D01*
X147572277Y-148727415D01*
X147599801Y-149088418D01*
X147642397Y-149324448D01*
X147711513Y-149486057D01*
X147818596Y-149623795D01*
X148084633Y-149968396D01*
X148219192Y-150305422D01*
X148229518Y-150331284D01*
X148183343Y-150640997D01*
X147946467Y-150901098D01*
X147769051Y-151046608D01*
X147664383Y-151234119D01*
X147740146Y-151427522D01*
X147998795Y-151662494D01*
X148095211Y-151740353D01*
X148439708Y-152074354D01*
X148787608Y-152481440D01*
X149100423Y-152910125D01*
X149339666Y-153308921D01*
X149466847Y-153626343D01*
X149483662Y-153695383D01*
X149605292Y-154078514D01*
X149756564Y-154444812D01*
X149826917Y-154600713D01*
X149925579Y-154931031D01*
X149928114Y-155149758D01*
X149929400Y-155260758D01*
X149834366Y-155646751D01*
X149636463Y-156145867D01*
X149575683Y-156279233D01*
X149188428Y-156938198D01*
X148669115Y-157550751D01*
X148000692Y-158132126D01*
X147166108Y-158697557D01*
X146148310Y-159262279D01*
X145608973Y-159538732D01*
X145225684Y-159741758D01*
X144976172Y-159889047D01*
X144837918Y-159998414D01*
X144788405Y-160087674D01*
X144805115Y-160174639D01*
X144865531Y-160277126D01*
X144933066Y-160385719D01*
X145097248Y-160725293D01*
X145156205Y-161055557D01*
X145114046Y-161438951D01*
X144974884Y-161937917D01*
X144911980Y-162108847D01*
X144819670Y-162359683D01*
X144621492Y-162762244D01*
X144350696Y-163194036D01*
X143974480Y-163713266D01*
X143958034Y-163735062D01*
X143673887Y-164119118D01*
X143441795Y-164446386D01*
X143285287Y-164682798D01*
X143227890Y-164794289D01*
X143198792Y-164898252D01*
X143103026Y-165138298D01*
X142963607Y-165448723D01*
X142835903Y-165674729D01*
X142506335Y-166117308D01*
X142054730Y-166623391D01*
X141511032Y-167166118D01*
X140905182Y-167718632D01*
X140267123Y-168254073D01*
X139626797Y-168745582D01*
X139014147Y-169166299D01*
X138459115Y-169489366D01*
X138156115Y-169647876D01*
X137309840Y-170130727D01*
X136559330Y-170631730D01*
X135829154Y-171199949D01*
X135489940Y-171465386D01*
X134867541Y-171902071D01*
X134168231Y-172347429D01*
X133449567Y-172766880D01*
X132769108Y-173125842D01*
X132184411Y-173389734D01*
X131495868Y-173663740D01*
X130794348Y-173948338D01*
X130252543Y-174176658D01*
X129854652Y-174356329D01*
X129584878Y-174494983D01*
X129427419Y-174600250D01*
X129366476Y-174679760D01*
X129386250Y-174741145D01*
X129453908Y-174750942D01*
X129704774Y-174764588D01*
X130121782Y-174779068D01*
X130685371Y-174794133D01*
X131375984Y-174809532D01*
X132174060Y-174825016D01*
X133060041Y-174840336D01*
X134014365Y-174855241D01*
X135017475Y-174869482D01*
X136049811Y-174882809D01*
X137091813Y-174894973D01*
X138123921Y-174905723D01*
X139126577Y-174914810D01*
X140080221Y-174921985D01*
X140965294Y-174926997D01*
X141762235Y-174929597D01*
X142451487Y-174929536D01*
X143013488Y-174926562D01*
X143428680Y-174920427D01*
X143838891Y-174913891D01*
X144562502Y-174914608D01*
X145269924Y-174928854D01*
X145899692Y-174955144D01*
X146390340Y-174991991D01*
X146724029Y-175025384D01*
X147383361Y-175086659D01*
X148076601Y-175146500D01*
X148699431Y-175195703D01*
X149040427Y-175221489D01*
X149977160Y-175299463D01*
X150785936Y-175377918D01*
X151448582Y-175454816D01*
X151946927Y-175528115D01*
X152262800Y-175595777D01*
X152609841Y-175668093D01*
X152965567Y-175699444D01*
X153048047Y-175705718D01*
X153366802Y-175773161D01*
X153796052Y-175899863D01*
X154284174Y-176067449D01*
X154779542Y-176257550D01*
X155230532Y-176451793D01*
X155585518Y-176631806D01*
X155874341Y-176851752D01*
X155998918Y-177104038D01*
X156037595Y-177230519D01*
X156159754Y-177368735D01*
X156398564Y-177524352D01*
X156789269Y-177725062D01*
X156932646Y-177796594D01*
X157583192Y-178179024D01*
X158080359Y-178577005D01*
X158408942Y-178976420D01*
X158553737Y-179363154D01*
X158557452Y-179394708D01*
X158562496Y-179437542D01*
X158565493Y-179637756D01*
X158506843Y-179808390D01*
X158358555Y-180005385D01*
X158092640Y-180284684D01*
X157791781Y-180557615D01*
X157475204Y-180790354D01*
X157221105Y-180923215D01*
X156987665Y-181016258D01*
X156629568Y-181185723D01*
X156259703Y-181382120D01*
X155939064Y-181552238D01*
X155668652Y-181675422D01*
X155511678Y-181722442D01*
X155335165Y-181761703D01*
X155091845Y-181864081D01*
X154924090Y-181937974D01*
X154590717Y-182058746D01*
X154218372Y-182173649D01*
X153858568Y-182270573D01*
X153248190Y-182411160D01*
X152652169Y-182510167D01*
X152016887Y-182573895D01*
X151288722Y-182608645D01*
X150414056Y-182620718D01*
X150245531Y-182621388D01*
X149592997Y-182628947D01*
X149111843Y-182645196D01*
X148778037Y-182671890D01*
X148567549Y-182710783D01*
X148456348Y-182763629D01*
X148380729Y-182823002D01*
X147971603Y-183038691D01*
X147410988Y-183219986D01*
X146737250Y-183356411D01*
X145988759Y-183437487D01*
X145477979Y-183461691D01*
X144760402Y-183477064D01*
X143958868Y-183479067D01*
X143114042Y-183468772D01*
X142266591Y-183447254D01*
X141457181Y-183415586D01*
X140726479Y-183374843D01*
X140115149Y-183326100D01*
X139663858Y-183270429D01*
X139571664Y-183255347D01*
X139041751Y-183170541D01*
X138502481Y-183086772D01*
X138057534Y-183020191D01*
X137684135Y-182962913D01*
X137245946Y-182889131D01*
X136902988Y-182824487D01*
X136741605Y-182793430D01*
X136317467Y-182724497D01*
X135899036Y-182669538D01*
X135602306Y-182631983D01*
X134889220Y-182510321D01*
X134043462Y-182327313D01*
X133037771Y-182077316D01*
X132706589Y-181991187D01*
X131649571Y-181720050D01*
X130745227Y-181495680D01*
X129962086Y-181311482D01*
X129268682Y-181160861D01*
X128633546Y-181037221D01*
X128025211Y-180933968D01*
X127412207Y-180844505D01*
X126763068Y-180762239D01*
X126271892Y-180702244D01*
X125727012Y-180632843D01*
X125249639Y-180569215D01*
X124905755Y-180519966D01*
X124704146Y-180491407D01*
X124226922Y-180432292D01*
X123614107Y-180363250D01*
X122906272Y-180288413D01*
X122143991Y-180211914D01*
X121367836Y-180137886D01*
X120618378Y-180070461D01*
X119936190Y-180013771D01*
X119614915Y-179987571D01*
X118836712Y-179918032D01*
X118014990Y-179837586D01*
X117198493Y-179751477D01*
X116435968Y-179664946D01*
X115776159Y-179583238D01*
X115267811Y-179511597D01*
X114866943Y-179452040D01*
X114316608Y-179375887D01*
X113812079Y-179311251D01*
X113346847Y-179255007D01*
X112775996Y-179185837D01*
X112255953Y-179122681D01*
X112145310Y-179108451D01*
X111536802Y-179008174D01*
X110898454Y-178872417D01*
X110287612Y-178715642D01*
X109761619Y-178552309D01*
X109377823Y-178396882D01*
X108976606Y-178178232D01*
X108166916Y-177622958D01*
X107333110Y-176897160D01*
X106898402Y-176481514D01*
X107687969Y-176481514D01*
X107770190Y-176647733D01*
X107995630Y-176884618D01*
X108330024Y-177167404D01*
X108739107Y-177471892D01*
X109188613Y-177773883D01*
X109644276Y-178049180D01*
X110071830Y-178273582D01*
X110437010Y-178422892D01*
X110965054Y-178565042D01*
X111704698Y-178717163D01*
X112644534Y-178875613D01*
X113784309Y-179040360D01*
X115123773Y-179211369D01*
X116662672Y-179388606D01*
X118400755Y-179572038D01*
X120337771Y-179761629D01*
X120744654Y-179800147D01*
X121761916Y-179896798D01*
X122612890Y-179978457D01*
X123322389Y-180047773D01*
X123915222Y-180107394D01*
X124416202Y-180159967D01*
X124850139Y-180208140D01*
X125241845Y-180254559D01*
X125616130Y-180301874D01*
X125997806Y-180352732D01*
X126411684Y-180409779D01*
X127259373Y-180529532D01*
X128181862Y-180665400D01*
X128924004Y-180782291D01*
X129496614Y-180882006D01*
X129910510Y-180966348D01*
X130176506Y-181037119D01*
X130363702Y-181093133D01*
X130735838Y-181190119D01*
X131130261Y-181280743D01*
X131483146Y-181358818D01*
X131966658Y-181473109D01*
X132467897Y-181597766D01*
X132944197Y-181721645D01*
X133352892Y-181833603D01*
X133651316Y-181922496D01*
X133796804Y-181977181D01*
X133860753Y-181997079D01*
X134102797Y-182050230D01*
X134494465Y-182126922D01*
X135006649Y-182222067D01*
X135610240Y-182330578D01*
X136276128Y-182447370D01*
X136975205Y-182567355D01*
X137678362Y-182685447D01*
X138356490Y-182796559D01*
X138980479Y-182895604D01*
X139521221Y-182977496D01*
X139800205Y-183013648D01*
X140334536Y-183070186D01*
X140972755Y-183127330D01*
X141657720Y-183180081D01*
X142332288Y-183223441D01*
X142902694Y-183254835D01*
X143430813Y-183281781D01*
X143859100Y-183301381D01*
X144154020Y-183312104D01*
X144282040Y-183312419D01*
X144380360Y-183303171D01*
X144646508Y-183283991D01*
X145030474Y-183259026D01*
X145486783Y-183231339D01*
X145985783Y-183195475D01*
X146527890Y-183128370D01*
X146970901Y-183026718D01*
X147373142Y-182876121D01*
X147792939Y-182662187D01*
X147870830Y-182615880D01*
X148225779Y-182295034D01*
X148402770Y-181912319D01*
X148400889Y-181496063D01*
X148219225Y-181074591D01*
X147856867Y-180676228D01*
X147171805Y-180169659D01*
X146108592Y-179568383D01*
X144924978Y-179077575D01*
X143653606Y-178706277D01*
X142327119Y-178463531D01*
X140978157Y-178358380D01*
X139639365Y-178399866D01*
X139535630Y-178408810D01*
X138954380Y-178445566D01*
X138514895Y-178448818D01*
X138231426Y-178419841D01*
X138118225Y-178359907D01*
X138189543Y-178270292D01*
X138268048Y-178243686D01*
X138536785Y-178201543D01*
X138944907Y-178163371D01*
X139454073Y-178130749D01*
X140025946Y-178105256D01*
X140622187Y-178088472D01*
X141204459Y-178081976D01*
X141734422Y-178087348D01*
X142173739Y-178106166D01*
X142847669Y-178175627D01*
X144187416Y-178440091D01*
X145523247Y-178859785D01*
X146799629Y-179415687D01*
X147961032Y-180088771D01*
X148172886Y-180234785D01*
X148601036Y-180579877D01*
X148877983Y-180908108D01*
X149030632Y-181257174D01*
X149085888Y-181664772D01*
X149099646Y-181883296D01*
X149137600Y-182153828D01*
X149186413Y-182293231D01*
X149226868Y-182312237D01*
X149442595Y-182344655D01*
X149799296Y-182364669D01*
X150256165Y-182372772D01*
X150772398Y-182369456D01*
X151307188Y-182355214D01*
X151819729Y-182330538D01*
X152269217Y-182295920D01*
X152614846Y-182251853D01*
X152922266Y-182190924D01*
X153743599Y-181973183D01*
X154632376Y-181673230D01*
X155520837Y-181315223D01*
X156341221Y-180923319D01*
X156586973Y-180792862D01*
X157045623Y-180533289D01*
X157365272Y-180316318D01*
X157577131Y-180114724D01*
X157712408Y-179901282D01*
X157802313Y-179648767D01*
X157802657Y-179647520D01*
X157848161Y-179394708D01*
X157803154Y-179181798D01*
X157647421Y-178912728D01*
X157612099Y-178861727D01*
X157261189Y-178502127D01*
X156751905Y-178179665D01*
X156076007Y-177891326D01*
X155225255Y-177634098D01*
X154191409Y-177404967D01*
X152966230Y-177200921D01*
X152527397Y-177142811D01*
X151548709Y-177042387D01*
X150453023Y-176961067D01*
X149295336Y-176901401D01*
X148130645Y-176865940D01*
X147013946Y-176857235D01*
X146000237Y-176877836D01*
X145657380Y-176890235D01*
X145171463Y-176902790D01*
X144844694Y-176900968D01*
X144650391Y-176883219D01*
X144561871Y-176847994D01*
X144552451Y-176793742D01*
X144571596Y-176759673D01*
X144698813Y-176681953D01*
X144949439Y-176620944D01*
X145338908Y-176575182D01*
X145882651Y-176543204D01*
X146596100Y-176523546D01*
X147494688Y-176514746D01*
X148330170Y-176519084D01*
X149721949Y-176559009D01*
X151069074Y-176637172D01*
X152332930Y-176750493D01*
X153474904Y-176895890D01*
X154456379Y-177070281D01*
X154880316Y-177143481D01*
X155183717Y-177156616D01*
X155320163Y-177105279D01*
X155280802Y-176993106D01*
X155056780Y-176823730D01*
X154976207Y-176775370D01*
X154234294Y-176417340D01*
X153327787Y-176108412D01*
X152285034Y-175855613D01*
X151134381Y-175665969D01*
X149904174Y-175546506D01*
X149613529Y-175526500D01*
X149093761Y-175488220D01*
X148469250Y-175440290D01*
X147794252Y-175386891D01*
X147123023Y-175332205D01*
X146821256Y-175308795D01*
X145695838Y-175245002D01*
X144556530Y-175213115D01*
X143508794Y-175216509D01*
X141772158Y-175256316D01*
X140567415Y-175722694D01*
X140128655Y-175891305D01*
X139496536Y-176131129D01*
X138877603Y-176363008D01*
X138358720Y-176554240D01*
X138111037Y-176650040D01*
X137593310Y-176870513D01*
X136989539Y-177145851D01*
X136355869Y-177450172D01*
X135748443Y-177757594D01*
X135322711Y-177977439D01*
X134773258Y-178254774D01*
X134275617Y-178499122D01*
X133871599Y-178690032D01*
X133603016Y-178807051D01*
X133401738Y-178877265D01*
X132827832Y-179025746D01*
X132095463Y-179164900D01*
X131233634Y-179292458D01*
X130271351Y-179406154D01*
X129237619Y-179503721D01*
X128161443Y-179582891D01*
X127071827Y-179641396D01*
X125997778Y-179676970D01*
X124968300Y-179687346D01*
X124012397Y-179670256D01*
X123159075Y-179623432D01*
X123011573Y-179611533D01*
X122346011Y-179552337D01*
X121663762Y-179484158D01*
X121037166Y-179414519D01*
X120538562Y-179350941D01*
X120338715Y-179323639D01*
X119697250Y-179244387D01*
X119015551Y-179169665D01*
X118411112Y-179112634D01*
X118227235Y-179095570D01*
X117445859Y-178989919D01*
X116544412Y-178819138D01*
X115512328Y-178580483D01*
X114339043Y-178271208D01*
X113013991Y-177888567D01*
X111526608Y-177429816D01*
X109866328Y-176892209D01*
X109776661Y-176862764D01*
X109052393Y-176639257D01*
X108471017Y-176487423D01*
X108042905Y-176409217D01*
X107778432Y-176406596D01*
X107687969Y-176481514D01*
X106898402Y-176481514D01*
X106626868Y-176221887D01*
X105827181Y-176158725D01*
X105640095Y-176143638D01*
X105114842Y-176099411D01*
X104527402Y-176048049D01*
X103973344Y-175997845D01*
X103719006Y-175976738D01*
X102931126Y-175951173D01*
X102316822Y-176001202D01*
X102111799Y-176032334D01*
X101663737Y-176090055D01*
X101137945Y-176149136D01*
X100610103Y-176200730D01*
X100367676Y-176222607D01*
X99716668Y-176283109D01*
X99040430Y-176347892D01*
X98451605Y-176406231D01*
X98035868Y-176448564D01*
X97424426Y-176510972D01*
X96877743Y-176566239D01*
X96380203Y-176615118D01*
X95916190Y-176658363D01*
X95470088Y-176696728D01*
X95026281Y-176730967D01*
X94569154Y-176761832D01*
X94083091Y-176790079D01*
X93552475Y-176816460D01*
X92961692Y-176841729D01*
X92295125Y-176866640D01*
X91537158Y-176891947D01*
X90672175Y-176918404D01*
X89684562Y-176946763D01*
X88558701Y-176977779D01*
X87278978Y-177012206D01*
X85829775Y-177050797D01*
X84195479Y-177094305D01*
X84078771Y-177097445D01*
X83130615Y-177124710D01*
X82195521Y-177154510D01*
X81304768Y-177185649D01*
X80489635Y-177216936D01*
X79781401Y-177247176D01*
X79211346Y-177275176D01*
X78810749Y-177299743D01*
X78283389Y-177330039D01*
X77276423Y-177344809D01*
X76351065Y-177303759D01*
X75699857Y-177268952D01*
X74765577Y-177265074D01*
X73804570Y-177306653D01*
X73483778Y-177323412D01*
X72943365Y-177341979D01*
X72252762Y-177358896D01*
X71439321Y-177373741D01*
X70530395Y-177386092D01*
X69553337Y-177395527D01*
X68535498Y-177401623D01*
X67504231Y-177403957D01*
X62609426Y-177405446D01*
X61191682Y-177104921D01*
X60583721Y-176962938D01*
X59956151Y-176792607D01*
X59391958Y-176616822D01*
X58958423Y-176455159D01*
X58889343Y-176426036D01*
X58404610Y-176240520D01*
X57905663Y-176075429D01*
X57490340Y-175963526D01*
X56271857Y-175673190D01*
X55218201Y-175368614D01*
X54354212Y-175055750D01*
X53682664Y-174735744D01*
X53206328Y-174409742D01*
X52927976Y-174078887D01*
X52921226Y-174066255D01*
X52806502Y-173808854D01*
X52789013Y-173588266D01*
X52790903Y-173580307D01*
X53557249Y-173580307D01*
X53618542Y-173971948D01*
X53813630Y-174281654D01*
X53909631Y-174358422D01*
X54245268Y-174554911D01*
X54706350Y-174769564D01*
X55244012Y-174984742D01*
X55809390Y-175182807D01*
X56353618Y-175346120D01*
X56827831Y-175457042D01*
X57183165Y-175497936D01*
X57370872Y-175477102D01*
X57494784Y-175370505D01*
X57585457Y-175121454D01*
X57602468Y-175058798D01*
X57664992Y-174798116D01*
X57690571Y-174637549D01*
X57690596Y-174635733D01*
X57769573Y-174452266D01*
X57972114Y-174199868D01*
X58255480Y-173920700D01*
X58576931Y-173656921D01*
X58893730Y-173450690D01*
X59144082Y-173329004D01*
X59663410Y-173120869D01*
X60307109Y-172899313D01*
X61030938Y-172678357D01*
X61790654Y-172472025D01*
X62542015Y-172294339D01*
X62807307Y-172240642D01*
X63417484Y-172149484D01*
X64079818Y-172099642D01*
X64867640Y-172084498D01*
X65008460Y-172084963D01*
X65485748Y-172094042D01*
X65871924Y-172112944D01*
X66130435Y-172139342D01*
X66224728Y-172170909D01*
X66139071Y-172229857D01*
X65893352Y-172288191D01*
X65529754Y-172337545D01*
X65090647Y-172372232D01*
X64618404Y-172386564D01*
X64265764Y-172401535D01*
X63571531Y-172482219D01*
X62792577Y-172621836D01*
X61976393Y-172808043D01*
X61170469Y-173028495D01*
X60422295Y-173270846D01*
X59779360Y-173522753D01*
X59289154Y-173771870D01*
X58965104Y-174005105D01*
X58611348Y-174375373D01*
X58383849Y-174768373D01*
X58293986Y-175152425D01*
X58353133Y-175495851D01*
X58572670Y-175766969D01*
X58769222Y-175901584D01*
X59486575Y-176271879D01*
X60386091Y-176587964D01*
X61458618Y-176847001D01*
X62695005Y-177046149D01*
X63085136Y-177089328D01*
X63793411Y-177145188D01*
X64519184Y-177180371D01*
X65154689Y-177188634D01*
X67607774Y-177155204D01*
X70784777Y-177107951D01*
X73799830Y-177058396D01*
X76650159Y-177006622D01*
X79332990Y-176952712D01*
X81845549Y-176896747D01*
X84185062Y-176838810D01*
X86348755Y-176778984D01*
X88333853Y-176717351D01*
X90137583Y-176653994D01*
X91757170Y-176588994D01*
X93189841Y-176522435D01*
X94432821Y-176454399D01*
X95483335Y-176384968D01*
X96338611Y-176314225D01*
X96995874Y-176242252D01*
X97261458Y-176209643D01*
X97923501Y-176139380D01*
X98620379Y-176077109D01*
X99239084Y-176033355D01*
X99622905Y-176007157D01*
X99996588Y-175967998D01*
X100203610Y-175925989D01*
X100226914Y-175883714D01*
X100208558Y-175874898D01*
X100068671Y-175838815D01*
X99821593Y-175806141D01*
X99453954Y-175776222D01*
X98952382Y-175748407D01*
X98303507Y-175722043D01*
X97493958Y-175696476D01*
X96510363Y-175671055D01*
X95339352Y-175645126D01*
X94640672Y-175628229D01*
X93891039Y-175605014D01*
X93198884Y-175578500D01*
X92600031Y-175550223D01*
X92130301Y-175521718D01*
X91825518Y-175494520D01*
X91744841Y-175485309D01*
X91364579Y-175450891D01*
X90838975Y-175412082D01*
X90210385Y-175371658D01*
X89521162Y-175332397D01*
X88813660Y-175297075D01*
X88563516Y-175285089D01*
X87879292Y-175247962D01*
X87241962Y-175207436D01*
X86689964Y-175166293D01*
X86261734Y-175127310D01*
X85995709Y-175093269D01*
X85902827Y-175077525D01*
X85489247Y-175016167D01*
X84904668Y-174938246D01*
X84170887Y-174846389D01*
X83309699Y-174743224D01*
X82342903Y-174631378D01*
X81292294Y-174513479D01*
X80179668Y-174392153D01*
X79639385Y-174332339D01*
X79036285Y-174261561D01*
X78503269Y-174194847D01*
X78083559Y-174137635D01*
X77820380Y-174095362D01*
X77574928Y-174055658D01*
X77150462Y-174000451D01*
X76642268Y-173943737D01*
X76113660Y-173893023D01*
X75722113Y-173856033D01*
X75097777Y-173788477D01*
X74495892Y-173714669D01*
X74005360Y-173645063D01*
X73873438Y-173624350D01*
X73389545Y-173550194D01*
X72937307Y-173483311D01*
X72600006Y-173436086D01*
X72420774Y-173408860D01*
X71953564Y-173321992D01*
X71371278Y-173200214D01*
X70725702Y-173055604D01*
X70068619Y-172900244D01*
X69451815Y-172746211D01*
X68927073Y-172605588D01*
X68546179Y-172490452D01*
X68360906Y-172423299D01*
X67921893Y-172244847D01*
X67422287Y-172023910D01*
X66938168Y-171793466D01*
X66645329Y-171650409D01*
X66217014Y-171449605D01*
X65854328Y-171289176D01*
X65613819Y-171194690D01*
X65581895Y-171185816D01*
X65333225Y-171145605D01*
X64928554Y-171103511D01*
X64404079Y-171062455D01*
X63795996Y-171025357D01*
X63140501Y-170995138D01*
X62756981Y-170982079D01*
X61134714Y-170969234D01*
X59639327Y-171028290D01*
X58280096Y-171157453D01*
X57066300Y-171354928D01*
X56007217Y-171618921D01*
X55112122Y-171947636D01*
X54390295Y-172339280D01*
X53851012Y-172792057D01*
X53829399Y-172816335D01*
X53628089Y-173173010D01*
X53557249Y-173580307D01*
X52790903Y-173580307D01*
X52859015Y-173293521D01*
X52992018Y-172987651D01*
X53311776Y-172584231D01*
X53802385Y-172191520D01*
X54478483Y-171795986D01*
X54704530Y-171675182D01*
X55022073Y-171479814D01*
X55198810Y-171318865D01*
X55265699Y-171167625D01*
X55318612Y-170990070D01*
X55354526Y-170929952D01*
X55941436Y-170929952D01*
X55975874Y-170982345D01*
X56172701Y-171030350D01*
X56518427Y-171036905D01*
X56984043Y-171002083D01*
X57540538Y-170925956D01*
X57879629Y-170874301D01*
X59030097Y-170743371D01*
X60251916Y-170661928D01*
X61457759Y-170634501D01*
X62560301Y-170665619D01*
X62721719Y-170674828D01*
X63226866Y-170696045D01*
X63654833Y-170702840D01*
X63964603Y-170695031D01*
X64115158Y-170672440D01*
X64132675Y-170620955D01*
X64012021Y-170511083D01*
X63725266Y-170342919D01*
X63261799Y-170109463D01*
X62259115Y-169624814D01*
X61104570Y-169646502D01*
X60627995Y-169660623D01*
X59969249Y-169704650D01*
X59332427Y-169784282D01*
X58646821Y-169909104D01*
X57841724Y-170088697D01*
X57530038Y-170171710D01*
X57073867Y-170321406D01*
X56645532Y-170490402D01*
X56286422Y-170660374D01*
X56037926Y-170812998D01*
X55941436Y-170929952D01*
X55354526Y-170929952D01*
X55466490Y-170742533D01*
X55506605Y-170702452D01*
X55778224Y-170516909D01*
X56177604Y-170319526D01*
X56649572Y-170135170D01*
X57138957Y-169988710D01*
X57291830Y-169950579D01*
X57676557Y-169853725D01*
X57992317Y-169773145D01*
X58174383Y-169733550D01*
X58548490Y-169671747D01*
X58946071Y-169622768D01*
X59287334Y-169588384D01*
X59978006Y-169512958D01*
X60492901Y-169446159D01*
X60849433Y-169385206D01*
X61065016Y-169327317D01*
X61157065Y-169269713D01*
X61158281Y-169258133D01*
X61073960Y-169147740D01*
X60873832Y-168965379D01*
X60598884Y-168744368D01*
X60290099Y-168518027D01*
X59988464Y-168319676D01*
X59961235Y-168300674D01*
X59790638Y-168160203D01*
X59515540Y-167918917D01*
X59167516Y-167604826D01*
X58778138Y-167245940D01*
X58684833Y-167159241D01*
X58275926Y-166782876D01*
X57897075Y-166439463D01*
X57587012Y-166163879D01*
X57384467Y-165990999D01*
X57300019Y-165920705D01*
X56935053Y-165587333D01*
X56501642Y-165156977D01*
X56030236Y-164663380D01*
X55551283Y-164140283D01*
X55095232Y-163621429D01*
X54692532Y-163140559D01*
X54373631Y-162731416D01*
X54168979Y-162427741D01*
X53942659Y-162025020D01*
X53687227Y-161540486D01*
X53528864Y-161194697D01*
X53474530Y-161001945D01*
X53468325Y-160970255D01*
X53342181Y-160844626D01*
X53110795Y-160739045D01*
X52850011Y-160680996D01*
X52635673Y-160697963D01*
X52610307Y-160703565D01*
X52406195Y-160704019D01*
X52057007Y-160676567D01*
X51604222Y-160625086D01*
X51182378Y-160566398D01*
X54011019Y-160566398D01*
X54110623Y-160766190D01*
X54113027Y-160770397D01*
X54229406Y-161025069D01*
X54277692Y-161231186D01*
X54281381Y-161260186D01*
X54356870Y-161460460D01*
X54507448Y-161762545D01*
X54703629Y-162115073D01*
X54915929Y-162466675D01*
X55114864Y-162765984D01*
X55270949Y-162961632D01*
X55352807Y-163049505D01*
X55554196Y-163279596D01*
X55783621Y-163552923D01*
X55980039Y-163786491D01*
X56401549Y-164261834D01*
X56852856Y-164743970D01*
X57294635Y-165192422D01*
X57687564Y-165566713D01*
X57992317Y-165826366D01*
X58155259Y-165957826D01*
X58484802Y-166243918D01*
X58866703Y-166592212D01*
X59247257Y-166954431D01*
X59477562Y-167177921D01*
X59889058Y-167566865D01*
X60267710Y-167902714D01*
X60637730Y-168200021D01*
X61023329Y-168473342D01*
X61448721Y-168737232D01*
X61938117Y-169006245D01*
X62515729Y-169294936D01*
X63205770Y-169617859D01*
X64032451Y-169989571D01*
X65019985Y-170424624D01*
X65359133Y-170575616D01*
X65458757Y-170620955D01*
X65896063Y-170819974D01*
X66475365Y-171088101D01*
X67019269Y-171344226D01*
X67058447Y-171362780D01*
X67625168Y-171614294D01*
X68265619Y-171873384D01*
X68928650Y-172121580D01*
X69563110Y-172340414D01*
X70117852Y-172511416D01*
X70541724Y-172616117D01*
X70556012Y-172618886D01*
X70791431Y-172667497D01*
X71144915Y-172743402D01*
X71545676Y-172831419D01*
X72851181Y-173091301D01*
X74858720Y-173383398D01*
X74922594Y-173390655D01*
X75351145Y-173439307D01*
X75922557Y-173504136D01*
X76589552Y-173579780D01*
X77304849Y-173660876D01*
X78021170Y-173742062D01*
X78226435Y-173765451D01*
X78908582Y-173844940D01*
X79549933Y-173922183D01*
X80110791Y-173992252D01*
X80551458Y-174050216D01*
X80832238Y-174091146D01*
X81203046Y-174144412D01*
X81706644Y-174203752D01*
X82187573Y-174249143D01*
X82377565Y-174265690D01*
X82881761Y-174318108D01*
X83450987Y-174385618D01*
X83994688Y-174457764D01*
X84825279Y-174572310D01*
X85644323Y-174675742D01*
X86363216Y-174753614D01*
X87034150Y-174811506D01*
X87709313Y-174855000D01*
X88040722Y-174874068D01*
X88678493Y-174913715D01*
X89354374Y-174958545D01*
X89968206Y-175002038D01*
X90263134Y-175023347D01*
X91513694Y-175104566D01*
X92933025Y-175183912D01*
X94495726Y-175260126D01*
X96176395Y-175331947D01*
X97949629Y-175398114D01*
X99498527Y-175456007D01*
X100915082Y-175518196D01*
X102147636Y-175583094D01*
X103204730Y-175651198D01*
X104094905Y-175723006D01*
X104826704Y-175799017D01*
X104958411Y-175813875D01*
X105445807Y-175860770D01*
X105724673Y-175883714D01*
X106047330Y-175910261D01*
X106698936Y-175957300D01*
X107336585Y-175996841D01*
X107810768Y-176025990D01*
X108397712Y-176074432D01*
X108845270Y-176131845D01*
X109190652Y-176203413D01*
X109471061Y-176294323D01*
X109595441Y-176341168D01*
X109863296Y-176421774D01*
X110142897Y-176467361D01*
X110471455Y-176478030D01*
X110886180Y-176453884D01*
X111424285Y-176395023D01*
X112122981Y-176301548D01*
X112532468Y-176240789D01*
X113677938Y-176039172D01*
X114853320Y-175791152D01*
X116000983Y-175510455D01*
X117063298Y-175210807D01*
X117982632Y-174905935D01*
X118343465Y-174766799D01*
X118950332Y-174513816D01*
X119662400Y-174201167D01*
X120447482Y-173844290D01*
X121273392Y-173458621D01*
X122107941Y-173059596D01*
X122918943Y-172662652D01*
X123674211Y-172283226D01*
X124341556Y-171936753D01*
X124888793Y-171638672D01*
X125283734Y-171404418D01*
X126280710Y-170712154D01*
X127323371Y-169855958D01*
X128347949Y-168867278D01*
X129388829Y-167715211D01*
X129390080Y-167713744D01*
X129887086Y-167123633D01*
X130265917Y-166655071D01*
X130544726Y-166282285D01*
X130741665Y-165979503D01*
X130874888Y-165720952D01*
X130962545Y-165480859D01*
X130983993Y-165413378D01*
X131139412Y-165037744D01*
X131324189Y-164706008D01*
X131416347Y-164551153D01*
X131578792Y-164223766D01*
X131758557Y-163816299D01*
X131938760Y-163372497D01*
X132102523Y-162936105D01*
X132232964Y-162550869D01*
X132313203Y-162260534D01*
X132326361Y-162108847D01*
X132317959Y-162088111D01*
X132201543Y-161925377D01*
X131999641Y-161822017D01*
X131684478Y-161773405D01*
X131228279Y-161774918D01*
X130603269Y-161821929D01*
X129463363Y-161882670D01*
X128371846Y-161847822D01*
X128208941Y-161834306D01*
X127786339Y-161793737D01*
X127504226Y-161748755D01*
X127316681Y-161685625D01*
X127177782Y-161590614D01*
X127041609Y-161449989D01*
X126925010Y-161298664D01*
X126772990Y-160905134D01*
X126812295Y-160499056D01*
X127038721Y-160098318D01*
X127448064Y-159720805D01*
X127484458Y-159693678D01*
X127721674Y-159499080D01*
X128055391Y-159207665D01*
X128446474Y-158854119D01*
X128855787Y-158473129D01*
X128874855Y-158455090D01*
X129416405Y-157920324D01*
X129815107Y-157465805D01*
X130090754Y-157055963D01*
X130263140Y-156655228D01*
X130352056Y-156228029D01*
X130377297Y-155738797D01*
X130363840Y-155339582D01*
X130314306Y-155061721D01*
X130221754Y-154912801D01*
X130152034Y-154878045D01*
X129899647Y-154812429D01*
X129528833Y-154751045D01*
X129092307Y-154703654D01*
X128937779Y-154690441D01*
X128133570Y-154605342D01*
X127377938Y-154499383D01*
X126701287Y-154378548D01*
X126134018Y-154248821D01*
X125706531Y-154116185D01*
X125449229Y-153986624D01*
X125442089Y-153981008D01*
X125189404Y-153663922D01*
X125069872Y-153265421D01*
X125807546Y-153265421D01*
X125933373Y-153589694D01*
X126174136Y-153819754D01*
X126191279Y-153828816D01*
X126496727Y-153958383D01*
X126879298Y-154061925D01*
X127363678Y-154142694D01*
X127974553Y-154203942D01*
X128736608Y-154248921D01*
X129674530Y-154280884D01*
X129913452Y-154287494D01*
X130532881Y-154309299D01*
X131073741Y-154334986D01*
X131505485Y-154362703D01*
X131797564Y-154390602D01*
X131919431Y-154416831D01*
X131917399Y-154456148D01*
X131783429Y-154541604D01*
X131528041Y-154632330D01*
X131050248Y-154767278D01*
X131071402Y-155646851D01*
X131071433Y-155648124D01*
X131073542Y-156116168D01*
X131046117Y-156452143D01*
X130978598Y-156723717D01*
X130860420Y-156998561D01*
X130857269Y-157004888D01*
X130682852Y-157273124D01*
X130393187Y-157635861D01*
X130022918Y-158056323D01*
X129606689Y-158497735D01*
X129179144Y-158923320D01*
X128774927Y-159296305D01*
X128428682Y-159579912D01*
X128006405Y-159910054D01*
X127648688Y-160248010D01*
X127443360Y-160541200D01*
X127374903Y-160812983D01*
X127427803Y-161086719D01*
X127577014Y-161267344D01*
X127903566Y-161429867D01*
X128367544Y-161543893D01*
X128937381Y-161604340D01*
X129581513Y-161606125D01*
X130268375Y-161544163D01*
X130567699Y-161499866D01*
X131156889Y-161380068D01*
X131654946Y-161213574D01*
X132117366Y-160973984D01*
X132599647Y-160634899D01*
X133157286Y-160169919D01*
X133312353Y-160034186D01*
X133706536Y-159685802D01*
X133976104Y-159437586D01*
X134142026Y-159266232D01*
X134225272Y-159148433D01*
X134246810Y-159060884D01*
X134227609Y-158980277D01*
X134235767Y-158891281D01*
X134329819Y-158670322D01*
X134494999Y-158393900D01*
X134643825Y-158190181D01*
X134854147Y-157989157D01*
X135052789Y-157928766D01*
X135191669Y-157935654D01*
X135279180Y-157986199D01*
X135229232Y-158114647D01*
X135040893Y-158354341D01*
X135020377Y-158379135D01*
X134844224Y-158669408D01*
X134843490Y-158877272D01*
X135007625Y-158994659D01*
X135326078Y-159013503D01*
X135788297Y-158925739D01*
X136090782Y-158829095D01*
X136472324Y-158677662D01*
X136830390Y-158510049D01*
X137109253Y-158352650D01*
X137253192Y-158231861D01*
X137352626Y-158165798D01*
X137543273Y-158132330D01*
X137725345Y-158149538D01*
X137806546Y-158219486D01*
X137791846Y-158255349D01*
X137649717Y-158389250D01*
X137398168Y-158563763D01*
X137088640Y-158747467D01*
X136772573Y-158908936D01*
X136501407Y-159016749D01*
X136281549Y-159075061D01*
X135902087Y-159159699D01*
X135497455Y-159237286D01*
X135178435Y-159308194D01*
X134786448Y-159432078D01*
X134497287Y-159564717D01*
X134355193Y-159665606D01*
X134089081Y-159885396D01*
X133770962Y-160169814D01*
X133434715Y-160486078D01*
X133114216Y-160801411D01*
X132843344Y-161083033D01*
X132655977Y-161298164D01*
X132585992Y-161414026D01*
X132664842Y-161517777D01*
X132859168Y-161635233D01*
X132903645Y-161652315D01*
X133173261Y-161713977D01*
X133557509Y-161766027D01*
X133988614Y-161798657D01*
X134388359Y-161805753D01*
X135454534Y-161726450D01*
X136613306Y-161505506D01*
X137878084Y-161139941D01*
X139262277Y-160626776D01*
X139329111Y-160599722D01*
X139785268Y-160419298D01*
X140174140Y-160272481D01*
X140456348Y-160173751D01*
X140592514Y-160137589D01*
X140664621Y-160143037D01*
X140728579Y-160205231D01*
X140624529Y-160327583D01*
X140365289Y-160498497D01*
X139963680Y-160706379D01*
X139848039Y-160762028D01*
X139512158Y-160932704D01*
X139265419Y-161071707D01*
X139154593Y-161153209D01*
X139144209Y-161176989D01*
X139210310Y-161238301D01*
X139430976Y-161244118D01*
X139777329Y-161201122D01*
X140220490Y-161115990D01*
X140731581Y-160995402D01*
X141281725Y-160846038D01*
X141842042Y-160674577D01*
X142383655Y-160487699D01*
X142877685Y-160292081D01*
X143252862Y-160133267D01*
X143791761Y-159911415D01*
X144293040Y-159711436D01*
X144683621Y-159562841D01*
X145303631Y-159310715D01*
X146291800Y-158812799D01*
X147241642Y-158226085D01*
X148071961Y-157597666D01*
X148118886Y-157557277D01*
X148387839Y-157308535D01*
X148577464Y-157103844D01*
X148649234Y-156984151D01*
X148651405Y-156966231D01*
X148710629Y-156791073D01*
X148834402Y-156501257D01*
X149000617Y-156149305D01*
X149051613Y-156044007D01*
X149254353Y-155550438D01*
X149335518Y-155149758D01*
X149299713Y-154789094D01*
X149151537Y-154415575D01*
X149065179Y-154236199D01*
X148896887Y-153852108D01*
X148740946Y-153461015D01*
X148733721Y-153442017D01*
X148516327Y-153020117D01*
X148168249Y-152555767D01*
X147674307Y-152031042D01*
X147019317Y-151428013D01*
X146651886Y-151163197D01*
X146160184Y-150889268D01*
X145633586Y-150653719D01*
X145153864Y-150497346D01*
X144969846Y-150472073D01*
X144781569Y-150536921D01*
X144745325Y-150725476D01*
X144867182Y-151026538D01*
X144875300Y-151040813D01*
X144988366Y-151272393D01*
X145035004Y-151430913D01*
X145045735Y-151478032D01*
X145139169Y-151670384D01*
X145297413Y-151921531D01*
X145308353Y-151937430D01*
X145464034Y-152215639D01*
X145543180Y-152517653D01*
X145569337Y-152930880D01*
X145554391Y-153348787D01*
X145470628Y-153840456D01*
X145323888Y-154210068D01*
X145125284Y-154420346D01*
X145025326Y-154466388D01*
X144865594Y-154469600D01*
X144807358Y-154314846D01*
X144842927Y-153990415D01*
X144908216Y-153484670D01*
X144903634Y-152794463D01*
X144800423Y-152142452D01*
X144607509Y-151578405D01*
X144333820Y-151152087D01*
X144312394Y-151127755D01*
X144133899Y-150886547D01*
X143957826Y-150599913D01*
X143931796Y-150555227D01*
X143723757Y-150293595D01*
X143497149Y-150117873D01*
X143266912Y-150026269D01*
X142903513Y-149923398D01*
X142523189Y-149847189D01*
X142194753Y-149810867D01*
X141987019Y-149827657D01*
X141916095Y-149864583D01*
X141883684Y-149947425D01*
X141934064Y-150110469D01*
X142074510Y-150401423D01*
X142075403Y-150403186D01*
X142189578Y-150650493D01*
X142265805Y-150889879D01*
X142312739Y-151173514D01*
X142339036Y-151553570D01*
X142353350Y-152082218D01*
X142358950Y-152571130D01*
X142352128Y-152921264D01*
X142328567Y-153135209D01*
X142284509Y-153245978D01*
X142216192Y-153286585D01*
X142155090Y-153278381D01*
X142096066Y-153193468D01*
X142046037Y-152998254D01*
X141997768Y-152662711D01*
X141944025Y-152156808D01*
X141895635Y-151733133D01*
X141830034Y-151294471D01*
X141762147Y-150955276D01*
X141700782Y-150765918D01*
X141563543Y-150528489D01*
X141289373Y-150114472D01*
X141025211Y-149843522D01*
X140724237Y-149686482D01*
X140339630Y-149614193D01*
X139824568Y-149597497D01*
X139424248Y-149606773D01*
X139126594Y-149647946D01*
X138983369Y-149738278D01*
X138970084Y-149895054D01*
X139062248Y-150135559D01*
X139100871Y-150212995D01*
X139226267Y-150417496D01*
X139316796Y-150499517D01*
X139319206Y-150499662D01*
X139388507Y-150601216D01*
X139464784Y-150868447D01*
X139541582Y-151267975D01*
X139612445Y-151766420D01*
X139670916Y-152330403D01*
X139674397Y-152371440D01*
X139700438Y-152756030D01*
X139695299Y-152988559D01*
X139653811Y-153112435D01*
X139570804Y-153171067D01*
X139476629Y-153195723D01*
X139346613Y-153177398D01*
X139323260Y-153113085D01*
X139275114Y-152882240D01*
X139216679Y-152528231D01*
X139155860Y-152095885D01*
X139077516Y-151571591D01*
X138989087Y-151179357D01*
X138874334Y-150868309D01*
X138715810Y-150578282D01*
X138585563Y-150361324D01*
X138458186Y-150128032D01*
X138408917Y-150006430D01*
X138366583Y-149918331D01*
X138225320Y-149762113D01*
X138193000Y-149735347D01*
X138004159Y-149644586D01*
X137732377Y-149607549D01*
X137356190Y-149626326D01*
X136854134Y-149703005D01*
X136204746Y-149839675D01*
X135386560Y-150038427D01*
X134821363Y-150181982D01*
X134279493Y-150322621D01*
X133865661Y-150437340D01*
X133543247Y-150538941D01*
X133275632Y-150640227D01*
X133026199Y-150754000D01*
X132758327Y-150893064D01*
X132435400Y-151070220D01*
X132381705Y-151099749D01*
X131750934Y-151419319D01*
X131137484Y-151669973D01*
X130497822Y-151862818D01*
X129788414Y-152008964D01*
X128965728Y-152119521D01*
X127986231Y-152205597D01*
X127395912Y-152256282D01*
X126722215Y-152344359D01*
X126242612Y-152451803D01*
X125953638Y-152579464D01*
X125851829Y-152728189D01*
X125843489Y-152816472D01*
X125808733Y-153046640D01*
X125807546Y-153265421D01*
X125069872Y-153265421D01*
X125068669Y-153261409D01*
X125088698Y-152843080D01*
X125258304Y-152478546D01*
X125455826Y-152325103D01*
X125811592Y-152166403D01*
X126259169Y-152032351D01*
X126741876Y-151939662D01*
X127203030Y-151905051D01*
X127433877Y-151890086D01*
X127746469Y-151824422D01*
X127977818Y-151724873D01*
X128068206Y-151611689D01*
X128057488Y-151561534D01*
X127931643Y-151353382D01*
X127687372Y-151060650D01*
X127353798Y-150711641D01*
X126960043Y-150334655D01*
X126535230Y-149957996D01*
X126133707Y-149630537D01*
X132822575Y-149630537D01*
X132927756Y-149846356D01*
X132932704Y-149853865D01*
X133026244Y-149971511D01*
X133142550Y-150046972D01*
X133310220Y-150078868D01*
X133557850Y-150065821D01*
X133914037Y-150006450D01*
X134407377Y-149899378D01*
X135066467Y-149743225D01*
X135723474Y-149587183D01*
X136408131Y-149435693D01*
X136989209Y-149328041D01*
X137516879Y-149259696D01*
X138041309Y-149226124D01*
X138612670Y-149222792D01*
X139281130Y-149245169D01*
X140096859Y-149288719D01*
X140696073Y-149327687D01*
X142046280Y-149453280D01*
X143243244Y-149625915D01*
X144318137Y-149851688D01*
X145302127Y-150136690D01*
X146226385Y-150487016D01*
X146460607Y-150584672D01*
X146847131Y-150727790D01*
X147111280Y-150787338D01*
X147291045Y-150769442D01*
X147424411Y-150680229D01*
X147499432Y-150582691D01*
X147550230Y-150305422D01*
X147424920Y-149985385D01*
X147130254Y-149646311D01*
X146969633Y-149510758D01*
X146458240Y-149175709D01*
X145825152Y-148887017D01*
X145050835Y-148637991D01*
X144115754Y-148421943D01*
X143000376Y-148232184D01*
X142633187Y-148177676D01*
X142124777Y-148101244D01*
X141681679Y-148033589D01*
X141370577Y-147984833D01*
X141225125Y-147965686D01*
X140774133Y-147931719D01*
X140196612Y-147910745D01*
X139543794Y-147902630D01*
X138866909Y-147907234D01*
X138217190Y-147924421D01*
X137645868Y-147954053D01*
X137204174Y-147995994D01*
X137039231Y-148017187D01*
X136535815Y-148076150D01*
X135965359Y-148137105D01*
X135422269Y-148189785D01*
X135150937Y-148216655D01*
X134676273Y-148273702D01*
X134269263Y-148334572D01*
X133996202Y-148389958D01*
X133548111Y-148581387D01*
X133148196Y-148901044D01*
X132888266Y-149292149D01*
X132840279Y-149421164D01*
X132822575Y-149630537D01*
X126133707Y-149630537D01*
X126108481Y-149609964D01*
X125708917Y-149318862D01*
X125410854Y-149109975D01*
X124871302Y-148701374D01*
X124341336Y-148268443D01*
X123901803Y-147875741D01*
X123481843Y-147499728D01*
X122965105Y-147098576D01*
X122349770Y-146681007D01*
X121592712Y-146216023D01*
X121142381Y-145950047D01*
X120611794Y-145641189D01*
X120182158Y-145399859D01*
X119811833Y-145204325D01*
X119459180Y-145032855D01*
X119082557Y-144863718D01*
X118640326Y-144675181D01*
X118594437Y-144655896D01*
X118167816Y-144475860D01*
X117810794Y-144320279D01*
X117497528Y-144173406D01*
X117202175Y-144019493D01*
X116898893Y-143842793D01*
X116561839Y-143627557D01*
X116165171Y-143358040D01*
X115683046Y-143018492D01*
X115089621Y-142593167D01*
X114359055Y-142066316D01*
X114073841Y-141859181D01*
X113550332Y-141471789D01*
X113089305Y-141121385D01*
X112716116Y-140827719D01*
X112456120Y-140610538D01*
X112334672Y-140489592D01*
X112278801Y-140419643D01*
X112054363Y-140216366D01*
X111770479Y-140020056D01*
X111522392Y-139837630D01*
X111200541Y-139538064D01*
X110906646Y-139207295D01*
X110825107Y-139107075D01*
X110466651Y-138704628D01*
X110013908Y-138235873D01*
X109512118Y-137744348D01*
X109006518Y-137273592D01*
X108542348Y-136867143D01*
X108164846Y-136568541D01*
X107958292Y-136410591D01*
X107763282Y-136237181D01*
X107687969Y-136134353D01*
X107679685Y-136106424D01*
X107570521Y-135960097D01*
X107375129Y-135767288D01*
X107128159Y-135514248D01*
X106733147Y-134970531D01*
X106381913Y-134323379D01*
X106105561Y-133633406D01*
X105935194Y-132961226D01*
X105917042Y-132870299D01*
X105822767Y-132587350D01*
X105706862Y-132409052D01*
X105682690Y-132388214D01*
X105443749Y-132043253D01*
X105327064Y-131544333D01*
X105331825Y-130888180D01*
X105332636Y-130879063D01*
X105404292Y-130284289D01*
X105510586Y-129825068D01*
X105671606Y-129437519D01*
X105907441Y-129057764D01*
X106043742Y-128829687D01*
X106127295Y-128538323D01*
X106070555Y-128354624D01*
X105901886Y-128298913D01*
X105649653Y-128391516D01*
X105342221Y-128652758D01*
X105145126Y-128830924D01*
X104818617Y-129061844D01*
X104425378Y-129297360D01*
X103999395Y-129521822D01*
X103574653Y-129719577D01*
X103185138Y-129874974D01*
X102864835Y-129972360D01*
X102647731Y-129996084D01*
X102567811Y-129930494D01*
X102582062Y-129902316D01*
X102727212Y-129783350D01*
X102995642Y-129616044D01*
X103345874Y-129427225D01*
X103354029Y-129423103D01*
X103979466Y-129089069D01*
X104448890Y-128791115D01*
X104796037Y-128501109D01*
X105054647Y-128190916D01*
X105258459Y-127832404D01*
X105377682Y-127601471D01*
X105583151Y-127321456D01*
X105791005Y-127228604D01*
X106028020Y-127316523D01*
X106320975Y-127578823D01*
X106450388Y-127722115D01*
X106640538Y-127962878D01*
X106739182Y-128131338D01*
X106745661Y-128149529D01*
X106906011Y-128326256D01*
X107158426Y-128371141D01*
X107437228Y-128271038D01*
X107464331Y-128252380D01*
X107741072Y-127970046D01*
X107990477Y-127574286D01*
X108170762Y-127143864D01*
X108240143Y-126757545D01*
X108246812Y-126582123D01*
X108301051Y-126394129D01*
X108429030Y-126320962D01*
X108476002Y-126314248D01*
X108787545Y-126381010D01*
X109089362Y-126626632D01*
X109357540Y-127032779D01*
X109357737Y-127033169D01*
X109527546Y-127327137D01*
X109662960Y-127434331D01*
X109793698Y-127358245D01*
X109949473Y-127102373D01*
X110027595Y-126927223D01*
X110044654Y-126727170D01*
X109959125Y-126468718D01*
X109803271Y-126193262D01*
X109451778Y-125775698D01*
X108976865Y-125340460D01*
X108416818Y-124915880D01*
X107809921Y-124530290D01*
X107194460Y-124212020D01*
X106608720Y-123989401D01*
X106489936Y-123948941D01*
X106269478Y-123836408D01*
X106182040Y-123730203D01*
X106188462Y-123683704D01*
X106304669Y-123576949D01*
X106575222Y-123542660D01*
X107011211Y-123580531D01*
X107623724Y-123690255D01*
X107714803Y-123709089D01*
X108168976Y-123802726D01*
X108460356Y-123858861D01*
X108618318Y-123878917D01*
X108672235Y-123864318D01*
X108651483Y-123816486D01*
X108585436Y-123736844D01*
X108353773Y-123543863D01*
X107940144Y-123316400D01*
X107385817Y-123080117D01*
X106720736Y-122846471D01*
X105974845Y-122626921D01*
X105178087Y-122432926D01*
X104714880Y-122338558D01*
X103793991Y-122191216D01*
X102818266Y-122089656D01*
X101759305Y-122032661D01*
X100588712Y-122019015D01*
X99278088Y-122047501D01*
X97799036Y-122116904D01*
X96982185Y-122164710D01*
X96201831Y-122215206D01*
X95581787Y-122263409D01*
X95100394Y-122312587D01*
X94735994Y-122366004D01*
X94466928Y-122426926D01*
X94271536Y-122498617D01*
X94128162Y-122584343D01*
X94015145Y-122687370D01*
X93906311Y-122767411D01*
X93835490Y-122819496D01*
X93591016Y-122890822D01*
X93420720Y-122919644D01*
X93114185Y-123015627D01*
X92766666Y-123155635D01*
X92580892Y-123234894D01*
X92035701Y-123441116D01*
X91364209Y-123669189D01*
X90615003Y-123904184D01*
X89836672Y-124131171D01*
X89077801Y-124335221D01*
X88386981Y-124501403D01*
X88058857Y-124590999D01*
X87857342Y-124682569D01*
X87823795Y-124751932D01*
X87964711Y-124782503D01*
X88286585Y-124757701D01*
X88514405Y-124733731D01*
X88915616Y-124702077D01*
X89436739Y-124667202D01*
X90035837Y-124631898D01*
X90670973Y-124598958D01*
X91194032Y-124572968D01*
X91890205Y-124536351D01*
X92553390Y-124499413D01*
X93127723Y-124465286D01*
X93557336Y-124437104D01*
X93662220Y-124429931D01*
X94148851Y-124409097D01*
X94439628Y-124422986D01*
X94536190Y-124471654D01*
X94515167Y-124542144D01*
X94428940Y-124605991D01*
X94254735Y-124657822D01*
X93970001Y-124700956D01*
X93552185Y-124738709D01*
X92978735Y-124774399D01*
X92227099Y-124811345D01*
X90976476Y-124876462D01*
X89910149Y-124949801D01*
X89041291Y-125030903D01*
X88368302Y-125119980D01*
X87889579Y-125217244D01*
X87603519Y-125322908D01*
X87508522Y-125437184D01*
X87526936Y-125463387D01*
X87625074Y-125495034D01*
X87822887Y-125520590D01*
X88137225Y-125540777D01*
X88584940Y-125556316D01*
X89182883Y-125567928D01*
X89947907Y-125576335D01*
X90896862Y-125582259D01*
X91731649Y-125587466D01*
X92676915Y-125598068D01*
X93448783Y-125613819D01*
X94062869Y-125635751D01*
X94534790Y-125664897D01*
X94880161Y-125702289D01*
X95114601Y-125748961D01*
X95253725Y-125805944D01*
X95313150Y-125874271D01*
X95314186Y-125877870D01*
X95267934Y-125934817D01*
X95083584Y-125976381D01*
X94740277Y-126005426D01*
X94217153Y-126024818D01*
X93080459Y-126053272D01*
X93431842Y-126252687D01*
X93783226Y-126452101D01*
X93494937Y-126486422D01*
X93294964Y-126483170D01*
X92950405Y-126434295D01*
X92570254Y-126348479D01*
X92440706Y-126314356D01*
X92096605Y-126242615D01*
X91854420Y-126237349D01*
X91647833Y-126294690D01*
X91637236Y-126299174D01*
X91319004Y-126537819D01*
X91102360Y-126905723D01*
X91022356Y-127344078D01*
X90998053Y-127605384D01*
X90979066Y-127680233D01*
X90923617Y-127898812D01*
X90823795Y-128117720D01*
X90821539Y-128122668D01*
X90714914Y-128211770D01*
X90706403Y-128213280D01*
X90598958Y-128308009D01*
X90454942Y-128504819D01*
X90273143Y-128738674D01*
X89846493Y-129123591D01*
X89286398Y-129501037D01*
X88632469Y-129845548D01*
X87924314Y-130131661D01*
X87653617Y-130206099D01*
X87036120Y-130293429D01*
X86304596Y-130316415D01*
X85508542Y-130274512D01*
X84697455Y-130167175D01*
X84661059Y-130160802D01*
X83790571Y-130000570D01*
X83078104Y-129848415D01*
X82483632Y-129690692D01*
X81967128Y-129513757D01*
X81488566Y-129303963D01*
X81007919Y-129047668D01*
X80485160Y-128731224D01*
X80471712Y-128722755D01*
X80252682Y-128588913D01*
X82049608Y-128588913D01*
X82093090Y-128724792D01*
X82209244Y-128844896D01*
X82485120Y-128914537D01*
X82718806Y-128955275D01*
X82935950Y-129074885D01*
X83027464Y-129135391D01*
X83311112Y-129229216D01*
X83693536Y-129289388D01*
X83962936Y-129322775D01*
X84179112Y-129371159D01*
X84244263Y-129418800D01*
X84256213Y-129446726D01*
X84408370Y-129500660D01*
X84690048Y-129552834D01*
X85055225Y-129597016D01*
X85457883Y-129626976D01*
X85852000Y-129636482D01*
X86112742Y-129641741D01*
X86220448Y-129667735D01*
X86153186Y-129718358D01*
X86071021Y-129767241D01*
X86133715Y-129798473D01*
X86379075Y-129811038D01*
X86491746Y-129809327D01*
X86716425Y-129777512D01*
X86805755Y-129717699D01*
X86806662Y-129710183D01*
X86909837Y-129641778D01*
X87132040Y-129609249D01*
X87375263Y-129570729D01*
X87711861Y-129455431D01*
X88055204Y-129290682D01*
X88355763Y-129104046D01*
X88564013Y-128923084D01*
X88630426Y-128775361D01*
X88626158Y-128747232D01*
X88654362Y-128632188D01*
X88816048Y-128643065D01*
X88943646Y-128667101D01*
X88980590Y-128646421D01*
X88975594Y-128635767D01*
X89033230Y-128523837D01*
X89196549Y-128355210D01*
X89466230Y-128117720D01*
X89159134Y-128114548D01*
X88900644Y-128151234D01*
X88657157Y-128258775D01*
X88442337Y-128359520D01*
X88151552Y-128409368D01*
X87909601Y-128455870D01*
X87659115Y-128613351D01*
X87505033Y-128745129D01*
X87336444Y-128814142D01*
X87277233Y-128826144D01*
X87257534Y-128914537D01*
X87289833Y-129067345D01*
X87188282Y-129142514D01*
X87004027Y-129090455D01*
X86982345Y-129077448D01*
X86774483Y-129019816D01*
X86502988Y-129085194D01*
X86363445Y-129129269D01*
X86182236Y-129136976D01*
X85962314Y-129067508D01*
X85637298Y-128907219D01*
X85361628Y-128757982D01*
X85222478Y-128664638D01*
X85229494Y-128622332D01*
X85364928Y-128611814D01*
X85588752Y-128589473D01*
X85783479Y-128526405D01*
X85794528Y-128518812D01*
X85816806Y-128430636D01*
X85692198Y-128344181D01*
X85469557Y-128275096D01*
X85197738Y-128239028D01*
X84925597Y-128251627D01*
X84773749Y-128275161D01*
X84390997Y-128328367D01*
X83994688Y-128377625D01*
X83782337Y-128410811D01*
X83437058Y-128498682D01*
X83195409Y-128602608D01*
X83179662Y-128612749D01*
X83037850Y-128683983D01*
X83018547Y-128649930D01*
X83019868Y-128575549D01*
X82883074Y-128500842D01*
X82627689Y-128468733D01*
X82300604Y-128489687D01*
X82141997Y-128520196D01*
X82049608Y-128588913D01*
X80252682Y-128588913D01*
X80159805Y-128532159D01*
X79895200Y-128392687D01*
X79628713Y-128288221D01*
X79311160Y-128202642D01*
X78893359Y-128119833D01*
X78326124Y-128023676D01*
X78182384Y-127999535D01*
X77658538Y-127902956D01*
X77196480Y-127805090D01*
X76841825Y-127716147D01*
X76640190Y-127646335D01*
X76388305Y-127446374D01*
X76222967Y-127091411D01*
X76217458Y-126623748D01*
X76224063Y-126572360D01*
X76225626Y-126513464D01*
X76892075Y-126513464D01*
X76901179Y-126804633D01*
X76977393Y-127096556D01*
X77098967Y-127289156D01*
X77217100Y-127350526D01*
X77482826Y-127451178D01*
X77820380Y-127557576D01*
X77939815Y-127588481D01*
X78372489Y-127671506D01*
X78887252Y-127741142D01*
X79396966Y-127784830D01*
X80371181Y-127838876D01*
X80311737Y-127096667D01*
X80307282Y-127042322D01*
X80274683Y-126706762D01*
X80835647Y-126706762D01*
X80849815Y-126978777D01*
X80932837Y-127312880D01*
X81059931Y-127626055D01*
X81206316Y-127835288D01*
X81211981Y-127838876D01*
X81339839Y-127919852D01*
X81543115Y-127973631D01*
X81856157Y-127998741D01*
X82324190Y-128001925D01*
X82856343Y-127983998D01*
X83393041Y-127927386D01*
X83760483Y-127835350D01*
X83944041Y-127710521D01*
X83954374Y-127680233D01*
X83950389Y-127487479D01*
X83896001Y-127214161D01*
X83893373Y-127204357D01*
X83849886Y-127044502D01*
X83797742Y-126929588D01*
X83705225Y-126847607D01*
X83540619Y-126786555D01*
X83272208Y-126734424D01*
X82868275Y-126679210D01*
X82297104Y-126608906D01*
X82242851Y-126602263D01*
X81692401Y-126540758D01*
X81307709Y-126513445D01*
X81059024Y-126521042D01*
X80916591Y-126564268D01*
X80850658Y-126643842D01*
X80835647Y-126706762D01*
X80274683Y-126706762D01*
X80272676Y-126686105D01*
X80238005Y-126423077D01*
X80210158Y-126306805D01*
X80163178Y-126296243D01*
X79946034Y-126280011D01*
X79584711Y-126265746D01*
X79114082Y-126254697D01*
X78569019Y-126248109D01*
X78340383Y-126246681D01*
X77800466Y-126246115D01*
X77421092Y-126253346D01*
X77172352Y-126271537D01*
X77024337Y-126303853D01*
X76947135Y-126353456D01*
X76910838Y-126423512D01*
X76892075Y-126513464D01*
X76225626Y-126513464D01*
X76230970Y-126312071D01*
X76192459Y-126153668D01*
X76145325Y-126111597D01*
X75934658Y-125980762D01*
X75615499Y-125812181D01*
X75240479Y-125630808D01*
X74862227Y-125461597D01*
X74533373Y-125329501D01*
X74306546Y-125259475D01*
X74120241Y-125234840D01*
X73755242Y-125200383D01*
X73256098Y-125160308D01*
X72657570Y-125116805D01*
X71994419Y-125072064D01*
X71301406Y-125028275D01*
X70613293Y-124987628D01*
X69964842Y-124952313D01*
X69390813Y-124924521D01*
X68925968Y-124906441D01*
X68605068Y-124900264D01*
X68421018Y-124901479D01*
X68015145Y-124920393D01*
X67780790Y-124978761D01*
X67696418Y-125097775D01*
X67740497Y-125298628D01*
X67891493Y-125602510D01*
X68026726Y-125827539D01*
X68237071Y-126113486D01*
X68417206Y-126291628D01*
X68441675Y-126308457D01*
X68738886Y-126533274D01*
X69029575Y-126783776D01*
X69275530Y-127023008D01*
X69438539Y-127214014D01*
X69480389Y-127319838D01*
X69479626Y-127321062D01*
X69317084Y-127403752D01*
X69036285Y-127331334D01*
X68644205Y-127105596D01*
X68474120Y-126998877D01*
X68200792Y-126860422D01*
X68011759Y-126806237D01*
X67896462Y-126829962D01*
X67643423Y-126984249D01*
X67394141Y-127231152D01*
X67203975Y-127510722D01*
X67128285Y-127763006D01*
X67094630Y-128054161D01*
X67010319Y-128373151D01*
X67002679Y-128394683D01*
X66948940Y-128630635D01*
X66969172Y-128882670D01*
X67069030Y-129233638D01*
X67108222Y-129368613D01*
X67196737Y-129776047D01*
X67276883Y-130269948D01*
X67335088Y-130771849D01*
X67358716Y-131008841D01*
X67421131Y-131495502D01*
X67493157Y-131925684D01*
X67563504Y-132227443D01*
X67632271Y-132490272D01*
X67646709Y-132771572D01*
X67573563Y-133080802D01*
X67564463Y-133109852D01*
X67478328Y-133434248D01*
X67382319Y-133862021D01*
X67287851Y-134333462D01*
X67206336Y-134788863D01*
X67149188Y-135168516D01*
X67127819Y-135412711D01*
X67118983Y-135463798D01*
X66990563Y-135694988D01*
X66715086Y-136038336D01*
X66300024Y-136484170D01*
X65994280Y-136798691D01*
X65673010Y-137132499D01*
X65417829Y-137401235D01*
X65266072Y-137565839D01*
X65097456Y-137735980D01*
X64823339Y-137986087D01*
X64513119Y-138251296D01*
X64232076Y-138491335D01*
X63864687Y-138823192D01*
X63564266Y-139113322D01*
X63408528Y-139265345D01*
X63090440Y-139546764D01*
X62811289Y-139761885D01*
X62568909Y-139938831D01*
X62193029Y-140233487D01*
X61744442Y-140598435D01*
X61263490Y-140999955D01*
X60790513Y-141404328D01*
X60365850Y-141777837D01*
X60029844Y-142086762D01*
X59555908Y-142637656D01*
X59136739Y-143335144D01*
X59121774Y-143365145D01*
X58880132Y-143799452D01*
X58604560Y-144226015D01*
X58351810Y-144556530D01*
X58172479Y-144765136D01*
X57883919Y-145115388D01*
X57651190Y-145414146D01*
X57623344Y-145451064D01*
X57395904Y-145731256D01*
X57096033Y-146077917D01*
X56780922Y-146424641D01*
X56576262Y-146652318D01*
X56381300Y-146896782D01*
X56192687Y-147172818D01*
X55992569Y-147510686D01*
X55763093Y-147940644D01*
X55486404Y-148492954D01*
X55144650Y-149197873D01*
X55046559Y-149424308D01*
X54905280Y-149836490D01*
X54794645Y-150261426D01*
X54724978Y-150649062D01*
X54718062Y-150762078D01*
X54706601Y-150949344D01*
X54749839Y-151112218D01*
X54776892Y-151134687D01*
X55019177Y-151227984D01*
X55411277Y-151291018D01*
X55912745Y-151324307D01*
X56483131Y-151328363D01*
X57081987Y-151303704D01*
X57668864Y-151250845D01*
X58203313Y-151170301D01*
X58644886Y-151062587D01*
X59162665Y-150940356D01*
X59752947Y-150922263D01*
X60372854Y-151044689D01*
X61073691Y-151312921D01*
X61473583Y-151554004D01*
X61725975Y-151873662D01*
X61789201Y-152183398D01*
X61807336Y-152272237D01*
X61779906Y-152589462D01*
X61617367Y-153015190D01*
X61284686Y-153416242D01*
X61134862Y-153549981D01*
X60471480Y-153977368D01*
X59650131Y-154288163D01*
X58676346Y-154480682D01*
X57555656Y-154553237D01*
X57110841Y-154554679D01*
X56560303Y-154549250D01*
X56070951Y-154537082D01*
X55712565Y-154519453D01*
X55417052Y-154505680D01*
X55150982Y-154511671D01*
X55023339Y-154539378D01*
X55021137Y-154621921D01*
X55089662Y-154839869D01*
X55219889Y-155132237D01*
X55330793Y-155366331D01*
X55440130Y-155630235D01*
X55482435Y-155781614D01*
X55486816Y-155822217D01*
X55566862Y-155937594D01*
X55638119Y-155998074D01*
X55802297Y-156182664D01*
X56007942Y-156441610D01*
X56150600Y-156620129D01*
X56453819Y-156961143D01*
X56735266Y-157237614D01*
X57029331Y-157498804D01*
X57399880Y-157846496D01*
X57648907Y-158117962D01*
X57798919Y-158343095D01*
X57872422Y-158551791D01*
X57891921Y-158773942D01*
X57830073Y-159047883D01*
X57601678Y-159352184D01*
X57238649Y-159605221D01*
X56776612Y-159793261D01*
X56251193Y-159902569D01*
X55698014Y-159919409D01*
X55152702Y-159830045D01*
X55051097Y-159803851D01*
X54701969Y-159770859D01*
X54433810Y-159880906D01*
X54178954Y-160156692D01*
X54126148Y-160228836D01*
X54012774Y-160417788D01*
X54011019Y-160566398D01*
X51182378Y-160566398D01*
X51089323Y-160553452D01*
X50495382Y-160467675D01*
X49822120Y-160377549D01*
X49181199Y-160298108D01*
X48655558Y-160240033D01*
X48379765Y-160211591D01*
X47861840Y-160153685D01*
X47392264Y-160096009D01*
X47046837Y-160047629D01*
X46532769Y-159940466D01*
X45762851Y-159713016D01*
X44923696Y-159405462D01*
X44059569Y-159038151D01*
X43214735Y-158631426D01*
X42433461Y-158205631D01*
X41760012Y-157781111D01*
X41238654Y-157378211D01*
X40856524Y-157026574D01*
X40238230Y-156396853D01*
X39768129Y-155818922D01*
X39425172Y-155268292D01*
X39264083Y-154967531D01*
X39046822Y-154575414D01*
X38866722Y-154264340D01*
X38781505Y-154108180D01*
X38658585Y-153736625D01*
X38628277Y-153368170D01*
X39334744Y-153368170D01*
X39430346Y-153939695D01*
X39689862Y-154562566D01*
X40117764Y-155262192D01*
X40233910Y-155438350D01*
X40370075Y-155671521D01*
X40423147Y-155803244D01*
X40428129Y-155817705D01*
X40531538Y-155949904D01*
X40748404Y-156182971D01*
X41051827Y-156488805D01*
X41414908Y-156839306D01*
X41463283Y-156885014D01*
X41905124Y-157289403D01*
X42289269Y-157605221D01*
X42676054Y-157874901D01*
X43125819Y-158140878D01*
X43698900Y-158445586D01*
X44321692Y-158754057D01*
X45530969Y-159272187D01*
X46655729Y-159642325D01*
X47678051Y-159858110D01*
X47772081Y-159870839D01*
X48211884Y-159909957D01*
X48492780Y-159896966D01*
X48605060Y-159836180D01*
X48539014Y-159731913D01*
X48284935Y-159588477D01*
X47280802Y-159103010D01*
X46239114Y-158536556D01*
X45360783Y-157982808D01*
X44657283Y-157449089D01*
X44140084Y-156942722D01*
X43955771Y-156719378D01*
X43797827Y-156508113D01*
X43736838Y-156397739D01*
X43822655Y-156344674D01*
X44031400Y-156322442D01*
X44060080Y-156323032D01*
X44263932Y-156373211D01*
X44476759Y-156527875D01*
X44746496Y-156820403D01*
X45100664Y-157186786D01*
X45732751Y-157701438D01*
X46515638Y-158223738D01*
X47422229Y-158738597D01*
X48425428Y-159230923D01*
X49498139Y-159685628D01*
X50613265Y-160087621D01*
X51333456Y-160285151D01*
X52130365Y-160386569D01*
X52827701Y-160327797D01*
X53437265Y-160108925D01*
X53693211Y-159936343D01*
X53818477Y-159723788D01*
X53743721Y-159507154D01*
X53736704Y-159499368D01*
X53586834Y-159389467D01*
X53300379Y-159214547D01*
X52915556Y-158997051D01*
X52470577Y-158759424D01*
X52038329Y-158528661D01*
X51460661Y-158205864D01*
X50909804Y-157884259D01*
X50462341Y-157607762D01*
X50243269Y-157467476D01*
X49846554Y-157219508D01*
X49505568Y-157013669D01*
X49276293Y-156884113D01*
X49220724Y-156853353D01*
X49037833Y-156711146D01*
X48984771Y-156592640D01*
X49010327Y-156551715D01*
X49180018Y-156505008D01*
X49456773Y-156562392D01*
X49796720Y-156717140D01*
X49924397Y-156789867D01*
X50365804Y-157049919D01*
X50820101Y-157327965D01*
X51224652Y-157585202D01*
X51516822Y-157782824D01*
X51689431Y-157896125D01*
X52085592Y-158123418D01*
X52585638Y-158386044D01*
X53139027Y-158659308D01*
X53695221Y-158918518D01*
X54203678Y-159138980D01*
X54613859Y-159296000D01*
X55132930Y-159440726D01*
X56009719Y-159535091D01*
X56043509Y-159535065D01*
X56410756Y-159525789D01*
X56648870Y-159485924D01*
X56824430Y-159395287D01*
X57004018Y-159233696D01*
X57083444Y-159148651D01*
X57234432Y-158905644D01*
X57255626Y-158652511D01*
X57138345Y-158363008D01*
X56873907Y-158010890D01*
X56453628Y-157569911D01*
X55984744Y-157094173D01*
X55597111Y-156659365D01*
X55285856Y-156246421D01*
X55010227Y-155800946D01*
X54729471Y-155268546D01*
X54517968Y-154867249D01*
X54334943Y-154587542D01*
X54155394Y-154406001D01*
X53943415Y-154277352D01*
X53807547Y-154205883D01*
X53652462Y-154081550D01*
X53667513Y-153981000D01*
X53702330Y-153957929D01*
X53881620Y-153928770D01*
X54207616Y-153945438D01*
X54704557Y-154008576D01*
X54732710Y-154012630D01*
X55208768Y-154067758D01*
X55806608Y-154118891D01*
X56452635Y-154160485D01*
X57073254Y-154186997D01*
X57093632Y-154187594D01*
X57669465Y-154201742D01*
X58096793Y-154201836D01*
X58426171Y-154182796D01*
X58708153Y-154139546D01*
X58993293Y-154067007D01*
X59332147Y-153960101D01*
X59415660Y-153932260D01*
X60008773Y-153700950D01*
X60451050Y-153448648D01*
X60786685Y-153144606D01*
X61059874Y-152758080D01*
X61211043Y-152458161D01*
X61252992Y-152183398D01*
X61133508Y-151944519D01*
X60840922Y-151684289D01*
X60446704Y-151445495D01*
X59921857Y-151291586D01*
X59314629Y-151282221D01*
X58592702Y-151413507D01*
X57893946Y-151541814D01*
X56992517Y-151613267D01*
X56002306Y-151614706D01*
X54974100Y-151549498D01*
X53958687Y-151421011D01*
X53006855Y-151232611D01*
X52169392Y-150987666D01*
X51595840Y-150785450D01*
X50624375Y-150456402D01*
X49810659Y-150201611D01*
X49137784Y-150016230D01*
X48588847Y-149895412D01*
X48146943Y-149834309D01*
X47885231Y-149813563D01*
X47593017Y-149802413D01*
X47413183Y-149828650D01*
X47291738Y-149903621D01*
X47174694Y-150038676D01*
X47156072Y-150063557D01*
X46993659Y-150424187D01*
X46894790Y-150952657D01*
X46873357Y-151181054D01*
X46869286Y-151490706D01*
X46920402Y-151723797D01*
X47037811Y-151958435D01*
X47158899Y-152175341D01*
X47235885Y-152381482D01*
X47191233Y-152481285D01*
X47024135Y-152507184D01*
X46871777Y-152463295D01*
X46710204Y-152296966D01*
X46519646Y-151973719D01*
X46241047Y-151440493D01*
X46451375Y-150759531D01*
X46521010Y-150529290D01*
X46608798Y-150163794D01*
X46594777Y-149941394D01*
X46454531Y-149832057D01*
X46163643Y-149805747D01*
X45697698Y-149832431D01*
X45172189Y-149882377D01*
X44767073Y-149950614D01*
X44511053Y-150043003D01*
X44377195Y-150169613D01*
X44338562Y-150340515D01*
X44315587Y-150511867D01*
X44238166Y-150650110D01*
X44190205Y-150698757D01*
X44141049Y-150909705D01*
X44182971Y-151194490D01*
X44309835Y-151481903D01*
X44377989Y-151584580D01*
X44581971Y-151868043D01*
X44811811Y-152166379D01*
X44972896Y-152378825D01*
X45114545Y-152626768D01*
X45109615Y-152765442D01*
X44961308Y-152808608D01*
X44815112Y-152761058D01*
X44568708Y-152574342D01*
X44298630Y-152286801D01*
X44044710Y-151942193D01*
X43846781Y-151584275D01*
X43822546Y-151529970D01*
X43694566Y-151219814D01*
X43648974Y-151008835D01*
X43681481Y-150825229D01*
X43787794Y-150597193D01*
X43793802Y-150585563D01*
X43882341Y-150388411D01*
X43855109Y-150296351D01*
X43694289Y-150241641D01*
X43581541Y-150237727D01*
X43291290Y-150276360D01*
X42900433Y-150355833D01*
X42462463Y-150462779D01*
X42030873Y-150583830D01*
X41659156Y-150705618D01*
X41400806Y-150814775D01*
X41331580Y-150857108D01*
X41131992Y-151107847D01*
X41100403Y-151457186D01*
X41238609Y-151893189D01*
X41333002Y-152081306D01*
X41727923Y-152724547D01*
X42210840Y-153355685D01*
X42717015Y-153887399D01*
X42869623Y-154029939D01*
X43044289Y-154218846D01*
X43092143Y-154335307D01*
X43033423Y-154412937D01*
X42985298Y-154444010D01*
X42868131Y-154496098D01*
X42748007Y-154475031D01*
X42574723Y-154362075D01*
X42298077Y-154138492D01*
X42235382Y-154086015D01*
X41899569Y-153773425D01*
X41595999Y-153422107D01*
X41286610Y-152983867D01*
X40933339Y-152410513D01*
X40715372Y-152061204D01*
X40464630Y-151745124D01*
X40248888Y-151613837D01*
X40046849Y-151665788D01*
X39837212Y-151899424D01*
X39598680Y-152313193D01*
X39398584Y-152822586D01*
X39334744Y-153368170D01*
X38628277Y-153368170D01*
X38620386Y-153272237D01*
X38634305Y-152937713D01*
X38696389Y-152640284D01*
X38827780Y-152337387D01*
X39049573Y-151980583D01*
X39382864Y-151521433D01*
X39490582Y-151374013D01*
X39628017Y-151134394D01*
X39672366Y-150905664D01*
X39650756Y-150593905D01*
X39628865Y-150367329D01*
X40265073Y-150367329D01*
X40338383Y-150511303D01*
X40410145Y-150551468D01*
X40574732Y-150591370D01*
X40799764Y-150561426D01*
X41147504Y-150457496D01*
X41917268Y-150215027D01*
X43181580Y-149881152D01*
X44413988Y-149646174D01*
X45693898Y-149493251D01*
X46513464Y-149444335D01*
X47568270Y-149461042D01*
X48615735Y-149577870D01*
X49696371Y-149801788D01*
X50850687Y-150139766D01*
X52119194Y-150598776D01*
X52462259Y-150729476D01*
X52865839Y-150867062D01*
X53154361Y-150934939D01*
X53368725Y-150941589D01*
X53549826Y-150895496D01*
X53633754Y-150859632D01*
X53751340Y-150762078D01*
X53722272Y-150621562D01*
X53546216Y-150391352D01*
X53266624Y-150116139D01*
X52785635Y-149789999D01*
X52165737Y-149506377D01*
X51386511Y-149256365D01*
X50427536Y-149031057D01*
X49710664Y-148894837D01*
X48798827Y-148760808D01*
X47924447Y-148686879D01*
X47041617Y-148672734D01*
X46104430Y-148718054D01*
X45066981Y-148822523D01*
X43883363Y-148985823D01*
X43234395Y-149085472D01*
X42589731Y-149189620D01*
X42090191Y-149278880D01*
X41705986Y-149359630D01*
X41407326Y-149438253D01*
X41164422Y-149521128D01*
X40947483Y-149614635D01*
X40777200Y-149709582D01*
X40512994Y-149924495D01*
X40332781Y-150157735D01*
X40265073Y-150367329D01*
X39628865Y-150367329D01*
X39627415Y-150352321D01*
X39647185Y-150140030D01*
X39753894Y-149965636D01*
X39980265Y-149744815D01*
X40087605Y-149655303D01*
X40471916Y-149410489D01*
X40864870Y-149241956D01*
X41069519Y-149170133D01*
X41532625Y-148945308D01*
X41987871Y-148655252D01*
X42373947Y-148341528D01*
X42629545Y-148045697D01*
X42730057Y-147912623D01*
X42968291Y-147647707D01*
X43286596Y-147324513D01*
X43644156Y-146985683D01*
X44048458Y-146621069D01*
X44441285Y-146281171D01*
X44848302Y-145947275D01*
X45319314Y-145578579D01*
X45904127Y-145134282D01*
X45999231Y-145061614D01*
X46321631Y-144804289D01*
X46597455Y-144570387D01*
X46612822Y-144556971D01*
X46864350Y-144370545D01*
X47217674Y-144144577D01*
X47601407Y-143924961D01*
X47668566Y-143888729D01*
X48016341Y-143694027D01*
X48296902Y-143525884D01*
X48454767Y-143417306D01*
X48591968Y-143317111D01*
X48856758Y-143145943D01*
X49177133Y-142952473D01*
X49629346Y-142687641D01*
X50381115Y-142244089D01*
X51048559Y-141846027D01*
X51609182Y-141507000D01*
X52040489Y-141240553D01*
X52319985Y-141060228D01*
X52400970Y-141006866D01*
X52723255Y-140805128D01*
X53207556Y-140511384D01*
X53844967Y-140130932D01*
X54626580Y-139669070D01*
X55543488Y-139131096D01*
X56586783Y-138522309D01*
X56794132Y-138400846D01*
X57178722Y-138171712D01*
X57496057Y-137977829D01*
X57692720Y-137851596D01*
X57813465Y-137773710D01*
X58045471Y-137640081D01*
X58373844Y-137465337D01*
X58819948Y-137238464D01*
X59405150Y-136948446D01*
X60150815Y-136584267D01*
X60506152Y-136408868D01*
X61231113Y-136027883D01*
X61770139Y-135705702D01*
X62126849Y-135440229D01*
X62165785Y-135408154D01*
X62394625Y-135253968D01*
X62679023Y-135093489D01*
X62822948Y-135015198D01*
X63174936Y-134802482D01*
X63517865Y-134573492D01*
X63780262Y-134415840D01*
X64184341Y-134211149D01*
X64667659Y-133990850D01*
X65174386Y-133781630D01*
X65494580Y-133655788D01*
X66060986Y-133423483D01*
X66471724Y-133234553D01*
X66750289Y-133074241D01*
X66920175Y-132927790D01*
X67004877Y-132780442D01*
X67027890Y-132617441D01*
X66992034Y-132368795D01*
X66881563Y-132097589D01*
X66877391Y-132090972D01*
X66796528Y-131860435D01*
X66730148Y-131482910D01*
X66687395Y-131009632D01*
X66687387Y-131009478D01*
X66634466Y-130483557D01*
X66541628Y-129946665D01*
X66427178Y-129504668D01*
X66323802Y-129151890D01*
X66260488Y-128734443D01*
X66278054Y-128302281D01*
X66284321Y-128249191D01*
X66364550Y-127839616D01*
X66512939Y-127502240D01*
X66763935Y-127178189D01*
X67151985Y-126808586D01*
X67624173Y-126392951D01*
X67270848Y-125699650D01*
X67239889Y-125639164D01*
X67055859Y-125302388D01*
X66908773Y-125101700D01*
X66760055Y-124995295D01*
X66571125Y-124941365D01*
X66395816Y-124897670D01*
X66244749Y-124807363D01*
X66286450Y-124713245D01*
X66523662Y-124633130D01*
X66618330Y-124611165D01*
X66875527Y-124484472D01*
X66996788Y-124257021D01*
X67001299Y-124119745D01*
X67549147Y-124119745D01*
X67580064Y-124547344D01*
X68082040Y-124570114D01*
X68114963Y-124571623D01*
X68401196Y-124585168D01*
X68841375Y-124606413D01*
X69396173Y-124633443D01*
X70026262Y-124664345D01*
X70692317Y-124697202D01*
X70775746Y-124701348D01*
X71460261Y-124736656D01*
X72120656Y-124772805D01*
X72712818Y-124807240D01*
X73192634Y-124837406D01*
X73515991Y-124860747D01*
X73897940Y-124881882D01*
X74179811Y-124864483D01*
X74305386Y-124800209D01*
X74337366Y-124722179D01*
X74304455Y-124628227D01*
X74160452Y-124545741D01*
X73883170Y-124466991D01*
X73450419Y-124384249D01*
X72840010Y-124289787D01*
X72628536Y-124259004D01*
X71513524Y-124097263D01*
X70578533Y-123962885D01*
X69807734Y-123853846D01*
X69185299Y-123768123D01*
X68695398Y-123703693D01*
X68322204Y-123658531D01*
X68049888Y-123630614D01*
X67862621Y-123617919D01*
X67744576Y-123618423D01*
X67679922Y-123630100D01*
X67619664Y-123666213D01*
X67550620Y-123820292D01*
X67549147Y-124119745D01*
X67001299Y-124119745D01*
X67008926Y-123887618D01*
X66996510Y-123745016D01*
X66945741Y-123542649D01*
X66815063Y-123429629D01*
X66546915Y-123337406D01*
X66330003Y-123282433D01*
X65914232Y-123200509D01*
X65492764Y-123138539D01*
X65199916Y-123098112D01*
X64873891Y-123037057D01*
X64668601Y-122978901D01*
X64620963Y-122942764D01*
X64729823Y-122928524D01*
X65019985Y-122950543D01*
X65314685Y-122975776D01*
X65794137Y-123002410D01*
X66255564Y-123014838D01*
X66380446Y-123015511D01*
X66703192Y-123006287D01*
X66909097Y-122962099D01*
X67000492Y-122901871D01*
X67772310Y-122901871D01*
X67777942Y-123086901D01*
X67841307Y-123136895D01*
X68099543Y-123226852D01*
X68550221Y-123324443D01*
X69196052Y-123430216D01*
X70039747Y-123544720D01*
X70116045Y-123554397D01*
X70653373Y-123625218D01*
X71147223Y-123694546D01*
X71545639Y-123754870D01*
X71796664Y-123798681D01*
X71806789Y-123800744D01*
X72070885Y-123847084D01*
X72477389Y-123910299D01*
X72972743Y-123982342D01*
X73503384Y-124055163D01*
X74019215Y-124125254D01*
X74516709Y-124200540D01*
X74860176Y-124268457D01*
X75075054Y-124337793D01*
X75186779Y-124417337D01*
X75220790Y-124515875D01*
X75202523Y-124642197D01*
X75185536Y-124721604D01*
X75185608Y-124722179D01*
X75201096Y-124845104D01*
X75326168Y-124927225D01*
X75604551Y-125007799D01*
X75618586Y-125011350D01*
X75894176Y-125096886D01*
X76011781Y-125185940D01*
X76010926Y-125307679D01*
X76003412Y-125416319D01*
X76105952Y-125513512D01*
X76368342Y-125602488D01*
X76958929Y-125745058D01*
X77889279Y-125899070D01*
X78736798Y-125950311D01*
X79472258Y-125897694D01*
X80066435Y-125740129D01*
X80451251Y-125623066D01*
X80799758Y-125636254D01*
X81113352Y-125804433D01*
X81168142Y-125844391D01*
X81462269Y-126013229D01*
X81793476Y-126156308D01*
X82162257Y-126248395D01*
X82697893Y-126319562D01*
X83303895Y-126355325D01*
X83912941Y-126351913D01*
X84457705Y-126305554D01*
X84669173Y-126273588D01*
X85293588Y-126151856D01*
X85826551Y-126006778D01*
X86240885Y-125848174D01*
X86509416Y-125685864D01*
X86604965Y-125529668D01*
X86590102Y-125470369D01*
X86498866Y-125424509D01*
X86289258Y-125418955D01*
X85921262Y-125448986D01*
X85541903Y-125474036D01*
X85119078Y-125447350D01*
X84702449Y-125342622D01*
X84461637Y-125260530D01*
X84292150Y-125182294D01*
X84264944Y-125114971D01*
X84351191Y-125033162D01*
X84489248Y-124956638D01*
X84721629Y-124898727D01*
X84735641Y-124898312D01*
X84959655Y-124846016D01*
X85229103Y-124732790D01*
X85264133Y-124715859D01*
X85612828Y-124614800D01*
X86002180Y-124584960D01*
X86034914Y-124585703D01*
X86388679Y-124558755D01*
X86895240Y-124479041D01*
X87520497Y-124353866D01*
X88230347Y-124190533D01*
X88990687Y-123996344D01*
X89767415Y-123778604D01*
X89979396Y-123716145D01*
X90723725Y-123493031D01*
X91395149Y-123285949D01*
X91969623Y-123102687D01*
X92423105Y-122951029D01*
X92731551Y-122838761D01*
X92870918Y-122773667D01*
X92877151Y-122767411D01*
X92844380Y-122681100D01*
X92670127Y-122582378D01*
X92512166Y-122541913D01*
X92107470Y-122515781D01*
X91572297Y-122540388D01*
X90945181Y-122608702D01*
X90264652Y-122713689D01*
X89569242Y-122848316D01*
X88897482Y-123005551D01*
X88287906Y-123178360D01*
X87779042Y-123359711D01*
X87409425Y-123542571D01*
X87381584Y-123560067D01*
X86909749Y-123823531D01*
X86553020Y-123947970D01*
X86290594Y-123940787D01*
X86257363Y-123929418D01*
X86157986Y-123844443D01*
X86211593Y-123678644D01*
X86269332Y-123542840D01*
X86275505Y-123431454D01*
X86274506Y-123430504D01*
X86136191Y-123385921D01*
X85849822Y-123340505D01*
X85466924Y-123298429D01*
X85039022Y-123263871D01*
X84617642Y-123241008D01*
X84254308Y-123234014D01*
X84000547Y-123247066D01*
X83691873Y-123294700D01*
X83240794Y-123402774D01*
X82976508Y-123534572D01*
X82890340Y-123693582D01*
X82842086Y-123817880D01*
X82696512Y-123958857D01*
X82623768Y-124029304D01*
X82248266Y-124271501D01*
X81736257Y-124529494D01*
X81615456Y-124583071D01*
X81183379Y-124758314D01*
X80724174Y-124925178D01*
X80290814Y-125066103D01*
X79936271Y-125163534D01*
X79713518Y-125199913D01*
X79513530Y-125144321D01*
X79201397Y-124990985D01*
X78828911Y-124770284D01*
X78444155Y-124512642D01*
X78095214Y-124248486D01*
X77830173Y-124008239D01*
X77819783Y-123997268D01*
X77747945Y-123912430D01*
X78929093Y-123912430D01*
X78951090Y-124008036D01*
X79139521Y-124100889D01*
X79372432Y-124208738D01*
X79577113Y-124340686D01*
X79597681Y-124357050D01*
X79867845Y-124452607D01*
X80235675Y-124449254D01*
X80631447Y-124346598D01*
X80636188Y-124344729D01*
X80950384Y-124221898D01*
X81282827Y-124093334D01*
X81633022Y-123958857D01*
X81333025Y-123830949D01*
X81091551Y-123765717D01*
X80721309Y-123718982D01*
X80288182Y-123696442D01*
X79844644Y-123697832D01*
X79443170Y-123722885D01*
X79136233Y-123771334D01*
X78976306Y-123842913D01*
X78929093Y-123912430D01*
X77747945Y-123912430D01*
X77648307Y-123794762D01*
X77606944Y-123661345D01*
X77675791Y-123536157D01*
X77687466Y-123521502D01*
X77736484Y-123366280D01*
X77619451Y-123231706D01*
X77324790Y-123110267D01*
X76840924Y-122994453D01*
X76538561Y-122933206D01*
X76226930Y-122867145D01*
X76038692Y-122823609D01*
X75965247Y-122782750D01*
X75788825Y-122602513D01*
X75754212Y-122552463D01*
X86321396Y-122552463D01*
X86336871Y-122844010D01*
X86414286Y-122999591D01*
X86447297Y-123016111D01*
X86655454Y-123065100D01*
X86928785Y-123089089D01*
X87179849Y-123083731D01*
X87321201Y-123044678D01*
X87347918Y-123028260D01*
X87540288Y-122960953D01*
X87875758Y-122868261D01*
X88314638Y-122759198D01*
X88817236Y-122642780D01*
X89343860Y-122528021D01*
X89854819Y-122423938D01*
X90310420Y-122339544D01*
X90670973Y-122283854D01*
X90877816Y-122257379D01*
X91349276Y-122194133D01*
X91678473Y-122138169D01*
X91907491Y-122075640D01*
X92078410Y-121992697D01*
X92233314Y-121875493D01*
X92414283Y-121710179D01*
X92617984Y-121491049D01*
X92864992Y-121144703D01*
X93058018Y-120785862D01*
X93169550Y-120467769D01*
X93172075Y-120243670D01*
X93126500Y-120159479D01*
X93009645Y-120071121D01*
X92788210Y-119999799D01*
X92414740Y-119925583D01*
X92220157Y-119901180D01*
X92033054Y-119940003D01*
X91887664Y-120093162D01*
X91782336Y-120296976D01*
X91725123Y-120547967D01*
X91689702Y-120675587D01*
X91532637Y-120930131D01*
X91283189Y-121218992D01*
X90982419Y-121491792D01*
X90667771Y-121675701D01*
X90273320Y-121794371D01*
X89786699Y-121866140D01*
X89435215Y-121826968D01*
X89382319Y-121807172D01*
X89239273Y-121714343D01*
X89167325Y-121547308D01*
X89133845Y-121242817D01*
X89127475Y-121054768D01*
X89188939Y-120589477D01*
X89389104Y-120226416D01*
X89751468Y-119915073D01*
X89898659Y-119816311D01*
X90112043Y-119672435D01*
X90216287Y-119601117D01*
X90244573Y-119561729D01*
X90161771Y-119491628D01*
X89925367Y-119433552D01*
X89566327Y-119393764D01*
X89115616Y-119378525D01*
X88263027Y-119376988D01*
X87550293Y-120115603D01*
X87374804Y-120303787D01*
X87054063Y-120679209D01*
X86789124Y-121028562D01*
X86624409Y-121295247D01*
X86581513Y-121389989D01*
X86450226Y-121772656D01*
X86361350Y-122177746D01*
X86321396Y-122552463D01*
X75754212Y-122552463D01*
X75606553Y-122338949D01*
X75340264Y-121993788D01*
X74878508Y-121602746D01*
X74325968Y-121281301D01*
X73743274Y-121063480D01*
X73191057Y-120983312D01*
X73110285Y-120985704D01*
X72687183Y-121039236D01*
X72120390Y-121157247D01*
X71444053Y-121331919D01*
X70692317Y-121555435D01*
X70564607Y-121595863D01*
X70093454Y-121752146D01*
X69809269Y-121869616D01*
X69707008Y-121961575D01*
X69781627Y-122041328D01*
X70028081Y-122122178D01*
X70441328Y-122217426D01*
X70965123Y-122339092D01*
X71576572Y-122496302D01*
X72227737Y-122675852D01*
X72889380Y-122868566D01*
X73532263Y-123065263D01*
X74127151Y-123256767D01*
X74644804Y-123433897D01*
X75055987Y-123587477D01*
X75331461Y-123708328D01*
X75441989Y-123787270D01*
X75446788Y-123825673D01*
X75392238Y-123874122D01*
X75238789Y-123880507D01*
X74971045Y-123841654D01*
X74573612Y-123754389D01*
X74031096Y-123615540D01*
X73328101Y-123421933D01*
X72449234Y-123170395D01*
X72170262Y-123090358D01*
X71472434Y-122896449D01*
X70803004Y-122718630D01*
X70202938Y-122567350D01*
X69713202Y-122453058D01*
X69374766Y-122386203D01*
X69066926Y-122338832D01*
X68763932Y-122305109D01*
X68558357Y-122313630D01*
X68391605Y-122368855D01*
X68205083Y-122475244D01*
X67934825Y-122680003D01*
X67772310Y-122901871D01*
X67000492Y-122901871D01*
X67063149Y-122860581D01*
X67230338Y-122679366D01*
X67310621Y-122582768D01*
X67463298Y-122379282D01*
X67525786Y-122263639D01*
X67523622Y-122252851D01*
X67418578Y-122159325D01*
X67203581Y-122045940D01*
X67067735Y-121983522D01*
X67011503Y-121937784D01*
X67084008Y-121912553D01*
X67309267Y-121900690D01*
X67711298Y-121895059D01*
X68135092Y-121880987D01*
X69040206Y-121766671D01*
X69788759Y-121537760D01*
X69876474Y-121501534D01*
X70255340Y-121361656D01*
X70683037Y-121222365D01*
X71100361Y-121101151D01*
X71448105Y-121015502D01*
X71667064Y-120982907D01*
X71776056Y-120971715D01*
X72066048Y-120905575D01*
X72399036Y-120799870D01*
X72682466Y-120681533D01*
X72844229Y-120560535D01*
X72877702Y-120423793D01*
X72875704Y-120386834D01*
X73653977Y-120386834D01*
X73666526Y-120488868D01*
X73728755Y-120575707D01*
X73875882Y-120663528D01*
X74143119Y-120773128D01*
X74565675Y-120925303D01*
X74827446Y-121045627D01*
X75202096Y-121273452D01*
X75552727Y-121537313D01*
X75761702Y-121709678D01*
X76018498Y-121883587D01*
X76242241Y-121963282D01*
X76498340Y-121979339D01*
X76864693Y-121950753D01*
X77099802Y-121889022D01*
X77179701Y-121809233D01*
X77089791Y-121726310D01*
X76815473Y-121655174D01*
X76402294Y-121518952D01*
X75997123Y-121243786D01*
X75714856Y-120888286D01*
X75667854Y-120773498D01*
X75586089Y-120446786D01*
X75540679Y-120081998D01*
X75533020Y-119904909D01*
X75548361Y-119653405D01*
X75626419Y-119490694D01*
X75792469Y-119342542D01*
X75810402Y-119329250D01*
X76043159Y-119206463D01*
X76361103Y-119131909D01*
X76821521Y-119091621D01*
X76986914Y-119082044D01*
X77330669Y-119046178D01*
X77514750Y-118991625D01*
X77569392Y-118911085D01*
X77546397Y-118814153D01*
X77390440Y-118711037D01*
X77075886Y-118690275D01*
X76589522Y-118749691D01*
X76290182Y-118817144D01*
X75803334Y-118977063D01*
X75294193Y-119191350D01*
X74798183Y-119440249D01*
X74350731Y-119704004D01*
X73987262Y-119962858D01*
X73743202Y-120197053D01*
X73653977Y-120386834D01*
X72875704Y-120386834D01*
X72850806Y-119926267D01*
X72887907Y-119239919D01*
X72991689Y-118536565D01*
X73150976Y-117887884D01*
X73354589Y-117365557D01*
X73592066Y-116996730D01*
X73926421Y-116609903D01*
X74312286Y-116247974D01*
X74708258Y-115946021D01*
X75072930Y-115739124D01*
X75364899Y-115662363D01*
X75438563Y-115637228D01*
X75640774Y-115514742D01*
X75895974Y-115324676D01*
X76343227Y-114979278D01*
X76904155Y-114572707D01*
X77515871Y-114149701D01*
X78136413Y-113738066D01*
X78723818Y-113365608D01*
X79236127Y-113060132D01*
X79631376Y-112849444D01*
X79694801Y-112820322D01*
X79979418Y-112700549D01*
X80376244Y-112543029D01*
X80847871Y-112361603D01*
X81356891Y-112170113D01*
X81865896Y-111982400D01*
X82337478Y-111812307D01*
X82734228Y-111673674D01*
X83018739Y-111580344D01*
X83153602Y-111546158D01*
X83170988Y-111540740D01*
X83201255Y-111421372D01*
X83174067Y-111193071D01*
X83100896Y-110919042D01*
X82993214Y-110662491D01*
X82973340Y-110624979D01*
X82796987Y-110273803D01*
X82642069Y-109939834D01*
X82613380Y-109880076D01*
X82449288Y-109602764D01*
X82210643Y-109250800D01*
X81938491Y-108885683D01*
X81855938Y-108778801D01*
X81587358Y-108410831D01*
X81362827Y-108074517D01*
X81224138Y-107831533D01*
X81092960Y-107598648D01*
X80869391Y-107265382D01*
X80614113Y-106927811D01*
X80434959Y-106687909D01*
X80068430Y-106070648D01*
X79715225Y-105293133D01*
X79365606Y-104335142D01*
X79209032Y-103919693D01*
X78992519Y-103421938D01*
X78769442Y-102967971D01*
X78734382Y-102900668D01*
X78514265Y-102429930D01*
X78291801Y-101888050D01*
X78110241Y-101379265D01*
X78039474Y-101155182D01*
X77936163Y-100792332D01*
X77891671Y-100542322D01*
X77899225Y-100353577D01*
X77952054Y-100174522D01*
X77956151Y-100163093D01*
X78001567Y-99924261D01*
X78040505Y-99495012D01*
X78073102Y-98872773D01*
X78099496Y-98054974D01*
X78119824Y-97039043D01*
X78120580Y-96991322D01*
X78136108Y-96243513D01*
X78157118Y-95547490D01*
X78182212Y-94933054D01*
X78209993Y-94430002D01*
X78225073Y-94242306D01*
X80461521Y-94242306D01*
X80498569Y-94708848D01*
X80516392Y-94795488D01*
X80551488Y-95068531D01*
X80541889Y-95239890D01*
X80523094Y-95373831D01*
X80505118Y-95668362D01*
X80490964Y-96076429D01*
X80482650Y-96553305D01*
X80481542Y-96892657D01*
X80495380Y-97393255D01*
X80537418Y-97810404D01*
X80616794Y-98219406D01*
X80742647Y-98695565D01*
X80801654Y-98912900D01*
X80912577Y-99382592D01*
X80991451Y-99802232D01*
X81024113Y-100101098D01*
X81035542Y-100283157D01*
X81072535Y-100504253D01*
X81145380Y-100773227D01*
X81264819Y-101124277D01*
X81441597Y-101591602D01*
X81686457Y-102209399D01*
X81723611Y-102304976D01*
X81868617Y-102719974D01*
X81986367Y-103112956D01*
X82042577Y-103290061D01*
X82207780Y-103684154D01*
X82405202Y-104055912D01*
X82447024Y-104127496D01*
X82632648Y-104494698D01*
X82832449Y-104949934D01*
X83009862Y-105411248D01*
X83062362Y-105558089D01*
X83224657Y-105990397D01*
X83377323Y-106369472D01*
X83493118Y-106626790D01*
X83520535Y-106682580D01*
X83654774Y-106981468D01*
X83821247Y-107378772D01*
X83990264Y-107804173D01*
X84078269Y-108024102D01*
X84288971Y-108456680D01*
X84517484Y-108754197D01*
X84804150Y-108960969D01*
X85189314Y-109121316D01*
X85349985Y-109166132D01*
X85694217Y-109219950D01*
X86036586Y-109232763D01*
X86312321Y-109203974D01*
X86456649Y-109132987D01*
X86469717Y-109096331D01*
X86478362Y-108891431D01*
X86445453Y-108605912D01*
X86437869Y-108559471D01*
X86401654Y-108224699D01*
X86373782Y-107787348D01*
X86359767Y-107329557D01*
X86359716Y-107325337D01*
X86292924Y-106275670D01*
X86128227Y-105204425D01*
X85881856Y-104217304D01*
X85819064Y-103977805D01*
X85716245Y-103409273D01*
X85622708Y-102656484D01*
X85539887Y-101729859D01*
X85497299Y-101200194D01*
X85445604Y-100621453D01*
X85395512Y-100121752D01*
X85351110Y-99741514D01*
X85316487Y-99521163D01*
X85295309Y-99366762D01*
X85278817Y-99009552D01*
X85280965Y-98555532D01*
X85302353Y-98066501D01*
X85309312Y-97957823D01*
X85335477Y-97509409D01*
X85345027Y-97163685D01*
X85333895Y-96860642D01*
X85298017Y-96540269D01*
X85233326Y-96142555D01*
X85135757Y-95607489D01*
X85056539Y-95090986D01*
X85036733Y-94667461D01*
X85079488Y-94302350D01*
X85094724Y-94222853D01*
X85163620Y-93445150D01*
X85120225Y-92522036D01*
X84966210Y-91471238D01*
X84703246Y-90310486D01*
X84617247Y-89919876D01*
X84528473Y-89314119D01*
X84493565Y-88762625D01*
X84481987Y-88340557D01*
X84446966Y-87780554D01*
X84397218Y-87285924D01*
X84367151Y-86992313D01*
X84356457Y-86557739D01*
X84395185Y-86250332D01*
X84425130Y-85973060D01*
X84343049Y-85602380D01*
X84154367Y-85271028D01*
X83892183Y-85032781D01*
X83589593Y-84941415D01*
X83277303Y-85014140D01*
X82899582Y-85211838D01*
X82517753Y-85493436D01*
X82187387Y-85817829D01*
X81964052Y-86143908D01*
X81900604Y-86271117D01*
X81711108Y-86620154D01*
X81537951Y-86903495D01*
X81492539Y-86980582D01*
X81376084Y-87259531D01*
X81245011Y-87683688D01*
X81095778Y-88266430D01*
X80924846Y-89021134D01*
X80728673Y-89961178D01*
X80702006Y-90098476D01*
X80598633Y-90787046D01*
X80542812Y-91459561D01*
X80537798Y-92057229D01*
X80586849Y-92521257D01*
X80598881Y-92591161D01*
X80610540Y-93047747D01*
X80538117Y-93612776D01*
X80533626Y-93636719D01*
X80461521Y-94242306D01*
X78225073Y-94242306D01*
X78239066Y-94068136D01*
X78268032Y-93877255D01*
X78271121Y-93866723D01*
X78342865Y-93509117D01*
X78372554Y-93141018D01*
X78372773Y-93121643D01*
X78401735Y-92819393D01*
X78469903Y-92413382D01*
X78563677Y-91985810D01*
X78628669Y-91687825D01*
X78720974Y-91164587D01*
X78806160Y-90579204D01*
X78871793Y-90011375D01*
X78919391Y-89557722D01*
X78978263Y-89069689D01*
X79034982Y-88666218D01*
X79081990Y-88405051D01*
X79124552Y-88208279D01*
X79201865Y-87810081D01*
X79273355Y-87401098D01*
X79273676Y-87399134D01*
X79353874Y-86981688D01*
X79469515Y-86473386D01*
X79607664Y-85922089D01*
X79755384Y-85375658D01*
X79899740Y-84881954D01*
X80027795Y-84488840D01*
X80126612Y-84244175D01*
X80127030Y-84243366D01*
X80235125Y-83980290D01*
X80280064Y-83764011D01*
X80282967Y-83732871D01*
X80342934Y-83512134D01*
X80468249Y-83159073D01*
X80642824Y-82712719D01*
X80850572Y-82212104D01*
X81075406Y-81696260D01*
X81301240Y-81204218D01*
X81511985Y-80775012D01*
X81523220Y-80753144D01*
X81726767Y-80352429D01*
X81917523Y-79969625D01*
X82055546Y-79684839D01*
X82106900Y-79583674D01*
X82357334Y-79194819D01*
X82674378Y-78804833D01*
X83005567Y-78473790D01*
X83298431Y-78261764D01*
X83384843Y-78222652D01*
X83816058Y-78127866D01*
X84287205Y-78141543D01*
X84694403Y-78263552D01*
X84707485Y-78270610D01*
X84949348Y-78493969D01*
X85193187Y-78872870D01*
X85419686Y-79365650D01*
X85609528Y-79930643D01*
X85743397Y-80526182D01*
X85841303Y-80795149D01*
X86078321Y-81161397D01*
X86464183Y-81630530D01*
X86547095Y-81724924D01*
X86898296Y-82139517D01*
X87137909Y-82462557D01*
X87290729Y-82736969D01*
X87381547Y-83005675D01*
X87435156Y-83311599D01*
X87498626Y-83584001D01*
X87638010Y-83975618D01*
X87816770Y-84365750D01*
X87823363Y-84378422D01*
X88025307Y-84801401D01*
X88241047Y-85305391D01*
X88424979Y-85784051D01*
X88461983Y-85885245D01*
X88622313Y-86270610D01*
X88781722Y-86584474D01*
X88910556Y-86766816D01*
X89048291Y-86918941D01*
X89114846Y-87047625D01*
X89118261Y-87062902D01*
X89200228Y-87211472D01*
X89369234Y-87462637D01*
X89595522Y-87771580D01*
X89864958Y-88161150D01*
X90147882Y-88632533D01*
X90364118Y-89057620D01*
X90525322Y-89409339D01*
X90682170Y-89727512D01*
X90795159Y-89930909D01*
X90800652Y-89939693D01*
X90897715Y-90155882D01*
X91013165Y-90493946D01*
X91123194Y-90884664D01*
X91254531Y-91315149D01*
X91457217Y-91846611D01*
X91674036Y-92315760D01*
X91727654Y-92419924D01*
X91927557Y-92873608D01*
X92053488Y-93323588D01*
X92135715Y-93871887D01*
X92146097Y-93960545D01*
X92214199Y-94427460D01*
X92296802Y-94862571D01*
X92378321Y-95181731D01*
X92430880Y-95376594D01*
X92513675Y-95770838D01*
X92598108Y-96253997D01*
X92672280Y-96762112D01*
X92722615Y-97155811D01*
X92762254Y-97535922D01*
X92769882Y-97822665D01*
X92742357Y-98075754D01*
X92676539Y-98354901D01*
X92569286Y-98719820D01*
X92433581Y-99242801D01*
X92335203Y-99872279D01*
X92291093Y-100603075D01*
X92289399Y-100667477D01*
X92277898Y-101052859D01*
X92257458Y-101348905D01*
X92214449Y-101600358D01*
X92135242Y-101851962D01*
X92006204Y-102148461D01*
X91813707Y-102534600D01*
X91544118Y-103055121D01*
X91510393Y-103131255D01*
X91411689Y-103491322D01*
X91322867Y-104023431D01*
X91246071Y-104705958D01*
X91183445Y-105517280D01*
X91137133Y-106435774D01*
X91109281Y-107439817D01*
X91084276Y-108891431D01*
X91076245Y-109357682D01*
X91325388Y-109485325D01*
X91412158Y-109522936D01*
X91714776Y-109614447D01*
X92061924Y-109683734D01*
X92549318Y-109754500D01*
X92363110Y-109505799D01*
X92163849Y-109288160D01*
X91901103Y-109071391D01*
X91882627Y-109058782D01*
X91700189Y-108912348D01*
X91625016Y-108810387D01*
X91674417Y-108748076D01*
X91881343Y-108743832D01*
X92232132Y-108821331D01*
X92707856Y-108973331D01*
X93289585Y-109192595D01*
X93958390Y-109471883D01*
X94695341Y-109803956D01*
X95481510Y-110181574D01*
X96297968Y-110597498D01*
X96305380Y-110601382D01*
X96804462Y-110852538D01*
X97209546Y-111035901D01*
X97494124Y-111140392D01*
X97631689Y-111154931D01*
X97646948Y-111140267D01*
X97689035Y-111018610D01*
X97719787Y-110770031D01*
X97740298Y-110376094D01*
X97751663Y-109818361D01*
X97754976Y-109078396D01*
X97756353Y-108296419D01*
X97764944Y-107131965D01*
X97780846Y-106042944D01*
X97803448Y-105050243D01*
X97832138Y-104174749D01*
X97866306Y-103437350D01*
X97905340Y-102858934D01*
X97948628Y-102460387D01*
X98053307Y-101754180D01*
X98167122Y-100957713D01*
X98251422Y-100324489D01*
X98289260Y-100000703D01*
X100841862Y-100000703D01*
X100843446Y-100113786D01*
X100869768Y-100731833D01*
X100922292Y-101223935D01*
X100997315Y-101553110D01*
X101078710Y-101879908D01*
X101057678Y-102170257D01*
X101018897Y-102320372D01*
X101034516Y-102449753D01*
X101050209Y-102517412D01*
X101071442Y-102758955D01*
X101091075Y-103141498D01*
X101107443Y-103630619D01*
X101118879Y-104191895D01*
X101127310Y-104583535D01*
X101148983Y-105135815D01*
X101179012Y-105609133D01*
X101214626Y-105962881D01*
X101253050Y-106156448D01*
X101291734Y-106291580D01*
X101342991Y-106624720D01*
X101363068Y-106996139D01*
X101408853Y-107482713D01*
X101582345Y-107943358D01*
X101684018Y-108105961D01*
X101877657Y-108293095D01*
X102085765Y-108307477D01*
X102331841Y-108146050D01*
X102639383Y-107805753D01*
X102767666Y-107645948D01*
X103168875Y-107143113D01*
X103467712Y-106762014D01*
X103684128Y-106476490D01*
X103838068Y-106260378D01*
X103949480Y-106087518D01*
X104079578Y-105885266D01*
X104293648Y-105570497D01*
X104531114Y-105234158D01*
X104727788Y-104929920D01*
X104938402Y-104531249D01*
X105071697Y-104190561D01*
X105109955Y-104068256D01*
X105278820Y-103654691D01*
X105478710Y-103280605D01*
X105545083Y-103167061D01*
X105732943Y-102757104D01*
X105860215Y-102353593D01*
X106027333Y-101517220D01*
X106143464Y-100738295D01*
X106182040Y-100136213D01*
X106182310Y-100109409D01*
X106214044Y-99745964D01*
X106288265Y-99291235D01*
X106390245Y-98837118D01*
X106485265Y-98408059D01*
X106559180Y-97890082D01*
X106609337Y-97265265D01*
X106640717Y-96486869D01*
X106640833Y-96482608D01*
X106661767Y-95920717D01*
X106694182Y-95296354D01*
X106734838Y-94653371D01*
X106780496Y-94035617D01*
X106827918Y-93486945D01*
X106873864Y-93051204D01*
X106915096Y-92772245D01*
X106915299Y-92763416D01*
X106892936Y-92615629D01*
X106838668Y-92333642D01*
X106762314Y-91969083D01*
X106760446Y-91960440D01*
X106526306Y-90463592D01*
X106470163Y-88986905D01*
X106593315Y-87564185D01*
X106609594Y-87460074D01*
X106671077Y-87124138D01*
X106750065Y-86847407D01*
X106868343Y-86597439D01*
X107047702Y-86341793D01*
X107309927Y-86048028D01*
X107676808Y-85683704D01*
X108170131Y-85216379D01*
X108368328Y-85026785D01*
X108638442Y-84755202D01*
X108823842Y-84551364D01*
X108892712Y-84449056D01*
X108885454Y-84408741D01*
X108759403Y-84317541D01*
X108515959Y-84299401D01*
X108206529Y-84347673D01*
X107882521Y-84455707D01*
X107595343Y-84616856D01*
X107579453Y-84628894D01*
X107344478Y-84858632D01*
X107135795Y-85136696D01*
X107054379Y-85261386D01*
X106827004Y-85572407D01*
X106576784Y-85881270D01*
X106457287Y-86023334D01*
X106192417Y-86356972D01*
X105979249Y-86648134D01*
X105921493Y-86731885D01*
X105769638Y-86941668D01*
X105680080Y-87049715D01*
X105628018Y-87117368D01*
X105497914Y-87320118D01*
X105330908Y-87600370D01*
X105163721Y-87867986D01*
X104884449Y-88270647D01*
X104600417Y-88642469D01*
X104373456Y-88936228D01*
X104180634Y-89215129D01*
X104075808Y-89403562D01*
X104018831Y-89527558D01*
X103869327Y-89801982D01*
X103681673Y-90112936D01*
X103557196Y-90326944D01*
X103423067Y-90614860D01*
X103370973Y-90813274D01*
X103368018Y-90846137D01*
X103319479Y-91064065D01*
X103220553Y-91418176D01*
X103083153Y-91867399D01*
X102919194Y-92370664D01*
X102865180Y-92532881D01*
X102708841Y-93016809D01*
X102582575Y-93429186D01*
X102498170Y-93730587D01*
X102467415Y-93881586D01*
X102460584Y-93925771D01*
X102387529Y-94141569D01*
X102251470Y-94463728D01*
X102073629Y-94840561D01*
X101849155Y-95309211D01*
X101577595Y-95950437D01*
X101417745Y-96453636D01*
X101364529Y-96833072D01*
X101360395Y-96895943D01*
X101311201Y-97177934D01*
X101218297Y-97563258D01*
X101096606Y-97987617D01*
X101020045Y-98243612D01*
X100923531Y-98633549D01*
X100867717Y-99008534D01*
X100843520Y-99440331D01*
X100841862Y-100000703D01*
X98289260Y-100000703D01*
X98308674Y-99834575D01*
X98341348Y-99468042D01*
X98351913Y-99204957D01*
X98352536Y-99167435D01*
X98383942Y-98822860D01*
X98453294Y-98382912D01*
X98547423Y-97933251D01*
X98572531Y-97824641D01*
X98648948Y-97427981D01*
X98689576Y-97101051D01*
X98686044Y-96905885D01*
X98676840Y-96824263D01*
X98687212Y-96544503D01*
X98727899Y-96146445D01*
X98790959Y-95681406D01*
X98868455Y-95200702D01*
X98952445Y-94755652D01*
X99034989Y-94397572D01*
X99108148Y-94177778D01*
X99161050Y-94049028D01*
X99260414Y-93734017D01*
X99349668Y-93374616D01*
X99400844Y-93164649D01*
X99517576Y-92792192D01*
X99637213Y-92510308D01*
X99728263Y-92337476D01*
X99896804Y-92009125D01*
X100107080Y-91594041D01*
X100333415Y-91142665D01*
X100535864Y-90749468D01*
X100742863Y-90373583D01*
X100911032Y-90095652D01*
X101016422Y-89957246D01*
X101038139Y-89936573D01*
X101178694Y-89757014D01*
X101372963Y-89466221D01*
X101585748Y-89116193D01*
X102096454Y-88265881D01*
X102783137Y-87213558D01*
X103448700Y-86296867D01*
X104073658Y-85543786D01*
X104314580Y-85269976D01*
X104667663Y-84845773D01*
X104977103Y-84448790D01*
X105195625Y-84138253D01*
X105270546Y-84033228D01*
X105506006Y-83748319D01*
X105842465Y-83371255D01*
X106250864Y-82931877D01*
X106702143Y-82460025D01*
X107167243Y-81985540D01*
X107617106Y-81538261D01*
X108022672Y-81148031D01*
X108354882Y-80844688D01*
X108584676Y-80658075D01*
X108724090Y-80510639D01*
X108910947Y-80227274D01*
X109087900Y-79883962D01*
X109177377Y-79688640D01*
X109346445Y-79372034D01*
X109518255Y-79171356D01*
X109743356Y-79037093D01*
X110072295Y-78919734D01*
X110493737Y-78855916D01*
X111004130Y-78901773D01*
X111488813Y-79051798D01*
X111866686Y-79289288D01*
X112002186Y-79430936D01*
X112073693Y-79581559D01*
X112088121Y-79799624D01*
X112060237Y-80150857D01*
X112035674Y-80427642D01*
X112006453Y-80867101D01*
X111993257Y-81226790D01*
X111993837Y-81329643D01*
X112023076Y-81812654D01*
X112088717Y-82387898D01*
X112182041Y-83006644D01*
X112294332Y-83620158D01*
X112416872Y-84179709D01*
X112490021Y-84449056D01*
X112540945Y-84636565D01*
X112657833Y-84941992D01*
X112678321Y-84984331D01*
X112789036Y-85293662D01*
X112868828Y-85637043D01*
X112897333Y-85762543D01*
X113038270Y-86127158D01*
X113234696Y-86465906D01*
X113289049Y-86544345D01*
X113498151Y-86970130D01*
X113610563Y-87495644D01*
X113655277Y-87747702D01*
X113791096Y-88232534D01*
X113964108Y-88658872D01*
X114241208Y-89205704D01*
X114162545Y-90612492D01*
X114140705Y-91105850D01*
X114120898Y-91796185D01*
X114107210Y-92568591D01*
X114100721Y-93360202D01*
X114102510Y-94108150D01*
X114104235Y-94638912D01*
X114096032Y-95359061D01*
X114076126Y-95978535D01*
X114045719Y-96464017D01*
X114006014Y-96782190D01*
X113995221Y-96838831D01*
X113941586Y-97370443D01*
X113997370Y-97863862D01*
X114028232Y-98025885D01*
X114048790Y-98414322D01*
X113967844Y-98804052D01*
X113967547Y-98805022D01*
X113830648Y-99195002D01*
X113653384Y-99626110D01*
X113469611Y-100020891D01*
X113313180Y-100301889D01*
X113294420Y-100333510D01*
X113190328Y-100553492D01*
X113044791Y-100899868D01*
X112876848Y-101322913D01*
X112705534Y-101772897D01*
X112549887Y-102200095D01*
X112428944Y-102554778D01*
X112361740Y-102787220D01*
X112352091Y-102826394D01*
X112232644Y-103137975D01*
X112060821Y-103446450D01*
X111987187Y-103565919D01*
X111809693Y-103919346D01*
X111662395Y-104291164D01*
X111536028Y-104609287D01*
X111334343Y-105031279D01*
X111112130Y-105435166D01*
X111107836Y-105442341D01*
X110897339Y-105798513D01*
X110711157Y-106120936D01*
X110589144Y-106340613D01*
X110410805Y-106675680D01*
X110041175Y-107341203D01*
X109697716Y-107905470D01*
X109342154Y-108425962D01*
X108936210Y-108960158D01*
X108441609Y-109565537D01*
X108427253Y-109582721D01*
X107944947Y-110172488D01*
X107570039Y-110663394D01*
X107271806Y-111100372D01*
X107019529Y-111528358D01*
X106782487Y-111992285D01*
X106621234Y-112342889D01*
X106417948Y-112832757D01*
X106257484Y-113274937D01*
X106164822Y-113604239D01*
X106050786Y-114172065D01*
X107007022Y-115143103D01*
X107104181Y-115242063D01*
X107530158Y-115687890D01*
X107842739Y-116044653D01*
X108071350Y-116351046D01*
X108245415Y-116645764D01*
X108394359Y-116967502D01*
X108492796Y-117180999D01*
X108644555Y-117469478D01*
X108667535Y-117514592D01*
X108754765Y-117806246D01*
X108790837Y-118140610D01*
X108792166Y-118204191D01*
X108828623Y-118553440D01*
X108898987Y-118841318D01*
X108916051Y-118911085D01*
X108946648Y-119036179D01*
X108989183Y-119385589D01*
G37*
G36*
X65296071Y-124829522D02*
G01*
X65324557Y-124838908D01*
X65303031Y-124864968D01*
X65120380Y-124875435D01*
X65052263Y-124874464D01*
X64913442Y-124858621D01*
X64944688Y-124829522D01*
X65041446Y-124813908D01*
X65296071Y-124829522D01*
G37*
%LPC*%
D11*
X60909100Y-137677000D02*
G75*
G03*
X60909100Y-137677000I-418100J0D01*
G01*
X57409100Y-137677000D02*
G75*
G03*
X57409100Y-137677000I-418100J0D01*
G01*
D12*
X55679100Y-139907000D02*
G75*
G03*
X55679100Y-139907000I-438100J0D01*
G01*
G36*
X54327200Y-138513200D02*
G01*
X52654800Y-138513200D01*
X52654800Y-136840800D01*
X54327200Y-136840800D01*
X54327200Y-138513200D01*
G37*
D13*
X54327200Y-138513200D02*
X52654800Y-138513200D01*
X52654800Y-136840800D01*
X54327200Y-136840800D01*
X54327200Y-138513200D01*
D11*
X57409100Y-160277000D02*
G75*
G03*
X57409100Y-160277000I-418100J0D01*
G01*
D12*
X55679100Y-162507000D02*
G75*
G03*
X55679100Y-162507000I-438100J0D01*
G01*
D11*
X60909100Y-160277000D02*
G75*
G03*
X60909100Y-160277000I-418100J0D01*
G01*
G36*
X54327200Y-161113200D02*
G01*
X52654800Y-161113200D01*
X52654800Y-159440800D01*
X54327200Y-159440800D01*
X54327200Y-161113200D01*
G37*
D13*
X54327200Y-161113200D02*
X52654800Y-161113200D01*
X52654800Y-159440800D01*
X54327200Y-159440800D01*
X54327200Y-161113200D01*
D11*
X60909100Y-171577000D02*
G75*
G03*
X60909100Y-171577000I-418100J0D01*
G01*
X57409100Y-171577000D02*
G75*
G03*
X57409100Y-171577000I-418100J0D01*
G01*
D12*
X55679100Y-173807000D02*
G75*
G03*
X55679100Y-173807000I-438100J0D01*
G01*
G36*
X54327200Y-172413200D02*
G01*
X52654800Y-172413200D01*
X52654800Y-170740800D01*
X54327200Y-170740800D01*
X54327200Y-172413200D01*
G37*
D13*
X54327200Y-172413200D02*
X52654800Y-172413200D01*
X52654800Y-170740800D01*
X54327200Y-170740800D01*
X54327200Y-172413200D01*
D11*
X60909100Y-148977000D02*
G75*
G03*
X60909100Y-148977000I-418100J0D01*
G01*
D12*
X55679100Y-151207000D02*
G75*
G03*
X55679100Y-151207000I-438100J0D01*
G01*
D11*
X57409100Y-148977000D02*
G75*
G03*
X57409100Y-148977000I-418100J0D01*
G01*
G36*
X54327200Y-149813200D02*
G01*
X52654800Y-149813200D01*
X52654800Y-148140800D01*
X54327200Y-148140800D01*
X54327200Y-149813200D01*
G37*
D13*
X54327200Y-149813200D02*
X52654800Y-149813200D01*
X52654800Y-148140800D01*
X54327200Y-148140800D01*
X54327200Y-149813200D01*
D14*
X91932000Y-167479000D03*
X117332000Y-128679000D03*
X117332000Y-167479000D03*
X91932000Y-128679000D03*
D15*
X90272000Y-134099000D03*
D16*
X90272000Y-139099000D03*
X90272000Y-157039000D03*
D15*
X90272000Y-162039000D03*
D17*
X69469000Y-160528000D03*
X69469000Y-157226000D03*
X82931000Y-160528000D03*
X82931000Y-157226000D03*
X69469000Y-149228000D03*
X69469000Y-145926000D03*
X82931000Y-149228000D03*
X82931000Y-145926000D03*
X69469000Y-137928000D03*
X69469000Y-134626000D03*
X82931000Y-137928000D03*
X82931000Y-134626000D03*
X69469000Y-171828000D03*
X69469000Y-168526000D03*
X82931000Y-171828000D03*
X82931000Y-168526000D03*
D18*
X43942000Y-90805000D03*
X43942000Y-175133000D03*
X117475000Y-175133000D03*
X117475000Y-90805000D03*
D19*
X62782000Y-125600000D03*
D20*
X55582000Y-125600000D03*
D21*
X83561000Y-95758000D03*
D22*
X86101000Y-95758000D03*
X88641000Y-95758000D03*
X91181000Y-95758000D03*
X93721000Y-95758000D03*
X96261000Y-95758000D03*
X98801000Y-95758000D03*
X101341000Y-95758000D03*
X103881000Y-95758000D03*
X106421000Y-95758000D03*
X108961000Y-95758000D03*
X111501000Y-95758000D03*
D23*
X55241000Y-139907000D03*
X55241000Y-162507000D03*
D24*
X54457600Y-115945000D03*
D25*
X51917600Y-115945000D03*
X49377600Y-115945000D03*
D24*
X54457600Y-97945000D03*
D25*
X51917600Y-97945000D03*
X49377600Y-97945000D03*
D23*
X55241000Y-173807000D03*
D24*
X71755000Y-106945000D03*
D25*
X69215000Y-106945000D03*
X66675000Y-106945000D03*
X64135000Y-106945000D03*
D26*
X80010000Y-116068203D03*
D27*
X82550000Y-116068203D03*
X85090000Y-116068203D03*
X87630000Y-116068203D03*
X90170000Y-116068203D03*
X92710000Y-116068203D03*
X95250000Y-116068203D03*
X97790000Y-116068203D03*
X100330000Y-116068203D03*
X102870000Y-116068203D03*
X105410000Y-116068203D03*
X107950000Y-116068203D03*
X110490000Y-116068203D03*
X113030000Y-116068203D03*
X115570000Y-116068203D03*
X115570000Y-100828203D03*
X113030000Y-100828203D03*
X110490000Y-100828203D03*
X107950000Y-100828203D03*
X105410000Y-100828203D03*
X102870000Y-100828203D03*
X100330000Y-100828203D03*
X97790000Y-100828203D03*
X95250000Y-100828203D03*
X92710000Y-100828203D03*
X90170000Y-100828203D03*
X87630000Y-100828203D03*
X85090000Y-100828203D03*
X82550000Y-100828203D03*
X80010000Y-100828203D03*
D24*
X71755000Y-115945000D03*
D25*
X69215000Y-115945000D03*
X66675000Y-115945000D03*
X64135000Y-115945000D03*
D23*
X55241000Y-151207000D03*
D24*
X71755000Y-97945000D03*
D25*
X69215000Y-97945000D03*
X66675000Y-97945000D03*
X64135000Y-97945000D03*
D24*
X56997600Y-106945000D03*
D25*
X54457600Y-106945000D03*
X51917600Y-106945000D03*
X49377600Y-106945000D03*
X46837600Y-106945000D03*
M02*
