G04 #@! TF.GenerationSoftware,KiCad,Pcbnew,(6.0.8)*
G04 #@! TF.CreationDate,2022-10-05T13:13:22-07:00*
G04 #@! TF.ProjectId,unified_elec_steering,756e6966-6965-4645-9f65-6c65635f7374,A*
G04 #@! TF.SameCoordinates,Original*
G04 #@! TF.FileFunction,Soldermask,Bot*
G04 #@! TF.FilePolarity,Negative*
%FSLAX46Y46*%
G04 Gerber Fmt 4.6, Leading zero omitted, Abs format (unit mm)*
G04 Created by KiCad (PCBNEW (6.0.8)) date 2022-10-05 13:13:22*
%MOMM*%
%LPD*%
G01*
G04 APERTURE LIST*
G04 Aperture macros list*
%AMRoundRect*
0 Rectangle with rounded corners*
0 $1 Rounding radius*
0 $2 $3 $4 $5 $6 $7 $8 $9 X,Y pos of 4 corners*
0 Add a 4 corners polygon primitive as box body*
4,1,4,$2,$3,$4,$5,$6,$7,$8,$9,$2,$3,0*
0 Add four circle primitives for the rounded corners*
1,1,$1+$1,$2,$3*
1,1,$1+$1,$4,$5*
1,1,$1+$1,$6,$7*
1,1,$1+$1,$8,$9*
0 Add four rect primitives between the rounded corners*
20,1,$1+$1,$2,$3,$4,$5,0*
20,1,$1+$1,$4,$5,$6,$7,0*
20,1,$1+$1,$6,$7,$8,$9,0*
20,1,$1+$1,$8,$9,$2,$3,0*%
G04 Aperture macros list end*
%ADD10RoundRect,1.500000X1.500000X1.500000X-1.500000X1.500000X-1.500000X-1.500000X1.500000X-1.500000X0*%
%ADD11C,6.000000*%
%ADD12C,1.700000*%
%ADD13O,1.700000X1.700000*%
%ADD14C,1.600000*%
%ADD15R,1.520000X1.520000*%
%ADD16C,1.520000*%
%ADD17C,2.235200*%
%ADD18RoundRect,0.250000X0.620000X0.620000X-0.620000X0.620000X-0.620000X-0.620000X0.620000X-0.620000X0*%
%ADD19C,1.740000*%
%ADD20C,6.400000*%
%ADD21C,2.180000*%
%ADD22C,3.196000*%
%ADD23R,3.196000X3.196000*%
%ADD24R,1.600000X1.600000*%
%ADD25O,1.600000X1.600000*%
G04 APERTURE END LIST*
D10*
X115145000Y-90932000D03*
D11*
X107945000Y-90932000D03*
D12*
X136393000Y-61849000D03*
D13*
X138933000Y-61849000D03*
X141473000Y-61849000D03*
X144013000Y-61849000D03*
X146553000Y-61849000D03*
X149093000Y-61849000D03*
X151633000Y-61849000D03*
X154173000Y-61849000D03*
X156713000Y-61849000D03*
X159253000Y-61849000D03*
X161793000Y-61849000D03*
X164333000Y-61849000D03*
D14*
X109064983Y-104849001D03*
D15*
X107314987Y-102619001D03*
D16*
X110814988Y-102619001D03*
X114314988Y-102619001D03*
D14*
X109064983Y-127349001D03*
D15*
X107314987Y-125119001D03*
D16*
X110814988Y-125119001D03*
X114314988Y-125119001D03*
D17*
X122555000Y-122068000D03*
X122555000Y-125370000D03*
X136017000Y-122068000D03*
X136017000Y-125370000D03*
D18*
X108712000Y-82002000D03*
D19*
X106172000Y-82002000D03*
X103632000Y-82002000D03*
D18*
X108712000Y-64002000D03*
D19*
X106172000Y-64002000D03*
X103632000Y-64002000D03*
D14*
X109064983Y-138599001D03*
D15*
X107314987Y-136369001D03*
D16*
X110814988Y-136369001D03*
X114314988Y-136369001D03*
D20*
X170057000Y-138075000D03*
D18*
X125222000Y-73008000D03*
D19*
X122682000Y-73008000D03*
X120142000Y-73008000D03*
X117602000Y-73008000D03*
D21*
X144510000Y-128878236D03*
X169910000Y-90078236D03*
X169910000Y-128878236D03*
X144510000Y-90078236D03*
D22*
X142850000Y-95498236D03*
D23*
X142850000Y-100498236D03*
X142850000Y-118438236D03*
D22*
X142850000Y-123438236D03*
D20*
X99720400Y-138075000D03*
D24*
X132842000Y-82159203D03*
D25*
X135382000Y-82159203D03*
X137922000Y-82159203D03*
X140462000Y-82159203D03*
X143002000Y-82159203D03*
X145542000Y-82159203D03*
X148082000Y-82159203D03*
X150622000Y-82159203D03*
X153162000Y-82159203D03*
X155702000Y-82159203D03*
X158242000Y-82159203D03*
X160782000Y-82159203D03*
X163322000Y-82159203D03*
X165862000Y-82159203D03*
X168402000Y-82159203D03*
X168402000Y-66919203D03*
X165862000Y-66919203D03*
X163322000Y-66919203D03*
X160782000Y-66919203D03*
X158242000Y-66919203D03*
X155702000Y-66919203D03*
X153162000Y-66919203D03*
X150622000Y-66919203D03*
X148082000Y-66919203D03*
X145542000Y-66919203D03*
X143002000Y-66919203D03*
X140462000Y-66919203D03*
X137922000Y-66919203D03*
X135382000Y-66919203D03*
X132842000Y-66919203D03*
D18*
X125222000Y-82008000D03*
D19*
X122682000Y-82008000D03*
X120142000Y-82008000D03*
X117602000Y-82008000D03*
D20*
X170057000Y-57273000D03*
D14*
X109064983Y-116099001D03*
D15*
X107314987Y-113869001D03*
D16*
X110814988Y-113869001D03*
X114314988Y-113869001D03*
D17*
X122301000Y-110818000D03*
X122301000Y-114120000D03*
X135763000Y-114120000D03*
X135763000Y-110818000D03*
D18*
X125222000Y-64008000D03*
D19*
X122682000Y-64008000D03*
X120142000Y-64008000D03*
X117602000Y-64008000D03*
D20*
X99720400Y-57277000D03*
D17*
X122555000Y-102870000D03*
X122555000Y-99568000D03*
X136017000Y-99568000D03*
X136017000Y-102870000D03*
D18*
X111252000Y-73002000D03*
D19*
X108712000Y-73002000D03*
X106172000Y-73002000D03*
X103632000Y-73002000D03*
X101092000Y-73002000D03*
D17*
X122555000Y-133318000D03*
X122555000Y-136620000D03*
X136017000Y-136620000D03*
X136017000Y-133318000D03*
M02*
