M48
; DRILL file {KiCad (6.0.10)} date Sat Jan 21 11:36:30 2023
; FORMAT={-:-/ absolute / metric / decimal}
; #@! TF.CreationDate,2023-01-21T11:36:30-08:00
; #@! TF.GenerationSoftware,Kicad,Pcbnew,(6.0.10)
; #@! TF.FileFunction,Plated,1,2,PTH
FMAT,2
METRIC
; #@! TA.AperFunction,Plated,PTH,ComponentDrill
T1C1.000
; #@! TA.AperFunction,Plated,PTH,ComponentDrill
T2C1.020
; #@! TA.AperFunction,Plated,PTH,ComponentDrill
T3C1.090
; #@! TA.AperFunction,Plated,PTH,ComponentDrill
T4C1.727
; #@! TA.AperFunction,Plated,PTH,ComponentDrill
T5C2.180
; #@! TA.AperFunction,Plated,PTH,ComponentDrill
T6C4.500
%
G90
G05
T1
X-40.376Y21.336
X-40.376Y18.796
X-40.376Y16.256
X-40.376Y13.716
X-40.376Y11.176
X-40.376Y8.636
X-40.376Y6.096
X-40.376Y3.556
X-40.376Y1.016
X-40.376Y-1.524
X-40.376Y-4.064
X-40.376Y-6.604
X-40.376Y-9.144
X-40.376Y-11.684
X-40.376Y-14.224
X-25.136Y21.336
X-25.136Y18.796
X-25.136Y16.256
X-25.136Y13.716
X-25.136Y11.176
X-25.136Y8.636
X-25.136Y6.096
X-25.136Y3.556
X-25.136Y1.016
X-25.136Y-1.524
X-25.136Y-4.064
X-25.136Y-6.604
X-25.136Y-9.144
X-25.136Y-11.684
X-25.136Y-14.224
T2
X-29.616Y-29.288
X-26.935Y-31.537
X-24.254Y-33.787
X-12.535Y-39.902
X-9.035Y-39.902
X-5.535Y-39.902
X5.465Y-39.902
X8.965Y-39.902
X12.465Y-39.902
X24.475Y-34.127
X27.156Y-31.877
X29.837Y-29.627
T3
X-30.81Y31.0
X-28.27Y31.0
X-25.73Y31.0
X-23.19Y31.0
X-16.35Y31.0
X-13.81Y31.0
X-11.27Y31.0
X-8.73Y31.0
X-8.54Y41.275
X-6.19Y31.0
X-6.0Y41.275
X-3.65Y31.0
X-3.46Y41.275
X3.46Y41.275
X3.65Y31.0
X6.0Y41.275
X6.19Y31.0
X8.54Y41.275
X8.73Y31.0
X11.27Y31.0
X13.81Y31.0
X16.35Y31.0
X23.19Y31.0
X25.73Y31.0
X28.27Y31.0
X30.81Y31.0
T4
X-12.573Y16.969
X-12.573Y13.667
X-12.573Y6.246
X-12.573Y2.944
X-12.573Y-4.754
X-12.573Y-8.056
X-12.573Y-15.754
X-12.573Y-19.056
X0.889Y16.969
X0.889Y13.667
X0.889Y6.246
X0.889Y2.944
X0.889Y-4.754
X0.889Y-8.056
X0.889Y-15.754
X0.889Y-19.056
T5
X8.738Y14.742
X8.738Y9.742
X8.738Y-8.198
X8.738Y-13.198
T6
X43.688Y3.6
X43.688Y-3.6
T0
M30
