%TF.GenerationSoftware,KiCad,Pcbnew,(6.0.10)*%
%TF.CreationDate,2023-01-21T11:36:26-08:00*%
%TF.ProjectId,unified_elec_steering,756e6966-6965-4645-9f65-6c65635f7374,rev?*%
%TF.SameCoordinates,Original*%
%TF.FileFunction,Copper,L1,Top*%
%TF.FilePolarity,Positive*%
%FSLAX46Y46*%
G04 Gerber Fmt 4.6, Leading zero omitted, Abs format (unit mm)*
G04 Created by KiCad (PCBNEW (6.0.10)) date 2023-01-21 11:36:26*
%MOMM*%
%LPD*%
G01*
G04 APERTURE LIST*
G04 Aperture macros list*
%AMRoundRect*
0 Rectangle with rounded corners*
0 $1 Rounding radius*
0 $2 $3 $4 $5 $6 $7 $8 $9 X,Y pos of 4 corners*
0 Add a 4 corners polygon primitive as box body*
4,1,4,$2,$3,$4,$5,$6,$7,$8,$9,$2,$3,0*
0 Add four circle primitives for the rounded corners*
1,1,$1+$1,$2,$3*
1,1,$1+$1,$4,$5*
1,1,$1+$1,$6,$7*
1,1,$1+$1,$8,$9*
0 Add four rect primitives between the rounded corners*
20,1,$1+$1,$2,$3,$4,$5,0*
20,1,$1+$1,$4,$5,$6,$7,0*
20,1,$1+$1,$6,$7,$8,$9,0*
20,1,$1+$1,$8,$9,$2,$3,0*%
%AMRotRect*
0 Rectangle, with rotation*
0 The origin of the aperture is its center*
0 $1 length*
0 $2 width*
0 $3 Rotation angle, in degrees counterclockwise*
0 Add horizontal line*
21,1,$1,$2,0,0,$3*%
G04 Aperture macros list end*
%TA.AperFunction,ComponentPad*%
%ADD10RoundRect,0.250000X0.620000X0.620000X-0.620000X0.620000X-0.620000X-0.620000X0.620000X-0.620000X0*%
%TD*%
%TA.AperFunction,ComponentPad*%
%ADD11C,1.740000*%
%TD*%
%TA.AperFunction,ComponentPad*%
%ADD12C,2.540000*%
%TD*%
%TA.AperFunction,ComponentPad*%
%ADD13C,2.235200*%
%TD*%
%TA.AperFunction,ComponentPad*%
%ADD14R,1.520000X1.520000*%
%TD*%
%TA.AperFunction,ComponentPad*%
%ADD15C,1.520000*%
%TD*%
%TA.AperFunction,ComponentPad*%
%ADD16C,1.905000*%
%TD*%
%TA.AperFunction,ComponentPad*%
%ADD17R,1.905000X1.905000*%
%TD*%
%TA.AperFunction,ComponentPad*%
%ADD18RotRect,1.905000X1.905000X320.000000*%
%TD*%
%TA.AperFunction,ComponentPad*%
%ADD19RotRect,1.520000X1.520000X40.000000*%
%TD*%
%TA.AperFunction,ComponentPad*%
%ADD20C,3.810000*%
%TD*%
%TA.AperFunction,ComponentPad*%
%ADD21R,3.810000X3.810000*%
%TD*%
%TA.AperFunction,ComponentPad*%
%ADD22R,1.600000X1.600000*%
%TD*%
%TA.AperFunction,ComponentPad*%
%ADD23O,1.600000X1.600000*%
%TD*%
%TA.AperFunction,ComponentPad*%
%ADD24RoundRect,1.500000X-1.500000X1.500000X-1.500000X-1.500000X1.500000X-1.500000X1.500000X1.500000X0*%
%TD*%
%TA.AperFunction,ComponentPad*%
%ADD25C,6.000000*%
%TD*%
%TA.AperFunction,Conductor*%
%ADD26C,0.350000*%
%TD*%
%TA.AperFunction,Conductor*%
%ADD27C,3.810000*%
%TD*%
%TA.AperFunction,Conductor*%
%ADD28C,0.254000*%
%TD*%
%TA.AperFunction,Conductor*%
%ADD29C,1.905000*%
%TD*%
G04 APERTURE END LIST*
D10*
%TO.P,J12,1,Pin_1*%
%TO.N,+5V*%
X30810000Y31000000D03*
D11*
%TO.P,J12,2,Pin_2*%
%TO.N,GND*%
X28270000Y31000000D03*
%TO.P,J12,3,Pin_3*%
%TO.N,D5*%
X25730000Y31000000D03*
%TO.P,J12,4,Pin_4*%
%TO.N,D4*%
X23190000Y31000000D03*
%TD*%
D12*
%TO.P,F4,1*%
%TO.N,Net-(F4-Pad1)*%
X-12573000Y-15754000D03*
X-12573000Y-19056000D03*
D13*
%TO.P,F4,2*%
%TO.N,+7.5V*%
X889000Y-15754000D03*
X889000Y-19056000D03*
%TD*%
D14*
%TO.P,J5,1,Pin_1*%
%TO.N,SERVO2*%
X-12534993Y-39901813D03*
D15*
%TO.P,J5,2,Pin_2*%
%TO.N,GND*%
X-9034993Y-39901813D03*
D16*
%TO.P,J5,3,Pin_3*%
%TO.N,Net-(F3-Pad1)*%
X-5534993Y-39901813D03*
%TD*%
D10*
%TO.P,J7,1,Pin_1*%
%TO.N,+5V*%
X16350000Y31000000D03*
D11*
%TO.P,J7,2,Pin_2*%
%TO.N,GND*%
X13810000Y31000000D03*
%TO.P,J7,3,Pin_3*%
%TO.N,A7*%
X11270000Y31000000D03*
%TO.P,J7,4,Pin_4*%
%TO.N,A6*%
X8730000Y31000000D03*
%TO.P,J7,5,Pin_5*%
%TO.N,A5*%
X6190000Y31000000D03*
%TO.P,J7,6,Pin_6*%
%TO.N,A4*%
X3650000Y31000000D03*
%TD*%
D12*
%TO.P,F2,1*%
%TO.N,Net-(F2-Pad1)*%
X-12573000Y-8056000D03*
X-12573000Y-4754000D03*
%TO.P,F2,2*%
%TO.N,+7.5V*%
X889000Y-4754000D03*
X889000Y-8056000D03*
%TD*%
D17*
%TO.P,J9,1,Pin_1*%
%TO.N,SERVO1*%
X5465007Y-39901813D03*
D16*
%TO.P,J9,2,Pin_2*%
%TO.N,GND*%
X8965007Y-39901813D03*
%TO.P,J9,3,Pin_3*%
%TO.N,Net-(F2-Pad1)*%
X12465007Y-39901813D03*
%TD*%
D10*
%TO.P,J6,1,Pin_1*%
%TO.N,+5V*%
X-23190000Y31000000D03*
D11*
%TO.P,J6,2,Pin_2*%
%TO.N,GND*%
X-25730000Y31000000D03*
%TO.P,J6,3,Pin_3*%
%TO.N,RX*%
X-28270000Y31000000D03*
%TO.P,J6,4,Pin_4*%
%TO.N,TX*%
X-30810000Y31000000D03*
%TD*%
D18*
%TO.P,J4,1,Pin_1*%
%TO.N,SERVO3*%
X-29616058Y-29287531D03*
D16*
%TO.P,J4,2,Pin_2*%
%TO.N,GND*%
X-26934902Y-31537288D03*
%TO.P,J4,3,Pin_3*%
%TO.N,Net-(F1-Pad1)*%
X-24253747Y-33787044D03*
%TD*%
D12*
%TO.P,F3,1*%
%TO.N,Net-(F3-Pad1)*%
X-12573000Y2944000D03*
X-12573000Y6246000D03*
D13*
%TO.P,F3,2*%
%TO.N,+7.5V*%
X889000Y6246000D03*
X889000Y2944000D03*
%TD*%
D10*
%TO.P,J11,1,Pin_1*%
%TO.N,+5V*%
X8540000Y41275000D03*
D11*
%TO.P,J11,2,Pin_2*%
%TO.N,GND*%
X6000000Y41275000D03*
%TO.P,J11,3,Pin_3*%
%TO.N,D2*%
X3460000Y41275000D03*
%TD*%
D12*
%TO.P,F1,1*%
%TO.N,Net-(F1-Pad1)*%
X-12573000Y16969000D03*
X-12573000Y13667000D03*
D13*
%TO.P,F1,2*%
%TO.N,+7.5V*%
X889000Y13667000D03*
X889000Y16969000D03*
%TD*%
D19*
%TO.P,J10,1,Pin_1*%
%TO.N,SERVO0*%
X24474832Y-34126705D03*
D15*
%TO.P,J10,2,Pin_2*%
%TO.N,GND*%
X27155988Y-31876948D03*
D16*
%TO.P,J10,3,Pin_3*%
%TO.N,Net-(F4-Pad1)*%
X29837143Y-29627192D03*
%TD*%
D20*
%TO.P,U2,1,VIN*%
%TO.N,VBUS*%
X8738000Y14742000D03*
D21*
%TO.P,U2,2,GND*%
%TO.N,GND*%
X8738000Y9742000D03*
%TO.P,U2,3,PG*%
X8738000Y-8198000D03*
D20*
%TO.P,U2,4,MOD*%
%TO.N,+7.5V*%
X8738000Y-13198000D03*
%TD*%
D22*
%TO.P,U1,1,D1/TX*%
%TO.N,TX*%
X-40376000Y21336000D03*
D23*
%TO.P,U1,2,D0/RX*%
%TO.N,RX*%
X-40376000Y18796000D03*
%TO.P,U1,3,~{RESET}*%
%TO.N,unconnected-(U1-Pad3)*%
X-40376000Y16256000D03*
%TO.P,U1,4,GND*%
%TO.N,GND*%
X-40376000Y13716000D03*
%TO.P,U1,5,D2*%
%TO.N,D2*%
X-40376000Y11176000D03*
%TO.P,U1,6,D3*%
%TO.N,D3*%
X-40376000Y8636000D03*
%TO.P,U1,7,D4*%
%TO.N,D4*%
X-40376000Y6096000D03*
%TO.P,U1,8,D5*%
%TO.N,D5*%
X-40376000Y3556000D03*
%TO.P,U1,9,D6*%
%TO.N,SERVO0*%
X-40376000Y1016000D03*
%TO.P,U1,10,D7*%
%TO.N,D7*%
X-40376000Y-1524000D03*
%TO.P,U1,11,D8*%
%TO.N,D8*%
X-40376000Y-4064000D03*
%TO.P,U1,12,D9*%
%TO.N,SERVO1*%
X-40376000Y-6604000D03*
%TO.P,U1,13,D10*%
%TO.N,SERVO2*%
X-40376000Y-9144000D03*
%TO.P,U1,14,D11*%
%TO.N,SERVO3*%
X-40376000Y-11684000D03*
%TO.P,U1,15,D12*%
%TO.N,D12*%
X-40376000Y-14224000D03*
%TO.P,U1,16,D13*%
%TO.N,D13*%
X-25136000Y-14224000D03*
%TO.P,U1,17,3V3*%
%TO.N,+3V3*%
X-25136000Y-11684000D03*
%TO.P,U1,18,AREF*%
%TO.N,unconnected-(U1-Pad18)*%
X-25136000Y-9144000D03*
%TO.P,U1,19,A0*%
%TO.N,A0*%
X-25136000Y-6604000D03*
%TO.P,U1,20,A1*%
%TO.N,A1*%
X-25136000Y-4064000D03*
%TO.P,U1,21,A2*%
%TO.N,A2*%
X-25136000Y-1524000D03*
%TO.P,U1,22,A3*%
%TO.N,A3*%
X-25136000Y1016000D03*
%TO.P,U1,23,A4*%
%TO.N,A4*%
X-25136000Y3556000D03*
%TO.P,U1,24,A5*%
%TO.N,A5*%
X-25136000Y6096000D03*
%TO.P,U1,25,A6*%
%TO.N,A6*%
X-25136000Y8636000D03*
%TO.P,U1,26,A7*%
%TO.N,A7*%
X-25136000Y11176000D03*
%TO.P,U1,27,+5V*%
%TO.N,+5V*%
X-25136000Y13716000D03*
%TO.P,U1,28,~{RESET}*%
%TO.N,RESET*%
X-25136000Y16256000D03*
%TO.P,U1,29,GND*%
%TO.N,GND*%
X-25136000Y18796000D03*
%TO.P,U1,30,VIN*%
%TO.N,VBUS*%
X-25136000Y21336000D03*
%TD*%
D24*
%TO.P,J3,1,Pin_1*%
%TO.N,VBUS*%
X43688000Y3600000D03*
D25*
%TO.P,J3,2,Pin_2*%
%TO.N,GND*%
X43688000Y-3600000D03*
%TD*%
D10*
%TO.P,J8,1,Pin_1*%
%TO.N,+5V*%
X-3650000Y31000000D03*
D11*
%TO.P,J8,2,Pin_2*%
%TO.N,GND*%
X-6190000Y31000000D03*
%TO.P,J8,3,Pin_3*%
%TO.N,A3*%
X-8730000Y31000000D03*
%TO.P,J8,4,Pin_4*%
%TO.N,A2*%
X-11270000Y31000000D03*
%TO.P,J8,5,Pin_5*%
%TO.N,A1*%
X-13810000Y31000000D03*
%TO.P,J8,6,Pin_6*%
%TO.N,D3*%
X-16350000Y31000000D03*
%TD*%
D10*
%TO.P,J13,1,Pin_1*%
%TO.N,+5V*%
X-3460000Y41275000D03*
D11*
%TO.P,J13,2,Pin_2*%
%TO.N,GND*%
X-6000000Y41275000D03*
%TO.P,J13,3,Pin_3*%
%TO.N,A0*%
X-8540000Y41275000D03*
%TD*%
D26*
%TO.N,VBUS*%
X3302000Y21336000D02*
X8738000Y15900000D01*
D27*
X43688000Y3600000D02*
X32546000Y14742000D01*
D26*
X-25136000Y21336000D02*
X3302000Y21336000D01*
X8738000Y15900000D02*
X8738000Y14742000D01*
D27*
X32546000Y14742000D02*
X8738000Y14742000D01*
D26*
%TO.N,+5V*%
X-27305000Y15885000D02*
X-27305000Y23495000D01*
X-25136000Y13716000D02*
X-27305000Y15885000D01*
D28*
%TO.N,TX*%
X-40376000Y21336000D02*
X-36683688Y21336000D01*
X-30810000Y27209688D02*
X-30810000Y31000000D01*
X-36683688Y21336000D02*
X-30810000Y27209688D01*
%TO.N,RX*%
X-28270000Y31000000D02*
X-28270000Y28824792D01*
X-28270000Y28824792D02*
X-38298792Y18796000D01*
X-38298792Y18796000D02*
X-40376000Y18796000D01*
%TO.N,D4*%
X-36176000Y18144104D02*
X-36176000Y17780000D01*
X-27669104Y26651000D02*
X-27795052Y26525052D01*
X-36176000Y17780000D02*
X-36176000Y10814000D01*
X23190000Y31000000D02*
X18841000Y26651000D01*
X-20320000Y26651000D02*
X-27669104Y26651000D01*
X-40376000Y6096000D02*
X-36176000Y10296000D01*
X18841000Y26651000D02*
X-20320000Y26651000D01*
X-31605052Y22715052D02*
X-36176000Y18144104D01*
X-36176000Y10296000D02*
X-36176000Y10814000D01*
X-27795052Y26525052D02*
X-31605052Y22715052D01*
%TO.N,D5*%
X-27398208Y25997000D02*
X-35522000Y17873208D01*
X20727000Y25997000D02*
X-27398208Y25997000D01*
X25730000Y31000000D02*
X20727000Y25997000D01*
X-35522000Y8410000D02*
X-40376000Y3556000D01*
X-35522000Y17873208D02*
X-35522000Y8410000D01*
D29*
%TO.N,Net-(F1-Pad1)*%
X-21605500Y4634500D02*
X-21605500Y-31045869D01*
X-21605500Y-31045869D02*
X-21605500Y-31138797D01*
X-21605500Y-31138797D02*
X-24253747Y-33787044D01*
X-12573000Y13667000D02*
X-21605500Y4634500D01*
X-21605500Y-31045869D02*
X-21590000Y-31061369D01*
X-12573000Y16969000D02*
X-12573000Y13667000D01*
%TO.N,Net-(F4-Pad1)*%
X-12573000Y-15754000D02*
X-12573000Y-19056000D01*
X24596743Y-24384000D02*
X24596743Y-24386792D01*
X-7245000Y-24384000D02*
X24596743Y-24384000D01*
X-12573000Y-19056000D02*
X-7245000Y-24384000D01*
X24596743Y-24386792D02*
X29837143Y-29627192D01*
%TO.N,Net-(F2-Pad1)*%
X12465007Y-39901813D02*
X12465007Y-34674007D01*
X5080000Y-27289000D02*
X-8897304Y-27289000D01*
X-12573000Y-4754000D02*
X-12573000Y-8056000D01*
X-8897304Y-27289000D02*
X-15795500Y-20390804D01*
X-15795500Y-11278500D02*
X-12573000Y-8056000D01*
X-15795500Y-20390804D02*
X-15795500Y-11278500D01*
X12465007Y-34674007D02*
X5080000Y-27289000D01*
%TO.N,Net-(F3-Pad1)*%
X-12573000Y6246000D02*
X-12573000Y2944000D01*
X-5534993Y-34759601D02*
X-5534993Y-39901813D01*
X-12573000Y2944000D02*
X-18700500Y-3183500D01*
X-18700500Y-3183500D02*
X-18700500Y-21594094D01*
X-18700500Y-21594094D02*
X-5534993Y-34759601D01*
D28*
%TO.N,D3*%
X-20045000Y27305000D02*
X-27940000Y27305000D01*
X-36830000Y12182000D02*
X-36830000Y12700000D01*
X-36830000Y18415000D02*
X-36830000Y12700000D01*
X-16350000Y31000000D02*
X-20045000Y27305000D01*
X-40376000Y8636000D02*
X-36830000Y12182000D01*
X-27940000Y27305000D02*
X-36830000Y18415000D01*
%TO.N,D2*%
X-4160000Y33655000D02*
X-17164000Y33655000D01*
X-37484000Y14068000D02*
X-40376000Y11176000D01*
X-37484000Y18685896D02*
X-37484000Y14068000D01*
X-17164000Y33655000D02*
X-22860000Y27959000D01*
X-22860000Y27959000D02*
X-28210896Y27959000D01*
X3460000Y41275000D02*
X-4160000Y33655000D01*
X-28210896Y27959000D02*
X-37484000Y18685896D01*
%TD*%
%TA.AperFunction,Conductor*%
%TO.N,+5V*%
G36*
X343784Y48990269D02*
G01*
X745816Y48981848D01*
X1707992Y48961693D01*
X1711508Y48961571D01*
X2787898Y48908927D01*
X3074454Y48894911D01*
X3077954Y48894691D01*
X4438494Y48790004D01*
X4441955Y48789689D01*
X5658616Y48661813D01*
X5799056Y48647052D01*
X5802551Y48646635D01*
X7155094Y48466167D01*
X7158551Y48465657D01*
X7832056Y48356573D01*
X8505549Y48247490D01*
X8509014Y48246879D01*
X9849361Y47991194D01*
X9852808Y47990487D01*
X10622042Y47821360D01*
X11185579Y47697459D01*
X11188959Y47696665D01*
X11830761Y47536646D01*
X12512969Y47366552D01*
X12516371Y47365653D01*
X13830626Y46998707D01*
X13834001Y46997714D01*
X15137520Y46594207D01*
X15140859Y46593122D01*
X16432624Y46153370D01*
X16435885Y46152209D01*
X17152365Y45885753D01*
X17714905Y45676546D01*
X17718185Y45675273D01*
X18983319Y45164126D01*
X18986563Y45162763D01*
X20237047Y44616440D01*
X20240180Y44615018D01*
X21474875Y44034015D01*
X21477985Y44032499D01*
X22528650Y43501770D01*
X22695996Y43417237D01*
X22699114Y43415607D01*
X23899462Y42766581D01*
X23902503Y42764880D01*
X24850551Y42217525D01*
X25084212Y42082621D01*
X25087224Y42080826D01*
X25312728Y41942095D01*
X26249473Y41365805D01*
X26252444Y41363919D01*
X27394213Y40616766D01*
X27397130Y40614799D01*
X27793343Y40339424D01*
X28517651Y39836017D01*
X28520462Y39834005D01*
X29093965Y39411182D01*
X29618829Y39024219D01*
X29621631Y39022091D01*
X30154423Y38605829D01*
X30696861Y38182030D01*
X30699603Y38179826D01*
X31751013Y37310023D01*
X31753693Y37307742D01*
X32780377Y36408949D01*
X32782981Y36406605D01*
X33784197Y35479469D01*
X33786745Y35477043D01*
X34761689Y34522307D01*
X34764168Y34519810D01*
X35712058Y33538242D01*
X35714464Y33535680D01*
X36138619Y33071170D01*
X36634562Y32528042D01*
X36636898Y32525411D01*
X37528505Y31492474D01*
X37530767Y31489779D01*
X38168624Y30707690D01*
X38393223Y30432304D01*
X38395397Y30429560D01*
X39190421Y29397202D01*
X39227947Y29348473D01*
X39230045Y29345670D01*
X39428809Y29072094D01*
X40032121Y28241705D01*
X40034149Y28238830D01*
X40805073Y27112925D01*
X40807020Y27109994D01*
X41546188Y25963029D01*
X41548053Y25960045D01*
X42254927Y24792857D01*
X42256707Y24789823D01*
X42930717Y23603353D01*
X42932401Y23600288D01*
X43215152Y23068512D01*
X43227572Y23045153D01*
X43241892Y22975616D01*
X43216344Y22909375D01*
X43159040Y22867463D01*
X43116321Y22860000D01*
X-29332285Y22860000D01*
X-29400406Y22880002D01*
X-29446899Y22933658D01*
X-29457003Y23003932D01*
X-29427509Y23068512D01*
X-29421380Y23075095D01*
X-27171880Y25324595D01*
X-27109568Y25358621D01*
X-27082785Y25361500D01*
X20647980Y25361500D01*
X20659214Y25360970D01*
X20666719Y25359292D01*
X20735012Y25361438D01*
X20738969Y25361500D01*
X20766983Y25361500D01*
X20770908Y25361996D01*
X20770909Y25361996D01*
X20771004Y25362008D01*
X20782849Y25362941D01*
X20812670Y25363878D01*
X20819282Y25364086D01*
X20819283Y25364086D01*
X20827205Y25364335D01*
X20846749Y25370013D01*
X20866112Y25374023D01*
X20878440Y25375580D01*
X20878442Y25375580D01*
X20886299Y25376573D01*
X20893663Y25379489D01*
X20893668Y25379490D01*
X20927556Y25392907D01*
X20938785Y25396752D01*
X20955465Y25401598D01*
X20981393Y25409131D01*
X20988220Y25413169D01*
X20988223Y25413170D01*
X20998906Y25419488D01*
X21016664Y25428188D01*
X21028215Y25432761D01*
X21028221Y25432765D01*
X21035588Y25435681D01*
X21071491Y25461766D01*
X21081410Y25468281D01*
X21112768Y25486826D01*
X21112772Y25486829D01*
X21119598Y25490866D01*
X21133982Y25505250D01*
X21149016Y25518091D01*
X21159073Y25525398D01*
X21165487Y25530058D01*
X21193778Y25564256D01*
X21201767Y25573035D01*
X25259940Y29631208D01*
X25322252Y29665234D01*
X25374154Y29665583D01*
X25566221Y29626506D01*
X25571394Y29626316D01*
X25571397Y29626316D01*
X25787583Y29618389D01*
X25787587Y29618389D01*
X25792747Y29618200D01*
X25797867Y29618856D01*
X25797869Y29618856D01*
X25877951Y29629115D01*
X26017588Y29647003D01*
X26022537Y29648488D01*
X26022543Y29648489D01*
X26229756Y29710656D01*
X26229755Y29710656D01*
X26234706Y29712141D01*
X26438270Y29811866D01*
X26442475Y29814866D01*
X26442481Y29814869D01*
X26618609Y29940500D01*
X26618611Y29940502D01*
X26622813Y29943499D01*
X26783378Y30103505D01*
X26898945Y30264334D01*
X26954940Y30307982D01*
X27025643Y30314428D01*
X27088608Y30281625D01*
X27108700Y30256643D01*
X27151090Y30187470D01*
X27151093Y30187465D01*
X27153793Y30183060D01*
X27157174Y30179157D01*
X27298824Y30015631D01*
X27298828Y30015627D01*
X27302209Y30011724D01*
X27476615Y29866929D01*
X27481082Y29864319D01*
X27667867Y29755171D01*
X27667870Y29755169D01*
X27672329Y29752564D01*
X27884093Y29671699D01*
X27889161Y29670668D01*
X27889164Y29670667D01*
X27998172Y29648489D01*
X28106221Y29626506D01*
X28111394Y29626316D01*
X28111397Y29626316D01*
X28327583Y29618389D01*
X28327587Y29618389D01*
X28332747Y29618200D01*
X28337867Y29618856D01*
X28337869Y29618856D01*
X28417951Y29629115D01*
X28557588Y29647003D01*
X28562537Y29648488D01*
X28562543Y29648489D01*
X28769756Y29710656D01*
X28769755Y29710656D01*
X28774706Y29712141D01*
X28978270Y29811866D01*
X28982475Y29814866D01*
X28982481Y29814869D01*
X29158609Y29940500D01*
X29158611Y29940502D01*
X29162813Y29943499D01*
X29301607Y30081810D01*
X29363978Y30115726D01*
X29434785Y30110538D01*
X29491547Y30067892D01*
X29498614Y30056087D01*
X29498906Y30056268D01*
X29588063Y29912193D01*
X29597099Y29900792D01*
X29711829Y29786261D01*
X29723240Y29777249D01*
X29861243Y29692184D01*
X29874424Y29686037D01*
X30028710Y29634862D01*
X30042086Y29631995D01*
X30136438Y29622328D01*
X30142854Y29622000D01*
X30537885Y29622000D01*
X30553124Y29626475D01*
X30554329Y29627865D01*
X30556000Y29635548D01*
X30556000Y29640116D01*
X31064000Y29640116D01*
X31068475Y29624877D01*
X31069865Y29623672D01*
X31077548Y29622001D01*
X31477095Y29622001D01*
X31483614Y29622338D01*
X31579206Y29632257D01*
X31592600Y29635149D01*
X31746784Y29686588D01*
X31759962Y29692761D01*
X31897807Y29778063D01*
X31909208Y29787099D01*
X32023739Y29901829D01*
X32032751Y29913240D01*
X32117816Y30051243D01*
X32123963Y30064424D01*
X32175138Y30218710D01*
X32178005Y30232086D01*
X32187672Y30326438D01*
X32188000Y30332855D01*
X32188000Y30727885D01*
X32183525Y30743124D01*
X32182135Y30744329D01*
X32174452Y30746000D01*
X31082115Y30746000D01*
X31066876Y30741525D01*
X31065671Y30740135D01*
X31064000Y30732452D01*
X31064000Y29640116D01*
X30556000Y29640116D01*
X30556000Y31272115D01*
X31064000Y31272115D01*
X31068475Y31256876D01*
X31069865Y31255671D01*
X31077548Y31254000D01*
X32169884Y31254000D01*
X32185123Y31258475D01*
X32186328Y31259865D01*
X32187999Y31267548D01*
X32187999Y31667095D01*
X32187662Y31673614D01*
X32177743Y31769206D01*
X32174851Y31782600D01*
X32123412Y31936784D01*
X32117239Y31949962D01*
X32031937Y32087807D01*
X32022901Y32099208D01*
X31908171Y32213739D01*
X31896760Y32222751D01*
X31758757Y32307816D01*
X31745576Y32313963D01*
X31591290Y32365138D01*
X31577914Y32368005D01*
X31483562Y32377672D01*
X31477145Y32378000D01*
X31082115Y32378000D01*
X31066876Y32373525D01*
X31065671Y32372135D01*
X31064000Y32364452D01*
X31064000Y31272115D01*
X30556000Y31272115D01*
X30556000Y32359884D01*
X30551525Y32375123D01*
X30550135Y32376328D01*
X30542452Y32377999D01*
X30142905Y32377999D01*
X30136386Y32377662D01*
X30040794Y32367743D01*
X30027400Y32364851D01*
X29873216Y32313412D01*
X29860038Y32307239D01*
X29722193Y32221937D01*
X29710792Y32212901D01*
X29596261Y32098171D01*
X29587249Y32086760D01*
X29498342Y31942525D01*
X29496401Y31943721D01*
X29456784Y31898725D01*
X29388507Y31879263D01*
X29320547Y31899804D01*
X29296311Y31920460D01*
X29216837Y32007802D01*
X29216828Y32007811D01*
X29213356Y32011626D01*
X29209305Y32014825D01*
X29209301Y32014829D01*
X29039519Y32148915D01*
X29039515Y32148917D01*
X29035464Y32152117D01*
X28837015Y32261666D01*
X28832146Y32263390D01*
X28832142Y32263392D01*
X28628214Y32335607D01*
X28628210Y32335608D01*
X28623339Y32337333D01*
X28618246Y32338240D01*
X28618243Y32338241D01*
X28545832Y32351139D01*
X28400173Y32377085D01*
X28314179Y32378136D01*
X28178681Y32379792D01*
X28178679Y32379792D01*
X28173511Y32379855D01*
X27949441Y32345567D01*
X27733979Y32275143D01*
X27729391Y32272755D01*
X27729387Y32272753D01*
X27537502Y32172864D01*
X27532913Y32170475D01*
X27528780Y32167372D01*
X27528777Y32167370D01*
X27421415Y32086760D01*
X27351641Y32034372D01*
X27195033Y31870491D01*
X27192119Y31866219D01*
X27192118Y31866218D01*
X27103645Y31736521D01*
X27048734Y31691518D01*
X26978209Y31683347D01*
X26914462Y31714601D01*
X26893767Y31739082D01*
X26825914Y31843967D01*
X26673356Y32011626D01*
X26669305Y32014825D01*
X26669301Y32014829D01*
X26499519Y32148915D01*
X26499515Y32148917D01*
X26495464Y32152117D01*
X26297015Y32261666D01*
X26292146Y32263390D01*
X26292142Y32263392D01*
X26088214Y32335607D01*
X26088210Y32335608D01*
X26083339Y32337333D01*
X26078246Y32338240D01*
X26078243Y32338241D01*
X26005832Y32351139D01*
X25860173Y32377085D01*
X25774179Y32378136D01*
X25638681Y32379792D01*
X25638679Y32379792D01*
X25633511Y32379855D01*
X25409441Y32345567D01*
X25193979Y32275143D01*
X25189391Y32272755D01*
X25189387Y32272753D01*
X24997502Y32172864D01*
X24992913Y32170475D01*
X24988780Y32167372D01*
X24988777Y32167370D01*
X24881415Y32086760D01*
X24811641Y32034372D01*
X24655033Y31870491D01*
X24652119Y31866219D01*
X24652118Y31866218D01*
X24563645Y31736521D01*
X24508734Y31691518D01*
X24438209Y31683347D01*
X24374462Y31714601D01*
X24353767Y31739082D01*
X24285914Y31843967D01*
X24133356Y32011626D01*
X24129305Y32014825D01*
X24129301Y32014829D01*
X23959519Y32148915D01*
X23959515Y32148917D01*
X23955464Y32152117D01*
X23757015Y32261666D01*
X23752146Y32263390D01*
X23752142Y32263392D01*
X23548214Y32335607D01*
X23548210Y32335608D01*
X23543339Y32337333D01*
X23538246Y32338240D01*
X23538243Y32338241D01*
X23465832Y32351139D01*
X23320173Y32377085D01*
X23234179Y32378136D01*
X23098681Y32379792D01*
X23098679Y32379792D01*
X23093511Y32379855D01*
X22869441Y32345567D01*
X22653979Y32275143D01*
X22649391Y32272755D01*
X22649387Y32272753D01*
X22457502Y32172864D01*
X22452913Y32170475D01*
X22448780Y32167372D01*
X22448777Y32167370D01*
X22341415Y32086760D01*
X22271641Y32034372D01*
X22115033Y31870491D01*
X22112119Y31866219D01*
X22112118Y31866218D01*
X22093979Y31839627D01*
X21987294Y31683232D01*
X21973560Y31653644D01*
X21897496Y31489779D01*
X21891854Y31477625D01*
X21831277Y31259190D01*
X21807189Y31033795D01*
X21807486Y31028642D01*
X21807486Y31028639D01*
X21811132Y30965406D01*
X21820237Y30807492D01*
X21821374Y30802446D01*
X21821375Y30802440D01*
X21856201Y30647907D01*
X21851665Y30577055D01*
X21822379Y30531111D01*
X18614672Y27323405D01*
X18552360Y27289379D01*
X18525577Y27286500D01*
X-18860578Y27286500D01*
X-18928699Y27306502D01*
X-18975192Y27360158D01*
X-18985296Y27430432D01*
X-18955802Y27495012D01*
X-18949673Y27501595D01*
X-16820060Y29631207D01*
X-16757748Y29665233D01*
X-16705846Y29665583D01*
X-16513779Y29626506D01*
X-16508606Y29626316D01*
X-16508603Y29626316D01*
X-16292417Y29618389D01*
X-16292413Y29618389D01*
X-16287253Y29618200D01*
X-16282133Y29618856D01*
X-16282131Y29618856D01*
X-16202049Y29629115D01*
X-16062412Y29647003D01*
X-16057463Y29648488D01*
X-16057457Y29648489D01*
X-15850244Y29710656D01*
X-15850245Y29710656D01*
X-15845294Y29712141D01*
X-15641730Y29811866D01*
X-15637525Y29814866D01*
X-15637519Y29814869D01*
X-15461391Y29940500D01*
X-15461389Y29940502D01*
X-15457187Y29943499D01*
X-15296622Y30103505D01*
X-15181055Y30264334D01*
X-15125060Y30307982D01*
X-15054357Y30314428D01*
X-14991392Y30281625D01*
X-14971300Y30256643D01*
X-14928910Y30187470D01*
X-14928907Y30187465D01*
X-14926207Y30183060D01*
X-14922826Y30179157D01*
X-14781176Y30015631D01*
X-14781172Y30015627D01*
X-14777791Y30011724D01*
X-14603385Y29866929D01*
X-14598918Y29864319D01*
X-14412133Y29755171D01*
X-14412130Y29755169D01*
X-14407671Y29752564D01*
X-14195907Y29671699D01*
X-14190839Y29670668D01*
X-14190836Y29670667D01*
X-14081828Y29648489D01*
X-13973779Y29626506D01*
X-13968606Y29626316D01*
X-13968603Y29626316D01*
X-13752417Y29618389D01*
X-13752413Y29618389D01*
X-13747253Y29618200D01*
X-13742133Y29618856D01*
X-13742131Y29618856D01*
X-13662049Y29629115D01*
X-13522412Y29647003D01*
X-13517463Y29648488D01*
X-13517457Y29648489D01*
X-13310244Y29710656D01*
X-13310245Y29710656D01*
X-13305294Y29712141D01*
X-13101730Y29811866D01*
X-13097525Y29814866D01*
X-13097519Y29814869D01*
X-12921391Y29940500D01*
X-12921389Y29940502D01*
X-12917187Y29943499D01*
X-12756622Y30103505D01*
X-12641055Y30264334D01*
X-12585060Y30307982D01*
X-12514357Y30314428D01*
X-12451392Y30281625D01*
X-12431300Y30256643D01*
X-12388910Y30187470D01*
X-12388907Y30187465D01*
X-12386207Y30183060D01*
X-12382826Y30179157D01*
X-12241176Y30015631D01*
X-12241172Y30015627D01*
X-12237791Y30011724D01*
X-12063385Y29866929D01*
X-12058918Y29864319D01*
X-11872133Y29755171D01*
X-11872130Y29755169D01*
X-11867671Y29752564D01*
X-11655907Y29671699D01*
X-11650839Y29670668D01*
X-11650836Y29670667D01*
X-11541828Y29648489D01*
X-11433779Y29626506D01*
X-11428606Y29626316D01*
X-11428603Y29626316D01*
X-11212417Y29618389D01*
X-11212413Y29618389D01*
X-11207253Y29618200D01*
X-11202133Y29618856D01*
X-11202131Y29618856D01*
X-11122049Y29629115D01*
X-10982412Y29647003D01*
X-10977463Y29648488D01*
X-10977457Y29648489D01*
X-10770244Y29710656D01*
X-10770245Y29710656D01*
X-10765294Y29712141D01*
X-10561730Y29811866D01*
X-10557525Y29814866D01*
X-10557519Y29814869D01*
X-10381391Y29940500D01*
X-10381389Y29940502D01*
X-10377187Y29943499D01*
X-10216622Y30103505D01*
X-10101055Y30264334D01*
X-10045060Y30307982D01*
X-9974357Y30314428D01*
X-9911392Y30281625D01*
X-9891300Y30256643D01*
X-9848910Y30187470D01*
X-9848907Y30187465D01*
X-9846207Y30183060D01*
X-9842826Y30179157D01*
X-9701176Y30015631D01*
X-9701172Y30015627D01*
X-9697791Y30011724D01*
X-9523385Y29866929D01*
X-9518918Y29864319D01*
X-9332133Y29755171D01*
X-9332130Y29755169D01*
X-9327671Y29752564D01*
X-9115907Y29671699D01*
X-9110839Y29670668D01*
X-9110836Y29670667D01*
X-9001828Y29648489D01*
X-8893779Y29626506D01*
X-8888606Y29626316D01*
X-8888603Y29626316D01*
X-8672417Y29618389D01*
X-8672413Y29618389D01*
X-8667253Y29618200D01*
X-8662133Y29618856D01*
X-8662131Y29618856D01*
X-8582049Y29629115D01*
X-8442412Y29647003D01*
X-8437463Y29648488D01*
X-8437457Y29648489D01*
X-8230244Y29710656D01*
X-8230245Y29710656D01*
X-8225294Y29712141D01*
X-8021730Y29811866D01*
X-8017525Y29814866D01*
X-8017519Y29814869D01*
X-7841391Y29940500D01*
X-7841389Y29940502D01*
X-7837187Y29943499D01*
X-7676622Y30103505D01*
X-7561055Y30264334D01*
X-7505060Y30307982D01*
X-7434357Y30314428D01*
X-7371392Y30281625D01*
X-7351300Y30256643D01*
X-7308910Y30187470D01*
X-7308907Y30187465D01*
X-7306207Y30183060D01*
X-7302826Y30179157D01*
X-7161176Y30015631D01*
X-7161172Y30015627D01*
X-7157791Y30011724D01*
X-6983385Y29866929D01*
X-6978918Y29864319D01*
X-6792133Y29755171D01*
X-6792130Y29755169D01*
X-6787671Y29752564D01*
X-6575907Y29671699D01*
X-6570839Y29670668D01*
X-6570836Y29670667D01*
X-6461828Y29648489D01*
X-6353779Y29626506D01*
X-6348606Y29626316D01*
X-6348603Y29626316D01*
X-6132417Y29618389D01*
X-6132413Y29618389D01*
X-6127253Y29618200D01*
X-6122133Y29618856D01*
X-6122131Y29618856D01*
X-6042049Y29629115D01*
X-5902412Y29647003D01*
X-5897463Y29648488D01*
X-5897457Y29648489D01*
X-5690244Y29710656D01*
X-5690245Y29710656D01*
X-5685294Y29712141D01*
X-5481730Y29811866D01*
X-5477525Y29814866D01*
X-5477519Y29814869D01*
X-5301391Y29940500D01*
X-5301389Y29940502D01*
X-5297187Y29943499D01*
X-5158393Y30081810D01*
X-5096022Y30115726D01*
X-5025215Y30110538D01*
X-4968453Y30067892D01*
X-4961386Y30056087D01*
X-4961094Y30056268D01*
X-4871937Y29912193D01*
X-4862901Y29900792D01*
X-4748171Y29786261D01*
X-4736760Y29777249D01*
X-4598757Y29692184D01*
X-4585576Y29686037D01*
X-4431290Y29634862D01*
X-4417914Y29631995D01*
X-4323562Y29622328D01*
X-4317146Y29622000D01*
X-3922115Y29622000D01*
X-3906876Y29626475D01*
X-3905671Y29627865D01*
X-3904000Y29635548D01*
X-3904000Y29640116D01*
X-3396000Y29640116D01*
X-3391525Y29624877D01*
X-3390135Y29623672D01*
X-3382452Y29622001D01*
X-2982905Y29622001D01*
X-2976386Y29622338D01*
X-2880794Y29632257D01*
X-2867400Y29635149D01*
X-2713216Y29686588D01*
X-2700038Y29692761D01*
X-2562193Y29778063D01*
X-2550792Y29787099D01*
X-2436261Y29901829D01*
X-2427249Y29913240D01*
X-2342184Y30051243D01*
X-2336037Y30064424D01*
X-2284862Y30218710D01*
X-2281995Y30232086D01*
X-2272328Y30326438D01*
X-2272000Y30332854D01*
X-2272000Y30727885D01*
X-2276475Y30743124D01*
X-2277865Y30744329D01*
X-2285548Y30746000D01*
X-3377885Y30746000D01*
X-3393124Y30741525D01*
X-3394329Y30740135D01*
X-3396000Y30732452D01*
X-3396000Y29640116D01*
X-3904000Y29640116D01*
X-3904000Y31033795D01*
X2267189Y31033795D01*
X2267486Y31028642D01*
X2267486Y31028639D01*
X2271132Y30965406D01*
X2280237Y30807492D01*
X2281374Y30802446D01*
X2281375Y30802440D01*
X2295417Y30740135D01*
X2330072Y30586360D01*
X2415354Y30376335D01*
X2418053Y30371931D01*
X2531091Y30187470D01*
X2533793Y30183060D01*
X2537174Y30179157D01*
X2678824Y30015631D01*
X2678828Y30015627D01*
X2682209Y30011724D01*
X2856615Y29866929D01*
X2861082Y29864319D01*
X3047867Y29755171D01*
X3047870Y29755169D01*
X3052329Y29752564D01*
X3264093Y29671699D01*
X3269161Y29670668D01*
X3269164Y29670667D01*
X3378172Y29648489D01*
X3486221Y29626506D01*
X3491394Y29626316D01*
X3491397Y29626316D01*
X3707583Y29618389D01*
X3707587Y29618389D01*
X3712747Y29618200D01*
X3717867Y29618856D01*
X3717869Y29618856D01*
X3797951Y29629115D01*
X3937588Y29647003D01*
X3942537Y29648488D01*
X3942543Y29648489D01*
X4149756Y29710656D01*
X4149755Y29710656D01*
X4154706Y29712141D01*
X4358270Y29811866D01*
X4362475Y29814866D01*
X4362481Y29814869D01*
X4538609Y29940500D01*
X4538611Y29940502D01*
X4542813Y29943499D01*
X4703378Y30103505D01*
X4818945Y30264334D01*
X4874940Y30307982D01*
X4945643Y30314428D01*
X5008608Y30281625D01*
X5028700Y30256643D01*
X5071090Y30187470D01*
X5071093Y30187465D01*
X5073793Y30183060D01*
X5077174Y30179157D01*
X5218824Y30015631D01*
X5218828Y30015627D01*
X5222209Y30011724D01*
X5396615Y29866929D01*
X5401082Y29864319D01*
X5587867Y29755171D01*
X5587870Y29755169D01*
X5592329Y29752564D01*
X5804093Y29671699D01*
X5809161Y29670668D01*
X5809164Y29670667D01*
X5918172Y29648489D01*
X6026221Y29626506D01*
X6031394Y29626316D01*
X6031397Y29626316D01*
X6247583Y29618389D01*
X6247587Y29618389D01*
X6252747Y29618200D01*
X6257867Y29618856D01*
X6257869Y29618856D01*
X6337951Y29629115D01*
X6477588Y29647003D01*
X6482537Y29648488D01*
X6482543Y29648489D01*
X6689756Y29710656D01*
X6689755Y29710656D01*
X6694706Y29712141D01*
X6898270Y29811866D01*
X6902475Y29814866D01*
X6902481Y29814869D01*
X7078609Y29940500D01*
X7078611Y29940502D01*
X7082813Y29943499D01*
X7243378Y30103505D01*
X7358945Y30264334D01*
X7414940Y30307982D01*
X7485643Y30314428D01*
X7548608Y30281625D01*
X7568700Y30256643D01*
X7611090Y30187470D01*
X7611093Y30187465D01*
X7613793Y30183060D01*
X7617174Y30179157D01*
X7758824Y30015631D01*
X7758828Y30015627D01*
X7762209Y30011724D01*
X7936615Y29866929D01*
X7941082Y29864319D01*
X8127867Y29755171D01*
X8127870Y29755169D01*
X8132329Y29752564D01*
X8344093Y29671699D01*
X8349161Y29670668D01*
X8349164Y29670667D01*
X8458172Y29648489D01*
X8566221Y29626506D01*
X8571394Y29626316D01*
X8571397Y29626316D01*
X8787583Y29618389D01*
X8787587Y29618389D01*
X8792747Y29618200D01*
X8797867Y29618856D01*
X8797869Y29618856D01*
X8877951Y29629115D01*
X9017588Y29647003D01*
X9022537Y29648488D01*
X9022543Y29648489D01*
X9229756Y29710656D01*
X9229755Y29710656D01*
X9234706Y29712141D01*
X9438270Y29811866D01*
X9442475Y29814866D01*
X9442481Y29814869D01*
X9618609Y29940500D01*
X9618611Y29940502D01*
X9622813Y29943499D01*
X9783378Y30103505D01*
X9898945Y30264334D01*
X9954940Y30307982D01*
X10025643Y30314428D01*
X10088608Y30281625D01*
X10108700Y30256643D01*
X10151090Y30187470D01*
X10151093Y30187465D01*
X10153793Y30183060D01*
X10157174Y30179157D01*
X10298824Y30015631D01*
X10298828Y30015627D01*
X10302209Y30011724D01*
X10476615Y29866929D01*
X10481082Y29864319D01*
X10667867Y29755171D01*
X10667870Y29755169D01*
X10672329Y29752564D01*
X10884093Y29671699D01*
X10889161Y29670668D01*
X10889164Y29670667D01*
X10998172Y29648489D01*
X11106221Y29626506D01*
X11111394Y29626316D01*
X11111397Y29626316D01*
X11327583Y29618389D01*
X11327587Y29618389D01*
X11332747Y29618200D01*
X11337867Y29618856D01*
X11337869Y29618856D01*
X11417951Y29629115D01*
X11557588Y29647003D01*
X11562537Y29648488D01*
X11562543Y29648489D01*
X11769756Y29710656D01*
X11769755Y29710656D01*
X11774706Y29712141D01*
X11978270Y29811866D01*
X11982475Y29814866D01*
X11982481Y29814869D01*
X12158609Y29940500D01*
X12158611Y29940502D01*
X12162813Y29943499D01*
X12323378Y30103505D01*
X12438945Y30264334D01*
X12494940Y30307982D01*
X12565643Y30314428D01*
X12628608Y30281625D01*
X12648700Y30256643D01*
X12691090Y30187470D01*
X12691093Y30187465D01*
X12693793Y30183060D01*
X12697174Y30179157D01*
X12838824Y30015631D01*
X12838828Y30015627D01*
X12842209Y30011724D01*
X13016615Y29866929D01*
X13021082Y29864319D01*
X13207867Y29755171D01*
X13207870Y29755169D01*
X13212329Y29752564D01*
X13424093Y29671699D01*
X13429161Y29670668D01*
X13429164Y29670667D01*
X13538172Y29648489D01*
X13646221Y29626506D01*
X13651394Y29626316D01*
X13651397Y29626316D01*
X13867583Y29618389D01*
X13867587Y29618389D01*
X13872747Y29618200D01*
X13877867Y29618856D01*
X13877869Y29618856D01*
X13957951Y29629115D01*
X14097588Y29647003D01*
X14102537Y29648488D01*
X14102543Y29648489D01*
X14309756Y29710656D01*
X14309755Y29710656D01*
X14314706Y29712141D01*
X14518270Y29811866D01*
X14522475Y29814866D01*
X14522481Y29814869D01*
X14698609Y29940500D01*
X14698611Y29940502D01*
X14702813Y29943499D01*
X14841607Y30081810D01*
X14903978Y30115726D01*
X14974785Y30110538D01*
X15031547Y30067892D01*
X15038614Y30056087D01*
X15038906Y30056268D01*
X15128063Y29912193D01*
X15137099Y29900792D01*
X15251829Y29786261D01*
X15263240Y29777249D01*
X15401243Y29692184D01*
X15414424Y29686037D01*
X15568710Y29634862D01*
X15582086Y29631995D01*
X15676438Y29622328D01*
X15682854Y29622000D01*
X16077885Y29622000D01*
X16093124Y29626475D01*
X16094329Y29627865D01*
X16096000Y29635548D01*
X16096000Y29640116D01*
X16604000Y29640116D01*
X16608475Y29624877D01*
X16609865Y29623672D01*
X16617548Y29622001D01*
X17017095Y29622001D01*
X17023614Y29622338D01*
X17119206Y29632257D01*
X17132600Y29635149D01*
X17286784Y29686588D01*
X17299962Y29692761D01*
X17437807Y29778063D01*
X17449208Y29787099D01*
X17563739Y29901829D01*
X17572751Y29913240D01*
X17657816Y30051243D01*
X17663963Y30064424D01*
X17715138Y30218710D01*
X17718005Y30232086D01*
X17727672Y30326438D01*
X17728000Y30332855D01*
X17728000Y30727885D01*
X17723525Y30743124D01*
X17722135Y30744329D01*
X17714452Y30746000D01*
X16622115Y30746000D01*
X16606876Y30741525D01*
X16605671Y30740135D01*
X16604000Y30732452D01*
X16604000Y29640116D01*
X16096000Y29640116D01*
X16096000Y31272115D01*
X16604000Y31272115D01*
X16608475Y31256876D01*
X16609865Y31255671D01*
X16617548Y31254000D01*
X17709884Y31254000D01*
X17725123Y31258475D01*
X17726328Y31259865D01*
X17727999Y31267548D01*
X17727999Y31667095D01*
X17727662Y31673614D01*
X17717743Y31769206D01*
X17714851Y31782600D01*
X17663412Y31936784D01*
X17657239Y31949962D01*
X17571937Y32087807D01*
X17562901Y32099208D01*
X17448171Y32213739D01*
X17436760Y32222751D01*
X17298757Y32307816D01*
X17285576Y32313963D01*
X17131290Y32365138D01*
X17117914Y32368005D01*
X17023562Y32377672D01*
X17017145Y32378000D01*
X16622115Y32378000D01*
X16606876Y32373525D01*
X16605671Y32372135D01*
X16604000Y32364452D01*
X16604000Y31272115D01*
X16096000Y31272115D01*
X16096000Y32359884D01*
X16091525Y32375123D01*
X16090135Y32376328D01*
X16082452Y32377999D01*
X15682905Y32377999D01*
X15676386Y32377662D01*
X15580794Y32367743D01*
X15567400Y32364851D01*
X15413216Y32313412D01*
X15400038Y32307239D01*
X15262193Y32221937D01*
X15250792Y32212901D01*
X15136261Y32098171D01*
X15127249Y32086760D01*
X15038342Y31942525D01*
X15036401Y31943721D01*
X14996784Y31898725D01*
X14928507Y31879263D01*
X14860547Y31899804D01*
X14836311Y31920460D01*
X14756837Y32007802D01*
X14756828Y32007811D01*
X14753356Y32011626D01*
X14749305Y32014825D01*
X14749301Y32014829D01*
X14579519Y32148915D01*
X14579515Y32148917D01*
X14575464Y32152117D01*
X14377015Y32261666D01*
X14372146Y32263390D01*
X14372142Y32263392D01*
X14168214Y32335607D01*
X14168210Y32335608D01*
X14163339Y32337333D01*
X14158246Y32338240D01*
X14158243Y32338241D01*
X14085832Y32351139D01*
X13940173Y32377085D01*
X13854179Y32378136D01*
X13718681Y32379792D01*
X13718679Y32379792D01*
X13713511Y32379855D01*
X13489441Y32345567D01*
X13273979Y32275143D01*
X13269391Y32272755D01*
X13269387Y32272753D01*
X13077502Y32172864D01*
X13072913Y32170475D01*
X13068780Y32167372D01*
X13068777Y32167370D01*
X12961415Y32086760D01*
X12891641Y32034372D01*
X12735033Y31870491D01*
X12732119Y31866219D01*
X12732118Y31866218D01*
X12643645Y31736521D01*
X12588734Y31691518D01*
X12518209Y31683347D01*
X12454462Y31714601D01*
X12433767Y31739082D01*
X12365914Y31843967D01*
X12213356Y32011626D01*
X12209305Y32014825D01*
X12209301Y32014829D01*
X12039519Y32148915D01*
X12039515Y32148917D01*
X12035464Y32152117D01*
X11837015Y32261666D01*
X11832146Y32263390D01*
X11832142Y32263392D01*
X11628214Y32335607D01*
X11628210Y32335608D01*
X11623339Y32337333D01*
X11618246Y32338240D01*
X11618243Y32338241D01*
X11545832Y32351139D01*
X11400173Y32377085D01*
X11314179Y32378136D01*
X11178681Y32379792D01*
X11178679Y32379792D01*
X11173511Y32379855D01*
X10949441Y32345567D01*
X10733979Y32275143D01*
X10729391Y32272755D01*
X10729387Y32272753D01*
X10537502Y32172864D01*
X10532913Y32170475D01*
X10528780Y32167372D01*
X10528777Y32167370D01*
X10421415Y32086760D01*
X10351641Y32034372D01*
X10195033Y31870491D01*
X10192119Y31866219D01*
X10192118Y31866218D01*
X10103645Y31736521D01*
X10048734Y31691518D01*
X9978209Y31683347D01*
X9914462Y31714601D01*
X9893767Y31739082D01*
X9825914Y31843967D01*
X9673356Y32011626D01*
X9669305Y32014825D01*
X9669301Y32014829D01*
X9499519Y32148915D01*
X9499515Y32148917D01*
X9495464Y32152117D01*
X9297015Y32261666D01*
X9292146Y32263390D01*
X9292142Y32263392D01*
X9088214Y32335607D01*
X9088210Y32335608D01*
X9083339Y32337333D01*
X9078246Y32338240D01*
X9078243Y32338241D01*
X9005832Y32351139D01*
X8860173Y32377085D01*
X8774179Y32378136D01*
X8638681Y32379792D01*
X8638679Y32379792D01*
X8633511Y32379855D01*
X8409441Y32345567D01*
X8193979Y32275143D01*
X8189391Y32272755D01*
X8189387Y32272753D01*
X7997502Y32172864D01*
X7992913Y32170475D01*
X7988780Y32167372D01*
X7988777Y32167370D01*
X7881415Y32086760D01*
X7811641Y32034372D01*
X7655033Y31870491D01*
X7652119Y31866219D01*
X7652118Y31866218D01*
X7563645Y31736521D01*
X7508734Y31691518D01*
X7438209Y31683347D01*
X7374462Y31714601D01*
X7353767Y31739082D01*
X7285914Y31843967D01*
X7133356Y32011626D01*
X7129305Y32014825D01*
X7129301Y32014829D01*
X6959519Y32148915D01*
X6959515Y32148917D01*
X6955464Y32152117D01*
X6757015Y32261666D01*
X6752146Y32263390D01*
X6752142Y32263392D01*
X6548214Y32335607D01*
X6548210Y32335608D01*
X6543339Y32337333D01*
X6538246Y32338240D01*
X6538243Y32338241D01*
X6465832Y32351139D01*
X6320173Y32377085D01*
X6234179Y32378136D01*
X6098681Y32379792D01*
X6098679Y32379792D01*
X6093511Y32379855D01*
X5869441Y32345567D01*
X5653979Y32275143D01*
X5649391Y32272755D01*
X5649387Y32272753D01*
X5457502Y32172864D01*
X5452913Y32170475D01*
X5448780Y32167372D01*
X5448777Y32167370D01*
X5341415Y32086760D01*
X5271641Y32034372D01*
X5115033Y31870491D01*
X5112119Y31866219D01*
X5112118Y31866218D01*
X5023645Y31736521D01*
X4968734Y31691518D01*
X4898209Y31683347D01*
X4834462Y31714601D01*
X4813767Y31739082D01*
X4745914Y31843967D01*
X4593356Y32011626D01*
X4589305Y32014825D01*
X4589301Y32014829D01*
X4419519Y32148915D01*
X4419515Y32148917D01*
X4415464Y32152117D01*
X4217015Y32261666D01*
X4212146Y32263390D01*
X4212142Y32263392D01*
X4008214Y32335607D01*
X4008210Y32335608D01*
X4003339Y32337333D01*
X3998246Y32338240D01*
X3998243Y32338241D01*
X3925832Y32351139D01*
X3780173Y32377085D01*
X3694179Y32378136D01*
X3558681Y32379792D01*
X3558679Y32379792D01*
X3553511Y32379855D01*
X3329441Y32345567D01*
X3113979Y32275143D01*
X3109391Y32272755D01*
X3109387Y32272753D01*
X2917502Y32172864D01*
X2912913Y32170475D01*
X2908780Y32167372D01*
X2908777Y32167370D01*
X2801415Y32086760D01*
X2731641Y32034372D01*
X2575033Y31870491D01*
X2572119Y31866219D01*
X2572118Y31866218D01*
X2553979Y31839627D01*
X2447294Y31683232D01*
X2433560Y31653644D01*
X2357496Y31489779D01*
X2351854Y31477625D01*
X2291277Y31259190D01*
X2267189Y31033795D01*
X-3904000Y31033795D01*
X-3904000Y31272115D01*
X-3396000Y31272115D01*
X-3391525Y31256876D01*
X-3390135Y31255671D01*
X-3382452Y31254000D01*
X-2290116Y31254000D01*
X-2274877Y31258475D01*
X-2273672Y31259865D01*
X-2272001Y31267548D01*
X-2272001Y31667095D01*
X-2272338Y31673614D01*
X-2282257Y31769206D01*
X-2285149Y31782600D01*
X-2336588Y31936784D01*
X-2342761Y31949962D01*
X-2428063Y32087807D01*
X-2437099Y32099208D01*
X-2551829Y32213739D01*
X-2563240Y32222751D01*
X-2701243Y32307816D01*
X-2714424Y32313963D01*
X-2868710Y32365138D01*
X-2882086Y32368005D01*
X-2976438Y32377672D01*
X-2982855Y32378000D01*
X-3377885Y32378000D01*
X-3393124Y32373525D01*
X-3394329Y32372135D01*
X-3396000Y32364452D01*
X-3396000Y31272115D01*
X-3904000Y31272115D01*
X-3904000Y32359884D01*
X-3908475Y32375123D01*
X-3909865Y32376328D01*
X-3917548Y32377999D01*
X-4317095Y32377999D01*
X-4323614Y32377662D01*
X-4419206Y32367743D01*
X-4432600Y32364851D01*
X-4586784Y32313412D01*
X-4599962Y32307239D01*
X-4737807Y32221937D01*
X-4749208Y32212901D01*
X-4863739Y32098171D01*
X-4872751Y32086760D01*
X-4961658Y31942525D01*
X-4963599Y31943721D01*
X-5003216Y31898725D01*
X-5071493Y31879263D01*
X-5139453Y31899804D01*
X-5163689Y31920460D01*
X-5243163Y32007802D01*
X-5243172Y32007811D01*
X-5246644Y32011626D01*
X-5250695Y32014825D01*
X-5250699Y32014829D01*
X-5420481Y32148915D01*
X-5420485Y32148917D01*
X-5424536Y32152117D01*
X-5622985Y32261666D01*
X-5627854Y32263390D01*
X-5627858Y32263392D01*
X-5831786Y32335607D01*
X-5831790Y32335608D01*
X-5836661Y32337333D01*
X-5841754Y32338240D01*
X-5841757Y32338241D01*
X-5914168Y32351139D01*
X-6059827Y32377085D01*
X-6145821Y32378136D01*
X-6281319Y32379792D01*
X-6281321Y32379792D01*
X-6286489Y32379855D01*
X-6510559Y32345567D01*
X-6726021Y32275143D01*
X-6730609Y32272755D01*
X-6730613Y32272753D01*
X-6922498Y32172864D01*
X-6927087Y32170475D01*
X-6931220Y32167372D01*
X-6931223Y32167370D01*
X-7038585Y32086760D01*
X-7108359Y32034372D01*
X-7264967Y31870491D01*
X-7267881Y31866219D01*
X-7267882Y31866218D01*
X-7356355Y31736521D01*
X-7411266Y31691518D01*
X-7481791Y31683347D01*
X-7545538Y31714601D01*
X-7566233Y31739082D01*
X-7634086Y31843967D01*
X-7786644Y32011626D01*
X-7790695Y32014825D01*
X-7790699Y32014829D01*
X-7960481Y32148915D01*
X-7960485Y32148917D01*
X-7964536Y32152117D01*
X-8162985Y32261666D01*
X-8167854Y32263390D01*
X-8167858Y32263392D01*
X-8371786Y32335607D01*
X-8371790Y32335608D01*
X-8376661Y32337333D01*
X-8381754Y32338240D01*
X-8381757Y32338241D01*
X-8454168Y32351139D01*
X-8599827Y32377085D01*
X-8685821Y32378136D01*
X-8821319Y32379792D01*
X-8821321Y32379792D01*
X-8826489Y32379855D01*
X-9050559Y32345567D01*
X-9266021Y32275143D01*
X-9270609Y32272755D01*
X-9270613Y32272753D01*
X-9462498Y32172864D01*
X-9467087Y32170475D01*
X-9471220Y32167372D01*
X-9471223Y32167370D01*
X-9578585Y32086760D01*
X-9648359Y32034372D01*
X-9804967Y31870491D01*
X-9807881Y31866219D01*
X-9807882Y31866218D01*
X-9896355Y31736521D01*
X-9951266Y31691518D01*
X-10021791Y31683347D01*
X-10085538Y31714601D01*
X-10106233Y31739082D01*
X-10174086Y31843967D01*
X-10326644Y32011626D01*
X-10330695Y32014825D01*
X-10330699Y32014829D01*
X-10500481Y32148915D01*
X-10500485Y32148917D01*
X-10504536Y32152117D01*
X-10702985Y32261666D01*
X-10707854Y32263390D01*
X-10707858Y32263392D01*
X-10911786Y32335607D01*
X-10911790Y32335608D01*
X-10916661Y32337333D01*
X-10921754Y32338240D01*
X-10921757Y32338241D01*
X-10994168Y32351139D01*
X-11139827Y32377085D01*
X-11225821Y32378136D01*
X-11361319Y32379792D01*
X-11361321Y32379792D01*
X-11366489Y32379855D01*
X-11590559Y32345567D01*
X-11806021Y32275143D01*
X-11810609Y32272755D01*
X-11810613Y32272753D01*
X-12002498Y32172864D01*
X-12007087Y32170475D01*
X-12011220Y32167372D01*
X-12011223Y32167370D01*
X-12118585Y32086760D01*
X-12188359Y32034372D01*
X-12344967Y31870491D01*
X-12347881Y31866219D01*
X-12347882Y31866218D01*
X-12436355Y31736521D01*
X-12491266Y31691518D01*
X-12561791Y31683347D01*
X-12625538Y31714601D01*
X-12646233Y31739082D01*
X-12714086Y31843967D01*
X-12866644Y32011626D01*
X-12870695Y32014825D01*
X-12870699Y32014829D01*
X-13040481Y32148915D01*
X-13040485Y32148917D01*
X-13044536Y32152117D01*
X-13242985Y32261666D01*
X-13247854Y32263390D01*
X-13247858Y32263392D01*
X-13451786Y32335607D01*
X-13451790Y32335608D01*
X-13456661Y32337333D01*
X-13461754Y32338240D01*
X-13461757Y32338241D01*
X-13534168Y32351139D01*
X-13679827Y32377085D01*
X-13765821Y32378136D01*
X-13901319Y32379792D01*
X-13901321Y32379792D01*
X-13906489Y32379855D01*
X-14130559Y32345567D01*
X-14346021Y32275143D01*
X-14350609Y32272755D01*
X-14350613Y32272753D01*
X-14542498Y32172864D01*
X-14547087Y32170475D01*
X-14551220Y32167372D01*
X-14551223Y32167370D01*
X-14658585Y32086760D01*
X-14728359Y32034372D01*
X-14884967Y31870491D01*
X-14887881Y31866219D01*
X-14887882Y31866218D01*
X-14976355Y31736521D01*
X-15031266Y31691518D01*
X-15101791Y31683347D01*
X-15165538Y31714601D01*
X-15186233Y31739082D01*
X-15254086Y31843967D01*
X-15406644Y32011626D01*
X-15410695Y32014825D01*
X-15410699Y32014829D01*
X-15580481Y32148915D01*
X-15580485Y32148917D01*
X-15584536Y32152117D01*
X-15782985Y32261666D01*
X-15787854Y32263390D01*
X-15787858Y32263392D01*
X-15991786Y32335607D01*
X-15991790Y32335608D01*
X-15996661Y32337333D01*
X-16001754Y32338240D01*
X-16001757Y32338241D01*
X-16074168Y32351139D01*
X-16219827Y32377085D01*
X-16305821Y32378136D01*
X-16441319Y32379792D01*
X-16441321Y32379792D01*
X-16446489Y32379855D01*
X-16670559Y32345567D01*
X-16886021Y32275143D01*
X-16890609Y32272755D01*
X-16890613Y32272753D01*
X-17082498Y32172864D01*
X-17087087Y32170475D01*
X-17091220Y32167372D01*
X-17091223Y32167370D01*
X-17198585Y32086760D01*
X-17268359Y32034372D01*
X-17424967Y31870491D01*
X-17427881Y31866219D01*
X-17427882Y31866218D01*
X-17446021Y31839627D01*
X-17552706Y31683232D01*
X-17566440Y31653644D01*
X-17642504Y31489779D01*
X-17648146Y31477625D01*
X-17708723Y31259190D01*
X-17732811Y31033795D01*
X-17732514Y31028642D01*
X-17732514Y31028639D01*
X-17728868Y30965406D01*
X-17719763Y30807492D01*
X-17718626Y30802446D01*
X-17718625Y30802440D01*
X-17683799Y30647907D01*
X-17688335Y30577055D01*
X-17717621Y30531111D01*
X-20271328Y27977405D01*
X-20333640Y27943379D01*
X-20360423Y27940500D01*
X-21675578Y27940500D01*
X-21743699Y27960502D01*
X-21790192Y28014158D01*
X-21800296Y28084432D01*
X-21770802Y28149012D01*
X-21764673Y28155595D01*
X-16937673Y32982595D01*
X-16875361Y33016621D01*
X-16848578Y33019500D01*
X-4239020Y33019500D01*
X-4227786Y33018970D01*
X-4220281Y33017292D01*
X-4151988Y33019438D01*
X-4148031Y33019500D01*
X-4120017Y33019500D01*
X-4116092Y33019996D01*
X-4116091Y33019996D01*
X-4115996Y33020008D01*
X-4104151Y33020941D01*
X-4074330Y33021878D01*
X-4067718Y33022086D01*
X-4067717Y33022086D01*
X-4059795Y33022335D01*
X-4040251Y33028013D01*
X-4020888Y33032023D01*
X-4008560Y33033580D01*
X-4008558Y33033580D01*
X-4000701Y33034573D01*
X-3993337Y33037489D01*
X-3993332Y33037490D01*
X-3959444Y33050907D01*
X-3948215Y33054752D01*
X-3931535Y33059598D01*
X-3905607Y33067131D01*
X-3898780Y33071169D01*
X-3898777Y33071170D01*
X-3888094Y33077488D01*
X-3870336Y33086188D01*
X-3858785Y33090761D01*
X-3858779Y33090765D01*
X-3851412Y33093681D01*
X-3815509Y33119766D01*
X-3805590Y33126281D01*
X-3774232Y33144826D01*
X-3774228Y33144829D01*
X-3767402Y33148866D01*
X-3753018Y33163250D01*
X-3737984Y33176091D01*
X-3727927Y33183398D01*
X-3721513Y33188058D01*
X-3693222Y33222256D01*
X-3685233Y33231035D01*
X2989940Y39906208D01*
X3052252Y39940234D01*
X3104154Y39940583D01*
X3296221Y39901506D01*
X3301394Y39901316D01*
X3301397Y39901316D01*
X3517583Y39893389D01*
X3517587Y39893389D01*
X3522747Y39893200D01*
X3527867Y39893856D01*
X3527869Y39893856D01*
X3598607Y39902918D01*
X3747588Y39922003D01*
X3752537Y39923488D01*
X3752543Y39923489D01*
X3959756Y39985656D01*
X3959755Y39985656D01*
X3964706Y39987141D01*
X4168270Y40086866D01*
X4172475Y40089866D01*
X4172481Y40089869D01*
X4348609Y40215500D01*
X4348611Y40215502D01*
X4352813Y40218499D01*
X4513378Y40378505D01*
X4628945Y40539334D01*
X4684940Y40582982D01*
X4755643Y40589428D01*
X4818608Y40556625D01*
X4838700Y40531643D01*
X4881090Y40462470D01*
X4881093Y40462465D01*
X4883793Y40458060D01*
X4887174Y40454157D01*
X5028824Y40290631D01*
X5028828Y40290627D01*
X5032209Y40286724D01*
X5206615Y40141929D01*
X5211082Y40139319D01*
X5397867Y40030171D01*
X5397870Y40030169D01*
X5402329Y40027564D01*
X5614093Y39946699D01*
X5619161Y39945668D01*
X5619164Y39945667D01*
X5728172Y39923489D01*
X5836221Y39901506D01*
X5841394Y39901316D01*
X5841397Y39901316D01*
X6057583Y39893389D01*
X6057587Y39893389D01*
X6062747Y39893200D01*
X6067867Y39893856D01*
X6067869Y39893856D01*
X6138607Y39902918D01*
X6287588Y39922003D01*
X6292537Y39923488D01*
X6292543Y39923489D01*
X6499756Y39985656D01*
X6499755Y39985656D01*
X6504706Y39987141D01*
X6708270Y40086866D01*
X6712475Y40089866D01*
X6712481Y40089869D01*
X6888609Y40215500D01*
X6888611Y40215502D01*
X6892813Y40218499D01*
X7031607Y40356810D01*
X7093978Y40390726D01*
X7164785Y40385538D01*
X7221547Y40342892D01*
X7228614Y40331087D01*
X7228906Y40331268D01*
X7318063Y40187193D01*
X7327099Y40175792D01*
X7441829Y40061261D01*
X7453240Y40052249D01*
X7591243Y39967184D01*
X7604424Y39961037D01*
X7758710Y39909862D01*
X7772086Y39906995D01*
X7866438Y39897328D01*
X7872854Y39897000D01*
X8267885Y39897000D01*
X8283124Y39901475D01*
X8284329Y39902865D01*
X8286000Y39910548D01*
X8286000Y39915116D01*
X8794000Y39915116D01*
X8798475Y39899877D01*
X8799865Y39898672D01*
X8807548Y39897001D01*
X9207095Y39897001D01*
X9213614Y39897338D01*
X9309206Y39907257D01*
X9322600Y39910149D01*
X9476784Y39961588D01*
X9489962Y39967761D01*
X9627807Y40053063D01*
X9639208Y40062099D01*
X9753739Y40176829D01*
X9762751Y40188240D01*
X9847816Y40326243D01*
X9853963Y40339424D01*
X9905138Y40493710D01*
X9908005Y40507086D01*
X9917672Y40601438D01*
X9918000Y40607855D01*
X9918000Y41002885D01*
X9913525Y41018124D01*
X9912135Y41019329D01*
X9904452Y41021000D01*
X8812115Y41021000D01*
X8796876Y41016525D01*
X8795671Y41015135D01*
X8794000Y41007452D01*
X8794000Y39915116D01*
X8286000Y39915116D01*
X8286000Y41547115D01*
X8794000Y41547115D01*
X8798475Y41531876D01*
X8799865Y41530671D01*
X8807548Y41529000D01*
X9899884Y41529000D01*
X9915123Y41533475D01*
X9916328Y41534865D01*
X9917999Y41542548D01*
X9917999Y41942095D01*
X9917662Y41948614D01*
X9907743Y42044206D01*
X9904851Y42057600D01*
X9853412Y42211784D01*
X9847239Y42224962D01*
X9761937Y42362807D01*
X9752901Y42374208D01*
X9638171Y42488739D01*
X9626760Y42497751D01*
X9488757Y42582816D01*
X9475576Y42588963D01*
X9321290Y42640138D01*
X9307914Y42643005D01*
X9213562Y42652672D01*
X9207145Y42653000D01*
X8812115Y42653000D01*
X8796876Y42648525D01*
X8795671Y42647135D01*
X8794000Y42639452D01*
X8794000Y41547115D01*
X8286000Y41547115D01*
X8286000Y42634884D01*
X8281525Y42650123D01*
X8280135Y42651328D01*
X8272452Y42652999D01*
X7872905Y42652999D01*
X7866386Y42652662D01*
X7770794Y42642743D01*
X7757400Y42639851D01*
X7603216Y42588412D01*
X7590038Y42582239D01*
X7452193Y42496937D01*
X7440792Y42487901D01*
X7326261Y42373171D01*
X7317249Y42361760D01*
X7228342Y42217525D01*
X7226401Y42218721D01*
X7186784Y42173725D01*
X7118507Y42154263D01*
X7050547Y42174804D01*
X7026311Y42195460D01*
X6946837Y42282802D01*
X6946828Y42282811D01*
X6943356Y42286626D01*
X6939305Y42289825D01*
X6939301Y42289829D01*
X6769519Y42423915D01*
X6769515Y42423917D01*
X6765464Y42427117D01*
X6567015Y42536666D01*
X6562146Y42538390D01*
X6562142Y42538392D01*
X6358214Y42610607D01*
X6358210Y42610608D01*
X6353339Y42612333D01*
X6348246Y42613240D01*
X6348243Y42613241D01*
X6275832Y42626139D01*
X6130173Y42652085D01*
X6044179Y42653136D01*
X5908681Y42654792D01*
X5908679Y42654792D01*
X5903511Y42654855D01*
X5679441Y42620567D01*
X5463979Y42550143D01*
X5459391Y42547755D01*
X5459387Y42547753D01*
X5267502Y42447864D01*
X5262913Y42445475D01*
X5258780Y42442372D01*
X5258777Y42442370D01*
X5151415Y42361760D01*
X5081641Y42309372D01*
X4925033Y42145491D01*
X4922119Y42141219D01*
X4922118Y42141218D01*
X4833645Y42011521D01*
X4778734Y41966518D01*
X4708209Y41958347D01*
X4644462Y41989601D01*
X4623767Y42014082D01*
X4555914Y42118967D01*
X4403356Y42286626D01*
X4399305Y42289825D01*
X4399301Y42289829D01*
X4229519Y42423915D01*
X4229515Y42423917D01*
X4225464Y42427117D01*
X4027015Y42536666D01*
X4022146Y42538390D01*
X4022142Y42538392D01*
X3818214Y42610607D01*
X3818210Y42610608D01*
X3813339Y42612333D01*
X3808246Y42613240D01*
X3808243Y42613241D01*
X3735832Y42626139D01*
X3590173Y42652085D01*
X3504179Y42653136D01*
X3368681Y42654792D01*
X3368679Y42654792D01*
X3363511Y42654855D01*
X3139441Y42620567D01*
X2923979Y42550143D01*
X2919391Y42547755D01*
X2919387Y42547753D01*
X2727502Y42447864D01*
X2722913Y42445475D01*
X2718780Y42442372D01*
X2718777Y42442370D01*
X2611415Y42361760D01*
X2541641Y42309372D01*
X2385033Y42145491D01*
X2382119Y42141219D01*
X2382118Y42141218D01*
X2325078Y42057600D01*
X2257294Y41958232D01*
X2161854Y41752625D01*
X2101277Y41534190D01*
X2077189Y41308795D01*
X2077486Y41303642D01*
X2077486Y41303639D01*
X2083033Y41207430D01*
X2090237Y41082492D01*
X2091374Y41077446D01*
X2091375Y41077440D01*
X2126201Y40922908D01*
X2121665Y40852056D01*
X2092379Y40806112D01*
X-4386328Y34327405D01*
X-4448640Y34293379D01*
X-4475423Y34290500D01*
X-17084980Y34290500D01*
X-17096209Y34291029D01*
X-17103719Y34292708D01*
X-17111645Y34292459D01*
X-17111646Y34292459D01*
X-17171998Y34290562D01*
X-17175956Y34290500D01*
X-17203983Y34290500D01*
X-17208029Y34289989D01*
X-17219857Y34289058D01*
X-17264205Y34287664D01*
X-17271822Y34285451D01*
X-17283747Y34281987D01*
X-17303106Y34277978D01*
X-17304367Y34277819D01*
X-17323299Y34275427D01*
X-17330663Y34272511D01*
X-17330668Y34272510D01*
X-17352579Y34263834D01*
X-17364572Y34259086D01*
X-17375776Y34255249D01*
X-17418393Y34242868D01*
X-17428988Y34236602D01*
X-17435906Y34232511D01*
X-17453657Y34223815D01*
X-17465215Y34219239D01*
X-17465220Y34219236D01*
X-17472588Y34216319D01*
X-17479003Y34211658D01*
X-17508493Y34190233D01*
X-17518415Y34183716D01*
X-17549772Y34165172D01*
X-17549775Y34165170D01*
X-17556599Y34161134D01*
X-17570986Y34146747D01*
X-17586020Y34133906D01*
X-17602487Y34121942D01*
X-17607540Y34115834D01*
X-17630772Y34087751D01*
X-17638762Y34078971D01*
X-21612030Y30105703D01*
X-21674342Y30071677D01*
X-21745157Y30076742D01*
X-21801993Y30119289D01*
X-21826804Y30185809D01*
X-21824326Y30221208D01*
X-21821995Y30232081D01*
X-21812328Y30326438D01*
X-21812000Y30332855D01*
X-21812000Y30727885D01*
X-21816475Y30743124D01*
X-21817865Y30744329D01*
X-21825548Y30746000D01*
X-22917885Y30746000D01*
X-22933124Y30741525D01*
X-22934329Y30740135D01*
X-22936000Y30732452D01*
X-22936000Y29640116D01*
X-22931525Y29624877D01*
X-22930135Y29623672D01*
X-22922452Y29622001D01*
X-22522905Y29622001D01*
X-22516386Y29622338D01*
X-22420799Y29632256D01*
X-22411395Y29634287D01*
X-22340587Y29629115D01*
X-22283815Y29586483D01*
X-22259105Y29519926D01*
X-22274300Y29450575D01*
X-22295702Y29422031D01*
X-23086328Y28631405D01*
X-23148640Y28597379D01*
X-23175423Y28594500D01*
X-27511533Y28594500D01*
X-27579654Y28614502D01*
X-27626147Y28668158D01*
X-27636540Y28736291D01*
X-27636472Y28736830D01*
X-27634500Y28744510D01*
X-27634500Y28764858D01*
X-27632949Y28784569D01*
X-27631005Y28796843D01*
X-27629765Y28804672D01*
X-27633941Y28848848D01*
X-27634500Y28860706D01*
X-27634500Y29697636D01*
X-27614498Y29765757D01*
X-27569923Y29805449D01*
X-27570814Y29806944D01*
X-27566371Y29809592D01*
X-27561730Y29811866D01*
X-27557527Y29814864D01*
X-27557522Y29814867D01*
X-27381391Y29940500D01*
X-27381389Y29940502D01*
X-27377187Y29943499D01*
X-27216622Y30103505D01*
X-27101055Y30264334D01*
X-27045060Y30307982D01*
X-26974357Y30314428D01*
X-26911392Y30281625D01*
X-26891300Y30256643D01*
X-26848910Y30187470D01*
X-26848907Y30187465D01*
X-26846207Y30183060D01*
X-26842826Y30179157D01*
X-26701176Y30015631D01*
X-26701172Y30015627D01*
X-26697791Y30011724D01*
X-26523385Y29866929D01*
X-26518918Y29864319D01*
X-26332133Y29755171D01*
X-26332130Y29755169D01*
X-26327671Y29752564D01*
X-26115907Y29671699D01*
X-26110839Y29670668D01*
X-26110836Y29670667D01*
X-26001828Y29648489D01*
X-25893779Y29626506D01*
X-25888606Y29626316D01*
X-25888603Y29626316D01*
X-25672417Y29618389D01*
X-25672413Y29618389D01*
X-25667253Y29618200D01*
X-25662133Y29618856D01*
X-25662131Y29618856D01*
X-25582049Y29629115D01*
X-25442412Y29647003D01*
X-25437463Y29648488D01*
X-25437457Y29648489D01*
X-25230244Y29710656D01*
X-25230245Y29710656D01*
X-25225294Y29712141D01*
X-25021730Y29811866D01*
X-25017525Y29814866D01*
X-25017519Y29814869D01*
X-24841391Y29940500D01*
X-24841389Y29940502D01*
X-24837187Y29943499D01*
X-24698393Y30081810D01*
X-24636022Y30115726D01*
X-24565215Y30110538D01*
X-24508453Y30067892D01*
X-24501386Y30056087D01*
X-24501094Y30056268D01*
X-24411937Y29912193D01*
X-24402901Y29900792D01*
X-24288171Y29786261D01*
X-24276760Y29777249D01*
X-24138757Y29692184D01*
X-24125576Y29686037D01*
X-23971290Y29634862D01*
X-23957914Y29631995D01*
X-23863562Y29622328D01*
X-23857146Y29622000D01*
X-23462115Y29622000D01*
X-23446876Y29626475D01*
X-23445671Y29627865D01*
X-23444000Y29635548D01*
X-23444000Y31272115D01*
X-22936000Y31272115D01*
X-22931525Y31256876D01*
X-22930135Y31255671D01*
X-22922452Y31254000D01*
X-21830116Y31254000D01*
X-21814877Y31258475D01*
X-21813672Y31259865D01*
X-21812001Y31267548D01*
X-21812001Y31667095D01*
X-21812338Y31673614D01*
X-21822257Y31769206D01*
X-21825149Y31782600D01*
X-21876588Y31936784D01*
X-21882761Y31949962D01*
X-21968063Y32087807D01*
X-21977099Y32099208D01*
X-22091829Y32213739D01*
X-22103240Y32222751D01*
X-22241243Y32307816D01*
X-22254424Y32313963D01*
X-22408710Y32365138D01*
X-22422086Y32368005D01*
X-22516438Y32377672D01*
X-22522855Y32378000D01*
X-22917885Y32378000D01*
X-22933124Y32373525D01*
X-22934329Y32372135D01*
X-22936000Y32364452D01*
X-22936000Y31272115D01*
X-23444000Y31272115D01*
X-23444000Y32359884D01*
X-23448475Y32375123D01*
X-23449865Y32376328D01*
X-23457548Y32377999D01*
X-23857095Y32377999D01*
X-23863614Y32377662D01*
X-23959206Y32367743D01*
X-23972600Y32364851D01*
X-24126784Y32313412D01*
X-24139962Y32307239D01*
X-24277807Y32221937D01*
X-24289208Y32212901D01*
X-24403739Y32098171D01*
X-24412751Y32086760D01*
X-24501658Y31942525D01*
X-24503599Y31943721D01*
X-24543216Y31898725D01*
X-24611493Y31879263D01*
X-24679453Y31899804D01*
X-24703689Y31920460D01*
X-24783163Y32007802D01*
X-24783172Y32007811D01*
X-24786644Y32011626D01*
X-24790695Y32014825D01*
X-24790699Y32014829D01*
X-24960481Y32148915D01*
X-24960485Y32148917D01*
X-24964536Y32152117D01*
X-25162985Y32261666D01*
X-25167854Y32263390D01*
X-25167858Y32263392D01*
X-25371786Y32335607D01*
X-25371790Y32335608D01*
X-25376661Y32337333D01*
X-25381754Y32338240D01*
X-25381757Y32338241D01*
X-25454168Y32351139D01*
X-25599827Y32377085D01*
X-25685821Y32378136D01*
X-25821319Y32379792D01*
X-25821321Y32379792D01*
X-25826489Y32379855D01*
X-26050559Y32345567D01*
X-26266021Y32275143D01*
X-26270609Y32272755D01*
X-26270613Y32272753D01*
X-26462498Y32172864D01*
X-26467087Y32170475D01*
X-26471220Y32167372D01*
X-26471223Y32167370D01*
X-26578585Y32086760D01*
X-26648359Y32034372D01*
X-26804967Y31870491D01*
X-26807881Y31866219D01*
X-26807882Y31866218D01*
X-26896355Y31736521D01*
X-26951266Y31691518D01*
X-27021791Y31683347D01*
X-27085538Y31714601D01*
X-27106233Y31739082D01*
X-27174086Y31843967D01*
X-27326644Y32011626D01*
X-27330695Y32014825D01*
X-27330699Y32014829D01*
X-27500481Y32148915D01*
X-27500485Y32148917D01*
X-27504536Y32152117D01*
X-27702985Y32261666D01*
X-27707854Y32263390D01*
X-27707858Y32263392D01*
X-27911786Y32335607D01*
X-27911790Y32335608D01*
X-27916661Y32337333D01*
X-27921754Y32338240D01*
X-27921757Y32338241D01*
X-27994168Y32351139D01*
X-28139827Y32377085D01*
X-28225821Y32378136D01*
X-28361319Y32379792D01*
X-28361321Y32379792D01*
X-28366489Y32379855D01*
X-28590559Y32345567D01*
X-28806021Y32275143D01*
X-28810609Y32272755D01*
X-28810613Y32272753D01*
X-29002498Y32172864D01*
X-29007087Y32170475D01*
X-29011220Y32167372D01*
X-29011223Y32167370D01*
X-29118585Y32086760D01*
X-29188359Y32034372D01*
X-29344967Y31870491D01*
X-29347881Y31866219D01*
X-29347882Y31866218D01*
X-29436355Y31736521D01*
X-29491266Y31691518D01*
X-29561791Y31683347D01*
X-29625538Y31714601D01*
X-29646233Y31739082D01*
X-29714086Y31843967D01*
X-29866644Y32011626D01*
X-29870695Y32014825D01*
X-29870699Y32014829D01*
X-30040481Y32148915D01*
X-30040485Y32148917D01*
X-30044536Y32152117D01*
X-30242985Y32261666D01*
X-30247854Y32263390D01*
X-30247858Y32263392D01*
X-30451786Y32335607D01*
X-30451790Y32335608D01*
X-30456661Y32337333D01*
X-30461754Y32338240D01*
X-30461757Y32338241D01*
X-30534168Y32351139D01*
X-30679827Y32377085D01*
X-30765821Y32378136D01*
X-30901319Y32379792D01*
X-30901321Y32379792D01*
X-30906489Y32379855D01*
X-31130559Y32345567D01*
X-31346021Y32275143D01*
X-31350609Y32272755D01*
X-31350613Y32272753D01*
X-31542498Y32172864D01*
X-31547087Y32170475D01*
X-31551220Y32167372D01*
X-31551223Y32167370D01*
X-31658585Y32086760D01*
X-31728359Y32034372D01*
X-31884967Y31870491D01*
X-31887881Y31866219D01*
X-31887882Y31866218D01*
X-31906021Y31839627D01*
X-32012706Y31683232D01*
X-32026440Y31653644D01*
X-32102504Y31489779D01*
X-32108146Y31477625D01*
X-32168723Y31259190D01*
X-32192811Y31033795D01*
X-32192514Y31028642D01*
X-32192514Y31028639D01*
X-32188868Y30965406D01*
X-32179763Y30807492D01*
X-32178626Y30802446D01*
X-32178625Y30802440D01*
X-32164583Y30740135D01*
X-32129928Y30586360D01*
X-32044646Y30376335D01*
X-32041947Y30371931D01*
X-31928909Y30187470D01*
X-31926207Y30183060D01*
X-31922826Y30179157D01*
X-31781176Y30015631D01*
X-31781172Y30015627D01*
X-31777791Y30011724D01*
X-31603385Y29866929D01*
X-31598918Y29864319D01*
X-31507930Y29811150D01*
X-31459206Y29759512D01*
X-31445500Y29702362D01*
X-31445500Y27525111D01*
X-31465502Y27456990D01*
X-31482405Y27436016D01*
X-36021516Y22896905D01*
X-36083828Y22862879D01*
X-36110611Y22860000D01*
X-43120902Y22860000D01*
X-43189023Y22880002D01*
X-43235516Y22933658D01*
X-43245620Y23003932D01*
X-43231317Y23046701D01*
X-42926129Y23601835D01*
X-42598701Y24197425D01*
X-42596967Y24200477D01*
X-41906467Y25377404D01*
X-41904644Y25380414D01*
X-41181546Y26537615D01*
X-41179640Y26540572D01*
X-40424517Y27677122D01*
X-40422529Y27680025D01*
X-39635978Y28795032D01*
X-39633910Y28797879D01*
X-39020232Y29618200D01*
X-38816506Y29890525D01*
X-38814366Y29893305D01*
X-38799395Y29912193D01*
X-37966788Y30962682D01*
X-37964567Y30965406D01*
X-37721006Y31255671D01*
X-37087445Y32010719D01*
X-37085182Y32013341D01*
X-36179190Y33033784D01*
X-36176818Y33036381D01*
X-36161123Y33053094D01*
X-35242732Y34031083D01*
X-35240299Y34033602D01*
X-35195245Y34078971D01*
X-34278799Y35001837D01*
X-34276285Y35004299D01*
X-33288105Y35945331D01*
X-33285523Y35947721D01*
X-32775892Y36406595D01*
X-32271493Y36860757D01*
X-32268860Y36863063D01*
X-31229702Y37747455D01*
X-31226991Y37749698D01*
X-30163539Y38604735D01*
X-30160766Y38606901D01*
X-29073901Y39431876D01*
X-29071070Y39433964D01*
X-27961530Y40228317D01*
X-27958640Y40230325D01*
X-27387160Y40615794D01*
X-26827373Y40993375D01*
X-26824463Y40995279D01*
X-26330441Y41308795D01*
X-9922811Y41308795D01*
X-9922514Y41303642D01*
X-9922514Y41303639D01*
X-9916967Y41207430D01*
X-9909763Y41082492D01*
X-9908626Y41077446D01*
X-9908625Y41077440D01*
X-9894583Y41015135D01*
X-9859928Y40861360D01*
X-9857986Y40856578D01*
X-9857985Y40856574D01*
X-9776590Y40656122D01*
X-9774646Y40651335D01*
X-9771947Y40646931D01*
X-9658909Y40462470D01*
X-9656207Y40458060D01*
X-9652826Y40454157D01*
X-9511176Y40290631D01*
X-9511172Y40290627D01*
X-9507791Y40286724D01*
X-9333385Y40141929D01*
X-9328918Y40139319D01*
X-9142133Y40030171D01*
X-9142130Y40030169D01*
X-9137671Y40027564D01*
X-8925907Y39946699D01*
X-8920839Y39945668D01*
X-8920836Y39945667D01*
X-8811828Y39923489D01*
X-8703779Y39901506D01*
X-8698606Y39901316D01*
X-8698603Y39901316D01*
X-8482417Y39893389D01*
X-8482413Y39893389D01*
X-8477253Y39893200D01*
X-8472133Y39893856D01*
X-8472131Y39893856D01*
X-8401393Y39902918D01*
X-8252412Y39922003D01*
X-8247463Y39923488D01*
X-8247457Y39923489D01*
X-8040244Y39985656D01*
X-8040245Y39985656D01*
X-8035294Y39987141D01*
X-7831730Y40086866D01*
X-7827525Y40089866D01*
X-7827519Y40089869D01*
X-7651391Y40215500D01*
X-7651389Y40215502D01*
X-7647187Y40218499D01*
X-7486622Y40378505D01*
X-7371055Y40539334D01*
X-7315060Y40582982D01*
X-7244357Y40589428D01*
X-7181392Y40556625D01*
X-7161300Y40531643D01*
X-7118910Y40462470D01*
X-7118907Y40462465D01*
X-7116207Y40458060D01*
X-7112826Y40454157D01*
X-6971176Y40290631D01*
X-6971172Y40290627D01*
X-6967791Y40286724D01*
X-6793385Y40141929D01*
X-6788918Y40139319D01*
X-6602133Y40030171D01*
X-6602130Y40030169D01*
X-6597671Y40027564D01*
X-6385907Y39946699D01*
X-6380839Y39945668D01*
X-6380836Y39945667D01*
X-6271828Y39923489D01*
X-6163779Y39901506D01*
X-6158606Y39901316D01*
X-6158603Y39901316D01*
X-5942417Y39893389D01*
X-5942413Y39893389D01*
X-5937253Y39893200D01*
X-5932133Y39893856D01*
X-5932131Y39893856D01*
X-5861393Y39902918D01*
X-5712412Y39922003D01*
X-5707463Y39923488D01*
X-5707457Y39923489D01*
X-5500244Y39985656D01*
X-5500245Y39985656D01*
X-5495294Y39987141D01*
X-5291730Y40086866D01*
X-5287525Y40089866D01*
X-5287519Y40089869D01*
X-5111391Y40215500D01*
X-5111389Y40215502D01*
X-5107187Y40218499D01*
X-4968393Y40356810D01*
X-4906022Y40390726D01*
X-4835215Y40385538D01*
X-4778453Y40342892D01*
X-4771386Y40331087D01*
X-4771094Y40331268D01*
X-4681937Y40187193D01*
X-4672901Y40175792D01*
X-4558171Y40061261D01*
X-4546760Y40052249D01*
X-4408757Y39967184D01*
X-4395576Y39961037D01*
X-4241290Y39909862D01*
X-4227914Y39906995D01*
X-4133562Y39897328D01*
X-4127146Y39897000D01*
X-3732115Y39897000D01*
X-3716876Y39901475D01*
X-3715671Y39902865D01*
X-3714000Y39910548D01*
X-3714000Y39915116D01*
X-3206000Y39915116D01*
X-3201525Y39899877D01*
X-3200135Y39898672D01*
X-3192452Y39897001D01*
X-2792905Y39897001D01*
X-2786386Y39897338D01*
X-2690794Y39907257D01*
X-2677400Y39910149D01*
X-2523216Y39961588D01*
X-2510038Y39967761D01*
X-2372193Y40053063D01*
X-2360792Y40062099D01*
X-2246261Y40176829D01*
X-2237249Y40188240D01*
X-2152184Y40326243D01*
X-2146037Y40339424D01*
X-2094862Y40493710D01*
X-2091995Y40507086D01*
X-2082328Y40601438D01*
X-2082000Y40607855D01*
X-2082000Y41002885D01*
X-2086475Y41018124D01*
X-2087865Y41019329D01*
X-2095548Y41021000D01*
X-3187885Y41021000D01*
X-3203124Y41016525D01*
X-3204329Y41015135D01*
X-3206000Y41007452D01*
X-3206000Y39915116D01*
X-3714000Y39915116D01*
X-3714000Y41547115D01*
X-3206000Y41547115D01*
X-3201525Y41531876D01*
X-3200135Y41530671D01*
X-3192452Y41529000D01*
X-2100116Y41529000D01*
X-2084877Y41533475D01*
X-2083672Y41534865D01*
X-2082001Y41542548D01*
X-2082001Y41942095D01*
X-2082338Y41948614D01*
X-2092257Y42044206D01*
X-2095149Y42057600D01*
X-2146588Y42211784D01*
X-2152761Y42224962D01*
X-2238063Y42362807D01*
X-2247099Y42374208D01*
X-2361829Y42488739D01*
X-2373240Y42497751D01*
X-2511243Y42582816D01*
X-2524424Y42588963D01*
X-2678710Y42640138D01*
X-2692086Y42643005D01*
X-2786438Y42652672D01*
X-2792855Y42653000D01*
X-3187885Y42653000D01*
X-3203124Y42648525D01*
X-3204329Y42647135D01*
X-3206000Y42639452D01*
X-3206000Y41547115D01*
X-3714000Y41547115D01*
X-3714000Y42634884D01*
X-3718475Y42650123D01*
X-3719865Y42651328D01*
X-3727548Y42652999D01*
X-4127095Y42652999D01*
X-4133614Y42652662D01*
X-4229206Y42642743D01*
X-4242600Y42639851D01*
X-4396784Y42588412D01*
X-4409962Y42582239D01*
X-4547807Y42496937D01*
X-4559208Y42487901D01*
X-4673739Y42373171D01*
X-4682751Y42361760D01*
X-4771658Y42217525D01*
X-4773599Y42218721D01*
X-4813216Y42173725D01*
X-4881493Y42154263D01*
X-4949453Y42174804D01*
X-4973689Y42195460D01*
X-5053163Y42282802D01*
X-5053172Y42282811D01*
X-5056644Y42286626D01*
X-5060695Y42289825D01*
X-5060699Y42289829D01*
X-5230481Y42423915D01*
X-5230485Y42423917D01*
X-5234536Y42427117D01*
X-5432985Y42536666D01*
X-5437854Y42538390D01*
X-5437858Y42538392D01*
X-5641786Y42610607D01*
X-5641790Y42610608D01*
X-5646661Y42612333D01*
X-5651754Y42613240D01*
X-5651757Y42613241D01*
X-5724168Y42626139D01*
X-5869827Y42652085D01*
X-5955821Y42653136D01*
X-6091319Y42654792D01*
X-6091321Y42654792D01*
X-6096489Y42654855D01*
X-6320559Y42620567D01*
X-6536021Y42550143D01*
X-6540609Y42547755D01*
X-6540613Y42547753D01*
X-6732498Y42447864D01*
X-6737087Y42445475D01*
X-6741220Y42442372D01*
X-6741223Y42442370D01*
X-6848585Y42361760D01*
X-6918359Y42309372D01*
X-7074967Y42145491D01*
X-7077881Y42141219D01*
X-7077882Y42141218D01*
X-7166355Y42011521D01*
X-7221266Y41966518D01*
X-7291791Y41958347D01*
X-7355538Y41989601D01*
X-7376233Y42014082D01*
X-7444086Y42118967D01*
X-7596644Y42286626D01*
X-7600695Y42289825D01*
X-7600699Y42289829D01*
X-7770481Y42423915D01*
X-7770485Y42423917D01*
X-7774536Y42427117D01*
X-7972985Y42536666D01*
X-7977854Y42538390D01*
X-7977858Y42538392D01*
X-8181786Y42610607D01*
X-8181790Y42610608D01*
X-8186661Y42612333D01*
X-8191754Y42613240D01*
X-8191757Y42613241D01*
X-8264168Y42626139D01*
X-8409827Y42652085D01*
X-8495821Y42653136D01*
X-8631319Y42654792D01*
X-8631321Y42654792D01*
X-8636489Y42654855D01*
X-8860559Y42620567D01*
X-9076021Y42550143D01*
X-9080609Y42547755D01*
X-9080613Y42547753D01*
X-9272498Y42447864D01*
X-9277087Y42445475D01*
X-9281220Y42442372D01*
X-9281223Y42442370D01*
X-9388585Y42361760D01*
X-9458359Y42309372D01*
X-9614967Y42145491D01*
X-9617881Y42141219D01*
X-9617882Y42141218D01*
X-9674922Y42057600D01*
X-9742706Y41958232D01*
X-9838146Y41752625D01*
X-9898723Y41534190D01*
X-9922811Y41308795D01*
X-26330441Y41308795D01*
X-25672348Y41726433D01*
X-25669351Y41728277D01*
X-24497256Y42426986D01*
X-24494209Y42428745D01*
X-23303094Y43094436D01*
X-23299999Y43096110D01*
X-22090722Y43728305D01*
X-22087582Y43729891D01*
X-21465566Y44033269D01*
X-20861127Y44328074D01*
X-20857955Y44329566D01*
X-20228714Y44615002D01*
X-19615313Y44893253D01*
X-19612092Y44894661D01*
X-18354163Y45423445D01*
X-18350901Y45424763D01*
X-17078691Y45918221D01*
X-17075393Y45919447D01*
X-15789939Y46377176D01*
X-15786608Y46378310D01*
X-14488874Y46799970D01*
X-14485513Y46801011D01*
X-13176465Y47186284D01*
X-13173076Y47187230D01*
X-11853811Y47535795D01*
X-11850397Y47536646D01*
X-10521903Y47848242D01*
X-10518467Y47848997D01*
X-9181841Y48123367D01*
X-9178385Y48124027D01*
X-8911199Y48171139D01*
X-7834493Y48360991D01*
X-7831091Y48361541D01*
X-6884696Y48501293D01*
X-6481205Y48560875D01*
X-6477718Y48561341D01*
X-5542593Y48672848D01*
X-5122719Y48722915D01*
X-5119234Y48723280D01*
X-4769572Y48755102D01*
X-3760335Y48846950D01*
X-3756827Y48847220D01*
X-2394982Y48932900D01*
X-2391467Y48933072D01*
X-1027771Y48980693D01*
X-1024254Y48980767D01*
X-303656Y48985798D01*
X340290Y48990294D01*
X343784Y48990269D01*
G37*
%TD.AperFunction*%
%TD*%
%TA.AperFunction,Conductor*%
%TO.N,+7.5V*%
G36*
X3034816Y20632498D02*
G01*
X3055790Y20615595D01*
X6313095Y17358290D01*
X6347121Y17295978D01*
X6350000Y17269195D01*
X6350000Y15117394D01*
X6349299Y15104122D01*
X6348902Y15100374D01*
X6347372Y15090040D01*
X6338797Y15045090D01*
X6338548Y15041127D01*
X6332765Y14949225D01*
X6332312Y14943859D01*
X6321652Y14843275D01*
X6321739Y14839274D01*
X6321739Y14839267D01*
X6322681Y14796117D01*
X6322462Y14785463D01*
X6319728Y14742000D01*
X6319977Y14738042D01*
X6325894Y14643987D01*
X6326113Y14638826D01*
X6327608Y14570355D01*
X6328370Y14535422D01*
X6328967Y14531452D01*
X6328968Y14531439D01*
X6335050Y14490988D01*
X6336201Y14480173D01*
X6338797Y14438910D01*
X6339541Y14435012D01*
X6347768Y14391882D01*
X6350000Y14368272D01*
X6350000Y11830160D01*
X6341982Y11785930D01*
X6331255Y11757316D01*
X6324500Y11695134D01*
X6324500Y7788866D01*
X6331255Y7726684D01*
X6334029Y7719285D01*
X6341982Y7698070D01*
X6350000Y7653840D01*
X6350000Y-6109840D01*
X6341982Y-6154070D01*
X6331255Y-6182684D01*
X6324500Y-6244866D01*
X6324500Y-10151134D01*
X6331255Y-10213316D01*
X6334029Y-10220715D01*
X6350000Y-10263318D01*
X6350000Y-10414000D01*
X6430571Y-10414000D01*
X6469739Y-10466261D01*
X6586295Y-10553615D01*
X6722684Y-10604745D01*
X6784866Y-10611500D01*
X8111513Y-10611500D01*
X8179634Y-10631502D01*
X8226127Y-10685158D01*
X8236231Y-10755432D01*
X8206737Y-10820012D01*
X8142848Y-10859541D01*
X7994710Y-10897576D01*
X7987185Y-10900021D01*
X7712236Y-11008881D01*
X7705101Y-11012238D01*
X7556541Y-11093910D01*
X7546596Y-11103912D01*
X7549406Y-11111380D01*
X8725188Y-12287162D01*
X8739132Y-12294776D01*
X8740965Y-12294645D01*
X8747580Y-12290394D01*
X9922524Y-11115450D01*
X9929284Y-11103070D01*
X9924502Y-11096682D01*
X9770899Y-11012238D01*
X9763764Y-11008881D01*
X9488815Y-10900021D01*
X9481290Y-10897576D01*
X9333152Y-10859541D01*
X9272146Y-10823227D01*
X9240457Y-10759694D01*
X9248147Y-10689116D01*
X9292774Y-10633898D01*
X9364487Y-10611500D01*
X10575310Y-10611500D01*
X10643431Y-10631502D01*
X10664405Y-10648405D01*
X11393095Y-11377095D01*
X11427121Y-11439407D01*
X11430000Y-11466190D01*
X11430000Y-14949810D01*
X11409998Y-15017931D01*
X11393095Y-15038905D01*
X10466905Y-15965095D01*
X10404593Y-15999121D01*
X10377810Y-16002000D01*
X6350000Y-16002000D01*
X6350000Y-21934810D01*
X6329998Y-22002931D01*
X6313095Y-22023905D01*
X5450905Y-22886095D01*
X5388593Y-22920121D01*
X5361810Y-22923000D01*
X-4853810Y-22923000D01*
X-4921931Y-22902998D01*
X-4942905Y-22886095D01*
X-5805095Y-22023905D01*
X-5839121Y-21961593D01*
X-5842000Y-21934810D01*
X-5842000Y-20562774D01*
X285872Y-20562774D01*
X289061Y-20567034D01*
X380536Y-20604924D01*
X389921Y-20607973D01*
X629101Y-20665396D01*
X638848Y-20666939D01*
X884070Y-20686239D01*
X893930Y-20686239D01*
X1139152Y-20666939D01*
X1148899Y-20665396D01*
X1388079Y-20607973D01*
X1397464Y-20604924D01*
X1481443Y-20570139D01*
X1492424Y-20561290D01*
X1491108Y-20556134D01*
X901812Y-19966838D01*
X887868Y-19959224D01*
X886035Y-19959355D01*
X879420Y-19963606D01*
X292632Y-20550394D01*
X285872Y-20562774D01*
X-5842000Y-20562774D01*
X-5842000Y-19060930D01*
X-741239Y-19060930D01*
X-721939Y-19306152D01*
X-720396Y-19315899D01*
X-662973Y-19555079D01*
X-659924Y-19564464D01*
X-625139Y-19648443D01*
X-616290Y-19659424D01*
X-611134Y-19658108D01*
X-21838Y-19068812D01*
X-15460Y-19057132D01*
X1792224Y-19057132D01*
X1792355Y-19058965D01*
X1796606Y-19065580D01*
X2383394Y-19652368D01*
X2395774Y-19659128D01*
X2400034Y-19655939D01*
X2437924Y-19564464D01*
X2440973Y-19555079D01*
X2498396Y-19315899D01*
X2499939Y-19306152D01*
X2519239Y-19060930D01*
X2519239Y-19051070D01*
X2499939Y-18805848D01*
X2498396Y-18796101D01*
X2440973Y-18556921D01*
X2437924Y-18547536D01*
X2403139Y-18463557D01*
X2394290Y-18452576D01*
X2389134Y-18453892D01*
X1799838Y-19043188D01*
X1792224Y-19057132D01*
X-15460Y-19057132D01*
X-14224Y-19054868D01*
X-14355Y-19053035D01*
X-18606Y-19046420D01*
X-605394Y-18459632D01*
X-617774Y-18452872D01*
X-622034Y-18456061D01*
X-659924Y-18547536D01*
X-662973Y-18556921D01*
X-720396Y-18796101D01*
X-721939Y-18805848D01*
X-741239Y-19051070D01*
X-741239Y-19060930D01*
X-5842000Y-19060930D01*
X-5842000Y-17550710D01*
X285576Y-17550710D01*
X286892Y-17555866D01*
X876188Y-18145162D01*
X890132Y-18152776D01*
X891965Y-18152645D01*
X898580Y-18148394D01*
X1485368Y-17561606D01*
X1492128Y-17549226D01*
X1488939Y-17544966D01*
X1432067Y-17521409D01*
X1376786Y-17476861D01*
X1354365Y-17409497D01*
X1371923Y-17340706D01*
X1423885Y-17292328D01*
X1432067Y-17288591D01*
X1481443Y-17268139D01*
X1492424Y-17259290D01*
X1491108Y-17254134D01*
X901812Y-16664838D01*
X887868Y-16657224D01*
X886035Y-16657355D01*
X879420Y-16661606D01*
X292632Y-17248394D01*
X285872Y-17260774D01*
X289061Y-17265034D01*
X345933Y-17288591D01*
X401214Y-17333139D01*
X423635Y-17400503D01*
X406077Y-17469294D01*
X354115Y-17517672D01*
X345933Y-17521409D01*
X296557Y-17541861D01*
X285576Y-17550710D01*
X-5842000Y-17550710D01*
X-5842000Y-15758930D01*
X-741239Y-15758930D01*
X-721939Y-16004152D01*
X-720396Y-16013899D01*
X-662973Y-16253079D01*
X-659924Y-16262464D01*
X-625139Y-16346443D01*
X-616290Y-16357424D01*
X-611134Y-16356108D01*
X-21838Y-15766812D01*
X-15460Y-15755132D01*
X1792224Y-15755132D01*
X1792355Y-15756965D01*
X1796606Y-15763580D01*
X2383394Y-16350368D01*
X2395774Y-16357128D01*
X2400034Y-16353939D01*
X2437924Y-16262464D01*
X2440973Y-16253079D01*
X2498396Y-16013899D01*
X2499939Y-16004152D01*
X2519239Y-15758930D01*
X2519239Y-15749070D01*
X2499939Y-15503848D01*
X2498396Y-15494101D01*
X2450098Y-15292930D01*
X7546716Y-15292930D01*
X7551498Y-15299318D01*
X7705101Y-15383762D01*
X7712236Y-15387119D01*
X7987185Y-15495979D01*
X7994710Y-15498424D01*
X8281116Y-15571960D01*
X8288887Y-15573443D01*
X8582256Y-15610503D01*
X8590146Y-15611000D01*
X8885854Y-15611000D01*
X8893744Y-15610503D01*
X9187113Y-15573443D01*
X9194884Y-15571960D01*
X9481290Y-15498424D01*
X9488815Y-15495979D01*
X9763764Y-15387119D01*
X9770899Y-15383762D01*
X9919459Y-15302090D01*
X9929404Y-15292088D01*
X9926594Y-15284620D01*
X8750812Y-14108838D01*
X8736868Y-14101224D01*
X8735035Y-14101355D01*
X8728420Y-14105606D01*
X7553476Y-15280550D01*
X7546716Y-15292930D01*
X2450098Y-15292930D01*
X2440973Y-15254921D01*
X2437924Y-15245536D01*
X2403139Y-15161557D01*
X2394290Y-15150576D01*
X2389134Y-15151892D01*
X1799838Y-15741188D01*
X1792224Y-15755132D01*
X-15460Y-15755132D01*
X-14224Y-15752868D01*
X-14355Y-15751035D01*
X-18606Y-15744420D01*
X-605394Y-15157632D01*
X-617774Y-15150872D01*
X-622034Y-15154061D01*
X-659924Y-15245536D01*
X-662973Y-15254921D01*
X-720396Y-15494101D01*
X-721939Y-15503848D01*
X-741239Y-15749070D01*
X-741239Y-15758930D01*
X-5842000Y-15758930D01*
X-5842000Y-14248710D01*
X285576Y-14248710D01*
X286892Y-14253866D01*
X876188Y-14843162D01*
X890132Y-14850776D01*
X891965Y-14850645D01*
X898580Y-14846394D01*
X1485368Y-14259606D01*
X1492128Y-14247226D01*
X1488939Y-14242966D01*
X1397464Y-14205076D01*
X1388079Y-14202027D01*
X1148899Y-14144604D01*
X1139152Y-14143061D01*
X893930Y-14123761D01*
X884070Y-14123761D01*
X638848Y-14143061D01*
X629101Y-14144604D01*
X389921Y-14202027D01*
X380536Y-14205076D01*
X296557Y-14239861D01*
X285576Y-14248710D01*
X-5842000Y-14248710D01*
X-5842000Y-13201958D01*
X6320478Y-13201958D01*
X6339045Y-13497064D01*
X6340038Y-13504927D01*
X6395444Y-13795374D01*
X6397415Y-13803051D01*
X6488787Y-14084268D01*
X6491702Y-14091631D01*
X6617603Y-14359183D01*
X6621416Y-14366119D01*
X6631292Y-14381681D01*
X6641896Y-14390976D01*
X6651168Y-14386806D01*
X7827162Y-13210812D01*
X7833540Y-13199132D01*
X9641224Y-13199132D01*
X9641355Y-13200965D01*
X9645606Y-13207580D01*
X10822190Y-14384164D01*
X10834570Y-14390924D01*
X10842709Y-14384831D01*
X10854584Y-14366119D01*
X10858397Y-14359183D01*
X10984298Y-14091631D01*
X10987213Y-14084268D01*
X11078585Y-13803051D01*
X11080556Y-13795374D01*
X11135962Y-13504927D01*
X11136955Y-13497064D01*
X11155522Y-13201958D01*
X11155522Y-13194042D01*
X11136955Y-12898936D01*
X11135962Y-12891073D01*
X11080556Y-12600626D01*
X11078585Y-12592949D01*
X10987213Y-12311732D01*
X10984298Y-12304369D01*
X10858397Y-12036817D01*
X10854584Y-12029881D01*
X10844708Y-12014319D01*
X10834104Y-12005024D01*
X10824832Y-12009194D01*
X9648838Y-13185188D01*
X9641224Y-13199132D01*
X7833540Y-13199132D01*
X7834776Y-13196868D01*
X7834645Y-13195035D01*
X7830394Y-13188420D01*
X6653810Y-12011836D01*
X6641430Y-12005076D01*
X6633291Y-12011169D01*
X6621416Y-12029881D01*
X6617603Y-12036817D01*
X6491702Y-12304369D01*
X6488787Y-12311732D01*
X6397415Y-12592949D01*
X6395444Y-12600626D01*
X6340038Y-12891073D01*
X6339045Y-12898936D01*
X6320478Y-13194042D01*
X6320478Y-13201958D01*
X-5842000Y-13201958D01*
X-5842000Y-9681670D01*
X166976Y-9681670D01*
X171442Y-9687636D01*
X173901Y-9688930D01*
X182450Y-9692647D01*
X423113Y-9776690D01*
X432122Y-9779104D01*
X682572Y-9826654D01*
X691827Y-9827708D01*
X946557Y-9837717D01*
X955871Y-9837391D01*
X1209270Y-9809640D01*
X1218447Y-9807939D01*
X1464960Y-9743037D01*
X1473780Y-9740000D01*
X1597868Y-9686687D01*
X1608730Y-9677697D01*
X1607278Y-9672304D01*
X901812Y-8966838D01*
X887868Y-8959224D01*
X886035Y-8959355D01*
X879420Y-8963606D01*
X173736Y-9669290D01*
X166976Y-9681670D01*
X-5842000Y-9681670D01*
X-5842000Y-8013999D01*
X-893151Y-8013999D01*
X-880920Y-8268619D01*
X-879783Y-8277879D01*
X-830053Y-8527894D01*
X-827559Y-8536887D01*
X-743003Y-8772394D01*
X-736549Y-8778934D01*
X-729317Y-8776291D01*
X-21838Y-8068812D01*
X-15460Y-8057132D01*
X1792224Y-8057132D01*
X1792355Y-8058965D01*
X1796606Y-8065580D01*
X2499591Y-8768565D01*
X2511971Y-8775325D01*
X2516736Y-8771758D01*
X2562536Y-8670085D01*
X2565731Y-8661307D01*
X2634923Y-8415968D01*
X2636781Y-8406839D01*
X2669144Y-8152444D01*
X2669625Y-8146158D01*
X2671903Y-8059160D01*
X2671752Y-8052851D01*
X2652747Y-7797110D01*
X2651370Y-7787904D01*
X2595110Y-7539265D01*
X2592384Y-7530349D01*
X2520632Y-7345841D01*
X2512026Y-7334672D01*
X2507244Y-7335782D01*
X1799838Y-8043188D01*
X1792224Y-8057132D01*
X-15460Y-8057132D01*
X-14224Y-8054868D01*
X-14355Y-8053035D01*
X-18606Y-8046420D01*
X-721949Y-7343077D01*
X-734329Y-7336317D01*
X-738658Y-7339557D01*
X-800039Y-7485936D01*
X-802999Y-7494782D01*
X-865745Y-7741849D01*
X-867367Y-7751046D01*
X-892906Y-8004673D01*
X-893151Y-8013999D01*
X-5842000Y-8013999D01*
X-5842000Y-6381234D01*
X166122Y-6381234D01*
X167998Y-6407465D01*
X166271Y-6423805D01*
X171115Y-6440089D01*
X876188Y-7145162D01*
X890132Y-7152776D01*
X891965Y-7152645D01*
X898580Y-7148394D01*
X1602514Y-6444460D01*
X1610129Y-6430515D01*
X1608583Y-6408903D01*
X1611368Y-6385494D01*
X1607278Y-6370304D01*
X901812Y-5664838D01*
X887868Y-5657224D01*
X886035Y-5657355D01*
X879420Y-5661606D01*
X173736Y-6367290D01*
X166122Y-6381234D01*
X-5842000Y-6381234D01*
X-5842000Y-4711999D01*
X-893151Y-4711999D01*
X-880920Y-4966619D01*
X-879783Y-4975879D01*
X-830053Y-5225894D01*
X-827559Y-5234887D01*
X-743003Y-5470394D01*
X-736549Y-5476934D01*
X-729317Y-5474291D01*
X-21838Y-4766812D01*
X-15460Y-4755132D01*
X1792224Y-4755132D01*
X1792355Y-4756965D01*
X1796606Y-4763580D01*
X2499591Y-5466565D01*
X2511971Y-5473325D01*
X2516736Y-5469758D01*
X2562536Y-5368085D01*
X2565731Y-5359307D01*
X2634923Y-5113968D01*
X2636781Y-5104839D01*
X2669144Y-4850444D01*
X2669625Y-4844158D01*
X2671903Y-4757160D01*
X2671752Y-4750851D01*
X2652747Y-4495110D01*
X2651370Y-4485904D01*
X2595110Y-4237265D01*
X2592384Y-4228349D01*
X2520632Y-4043841D01*
X2512026Y-4032672D01*
X2507244Y-4033782D01*
X1799838Y-4741188D01*
X1792224Y-4755132D01*
X-15460Y-4755132D01*
X-14224Y-4752868D01*
X-14355Y-4751035D01*
X-18606Y-4744420D01*
X-721949Y-4041077D01*
X-734329Y-4034317D01*
X-738658Y-4037557D01*
X-800039Y-4183936D01*
X-802999Y-4192782D01*
X-865745Y-4439849D01*
X-867367Y-4449046D01*
X-892906Y-4702673D01*
X-893151Y-4711999D01*
X-5842000Y-4711999D01*
X-5842000Y-3132199D01*
X169364Y-3132199D01*
X171117Y-3138091D01*
X876188Y-3843162D01*
X890132Y-3850776D01*
X891965Y-3850645D01*
X898580Y-3846394D01*
X1602514Y-3142460D01*
X1609274Y-3130080D01*
X1605220Y-3124664D01*
X1561104Y-3102908D01*
X1552472Y-3099421D01*
X1309675Y-3021701D01*
X1300624Y-3019528D01*
X1049009Y-2978550D01*
X1039720Y-2977738D01*
X784828Y-2974401D01*
X775517Y-2974971D01*
X522927Y-3009347D01*
X513808Y-3011285D01*
X269084Y-3082616D01*
X260331Y-3085888D01*
X179989Y-3122927D01*
X169364Y-3132199D01*
X-5842000Y-3132199D01*
X-5842000Y1437226D01*
X285872Y1437226D01*
X289061Y1432966D01*
X380536Y1395076D01*
X389921Y1392027D01*
X629101Y1334604D01*
X638848Y1333061D01*
X884070Y1313761D01*
X893930Y1313761D01*
X1139152Y1333061D01*
X1148899Y1334604D01*
X1388079Y1392027D01*
X1397464Y1395076D01*
X1481443Y1429861D01*
X1492424Y1438710D01*
X1491108Y1443866D01*
X901812Y2033162D01*
X887868Y2040776D01*
X886035Y2040645D01*
X879420Y2036394D01*
X292632Y1449606D01*
X285872Y1437226D01*
X-5842000Y1437226D01*
X-5842000Y2939070D01*
X-741239Y2939070D01*
X-721939Y2693848D01*
X-720396Y2684101D01*
X-662973Y2444921D01*
X-659924Y2435536D01*
X-625139Y2351557D01*
X-616290Y2340576D01*
X-611134Y2341892D01*
X-21838Y2931188D01*
X-15460Y2942868D01*
X1792224Y2942868D01*
X1792355Y2941035D01*
X1796606Y2934420D01*
X2383394Y2347632D01*
X2395774Y2340872D01*
X2400034Y2344061D01*
X2437924Y2435536D01*
X2440973Y2444921D01*
X2498396Y2684101D01*
X2499939Y2693848D01*
X2519239Y2939070D01*
X2519239Y2948930D01*
X2499939Y3194152D01*
X2498396Y3203899D01*
X2440973Y3443079D01*
X2437924Y3452464D01*
X2403139Y3536443D01*
X2394290Y3547424D01*
X2389134Y3546108D01*
X1799838Y2956812D01*
X1792224Y2942868D01*
X-15460Y2942868D01*
X-14224Y2945132D01*
X-14355Y2946965D01*
X-18606Y2953580D01*
X-605394Y3540368D01*
X-617774Y3547128D01*
X-622034Y3543939D01*
X-659924Y3452464D01*
X-662973Y3443079D01*
X-720396Y3203899D01*
X-721939Y3194152D01*
X-741239Y2948930D01*
X-741239Y2939070D01*
X-5842000Y2939070D01*
X-5842000Y4449290D01*
X285576Y4449290D01*
X286892Y4444134D01*
X876188Y3854838D01*
X890132Y3847224D01*
X891965Y3847355D01*
X898580Y3851606D01*
X1485368Y4438394D01*
X1492128Y4450774D01*
X1488939Y4455034D01*
X1432067Y4478591D01*
X1376786Y4523139D01*
X1354365Y4590503D01*
X1371923Y4659294D01*
X1423885Y4707672D01*
X1432067Y4711409D01*
X1481443Y4731861D01*
X1492424Y4740710D01*
X1491108Y4745866D01*
X901812Y5335162D01*
X887868Y5342776D01*
X886035Y5342645D01*
X879420Y5338394D01*
X292632Y4751606D01*
X285872Y4739226D01*
X289061Y4734966D01*
X345933Y4711409D01*
X401214Y4666861D01*
X423635Y4599497D01*
X406077Y4530706D01*
X354115Y4482328D01*
X345933Y4478591D01*
X296557Y4458139D01*
X285576Y4449290D01*
X-5842000Y4449290D01*
X-5842000Y6241070D01*
X-741239Y6241070D01*
X-721939Y5995848D01*
X-720396Y5986101D01*
X-662973Y5746921D01*
X-659924Y5737536D01*
X-625139Y5653557D01*
X-616290Y5642576D01*
X-611134Y5643892D01*
X-21838Y6233188D01*
X-15460Y6244868D01*
X1792224Y6244868D01*
X1792355Y6243035D01*
X1796606Y6236420D01*
X2383394Y5649632D01*
X2395774Y5642872D01*
X2400034Y5646061D01*
X2437924Y5737536D01*
X2440973Y5746921D01*
X2498396Y5986101D01*
X2499939Y5995848D01*
X2519239Y6241070D01*
X2519239Y6250930D01*
X2499939Y6496152D01*
X2498396Y6505899D01*
X2440973Y6745079D01*
X2437924Y6754464D01*
X2403139Y6838443D01*
X2394290Y6849424D01*
X2389134Y6848108D01*
X1799838Y6258812D01*
X1792224Y6244868D01*
X-15460Y6244868D01*
X-14224Y6247132D01*
X-14355Y6248965D01*
X-18606Y6255580D01*
X-605394Y6842368D01*
X-617774Y6849128D01*
X-622034Y6845939D01*
X-659924Y6754464D01*
X-662973Y6745079D01*
X-720396Y6505899D01*
X-721939Y6496152D01*
X-741239Y6250930D01*
X-741239Y6241070D01*
X-5842000Y6241070D01*
X-5842000Y7751290D01*
X285576Y7751290D01*
X286892Y7746134D01*
X876188Y7156838D01*
X890132Y7149224D01*
X891965Y7149355D01*
X898580Y7153606D01*
X1485368Y7740394D01*
X1492128Y7752774D01*
X1488939Y7757034D01*
X1397464Y7794924D01*
X1388079Y7797973D01*
X1148899Y7855396D01*
X1139152Y7856939D01*
X893930Y7876239D01*
X884070Y7876239D01*
X638848Y7856939D01*
X629101Y7855396D01*
X389921Y7797973D01*
X380536Y7794924D01*
X296557Y7760139D01*
X285576Y7751290D01*
X-5842000Y7751290D01*
X-5842000Y12160226D01*
X285872Y12160226D01*
X289061Y12155966D01*
X380536Y12118076D01*
X389921Y12115027D01*
X629101Y12057604D01*
X638848Y12056061D01*
X884070Y12036761D01*
X893930Y12036761D01*
X1139152Y12056061D01*
X1148899Y12057604D01*
X1388079Y12115027D01*
X1397464Y12118076D01*
X1481443Y12152861D01*
X1492424Y12161710D01*
X1491108Y12166866D01*
X901812Y12756162D01*
X887868Y12763776D01*
X886035Y12763645D01*
X879420Y12759394D01*
X292632Y12172606D01*
X285872Y12160226D01*
X-5842000Y12160226D01*
X-5842000Y13662070D01*
X-741239Y13662070D01*
X-721939Y13416848D01*
X-720396Y13407101D01*
X-662973Y13167921D01*
X-659924Y13158536D01*
X-625139Y13074557D01*
X-616290Y13063576D01*
X-611134Y13064892D01*
X-21838Y13654188D01*
X-15460Y13665868D01*
X1792224Y13665868D01*
X1792355Y13664035D01*
X1796606Y13657420D01*
X2383394Y13070632D01*
X2395774Y13063872D01*
X2400034Y13067061D01*
X2437924Y13158536D01*
X2440973Y13167921D01*
X2498396Y13407101D01*
X2499939Y13416848D01*
X2519239Y13662070D01*
X2519239Y13671930D01*
X2499939Y13917152D01*
X2498396Y13926899D01*
X2440973Y14166079D01*
X2437924Y14175464D01*
X2403139Y14259443D01*
X2394290Y14270424D01*
X2389134Y14269108D01*
X1799838Y13679812D01*
X1792224Y13665868D01*
X-15460Y13665868D01*
X-14224Y13668132D01*
X-14355Y13669965D01*
X-18606Y13676580D01*
X-605394Y14263368D01*
X-617774Y14270128D01*
X-622034Y14266939D01*
X-659924Y14175464D01*
X-662973Y14166079D01*
X-720396Y13926899D01*
X-721939Y13917152D01*
X-741239Y13671930D01*
X-741239Y13662070D01*
X-5842000Y13662070D01*
X-5842000Y15172290D01*
X285576Y15172290D01*
X286892Y15167134D01*
X876188Y14577838D01*
X890132Y14570224D01*
X891965Y14570355D01*
X898580Y14574606D01*
X1485368Y15161394D01*
X1492128Y15173774D01*
X1488939Y15178034D01*
X1432067Y15201591D01*
X1376786Y15246139D01*
X1354365Y15313503D01*
X1371923Y15382294D01*
X1423885Y15430672D01*
X1432067Y15434409D01*
X1481443Y15454861D01*
X1492424Y15463710D01*
X1491108Y15468866D01*
X901812Y16058162D01*
X887868Y16065776D01*
X886035Y16065645D01*
X879420Y16061394D01*
X292632Y15474606D01*
X285872Y15462226D01*
X289061Y15457966D01*
X345933Y15434409D01*
X401214Y15389861D01*
X423635Y15322497D01*
X406077Y15253706D01*
X354115Y15205328D01*
X345933Y15201591D01*
X296557Y15181139D01*
X285576Y15172290D01*
X-5842000Y15172290D01*
X-5842000Y16964070D01*
X-741239Y16964070D01*
X-721939Y16718848D01*
X-720396Y16709101D01*
X-662973Y16469921D01*
X-659924Y16460536D01*
X-625139Y16376557D01*
X-616290Y16365576D01*
X-611134Y16366892D01*
X-21838Y16956188D01*
X-15460Y16967868D01*
X1792224Y16967868D01*
X1792355Y16966035D01*
X1796606Y16959420D01*
X2383394Y16372632D01*
X2395774Y16365872D01*
X2400034Y16369061D01*
X2437924Y16460536D01*
X2440973Y16469921D01*
X2498396Y16709101D01*
X2499939Y16718848D01*
X2519239Y16964070D01*
X2519239Y16973930D01*
X2499939Y17219152D01*
X2498396Y17228899D01*
X2440973Y17468079D01*
X2437924Y17477464D01*
X2403139Y17561443D01*
X2394290Y17572424D01*
X2389134Y17571108D01*
X1799838Y16981812D01*
X1792224Y16967868D01*
X-15460Y16967868D01*
X-14224Y16970132D01*
X-14355Y16971965D01*
X-18606Y16978580D01*
X-605394Y17565368D01*
X-617774Y17572128D01*
X-622034Y17568939D01*
X-659924Y17477464D01*
X-662973Y17468079D01*
X-720396Y17228899D01*
X-721939Y17219152D01*
X-741239Y16973930D01*
X-741239Y16964070D01*
X-5842000Y16964070D01*
X-5842000Y18474290D01*
X285576Y18474290D01*
X286892Y18469134D01*
X876188Y17879838D01*
X890132Y17872224D01*
X891965Y17872355D01*
X898580Y17876606D01*
X1485368Y18463394D01*
X1492128Y18475774D01*
X1488939Y18480034D01*
X1397464Y18517924D01*
X1388079Y18520973D01*
X1148899Y18578396D01*
X1139152Y18579939D01*
X893930Y18599239D01*
X884070Y18599239D01*
X638848Y18579939D01*
X629101Y18578396D01*
X389921Y18520973D01*
X380536Y18517924D01*
X296557Y18483139D01*
X285576Y18474290D01*
X-5842000Y18474290D01*
X-5842000Y19648810D01*
X-5821998Y19716931D01*
X-5805095Y19737905D01*
X-4927405Y20615595D01*
X-4865093Y20649621D01*
X-4838310Y20652500D01*
X2966695Y20652500D01*
X3034816Y20632498D01*
G37*
%TD.AperFunction*%
%TD*%
M02*
