%TF.GenerationSoftware,KiCad,Pcbnew,(6.0.10)*%
%TF.CreationDate,2023-01-21T11:36:27-08:00*%
%TF.ProjectId,unified_elec_steering,756e6966-6965-4645-9f65-6c65635f7374,rev?*%
%TF.SameCoordinates,Original*%
%TF.FileFunction,Soldermask,Bot*%
%TF.FilePolarity,Negative*%
%FSLAX46Y46*%
G04 Gerber Fmt 4.6, Leading zero omitted, Abs format (unit mm)*
G04 Created by KiCad (PCBNEW (6.0.10)) date 2023-01-21 11:36:27*
%MOMM*%
%LPD*%
G01*
G04 APERTURE LIST*
G04 Aperture macros list*
%AMRoundRect*
0 Rectangle with rounded corners*
0 $1 Rounding radius*
0 $2 $3 $4 $5 $6 $7 $8 $9 X,Y pos of 4 corners*
0 Add a 4 corners polygon primitive as box body*
4,1,4,$2,$3,$4,$5,$6,$7,$8,$9,$2,$3,0*
0 Add four circle primitives for the rounded corners*
1,1,$1+$1,$2,$3*
1,1,$1+$1,$4,$5*
1,1,$1+$1,$6,$7*
1,1,$1+$1,$8,$9*
0 Add four rect primitives between the rounded corners*
20,1,$1+$1,$2,$3,$4,$5,0*
20,1,$1+$1,$4,$5,$6,$7,0*
20,1,$1+$1,$6,$7,$8,$9,0*
20,1,$1+$1,$8,$9,$2,$3,0*%
G04 Aperture macros list end*
%ADD10C,0.876200*%
%ADD11C,0.836200*%
%ADD12C,0.010000*%
%ADD13RoundRect,0.250000X0.620000X0.620000X-0.620000X0.620000X-0.620000X-0.620000X0.620000X-0.620000X0*%
%ADD14C,1.740000*%
%ADD15C,2.540000*%
%ADD16C,2.235200*%
%ADD17C,1.600000*%
%ADD18C,2.180000*%
%ADD19C,3.810000*%
%ADD20R,3.810000X3.810000*%
%ADD21R,1.600000X1.600000*%
%ADD22O,1.600000X1.600000*%
%ADD23RoundRect,1.500000X-1.500000X1.500000X-1.500000X-1.500000X1.500000X-1.500000X1.500000X1.500000X0*%
%ADD24C,6.000000*%
%ADD25RoundRect,0.250000X0.250000X0.475000X-0.250000X0.475000X-0.250000X-0.475000X0.250000X-0.475000X0*%
%ADD26RoundRect,0.250000X-0.475000X0.250000X-0.475000X-0.250000X0.475000X-0.250000X0.475000X0.250000X0*%
G04 APERTURE END LIST*
D10*
%TO.C,J5*%
X-10346893Y-42131813D02*
G75*
G03*
X-10346893Y-42131813I-438100J0D01*
G01*
D11*
X-8616893Y-39901813D02*
G75*
G03*
X-8616893Y-39901813I-418100J0D01*
G01*
X-5116893Y-39901813D02*
G75*
G03*
X-5116893Y-39901813I-418100J0D01*
G01*
G36*
X-11698793Y-40738013D02*
G01*
X-13371193Y-40738013D01*
X-13371193Y-39065613D01*
X-11698793Y-39065613D01*
X-11698793Y-40738013D01*
G37*
D12*
X-11698793Y-40738013D02*
X-13371193Y-40738013D01*
X-13371193Y-39065613D01*
X-11698793Y-39065613D01*
X-11698793Y-40738013D01*
D11*
%TO.C,J9*%
X12883107Y-39901813D02*
G75*
G03*
X12883107Y-39901813I-418100J0D01*
G01*
X9383107Y-39901813D02*
G75*
G03*
X9383107Y-39901813I-418100J0D01*
G01*
D10*
X7653107Y-42131813D02*
G75*
G03*
X7653107Y-42131813I-438100J0D01*
G01*
G36*
X6301207Y-40738013D02*
G01*
X4628807Y-40738013D01*
X4628807Y-39065613D01*
X6301207Y-39065613D01*
X6301207Y-40738013D01*
G37*
D12*
X6301207Y-40738013D02*
X4628807Y-40738013D01*
X4628807Y-39065613D01*
X6301207Y-39065613D01*
X6301207Y-40738013D01*
D10*
%TO.C,J4*%
X-29270797Y-32120688D02*
G75*
G03*
X-29270797Y-32120688I-438100J0D01*
G01*
D11*
X-26516802Y-31537288D02*
G75*
G03*
X-26516802Y-31537288I-418100J0D01*
G01*
X-23835647Y-33787044D02*
G75*
G03*
X-23835647Y-33787044I-418100J0D01*
G01*
G36*
X-28437993Y-29184464D02*
G01*
X-29512991Y-30465596D01*
X-30794123Y-29390598D01*
X-29719125Y-28109466D01*
X-28437993Y-29184464D01*
G37*
D12*
X-28437993Y-29184464D02*
X-29512991Y-30465596D01*
X-30794123Y-29390598D01*
X-29719125Y-28109466D01*
X-28437993Y-29184464D01*
D10*
%TO.C,J10*%
X27686926Y-34710106D02*
G75*
G03*
X27686926Y-34710106I-438100J0D01*
G01*
D11*
X27574088Y-31876948D02*
G75*
G03*
X27574088Y-31876948I-418100J0D01*
G01*
X30255243Y-29627192D02*
G75*
G03*
X30255243Y-29627192I-418100J0D01*
G01*
G36*
X25652897Y-34229772D02*
G01*
X24371765Y-35304770D01*
X23296767Y-34023638D01*
X24577899Y-32948640D01*
X25652897Y-34229772D01*
G37*
D12*
X25652897Y-34229772D02*
X24371765Y-35304770D01*
X23296767Y-34023638D01*
X24577899Y-32948640D01*
X25652897Y-34229772D01*
%TD*%
D13*
%TO.C,J12*%
X30810000Y31000000D03*
D14*
X28270000Y31000000D03*
X25730000Y31000000D03*
X23190000Y31000000D03*
%TD*%
D15*
%TO.C,F4*%
X-12573000Y-15754000D03*
X-12573000Y-19056000D03*
D16*
X889000Y-15754000D03*
X889000Y-19056000D03*
%TD*%
D17*
%TO.C,J5*%
X-10784993Y-42131813D03*
%TD*%
D13*
%TO.C,J7*%
X16350000Y31000000D03*
D14*
X13810000Y31000000D03*
X11270000Y31000000D03*
X8730000Y31000000D03*
X6190000Y31000000D03*
X3650000Y31000000D03*
%TD*%
D15*
%TO.C,F2*%
X-12573000Y-8056000D03*
X-12573000Y-4754000D03*
X889000Y-4754000D03*
X889000Y-8056000D03*
%TD*%
D17*
%TO.C,J9*%
X7215007Y-42131813D03*
%TD*%
D13*
%TO.C,J6*%
X-23190000Y31000000D03*
D14*
X-25730000Y31000000D03*
X-28270000Y31000000D03*
X-30810000Y31000000D03*
%TD*%
D17*
%TO.C,J4*%
X-29708897Y-32120688D03*
%TD*%
D15*
%TO.C,F3*%
X-12573000Y2944000D03*
X-12573000Y6246000D03*
D16*
X889000Y6246000D03*
X889000Y2944000D03*
%TD*%
D13*
%TO.C,J11*%
X8540000Y41275000D03*
D14*
X6000000Y41275000D03*
X3460000Y41275000D03*
%TD*%
D15*
%TO.C,F1*%
X-12573000Y16969000D03*
X-12573000Y13667000D03*
D16*
X889000Y13667000D03*
X889000Y16969000D03*
%TD*%
D17*
%TO.C,J10*%
X27248826Y-34710106D03*
%TD*%
D18*
%TO.C,U2*%
X10398000Y-18638000D03*
X35798000Y-18638000D03*
X35798000Y20162000D03*
X10398000Y20162000D03*
D19*
X8738000Y14742000D03*
D20*
X8738000Y9742000D03*
X8738000Y-8198000D03*
D19*
X8738000Y-13198000D03*
%TD*%
D21*
%TO.C,U1*%
X-40376000Y21336000D03*
D22*
X-40376000Y18796000D03*
X-40376000Y16256000D03*
X-40376000Y13716000D03*
X-40376000Y11176000D03*
X-40376000Y8636000D03*
X-40376000Y6096000D03*
X-40376000Y3556000D03*
X-40376000Y1016000D03*
X-40376000Y-1524000D03*
X-40376000Y-4064000D03*
X-40376000Y-6604000D03*
X-40376000Y-9144000D03*
X-40376000Y-11684000D03*
X-40376000Y-14224000D03*
X-25136000Y-14224000D03*
X-25136000Y-11684000D03*
X-25136000Y-9144000D03*
X-25136000Y-6604000D03*
X-25136000Y-4064000D03*
X-25136000Y-1524000D03*
X-25136000Y1016000D03*
X-25136000Y3556000D03*
X-25136000Y6096000D03*
X-25136000Y8636000D03*
X-25136000Y11176000D03*
X-25136000Y13716000D03*
X-25136000Y16256000D03*
X-25136000Y18796000D03*
X-25136000Y21336000D03*
%TD*%
D23*
%TO.C,J3*%
X43688000Y3600000D03*
D24*
X43688000Y-3600000D03*
%TD*%
D13*
%TO.C,J8*%
X-3650000Y31000000D03*
D14*
X-6190000Y31000000D03*
X-8730000Y31000000D03*
X-11270000Y31000000D03*
X-13810000Y31000000D03*
X-16350000Y31000000D03*
%TD*%
D13*
%TO.C,J13*%
X-3460000Y41275000D03*
D14*
X-6000000Y41275000D03*
X-8540000Y41275000D03*
%TD*%
D25*
%TO.C,C2*%
X5486400Y-31724600D03*
X3586400Y-31724600D03*
%TD*%
%TO.C,C3*%
X-12512000Y-31724600D03*
X-14412000Y-31724600D03*
%TD*%
%TO.C,C4*%
X-36134000Y-22453600D03*
X-38034000Y-22453600D03*
%TD*%
D26*
%TO.C,C1*%
X14071600Y-24602400D03*
X14071600Y-26502400D03*
%TD*%
M02*
